<svg width="24" height="24" viewBox="0 0 24 24" fill="none" xmlns="http://www.w3.org/2000/svg">
<path fill-rule="evenodd" clip-rule="evenodd" d="M12 4.08615C10.6753 4.08615 9.40494 4.61236 8.46827 5.54903C7.5316 6.4857 7.00538 7.75609 7.00538 9.08074C7.00538 10.4054 7.5316 11.6758 8.46827 12.6125C9.40494 13.5491 10.6753 14.0753 12 14.0753C13.3246 14.0753 14.595 13.5491 15.5317 12.6125C16.4684 11.6758 16.9946 10.4054 16.9946 9.08074C16.9946 7.75609 16.4684 6.4857 15.5317 5.54903C14.595 4.61236 13.3246 4.08615 12 4.08615ZM9.75253 6.83329C10.3486 6.23723 11.157 5.90236 12 5.90236C12.4174 5.90236 12.8307 5.98458 13.2163 6.14431C13.6019 6.30403 13.9523 6.53815 14.2474 6.83329C14.5426 7.12843 14.7767 7.47881 14.9364 7.86443C15.0961 8.25005 15.1784 8.66335 15.1784 9.08074C15.1784 9.49813 15.0961 9.91144 14.9364 10.2971C14.7767 10.6827 14.5426 11.0331 14.2474 11.3282C13.9523 11.6233 13.6019 11.8575 13.2163 12.0172C12.8307 12.1769 12.4174 12.2591 12 12.2591C11.157 12.2591 10.3486 11.9243 9.75253 11.3282C9.15646 10.7321 8.8216 9.9237 8.8216 9.08074C8.8216 8.23779 9.15646 7.42935 9.75253 6.83329Z" fill="#663AA3"/>
<path fill-rule="evenodd" clip-rule="evenodd" d="M12 0C5.37241 0 0 5.37241 0 12C0 18.6276 5.37241 24 12 24C18.6276 24 24 18.6276 24 12C24 5.37241 18.6276 0 12 0ZM1.81622 12C1.81622 6.37572 6.37572 1.81622 12 1.81622C17.6243 1.81622 22.1838 6.37572 22.1838 12C22.1838 14.5138 21.2733 16.8144 19.7636 18.5909C19.4404 17.6583 18.6228 16.9407 17.5875 16.7977C13.4654 16.2272 10.5715 16.1719 6.41886 16.7788C5.37676 16.9309 4.56225 17.6568 4.2384 18.5932C2.7275 16.8164 1.81622 14.5149 1.81622 12ZM6.68131 18.5753C10.6429 17.9966 13.3632 18.0457 17.3375 18.596C17.5494 18.6269 17.743 18.7334 17.8826 18.8957C18.0224 19.0584 18.0987 19.2661 18.0973 19.4806L18.0973 19.4827C18.0973 19.6895 18.026 19.8886 17.9004 20.042C17.7382 20.2402 17.5738 20.4366 17.4074 20.6312C15.8406 21.6149 13.9872 22.1838 12 22.1838C9.96529 22.1838 8.07082 21.5874 6.48073 20.5599C6.34971 20.3958 6.22022 20.2305 6.09231 20.0639C5.96875 19.9017 5.9021 19.7033 5.90268 19.4994L5.90268 19.4985C5.90268 19.0263 6.24076 18.6396 6.68131 18.5753Z" fill="#663AA3"/>
</svg>
