<svg width="24" height="21" viewBox="0 0 24 21" fill="none" xmlns="http://www.w3.org/2000/svg">
<path fill-rule="evenodd" clip-rule="evenodd" d="M19.6936 1.4C19.6979 1.17126 19.7001 0.937961 19.7001 0.7V0H4.3001V0.7C4.3001 0.937961 4.30235 1.17126 4.30679 1.4H0.100098V2.1C0.100098 9.79288 6.70843 11.6803 7.56867 11.8811C8.20098 12.5665 8.84057 13.0732 9.40114 13.5174L9.4801 13.58C10.6701 14.49 11.3001 14.98 11.3001 16.1V18.2C10.1801 18.34 9.0601 18.76 8.6401 19.6H7.1001C6.3301 19.6 5.7001 20.23 5.7001 21H18.3001C18.3001 20.23 17.6701 19.6 16.9001 19.6H15.3601C14.9401 18.76 13.8901 18.34 12.7001 18.2V16.1C12.7001 14.98 13.2601 14.49 14.5201 13.58C15.1217 13.1188 15.8038 12.5943 16.4708 11.8717C17.4747 11.6266 23.9001 9.68565 23.9001 2.1V1.4H19.6936ZM19.6377 2.8C19.4376 6.0182 18.7758 8.22044 17.9332 9.80375C19.7385 8.89664 22.2288 6.91407 22.5001 2.8H19.6377ZM1.5001 2.8H4.36387C4.56903 6.03176 5.24868 8.23897 6.10374 9.82373C4.29629 8.91634 1.76855 6.91631 1.5001 2.8ZM12.0001 13.93C11.5801 13.37 10.9501 12.88 10.3901 12.46L10.3496 12.4285C8.46335 10.9618 5.9091 8.97569 5.7701 1.4H18.3701C18.2301 8.96 15.6401 10.99 13.7501 12.46L13.6068 12.5601C12.9645 13.0084 12.3912 13.4085 12.0001 13.93Z" fill="#663AA3"/>
</svg>
