<svg width="23" height="24" viewBox="0 0 23 24" fill="none" xmlns="http://www.w3.org/2000/svg">
<path d="M21.7606 17.9544C21.081 17.3725 20.4861 16.7055 19.9918 15.9713C19.4521 14.9578 19.1287 13.851 19.0404 12.7158V9.37238C19.0451 7.58939 18.3717 5.86613 17.1467 4.52638C15.9218 3.18662 14.2296 2.3226 12.3881 2.09663V1.22355C12.3881 0.98391 12.289 0.75409 12.1125 0.584642C11.9361 0.415195 11.6968 0.32 11.4473 0.32C11.1978 0.32 10.9585 0.415195 10.7821 0.584642C10.6057 0.75409 10.5066 0.98391 10.5066 1.22355V2.11017C8.68157 2.35242 7.00982 3.22167 5.80095 4.55692C4.59208 5.89217 3.92801 7.60294 3.93172 9.37238V12.7158C3.84346 13.851 3.52002 14.9578 2.98038 15.9713C2.49476 16.7039 1.90937 17.3708 1.23977 17.9544C1.1646 18.0178 1.10436 18.0959 1.06305 18.1834C1.02173 18.2709 1.0003 18.3659 1.00018 18.462V19.3824C1.00018 19.5619 1.07442 19.7341 1.20658 19.861C1.33873 19.9879 1.51798 20.0593 1.70487 20.0593H21.2955C21.4824 20.0593 21.6616 19.9879 21.7938 19.861C21.9259 19.7341 22.0002 19.5619 22.0002 19.3824V18.462C22 18.3659 21.9786 18.2709 21.9373 18.1834C21.896 18.0959 21.8357 18.0178 21.7606 17.9544ZM2.46595 18.7056C3.1216 18.0973 3.69889 17.4156 4.18541 16.6752C4.86517 15.4512 5.26179 14.1006 5.34816 12.7158V9.37238C5.32021 8.57917 5.45875 7.78868 5.75551 7.04797C6.05227 6.30726 6.5012 5.63148 7.07555 5.06087C7.64991 4.49026 8.33794 4.03649 9.09869 3.72659C9.85944 3.41668 10.6773 3.25697 11.5037 3.25697C12.3301 3.25697 13.148 3.41668 13.9087 3.72659C14.6695 4.03649 15.3575 4.49026 15.9318 5.06087C16.5062 5.63148 16.9551 6.30726 17.2519 7.04797C17.5487 7.78868 17.6872 8.57917 17.6592 9.37238V12.7158C17.7456 14.1006 18.1422 15.4512 18.822 16.6752C19.3085 17.4156 19.8858 18.0973 20.5415 18.7056H2.46595Z" fill="#663AA3"/>
<path d="M11.5354 23.3198C11.9793 23.31 12.4053 23.1497 12.738 22.8673C13.0708 22.5849 13.2888 22.1986 13.3535 21.7767H9.64682C9.7134 22.21 9.94161 22.6054 10.289 22.8893C10.6364 23.1732 11.0793 23.3261 11.5354 23.3198Z" fill="#663AA3"/>
<path fill-rule="evenodd" clip-rule="evenodd" d="M10.5604 0.353848C10.7978 0.125899 11.117 0 11.4473 0C11.7776 0 12.0969 0.125899 12.3342 0.353848C12.572 0.582218 12.7081 0.894776 12.7081 1.22355V1.81842C14.5144 2.10354 16.168 2.98164 17.3829 4.31044C18.6609 5.7082 19.3653 7.50842 19.3604 9.37321V12.7033C19.4462 13.7844 19.754 14.839 20.2665 15.8063C20.7425 16.5106 21.3146 17.1511 21.9678 17.7105C22.0771 17.803 22.1656 17.9174 22.2267 18.0468C22.288 18.1766 22.32 18.318 22.3202 18.4616V19.3824C22.3202 19.6511 22.2089 19.906 22.0154 20.0918C21.8224 20.2772 21.5632 20.3793 21.2955 20.3793H1.70487C1.43718 20.3793 1.17798 20.2772 0.984915 20.0918C0.791408 19.906 0.680176 19.6511 0.680176 19.3824V18.462C0.680365 18.3184 0.712401 18.1766 0.773664 18.0468C0.834515 17.9179 0.922596 17.8038 1.03132 17.7116C1.67486 17.1504 2.23764 16.51 2.70513 15.8073C3.21797 14.8398 3.52594 13.7848 3.61172 12.7033V9.3727M10.1866 1.83468V1.22355C10.1866 0.894777 10.3227 0.582219 10.5604 0.353848M11.4473 0.64C11.2786 0.64 11.1193 0.70449 11.0038 0.815437C10.8887 0.925961 10.8266 1.07304 10.8266 1.22355V2.3905L10.5487 2.42739C8.79697 2.65991 7.19497 3.49396 6.03817 4.77169C4.88167 6.0491 4.24818 7.68345 4.25172 9.3717L4.25172 12.7283L4.25076 12.7406C4.15905 13.9201 3.82301 15.0696 3.26283 16.1217L3.2556 16.1353L3.24709 16.1481C2.74546 16.9048 2.14102 17.5934 1.45002 18.1956L1.44616 18.199C1.40551 18.2333 1.37381 18.2747 1.35243 18.32C1.33109 18.3652 1.32026 18.4136 1.32018 18.4622V19.3824C1.32018 19.4728 1.35743 19.5622 1.42824 19.6302C1.49948 19.6987 1.59877 19.7393 1.70487 19.7393H21.2955C21.4016 19.7393 21.5009 19.6987 21.5721 19.6302C21.6429 19.5622 21.6802 19.4728 21.6802 19.3824V18.4624C21.6801 18.4137 21.6693 18.3652 21.6479 18.32C21.6265 18.2747 21.5949 18.2332 21.5542 18.1989L21.5525 18.1974C20.8512 17.597 20.2369 16.9084 19.7263 16.15L19.7171 16.1363L19.7093 16.1217C19.1492 15.0696 18.8131 13.9201 18.7214 12.7406L18.7204 12.7283V9.37238C18.7249 7.67119 18.0825 6.02405 16.9106 4.74231C15.7383 3.46022 14.1167 2.63114 12.3491 2.41425L12.0681 2.37977V1.22355C12.0681 1.07305 12.006 0.925962 11.8909 0.815437C11.7754 0.70449 11.616 0.64 11.4473 0.64ZM11.5037 3.57697C10.7185 3.57697 9.9416 3.72874 9.21942 4.02294C8.49726 4.31713 7.84498 4.74753 7.30108 5.28789C6.75722 5.82821 6.33285 6.46738 6.05256 7.16698C5.77228 7.86656 5.64159 8.61269 5.66796 9.36111L5.66836 9.37238L5.66816 12.7258L5.66754 12.7358C5.57818 14.1685 5.16783 15.5653 4.46517 16.8306L4.45938 16.841L4.45284 16.8509C4.09513 17.3953 3.68987 17.9087 3.24174 18.3856H19.7657C19.3175 17.9087 18.9123 17.3953 18.5546 16.8509L18.548 16.841L18.5422 16.8306C17.8396 15.5653 17.4292 14.1685 17.3399 12.7358L17.3392 12.7258V9.3611C17.3656 8.61268 17.2351 7.86656 16.9548 7.16699C16.6746 6.46738 16.2502 5.82821 15.7063 5.28789C15.1624 4.74753 14.5101 4.31713 13.788 4.02294C13.0658 3.72874 12.2889 3.57697 11.5037 3.57697ZM8.97797 3.43023C9.77728 3.10461 10.6362 2.93697 11.5037 2.93697C12.3712 2.93697 13.2301 3.10461 14.0294 3.43023C14.8288 3.75586 15.5526 4.23299 16.1574 4.83386C16.7622 5.43476 17.2357 6.14715 17.5489 6.92896C17.8615 7.70904 18.0079 8.54187 17.9792 9.37794V12.7058C18.0636 14.0352 18.4443 15.3323 19.096 16.5094C19.5668 17.2243 20.1251 17.8828 20.7591 18.471L21.3568 19.0256H1.65056L2.2483 18.471C2.88229 17.8828 3.44057 17.2243 3.91143 16.5094C4.56314 15.3323 4.94377 14.0352 5.02816 12.7058V9.37792C4.9995 8.54186 5.14593 7.70903 5.45846 6.92896C5.77169 6.14715 6.24518 5.43476 6.85002 4.83386C7.45483 4.23299 8.17863 3.75586 8.97797 3.43023ZM9.27391 21.4567H13.7264L13.6698 21.8252C13.5931 22.3251 13.3352 22.7802 12.9451 23.1113C12.5554 23.4421 12.0584 23.6283 11.5425 23.6397L11.5399 23.6398C11.0098 23.6471 10.4933 23.4695 10.0865 23.1371C9.67945 22.8045 9.40942 22.3388 9.33053 21.8253L9.27391 21.4567ZM10.0721 22.0967C10.1651 22.3043 10.3076 22.4913 10.4915 22.6415C10.7792 22.8766 11.148 23.0049 11.5297 22.9999C11.9011 22.9913 12.2556 22.857 12.531 22.6233C12.7043 22.4762 12.8391 22.2959 12.9284 22.0967H10.0721Z" fill="#663AA3"/>
</svg>
