<svg width="3" height="2" viewBox="0 0 7 6" fill="none" xmlns="http://www.w3.org/2000/svg">
<path d="M0.828427 0.171573C0.922195 0.0778046 1.04937 0.0251261 1.18198 0.0251261C1.31459 0.0251262 1.44177 0.0778047 1.53553 0.171573L3.65685 2.29289L5.77817 0.171573C5.87194 0.0778046 5.99912 0.0251261 6.13173 0.0251261C6.26434 0.0251261 6.39151 0.0778048 6.48528 0.171573C6.57905 0.265341 6.63173 0.392518 6.63173 0.525126C6.63173 0.657734 6.57905 0.784911 6.48528 0.87868L4.36396 3L6.48528 5.12132C6.57905 5.21509 6.63173 5.34227 6.63173 5.47487C6.63173 5.60748 6.57905 5.73466 6.48528 5.82843C6.39151 5.9222 6.26434 5.97487 6.13173 5.97487C5.99912 5.97487 5.87194 5.9222 5.77817 5.82843L3.65685 3.70711L1.53553 5.82843C1.44177 5.9222 1.31459 5.97487 1.18198 5.97487C1.04937 5.97487 0.922195 5.9222 0.828427 5.82843C0.734659 5.73466 0.681981 5.60748 0.681981 5.47487C0.681981 5.34227 0.734659 5.21509 0.828427 5.12132L2.94975 3L0.828427 0.87868C0.734659 0.784912 0.681981 0.657734 0.681981 0.525126C0.681981 0.392518 0.734659 0.265341 0.828427 0.171573Z" fill="#663AA3"/>
</svg>
