<svg width="495" height="533" viewBox="0 0 495 533" fill="none" xmlns="http://www.w3.org/2000/svg">
<g filter="url(#filter0_d_2335_39779)">
<mask id="mask0_2335_39779" style="mask-type:alpha" maskUnits="userSpaceOnUse" x="27" y="28" width="408" height="444">
<rect x="27.981" y="28" width="406.541" height="444" rx="8.8139" fill="#FFE8D7"/>
</mask>
<g mask="url(#mask0_2335_39779)">
<rect x="27.981" y="28" width="406.541" height="444" fill="url(#paint0_linear_2335_39779)"/>
<g filter="url(#filter1_d_2335_39779)">
<path d="M180.064 337.926H163.811V437.567H180.064V337.926Z" fill="#FFE8D7"/>
<path d="M385.885 338.161H369.632V437.811H385.885V338.161Z" fill="#FFE8D7"/>
<path d="M420.606 398.684H404.353V437.802H420.606V398.684Z" fill="#FFE8D7"/>
<path d="M44.3006 344.221H28.0481V437.566H44.3006V344.221Z" fill="#FFE8D7"/>
<path d="M78.2422 272.807H61.9897V437.567H78.2422V272.807Z" fill="#FFE8D7"/>
<path d="M112.181 379.306H95.9282V437.575H112.181V379.306Z" fill="#FFE8D7"/>
<path d="M146.122 265.221H129.87V437.576H146.122V265.221Z" fill="#FFE8D7"/>
<path d="M213.994 280.121H197.741V437.567H213.994V280.121Z" fill="#FFE8D7"/>
<path d="M247.933 321.037H231.68V437.575H247.933V321.037Z" fill="#FFE8D7"/>
<path d="M281.874 264.04H265.622V437.567H281.874V264.04Z" fill="#FFE8D7"/>
<path d="M315.816 234.314H299.563V437.566H315.816V234.314Z" fill="#FFE8D7"/>
<path d="M349.746 293.583H333.493V437.576H349.746V293.583Z" fill="#FFE8D7"/>
</g>
<path d="M419.436 437.764C419.436 437.891 329.425 438 218.41 438C107.395 438 17.3662 437.891 17.3662 437.764C17.3662 437.637 107.359 437.528 218.41 437.528C329.462 437.528 419.436 437.628 419.436 437.764Z" fill="black"/>
<path d="M351.366 384.582C337.739 378.813 322.05 367.466 315.027 353.558C330.112 359.803 342.832 370.663 351.366 384.582Z" fill="black"/>
<path d="M348.477 362.99C334.85 357.23 319.161 345.884 312.138 331.966C327.219 338.217 339.938 349.076 348.477 362.99Z" fill="black"/>
<path d="M344.543 341.993C330.916 336.225 315.227 324.878 308.204 310.969C322.858 316.856 335.776 327.894 344.543 341.993Z" fill="black"/>
<path d="M339.619 320.009C326.801 312.405 312.51 298.978 307.187 284.233C321.429 292.527 332.758 305.023 339.619 320.009Z" fill="black"/>
<path d="M334.351 303.193C325.012 290.974 316.309 272.796 316.418 257.043C326.8 270.33 333.038 286.382 334.351 303.193Z" fill="black"/>
<path d="M336.956 311.187C338.846 294.671 345.269 273.94 356.179 261.512C354.337 279.494 347.698 296.65 336.956 311.187Z" fill="black"/>
<path d="M341.354 329.256C344.679 312.222 353.082 291.164 365.464 279.218C362.072 297.762 353.743 315.048 341.354 329.256Z" fill="black"/>
<path d="M346.396 351.287C349.721 334.262 358.125 313.195 370.516 301.249C367.127 319.795 358.794 337.083 346.396 351.287Z" fill="black"/>
<path d="M350.448 378.343C353.773 361.309 362.177 340.251 374.559 328.305C371.169 346.849 362.839 364.136 350.448 378.343Z" fill="black"/>
<path d="M333.714 299.923C333.714 299.923 333.759 300.005 333.823 300.177C333.886 300.35 333.977 300.622 334.077 300.931L334.986 303.884C335.803 306.446 336.903 310.17 338.202 314.785C339.501 319.4 340.927 324.951 342.408 331.138C343.889 337.324 345.333 344.147 346.696 351.351C348.059 358.555 349.149 365.46 350.039 371.746C350.929 378.033 351.583 383.729 352.056 388.508C352.528 393.286 352.855 397.156 353.028 399.845C353.107 401.154 353.17 402.18 353.219 402.925C353.219 403.252 353.219 403.516 353.219 403.734C353.235 403.824 353.235 403.916 353.219 404.006C353.196 403.917 353.181 403.826 353.173 403.734C353.173 403.525 353.119 403.261 353.082 402.934C353.01 402.189 352.919 401.163 352.792 399.854C352.556 397.184 352.174 393.313 351.656 388.544C351.138 383.774 350.421 378.106 349.53 371.819C348.64 365.532 347.495 358.646 346.151 351.451C344.806 344.256 343.325 337.434 341.908 331.247C340.491 325.06 339.065 319.528 337.811 314.894C336.557 310.261 335.513 306.518 334.759 303.938C334.404 302.685 334.123 301.685 333.914 300.968C333.832 300.65 333.759 300.395 333.705 300.186C333.696 300.098 333.699 300.01 333.714 299.923Z" fill="black"/>
<path d="M357.98 393.577C352.22 381.513 348.032 364.506 350.858 351.306C357.304 364.4 359.78 379.094 357.98 393.577Z" fill="#A2909E"/>
<path d="M367.562 377.951C361.802 365.886 357.614 348.925 360.44 335.68C366.886 348.774 369.362 363.467 367.562 377.951Z" fill="#A2909E"/>
<path d="M376.157 362.064C370.398 349.999 366.21 333.038 369.035 319.792C375.481 332.887 377.957 347.58 376.157 362.064Z" fill="#A2909E"/>
<path d="M384.651 344.929C380.363 332.165 378.21 314.749 382.588 302.013C387.419 315.816 388.136 330.726 384.651 344.929Z" fill="#A2909E"/>
<path d="M390.103 330.903C390.53 317.276 394.527 300.297 402.958 290.267C402.775 304.784 398.303 318.922 390.103 330.903Z" fill="#A2909E"/>
<path d="M387.596 337.64C397.589 328.201 412.788 318.844 426.442 317.654C415.753 328.009 402.235 334.964 387.596 337.64Z" fill="#A2909E"/>
<path d="M380.854 351.931C392.055 343.056 408.689 334.725 423.079 334.67C411.026 344.483 396.329 350.491 380.854 351.931Z" fill="#A2909E"/>
<path d="M372.432 369.166C383.633 360.29 400.267 351.959 414.658 351.905C402.607 361.721 387.908 367.73 372.432 369.166Z" fill="#A2909E"/>
<path d="M360.696 389.007C371.897 380.132 388.54 371.801 402.921 371.747C390.872 381.565 376.172 387.574 360.696 389.007Z" fill="#A2909E"/>
<path d="M391.447 328.44C391.447 328.44 391.447 328.513 391.383 328.658L391.156 329.303C390.92 329.902 390.611 330.711 390.248 331.747C389.43 333.863 388.185 336.907 386.614 340.641C383.416 348.108 378.683 358.301 372.796 369.221C369.853 374.672 366.9 379.796 364.129 384.402C361.358 389.007 358.751 393.086 356.498 396.466C354.245 399.845 352.383 402.562 351.047 404.397C350.402 405.305 349.894 406.005 349.512 406.523L349.103 407.068C349.012 407.186 348.958 407.25 348.949 407.24L349.067 407.031L349.43 406.459L350.884 404.288C352.165 402.407 353.982 399.673 356.189 396.266C358.397 392.859 360.95 388.762 363.72 384.165C366.491 379.568 369.344 374.417 372.287 368.967C378.165 358.065 382.944 347.908 386.223 340.477C387.868 336.771 389.167 333.745 390.03 331.647C390.466 330.638 390.811 329.83 391.056 329.248C391.174 328.994 391.265 328.794 391.338 328.622C391.411 328.449 391.438 328.431 391.447 328.44Z" fill="black"/>
<path d="M385.425 395.03H328.182V406.068H334.06L339.02 437.528H374.405L379.492 406.068H385.425V395.03Z" fill="#663AA3"/>
<path d="M385.425 405.833C385.425 405.687 372.706 405.569 357.008 405.569C341.31 405.569 328.591 405.687 328.591 405.833C328.591 405.978 341.31 406.096 357.008 406.096C372.706 406.096 385.425 405.978 385.425 405.833Z" fill="black"/>
<path d="M376.294 52.2109H109.358C103.563 52.2109 98.8655 56.9087 98.8655 62.7037V242.344C98.8655 248.139 103.563 252.837 109.358 252.837H376.294C382.089 252.837 386.786 248.139 386.786 242.344V62.7037C386.786 56.9087 382.089 52.2109 376.294 52.2109Z" fill="#E0E0E0"/>
<path d="M386.785 62.7036C386.785 62.7036 386.785 62.4946 386.74 62.0858C386.703 61.4726 386.609 60.8643 386.458 60.2689C385.883 57.901 384.494 55.8107 382.534 54.3638C381.861 53.8554 381.129 53.4313 380.353 53.1011C379.48 52.7437 378.564 52.5024 377.628 52.3834C376.605 52.2847 375.576 52.2514 374.548 52.2834H371.205H355.08L252.314 52.3652H181.344H110.584C109.707 52.3372 108.829 52.3737 107.958 52.4742C107.094 52.59 106.248 52.8159 105.442 53.1465C103.817 53.8223 102.391 54.901 101.299 56.2807C100.198 57.6667 99.4807 59.3177 99.2187 61.0683C99.0997 61.9503 99.0541 62.8406 99.0824 63.7301V66.4555C99.0824 70.0894 99.0824 73.7415 99.0824 77.4117V99.7418C99.0824 114.762 99.0824 130.079 99.0824 145.692V242.326C99.0955 243.337 99.2421 244.342 99.5185 245.315C100.105 247.26 101.254 248.988 102.82 250.281C104.387 251.574 106.301 252.375 108.322 252.583C109.321 252.655 110.356 252.628 111.383 252.628H279.541L361.03 252.683H375.193C375.963 252.703 376.733 252.681 377.501 252.619C378.252 252.526 378.992 252.356 379.708 252.11C381.126 251.616 382.419 250.818 383.496 249.773C384.574 248.729 385.411 247.461 385.95 246.06C386.462 244.665 386.693 243.183 386.631 241.699C386.631 240.209 386.631 238.719 386.631 237.239C386.631 225.404 386.631 214.054 386.631 203.189C386.631 159.801 386.694 124.688 386.713 100.423C386.713 88.2951 386.713 78.8743 386.713 72.4878C386.713 69.29 386.713 66.8553 386.713 65.22C386.713 63.5848 386.713 62.7399 386.713 62.7399C386.713 62.7399 386.713 63.5848 386.713 65.22C386.713 66.8553 386.713 69.29 386.713 72.4878C386.713 78.8471 386.713 88.2951 386.758 100.423C386.758 124.688 386.804 159.801 386.831 203.189C386.831 214.036 386.831 225.386 386.831 237.239V241.699C386.891 243.227 386.65 244.752 386.122 246.187C385.569 247.643 384.703 248.96 383.586 250.045C382.468 251.129 381.126 251.955 379.654 252.465C378.913 252.726 378.145 252.903 377.365 252.991C376.585 253.059 375.803 253.087 375.021 253.073H361.03H279.577H189.548H111.419C110.384 253.073 109.375 253.073 108.312 253.028C107.268 252.907 106.245 252.647 105.269 252.256C104.289 251.847 103.372 251.303 102.544 250.638C101.734 249.961 101.022 249.175 100.427 248.304C99.8486 247.42 99.3961 246.46 99.0824 245.451C98.7876 244.435 98.6318 243.384 98.6191 242.326C98.6191 209.23 98.6191 176.916 98.6191 145.692V99.7418C98.6191 92.2379 98.6191 84.8127 98.6191 77.4662V63.8391C98.5885 62.9285 98.6341 62.0168 98.7554 61.1137C99.0316 59.2886 99.7836 57.5685 100.936 56.1262C102.074 54.6683 103.57 53.5293 105.278 52.8194C106.119 52.4733 107.002 52.2381 107.904 52.1199C108.793 52.016 109.689 51.9795 110.584 52.0109H141.808H181.344H252.314L355.08 52.0836H371.205H374.576C375.609 52.0549 376.644 52.0913 377.673 52.1926C378.611 52.3157 379.527 52.5632 380.399 52.9284C381.178 53.2704 381.916 53.7002 382.597 54.2094C383.729 55.0587 384.678 56.1279 385.386 57.3527C385.893 58.2578 386.257 59.2351 386.467 60.2507C386.613 60.8465 386.701 61.455 386.731 62.0676C386.776 62.4946 386.785 62.7036 386.785 62.7036Z" fill="black"/>
<path d="M119.404 59.288L119.404 247.259L359.848 247.259V59.288L119.404 59.288Z" fill="white"/>
<path d="M372.313 159.41C376.563 159.41 380.008 155.965 380.008 151.715C380.008 147.466 376.563 144.021 372.313 144.021C368.063 144.021 364.618 147.466 364.618 151.715C364.618 155.965 368.063 159.41 372.313 159.41Z" fill="black"/>
<path d="M107.149 123.426V181.632C107.149 182.244 107.645 182.74 108.257 182.74H109.22C109.832 182.74 110.329 182.244 110.329 181.632V123.426C110.329 122.814 109.832 122.318 109.22 122.318H108.257C107.645 122.318 107.149 122.814 107.149 123.426Z" fill="black"/>
<path d="M141.925 58.6328H119.404V247.258H141.925V58.6328Z" fill="#663AA3"/>
<path d="M121.559 140.706H142.908V159.457H121.559C121.273 159.461 120.989 159.407 120.724 159.3C120.459 159.193 120.218 159.034 120.015 158.833C119.812 158.632 119.651 158.392 119.542 158.128C119.433 157.864 119.377 157.581 119.378 157.295V142.859C119.378 142.574 119.435 142.292 119.545 142.029C119.655 141.766 119.816 141.527 120.018 141.327C120.221 141.127 120.462 140.969 120.726 140.862C120.991 140.756 121.273 140.703 121.559 140.706Z" fill="white"/>
<path d="M130.67 85.7688C130.13 85.7688 129.595 85.6623 129.096 85.4553C128.598 85.2484 128.145 84.9451 127.763 84.5629C127.382 84.1806 127.08 83.7269 126.874 83.2276C126.668 82.7284 126.563 82.1934 126.564 81.6534C126.563 81.113 126.668 80.5776 126.874 80.0778C127.079 79.5781 127.381 79.1237 127.763 78.7408C128.144 78.3578 128.597 78.0536 129.096 77.8457C129.595 77.6378 130.13 77.5302 130.67 77.529C131.214 77.5242 131.754 77.6274 132.258 77.8326C132.762 78.0378 133.221 78.341 133.607 78.7246C133.993 79.1082 134.299 79.5646 134.508 80.0673C134.716 80.57 134.823 81.1091 134.822 81.6534C134.822 82.1969 134.714 82.7351 134.505 83.2367C134.296 83.7384 133.99 84.1937 133.604 84.5763C133.218 84.959 132.76 85.2613 132.256 85.466C131.753 85.6707 131.213 85.7736 130.67 85.7688Z" fill="white"/>
<path d="M134.086 100.56C132.865 100.792 131.62 100.872 130.379 100.796C129.139 100.872 127.894 100.792 126.673 100.56C127.894 100.327 129.139 100.248 130.379 100.324C131.62 100.248 132.865 100.327 134.086 100.56Z" fill="white"/>
<path d="M134.74 121.437C133.522 121.67 132.28 121.749 131.042 121.673C129.802 121.749 128.557 121.67 127.336 121.437C128.556 121.198 129.802 121.119 131.042 121.201C132.28 121.119 133.523 121.199 134.74 121.437Z" fill="white"/>
<path d="M134.74 174.554C133.522 174.787 132.28 174.866 131.042 174.79C129.802 174.867 128.557 174.787 127.336 174.554C128.557 174.321 129.802 174.242 131.042 174.318C132.28 174.242 133.522 174.321 134.74 174.554Z" fill="white"/>
<path d="M134.74 201.909C133.522 202.142 132.28 202.221 131.042 202.145C129.802 202.221 128.557 202.142 127.336 201.909C128.557 201.676 129.802 201.596 131.042 201.673C132.28 201.597 133.522 201.676 134.74 201.909Z" fill="white"/>
<path d="M134.74 150.362C133.522 150.595 132.28 150.674 131.042 150.598C129.802 150.675 128.557 150.595 127.336 150.362C128.556 150.124 129.802 150.044 131.042 150.126C132.28 150.044 133.523 150.124 134.74 150.362Z" fill="black"/>
<path d="M359.849 247.232C359.849 245.606 359.776 172.393 359.658 58.6068L359.849 58.8067H119.423L119.659 58.5705C119.659 126.606 119.659 190.925 119.659 247.196L119.45 246.987L359.849 247.232L119.377 247.468H119.168V247.232C119.168 190.962 119.168 126.642 119.168 58.6068V58.3706H119.423H359.849H360.049V58.5614C359.931 172.42 359.849 245.633 359.849 247.232Z" fill="black"/>
<path d="M286.672 213.9H283.428V224.748H286.672V213.9Z" fill="#663AA3"/>
<path d="M259.617 212.329H256.374V224.748H259.617V212.329Z" fill="#663AA3"/>
<path d="M266.376 209.738H263.132V224.746H266.376V209.738Z" fill="#663AA3"/>
<path d="M273.146 210.565H269.902V224.755H273.146V210.565Z" fill="#663AA3"/>
<path d="M279.905 205.76H276.662V224.747H279.905V205.76Z" fill="#663AA3"/>
<path d="M293.431 205.851H290.188V224.747H293.431V205.851Z" fill="#663AA3"/>
<path d="M300.199 212.057H296.956V224.748H300.199V212.057Z" fill="#663AA3"/>
<path d="M306.959 206.687H303.716V224.747H306.959V206.687Z" fill="#663AA3"/>
<path d="M313.726 202.617H310.483V224.747H313.726V202.617Z" fill="#663AA3"/>
<path d="M320.484 206.597H317.241V224.748H320.484V206.597Z" fill="#663AA3"/>
<path d="M327.254 238.2H247.581C245.837 238.198 244.166 237.504 242.933 236.271C241.7 235.038 241.006 233.367 241.004 231.623V183.992C241.006 182.248 241.7 180.577 242.933 179.344C244.166 178.111 245.837 177.417 247.581 177.415H327.254C328.997 177.417 330.669 178.111 331.902 179.344C333.135 180.577 333.829 182.248 333.831 183.992V231.623C333.829 233.367 333.135 235.038 331.902 236.271C330.669 237.504 328.997 238.198 327.254 238.2ZM247.581 178.06C246.009 178.062 244.503 178.688 243.392 179.8C242.282 180.913 241.658 182.42 241.658 183.992V231.623C241.658 233.195 242.282 234.702 243.392 235.814C244.503 236.927 246.009 237.553 247.581 237.555H327.254C328.826 237.553 330.334 236.927 331.446 235.815C332.558 234.703 333.184 233.195 333.186 231.623V183.992C333.184 182.419 332.558 180.912 331.446 179.8C330.334 178.688 328.826 178.062 327.254 178.06H247.581Z" fill="#E0E0E0"/>
<path d="M292.939 193.251C292.939 193.342 283.718 193.424 272.353 193.424C260.989 193.424 251.768 193.342 251.768 193.251C251.768 193.16 260.979 193.087 272.353 193.087C283.728 193.087 292.939 193.16 292.939 193.251Z" fill="#E0E0E0"/>
<path d="M160.168 177.951V236.784H167.291H177.093H222.771V177.951H160.168Z" fill="#F5F5F5"/>
<path d="M191.193 184.62C187.373 184.62 183.639 185.752 180.463 187.875C177.287 189.997 174.811 193.013 173.349 196.543C171.888 200.072 171.505 203.955 172.25 207.702C172.996 211.448 174.835 214.89 177.536 217.591C180.237 220.292 183.679 222.131 187.425 222.877C191.172 223.622 195.055 223.239 198.584 221.778C202.114 220.316 205.13 217.84 207.252 214.664C209.375 211.488 210.507 207.754 210.507 203.934C210.507 198.811 208.472 193.899 204.85 190.277C201.228 186.654 196.316 184.62 191.193 184.62ZM191.484 215.508C189.138 215.508 186.845 214.812 184.894 213.509C182.943 212.206 181.423 210.354 180.524 208.188C179.626 206.021 179.39 203.636 179.846 201.335C180.302 199.034 181.431 196.92 183.088 195.26C184.745 193.6 186.858 192.468 189.158 192.009C191.458 191.549 193.843 191.781 196.012 192.676C198.18 193.572 200.034 195.089 201.34 197.038C202.646 198.987 203.345 201.279 203.349 203.625C203.351 205.184 203.046 206.729 202.451 208.171C201.855 209.612 200.982 210.922 199.88 212.026C198.778 213.13 197.469 214.005 196.028 214.603C194.588 215.2 193.044 215.508 191.484 215.508Z" fill="#BA68C8"/>
<path d="M191.492 184.63V191.816C193.355 191.82 195.191 192.262 196.852 193.106C198.513 193.951 199.951 195.175 201.051 196.678C202.152 198.182 202.883 199.923 203.185 201.761C203.488 203.6 203.354 205.483 202.794 207.26L209.798 209.159C210.595 206.312 210.728 203.32 210.186 200.413C209.645 197.507 208.444 194.763 206.676 192.394C204.907 190.025 202.619 188.093 199.987 186.747C197.354 185.401 194.448 184.677 191.492 184.63Z" fill="#663AA3"/>
<path d="M179.618 203.625C179.618 201.333 180.282 199.089 181.53 197.165C182.778 195.242 184.556 193.721 186.65 192.787L183.679 186.119C180.179 187.595 177.191 190.071 175.09 193.237C172.99 196.402 171.869 200.117 171.869 203.916C171.869 204.189 171.869 204.461 171.869 204.725H179.646C179.618 204.359 179.609 203.992 179.618 203.625Z" fill="#37474F"/>
<path d="M191.483 215.508C190.64 215.51 189.799 215.418 188.976 215.235C188.676 216.961 188.067 220.295 187.667 222.921C188.83 223.136 190.01 223.245 191.192 223.248C195.408 223.248 199.508 221.869 202.867 219.322C206.226 216.774 208.66 213.199 209.798 209.139L202.793 207.259C202.027 209.655 200.518 211.746 198.484 213.229C196.451 214.712 193.999 215.51 191.483 215.508Z" fill="#663AA3"/>
<g opacity="0.3">
<path opacity="0.3" d="M191.481 215.509C190.637 215.511 189.796 215.419 188.973 215.236C188.673 216.962 188.065 220.296 187.665 222.922C188.828 223.137 190.008 223.246 191.19 223.249C195.406 223.249 199.506 221.87 202.865 219.323C206.224 216.775 208.658 213.2 209.795 209.14L202.791 207.26C202.024 209.656 200.515 211.747 198.482 213.23C196.449 214.713 193.997 215.511 191.481 215.509Z" fill="#BA68C8"/>
</g>
<path d="M188.92 204.606H188.202V205.515H187.212V204.606H184.85V203.916L186.921 201.136H187.984L186.067 203.77H187.248V202.953H188.157V203.77H188.875L188.92 204.606Z" fill="black"/>
<path d="M189.22 203.326C189.22 201.881 190.02 201.063 191.101 201.063C192.182 201.063 192.981 201.881 192.981 203.326C192.981 204.77 192.191 205.597 191.101 205.597C190.011 205.597 189.22 204.779 189.22 203.326ZM191.946 203.326C191.946 202.335 191.591 201.917 191.037 201.917C190.483 201.917 190.183 202.335 190.183 203.326C190.183 204.316 190.537 204.743 191.037 204.743C191.537 204.743 191.964 204.325 191.964 203.326H191.946Z" fill="black"/>
<path d="M193.4 202.299C193.383 202.145 193.399 201.99 193.447 201.842C193.495 201.695 193.573 201.559 193.677 201.444C193.78 201.33 193.907 201.238 194.049 201.175C194.191 201.113 194.344 201.081 194.499 201.082C194.743 201.058 194.989 201.109 195.204 201.227C195.419 201.346 195.594 201.526 195.704 201.746C195.815 201.965 195.856 202.213 195.823 202.456C195.791 202.699 195.685 202.927 195.521 203.109C195.356 203.292 195.14 203.42 194.901 203.477C194.663 203.535 194.412 203.518 194.183 203.431C193.953 203.343 193.756 203.188 193.616 202.986C193.476 202.784 193.401 202.545 193.4 202.299ZM194.953 202.299C194.953 201.827 194.771 201.6 194.499 201.6C194.226 201.6 194.036 201.836 194.036 202.299C194.036 202.763 194.226 202.99 194.499 202.99C194.771 202.99 194.953 202.763 194.953 202.299ZM197.106 201.136H197.86L194.862 205.524H194.108L197.106 201.136ZM196.389 204.361C196.411 204.15 196.495 203.949 196.63 203.785C196.765 203.62 196.944 203.497 197.147 203.433C197.35 203.368 197.567 203.363 197.772 203.42C197.977 203.476 198.162 203.591 198.303 203.75C198.445 203.909 198.537 204.106 198.568 204.316C198.6 204.527 198.57 204.742 198.482 204.936C198.393 205.129 198.251 205.293 198.071 205.407C197.891 205.522 197.682 205.581 197.47 205.579C197.316 205.579 197.164 205.546 197.024 205.483C196.883 205.42 196.758 205.328 196.656 205.213C196.554 205.098 196.477 204.962 196.431 204.816C196.385 204.669 196.371 204.514 196.389 204.361ZM197.933 204.361C197.933 203.898 197.751 203.671 197.47 203.671C197.188 203.671 197.015 203.898 197.015 204.361C197.015 204.825 197.206 205.061 197.47 205.061C197.733 205.061 197.933 204.825 197.933 204.361Z" fill="black"/>
<path d="M207.182 228.154C207.182 228.254 200.023 228.336 191.193 228.336C182.363 228.336 175.213 228.254 175.213 228.154C175.213 228.054 182.363 227.963 191.193 227.963C200.023 227.963 207.182 228.018 207.182 228.154Z" fill="black"/>
<path d="M200.06 231.061C200.06 231.161 196.09 231.243 191.194 231.243C186.297 231.243 182.327 231.161 182.327 231.061C182.327 230.961 186.297 230.87 191.194 230.87C196.09 230.87 200.06 230.961 200.06 231.061Z" fill="black"/>
<path d="M346.558 91.7207H345.65H342.924H332.304L292.75 91.8842L158.551 91.966L158.878 91.7298C158.878 102.277 158.878 113.215 158.878 124.435C158.878 135.972 158.878 147.228 158.878 158.103L158.551 157.866L291.814 157.948L331.014 158.021L341.544 158.066H344.269H345.177C345.177 158.066 344.869 158.066 344.269 158.066H341.544H331.014L291.814 158.139L158.551 158.221H158.224V157.984C158.224 147.083 158.224 135.854 158.224 124.317C158.224 113.124 158.224 102.186 158.224 91.6117V91.3755H158.551L292.75 91.4572L332.25 91.5299H342.87H345.595L346.558 91.7207Z" fill="#E0E0E0"/>
<path d="M346.559 102.895C346.559 103.022 304.469 103.131 252.559 103.131C200.649 103.131 158.551 103.022 158.551 102.895C158.551 102.768 200.631 102.649 252.559 102.649C304.487 102.649 346.559 102.786 346.559 102.895Z" fill="#E0E0E0"/>
<path d="M346.559 112.033C346.559 112.161 304.469 112.27 252.559 112.27C200.649 112.27 158.551 112.161 158.551 112.033C158.551 111.906 200.631 111.788 252.559 111.788C304.487 111.788 346.559 111.87 346.559 112.033Z" fill="#E0E0E0"/>
<path d="M346.559 121.173C346.559 121.3 304.469 121.409 252.559 121.409C200.649 121.409 158.551 121.3 158.551 121.173C158.551 121.046 200.631 120.955 252.559 120.955C304.487 120.955 346.559 121.037 346.559 121.173Z" fill="#E0E0E0"/>
<path d="M346.559 130.312C346.559 130.439 304.469 130.548 252.559 130.548C200.649 130.548 158.551 130.439 158.551 130.312C158.551 130.185 200.631 130.04 252.559 130.04C304.487 130.04 346.559 130.176 346.559 130.312Z" fill="#E0E0E0"/>
<path d="M346.559 139.451C346.559 139.579 304.469 139.688 252.559 139.688C200.649 139.688 158.551 139.579 158.551 139.451C158.551 139.324 200.631 139.206 252.559 139.206C304.487 139.206 346.559 139.315 346.559 139.451Z" fill="#E0E0E0"/>
<path d="M158.551 148.58C158.551 148.453 200.64 148.344 252.55 148.344C304.46 148.344 346.559 148.453 346.559 148.58C346.559 148.707 304.478 148.825 252.55 148.825C200.622 148.825 158.551 148.716 158.551 148.58Z" fill="#E0E0E0"/>
<path d="M185.198 159.111C185.062 159.111 184.962 144.039 184.962 125.443C184.962 106.847 185.062 91.7568 185.198 91.7568C185.334 91.7568 185.443 106.837 185.443 125.443C185.443 144.048 185.334 159.111 185.198 159.111Z" fill="#E0E0E0"/>
<path d="M212.279 159.111C212.142 159.111 212.033 144.039 212.033 125.443C212.033 106.847 212.142 91.7568 212.279 91.7568C212.415 91.7568 212.515 106.837 212.515 125.443C212.515 144.048 212.406 159.111 212.279 159.111Z" fill="#E0E0E0"/>
<path d="M239.35 159.111C239.223 159.111 239.114 144.039 239.114 125.443C239.114 106.847 239.223 91.7568 239.35 91.7568C239.477 91.7568 239.595 106.837 239.595 125.443C239.595 144.048 239.486 159.111 239.35 159.111Z" fill="#E0E0E0"/>
<path d="M266.433 159.111C266.297 159.111 266.188 144.039 266.188 125.443C266.188 106.847 266.297 91.7568 266.433 91.7568C266.57 91.7568 266.669 106.837 266.669 125.443C266.669 144.048 266.551 159.111 266.433 159.111Z" fill="#E0E0E0"/>
<path d="M293.503 159.111C293.375 159.111 293.266 144.039 293.266 125.443C293.266 106.847 293.375 91.7568 293.503 91.7568C293.63 91.7568 293.748 106.837 293.748 125.443C293.748 144.048 293.639 159.111 293.503 159.111Z" fill="#E0E0E0"/>
<path d="M319.722 159.111C319.586 159.111 319.477 144.039 319.477 125.443C319.477 106.847 319.586 91.7568 319.722 91.7568C319.858 91.7568 319.958 106.837 319.958 125.443C319.958 144.048 319.849 159.111 319.722 159.111Z" fill="#E0E0E0"/>
<path d="M346.795 159.111C346.667 159.111 346.558 144.039 346.558 125.443C346.558 106.847 346.667 91.7568 346.795 91.7568C346.922 91.7568 347.04 106.837 347.04 125.443C347.04 144.048 346.931 159.111 346.795 159.111Z" fill="#E0E0E0"/>
<path d="M186.849 148.581C186.851 148.909 186.756 149.229 186.575 149.502C186.394 149.775 186.137 149.989 185.835 150.115C185.533 150.242 185.2 150.276 184.879 150.213C184.558 150.15 184.262 149.994 184.03 149.763C183.798 149.532 183.639 149.237 183.575 148.916C183.51 148.595 183.543 148.262 183.667 147.96C183.792 147.657 184.004 147.398 184.276 147.216C184.548 147.034 184.868 146.937 185.196 146.937C185.633 146.937 186.052 147.11 186.362 147.418C186.672 147.726 186.847 148.144 186.849 148.581Z" fill="#663AA3"/>
<path d="M213.923 130.311C213.923 130.639 213.825 130.959 213.643 131.231C213.461 131.503 213.202 131.715 212.9 131.84C212.597 131.964 212.264 131.997 211.943 131.932C211.622 131.868 211.328 131.709 211.097 131.477C210.866 131.245 210.709 130.949 210.646 130.628C210.584 130.307 210.618 129.974 210.744 129.672C210.871 129.37 211.084 129.113 211.357 128.932C211.63 128.751 211.951 128.656 212.278 128.658C212.495 128.658 212.709 128.701 212.91 128.784C213.11 128.867 213.291 128.989 213.444 129.143C213.597 129.296 213.718 129.479 213.8 129.679C213.882 129.88 213.924 130.094 213.923 130.311Z" fill="#663AA3"/>
<path d="M241.002 139.287C241.004 139.615 240.909 139.935 240.728 140.208C240.548 140.482 240.29 140.695 239.988 140.821C239.686 140.948 239.353 140.982 239.032 140.919C238.711 140.856 238.415 140.7 238.183 140.469C237.951 140.238 237.793 139.943 237.728 139.622C237.663 139.301 237.696 138.969 237.821 138.666C237.945 138.363 238.157 138.104 238.429 137.922C238.702 137.74 239.022 137.643 239.349 137.643C239.785 137.645 240.203 137.819 240.512 138.127C240.822 138.434 240.998 138.851 241.002 139.287Z" fill="#663AA3"/>
<path d="M267.912 120.046C268.233 120.367 268.413 120.801 268.413 121.255C268.413 121.708 268.233 122.142 267.912 122.463C267.592 122.783 267.157 122.963 266.704 122.963C266.251 122.963 265.816 122.783 265.496 122.463C265.175 122.142 264.995 121.708 264.995 121.255C264.995 120.801 265.175 120.367 265.496 120.046C265.816 119.726 266.251 119.546 266.704 119.546C267.157 119.546 267.592 119.726 267.912 120.046Z" fill="#663AA3"/>
<path d="M295.302 120.046C295.461 120.205 295.587 120.393 295.673 120.601C295.759 120.808 295.803 121.03 295.803 121.255C295.803 121.479 295.759 121.701 295.673 121.909C295.587 122.116 295.461 122.304 295.302 122.463C295.144 122.622 294.955 122.747 294.748 122.833C294.541 122.919 294.318 122.963 294.094 122.963C293.87 122.963 293.647 122.919 293.44 122.833C293.233 122.747 293.044 122.622 292.886 122.463C292.565 122.142 292.385 121.708 292.385 121.255C292.385 120.801 292.565 120.367 292.886 120.046C293.206 119.726 293.641 119.546 294.094 119.546C294.547 119.546 294.982 119.726 295.302 120.046Z" fill="#663AA3"/>
<path d="M320.921 137.979C321.242 138.299 321.422 138.734 321.422 139.187C321.422 139.64 321.242 140.075 320.921 140.395C320.601 140.715 320.166 140.896 319.713 140.896C319.26 140.896 318.825 140.715 318.505 140.395C318.184 140.075 318.004 139.64 318.004 139.187C318.004 138.734 318.184 138.299 318.505 137.979C318.825 137.658 319.26 137.478 319.713 137.478C320.166 137.478 320.601 137.658 320.921 137.979Z" fill="#663AA3"/>
<path d="M213.923 112.034C213.923 112.361 213.825 112.681 213.643 112.953C213.461 113.225 213.202 113.437 212.9 113.562C212.597 113.687 212.264 113.719 211.943 113.655C211.622 113.59 211.328 113.432 211.097 113.2C210.866 112.968 210.709 112.672 210.646 112.351C210.584 112.029 210.618 111.697 210.744 111.395C210.871 111.093 211.084 110.835 211.357 110.655C211.63 110.474 211.951 110.379 212.278 110.38C212.495 110.38 212.709 110.423 212.91 110.506C213.11 110.59 213.291 110.712 213.444 110.865C213.597 111.019 213.718 111.201 213.8 111.402C213.882 111.602 213.924 111.817 213.923 112.034Z" fill="#A2909E"/>
<path d="M186.849 139.45C186.849 139.777 186.752 140.097 186.571 140.369C186.389 140.641 186.131 140.853 185.829 140.978C185.527 141.103 185.194 141.136 184.873 141.072C184.553 141.008 184.258 140.851 184.027 140.619C183.796 140.388 183.638 140.094 183.574 139.773C183.51 139.452 183.543 139.12 183.668 138.818C183.793 138.515 184.005 138.257 184.277 138.076C184.549 137.894 184.869 137.797 185.196 137.797C185.634 137.797 186.055 137.971 186.365 138.281C186.675 138.591 186.849 139.012 186.849 139.45Z" fill="#A2909E"/>
<path d="M320.932 147.381C321.223 147.707 321.379 148.132 321.367 148.569C321.354 149.006 321.175 149.422 320.865 149.731C320.555 150.04 320.139 150.218 319.702 150.228C319.264 150.239 318.84 150.082 318.515 149.789C318.223 149.463 318.067 149.038 318.08 148.6C318.092 148.163 318.272 147.748 318.582 147.439C318.891 147.13 319.308 146.952 319.745 146.941C320.182 146.931 320.607 147.088 320.932 147.381Z" fill="#A2909E"/>
<path d="M295.157 130.311C295.157 130.638 295.06 130.958 294.878 131.23C294.697 131.502 294.438 131.714 294.136 131.839C293.834 131.964 293.502 131.997 293.181 131.933C292.86 131.869 292.566 131.712 292.334 131.48C292.103 131.249 291.946 130.954 291.882 130.634C291.818 130.313 291.851 129.981 291.976 129.678C292.101 129.376 292.313 129.118 292.585 128.936C292.857 128.755 293.177 128.658 293.504 128.658C293.721 128.657 293.937 128.698 294.138 128.781C294.339 128.864 294.522 128.986 294.675 129.139C294.829 129.293 294.951 129.476 295.034 129.677C295.116 129.878 295.158 130.094 295.157 130.311Z" fill="#A2909E"/>
<path d="M268.367 130.039C268.368 130.367 268.273 130.687 268.092 130.96C267.912 131.233 267.654 131.447 267.352 131.573C267.05 131.7 266.718 131.734 266.396 131.671C266.075 131.608 265.779 131.452 265.547 131.221C265.315 130.99 265.157 130.695 265.092 130.374C265.028 130.053 265.06 129.72 265.185 129.418C265.31 129.115 265.522 128.856 265.794 128.674C266.066 128.492 266.386 128.395 266.713 128.395C267.149 128.397 267.567 128.571 267.877 128.879C268.186 129.186 268.362 129.603 268.367 130.039Z" fill="#A2909E"/>
<path d="M173.886 165.633C172.162 165.948 170.395 165.948 168.671 165.633C170.394 165.306 172.163 165.306 173.886 165.633Z" fill="#E0E0E0"/>
<path d="M201.568 165.633C199.844 165.948 198.077 165.948 196.353 165.633C198.076 165.306 199.845 165.306 201.568 165.633Z" fill="#E0E0E0"/>
<path d="M229.238 165.633C227.518 165.948 225.754 165.948 224.033 165.633C225.753 165.306 227.519 165.306 229.238 165.633Z" fill="#E0E0E0"/>
<path d="M256.92 165.633C255.196 165.948 253.43 165.948 251.706 165.633C253.428 165.306 255.197 165.306 256.92 165.633Z" fill="#E0E0E0"/>
<path d="M284.59 165.633C282.866 165.948 281.099 165.948 279.375 165.633C281.098 165.306 282.867 165.306 284.59 165.633Z" fill="#E0E0E0"/>
<path d="M309.347 165.633C307.623 165.948 305.856 165.948 304.132 165.633C305.855 165.306 307.624 165.306 309.347 165.633Z" fill="#E0E0E0"/>
<path d="M334.095 165.633C332.371 165.948 330.604 165.948 328.88 165.633C330.603 165.306 332.372 165.306 334.095 165.633Z" fill="#E0E0E0"/>
<path d="M154.636 157.704C153.962 157.934 153.245 158.014 152.537 157.94C151.826 158.014 151.107 157.933 150.429 157.704C151.104 157.464 151.825 157.38 152.537 157.459C153.246 157.379 153.964 157.463 154.636 157.704Z" fill="#E0E0E0"/>
<path d="M154.636 147.072C153.962 147.302 153.245 147.383 152.537 147.308C151.826 147.382 151.107 147.302 150.429 147.072C151.104 146.832 151.825 146.748 152.537 146.827C153.246 146.748 153.964 146.831 154.636 147.072Z" fill="#E0E0E0"/>
<path d="M154.636 136.443C153.962 136.673 153.245 136.754 152.537 136.679C151.826 136.753 151.107 136.673 150.429 136.443C151.104 136.203 151.825 136.119 152.537 136.198C153.246 136.119 153.964 136.203 154.636 136.443Z" fill="#E0E0E0"/>
<path d="M154.636 125.815C153.962 126.045 153.245 126.125 152.537 126.051C151.826 126.125 151.107 126.044 150.429 125.815C151.104 125.575 151.825 125.491 152.537 125.57C153.246 125.49 153.964 125.574 154.636 125.815Z" fill="#E0E0E0"/>
<path d="M154.636 115.186C153.962 115.416 153.245 115.496 152.537 115.422C151.826 115.496 151.107 115.415 150.429 115.186C151.104 114.946 151.825 114.862 152.537 114.941C153.246 114.861 153.964 114.945 154.636 115.186Z" fill="#E0E0E0"/>
<path d="M154.636 104.602C153.962 104.832 153.245 104.912 152.537 104.838C151.826 104.912 151.107 104.831 150.429 104.602C151.104 104.362 151.825 104.278 152.537 104.357C153.246 104.277 153.964 104.361 154.636 104.602Z" fill="#E0E0E0"/>
<path d="M154.636 93.9261C153.962 94.156 153.245 94.2366 152.537 94.1623C151.826 94.2362 151.107 94.1556 150.429 93.9261C151.106 93.6921 151.826 93.6144 152.537 93.699C153.245 93.6139 153.963 93.6916 154.636 93.9261Z" fill="#E0E0E0"/>
<path d="M158.37 158.492L158.07 157.638L184.988 148.181L212.206 129.802L239.287 138.787L266.568 120.79L293.895 120.718L294.013 120.8L319.968 139.132L345.124 122.517L345.623 123.28L319.95 140.241L319.696 140.059L293.604 121.626L266.841 121.699L239.423 139.787L212.342 130.811L185.351 149.017L158.37 158.492Z" fill="#663AA3"/>
<path d="M320.113 148.782L293.613 130.767H266.295L238.96 112.725L212.46 112.489L185.387 139.897H158.551V138.989H185.006L212.087 111.571L239.241 111.816L266.568 129.859H293.886L319.813 147.474L345.696 101.987L346.486 102.432L320.113 148.782Z" fill="#A2909E"/>
<path d="M346.276 78.4291C346.276 78.5653 336.065 78.6653 323.473 78.6653C310.882 78.6653 300.671 78.5653 300.671 78.4291C300.671 78.2928 310.882 78.1929 323.473 78.1929C336.065 78.1929 346.276 78.3019 346.276 78.4291Z" fill="black"/>
<path d="M159.894 77.4564H158.241V76.4844H162.783V77.4564H161.13V81.6536H159.894V77.4564Z" fill="black"/>
<path d="M166.682 81.6536L165.71 80.2091H164.602V81.6536H163.412V76.4844H165.647C167.028 76.4844 167.891 77.2021 167.891 78.3558C167.906 78.7051 167.811 79.0503 167.621 79.3434C167.43 79.6365 167.153 79.8629 166.828 79.9911L167.991 81.6536H166.682ZM165.565 77.4564H164.584V79.2734H165.565C166.292 79.2734 166.664 78.9372 166.664 78.3649C166.664 77.7926 166.292 77.4564 165.565 77.4564Z" fill="black"/>
<path d="M172.823 80.6906V81.6536H168.816V76.4844H172.723V77.3928H169.997V78.5193H172.396V79.4278H169.997V80.627L172.823 80.6906Z" fill="black"/>
<path d="M178.518 76.4844V81.6536H177.519L174.939 78.5103V81.6536H173.758V76.4844H174.793L177.374 79.6186V76.4844H178.518Z" fill="black"/>
<path d="M179.737 76.4843H182.062C182.424 76.4471 182.79 76.4863 183.135 76.5992C183.481 76.7122 183.799 76.8964 184.069 77.14C184.339 77.3836 184.555 77.6812 184.702 78.0135C184.85 78.3457 184.926 78.7053 184.926 79.0689C184.926 79.4325 184.85 79.7921 184.702 80.1244C184.555 80.4566 184.339 80.7542 184.069 80.9978C183.799 81.2414 183.481 81.4257 183.135 81.5386C182.79 81.6516 182.424 81.6907 182.062 81.6535H179.709L179.737 76.4843ZM182.062 80.6724C182.283 80.689 182.505 80.6599 182.714 80.5868C182.923 80.5138 183.114 80.3984 183.277 80.2479C183.439 80.0974 183.568 79.915 183.657 79.7121C183.745 79.5092 183.791 79.2903 183.791 79.0689C183.791 78.8476 183.745 78.6286 183.657 78.4258C183.568 78.2229 183.439 78.0405 183.277 77.89C183.114 77.7395 182.923 77.6241 182.714 77.551C182.505 77.478 182.283 77.4488 182.062 77.4655H180.972V80.6724H182.062Z" fill="black"/>
<path d="M115.043 199.481L111.854 203.469V196.601H101.788C101.788 196.601 100.671 212.336 100.88 215.679C101.089 219.022 104.877 228.616 104.877 228.616C108.77 226.304 112.206 223.299 115.016 219.749C119.485 214.008 126.917 199.999 126.917 199.999L119.167 195.32L115.043 199.481Z" fill="#FFBE9D"/>
<path d="M115.678 198.746C115.303 199.374 114.865 199.961 114.37 200.499C113.516 201.553 112.344 202.998 110.999 204.569C109.655 206.141 108.383 207.513 107.365 208.449C106.868 208.998 106.289 209.467 105.648 209.839C106.103 209.268 106.595 208.728 107.12 208.221C108.029 207.231 109.255 205.823 110.6 204.261C113.298 201.117 115.569 198.637 115.678 198.746Z" fill="#EB996E"/>
<path d="M115.381 173.763C115.381 173.763 112.519 150.279 101.181 147.881L95.3127 170.447L100.191 186.727L116.371 184.547L115.381 173.763Z" fill="#663AA3"/>
<path d="M40.5125 189.362L41.0484 191.043L52.1499 225.937C52.1499 225.937 79.6311 236.33 89.4971 232.242C99.3631 228.154 103.924 222.249 103.924 222.249L101.725 147.973L86.0722 145.602L59.0816 143.621L41.003 149.426L40.5125 189.362Z" fill="#663AA3"/>
<g opacity="0.3">
<path opacity="0.3" d="M74.5798 202.961C64.2719 198.531 54.6579 192.634 46.0357 185.455L40.5122 188.399C44.6639 196.784 48.1252 204.433 53.8485 211.837C55.8287 214.489 58.4519 216.593 61.4706 217.951C63.641 218.718 65.9787 218.881 68.2346 218.423C70.4904 217.966 72.5798 216.904 74.28 215.353C77.5686 212.291 80.0397 203.297 78.9586 195.966C77.1144 196.075 76.2877 203.67 74.5798 202.961Z" fill="#BA68C8"/>
</g>
<path d="M103.271 181.503C102.934 178.977 102.325 176.495 101.454 174.099C100.423 171.766 99.1372 169.555 97.6204 167.504C98.2165 167.976 98.7399 168.533 99.1738 169.157C100.288 170.617 101.204 172.218 101.899 173.918C102.593 175.619 103.051 177.407 103.262 179.232C103.376 179.985 103.379 180.75 103.271 181.503Z" fill="black"/>
<path d="M103.225 126.059C102.501 126.149 101.766 126.04 101.098 125.744C100.431 125.448 99.8567 124.976 99.4371 124.379C100.4 124.623 101.415 124.566 102.344 124.215C103.253 123.77 103.725 122.471 103.035 121.762C102.499 121.208 101.608 121.308 100.845 121.254C99.9484 121.173 99.0931 120.838 98.379 120.29C97.6648 119.741 97.1213 119.001 96.8116 118.156C96.1575 116.284 96.748 114.249 96.9842 112.287C97.2932 109.417 96.8285 106.517 95.6384 103.888C94.4483 101.258 92.5761 98.9953 90.2161 97.3336L77.9063 90.2476C73.4458 95.9527 72.0558 103.657 72.9824 110.843C73.9091 118.029 76.9524 124.797 80.6227 131.047C81.6279 132.91 82.8775 134.63 84.3383 136.162C85.8093 137.699 87.7548 138.698 89.8618 138.996C90.1329 138.127 90.1918 137.206 90.0338 136.31C89.8757 135.414 89.5052 134.569 88.9533 133.845C90.6218 133.942 92.2927 133.702 93.8662 133.138C95.4396 132.575 96.8832 131.7 98.1107 130.565L95.467 128.549C96.8636 128.727 98.2822 128.596 99.6227 128.166C100.963 127.736 102.193 127.017 103.225 126.059Z" fill="black"/>
<path d="M55.8296 105.991C55.8694 103.517 56.7044 101.121 58.2112 99.1576C59.718 97.1944 61.8166 95.7681 64.1966 95.0898L79.6406 90.6837C86.336 89.7752 91.06 97.8969 91.6869 104.629C92.3955 112.105 92.9224 120 92.2047 125.614C90.7693 136.907 82.2115 138.605 82.2115 138.605C82.2115 138.605 82.366 143.947 82.4568 147.236L79.9404 161.944L59.5634 144.574L55.7842 106.128C55.7842 105.937 55.7842 106.246 55.8296 105.991Z" fill="#FFBE9D"/>
<path d="M89.7246 113.249C89.7397 113.625 89.6077 113.992 89.3566 114.272C89.1055 114.552 88.7552 114.723 88.3801 114.748C88.197 114.77 88.0114 114.754 87.8345 114.702C87.6576 114.65 87.4931 114.563 87.3506 114.446C87.2081 114.329 87.0907 114.184 87.0054 114.021C86.92 113.857 86.8685 113.678 86.8539 113.495C86.8364 113.12 86.9663 112.753 87.2159 112.473C87.4656 112.193 87.815 112.021 88.1893 111.996C88.3727 111.975 88.5583 111.992 88.7352 112.044C88.9121 112.097 89.0768 112.184 89.2197 112.301C89.3626 112.417 89.4809 112.561 89.5675 112.724C89.6542 112.887 89.7076 113.066 89.7246 113.249Z" fill="black"/>
<path d="M90.1161 109.144C89.9344 109.334 88.8261 108.562 87.2726 108.617C85.7191 108.671 84.6108 109.525 84.4381 109.289C84.2655 109.053 84.5199 108.862 85.0014 108.49C85.6615 108.006 86.4543 107.736 87.2726 107.717C88.0775 107.685 88.8712 107.915 89.5347 108.371C90.0252 108.699 90.1978 109.026 90.1161 109.144Z" fill="black"/>
<path d="M76.1426 113.268C76.1576 113.644 76.0256 114.01 75.7745 114.29C75.5235 114.57 75.1732 114.741 74.798 114.767C74.6149 114.788 74.4294 114.772 74.2525 114.72C74.0756 114.668 73.911 114.581 73.7685 114.464C73.6261 114.347 73.5087 114.203 73.4233 114.039C73.338 113.876 73.2864 113.697 73.2718 113.513C73.2544 113.137 73.3856 112.769 73.6371 112.488C73.8887 112.208 74.2404 112.038 74.6163 112.014C74.799 111.995 74.9836 112.013 75.1595 112.066C75.3353 112.119 75.4989 112.206 75.6409 112.323C75.7828 112.439 75.9002 112.583 75.9863 112.745C76.0724 112.907 76.1255 113.085 76.1426 113.268Z" fill="black"/>
<path d="M75.3797 109.534C75.2071 109.733 74.0896 108.952 72.5362 109.007C70.9827 109.061 69.8743 109.915 69.7017 109.688C69.5291 109.461 69.7835 109.261 70.2741 108.879C70.9309 108.396 71.7207 108.126 72.5362 108.107C73.3434 108.079 74.1386 108.308 74.8073 108.761C75.2888 109.143 75.4705 109.452 75.3797 109.534Z" fill="black"/>
<path d="M80.575 121.581C81.3856 121.3 82.2277 121.12 83.0824 121.045C83.473 121.045 83.8455 120.909 83.9091 120.636C83.9263 120.225 83.8221 119.817 83.6093 119.464C83.2005 118.556 82.7826 117.529 82.3465 116.485C80.5841 112.242 79.2941 108.754 79.4667 108.681C79.6393 108.608 81.2018 111.997 82.9643 116.239L84.1816 119.237C84.4445 119.706 84.5345 120.253 84.436 120.782C84.3829 120.924 84.298 121.051 84.1877 121.155C84.0775 121.259 83.9449 121.337 83.8001 121.381C83.5824 121.451 83.3562 121.491 83.1278 121.499C82.2841 121.639 81.4258 121.666 80.575 121.581Z" fill="black"/>
<path d="M67.1592 135.063C67.1592 135.063 71.0383 142.686 82.2488 141.286L82.1762 138.643C76.9354 138.866 71.7359 137.627 67.1592 135.063Z" fill="#EB996E"/>
<path d="M74.7353 103.949C74.599 104.376 73.0364 104.221 71.2286 104.494C69.4207 104.766 67.9581 105.311 67.7037 104.939C67.5947 104.766 67.84 104.357 68.4123 103.93C69.1898 103.403 70.0793 103.064 71.0106 102.94C71.925 102.806 72.8583 102.886 73.736 103.176C74.4446 103.422 74.7989 103.749 74.7353 103.949Z" fill="black"/>
<path d="M89.4706 104.383C89.2071 104.746 88.126 104.383 86.8451 104.437C85.5642 104.492 84.474 104.746 84.2196 104.383C84.1015 104.21 84.2196 103.856 84.7284 103.474C85.3543 103.054 86.0912 102.83 86.8451 102.83C87.599 102.83 88.3359 103.054 88.9618 103.474C89.3979 103.856 89.5887 104.21 89.4706 104.383Z" fill="black"/>
<path d="M74.7631 124.589C74.863 124.126 75.1225 123.713 75.4962 123.422C75.8699 123.132 76.334 122.982 76.8071 122.999C77.1608 123.029 77.5012 123.148 77.7966 123.345C78.092 123.542 78.3329 123.81 78.4969 124.125C78.6547 124.435 78.7488 124.773 78.7738 125.119C78.7987 125.465 78.754 125.813 78.6422 126.142V126.288C78.3307 126.647 77.9147 126.901 77.4523 127.013C76.9899 127.126 76.504 127.091 76.0622 126.914C75.6151 126.73 75.2434 126.4 75.0076 125.978C74.7717 125.556 74.6856 125.066 74.7631 124.589Z" fill="#EB996E"/>
<path d="M79.7131 126.287C79.7131 126.06 78.1415 126.178 76.9241 124.924C75.7068 123.67 75.7522 121.99 75.5342 121.99C75.3162 121.99 75.2526 122.389 75.2889 123.098C75.354 124.016 75.7361 124.883 76.37 125.551C76.9819 126.186 77.8149 126.56 78.6957 126.596C79.4043 126.605 79.7313 126.405 79.7131 126.287Z" fill="black"/>
<path d="M61.0181 88.0853C63.1873 84.9995 66.3968 82.7996 70.0573 81.8895C73.6912 81.2536 75.926 81.8895 78.3335 84.0789C79.3616 85.0664 80.6058 85.8005 81.9674 86.2229C83.7207 86.5681 85.1924 86.2774 87.2819 87.3494C90.1436 88.8121 91.3973 92.6276 92.7327 95.5256C94.377 99.1595 96.7209 102.512 97.7929 106.355C98.8649 110.197 98.3016 114.921 95.0675 117.256C95.6852 113.977 96.194 110.325 94.3952 107.517C93.0234 105.373 90.5705 104.183 88.8081 102.348C86.6823 100.132 86.4098 97.1609 84.1749 95.0805C79.0875 90.2565 70.1391 98.7144 61.0453 88.0944" fill="black"/>
<path d="M93.3219 103.457C92.1457 100.182 90.456 97.1159 88.3162 94.3723C85.4706 91.0618 81.4998 88.9224 77.1698 88.3671C72.8398 87.8118 68.4576 88.8799 64.8687 91.3653L63.9602 91.4379C65.3507 93.175 67.1131 94.5779 69.1178 95.5432C71.1225 96.5086 73.3182 97.0119 75.5432 97.0159C78.1868 97.0159 81.0485 96.3255 83.3197 97.6882C85.5908 99.0509 86.3176 101.74 88.1164 103.539C89.3337 104.756 90.969 105.51 92.1591 106.773C93.3191 108.199 94.1698 109.851 94.6574 111.624C95.4386 108.917 94.403 106.055 93.3219 103.457Z" fill="black"/>
<path d="M69.6819 93.5621L62.4777 87.2029C56.8634 86.9121 53.2568 92.2176 51.3308 96.2875C49.8954 99.3309 49.4503 102.738 48.3692 105.926C47.2881 109.115 45.4893 112.231 44.4809 115.529C43.4725 118.827 43.3363 122.679 45.3258 125.522L46.5795 123.215C46.7895 126.443 48.116 129.497 50.3315 131.854C50.495 131.055 50.6585 130.255 50.813 129.447C52.0055 131.895 53.904 133.929 56.2638 135.288L59.6433 144.309C64.6217 129.129 51.7941 127.984 69.6819 93.5621Z" fill="black"/>
<path d="M68.6487 94.8804C68.279 96.9404 67.7131 98.9603 66.959 100.913C66.1969 102.872 64.9155 104.587 63.2524 105.873C60.7905 107.69 57.6108 108.026 54.6492 108.744C51.6876 109.461 48.5352 110.815 47.3179 113.604C47.7997 109.509 48.6449 105.466 49.8434 101.521C51.1607 97.1698 53.0594 92.7909 56.6933 90.0019C58.3608 88.7508 60.3141 87.9352 62.3762 87.6291C64.4383 87.3229 66.5442 87.5359 68.5034 88.2486" fill="black"/>
<path d="M60.9895 114.731C60.8351 114.358 53.849 112.06 53.9671 119.418C54.0761 126.568 61.2348 124.951 61.2348 124.742C61.2348 124.533 60.9895 114.731 60.9895 114.731Z" fill="#FFBE9D"/>
<path d="M59 122.08C59 122.08 58.8819 122.171 58.673 122.271C58.3811 122.386 58.0563 122.386 57.7645 122.271C57.0014 122.007 56.3473 120.826 56.2837 119.545C56.2536 118.924 56.3623 118.303 56.6017 117.728C56.6627 117.505 56.7773 117.299 56.9356 117.13C57.0939 116.961 57.2911 116.832 57.5101 116.756C57.6529 116.713 57.8063 116.723 57.9429 116.783C58.0794 116.843 58.1901 116.949 58.2551 117.083C58.355 117.274 58.3096 117.42 58.3459 117.438C58.3823 117.456 58.5004 117.311 58.4368 117.02C58.3928 116.843 58.2904 116.686 58.1461 116.575C57.9464 116.431 57.6994 116.369 57.4556 116.402C57.1652 116.472 56.8965 116.612 56.673 116.81C56.4496 117.008 56.2784 117.258 56.1747 117.538C55.8831 118.162 55.7489 118.848 55.784 119.536C55.8567 120.981 56.6198 122.316 57.6555 122.589C57.8481 122.643 58.0507 122.653 58.2476 122.616C58.4444 122.58 58.6304 122.499 58.7911 122.38C58.9909 122.253 59.0273 122.089 59 122.08Z" fill="#EB996E"/>
<path d="M58.2284 123.37C57.8783 123.321 57.5227 123.407 57.234 123.612C56.9454 123.816 56.7454 124.122 56.6748 124.469C56.6041 124.815 56.6681 125.175 56.8538 125.476C57.0394 125.777 57.3327 125.996 57.674 126.088C58.0153 126.18 58.379 126.139 58.6909 125.973C59.0028 125.806 59.2396 125.527 59.3531 125.193C59.4666 124.858 59.4482 124.492 59.3017 124.17C59.1552 123.849 58.8916 123.595 58.5646 123.461" fill="white"/>
<path d="M58.5637 123.462C58.8686 123.694 59.0992 124.009 59.2268 124.371C59.2856 124.564 59.2939 124.769 59.251 124.966C59.2081 125.163 59.1153 125.346 58.9816 125.497C58.8265 125.688 58.619 125.828 58.3846 125.902C58.1502 125.976 57.8994 125.979 57.6632 125.911C57.4271 125.843 57.2161 125.708 57.0564 125.521C56.8966 125.334 56.7953 125.105 56.7649 124.861C56.7344 124.661 56.7541 124.457 56.8223 124.267C56.8905 124.076 57.005 123.906 57.1555 123.771C57.4588 123.518 57.8335 123.365 58.2275 123.335C58.2275 123.335 58.1094 123.262 57.8914 123.262C57.5597 123.271 57.2402 123.389 56.9829 123.598C56.7883 123.752 56.6366 123.953 56.5427 124.182C56.4488 124.411 56.4158 124.661 56.4469 124.907C56.4842 125.206 56.6085 125.488 56.8044 125.718C57.0004 125.948 57.2594 126.115 57.5494 126.199C57.8394 126.283 58.1477 126.281 58.4361 126.191C58.7246 126.102 58.9805 125.93 59.1723 125.697C59.2972 125.536 59.3879 125.351 59.4388 125.153C59.4897 124.955 59.4997 124.75 59.4682 124.548C59.4367 124.346 59.3644 124.153 59.2558 123.981C59.1471 123.808 59.0043 123.659 58.8362 123.544C58.6909 123.462 58.5637 123.444 58.5637 123.462Z" fill="black"/>
<path d="M53.6492 123.044C53.6492 123.044 53.5583 123.044 53.422 122.88C53.2266 122.713 53.0444 122.531 52.877 122.335C52.2481 121.613 51.7445 120.79 51.3871 119.901C50.8422 118.57 50.6482 117.122 50.8238 115.694C51.0695 113.918 51.9703 112.298 53.3494 111.152C54.7016 110.061 56.2078 109.177 57.819 108.527C59.2726 107.9 60.5444 107.355 61.6164 106.782C62.7338 106.184 63.774 105.452 64.7143 104.602C64.5412 104.908 64.3204 105.184 64.0602 105.42C63.3759 106.086 62.6097 106.663 61.78 107.137C60.5519 107.806 59.2905 108.413 58.0007 108.954C56.4403 109.602 54.9809 110.471 53.6673 111.534C52.3698 112.598 51.507 114.101 51.2417 115.758C51.0613 117.117 51.2172 118.498 51.696 119.783C52.1751 120.964 52.834 122.064 53.6492 123.044Z" fill="#A2909E"/>
<path d="M53.0578 118.801C52.9082 118.59 52.8003 118.353 52.7399 118.101C52.5284 117.429 52.4421 116.724 52.4855 116.021C52.5432 114.966 52.8549 113.941 53.394 113.032C54.0449 111.905 55.0198 111 56.1921 110.434C57.3302 109.903 58.4945 109.43 59.6806 109.017C60.6225 108.674 61.5052 108.187 62.297 107.572C63.0083 106.983 63.5688 106.232 63.9322 105.383C63.9388 105.642 63.8794 105.898 63.7596 106.128C63.4798 106.782 63.0541 107.363 62.515 107.827C61.72 108.502 60.8171 109.04 59.8441 109.416C58.7812 109.871 57.5639 110.252 56.4101 110.852C55.318 111.382 54.4006 112.215 53.7665 113.25C53.2613 114.105 52.9511 115.06 52.858 116.048C52.797 116.971 52.8642 117.897 53.0578 118.801Z" fill="#A2909E"/>
<path d="M69.1113 95.354C68.3893 93.6993 67.4515 92.1475 66.3223 90.739C65.085 89.4273 63.6799 88.2848 62.1433 87.3413C62.682 87.4349 63.1955 87.6391 63.6514 87.9409C64.797 88.592 65.8232 89.4338 66.6857 90.4301C67.5548 91.4182 68.2464 92.5493 68.7297 93.7733C68.9626 94.2689 69.0925 94.8067 69.1113 95.354Z" fill="#A2909E"/>
<path d="M101.961 121.626C101.654 121.631 101.348 121.591 101.052 121.508C100.228 121.343 99.4143 121.124 98.6176 120.854C98.0633 120.658 97.5256 120.418 97.0096 120.136C96.3855 119.821 95.8465 119.359 95.438 118.792C95.222 118.468 95.0765 118.103 95.011 117.72L94.9292 117.166C94.8936 116.967 94.8724 116.767 94.8656 116.566C94.8838 115.754 95.031 114.951 95.3017 114.186C95.5619 113.465 95.7297 112.714 95.8014 111.951C95.8135 111.255 95.6173 110.572 95.2381 109.989C94.5272 108.984 93.6975 108.069 92.7671 107.263C92.1713 106.686 91.5402 106.146 90.8775 105.646C90.6211 105.48 90.3753 105.298 90.1416 105.101C91.2338 105.537 92.2192 106.203 93.0305 107.054C94.0229 107.839 94.9032 108.756 95.6469 109.78C96.0805 110.43 96.3085 111.196 96.301 111.978C96.2367 112.785 96.0656 113.579 95.7923 114.34C95.5335 115.058 95.3894 115.812 95.3653 116.575C95.374 116.752 95.3922 116.927 95.4198 117.102L95.4925 117.656C95.5453 117.979 95.6627 118.288 95.8377 118.565C96.2032 119.081 96.6817 119.506 97.2367 119.809C97.7309 120.09 98.2439 120.336 98.7721 120.545C100.689 121.281 101.988 121.544 101.961 121.626Z" fill="#A2909E"/>
<path d="M76.498 425.372L76.8887 415.351L94.3676 414.688L94.0951 426.961L87.7449 430.795L76.498 425.372Z" fill="#FFBE9D"/>
<path d="M94.4759 424.682V425.826C94.4759 425.826 113.881 433.839 114.053 437.536L75.3799 436.964L76.0976 424.1C78.9395 425.511 82.0521 426.293 85.2234 426.394C88.3947 426.494 91.5504 425.91 94.4759 424.682Z" fill="#663AA3"/>
<g opacity="0.3">
<path opacity="0.3" d="M94.4774 424.682V425.827C94.4774 425.827 113.882 433.84 114.055 437.537L75.3813 436.965L76.099 424.101C78.941 425.512 82.0535 426.294 85.2248 426.395C88.3962 426.495 91.5519 425.911 94.4774 424.682Z" fill="#BA68C8"/>
</g>
<g opacity="0.6">
<path opacity="0.6" d="M79.9418 428.28C79.5623 428.388 79.2372 428.635 79.0304 428.971C78.8236 429.308 78.7501 429.709 78.8244 430.097C78.9175 430.475 79.1523 430.803 79.4804 431.012C79.8085 431.222 80.2046 431.297 80.5868 431.223C80.9817 431.107 81.3196 430.848 81.5359 430.498C81.7522 430.148 81.8315 429.73 81.7587 429.325C81.6205 428.941 81.3386 428.626 80.9724 428.446C80.6062 428.266 80.1845 428.236 79.7964 428.362" fill="white"/>
</g>
<g opacity="0.6">
<path opacity="0.6" d="M75.3708 436.963L75.5435 433.875L112.545 435.546C112.545 435.546 114.253 436.318 114.044 437.536L75.3708 436.963Z" fill="white"/>
</g>
<path d="M94.6034 425.937C94.6034 426.127 93.695 426.2 92.7138 426.791C91.7327 427.381 91.2694 428.171 91.0968 428.099C90.9242 428.026 91.2239 426.927 92.3686 426.282C93.5133 425.637 94.6489 425.764 94.6034 425.937Z" fill="black"/>
<path d="M98.6365 427.671C98.6365 427.862 97.8552 428.171 97.2011 428.961C96.547 429.752 96.3471 430.587 96.1654 430.578C95.9837 430.569 95.8656 429.497 96.7014 428.534C97.5372 427.571 98.6365 427.499 98.6365 427.671Z" fill="black"/>
<path d="M100.872 432.558C100.699 432.558 100.445 431.65 100.944 430.614C101.444 429.578 102.334 429.188 102.416 429.351C102.498 429.515 101.934 430.051 101.507 430.905C101.08 431.759 101.053 432.558 100.872 432.558Z" fill="black"/>
<path d="M60.7798 425.6L61.1795 415.579L78.6494 414.916L78.3859 427.189L72.0357 431.023L60.7798 425.6Z" fill="#FFBE9D"/>
<path d="M78.7679 424.91V426.055C78.7679 426.055 98.1728 434.067 98.3454 437.765L59.6719 437.193L60.3896 424.329C63.2315 425.739 66.344 426.522 69.5154 426.622C72.6867 426.722 75.8424 426.138 78.7679 424.91Z" fill="#663AA3"/>
<g opacity="0.6">
<path opacity="0.6" d="M64.2335 428.506C63.8528 428.613 63.5264 428.86 63.3193 429.196C63.1122 429.533 63.0397 429.935 63.1161 430.323C63.2168 430.693 63.4535 431.01 63.7787 431.213C64.1039 431.415 64.4935 431.487 64.8694 431.413C65.2643 431.297 65.6023 431.039 65.8185 430.688C66.0348 430.338 66.1141 429.92 66.0413 429.515C65.9031 429.131 65.6212 428.816 65.255 428.636C64.8888 428.457 64.4671 428.426 64.079 428.552" fill="white"/>
</g>
<g opacity="0.6">
<path opacity="0.6" d="M59.6641 437.191L59.8367 434.103L96.8386 435.774C96.8386 435.774 98.5465 436.555 98.3376 437.764L59.6641 437.191Z" fill="white"/>
</g>
<path d="M78.8964 426.198C78.8964 426.389 77.9879 426.461 77.0067 427.052C76.0256 427.642 75.5623 428.433 75.3897 428.36C75.2171 428.287 75.5078 427.197 76.6615 426.543C77.8153 425.889 78.9418 425.989 78.8964 426.198Z" fill="black"/>
<path d="M82.93 427.898C82.93 428.089 82.1487 428.397 81.4946 429.188C80.8405 429.978 80.6407 430.814 80.4499 430.805C80.2591 430.796 80.1592 429.724 80.995 428.761C81.8308 427.798 82.93 427.725 82.93 427.898Z" fill="black"/>
<path d="M85.1542 432.796C84.9816 432.796 84.7363 431.887 85.236 430.851C85.7357 429.816 86.626 429.425 86.7077 429.589C86.7895 429.752 86.2262 430.288 85.7992 431.142C85.3723 431.996 85.345 432.777 85.1542 432.796Z" fill="black"/>
<path d="M34.5366 178.487C34.5366 178.487 49.0721 201.017 56.7033 210.102C64.3344 219.187 76.8803 211.192 78.3339 198.837C79.7874 186.482 79.4059 163.579 79.4059 163.579L69.2492 157.538L62.681 188.798L54.5048 173.582L34.5366 178.487Z" fill="#FFBE9D"/>
<path d="M79.404 163.58L83.7646 152.678C84.6635 152.257 85.5238 151.759 86.3356 151.188C86.9806 150.589 86.8534 146.646 86.6717 145.955C86.4901 145.265 87.3803 143.23 86.7535 142.867C86.1267 142.503 84.3733 142.867 84.3097 142.14C84.3097 141.985 85.2182 140.132 83.9373 139.215C83.2959 138.972 82.6154 138.848 81.9295 138.851L81.2209 135.217C81.2209 135.217 78.3138 131.411 76.6786 133.4C76.6786 133.4 70.4919 140.85 69.9468 141.94C69.4018 143.03 69.2473 155.658 69.2473 158.02" fill="#FFBE9D"/>
<path d="M69.2662 158.038C69.241 157.821 69.241 157.601 69.2662 157.384C69.2662 156.902 69.2662 156.275 69.2662 155.494C69.2662 153.85 69.2662 151.479 69.357 148.535C69.357 147.064 69.4479 145.456 69.5751 143.72C69.5751 143.284 69.6477 142.812 69.7295 142.385C69.8289 141.911 70.0478 141.47 70.3654 141.104C70.9105 140.341 71.4919 139.596 72.1006 138.824C73.3089 137.288 74.5989 135.699 75.9434 134.045C76.2732 133.585 76.668 133.175 77.1154 132.828C77.3893 132.687 77.693 132.613 78.0011 132.613C78.3092 132.613 78.6129 132.687 78.8869 132.828C79.9112 133.374 80.8017 134.14 81.4942 135.072V135.135C81.5669 135.481 81.6395 135.862 81.7122 136.244C81.8757 137.089 82.0483 137.934 82.2119 138.751L81.9847 138.56C82.4601 138.573 82.9339 138.622 83.402 138.706C83.6626 138.748 83.9125 138.841 84.1378 138.978C84.3471 139.133 84.5206 139.332 84.6466 139.56C84.8746 140.011 84.948 140.525 84.8555 141.022C84.8277 141.254 84.776 141.482 84.7011 141.704L84.6011 142.022V142.094C84.5963 142.104 84.5938 142.115 84.5938 142.126C84.5938 142.137 84.5963 142.148 84.6011 142.158C84.7199 142.262 84.8704 142.323 85.0281 142.33C85.2354 142.366 85.4448 142.387 85.655 142.394C85.873 142.394 86.091 142.394 86.3181 142.458C86.5854 142.481 86.8391 142.585 87.0449 142.757C87.2046 142.978 87.273 143.251 87.2357 143.521C87.2357 143.751 87.2084 143.969 87.1539 144.175C87.0722 144.593 86.9722 144.992 86.9268 145.383C86.8949 145.557 86.8949 145.736 86.9268 145.91C86.9268 146.137 86.9813 146.328 87.0086 146.537C87.0086 146.949 87.0268 147.348 87.0631 147.736C87.0791 148.51 87.0396 149.284 86.945 150.052C86.9088 150.448 86.7912 150.831 86.5998 151.179C86.3374 151.453 86.0302 151.68 85.6913 151.851C85.0826 152.215 84.474 152.514 83.8744 152.76L83.9652 152.669L80.7038 160.6C80.3223 161.508 80.0134 162.226 79.7953 162.762C79.6992 163.016 79.5838 163.262 79.4501 163.498C79.5137 163.234 79.5988 162.976 79.7045 162.726C79.9044 162.181 80.186 161.445 80.5312 160.527C81.2852 158.592 82.3481 155.867 83.6382 152.533V152.469H83.7018C84.2832 152.187 84.8828 151.869 85.5187 151.515C85.8097 151.366 86.0762 151.173 86.3091 150.943C86.4579 150.642 86.5473 150.315 86.5725 149.98C86.6583 149.235 86.6887 148.485 86.6634 147.736C86.6634 147.342 86.6452 146.952 86.6089 146.564C86.5969 146.374 86.5696 146.186 86.5271 146.001C86.4864 145.775 86.4864 145.545 86.5271 145.319C86.5816 144.892 86.6815 144.484 86.7542 144.084C86.7913 143.889 86.8156 143.692 86.8269 143.493C86.8497 143.34 86.821 143.183 86.7451 143.048C86.6073 142.963 86.452 142.91 86.2909 142.894C86.091 142.894 85.8821 142.894 85.664 142.839C85.446 142.785 85.228 142.839 84.9918 142.776C84.7112 142.755 84.4502 142.624 84.265 142.412C84.2076 142.343 84.1727 142.257 84.1651 142.167C84.1463 142.108 84.1463 142.044 84.1651 141.985V141.894L84.265 141.586C84.3234 141.383 84.3689 141.176 84.4013 140.968C84.4791 140.57 84.4215 140.157 84.2378 139.796C84.1437 139.627 84.0134 139.481 83.8562 139.369C83.6883 139.271 83.5033 139.206 83.3111 139.178C82.8588 139.126 82.4034 139.108 81.9484 139.124H81.7576V138.933C81.5941 138.115 81.4215 137.27 81.258 136.425C81.1853 136.044 81.1126 135.671 81.0399 135.317V135.417C80.3927 134.55 79.5652 133.834 78.6143 133.318C78.4061 133.207 78.1736 133.149 77.9375 133.149C77.7014 133.149 77.4689 133.207 77.2607 133.318C76.8622 133.634 76.5132 134.008 76.2251 134.427C74.8624 136.062 73.5723 137.652 72.355 139.178C71.7463 139.932 71.1558 140.686 70.6198 141.422C70.3306 141.737 70.13 142.122 70.0384 142.539C69.9657 142.966 69.9203 143.448 69.8749 143.829C69.7295 145.546 69.6659 147.164 69.6023 148.626C69.5024 151.524 69.4206 153.886 69.3661 155.576C69.3661 156.357 69.3661 156.984 69.3025 157.466C69.3052 157.657 69.2931 157.848 69.2662 158.038Z" fill="#EB996E"/>
<path d="M81.949 138.852C81.3236 139.079 80.6868 139.273 80.0412 139.433C79.37 139.684 78.7199 139.988 78.0971 140.342C77.251 140.678 76.3604 140.889 75.4535 140.969C74.6774 141.032 73.9262 141.273 73.2571 141.671C72.5879 142.069 72.0186 142.615 71.5925 143.267C71.2753 143.83 71.06 144.446 70.9565 145.084C70.8734 144.745 70.8611 144.392 70.9205 144.049C70.9799 143.705 71.1097 143.377 71.3018 143.085C71.6715 142.421 72.1872 141.85 72.8098 141.414C73.5783 140.903 74.4618 140.59 75.3808 140.505C76.2478 140.423 77.1018 140.237 77.9245 139.951C78.566 139.584 79.2414 139.28 79.9413 139.043C80.5928 138.855 81.2737 138.79 81.949 138.852Z" fill="#EB996E"/>
<path d="M79.2586 139.259C79.1587 139.341 78.759 138.968 78.65 138.35C78.541 137.733 78.8135 137.242 78.9316 137.288C79.0497 137.333 79.0315 137.769 79.1224 138.278C79.2132 138.787 79.404 139.177 79.2586 139.259Z" fill="#EB996E"/>
<path d="M84.5916 142.22C82.7407 142.831 80.7983 143.116 78.8501 143.065C78.1316 142.993 77.4059 143.064 76.7152 143.274C76.2002 143.514 75.7946 143.939 75.5796 144.464C75.4058 144.988 75.2662 145.522 75.1617 146.063C74.9968 145.493 75.0354 144.882 75.2707 144.337C75.4841 143.7 75.9416 143.174 76.5426 142.875C77.28 142.618 78.0629 142.519 78.841 142.584C82.0115 142.557 84.5643 142.084 84.5916 142.22Z" fill="#EB996E"/>
<path d="M86.3538 145.399C85.9225 145.606 85.451 145.714 84.9729 145.717C84.0644 145.817 82.8925 145.781 81.5843 145.826C80.972 145.824 80.3618 145.897 79.7674 146.044C79.3127 146.157 78.9075 146.415 78.6136 146.78C78.3624 147.145 78.235 147.582 78.2502 148.025C78.2502 148.025 78.1321 147.916 78.0867 147.661C78.0413 147.289 78.1282 146.913 78.332 146.599C78.6406 146.135 79.0993 145.792 79.6311 145.626C80.2478 145.446 80.8871 145.354 81.5298 145.354C82.8743 145.308 84.0553 145.354 84.9184 145.354C85.397 145.314 85.8787 145.329 86.3538 145.399Z" fill="#EB996E"/>
<path d="M84.7379 148.608C84.8288 148.608 84.3473 149.453 83.1845 149.716L83.3662 149.462L83.4297 150.08C83.5848 150.905 83.5848 151.752 83.4297 152.578C83.1209 151.8 82.9607 150.971 82.9573 150.134L82.9028 149.516V149.298H83.1027C84.0838 149.117 84.6562 148.517 84.7379 148.608Z" fill="#EB996E"/>
<path d="M103.934 220.886C103.934 220.886 116.861 249.421 116.861 267.272C116.861 285.124 104.143 343.502 104.143 343.502C104.143 343.502 102.444 359.645 100.736 381.185C99.6177 394.66 97.4397 408.025 94.2221 421.158H81.5036L60.8177 421.721C60.8177 421.721 52.0328 385.736 52.5961 372.137C53.1593 358.537 55.4305 342.948 55.4305 342.948C55.4305 342.948 44.3835 297.897 42.394 289.675C41.6218 286.459 41.2675 280.327 41.2039 273.795C41.0701 260.361 43.5381 247.027 48.4716 234.531L52.1055 225.364L103.934 220.886Z" fill="black"/>
<path d="M84.8551 277.982C84.7188 277.982 83.1835 309.924 81.4302 349.343C79.6768 388.761 78.3232 420.748 78.4958 420.748C78.6684 420.748 80.1674 388.807 81.9207 349.379C83.6741 309.951 84.9641 277.982 84.8551 277.982Z" fill="#A2909E"/>
<path d="M87.5812 265.22C87.7202 264.702 87.8144 264.173 87.8628 263.639C88.0173 262.621 88.1899 261.131 88.3443 259.296C88.7259 254.499 88.7532 249.68 88.4261 244.879C88.1027 240.078 87.4255 235.308 86.4002 230.607C86.0005 228.79 85.628 227.355 85.3373 226.373C85.2158 225.851 85.0486 225.34 84.8376 224.847C84.8984 225.378 85.0017 225.904 85.1465 226.419C85.3736 227.418 85.6916 228.881 86.055 230.68C86.99 235.38 87.6272 240.135 87.9628 244.915C88.2847 249.694 88.3029 254.488 88.0173 259.269C87.9083 261.086 87.7993 262.594 87.7084 263.621C87.6211 264.149 87.5785 264.684 87.5812 265.22Z" fill="#A2909E"/>
<path d="M44.155 248.412C44.4161 248.653 44.7259 248.836 45.0635 248.948C45.9465 249.311 46.8993 249.472 47.8525 249.42C50.2781 249.357 53.4759 248.112 56.3921 245.941C58.8831 244.063 60.9018 241.631 62.2881 238.837C62.7031 237.993 63.0524 237.118 63.3328 236.22C63.4505 235.896 63.5238 235.556 63.5508 235.212C63.4509 235.212 63.0875 236.611 61.9701 238.664C60.5285 241.353 58.5199 243.696 56.0832 245.532C53.6983 247.434 50.8402 248.649 47.8162 249.048C46.5621 249.139 45.305 248.92 44.155 248.412Z" fill="#A2909E"/>
<path d="M97.5745 231.413C97.6005 231.724 97.6709 232.03 97.7834 232.321C98.0307 233.135 98.3343 233.93 98.6919 234.702C99.8474 237.263 101.416 239.617 103.334 241.67C105.257 243.722 107.508 245.441 109.993 246.757C110.739 247.161 111.513 247.51 112.31 247.802C112.599 247.933 112.905 248.025 113.218 248.074C113.218 247.983 112.019 247.502 110.184 246.448C105.374 243.674 101.495 239.535 99.0371 234.556C98.056 232.694 97.6562 231.386 97.5745 231.413Z" fill="#A2909E"/>
<path d="M79.3221 230.77C79.3221 230.77 79.3766 230.57 79.4856 230.252C79.6376 229.807 79.9271 229.422 80.3123 229.153C80.6105 228.936 80.9628 228.806 81.3302 228.777C81.6977 228.749 82.0659 228.822 82.3943 228.989C82.7227 229.156 82.9984 229.411 83.191 229.726C83.3836 230.04 83.4855 230.401 83.4855 230.77C83.4855 231.138 83.3836 231.5 83.191 231.814C82.9984 232.128 82.7227 232.383 82.3943 232.551C82.0659 232.718 81.6977 232.791 81.3302 232.762C80.9628 232.733 80.6105 232.604 80.3123 232.387C79.9271 232.117 79.6376 231.732 79.4856 231.288C79.3766 230.97 79.3675 230.77 79.3221 230.77C79.2766 230.77 79.2403 230.97 79.3221 231.333C79.4139 231.864 79.6986 232.343 80.1215 232.678C80.4362 232.933 80.8107 233.103 81.2098 233.173C81.6088 233.243 82.0191 233.21 82.4018 233.077C82.8807 232.91 83.2957 232.599 83.5894 232.185C83.8831 231.772 84.0409 231.277 84.0409 230.77C84.0409 230.263 83.8831 229.768 83.5894 229.355C83.2957 228.941 82.8807 228.629 82.4018 228.462C82.0191 228.329 81.6088 228.296 81.2098 228.366C80.8107 228.436 80.4362 228.607 80.1215 228.862C79.6986 229.197 79.4139 229.675 79.3221 230.207C79.2403 230.57 79.2948 230.77 79.3221 230.77Z" fill="#A2909E"/>
<path d="M61.6897 342.129C63.8703 343.649 66.1461 345.026 68.5032 346.254C70.7935 347.612 73.1661 348.825 75.6074 349.888C73.4129 348.374 71.1217 347.005 68.7485 345.791C66.472 344.428 64.1147 343.205 61.6897 342.129Z" fill="#A2909E"/>
<path d="M116.153 162.816C112.21 168.812 96.2299 193.113 91.4968 200.299C91.3813 200.478 91.319 200.685 91.3172 200.898C91.3154 201.11 91.3742 201.319 91.4867 201.499C91.5992 201.679 91.7608 201.824 91.9524 201.915C92.1441 202.007 92.3579 202.042 92.5688 202.016L120.968 198.437C121.117 198.42 121.262 198.371 121.392 198.294C121.522 198.218 121.634 198.115 121.722 197.992L148.839 160.926C148.965 160.756 149.039 160.553 149.053 160.342C149.067 160.13 149.019 159.92 148.917 159.734C148.815 159.549 148.662 159.397 148.476 159.296C148.29 159.194 148.079 159.149 147.867 159.164L118.651 161.326C118.148 161.364 117.66 161.519 117.227 161.777C116.793 162.036 116.425 162.391 116.153 162.816Z" fill="#E0E0E0"/>
<path d="M116.152 162.816C116.218 162.695 116.294 162.58 116.379 162.471C116.631 162.159 116.939 161.898 117.287 161.699C117.873 161.393 118.525 161.237 119.186 161.244L121.821 161.026L138.664 159.7L144.251 159.273L147.212 159.046C147.476 159.046 147.703 159 148.003 159C148.231 159.011 148.453 159.082 148.645 159.206C148.838 159.33 148.994 159.503 149.098 159.707C149.202 159.91 149.251 160.138 149.239 160.367C149.227 160.595 149.154 160.817 149.029 161.008L141.18 171.828L123.011 196.593C122.602 197.156 122.229 197.674 121.784 198.255C121.646 198.412 121.471 198.53 121.276 198.601C121.098 198.654 120.915 198.691 120.73 198.71L119.731 198.828L115.752 199.327L107.985 200.299L93.3038 202.116C93.004 202.116 92.7496 202.198 92.3953 202.216C92.2256 202.214 92.058 202.179 91.9021 202.112C91.7463 202.044 91.6051 201.947 91.4868 201.826C91.2475 201.582 91.1081 201.258 91.0962 200.917C91.116 200.586 91.2364 200.269 91.4414 200.009C92.0773 199.1 92.6951 198.11 93.3129 197.174C94.5241 195.315 95.7173 193.498 96.8922 191.724L103.333 181.994L112.672 167.922L115.234 164.106C115.525 163.688 115.743 163.361 115.916 163.125C116.088 162.889 116.152 162.789 116.152 162.798C116.096 162.922 116.029 163.041 115.952 163.152L115.316 164.161L112.827 168.022L103.606 182.176L97.2465 191.942L93.6853 197.392L91.8684 200.236C91.7055 200.423 91.6124 200.66 91.6049 200.908C91.6049 201.149 91.7006 201.38 91.871 201.551C92.0414 201.721 92.2725 201.817 92.5134 201.817C92.7496 201.817 93.0767 201.744 93.3583 201.717L108.039 199.9L115.807 198.919L119.777 198.419L120.776 198.292C120.927 198.279 121.076 198.252 121.221 198.21C121.344 198.16 121.455 198.086 121.548 197.992C121.939 197.447 122.338 196.911 122.738 196.375L140.908 171.628L148.82 160.845C148.94 160.664 148.991 160.447 148.964 160.232C148.937 160.017 148.835 159.819 148.675 159.673C148.518 159.529 148.315 159.446 148.103 159.437C147.894 159.437 147.603 159.437 147.358 159.437L144.396 159.645L138.809 160.045L121.957 161.217L119.313 161.39C118.67 161.375 118.032 161.512 117.451 161.789C116.951 162.037 116.508 162.387 116.152 162.816Z" fill="black"/>
<path d="M148.839 160.927C148.646 160.978 148.448 161.008 148.248 161.017L146.522 161.19L140.108 161.762L118.305 163.579L118.478 163.479C117.115 165.505 115.707 167.613 114.289 169.793C108.53 178.642 103.506 186.772 99.6995 192.568C97.8099 195.467 96.2473 197.783 95.1571 199.382L93.8762 201.199C93.7413 201.421 93.5829 201.628 93.4038 201.817C93.5234 201.585 93.6569 201.36 93.8035 201.144C94.0942 200.681 94.5031 200.054 95.0027 199.273L99.427 192.378C103.152 186.545 108.139 178.378 113.899 169.521C115.316 167.34 116.733 165.233 118.105 163.161L118.169 163.071H118.278L140.081 161.453L146.513 161.017L148.239 160.927C148.439 160.913 148.639 160.913 148.839 160.927Z" fill="black"/>
<path d="M131.941 166.677C131.924 166.602 131.892 166.532 131.848 166.47C131.803 166.408 131.747 166.356 131.682 166.316C131.616 166.276 131.544 166.25 131.468 166.238C131.393 166.227 131.316 166.231 131.242 166.25C130.952 166.317 130.687 166.465 130.479 166.677C130.345 166.797 130.258 166.96 130.233 167.138C130.209 167.316 130.247 167.497 130.342 167.649C130.624 168.003 131.251 167.876 131.551 167.576C131.688 167.472 131.795 167.335 131.864 167.178C131.932 167.02 131.959 166.848 131.941 166.677Z" fill="white"/>
<path d="M118.678 187.69C118.678 187.69 117.56 184.965 120.404 184.674C123.839 184.494 127.28 184.494 130.715 184.674C130.715 184.674 134.794 185.101 133.931 188.027C133.931 188.027 136.347 190.189 135.048 192.514C133.749 194.84 133.231 194.15 133.231 194.15C133.231 194.15 133.577 196.993 131.414 197.42C131.414 197.42 129.08 200.146 126.927 200.009C124.774 199.873 115.643 195.467 115.044 194.558C114.444 193.65 113.572 193.214 114.09 192.251C114.09 192.251 112.973 189.725 115.389 189.344C115.407 189.362 115.58 187.273 118.678 187.69Z" fill="#FFBE9D"/>
<path d="M131.632 188.653C131.001 188.774 130.357 188.819 129.715 188.789C128.525 188.789 126.89 188.789 125.082 188.789C123.526 188.828 121.97 188.734 120.431 188.508C119.204 188.226 118.723 187.508 118.777 187.49C119.3 187.829 119.883 188.063 120.494 188.181C121.621 188.371 123.283 188.253 125.091 188.317C126.899 188.381 128.534 188.39 129.715 188.453C130.36 188.442 131.004 188.509 131.632 188.653Z" fill="#EB996E"/>
<path d="M129.597 192.958C129.597 192.958 129.388 193.086 128.979 193.167C128.382 193.291 127.77 193.33 127.162 193.285C126.285 193.216 125.418 193.058 124.573 192.813C123.665 192.55 122.611 192.177 121.539 191.85C120.545 191.527 119.518 191.316 118.477 191.223C117.576 191.299 116.671 191.116 115.87 190.696C115.555 190.484 115.334 190.159 115.252 189.788C115.194 189.514 115.232 189.228 115.361 188.979C115.579 188.57 115.888 188.552 115.879 188.57C115.87 188.589 115.661 188.698 115.525 189.061C115.441 189.311 115.448 189.583 115.547 189.828C115.645 190.072 115.827 190.274 116.061 190.396C116.827 190.738 117.671 190.867 118.505 190.769C119.583 190.839 120.648 191.044 121.675 191.378L124.7 192.377C125.515 192.636 126.351 192.821 127.199 192.931C127.996 193.001 128.798 193.011 129.597 192.958Z" fill="#EB996E"/>
<path d="M126.544 196.601C125.892 196.564 125.247 196.439 124.627 196.229C123.456 195.938 121.857 195.475 120.085 194.911C118.314 194.348 116.778 193.758 115.661 193.303C115.037 193.101 114.442 192.82 113.889 192.468C113.944 192.34 116.751 193.322 120.249 194.457C123.746 195.593 126.581 196.474 126.544 196.601Z" fill="#EB996E"/>
<path d="M127.282 199.989C126.742 200.037 126.198 199.975 125.683 199.808C124.431 199.506 123.213 199.077 122.049 198.527C120.677 197.9 119.487 197.264 118.615 196.81C118.124 196.6 117.665 196.322 117.252 195.983C118.975 196.537 120.644 197.246 122.24 198.1C123.888 198.814 125.57 199.444 127.282 199.989Z" fill="#EB996E"/>
<path d="M41.0035 149.417C41.0035 149.417 29.3206 154.277 32.2186 169.739C35.1166 185.201 36.6247 190.361 36.6247 190.361L59.6544 178.242L41.0035 149.417Z" fill="#663AA3"/>
<path d="M59.1728 178.496C58.9106 178.706 58.6275 178.889 58.3279 179.041C57.7738 179.368 56.9561 179.822 55.9477 180.377C53.9309 181.494 51.1238 182.993 48.0077 184.637C44.8917 186.282 42.0663 187.735 40.0041 188.771C38.9775 189.289 38.1417 189.679 37.5603 189.97C37.272 190.132 36.9675 190.263 36.6519 190.361C36.9093 190.142 37.1931 189.955 37.4967 189.807C38.0509 189.479 38.8685 189.025 39.8769 188.471C41.8937 187.363 44.7009 185.855 47.8169 184.219C50.933 182.584 53.7583 181.122 55.8115 180.086L58.2643 178.878C58.5515 178.716 58.8563 178.588 59.1728 178.496Z" fill="black"/>
<path d="M59.172 178.496C58.693 177.823 58.2707 177.112 57.9092 176.37L54.984 171.155C53.8756 169.193 52.8672 167.421 52.0405 165.95C51.5955 165.25 51.2212 164.507 50.9231 163.733C51.4575 164.365 51.9263 165.05 52.3221 165.777C53.1398 167.076 54.239 168.893 55.3928 170.928C56.5465 172.963 57.5458 174.834 58.209 176.215C58.6073 176.94 58.93 177.704 59.172 178.496Z" fill="black"/>
</g>
</g>
<defs>
<filter id="filter0_d_2335_39779" x="0.0937138" y="0.112757" width="494.68" height="532.139" filterUnits="userSpaceOnUse" color-interpolation-filters="sRGB">
<feFlood flood-opacity="0" result="BackgroundImageFix"/>
<feColorMatrix in="SourceAlpha" type="matrix" values="0 0 0 0 0 0 0 0 0 0 0 0 0 0 0 0 0 0 127 0" result="hardAlpha"/>
<feOffset dx="16.1822" dy="16.1822"/>
<feGaussianBlur stdDeviation="22.0347"/>
<feComposite in2="hardAlpha" operator="out"/>
<feColorMatrix type="matrix" values="0 0 0 0 0.4 0 0 0 0 0.227451 0 0 0 0 0.639216 0 0 0 0.07 0"/>
<feBlend mode="normal" in2="BackgroundImageFix" result="effect1_dropShadow_2335_39779"/>
<feBlend mode="normal" in="SourceGraphic" in2="effect1_dropShadow_2335_39779" result="shape"/>
</filter>
<filter id="filter1_d_2335_39779" x="28.0481" y="234.314" width="394.557" height="205.497" filterUnits="userSpaceOnUse" color-interpolation-filters="sRGB">
<feFlood flood-opacity="0" result="BackgroundImageFix"/>
<feColorMatrix in="SourceAlpha" type="matrix" values="0 0 0 0 0 0 0 0 0 0 0 0 0 0 0 0 0 0 127 0" result="hardAlpha"/>
<feOffset dx="1" dy="1"/>
<feGaussianBlur stdDeviation="0.5"/>
<feComposite in2="hardAlpha" operator="out"/>
<feColorMatrix type="matrix" values="0 0 0 0 0.4 0 0 0 0 0.227451 0 0 0 0 0.639216 0 0 0 0.25 0"/>
<feBlend mode="normal" in2="BackgroundImageFix" result="effect1_dropShadow_2335_39779"/>
<feBlend mode="normal" in="SourceGraphic" in2="effect1_dropShadow_2335_39779" result="shape"/>
</filter>
<linearGradient id="paint0_linear_2335_39779" x1="231.251" y1="28" x2="231.251" y2="472" gradientUnits="userSpaceOnUse">
<stop stop-color="#FFE8D7"/>
<stop offset="1" stop-color="white"/>
</linearGradient>
</defs>
</svg>
