<svg width="352" height="433" viewBox="0 0 352 433" fill="none" xmlns="http://www.w3.org/2000/svg">
<path d="M248.003 56.4567H312.868C312.868 56.4567 307.137 46.019 290.435 47.5778C274.492 49.028 273.663 42.4379 265.574 41.6585C257.484 40.8791 250.706 46.9957 248.003 56.4567Z" fill="#E0E0E0"/>
<path d="M78.4621 227.938C78.4621 227.938 71.9607 231.45 81.4217 245.025C90.8826 258.6 97.0386 265.111 97.0386 265.111C97.0386 265.111 98.8342 268.317 96.0521 269.235C93.2701 270.152 86.8477 270.024 86.0584 273.684C85.2396 277.492 88.3472 280.59 94.0889 282.809C99.8306 285.029 112.241 290.485 113.356 290.978C114.471 291.471 115.694 292.902 113.899 293.829C112.103 294.757 98.1831 298.18 100.196 304.681C102.208 311.182 119.256 314.862 121.11 315.296C122.965 315.73 123.488 316.421 123.478 317.408C123.468 318.394 118.683 319.104 114.757 320.239C110.831 321.373 106.49 323.386 107.97 327.046C109.449 330.706 120.163 337.346 143.821 336.408L154.751 335.264L159.408 325.251C168.06 303.221 165.327 290.919 162.368 288.314C159.408 285.71 156.073 289.163 153.716 292.497C151.358 295.832 149.108 300.113 148.171 299.798C147.234 299.482 146.76 298.762 146.958 296.838C147.155 294.914 149.296 277.64 143.811 273.595C138.325 269.55 130.512 281.566 129.013 282.957C127.513 284.349 126.595 282.711 126.497 281.507C126.398 280.304 125.362 266.798 125.116 260.622C124.869 254.446 123.004 250.52 119.147 250.046C115.29 249.573 113.445 255.689 111.659 258.018C109.874 260.346 107.437 257.593 107.437 257.593C107.437 257.593 103.303 249.642 93.6252 236.245C83.9472 222.847 78.3338 228.037 78.3338 228.037" fill="#EBEBEB"/>
<path d="M155.665 337.759C148.571 327.894 136.269 310.136 125.624 294.953C114.98 279.77 105.341 266.038 98.2971 256.133C94.7751 251.2 91.9339 247.195 89.9509 244.423L87.6819 241.226L87.0998 240.398C86.9715 240.21 86.9124 240.102 86.9124 240.102C86.9124 240.102 86.9913 240.19 87.1294 240.378L87.741 241.187L90.0594 244.344C92.0325 247.076 94.9921 251.062 98.4944 255.995C105.588 265.86 115.266 279.573 125.901 294.756C136.535 309.939 148.818 327.716 155.862 337.611" fill="#E0E0E0"/>
<path d="M95.0345 274.237C95.3005 274.248 95.5648 274.285 95.8238 274.346C96.3269 274.435 97.0471 274.583 97.9449 274.78C99.7305 275.165 102.177 275.766 104.851 276.477L111.756 278.322L113.848 278.874C114.109 278.919 114.365 278.995 114.608 279.101C114.342 279.098 114.077 279.064 113.818 279.002C113.315 278.914 112.595 278.766 111.697 278.558C109.921 278.154 107.475 277.572 104.791 276.812L97.8857 275.017L95.7942 274.474C95.5315 274.43 95.2759 274.35 95.0345 274.237Z" fill="#E0E0E0"/>
<path d="M115.26 278.351C115.161 278.351 116.177 273.221 117.519 266.947C118.861 260.672 120.035 255.592 120.123 255.611C120.212 255.631 119.206 260.732 117.854 267.016C116.503 273.3 115.348 278.351 115.26 278.351Z" fill="#E0E0E0"/>
<path d="M130.549 302.352C130.633 302.096 130.749 301.851 130.894 301.622L131.94 299.649C132.818 298.012 134.031 295.703 135.264 293.178C136.497 290.652 137.563 288.245 138.303 286.578L139.191 284.555C139.276 284.295 139.399 284.049 139.556 283.825C139.501 284.092 139.422 284.353 139.319 284.605C139.141 285.098 138.875 285.798 138.53 286.666C137.839 288.403 136.823 290.77 135.57 293.335C134.317 295.9 133.074 298.15 132.147 299.768C131.673 300.567 131.279 301.218 131.002 301.652C130.874 301.899 130.722 302.134 130.549 302.352Z" fill="#E0E0E0"/>
<path d="M111.452 302.707C111.693 302.641 111.942 302.611 112.192 302.618L114.234 302.5C115.95 302.411 118.328 302.322 120.952 302.234C123.576 302.145 125.954 302.096 127.68 302.076H129.723C129.972 302.054 130.223 302.054 130.472 302.076C130.228 302.143 129.976 302.176 129.723 302.174L127.69 302.293C125.964 302.372 123.586 302.47 120.962 302.549C118.338 302.628 115.96 302.687 114.234 302.707H112.202C111.953 302.736 111.701 302.736 111.452 302.707Z" fill="#E0E0E0"/>
<path d="M122.253 325.704C122.577 325.632 122.908 325.595 123.24 325.595L125.854 325.438C128.054 325.319 131.103 325.171 134.467 325.033C137.831 324.895 140.879 324.796 143.079 324.737L145.694 324.678C146.022 324.652 146.352 324.652 146.68 324.678C146.355 324.741 146.025 324.777 145.694 324.786L143.079 324.944C140.879 325.063 137.831 325.211 134.467 325.349C131.103 325.487 128.054 325.586 125.854 325.645L123.24 325.704C122.912 325.731 122.582 325.731 122.253 325.704Z" fill="#E0E0E0"/>
<path d="M146.028 324.519C146.139 324.195 146.278 323.882 146.442 323.582L147.685 321.066C148.731 318.945 150.151 316.015 151.631 312.73C153.111 309.444 154.394 306.445 155.301 304.255L156.377 301.671C156.495 301.351 156.636 301.041 156.801 300.743C156.732 301.081 156.63 301.412 156.495 301.73C156.278 302.361 155.952 303.259 155.508 304.354C154.66 306.564 153.417 309.592 151.927 312.878C150.438 316.163 148.968 319.093 147.873 321.184C147.32 322.23 146.886 323.079 146.531 323.651C146.385 323.952 146.217 324.242 146.028 324.519Z" fill="#E0E0E0"/>
<path d="M237.766 178.926C226.026 165.756 227.151 146.745 231.6 130.477C232.34 127.755 232.725 124.795 234.56 122.703C236.395 120.612 239.867 119.685 242.048 121.421C243.853 122.861 244.179 125.436 244.849 127.666C245.741 130.631 247.451 133.284 249.782 135.321C251.311 136.643 253.334 137.699 255.287 137.166C257.961 136.416 259.006 133.22 259.638 130.487C260.802 125.403 261.972 120.319 263.15 115.235C263.637 112.476 264.56 109.813 265.882 107.343C267.343 104.955 269.829 103.002 272.551 102.894C275.274 102.785 278.165 105.034 278.076 107.826C277.913 108.979 277.672 110.119 277.356 111.24C277.208 111.799 277.227 112.39 277.411 112.939C277.595 113.488 277.936 113.971 278.392 114.328C279.378 114.91 280.671 114.397 281.677 113.785C285.14 111.703 287.892 108.616 290.507 105.508C293.121 102.4 295.706 99.2138 298.971 96.8165C302.237 94.4192 306.321 92.8703 310.277 93.5807C314.233 94.291 317.814 97.6847 317.893 101.739C317.972 105.794 314.815 109.188 311.638 111.713C306.944 115.463 301.735 118.516 296.169 120.78C295.118 121.073 294.188 121.695 293.516 122.555C292.529 124.233 293.782 126.442 295.429 127.488C297.304 128.642 299.553 128.958 301.625 129.708C303.697 130.458 305.768 131.947 306.094 134.137C306.548 137.186 303.529 139.554 300.786 140.925C295.294 143.654 289.375 145.423 283.285 146.154C281.105 146.41 278.846 146.558 276.892 147.574C274.939 148.59 273.39 150.82 273.933 152.971C274.475 155.121 276.813 156.335 279.003 156.433C281.194 156.532 283.344 155.851 285.525 155.575C289.599 155.042 294.403 156.443 296.002 160.251C296.476 161.545 296.643 162.932 296.489 164.302C296.335 165.672 295.864 166.987 295.114 168.144C293.612 170.425 291.666 172.381 289.392 173.895C281.771 179.613 272.771 183.208 263.308 184.313C253.916 185.3 245.668 184.175 237.786 178.976" fill="#F5F5F5"/>
<path d="M240.155 180.503C242.286 174.15 240.056 177.336 244.446 169.651C249.287 161.356 254.6 153.345 260.359 145.658C261.872 143.606 263.368 141.584 264.848 139.591C266.328 137.618 267.807 135.645 269.346 133.78C272.34 130.255 275.525 126.895 278.886 123.718C282.073 120.659 285.21 117.877 288.17 115.293C291.129 112.708 293.931 110.36 296.575 108.338C300.738 105.111 305.148 102.218 309.765 99.6855C311.393 98.7878 312.725 98.1367 313.563 97.7124L314.55 97.229L314.895 97.0811C314.794 97.1575 314.684 97.2236 314.57 97.2784L313.583 97.8111C312.715 98.2748 311.442 98.9555 309.834 99.873C305.272 102.471 300.912 105.409 296.792 108.663C294.168 110.705 291.386 113.063 288.446 115.648C285.506 118.233 282.389 121.034 279.212 124.093C275.875 127.269 272.711 130.622 269.731 134.136C268.192 135.971 266.772 137.934 265.262 139.927L260.773 145.994C255.034 153.654 249.724 161.628 244.87 169.878C240.47 177.544 242.68 174.308 240.51 180.622" fill="#E0E0E0"/>
<path d="M269.536 133.8C269.496 133.393 269.496 132.983 269.536 132.577C269.536 131.787 269.664 130.604 269.793 129.252C270.049 126.44 270.542 122.583 271.095 118.331C271.647 114.079 272.082 110.222 272.289 107.42C272.397 106.019 272.476 104.894 272.525 104.105C272.522 103.697 272.565 103.29 272.654 102.892C272.718 103.296 272.742 103.706 272.723 104.115C272.723 104.894 272.723 106.088 272.654 107.44C272.535 110.261 272.16 114.138 271.598 118.4C271.036 122.662 270.543 126.391 270.158 129.252C269.99 130.564 269.852 131.669 269.743 132.557C269.721 132.978 269.651 133.395 269.536 133.8Z" fill="#E0E0E0"/>
<path d="M306.035 135.547C305.554 135.544 305.075 135.491 304.605 135.389C303.687 135.251 302.356 135.054 300.708 134.856C297.423 134.442 292.816 134.037 287.804 133.801C282.792 133.564 278.166 133.564 274.841 133.653C273.184 133.653 271.881 133.751 270.895 133.791C270.412 133.831 269.927 133.831 269.445 133.791C269.917 133.674 270.399 133.601 270.885 133.574C271.812 133.475 273.154 133.357 274.831 133.278C278.156 133.09 282.723 133.041 287.834 133.278C292.163 133.465 296.479 133.87 300.767 134.491C302.405 134.738 303.727 134.994 304.644 135.182C305.119 135.259 305.585 135.381 306.035 135.547Z" fill="#E0E0E0"/>
<path d="M245.027 169.099C244.955 168.947 244.908 168.783 244.889 168.616C244.81 168.231 244.712 167.767 244.583 167.205C244.337 165.982 244.011 164.245 243.646 161.996C242.906 157.586 242.078 151.46 241.249 144.682C240.42 137.905 239.651 131.778 239.009 127.359C238.694 125.208 238.427 123.412 238.23 122.13C238.151 121.558 238.082 121.084 238.023 120.699C238.007 120.532 238.007 120.364 238.023 120.196C238.094 120.35 238.144 120.513 238.171 120.68L238.467 122.09C238.723 123.314 239.039 125.05 239.404 127.299C240.144 131.709 240.973 137.836 241.801 144.613C242.63 151.391 243.4 157.517 244.041 161.937C244.366 164.088 244.623 165.883 244.82 167.175C244.909 167.738 244.968 168.211 245.027 168.596C245.049 168.763 245.049 168.932 245.027 169.099Z" fill="#E0E0E0"/>
<path d="M295.115 165.124C294.953 165.176 294.783 165.202 294.612 165.203L293.152 165.341L287.785 165.775C283.257 166.14 277.002 166.761 270.097 167.373C263.191 167.985 256.916 168.547 252.339 168.823C250.07 168.961 248.235 169.05 246.962 169.09H245.502C245.332 169.115 245.159 169.115 244.989 169.09C245.153 169.042 245.322 169.016 245.492 169.011L246.952 168.873L252.319 168.439C256.847 168.074 263.102 167.452 270.008 166.84C276.914 166.229 283.178 165.666 287.766 165.4C290.044 165.262 291.879 165.163 293.152 165.124H294.612C294.779 165.103 294.948 165.103 295.115 165.124Z" fill="#E0E0E0"/>
<path d="M333.968 265.525C333.933 265.686 333.88 265.841 333.81 265.989L333.268 267.301C332.764 268.485 332.054 270.152 331.166 272.234L323.56 289.824L323.511 289.923H323.402L299.508 293.869L291.497 295.181L291.132 295.24L291.221 294.885C293.194 287.2 294.96 280.087 296.489 274.118L296.598 274.345L282.559 268.071L278.682 266.305L277.696 265.831C277.577 265.781 277.465 265.718 277.36 265.644L277.715 265.772L278.751 266.196L282.697 267.863L296.805 273.98L296.963 274.049V274.207C295.463 280.225 293.697 287.308 291.783 295.003L291.507 294.707L299.518 293.385L323.422 289.498L323.254 289.627L331.018 272.115C331.955 270.024 332.705 268.367 333.238 267.183L333.83 265.89C333.869 265.766 333.915 265.644 333.968 265.525Z" fill="#E0E0E0"/>
<path d="M294.297 292.407L293.636 294.123L294.682 295.643L292.847 295.554L291.732 297.014L291.249 295.238L289.513 294.626L291.052 293.62L291.101 291.785L292.531 292.939L294.297 292.407Z" fill="#E0E0E0"/>
<path d="M277.89 264.537L277.564 265.396L278.077 266.145L277.17 266.096L276.617 266.826L276.371 265.948L275.512 265.642L276.272 265.139L276.302 264.222L277.012 264.794L277.89 264.537Z" fill="#E0E0E0"/>
<path d="M324.228 288.768L323.902 289.626L324.415 290.376L323.507 290.336L322.955 291.066L322.708 290.178L321.85 289.883L322.61 289.379L322.629 288.462L323.35 289.034L324.228 288.768Z" fill="#E0E0E0"/>
<path d="M297.483 273.388L297.158 274.236L297.681 274.996L296.763 274.947L296.211 275.677L295.974 274.789L295.106 274.493L295.875 273.99L295.895 273.072L296.605 273.644L297.483 273.388Z" fill="#E0E0E0"/>
<path d="M335.079 264.666L334.754 265.524L335.277 266.274L334.359 266.235L333.807 266.965L333.57 266.077L332.702 265.771L333.471 265.278L333.491 264.36L334.201 264.933L335.079 264.666Z" fill="#E0E0E0"/>
<path d="M36.0586 336.467H87.714C87.714 336.467 83.1463 328.15 69.8477 329.363C57.1509 330.518 56.5096 325.269 50.0478 324.628C43.5859 323.987 38.2191 328.929 36.0586 336.467Z" fill="#E0E0E0"/>
<path d="M46.3186 133.122H97.9641C97.9641 133.122 93.3964 124.815 80.0978 126.019C67.4109 127.183 66.7598 121.934 60.3078 121.293C53.8558 120.652 48.4693 125.594 46.3186 133.122Z" fill="#F5F5F5"/>
<path d="M308.62 169.042H351.042C351.042 169.042 347.293 162.215 336.372 163.201C325.934 164.188 325.401 159.847 320.104 159.314C314.806 158.782 310.386 162.856 308.62 169.042Z" fill="#F5F5F5"/>
<path d="M223.895 252.788C226.007 236.895 214.829 223.774 200.86 215.891C186.89 208.009 170.681 205.345 155.252 200.984C140.7 196.851 126.228 190.813 115.454 180.198C104.681 169.583 98.2097 153.63 102.077 139.01C103.063 135.34 104.79 131.65 107.947 129.529C111.104 127.408 115.908 127.467 118.266 130.447C123.278 136.8 113.511 148.204 119.628 153.473C121.028 154.696 122.962 155.14 124.412 156.294C128.27 159.382 127.027 165.37 127.569 170.283C128.645 180.001 137.76 186.749 146.708 190.685C158.695 195.953 171.678 198.429 184.384 201.537C197.091 204.645 209.926 208.601 220.511 216.335C231.097 224.07 240.301 236.066 240.242 249.177C240.242 252.837 239.759 257.336 237.46 260.177C235.162 263.018 232.241 263.62 228.927 262.061C225.612 260.503 223.303 258.115 223.915 252.808" fill="#FD652D"/>
<g opacity="0.8">
<path opacity="0.8" d="M223.887 252.788C225.998 236.895 214.821 223.774 200.851 215.891C186.882 208.009 170.673 205.345 155.243 200.984C140.692 196.851 126.219 190.813 115.446 180.198C104.673 169.583 98.2016 153.63 102.069 139.01C103.055 135.34 104.782 131.65 107.939 129.529C111.096 127.408 115.9 127.467 118.258 130.447C123.27 136.8 113.503 148.204 119.619 153.473C121.02 154.696 122.954 155.14 124.404 156.294C128.262 159.382 127.018 165.37 127.561 170.283C128.636 180.001 137.752 186.749 146.7 190.685C158.687 195.953 171.669 198.429 184.376 201.537C197.083 204.645 209.918 208.601 220.503 216.335C231.089 224.07 240.293 236.066 240.234 249.177C240.234 252.837 239.751 257.336 237.452 260.177C235.154 263.018 232.233 263.62 228.919 262.061C225.604 260.503 223.295 258.115 223.907 252.808" fill="white"/>
</g>
<path d="M156.314 126.422C155.81 120.503 160.2 115.403 165.192 112.66C170.184 109.918 175.906 108.793 181.046 106.356C193.822 100.299 201.941 86.0433 202.543 71.4326C203.145 56.8219 196.801 42.2013 186.896 31.4677C182.861 27.1072 177.909 22.5296 177.85 16.5808C177.791 10.3656 183.769 5.47231 189.826 5.55123C195.884 5.63016 201.389 9.66512 204.99 14.7261C208.59 19.787 210.573 25.7951 212.517 31.7144C211.136 29.2283 213.967 26.1601 216.71 26.4265C219.452 26.6929 221.642 28.9718 223.29 31.2408C230.589 41.1504 234.089 53.35 233.155 65.6218C232.167 77.6649 226.713 88.9036 217.864 97.132C208.127 106.011 195.252 110.164 182.763 114.11L156.708 122.328" fill="#FD652D"/>
<g opacity="0.8">
<path opacity="0.8" d="M156.316 126.421C155.813 120.502 160.203 115.401 165.195 112.659C170.187 109.916 175.909 108.792 181.049 106.355C193.824 100.297 201.944 86.0418 202.545 71.4311C203.147 56.8204 196.804 42.1998 186.899 31.4663C182.864 27.1057 177.912 22.5282 177.852 16.5793C177.793 10.3641 183.772 5.47085 189.829 5.54977C195.886 5.62869 201.391 9.66365 204.992 14.7246C208.593 19.7856 210.576 25.7936 212.519 31.7129C211.138 29.2268 213.97 26.1587 216.712 26.425C219.455 26.6914 221.645 28.9703 223.292 31.2393C230.591 41.149 234.092 53.3485 233.158 65.6204C232.169 77.6634 226.715 88.9021 217.867 97.1306C208.129 106.009 195.255 110.163 182.765 114.109L156.711 122.327" fill="white"/>
</g>
<path d="M149.064 2.62951C147.743 3.17459 146.683 4.20882 146.106 5.51639C145.529 6.82396 145.48 8.30385 145.967 9.64725C146.455 10.9906 147.443 12.0938 148.725 12.7264C150.006 13.3591 151.482 13.4724 152.846 13.0427C154.209 12.613 155.353 11.6736 156.04 10.4204C156.727 9.16713 156.904 7.69697 156.533 6.31666C156.163 4.93635 155.273 3.75252 154.051 3.01221C152.828 2.2719 151.367 2.0323 149.972 2.34341" fill="#FD652D"/>
<g opacity="0.8">
<path opacity="0.8" d="M149.067 2.63098C147.745 3.17605 146.686 4.21028 146.109 5.51785C145.532 6.82542 145.482 8.30531 145.97 9.64871C146.457 10.9921 147.445 12.0952 148.727 12.7279C150.008 13.3606 151.485 13.4739 152.848 13.0442C154.211 12.6145 155.356 11.675 156.043 10.4218C156.73 9.16859 156.906 7.69843 156.536 6.31812C156.165 4.93781 155.275 3.75399 154.053 3.01368C152.83 2.27337 151.369 2.03377 149.974 2.34488" fill="white"/>
</g>
<path d="M181.197 382.763C178.001 376.144 180.793 367.886 185.883 362.579C190.974 357.271 197.919 354.242 204.628 351.283C219.485 344.732 235.211 336.938 242.758 322.574C245.303 317.73 246.753 312.403 248.184 307.115C250.956 296.895 253.56 285.283 247.986 276.276C246.378 273.681 243.971 271.343 240.972 270.85C237.549 270.238 234.066 272.123 231.935 274.875C229.96 277.751 228.772 281.095 228.492 284.573C227.664 291.114 228.354 297.773 227.664 304.304C226.973 310.835 224.595 317.809 219.229 321.539C212.648 326.126 203.266 325.1 196.883 329.944C191.724 333.89 189.761 340.638 185.735 345.729C182.342 349.981 177.596 352.881 173.256 356.156C168.915 359.432 164.712 363.417 163.232 368.656C162.456 371.394 162.486 374.298 163.318 377.02C164.15 379.742 165.75 382.166 167.925 384.002C170.1 385.837 172.759 387.007 175.582 387.37C178.405 387.733 181.272 387.274 183.841 386.049" fill="#FD652D"/>
<g opacity="0.8">
<path opacity="0.8" d="M181.193 382.766C177.997 376.147 180.788 367.889 185.879 362.582C190.97 357.274 197.915 354.245 204.623 351.286C219.481 344.735 235.206 336.941 242.753 322.577C245.299 317.733 246.749 312.406 248.179 307.118C250.951 296.898 253.556 285.286 247.982 276.279C246.374 273.684 243.967 271.346 240.968 270.853C237.544 270.241 234.062 272.126 231.931 274.878C229.955 277.754 228.768 281.098 228.488 284.576C227.659 291.117 228.35 297.776 227.659 304.307C226.969 310.838 224.591 317.812 219.224 321.542C212.644 326.129 203.262 325.103 196.879 329.947C191.719 333.893 189.756 340.641 185.731 345.732C182.337 349.984 177.592 352.884 173.251 356.159C168.91 359.435 164.708 363.42 163.228 368.659C162.452 371.397 162.481 374.301 163.314 377.023C164.146 379.745 165.746 382.169 167.921 384.005C170.096 385.84 172.754 387.01 175.577 387.373C178.4 387.736 181.268 387.277 183.837 386.052" fill="white"/>
</g>
<path d="M82.4227 48.3466C79.7959 46.3963 77.6723 43.8476 76.228 40.912C74.7837 37.9764 74.0605 34.7387 74.1183 31.4676C74.1762 28.1964 75.0135 24.9863 76.5608 22.1037C78.108 19.221 80.3205 16.749 83.0146 14.8929C86.0532 12.8113 89.6442 11.5288 92.3473 8.97364C94.7446 6.74405 96.2935 3.65617 98.9868 1.78174C100.668 0.589794 102.685 -0.0339683 104.745 0.00142727C106.806 0.0368228 108.801 0.729524 110.44 1.9785C112.079 3.22748 113.275 4.9674 113.856 6.94449C114.436 8.92158 114.37 11.0324 113.667 12.9691C112.433 16.4319 109.326 18.9673 108.024 22.4005C106.623 26.1099 107.53 30.2928 107.037 34.1798C106.714 36.5998 105.851 38.9161 104.511 40.957C103.171 42.9979 101.389 44.711 99.2965 45.9694C97.2043 47.2277 94.8557 47.999 92.4248 48.2261C89.994 48.4532 87.5431 48.1302 85.2541 47.2811" fill="#FD652D"/>
<g opacity="0.8">
<path opacity="0.8" d="M82.4244 48.3466C79.7976 46.3963 77.674 43.8476 76.2297 40.912C74.7854 37.9764 74.0622 34.7387 74.12 31.4676C74.1779 28.1964 75.0152 24.9863 76.5625 22.1037C78.1097 19.221 80.3222 16.749 83.0163 14.8929C86.0549 12.8113 89.6459 11.5288 92.3491 8.97364C94.7463 6.74405 96.2952 3.65617 98.9885 1.78174C100.669 0.589794 102.687 -0.0339683 104.747 0.00142727C106.807 0.0368228 108.802 0.729524 110.441 1.9785C112.08 3.22748 113.277 4.9674 113.858 6.94449C114.438 8.92158 114.372 11.0324 113.668 12.9691C112.435 16.4319 109.327 18.9673 108.025 22.4005C106.624 26.1099 107.532 30.2928 107.039 34.1798C106.716 36.5998 105.852 38.9161 104.512 40.957C103.172 42.9979 101.39 44.711 99.2982 45.9694C97.206 47.2277 94.8574 47.999 92.4265 48.2261C89.9957 48.4532 87.5449 48.1302 85.2558 47.2811" fill="white"/>
</g>
<path d="M82.7955 27.1958H94.9201V52.1849C94.9201 52.8858 94.782 53.5799 94.5138 54.2274C94.2456 54.8749 93.8525 55.4633 93.3569 55.9589C92.8612 56.4545 92.2729 56.8477 91.6253 57.1159C90.9778 57.3841 90.2838 57.5221 89.5829 57.5221H88.1425C86.727 57.5221 85.3695 56.9598 84.3686 55.9589C83.3676 54.958 82.8053 53.6005 82.8053 52.1849V27.1958H82.7955Z" fill="#FD652D"/>
<path d="M82.7955 27.1955L88.8528 16.0771L94.9201 27.1955H82.7955Z" fill="#FFBE9D"/>
<path d="M86.4574 20.4771C86.4574 20.4771 88.3022 23.2493 91.2619 20.4771L88.8646 16.0771L86.4574 20.4771Z" fill="#FD652D"/>
<path d="M95.0897 50.9713C93.0443 51.2185 90.9824 51.3009 88.9238 51.2179C86.8685 51.301 84.8098 51.2186 82.7678 50.9713C84.8098 50.724 86.8685 50.6415 88.9238 50.7247C90.9824 50.6417 93.0443 50.7241 95.0897 50.9713Z" fill="#263238"/>
<path d="M94.9211 49.1061C92.9186 49.3532 90.8993 49.4357 88.8834 49.3527C86.8675 49.4357 84.8482 49.3532 82.8458 49.1061C84.8492 48.8714 86.8678 48.7923 88.8834 48.8693C90.8991 48.7923 92.9176 48.8714 94.9211 49.1061Z" fill="#263238"/>
<path d="M86.358 27.373C86.4863 27.373 86.6047 32.2071 86.6047 38.1757C86.6047 44.1443 86.4863 49.0277 86.358 49.0277C86.2298 49.0277 86.1114 44.1837 86.1114 38.1757C86.1114 32.1677 86.2199 27.373 86.358 27.373Z" fill="#FAFAFA"/>
<path d="M91.2648 27.373C91.4029 27.373 91.5115 32.2071 91.5115 38.1757C91.5115 44.1443 91.4029 49.0277 91.2648 49.0277C91.1267 49.0277 91.0182 44.1837 91.0182 38.1757C91.0182 32.1677 91.1267 27.373 91.2648 27.373Z" fill="#FAFAFA"/>
<path d="M188.142 368.835L243.22 371.193L244.552 374.399L208.445 433L143.274 431.096L188.142 368.835Z" fill="#263238"/>
<path d="M140.801 425.384L206.357 429.132L240.61 375.987L216.558 377.941L155.698 399.368L140.801 425.384Z" fill="#E0E0E0"/>
<path d="M131.591 421.446L191.77 422.433C189.274 414.728 195.164 403.886 203.264 400.235C208.63 397.818 218.723 394.681 223.932 392.008C233.797 386.927 242.775 377.318 241.995 369.061L217.253 368.242L185.683 367.019C183.039 374.852 177.396 379.972 168.814 383.06C161.138 385.822 152.397 385.812 144.9 388.979C132.844 394.03 127.053 410.397 131.542 421.476" fill="#EBEBEB"/>
<path d="M131.59 421.448C131.59 421.448 131.531 421.32 131.442 421.053L131.028 419.899C130.809 419.255 130.638 418.595 130.515 417.926C130.313 417.022 130.175 416.106 130.1 415.183C129.908 412.622 130.068 410.046 130.574 407.528C131.274 404.137 132.585 400.901 134.441 397.978C134.964 397.133 135.541 396.322 136.168 395.551C136.493 395.166 136.809 394.742 137.154 394.367L138.269 393.233C138.642 392.844 139.044 392.484 139.472 392.157C139.897 391.812 140.311 391.447 140.765 391.122C141.704 390.46 142.694 389.873 143.724 389.366C147.898 387.264 152.88 386.406 158.069 385.419C160.673 384.946 163.357 384.433 166.04 383.713C168.801 382.956 171.466 381.883 173.982 380.516C175.281 379.813 176.519 379.001 177.681 378.089C178.879 377.168 179.98 376.127 180.966 374.982C183.01 372.62 184.565 369.877 185.544 366.912L185.603 366.744H185.771L212.062 367.731C221.188 368.086 230.629 368.332 240.297 368.658L242.053 368.717H242.27V368.934C242.402 370.824 242.133 372.72 241.481 374.498C241.17 375.377 240.801 376.234 240.376 377.063C239.94 377.879 239.46 378.669 238.936 379.431C236.856 382.418 234.342 385.078 231.478 387.323C228.708 389.528 225.684 391.393 222.47 392.878C219.294 394.308 216.078 395.472 212.93 396.636C209.783 397.801 206.666 398.905 203.716 400.188C202.264 400.832 200.901 401.661 199.661 402.654C199.02 403.108 198.487 403.69 197.905 404.193C197.323 404.696 196.82 405.308 196.357 405.93C194.435 408.25 193.002 410.934 192.144 413.822C191.274 416.556 191.222 419.484 191.996 422.247L192.085 422.513H191.809L148.016 421.744L135.872 421.497L132.695 421.408H131.6C131.6 421.408 131.975 421.408 132.695 421.408H135.881L148.026 421.547L191.809 422.158L191.621 422.415C190.811 419.578 190.855 416.565 191.749 413.753C192.608 410.8 194.062 408.053 196.021 405.683C196.485 405.052 197.067 404.509 197.59 403.917C198.113 403.325 198.734 402.802 199.385 402.329C200.648 401.31 202.042 400.463 203.529 399.813C206.488 398.511 209.626 397.396 212.773 396.232C215.92 395.068 219.126 393.894 222.273 392.473C225.444 391.004 228.425 389.155 231.152 386.968C233.978 384.758 236.459 382.138 238.512 379.194C239.027 378.456 239.504 377.692 239.942 376.906C240.355 376.098 240.714 375.264 241.017 374.41C241.646 372.697 241.908 370.872 241.787 369.053L242.024 369.27L240.258 369.22C230.59 368.895 221.148 368.638 212.033 368.234L185.731 367.247L185.958 367.089C184.952 370.108 183.363 372.9 181.282 375.307C180.275 376.472 179.151 377.53 177.928 378.464C176.746 379.392 175.485 380.214 174.159 380.921C171.617 382.303 168.922 383.382 166.129 384.137C163.416 384.877 160.723 385.37 158.118 385.834C152.929 386.761 147.967 387.629 143.853 389.681C142.846 390.177 141.879 390.751 140.962 391.398C140.508 391.714 140.104 392.079 139.68 392.384C139.255 392.708 138.855 393.064 138.486 393.45L137.342 394.584C136.986 394.959 136.681 395.374 136.355 395.758C135.726 396.514 135.15 397.312 134.629 398.146C132.772 401.034 131.458 404.237 130.751 407.597C130.222 410.092 130.039 412.648 130.209 415.193C130.268 416.112 130.393 417.025 130.584 417.926C130.694 418.594 130.852 419.254 131.057 419.899C131.225 420.412 131.343 420.797 131.432 421.073C131.521 421.349 131.59 421.448 131.59 421.448Z" fill="#263238"/>
<path d="M202.641 367.996C202.641 367.996 202.72 367.612 202.779 366.921C202.851 365.95 202.689 364.975 202.305 364.08C201.768 362.745 200.756 361.655 199.464 361.021C198.672 360.653 197.814 360.447 196.941 360.417C196.068 360.386 195.198 360.532 194.382 360.845C193.567 361.158 192.823 361.632 192.194 362.238C191.565 362.845 191.065 363.572 190.723 364.376C190.119 365.685 189.916 367.144 190.141 368.569C190.284 369.527 190.62 370.446 191.128 371.272C191.503 371.864 191.779 372.14 191.749 372.169C191.444 371.959 191.182 371.691 190.98 371.38C190.369 370.568 189.954 369.626 189.766 368.628C189.473 367.131 189.649 365.581 190.269 364.188C190.63 363.324 191.163 362.542 191.835 361.89C192.507 361.238 193.305 360.73 194.179 360.396C195.054 360.062 195.988 359.909 196.923 359.947C197.859 359.985 198.777 360.213 199.622 360.617C200.995 361.313 202.053 362.505 202.582 363.952C202.95 364.892 203.066 365.912 202.917 366.911C202.877 367.183 202.811 367.451 202.72 367.71C202.7 367.917 202.66 367.996 202.641 367.996Z" fill="#263238"/>
<path d="M212.083 367.996C212.034 367.996 212.162 367.612 212.222 366.921C212.289 365.95 212.127 364.976 211.748 364.08C211.206 362.744 210.191 361.656 208.897 361.021C208.105 360.654 207.247 360.449 206.374 360.42C205.502 360.39 204.632 360.536 203.817 360.849C203.002 361.162 202.257 361.635 201.629 362.241C201 362.847 200.499 363.573 200.156 364.376C199.555 365.686 199.355 367.145 199.584 368.569C199.723 369.528 200.059 370.448 200.57 371.272C200.945 371.864 201.222 372.14 201.192 372.169C200.879 371.965 200.613 371.696 200.413 371.38C199.806 370.566 199.391 369.625 199.199 368.628C198.915 367.13 199.094 365.582 199.712 364.188C200.073 363.325 200.605 362.545 201.276 361.894C201.948 361.242 202.745 360.734 203.618 360.401C204.492 360.067 205.424 359.914 206.359 359.951C207.293 359.988 208.21 360.215 209.055 360.617C210.428 361.313 211.486 362.505 212.014 363.951C212.38 364.892 212.499 365.911 212.36 366.911C212.322 367.185 212.253 367.453 212.152 367.71C212.15 367.809 212.126 367.907 212.083 367.996Z" fill="#263238"/>
<path d="M219.223 368.489C219.223 368.489 219.282 368.095 219.302 367.404C219.317 366.43 219.101 365.466 218.67 364.593C218.053 363.293 216.978 362.268 215.652 361.712C214.842 361.391 213.977 361.235 213.106 361.252C212.236 361.269 211.377 361.459 210.581 361.81C208.978 362.545 207.732 363.887 207.118 365.54C206.59 366.882 206.47 368.351 206.773 369.762C206.981 370.716 207.384 371.616 207.956 372.406C208.361 372.968 208.657 373.235 208.627 373.264C208.305 373.078 208.026 372.826 207.809 372.524C207.153 371.746 206.684 370.828 206.437 369.841C206.067 368.363 206.157 366.807 206.694 365.382C207.005 364.499 207.492 363.688 208.127 362.999C208.761 362.31 209.528 361.757 210.383 361.374C211.237 360.991 212.161 360.786 213.097 360.771C214.033 360.756 214.963 360.932 215.829 361.288C217.24 361.903 218.365 363.032 218.976 364.445C219.405 365.369 219.582 366.39 219.489 367.404C219.468 367.679 219.415 367.951 219.331 368.213C219.302 368.401 219.223 368.489 219.223 368.489Z" fill="#263238"/>
<path d="M226.93 368.923C226.93 368.923 226.93 368.528 226.93 367.837C226.897 366.864 226.63 365.913 226.15 365.065C225.468 363.797 224.34 362.827 222.983 362.342C222.157 362.063 221.283 361.953 220.412 362.018C219.542 362.083 218.694 362.322 217.918 362.722C217.143 363.121 216.455 363.672 215.896 364.343C215.338 365.013 214.92 365.789 214.667 366.624C214.208 367.992 214.167 369.465 214.549 370.856C214.808 371.799 215.258 372.679 215.871 373.441C216.305 373.974 216.61 374.22 216.581 374.26C216.25 374.087 215.958 373.848 215.723 373.559C215.029 372.817 214.513 371.926 214.213 370.955C213.758 369.5 213.758 367.941 214.213 366.486C214.479 365.589 214.923 364.755 215.518 364.033C216.113 363.311 216.847 362.716 217.676 362.283C218.511 361.856 219.425 361.603 220.361 361.54C221.297 361.477 222.237 361.606 223.122 361.918C224.559 362.454 225.742 363.511 226.436 364.878C226.914 365.789 227.142 366.81 227.097 367.837C227.088 368.11 227.052 368.381 226.989 368.646C226.979 368.834 226.949 368.923 226.93 368.923Z" fill="#263238"/>
<path d="M234.625 368.747C234.625 368.747 234.625 368.352 234.625 367.661C234.565 366.688 234.271 365.744 233.767 364.909C233.049 363.663 231.897 362.725 230.531 362.275C229.696 362.017 228.818 361.929 227.949 362.018C227.079 362.107 226.237 362.37 225.472 362.792C224.707 363.214 224.034 363.785 223.495 364.473C222.955 365.16 222.56 365.95 222.333 366.793C221.978 367.949 221.919 369.175 222.162 370.36C222.405 371.544 222.942 372.648 223.724 373.571C224.178 374.094 224.493 374.33 224.464 374.36C224.126 374.207 223.826 373.981 223.586 373.699C222.875 372.972 222.336 372.096 222.007 371.134C221.516 369.69 221.478 368.131 221.899 366.665C222.141 365.761 222.562 364.915 223.136 364.176C223.711 363.438 224.427 362.821 225.243 362.364C226.065 361.915 226.971 361.637 227.903 361.549C228.836 361.461 229.777 361.564 230.669 361.851C232.125 362.35 233.339 363.378 234.073 364.731C234.577 365.635 234.832 366.656 234.813 367.691C234.812 367.966 234.782 368.241 234.724 368.51C234.674 368.648 234.645 368.747 234.625 368.747Z" fill="#263238"/>
<path d="M241.117 369.605C241.117 369.605 241.117 369.211 241.117 368.52C241.096 367.546 240.839 366.591 240.368 365.738C239.698 364.468 238.585 363.488 237.24 362.985C236.417 362.695 235.544 362.573 234.673 362.628C233.802 362.682 232.95 362.911 232.17 363.301C231.389 363.692 230.695 364.235 230.129 364.9C229.563 365.564 229.136 366.336 228.874 367.168C228.477 368.309 228.371 369.531 228.565 370.723C228.76 371.916 229.249 373.04 229.989 373.995C230.423 374.538 230.719 374.784 230.7 374.824C230.371 374.648 230.082 374.407 229.851 374.114C229.162 373.365 228.655 372.467 228.371 371.489C227.936 370.028 227.96 368.468 228.44 367.02C228.717 366.127 229.171 365.297 229.774 364.582C230.377 363.867 231.118 363.281 231.952 362.857C232.793 362.441 233.709 362.2 234.645 362.149C235.581 362.098 236.518 362.238 237.398 362.561C238.834 363.114 240.006 364.194 240.674 365.58C241.143 366.493 241.36 367.515 241.305 368.54C241.294 368.813 241.254 369.084 241.187 369.349C241.167 369.516 241.137 369.615 241.117 369.605Z" fill="#263238"/>
<path d="M269.536 167.513C266.811 167.431 264.084 167.556 261.378 167.887C253.167 168.944 245.625 172.967 240.174 179.197C234.723 185.428 231.738 193.437 231.782 201.716C231.752 207.163 232.459 212.588 233.883 217.846C238.628 234.676 240.088 249.504 239.546 256.735L255.429 265.269C255.429 265.269 262.779 254.703 269.882 250.145C276.985 245.588 300.622 233.374 309.985 220.894C316.013 212.824 317.177 196.231 302.793 181.768C293.946 172.927 282.04 167.824 269.536 167.513Z" fill="#FD652D"/>
<path d="M231.951 275.104L246.295 282.859L236.963 294.717L227.393 290.376L231.951 275.104Z" fill="#455A64"/>
<path d="M232.648 275.589C232.52 275.539 233.941 271.277 235.825 266.078C237.709 260.879 239.337 256.686 239.465 256.736C239.594 256.785 238.173 261.037 236.289 266.246C234.404 271.455 232.777 275.628 232.648 275.589Z" fill="#263238"/>
<path d="M245.395 282.297C245.276 282.228 247.526 278.203 250.406 273.309C253.287 268.416 255.724 264.539 255.852 264.539C255.98 264.539 253.721 268.633 250.831 273.526C247.94 278.42 245.503 282.346 245.395 282.297Z" fill="#263238"/>
<g opacity="0.4">
<path opacity="0.4" d="M274.27 167.965C273.629 167.965 265.737 177.239 262.244 183.493C250.494 204.536 249.962 225.007 246.706 248.882C246.242 252.295 244.546 259.645 244.575 259.477C246.312 260.838 252.152 263.551 252.152 263.551C252.152 263.551 257.667 256.902 259.857 253.558C268.617 240.17 278.137 229.723 285.645 215.586C293.153 201.449 300.374 188.949 293.429 174.486C293.429 174.486 281.373 167.561 274.27 167.965Z" fill="black"/>
</g>
<path d="M309.985 223.005C309.902 222.861 309.832 222.709 309.778 222.551C309.649 222.255 309.491 221.792 309.225 221.219C308.482 219.563 307.552 217.998 306.453 216.553C304.766 214.322 302.707 212.4 300.366 210.871C297.365 208.882 293.945 207.616 290.372 207.171H290.254L290.195 207.092C288.277 204.458 286.135 201.996 283.792 199.732C281.227 197.257 278.27 195.224 275.041 193.715C271.797 192.247 268.25 191.57 264.693 191.741C261.451 191.868 258.314 192.915 255.646 194.76L255.498 194.859L255.37 194.741C252.658 192.361 249.285 190.864 245.702 190.449C242.918 190.132 240.099 190.491 237.484 191.495C235.79 192.143 234.201 193.037 232.768 194.149C232.275 194.543 231.9 194.859 231.663 195.076C231.546 195.194 231.417 195.3 231.278 195.392C231.383 195.264 231.495 195.142 231.614 195.027C231.841 194.79 232.196 194.454 232.679 194.04C234.093 192.865 235.685 191.923 237.395 191.248C240.044 190.186 242.912 189.786 245.751 190.084C249.421 190.48 252.882 191.991 255.666 194.415H255.389C258.122 192.509 261.343 191.424 264.673 191.288C268.301 191.102 271.922 191.778 275.239 193.261C278.518 194.795 281.519 196.865 284.118 199.387C286.48 201.673 288.632 204.166 290.55 206.836L290.402 206.747C294.036 207.208 297.511 208.519 300.543 210.575C302.903 212.148 304.97 214.121 306.65 216.405C307.736 217.881 308.638 219.485 309.334 221.18C309.58 221.762 309.718 222.236 309.827 222.541C309.889 222.692 309.942 222.847 309.985 223.005Z" fill="#263238"/>
<path d="M280.449 243.97C280.205 242.748 279.74 241.581 279.077 240.527C278.301 239.32 277.258 238.307 276.029 237.567C274.457 236.594 272.612 236.158 270.771 236.324H270.573V236.127C270.188 233.765 269.205 231.541 267.719 229.666C266.232 227.791 264.291 226.327 262.079 225.413C260.119 224.646 258.013 224.326 255.913 224.476C253.985 224.616 252.106 225.157 250.399 226.064L250.251 226.143L250.132 226.015C248.655 224.467 246.724 223.43 244.617 223.055C242.982 222.738 241.296 222.791 239.685 223.213C238.255 223.611 236.915 224.281 235.739 225.186C235.739 225.186 235.798 225.097 235.946 224.969C236.094 224.841 236.311 224.634 236.617 224.407C237.517 223.769 238.517 223.286 239.576 222.976C241.227 222.5 242.966 222.412 244.657 222.72C246.86 223.083 248.886 224.153 250.428 225.768L250.162 225.719C251.916 224.787 253.844 224.229 255.825 224.081C257.996 223.929 260.174 224.266 262.198 225.068C264.632 226.051 266.741 227.699 268.285 229.823C269.673 231.688 270.581 233.867 270.929 236.166L270.702 235.989C272.627 235.838 274.55 236.319 276.177 237.36C277.428 238.137 278.482 239.194 279.255 240.448C279.749 241.25 280.103 242.131 280.301 243.052C280.351 243.293 280.387 243.537 280.409 243.782C280.428 243.844 280.441 243.906 280.449 243.97Z" fill="#263238"/>
<path d="M243.526 286.599C243.526 286.599 243.368 286.401 243.003 286.244C242.453 286.077 241.863 286.098 241.326 286.303C240.913 286.432 240.485 286.509 240.053 286.53C239.787 286.527 239.523 286.471 239.279 286.364C239.035 286.257 238.815 286.102 238.633 285.908C237.873 285.109 237.587 283.935 236.867 283.175C236.703 282.988 236.499 282.841 236.27 282.744C236.041 282.646 235.793 282.602 235.545 282.613C235.036 282.668 234.534 282.771 234.045 282.919C233.558 283.058 233.045 283.085 232.546 282.998C232.021 282.868 231.543 282.593 231.168 282.203C230.793 281.814 230.535 281.327 230.424 280.798C230.357 280.579 230.357 280.346 230.424 280.127C230.424 280.127 230.424 280.364 230.592 280.758C230.778 281.303 231.121 281.781 231.579 282.13C231.879 282.369 232.236 282.529 232.615 282.593C233.055 282.653 233.504 282.612 233.927 282.475C234.443 282.309 234.975 282.196 235.515 282.14C235.832 282.121 236.15 282.174 236.444 282.296C236.737 282.417 237 282.603 237.212 282.84C238.05 283.826 238.307 284.912 238.948 285.592C239.232 285.909 239.629 286.101 240.053 286.125C240.45 286.121 240.845 286.064 241.227 285.957C241.836 285.768 242.493 285.81 243.072 286.076C243.486 286.313 243.545 286.599 243.526 286.599Z" fill="#263238"/>
<path d="M245.168 284.27C242.764 283.27 240.428 282.117 238.173 280.817C235.837 279.66 233.573 278.362 231.396 276.93C233.799 277.935 236.139 279.088 238.4 280.383C240.732 281.54 242.992 282.838 245.168 284.27Z" fill="#263238"/>
<path d="M242.321 287.91C242.321 287.91 242.124 288.009 241.779 288.167C241.601 288.246 241.404 288.364 241.128 288.483C240.811 288.593 240.475 288.637 240.141 288.611C239.275 288.563 238.446 288.242 237.773 287.693C237.38 287.36 237.073 286.937 236.876 286.46C236.715 285.994 236.478 285.557 236.175 285.168C235.819 284.868 235.404 284.647 234.957 284.518C234.511 284.389 234.041 284.355 233.581 284.418C232.741 284.516 231.891 284.436 231.085 284.181C230.532 283.971 230.081 283.558 229.822 283.027C229.664 282.642 229.723 282.396 229.743 282.406C229.763 282.415 229.802 282.623 229.999 282.938C230.285 283.376 230.714 283.7 231.213 283.856C231.98 284.049 232.779 284.085 233.561 283.964C234.088 283.887 234.625 283.924 235.136 284.074C235.647 284.224 236.119 284.483 236.52 284.832C236.854 285.264 237.114 285.747 237.29 286.263C237.457 286.681 237.716 287.056 238.05 287.358C238.647 287.859 239.377 288.174 240.151 288.266C240.679 288.313 241.211 288.218 241.69 287.989C242.094 287.881 242.321 287.881 242.321 287.91Z" fill="#263238"/>
<path d="M134.002 195.777L158.813 192.097L146.975 175.326L140.621 175.701C138.522 175.822 136.497 176.524 134.774 177.73C133.051 178.936 131.697 180.597 130.865 182.528C129.964 184.622 129.713 186.939 130.144 189.177L134.002 195.777Z" fill="#FD652D"/>
<path opacity="0.4" d="M134.002 195.777L158.813 192.097L146.975 175.326L140.621 175.701C138.522 175.822 136.497 176.524 134.774 177.73C133.051 178.936 131.697 180.597 130.865 182.528C129.964 184.622 129.713 186.939 130.144 189.177L134.002 195.777Z" fill="black"/>
<path d="M240.571 223.261C240.827 223.972 241.104 224.81 241.39 225.817C241.626 226.684 241.716 227.584 241.656 228.48C241.617 229.592 241.428 230.694 241.094 231.756C240.689 232.742 241.636 233.65 242.435 233.176C243.235 232.703 244.409 230.138 244.409 226.843C244.409 223.548 247.704 227.494 248.957 228.914C250.209 230.335 254.294 234.548 255.034 234.508C256.119 234.449 256.257 233.275 254.974 231.884C253.692 230.493 250.13 226.063 250.91 225.432C251.689 224.8 257.964 232.13 257.964 232.13C257.964 232.13 259.049 233.916 259.937 233.226C261.614 231.973 254.363 224.682 253.652 224.011C253.169 223.538 253.988 222.827 254.491 223.36C254.994 223.893 260.588 230.809 262.304 229.546C263.617 228.559 256.385 223.498 256.03 221.426C255.675 219.355 261.121 225.836 262.334 224.87C262.798 224.505 263.084 224.169 259.374 220.923C257.599 219.325 250.831 214.59 250.831 214.59L230.469 156.295L214.743 165.302L240.571 223.261Z" fill="#FFBE9D"/>
<path d="M119.352 113.007L96.6019 85.857C96.315 84.9201 95.9418 84.0119 95.4871 83.144C94.9594 82.0609 94.2084 81.1018 93.2833 80.3298C92.3583 79.5579 91.2803 78.9905 90.1203 78.6651C88.68 78.3494 87.0226 78.5073 85.888 77.5602C85.3849 77.136 85.0495 76.5736 84.5167 76.1395C83.984 75.7055 83.106 75.666 82.7607 76.2283C82.672 76.4477 82.6349 76.6845 82.652 76.9205C82.6691 77.1565 82.74 77.3854 82.8593 77.5898C83.7138 79.5985 85.0732 81.3521 86.8055 82.6803C84.6746 83.3314 81.6262 84.318 81.6262 84.318C81.6262 84.318 76.8217 79.0992 74.3553 79.109C71.889 79.1189 76.3284 83.7754 76.3284 83.7754C76.3284 83.7754 72.3823 80.1252 71.1589 81.1512C69.9356 82.1772 73.0728 84.8902 73.0728 84.8902C72.1305 84.2495 71.0046 83.9343 69.8666 83.9924C68.7518 84.1799 67.7948 85.492 68.3966 86.4489C68.6533 86.7938 68.9925 87.0685 69.3832 87.248L75.4405 90.622C76.4098 91.2681 77.519 91.674 78.6764 91.8059C81.7544 91.9045 84.0925 90.0005 87.1607 90.0794C87.1607 90.0794 104.317 126.197 106.053 128.061C107.789 129.926 145.515 132.461 145.515 132.461L167.327 113.668L119.352 113.007Z" fill="#FFBE9D"/>
<path d="M187.695 309.752L210.928 319.864L198.498 348.839C195.795 347.487 196.683 330.094 196.683 330.094L181.529 324.225L187.695 309.752Z" fill="#FD652D"/>
<g opacity="0.6">
<path opacity="0.6" d="M199.262 320.615C199.466 320.371 199.753 320.211 200.068 320.166C200.383 320.12 200.704 320.192 200.969 320.369C201.217 320.565 201.381 320.85 201.427 321.163C201.473 321.477 201.397 321.796 201.215 322.056C201 322.312 200.697 322.479 200.365 322.524C200.033 322.57 199.696 322.491 199.42 322.302C199.178 322.072 199.036 321.757 199.023 321.423C199.01 321.09 199.128 320.765 199.351 320.517" fill="white"/>
</g>
<path opacity="0.6" d="M210.934 319.865L208.546 318.938L197.517 347.064C197.517 347.064 197.517 348.603 198.503 348.84L210.934 319.865Z" fill="white"/>
<path d="M196.322 330.52C196.47 330.569 196.835 329.889 197.595 329.395C198.354 328.902 199.094 328.774 199.094 328.626C199.094 328.478 198.187 328.33 197.289 328.951C196.391 329.573 196.184 330.49 196.322 330.52Z" fill="#263238"/>
<path d="M196.272 334.09C196.4 334.189 196.903 333.676 197.712 333.449C198.521 333.222 199.202 333.36 199.261 333.222C199.32 333.084 198.551 332.64 197.555 332.936C196.558 333.232 196.144 334.031 196.272 334.09Z" fill="#263238"/>
<path d="M199.176 337.385C199.264 337.267 198.633 336.764 197.706 336.793C196.778 336.823 196.186 337.356 196.275 337.464C196.364 337.573 196.956 337.346 197.725 337.336C198.495 337.326 199.097 337.543 199.176 337.385Z" fill="#263238"/>
<path d="M193.015 328.794C193.173 328.794 193.252 328.054 193.657 327.284C194.061 326.515 194.574 325.992 194.485 325.864C194.397 325.736 193.627 326.12 193.173 327.038C192.72 327.955 192.877 328.814 193.015 328.794Z" fill="#263238"/>
<path d="M189.88 326.623C189.939 326.623 190.264 326.13 190.491 325.173C190.627 324.611 190.69 324.034 190.679 323.457C190.674 323.126 190.648 322.797 190.6 322.47C190.578 322.269 190.525 322.072 190.442 321.888C190.382 321.753 190.279 321.641 190.148 321.571C190.018 321.501 189.868 321.477 189.722 321.503C189.592 321.529 189.471 321.585 189.368 321.667C189.265 321.75 189.183 321.856 189.13 321.977C189.05 322.162 188.997 322.358 188.972 322.559C188.814 323.481 188.892 324.428 189.199 325.311C189.525 326.249 189.959 326.702 190.008 326.663C190.057 326.623 189.781 326.101 189.554 325.203C189.432 324.676 189.376 324.136 189.386 323.595C189.394 323.264 189.427 322.934 189.485 322.608C189.534 322.273 189.643 322.006 189.82 321.987C189.998 321.967 189.899 321.987 189.968 322.085C190.021 322.225 190.057 322.371 190.077 322.519C190.133 322.846 190.169 323.175 190.185 323.506C190.215 324.05 190.192 324.595 190.116 325.134C190.004 325.624 189.925 326.122 189.88 326.623Z" fill="#263238"/>
<path d="M190.156 326.534C190.156 326.534 189.821 325.991 188.923 325.548C188.396 325.29 187.829 325.126 187.246 325.064C186.918 325.028 186.587 325.028 186.259 325.064C186.034 325.062 185.812 325.117 185.613 325.224C185.415 325.331 185.247 325.486 185.125 325.676C185.074 325.807 185.061 325.949 185.087 326.087C185.113 326.224 185.178 326.352 185.273 326.455C185.413 326.601 185.572 326.727 185.746 326.83C186.052 327.021 186.384 327.164 186.733 327.254C187.309 327.397 187.912 327.397 188.489 327.254C189.475 327.008 189.91 326.495 189.87 326.465C189.395 326.63 188.911 326.769 188.42 326.879C187.898 326.954 187.366 326.914 186.861 326.761C186.568 326.668 186.289 326.535 186.032 326.366C185.746 326.189 185.549 325.972 185.628 325.873C185.713 325.774 185.819 325.695 185.939 325.642C186.058 325.589 186.188 325.564 186.319 325.567C186.647 325.535 186.977 325.535 187.305 325.567C187.841 325.604 188.369 325.717 188.874 325.903C189.623 326.218 190.107 326.593 190.156 326.534Z" fill="#263238"/>
<path d="M169.807 349.549L179.416 369.684L182.425 387.857C182.476 388.166 182.59 388.461 182.76 388.724C182.93 388.987 183.153 389.212 183.414 389.385C183.675 389.558 183.969 389.676 184.277 389.73C184.586 389.785 184.902 389.775 185.207 389.701C185.562 389.619 185.891 389.453 186.168 389.216C186.444 388.979 186.66 388.678 186.795 388.34C188.561 383.97 194.983 367.84 194.194 366.409C193.286 364.752 185.463 344.498 185.463 344.498L169.807 349.549Z" fill="#FD652D"/>
<path opacity="0.6" d="M185.202 389.654L193.568 364.99L193.963 365.849C194.298 366.593 194.357 367.432 194.131 368.216C193.519 370.318 191.714 376.109 186.85 388.263C186.712 388.613 186.489 388.924 186.202 389.167C185.914 389.409 185.571 389.577 185.202 389.654Z" fill="white"/>
<g opacity="0.6">
<path opacity="0.6" d="M186.443 360.303C186.275 360.598 186.222 360.945 186.295 361.277C186.368 361.609 186.561 361.902 186.838 362.099C187.128 362.278 187.476 362.34 187.81 362.27C188.145 362.2 188.439 362.005 188.633 361.724C188.807 361.409 188.858 361.04 188.778 360.69C188.698 360.339 188.492 360.029 188.199 359.82C187.878 359.664 187.508 359.64 187.169 359.752C186.83 359.865 186.549 360.105 186.384 360.422" fill="white"/>
</g>
<path d="M185.85 378.672C185.104 378.192 184.241 377.922 183.354 377.89C182.467 377.859 181.587 378.068 180.809 378.495C180.809 378.495 180.957 378.179 181.401 377.903C181.995 377.545 182.681 377.37 183.374 377.4C184.063 377.421 184.731 377.64 185.298 378.031C185.732 378.347 185.89 378.633 185.85 378.672Z" fill="#263238"/>
<path d="M185.68 382.048C184.952 381.981 184.22 381.961 183.49 381.989C182.778 382.158 182.076 382.369 181.388 382.62C181.28 382.541 182.069 381.634 183.421 381.495C183.814 381.4 184.225 381.4 184.618 381.496C185.011 381.592 185.375 381.781 185.68 382.048Z" fill="#263238"/>
<path d="M186.982 373.967C185.867 373.772 184.739 373.663 183.608 373.641C182.481 373.767 181.365 373.985 180.273 374.292C181.243 373.602 182.391 373.205 183.58 373.147C184.769 373.089 185.95 373.374 186.982 373.967Z" fill="#263238"/>
<path d="M184.574 367.604C184.574 367.752 183.242 367.782 181.753 368.393C180.263 369.005 179.267 369.863 179.168 369.755C179.732 368.884 180.584 368.238 181.575 367.93C182.505 367.47 183.567 367.355 184.574 367.604Z" fill="#263238"/>
<path d="M181.898 361.617C180.882 361.732 179.886 361.985 178.938 362.367C178.058 362.88 177.255 363.515 176.551 364.251C176.501 364.251 176.6 363.866 176.955 363.393C177.419 362.766 178.029 362.262 178.731 361.923C179.426 361.575 180.194 361.399 180.97 361.41C181.562 361.429 181.908 361.567 181.898 361.617Z" fill="#263238"/>
<path d="M178.465 361.222C178.294 360.994 178.167 360.736 178.09 360.462C177.847 359.725 177.75 358.948 177.804 358.173C177.792 357.603 177.969 357.045 178.307 356.585C178.429 356.451 178.588 356.356 178.763 356.313C178.939 356.269 179.123 356.278 179.294 356.338C179.626 356.501 179.889 356.778 180.034 357.118C180.295 357.823 180.302 358.597 180.054 359.307C179.805 360.017 179.317 360.617 178.672 361.005C178.028 361.375 177.29 361.547 176.549 361.497C175.808 361.448 175.098 361.181 174.509 360.729C174.359 360.611 174.237 360.461 174.152 360.291C174.066 360.12 174.02 359.933 174.016 359.742C174.026 359.553 174.095 359.373 174.214 359.226C174.332 359.079 174.494 358.973 174.677 358.923C175.228 358.812 175.799 358.846 176.334 359.022C177.089 359.219 177.801 359.554 178.435 360.008C178.879 360.314 179.077 360.541 179.057 360.571C178.19 360.034 177.245 359.634 176.255 359.387C175.784 359.247 175.285 359.23 174.805 359.338C174.705 359.363 174.615 359.419 174.549 359.499C174.484 359.579 174.445 359.678 174.44 359.781C174.457 359.902 174.499 360.019 174.561 360.124C174.624 360.229 174.707 360.32 174.805 360.393C175.324 360.77 175.94 360.99 176.58 361.027C177.22 361.064 177.857 360.916 178.416 360.6C178.975 360.275 179.404 359.766 179.631 359.16C179.857 358.554 179.867 357.888 179.659 357.276C179.57 357.033 179.394 356.833 179.165 356.713C179.071 356.67 178.966 356.659 178.865 356.68C178.764 356.701 178.672 356.754 178.603 356.832C178.314 357.22 178.155 357.689 178.149 358.173C178.074 359.2 178.181 360.232 178.465 361.222Z" fill="#263238"/>
<path d="M202.183 312.209L175.832 294.451L184.553 208.829L159.594 194.258L136.775 188.97C136.775 188.97 127.245 208.799 122.964 221.526C113.947 248.527 107.623 258.205 109.073 277.759C109.527 283.954 132.395 299.463 146.838 308.055C147 309.775 147.257 311.484 147.607 313.175C152.54 335.491 167.614 365.166 167.614 365.166L190.502 354.522L183.123 329.217L190.818 333.705L202.183 312.209ZM145.546 256.962L148.624 243.239C147.972 251.97 147.38 261.076 146.956 269.807C145.468 265.71 144.985 261.315 145.546 256.992V256.962Z" fill="#263238"/>
<path d="M167.657 365.166C167.586 365.05 167.527 364.928 167.479 364.801L166.996 363.725L165.23 359.552C163.711 355.912 161.53 350.673 158.916 344.113C156.302 337.552 153.204 329.778 150.037 320.998C149.258 318.798 148.498 316.539 147.778 314.201C147.462 313.017 147.058 311.853 146.851 310.6C146.791 310.294 146.722 309.979 146.673 309.673L146.565 308.735L146.357 306.861C146.081 304.335 145.861 301.764 145.696 299.146C145.617 297.844 145.548 296.522 145.489 295.2C145.43 293.878 145.391 292.527 145.489 291.175C145.884 280.422 146.782 270.221 147.531 260.937C148.281 251.654 149.001 243.308 149.593 236.274C150.185 229.24 150.58 223.577 150.777 219.641C150.905 217.668 150.974 216.148 151.014 215.122L151.083 213.939C151.065 213.808 151.065 213.675 151.083 213.544C151.094 213.675 151.094 213.807 151.083 213.939C151.083 214.235 151.083 214.619 151.083 215.122C151.083 216.158 151.034 217.687 150.945 219.651C150.777 223.597 150.432 229.279 149.909 236.303C149.386 243.328 148.686 251.684 147.936 260.967C147.186 270.25 146.328 280.451 145.963 291.175C145.884 292.517 145.963 293.839 145.963 295.171C145.963 296.502 146.081 297.805 146.17 299.117C146.328 301.747 146.542 304.309 146.811 306.802L147.018 308.686L147.127 309.614C147.176 309.919 147.245 310.215 147.304 310.521C147.502 311.725 147.896 312.899 148.212 314.073C148.913 316.391 149.672 318.65 150.442 320.85C153.539 329.621 156.608 337.424 159.173 343.985C161.738 350.545 163.878 355.823 165.348 359.473C166.069 361.289 166.641 362.699 167.035 363.686C167.213 364.15 167.361 364.515 167.46 364.781C167.558 365.047 167.657 365.166 167.657 365.166Z" fill="#455A64"/>
<path d="M150.035 210.644C150.035 210.644 149.808 210.506 149.443 210.161C148.972 209.63 148.595 209.023 148.328 208.365C147.548 206.189 147.167 203.89 147.204 201.578C147.174 199.271 147.282 196.965 147.529 194.672C147.576 193.725 147.708 192.784 147.924 191.86C148.005 192.806 148.005 193.756 147.924 194.702C147.835 196.448 147.697 198.865 147.737 201.528C147.721 203.792 148.054 206.045 148.723 208.207C148.955 208.841 149.27 209.442 149.66 209.993C149.897 210.398 150.065 210.624 150.035 210.644Z" fill="#455A64"/>
<path d="M140.186 190.272C140.419 191.046 140.486 191.859 140.383 192.66C140.252 194.624 139.599 196.518 138.49 198.144C137.382 199.771 135.859 201.073 134.079 201.914C133.369 202.301 132.587 202.536 131.781 202.604C131.781 202.525 132.639 202.289 133.922 201.618C135.591 200.73 137.019 199.45 138.085 197.888C139.15 196.326 139.821 194.528 140.038 192.65C140.206 191.19 140.097 190.272 140.186 190.272Z" fill="#455A64"/>
<path d="M181.127 240.054C181.127 240.054 181.127 240.143 181.127 240.31C181.127 240.478 181.127 240.764 181.068 241.07C180.989 241.78 180.89 242.767 180.772 244.029C180.486 246.604 180.091 250.264 179.598 254.763C178.611 263.869 177.151 276.368 175.592 290.19C175.037 296.696 175.472 303.249 176.885 309.625C177.503 312.402 178.297 315.137 179.262 317.813C180.15 320.339 180.969 322.696 181.729 324.857C183.218 329.139 184.422 332.621 185.27 335.068C185.665 336.252 185.981 337.179 186.257 337.85L186.494 338.58C186.526 338.658 186.546 338.742 186.553 338.826C186.553 338.826 186.553 338.757 186.444 338.59C186.336 338.422 186.277 338.175 186.168 337.879C185.912 337.218 185.576 336.301 185.181 335.127L181.492 324.975C180.722 322.825 179.874 320.467 178.966 317.951C177.978 315.261 177.164 312.509 176.53 309.714C175.077 303.297 174.621 296.696 175.178 290.141C176.717 276.28 178.256 263.79 179.331 254.724C179.894 250.225 180.318 246.565 180.663 244C180.821 242.757 180.949 241.79 181.048 241.04C181.048 240.734 181.127 240.488 181.156 240.291C181.135 240.213 181.125 240.134 181.127 240.054Z" fill="#455A64"/>
<path d="M136.771 188.821L140.816 178.492L150.04 192.245L137.738 189.176" fill="#FFBE9D"/>
<path d="M233.277 157.776L222.336 133.24C221.024 129.294 218.568 128.682 216.516 126.394L189.1 110.935C169.112 102.746 158.231 130.192 158.231 130.192L140.068 171.627C118.71 178.7 133.833 195.106 133.833 195.106C133.833 195.106 128.023 185.004 133.745 181.364C139.723 177.546 146.353 187.599 152.726 197.149C160.253 208.415 184.7 215.735 184.7 215.735C187.561 212.716 186.761 202.17 189.001 196.507C189.711 194.722 206.64 155.507 206.64 155.507L213.201 171.4C213.201 171.4 221.606 161.534 225.69 159.976C228.152 159.028 230.69 158.292 233.277 157.776Z" fill="#FD652D"/>
<path d="M184.693 175.218C184.442 175.446 184.164 175.641 183.865 175.8C183.068 176.262 182.233 176.655 181.369 176.974C178.495 178.057 175.391 178.379 172.356 177.911C169.321 177.442 166.459 176.199 164.045 174.301C163.316 173.738 162.639 173.11 162.023 172.426C161.778 172.194 161.572 171.924 161.411 171.627C161.48 171.558 162.398 172.673 164.252 174.024C166.663 175.803 169.468 176.97 172.429 177.427C175.389 177.884 178.416 177.617 181.25 176.649C183.441 175.919 184.693 175.139 184.693 175.218Z" fill="#263238"/>
<path d="M139.308 136.289L156.227 137.887L183.298 109.277L167.375 108.725L139.032 111.526C140.523 119.706 140.617 128.078 139.308 136.289Z" fill="#FD652D"/>
<path d="M162.761 121.234C162.72 121.419 162.65 121.595 162.554 121.757L161.873 123.217C161.261 124.539 160.403 126.364 159.367 128.574C157.266 133.112 154.434 139.426 151.475 146.431C148.515 153.435 145.694 159.779 143.582 164.327C142.547 166.605 141.688 168.431 141.077 169.693L140.356 171.134C140.281 171.309 140.185 171.474 140.07 171.627C140.12 171.444 140.186 171.266 140.268 171.094L140.899 169.614L143.267 164.188C145.24 159.542 147.992 153.218 150.991 146.233C153.99 139.249 156.911 132.935 159.051 128.426C160.146 126.177 161.024 124.372 161.705 123.129C162.021 122.556 162.268 122.083 162.465 121.708C162.546 121.54 162.646 121.381 162.761 121.234Z" fill="#263238"/>
<path d="M214.408 129.551C214.457 129.64 213.421 130.182 211.971 131.405C211.139 132.118 210.376 132.908 209.692 133.763C208.858 134.82 208.138 135.961 207.541 137.167C206.969 138.382 206.519 139.651 206.2 140.955C205.951 142.027 205.806 143.121 205.766 144.221C205.696 146.095 205.914 147.259 205.815 147.269C205.711 147.014 205.644 146.744 205.618 146.47C205.543 146.146 205.497 145.816 205.479 145.483C205.429 145.051 205.406 144.616 205.41 144.181C205.403 143.054 205.519 141.929 205.756 140.827C206.052 139.466 206.498 138.143 207.088 136.881C207.705 135.645 208.456 134.481 209.327 133.408C210.048 132.546 210.858 131.762 211.744 131.07C212.078 130.796 212.431 130.545 212.8 130.32C213.065 130.13 213.345 129.962 213.638 129.817C213.879 129.688 214.139 129.598 214.408 129.551Z" fill="#263238"/>
<path d="M219.132 90.2572L203.258 119.932C202.007 122.266 199.919 124.04 197.413 124.896C194.908 125.753 192.171 125.629 189.753 124.549C188.45 123.96 187.281 123.11 186.319 122.051C185.358 120.993 184.623 119.749 184.161 118.395C183.699 117.042 183.519 115.608 183.632 114.183C183.745 112.757 184.15 111.37 184.82 110.106L187.553 104.957C187.553 104.957 180.647 100.488 183.883 93.0294C186.763 86.3801 197.339 67.5963 199.579 63.6304L212.956 69.6187C214.737 70.5474 216.313 71.8236 217.592 73.372C218.872 74.9204 219.827 76.7095 220.403 78.6336C220.979 80.5577 221.163 82.5776 220.945 84.5741C220.726 86.5706 220.11 88.503 219.132 90.2572Z" fill="#FFBE9D"/>
<path d="M187.554 104.848C190.951 106.443 194.745 106.992 198.455 106.426C198.455 106.426 193.779 110.737 186.676 106.762L187.554 104.848Z" fill="#EB996E"/>
<path d="M192.655 81.1219C192.528 81.3972 192.514 81.711 192.616 81.9965C192.717 82.2821 192.926 82.5168 193.197 82.651C193.327 82.7214 193.47 82.7653 193.617 82.7801C193.764 82.7949 193.913 82.7803 194.054 82.7372C194.195 82.694 194.327 82.6232 194.44 82.5288C194.554 82.4344 194.648 82.3183 194.717 82.1873C194.843 81.912 194.857 81.5982 194.756 81.3126C194.654 81.0271 194.446 80.7923 194.174 80.6582C194.044 80.5877 193.901 80.5438 193.754 80.529C193.607 80.5142 193.459 80.5288 193.317 80.572C193.176 80.6151 193.044 80.686 192.931 80.7804C192.817 80.8748 192.723 80.9909 192.655 81.1219Z" fill="#263238"/>
<path d="M192.709 80.1848C192.778 80.3821 193.843 80.1848 194.988 80.6584C196.132 81.1319 196.704 82.1086 196.892 82.0297C197.079 81.9507 196.951 81.6844 196.714 81.2602C196.372 80.6983 195.866 80.2544 195.264 79.9875C194.67 79.7212 194.007 79.6487 193.37 79.7803C192.906 79.8889 192.669 80.0566 192.709 80.1848Z" fill="#263238"/>
<path d="M203.32 86.3696C203.191 86.6446 203.175 86.9594 203.277 87.2456C203.379 87.5319 203.589 87.7666 203.862 87.8988C203.993 87.9689 204.136 88.0122 204.284 88.0263C204.431 88.0404 204.58 88.025 204.721 87.9809C204.863 87.9368 204.994 87.8649 205.107 87.7695C205.221 87.6741 205.314 87.5571 205.382 87.4252C205.505 87.151 205.517 86.8396 205.416 86.5564C205.315 86.2732 205.108 86.0401 204.839 85.906C204.709 85.8341 204.567 85.7892 204.419 85.7736C204.272 85.7581 204.123 85.7724 203.981 85.8157C203.839 85.859 203.708 85.9303 203.594 86.0255C203.48 86.1206 203.387 86.2377 203.32 86.3696Z" fill="#263238"/>
<path d="M203.823 85.4047C203.892 85.602 204.958 85.4047 206.102 85.8782C207.246 86.3518 207.819 87.3383 208.006 87.2594C208.194 87.1805 208.075 86.9141 207.829 86.48C207.485 85.9215 206.979 85.481 206.378 85.2173C205.786 84.9462 205.121 84.8736 204.484 85.0101C204.02 85.1186 203.784 85.3159 203.823 85.4047Z" fill="#263238"/>
<path d="M195.902 92.0034C195.384 91.5522 194.814 91.1646 194.205 90.8491C193.929 90.6814 193.672 90.5038 193.711 90.2868C193.751 90.0698 194.007 89.7837 194.294 89.5074L196.148 87.6725C197.786 86.1508 199.3 84.5014 200.676 82.7397C198.911 84.1186 197.261 85.6397 195.744 87.2877L193.919 89.1523C193.579 89.4219 193.345 89.8026 193.258 90.2276C193.256 90.3488 193.281 90.4689 193.33 90.5796C193.38 90.6903 193.453 90.789 193.544 90.8689C193.686 90.9824 193.842 91.0785 194.007 91.155C194.597 91.5235 195.234 91.809 195.902 92.0034Z" fill="#263238"/>
<path d="M198.898 94.2926C198.72 94.2039 198.168 95.437 196.717 95.8415C195.267 96.246 194.004 95.5258 193.916 95.6935C193.827 95.8613 194.103 96.0586 194.656 96.3249C195.374 96.6613 196.189 96.7312 196.954 96.5222C197.692 96.3266 198.323 95.8481 198.71 95.1904C198.986 94.6971 198.986 94.3321 198.898 94.2926Z" fill="#263238"/>
<path d="M205.527 80.8062C205.527 81.1712 206.701 81.5264 207.964 82.286C209.227 83.0457 210.154 83.8941 210.45 83.6968C210.588 83.5981 210.529 83.2233 210.233 82.7102C209.812 82.0844 209.256 81.5615 208.605 81.1806C207.954 80.7997 207.226 80.5706 206.474 80.5103C205.902 80.5103 205.537 80.6385 205.527 80.8062Z" fill="#263238"/>
<path d="M194.603 77.0973C194.692 77.4524 195.59 77.5314 196.576 77.9358C197.563 78.3403 198.244 78.9224 198.549 78.7054C198.855 78.4883 198.688 78.291 198.441 77.8964C198.116 77.3843 197.635 76.9901 197.07 76.7717C196.51 76.53 195.889 76.4713 195.294 76.604C194.801 76.6829 194.554 76.9 194.603 77.0973Z" fill="#263238"/>
<path d="M214.14 94.707C214.298 94.707 219.912 95.4765 217.485 100.478C215.058 105.48 210.579 102.007 210.579 101.859C210.579 101.711 214.14 94.707 214.14 94.707Z" fill="#FFBE9D"/>
<path d="M213.047 100.705C213.047 100.705 213.106 100.804 213.215 100.952C213.383 101.139 213.616 101.256 213.866 101.277C214.295 101.234 214.704 101.077 215.051 100.822C215.398 100.567 215.67 100.223 215.839 99.8269C216.059 99.4054 216.184 98.9406 216.204 98.4655C216.232 98.2862 216.216 98.1028 216.158 97.931C216.099 97.7592 216 97.6041 215.869 97.4789C215.78 97.4051 215.668 97.3647 215.553 97.3647C215.438 97.3647 215.326 97.4051 215.237 97.4789C215.109 97.5874 215.089 97.696 215.06 97.696C215.03 97.696 214.991 97.5579 215.129 97.3704C215.219 97.26 215.345 97.1835 215.484 97.1534C215.672 97.118 215.867 97.1569 216.027 97.2619C216.211 97.4027 216.356 97.5878 216.449 97.8C216.542 98.0122 216.58 98.2445 216.559 98.4753C216.561 99.0111 216.432 99.5393 216.185 100.014C215.993 100.472 215.671 100.862 215.258 101.138C214.846 101.413 214.362 101.561 213.866 101.563C213.713 101.533 213.568 101.47 213.441 101.38C213.313 101.29 213.206 101.174 213.126 101.04C212.998 100.833 213.028 100.705 213.047 100.705Z" fill="#EB996E"/>
<path d="M217.04 95.8416C216.576 95.6069 216.058 95.4988 215.538 95.5282C215.019 95.5577 214.516 95.7236 214.081 96.0093C213.43 96.5815 212.986 97.3708 212.335 97.9824C212.035 98.3007 211.637 98.5103 211.205 98.5781C210.773 98.646 210.33 98.5683 209.947 98.3573C209.723 98.157 209.555 97.9009 209.462 97.6151C209.368 97.3292 209.352 97.0237 209.414 96.7295C209.547 96.1392 209.791 95.5799 210.135 95.082C211.486 92.8524 213.035 90.7215 214.199 88.3833C215.466 86.0738 216.019 83.4404 215.788 80.8166C215.654 79.5116 215.171 78.2668 214.39 77.2131C213.609 76.1593 212.558 75.3355 211.348 74.8282C209.72 74.256 207.905 74.4238 206.238 73.9502C205.251 73.6539 204.344 73.1378 203.585 72.4407C202.827 71.7435 202.236 70.8834 201.858 69.9251C201.661 69.5386 201.444 69.1631 201.206 68.8005C201.266 68.6821 201.858 67.6758 202.44 67.4785C206.84 65.9888 212.788 67.6955 216.429 70.5664C218.287 72.0103 219.808 73.8425 220.885 75.935C221.961 78.0274 222.569 80.3297 222.664 82.6811C222.713 87.3179 219.793 92.4282 217.08 95.8811" fill="#263238"/>
<path d="M217.091 95.2982C218.482 92.9305 220.731 91.2237 222.448 89.0928C224.165 86.9619 225.408 83.9529 224.125 81.5063C223.711 80.6677 223.04 79.9673 222.695 79.0991C222.421 78.1978 222.256 77.2672 222.201 76.3269C221.979 74.89 221.433 73.5222 220.606 72.3262C219.779 71.1302 218.692 70.137 217.426 69.4211C215.67 68.4346 213.648 68.04 211.862 67.1028C209.051 65.6229 206.989 62.8803 203.97 61.7064C203.495 61.4743 202.975 61.3456 202.446 61.3286C201.918 61.3116 201.391 61.4067 200.902 61.6077C200.668 61.7216 200.46 61.8835 200.293 62.083C200.125 62.2824 200.002 62.5148 199.93 62.7652C199.858 63.0155 199.84 63.2781 199.877 63.5359C199.913 63.7937 200.004 64.041 200.142 64.2615C200.084 64.0343 199.976 63.8225 199.828 63.6412C199.679 63.4598 199.492 63.3133 199.281 63.2117C199.069 63.1102 198.838 63.0562 198.603 63.0535C198.369 63.0508 198.136 63.0994 197.923 63.196C197.503 63.4249 197.16 63.7726 196.937 64.1956C196.714 64.6186 196.621 65.098 196.67 65.5736C196.785 66.5232 197.157 67.4234 197.745 68.1781C199.574 70.7712 202.267 72.6282 205.341 73.4166L212.158 72.8839L217.742 77.0175L221.866 83.5977L214.378 93.3251L217.091 95.2982Z" fill="#263238"/>
<path d="M174.487 56.4758C174.21 52.1773 172.783 48.0321 170.357 44.4733C167.93 40.9144 164.592 38.0726 160.692 36.2446C156.792 34.4166 152.472 33.6695 148.184 34.0814C143.897 34.4934 139.798 36.0492 136.317 38.5864C132.837 41.1235 130.101 44.5489 128.396 48.5047C126.692 52.4604 126.081 56.8014 126.627 61.074C127.173 65.3466 128.857 69.3941 131.502 72.7936C134.147 76.1931 137.657 78.8198 141.664 80.3994C141.852 83.2407 142.059 86.4568 142.059 86.4568L163.092 85.0954C163.092 85.0954 163.003 81.6918 162.845 78.6532C166.637 76.3842 169.73 73.1136 171.784 69.201C173.837 65.2884 174.773 60.8853 174.487 56.4758Z" fill="#FD652D"/>
<path d="M155.478 85.4905C155.478 85.4905 155.478 85.3819 155.478 85.1945C155.478 85.007 155.478 84.6913 155.478 84.3165C155.478 83.5568 155.587 82.4223 155.705 80.9721C155.823 79.5219 155.991 77.7362 156.317 75.6941C156.677 73.3674 157.261 71.081 158.063 68.8672C158.534 67.5785 159.119 66.3339 159.809 65.1479C160.185 64.5003 160.718 63.9576 161.358 63.5695C161.704 63.3762 162.092 63.2691 162.489 63.257C162.886 63.245 163.279 63.3285 163.637 63.5004C164.015 63.6828 164.309 64.0044 164.456 64.3982C164.618 64.7966 164.618 65.2427 164.456 65.6412C164.104 66.408 163.482 67.0189 162.709 67.3578C161.895 67.6767 161.025 67.8307 160.151 67.8111C159.277 67.7914 158.415 67.5985 157.616 67.2433C156.816 66.8882 156.096 66.378 155.495 65.7423C154.894 65.1066 154.426 64.358 154.117 63.5399C153.752 62.6677 153.639 61.7106 153.791 60.7775C153.874 60.2814 154.127 59.8295 154.507 59.5C154.887 59.1704 155.37 58.9837 155.873 58.9722C156.133 58.9806 156.387 59.0558 156.61 59.1906C156.832 59.3253 157.017 59.5151 157.145 59.7417C157.411 60.1792 157.512 60.6965 157.431 61.2018C157.199 62.1749 156.664 63.049 155.902 63.6977C155.177 64.3951 154.313 64.9313 153.366 65.2714C152.419 65.6114 151.411 65.7475 150.407 65.6708C149.402 65.5763 148.434 65.2397 147.588 64.69C146.741 64.1402 146.039 63.3936 145.544 62.5139C145.289 62.0805 145.127 61.599 145.067 61.0998C145.008 60.6006 145.052 60.0945 145.198 59.6134C145.27 59.3666 145.395 59.1385 145.564 58.9451C145.733 58.7518 145.943 58.5979 146.178 58.4944C146.413 58.3909 146.668 58.3403 146.925 58.3462C147.182 58.352 147.434 58.4142 147.665 58.5282C148.119 58.7384 148.498 59.0827 148.75 59.5148C148.986 59.9359 149.14 60.3978 149.204 60.8762C149.33 61.8001 149.266 62.7402 149.016 63.6385C148.553 65.3995 147.434 66.917 145.889 67.8807C144.414 68.7851 142.665 69.1349 140.956 68.8672C140.126 68.7895 139.343 68.4431 138.727 67.8807C138.425 67.5869 138.233 67.1992 138.181 66.7815C138.129 66.3638 138.22 65.9408 138.44 65.582C138.696 65.2517 139.072 65.0355 139.486 64.9802C139.881 64.9298 140.281 64.9807 140.65 65.1282C141.331 65.4606 141.882 66.0086 142.219 66.6869C142.91 67.9497 143.472 69.1829 144.044 70.3569C146.274 75.0726 147.892 78.9694 148.977 81.6725C149.519 83.0241 149.963 84.0797 150.2 84.79C150.328 85.1452 150.427 85.4214 150.506 85.6088C150.542 85.702 150.572 85.7976 150.595 85.8949L150.476 85.6187L150.141 84.8196L148.868 81.712C147.744 79.0286 146.096 75.1416 143.847 70.4457C143.275 69.2816 142.692 68.0286 142.012 66.7955C141.695 66.1665 141.183 65.6575 140.552 65.3452C140.233 65.1951 139.874 65.1504 139.528 65.2179C139.183 65.2853 138.867 65.4612 138.628 65.7201C138.449 66.0332 138.379 66.3968 138.429 66.7539C138.479 67.111 138.646 67.4414 138.904 67.6932C139.479 68.2178 140.21 68.5399 140.986 68.6107C142.635 68.8561 144.317 68.5064 145.731 67.6242C147.197 66.6846 148.254 65.2258 148.691 63.5399C148.932 62.6769 148.992 61.7735 148.868 60.8861C148.839 60.445 148.698 60.0186 148.458 59.6474C148.218 59.2762 147.887 58.9725 147.497 58.765C147.3 58.6747 147.087 58.6279 146.871 58.6279C146.654 58.6279 146.441 58.6747 146.244 58.765C146.044 58.8604 145.868 58.998 145.726 59.1683C145.585 59.3386 145.482 59.5376 145.425 59.7515C145.293 60.1939 145.253 60.659 145.309 61.1175C145.365 61.5759 145.516 62.0178 145.751 62.4152C146.231 63.2432 146.902 63.944 147.709 64.4589C148.516 64.9739 149.434 65.288 150.388 65.3748C151.349 65.446 152.314 65.3132 153.22 64.9851C154.126 64.6569 154.953 64.1409 155.646 63.4708C156.352 62.8692 156.852 62.0621 157.076 61.1623C157.145 60.7223 157.058 60.272 156.83 59.8897C156.724 59.7059 156.574 59.5518 156.393 59.4414C156.211 59.3311 156.006 59.2681 155.794 59.2583C155.358 59.261 154.94 59.4264 154.62 59.7219C154.298 60.0159 154.083 60.4078 154.008 60.8367C153.862 61.7164 153.968 62.6193 154.314 63.4412C154.609 64.2326 155.059 64.9571 155.638 65.5723C156.216 66.1875 156.912 66.6809 157.684 67.0236C158.456 67.3664 159.288 67.5515 160.132 67.5683C160.977 67.585 161.816 67.4329 162.601 67.121C163.315 66.8095 163.89 66.2482 164.219 65.5426C164.36 65.2101 164.369 64.8363 164.245 64.4972C164.12 64.1582 163.871 63.8794 163.548 63.7174C163.225 63.5613 162.869 63.4852 162.51 63.4955C162.151 63.5058 161.8 63.6022 161.486 63.7766C160.889 64.1437 160.391 64.6519 160.036 65.2565C159.352 66.4269 158.771 67.6549 158.3 68.9264C157.489 71.1192 156.894 73.3858 156.524 75.6941C156.179 77.7362 155.991 79.512 155.853 80.9622C155.715 82.4124 155.646 83.5272 155.577 84.3066C155.577 84.6716 155.518 84.9676 155.508 85.1748C155.498 85.3819 155.478 85.4905 155.478 85.4905Z" fill="#263238"/>
<path d="M161.72 89.0905L143.666 90.2645C143.305 90.2862 142.951 90.1647 142.679 89.9264C142.408 89.6881 142.241 89.3522 142.216 88.9919C142.194 88.6322 142.316 88.2787 142.555 88.0087C142.793 87.7388 143.129 87.5743 143.488 87.5515L161.552 86.3874C161.73 86.3753 161.908 86.3985 162.076 86.4555C162.245 86.5125 162.401 86.6022 162.535 86.7195C162.668 86.8369 162.778 86.9795 162.856 87.1392C162.935 87.2989 162.981 87.4725 162.992 87.6502C163.014 88.0098 162.892 88.3633 162.654 88.6333C162.415 88.9032 162.079 89.0677 161.72 89.0905Z" fill="#263238"/>
<path d="M161.8 90.2745L143.736 91.4485C143.378 91.472 143.043 91.637 142.806 91.9071C142.569 92.1772 142.45 92.5304 142.473 92.8888C142.497 93.2473 142.662 93.5817 142.932 93.8185C143.202 94.0553 143.555 94.1751 143.914 94.1516L145.887 94.0234L148.846 98.8673C149.015 99.1376 149.253 99.3573 149.536 99.5032C149.819 99.6491 150.136 99.7157 150.454 99.696L156.906 99.2816C157.226 99.2569 157.532 99.1468 157.794 98.9628C158.056 98.7788 158.264 98.5278 158.396 98.2359L160.626 93.0763L161.977 92.9875C162.323 92.9458 162.639 92.7733 162.862 92.5053C163.084 92.2374 163.195 91.8944 163.173 91.5469C163.15 91.1995 162.995 90.8739 162.74 90.6372C162.484 90.4006 162.148 90.2708 161.8 90.2745Z" fill="#263238"/>
<g opacity="0.2">
<path opacity="0.2" d="M134.081 43.7302C135.412 42.3149 136.969 41.1313 138.688 40.228C139.814 39.6125 141.024 39.167 142.279 38.906C143.187 38.758 143.71 38.8073 143.769 38.9948C143.897 39.4289 142.122 40.1885 139.823 41.9544C136.752 44.1888 134.39 47.2595 133.016 50.8001C131.643 54.3407 131.318 58.2016 132.079 61.922C132.601 64.8323 133.401 66.5884 133.065 66.8548C132.888 66.9633 132.473 66.6476 131.911 65.9274C131.138 64.8865 130.532 63.7315 130.115 62.5041C129.476 60.6771 129.143 58.7571 129.129 56.8216C129.083 54.413 129.501 52.018 130.362 49.7678" fill="white"/>
</g>
<g opacity="0.2">
<path opacity="0.2" d="M149.625 39.6661C148.105 39.745 146.734 39.4194 146.527 38.6203C146.438 38.2257 146.695 37.7818 147.218 37.4167C147.895 37.0053 148.662 36.7651 149.452 36.717C150.243 36.6689 151.034 36.8142 151.756 37.1405C152.328 37.4463 152.624 37.8607 152.584 38.2652" fill="white"/>
</g>
<path d="M158.064 98.6801C157.634 98.6047 157.209 98.5025 156.791 98.3743C155.777 98.1599 154.736 98.0968 153.703 98.1868C152.685 98.2965 151.688 98.5524 150.744 98.9465C150.013 99.2622 149.579 99.5187 149.56 99.4792C149.878 99.1752 150.249 98.9312 150.655 98.759C151.614 98.2914 152.65 98.0007 153.713 97.9007C154.777 97.798 155.85 97.8917 156.88 98.177C157.3 98.2765 157.7 98.4466 158.064 98.6801Z" fill="#455A64"/>
<path d="M160.678 93.1355C160.678 93.2144 157.423 93.4907 153.388 93.757C149.353 94.0234 146.097 94.1615 146.087 94.0727C146.078 93.984 149.343 93.7176 153.368 93.4611C157.393 93.2046 160.669 93.0566 160.678 93.1355Z" fill="#455A64"/>
<path d="M159.675 95.3552C159.095 95.499 158.505 95.5947 157.909 95.6413C156.814 95.7893 155.295 95.9471 153.608 96.0853C151.921 96.2234 150.401 96.2924 149.297 96.322C148.703 96.376 148.105 96.376 147.511 96.322C148.096 96.2031 148.69 96.1371 149.287 96.1247L153.588 95.7992L157.889 95.444C158.481 95.3638 159.078 95.3341 159.675 95.3552Z" fill="#455A64"/>
<path d="M29.6136 216.198L33.5598 222.483C33.5598 222.483 50.331 207.083 66.8951 211.433C66.8655 211.414 51.949 198.766 29.6136 216.198Z" fill="#FD652D"/>
<path d="M66.8634 211.412C66.8634 211.412 79.1459 198.074 97.1601 201.112L102.093 201.852L100.534 199.021C100.534 199.021 69.1719 188.287 66.8634 211.412Z" fill="#FD652D"/>
<path d="M40.9367 166.437C40.9367 166.437 16.3323 162.204 0.212158 170.935L25.8623 219.158C25.8623 219.158 46.8362 198.943 66.9025 211.393L40.9367 166.437Z" fill="#F5F5F5"/>
<path d="M40.9392 166.437C40.9899 166.5 41.0361 166.566 41.0774 166.635L41.4424 167.246L42.863 169.644L48.1903 178.779L67.053 211.335C67.0765 211.376 67.0858 211.424 67.0795 211.471C67.0731 211.518 67.0515 211.562 67.0179 211.596C66.9842 211.629 66.9405 211.651 66.8934 211.657C66.8463 211.664 66.7984 211.655 66.7571 211.631C63.865 209.843 60.6622 208.614 57.3159 208.01C55.5583 207.726 53.7786 207.6 51.9984 207.636C50.1673 207.716 48.3459 207.947 46.5527 208.326C38.9724 210.189 31.979 213.92 26.2102 219.178L25.9931 219.375C25.971 219.399 25.9442 219.418 25.9145 219.431C25.8848 219.443 25.8528 219.45 25.8205 219.45C25.7881 219.45 25.7561 219.443 25.7264 219.431C25.6967 219.418 25.67 219.399 25.6478 219.375V219.326L0.0273059 171.035C0.0137033 171.012 0.00493795 170.987 0.00156445 170.961C-0.00180906 170.936 0.000286766 170.909 0.00772131 170.884C0.0151559 170.859 0.0277637 170.836 0.0447302 170.816C0.0616967 170.796 0.0826449 170.78 0.106231 170.768C5.24767 168.203 10.7956 166.551 16.5026 165.885C20.8577 165.349 25.2483 165.158 29.6335 165.313C33.2639 165.441 36.0953 165.727 38.0092 165.964C38.9958 166.082 39.7061 166.191 40.1993 166.28L40.7617 166.378H40.9392H40.7518L40.1895 166.309C39.6962 166.25 38.9662 166.151 37.9994 166.053C36.0263 165.855 33.2442 165.609 29.6236 165.52C25.2558 165.399 20.8852 165.62 16.5519 166.181C10.8921 166.877 5.39506 168.546 0.303537 171.114L0.382462 170.847L26.0326 219.07L25.6478 219L25.8649 218.803C28.856 216.13 32.1467 213.813 35.6711 211.897C39.0517 210.035 42.6786 208.66 46.4442 207.813C48.2656 207.424 50.1174 207.193 51.9787 207.123C53.7888 207.081 55.5989 207.21 57.3849 207.507C60.7838 208.133 64.036 209.387 66.9741 211.207L66.6683 211.503L48.0128 178.947L42.7644 169.733L41.3931 167.286C41.2451 167.01 41.1267 166.802 41.0478 166.645C41.0068 166.578 40.9705 166.509 40.9392 166.437Z" fill="#263238"/>
<path d="M79.6092 156.543C79.6092 156.543 61.003 144.704 41.2524 166.408L67.1788 211.385C67.1788 211.385 72.4667 193.134 103.424 199.477L79.6092 156.543Z" fill="#F5F5F5"/>
<path d="M79.608 156.541C79.6587 156.598 79.7019 156.661 79.7362 156.728C79.8151 156.876 79.9335 157.064 80.0716 157.31L81.3837 159.599L86.3165 168.32L103.611 199.426C103.625 199.45 103.634 199.476 103.637 199.504C103.641 199.531 103.639 199.559 103.631 199.586C103.624 199.612 103.611 199.637 103.594 199.659C103.577 199.681 103.556 199.699 103.532 199.712C103.484 199.73 103.431 199.73 103.384 199.712L98.7765 198.952C97.9896 198.819 97.1958 198.73 96.3989 198.686L93.972 198.489C93.1485 198.42 92.3217 198.4 91.4958 198.43L88.9999 198.439C88.1514 198.439 87.3129 198.607 86.4644 198.686C85.6082 198.756 84.7579 198.885 83.9192 199.071L81.3837 199.643L78.8878 200.521C78.0672 200.852 77.2638 201.224 76.4806 201.636C76.0737 201.821 75.6841 202.042 75.3165 202.297L74.182 203.027C73.4322 203.53 72.7614 204.142 72.0609 204.704C71.4001 205.323 70.7774 205.982 70.1963 206.677C69.0022 208.079 68.0669 209.683 67.434 211.413C67.4118 211.474 67.366 211.524 67.3068 211.552C67.2476 211.58 67.1798 211.583 67.1183 211.561C67.0638 211.541 67.0181 211.503 66.9901 211.452L65.9443 209.647C56.7794 193.714 48.1866 178.866 41.0933 166.466C41.0695 166.429 41.0569 166.386 41.0569 166.342C41.0569 166.299 41.0695 166.256 41.0933 166.219C45.0091 161.785 49.7853 158.194 55.1318 155.663C59.2803 153.769 63.8282 152.916 68.3811 153.177C71.2891 153.351 74.1503 153.99 76.8555 155.071C77.5636 155.362 78.2552 155.691 78.9272 156.058L79.4402 156.354L79.5981 156.472L79.4205 156.383L78.8976 156.117C78.434 155.89 77.7434 155.554 76.816 155.199C73.355 153.882 69.6649 153.272 65.964 153.406C62.2632 153.54 58.6268 154.415 55.2699 155.979C49.984 158.516 45.2658 162.097 41.3991 166.505V166.268L66.3094 209.479L67.3946 211.265L66.9407 211.324C67.593 209.524 68.5582 207.854 69.7919 206.391C70.3938 205.677 71.0326 204.996 71.7058 204.349C72.4358 203.767 73.1165 203.135 73.886 202.632L75.0403 201.883C75.418 201.625 75.8174 201.4 76.234 201.212C77.0627 200.827 77.8421 200.363 78.6905 200.067L81.2259 199.189L83.8106 198.607C84.6616 198.416 85.5255 198.287 86.3954 198.222C87.2537 198.144 88.1021 197.986 88.9505 197.976H91.4859C92.3183 197.936 93.1524 197.956 93.9819 198.035L96.4285 198.242C97.2324 198.281 98.0331 198.369 98.8258 198.509L103.463 199.288L103.236 199.604C96.1621 186.779 90.2528 176.035 86.0896 168.468C84.0277 164.71 82.3999 161.73 81.2851 159.678L80.0223 157.35C79.8941 157.093 79.7855 156.896 79.7066 156.748C79.6277 156.6 79.608 156.541 79.608 156.541Z" fill="#263238"/>
<path d="M7.12305 147.75L34.8745 201.171C34.8745 201.171 57.417 200.185 66.9668 211.175L41.2574 166.435C41.2574 166.435 26.1831 147.75 7.12305 147.75Z" fill="#F5F5F5"/>
<path d="M7.12144 147.751H7.83175L9.96268 147.84C10.1995 147.84 10.456 147.84 10.7125 147.84L11.5313 147.978L13.386 148.284C14.1046 148.403 14.8135 148.575 15.5071 148.797C16.311 148.99 17.1046 149.224 17.8846 149.498C24.5142 151.707 33.4128 157.054 41.4038 166.269L67.1526 210.979C67.185 211.035 67.1938 211.102 67.1771 211.165C67.1605 211.228 67.1198 211.281 67.0638 211.314C67.0218 211.348 66.9696 211.366 66.9158 211.366C66.862 211.366 66.8098 211.348 66.7678 211.314L65.6826 210.229C63.6194 208.248 61.2124 206.66 58.5795 205.543C56.0293 204.403 53.3679 203.53 50.6379 202.939C45.4576 201.789 40.1581 201.266 34.8532 201.38C34.8112 201.38 34.77 201.369 34.7336 201.349C34.6972 201.328 34.667 201.298 34.646 201.261C26.5563 185.575 19.6505 172.168 14.7474 162.678C12.36 157.992 10.4461 154.243 9.09453 151.658C8.45327 150.405 7.95013 149.428 7.60484 148.698L7.22996 147.959L7.11157 147.712C7.1705 147.795 7.22013 147.884 7.25956 147.978L7.6739 148.738L9.23264 151.698L15.0138 162.767L35.0406 201.064L34.8334 200.946C40.1738 200.816 45.5103 201.333 50.7266 202.485C53.4857 203.084 56.1765 203.963 58.7571 205.109C61.4417 206.255 63.8954 207.879 65.9983 209.904L67.123 211.009L66.7185 211.295C57.1786 194.671 48.3491 179.262 41.0684 166.545C37.5021 162.382 33.4213 158.689 28.924 155.555C25.4919 153.13 21.7489 151.179 17.7958 149.754C17.0193 149.474 16.229 149.234 15.4281 149.034C14.7419 148.804 14.0395 148.626 13.3268 148.501L11.482 148.166L10.6829 148.018L9.95282 147.959L7.12144 147.751Z" fill="#263238"/>
<path d="M93.7405 299.264L94.3324 300.25C95.0011 301.361 95.9732 302.258 97.1342 302.835L98.1207 303.348L97.1342 303.94C96.0268 304.613 95.1311 305.584 94.5494 306.742L94.0365 307.778L93.4445 306.791C92.7758 305.68 91.8038 304.783 90.6427 304.206L89.6069 303.693L90.5934 303.101C91.7067 302.436 92.6042 301.463 93.1782 300.3L93.7405 299.264Z" fill="#FD652D"/>
<path d="M39.0447 95.7686L39.6366 96.7551C40.3059 97.863 41.278 98.7564 42.4384 99.33L43.4249 99.843L42.4384 100.445C41.3233 101.108 40.4252 102.082 39.8536 103.247L39.3406 104.233L38.7487 103.247C38.0791 102.133 37.103 101.236 35.937 100.662L34.9012 100.149L35.8877 99.5569C36.9965 98.8813 37.8923 97.9068 38.4725 96.7452L39.0447 95.7686Z" fill="#FD652D"/>
<path d="M292.172 130.88L292.764 131.866C293.433 132.98 294.409 133.877 295.575 134.451L296.611 134.964L295.624 135.556C294.516 136.229 293.623 137.204 293.05 138.368L292.537 139.354L291.935 138.368C291.268 137.258 290.295 136.364 289.133 135.793L288.087 135.3L289.074 134.698C290.189 134.034 291.087 133.061 291.659 131.896L292.172 130.88Z" fill="#FD652D"/>
<path d="M262.28 312.039L262.872 313.026C263.545 314.134 264.52 315.028 265.684 315.6L266.719 316.113L265.733 316.715C264.622 317.384 263.726 318.356 263.148 319.517L262.645 320.553L262.043 319.566C261.378 318.453 260.405 317.556 259.241 316.982L258.206 316.469L259.192 315.877C260.306 315.207 261.203 314.231 261.777 313.065L262.28 312.039Z" fill="#FD652D"/>
<path d="M267.97 350.107L268.257 350.226C268.57 350.348 268.911 350.382 269.243 350.324L269.549 350.265L269.431 350.551C269.308 350.865 269.274 351.206 269.332 351.538L269.391 351.844L269.105 351.725C268.791 351.604 268.45 351.569 268.118 351.627L267.813 351.686L267.931 351.4C268.053 351.086 268.087 350.745 268.03 350.413L267.97 350.107Z" fill="#FD652D"/>
<path d="M285.186 92.6914L285.462 92.8098C285.776 92.9306 286.117 92.9647 286.449 92.9084L286.745 92.8493L286.636 93.1353C286.509 93.4479 286.475 93.7904 286.538 94.1219L286.597 94.4277L286.311 94.3093C285.997 94.1885 285.656 94.1544 285.324 94.2107L285.028 94.2699L285.137 93.9838C285.264 93.6712 285.298 93.3287 285.235 92.9972L285.186 92.6914Z" fill="#FD652D"/>
<path d="M50.1645 69.2012L50.4506 69.3097C50.7631 69.4367 51.1056 69.4709 51.4371 69.4083H51.743L51.6246 69.6846C51.5037 69.9986 51.4697 70.3394 51.5259 70.6711L51.5851 70.9671L51.299 70.8586C50.9865 70.7316 50.644 70.6974 50.3125 70.7599H50.0067L50.125 70.4837C50.2459 70.1696 50.28 69.8289 50.2237 69.4971L50.1645 69.2012Z" fill="#FD652D"/>
<path d="M79.1361 269.627L79.4222 269.735C79.7336 269.867 80.0775 269.901 80.4088 269.834L80.7146 269.785L80.5962 270.071C80.4739 270.385 80.4398 270.726 80.4976 271.057L80.5567 271.353L80.2706 271.245C79.9581 271.118 79.6156 271.084 79.2841 271.146L78.9783 271.205L79.0967 270.919C79.2175 270.605 79.2516 270.265 79.1953 269.933L79.1361 269.627Z" fill="#FD652D"/>
<path d="M110.623 347.101L110.346 347.387L109.528 348.206L106.341 351.353L94.5025 362.767V362.649C95.124 375.03 95.9132 391.801 96.7419 410.545V410.96L96.3867 410.733L92.115 407.872L65.0443 389.749H64.9851V389.69C60.9403 377.624 57.5367 367.443 55.1197 360.261C53.9358 356.69 53.0085 353.868 52.3573 351.915L51.647 349.695C51.5681 349.458 51.5089 349.271 51.4694 349.133C51.4694 348.995 51.4102 348.936 51.4201 348.936L51.499 349.113L51.7062 349.675C51.8838 350.198 52.1403 350.928 52.4757 351.875L55.3367 360.192C57.7833 367.364 61.256 377.516 65.3402 389.561L65.2613 389.463L92.3617 407.556L96.6334 410.407L96.298 410.594C95.4989 391.85 94.7787 375.079 94.246 362.678V362.609H94.2953L106.213 351.303L109.458 348.255L110.307 347.475C110.514 347.18 110.623 347.101 110.623 347.101Z" fill="#FD652D"/>
<path d="M98.0086 404.873L97.9198 407.665L100.179 409.322L97.4955 410.102L96.6175 412.756L95.0391 410.447L92.2471 410.437L93.9637 408.227L93.1054 405.564L95.7395 406.511L98.0086 404.873Z" fill="#FD652D"/>
<path d="M65.3935 385.922L65.4527 387.727L66.9719 388.714L65.2652 389.316L64.8015 391.072L63.6966 389.641L61.8912 389.74L62.9074 388.24L62.2563 386.553L63.9926 387.066L65.3935 385.922Z" fill="#FD652D"/>
<path d="M51.3499 345.542L52.7113 347.298L54.931 347.16L53.688 349.005L54.497 351.067L52.366 350.455L50.6494 351.866L50.5705 349.646L48.7059 348.452L50.7875 347.693L51.3499 345.542Z" fill="#FD652D"/>
<path d="M109.243 343.796L110.614 345.542L112.824 345.414L111.581 347.249L112.39 349.321L110.259 348.699L108.542 350.11L108.473 347.89L106.599 346.696L108.69 345.937L109.243 343.796Z" fill="#FD652D"/>
<path d="M94.0556 360.704L94.9238 361.829L96.3345 361.74L95.5453 362.914L96.0583 364.236L94.6969 363.841L93.6018 364.739L93.5525 363.328L92.3588 362.559L93.6906 362.075L94.0556 360.704Z" fill="#FD652D"/>
<path d="M41.8381 286.095C52.7024 286.095 61.5097 277.288 61.5097 266.424C61.5097 255.559 52.7024 246.752 41.8381 246.752C30.9737 246.752 22.1664 255.559 22.1664 266.424C22.1664 277.288 30.9737 286.095 41.8381 286.095Z" fill="#FD652D"/>
<g opacity="0.3">
<path opacity="0.3" d="M39.2775 272.56C39.2794 273.197 39.0922 273.82 38.7396 274.35C38.3869 274.881 37.8847 275.294 37.2967 275.539C36.7086 275.784 36.0611 275.848 35.4363 275.724C34.8115 275.601 34.2376 275.294 33.7872 274.844C33.3368 274.393 33.0303 273.819 32.9065 273.195C32.7828 272.57 32.8473 271.922 33.0919 271.334C33.3366 270.746 33.7503 270.244 34.2807 269.891C34.8111 269.539 35.4343 269.352 36.0712 269.354C36.9208 269.356 37.7348 269.695 38.3355 270.295C38.9362 270.896 39.2749 271.71 39.2775 272.56Z" fill="white"/>
</g>
<g opacity="0.3">
<path opacity="0.3" d="M34.7385 263.306C34.7405 263.677 34.6322 264.04 34.4274 264.35C34.2227 264.66 33.9306 264.901 33.5883 265.045C33.2459 265.188 32.8687 265.227 32.5045 265.155C32.1402 265.084 31.8053 264.907 31.5422 264.645C31.2791 264.383 31.0996 264.049 31.0264 263.685C30.9533 263.321 30.9898 262.944 31.1314 262.601C31.273 262.258 31.5132 261.964 31.8217 261.758C32.1302 261.552 32.4929 261.441 32.8641 261.441C33.3595 261.441 33.8348 261.638 34.186 261.987C34.5373 262.336 34.7359 262.811 34.7385 263.306Z" fill="white"/>
</g>
<path d="M22.7471 271.207C22.8359 271.553 5.90685 287.791 10.2772 291.254C14.6476 294.717 32.9677 285.838 48.6439 273.2C64.3201 260.563 78.5855 245.212 74.6689 241.147C70.7523 237.083 51.199 249.109 51.199 249.109L53.5372 250.608C53.5372 250.608 65.3757 243.022 69.1048 245.962C72.8339 248.902 62.199 260.405 47.1345 271.395C32.07 282.385 17.5382 290.08 15.2987 287.071C13.0593 284.062 23.6844 274.029 23.6844 274.029L22.7471 271.207Z" fill="#FD652D"/>
<g opacity="0.3">
<path opacity="0.3" d="M22.7478 271.206C22.8366 271.552 5.90752 287.79 10.2779 291.253C14.6483 294.716 32.9684 285.837 48.6446 273.199C64.3207 260.562 78.5862 245.211 74.6696 241.147C70.753 237.082 51.1997 249.108 51.1997 249.108L53.5378 250.607C53.5378 250.607 65.3763 243.021 69.1055 245.961C72.8346 248.901 62.1997 260.404 47.1352 271.394C32.0706 282.384 17.5389 290.079 15.2994 287.07C13.06 284.061 23.685 274.028 23.685 274.028L22.7478 271.206Z" fill="black"/>
</g>
<g opacity="0.3">
<path opacity="0.3" d="M30.9937 252.563C31.1516 252.751 29.8197 253.885 28.3103 256.154C26.3078 259.07 25.2033 262.508 25.1332 266.044C25.063 269.581 26.0304 273.06 27.9157 276.053C29.3363 278.391 30.6188 279.575 30.4511 279.752C30.2834 279.93 28.774 278.983 27.018 276.655C26.0037 275.292 25.199 273.786 24.6305 272.186C23.191 268.202 23.2789 263.826 24.8772 259.903C25.5065 258.322 26.3713 256.845 27.4422 255.523C29.287 253.274 30.9049 252.425 30.9937 252.563Z" fill="white"/>
</g>
<path d="M269.899 93.8099C276.361 87.5995 276.565 77.3262 270.355 70.8637C264.145 64.4011 253.871 64.1967 247.409 70.407C240.946 76.6174 240.742 86.8908 246.952 93.3533C253.163 99.8158 263.436 100.02 269.899 93.8099Z" fill="#FD652D"/>
<g opacity="0.4">
<path opacity="0.4" d="M263.95 75.9137C263.962 75.391 264.129 74.8835 264.429 74.4554C264.729 74.0273 265.15 73.6979 265.637 73.5087C266.124 73.3195 266.657 73.2791 267.167 73.3926C267.678 73.5061 268.143 73.7684 268.505 74.1463C268.866 74.5242 269.107 75.0008 269.198 75.5157C269.288 76.0307 269.224 76.5609 269.013 77.0394C268.802 77.5179 268.454 77.9232 268.013 78.2039C267.572 78.4847 267.058 78.6284 266.535 78.6168C266.187 78.6104 265.845 78.5353 265.526 78.3957C265.208 78.2561 264.92 78.0549 264.68 77.8036C264.439 77.5523 264.251 77.2559 264.126 76.9316C264.001 76.6072 263.941 76.2613 263.95 75.9137Z" fill="black"/>
</g>
<g opacity="0.4">
<path opacity="0.4" d="M269.235 82.0866C269.241 81.78 269.338 81.482 269.514 81.2304C269.689 80.9789 269.936 80.7851 270.221 80.6737C270.507 80.5623 270.819 80.5382 271.119 80.6045C271.418 80.6709 271.691 80.8246 271.903 81.0463C272.115 81.268 272.257 81.5476 272.31 81.8497C272.363 82.1519 272.325 82.4629 272.2 82.7434C272.076 83.0239 271.872 83.2612 271.613 83.4253C271.354 83.5894 271.051 83.6729 270.745 83.6651C270.542 83.6613 270.342 83.6173 270.156 83.5358C269.97 83.4543 269.802 83.3367 269.662 83.19C269.521 83.0433 269.411 82.8703 269.338 82.6809C269.265 82.4916 269.23 82.2896 269.235 82.0866Z" fill="black"/>
</g>
<g opacity="0.4">
<path opacity="0.4" d="M267.169 86.8251C267.243 86.825 267.316 86.8399 267.385 86.8689C267.453 86.8979 267.515 86.9404 267.567 86.9938C267.618 87.0472 267.658 87.1104 267.685 87.1798C267.712 87.2491 267.724 87.3231 267.721 87.3973C267.716 87.5482 267.653 87.6912 267.544 87.7961C267.435 87.9011 267.29 87.9597 267.139 87.9596C266.989 87.9544 266.847 87.8905 266.744 87.7816C266.64 87.6728 266.584 87.5276 266.587 87.3775C266.588 87.3028 266.604 87.2291 266.634 87.1607C266.664 87.0923 266.708 87.0306 266.762 86.9792C266.816 86.9277 266.88 86.8876 266.95 86.8612C267.02 86.8347 267.094 86.8224 267.169 86.8251Z" fill="black"/>
</g>
</svg>
