<svg width="402" height="439" viewBox="0 0 402 439" fill="none" xmlns="http://www.w3.org/2000/svg">
<rect width="401.963" height="439" fill="url(#paint0_linear_2335_39411)"/>
<g clip-path="url(#clip0_2335_39411)">
<path opacity="0.2" d="M200.11 419.801C269.33 419.801 325.444 416.128 325.444 411.598C325.444 407.067 269.33 403.394 200.11 403.394C130.891 403.394 74.7769 407.067 74.7769 411.598C74.7769 416.128 130.891 419.801 200.11 419.801Z" fill="#263238"/>
<path d="M75.6878 354.619C77.4379 355.376 81.7129 355.285 81.7129 355.285C81.7129 355.285 80.8014 352.486 80.7194 352.313C79.8079 350.353 76.8181 347.117 74.4026 347.446C73.9992 347.51 73.614 347.659 73.2726 347.883C72.9312 348.107 72.6414 348.401 72.4224 348.746C72.2035 349.091 72.0604 349.479 72.0026 349.883C71.9448 350.287 71.9737 350.699 72.0873 351.092C72.4793 352.723 74.1929 353.963 75.6878 354.619Z" fill="#263238"/>
<path d="M77.1552 366.989C78.9782 367.253 82.7793 366.15 83.0892 366.077C83.7152 368.253 84.4856 370.384 85.3953 372.458C85.924 373.67 86.4892 374.882 87.0725 376.104C86.7262 375.602 86.4071 375.192 86.3524 375.083C84.9305 373.442 81.2206 371.099 78.9782 372.057C78.6105 372.225 78.2824 372.469 78.0151 372.772C77.7479 373.076 77.5476 373.432 77.4272 373.818C77.3068 374.204 77.2691 374.611 77.3164 375.013C77.3638 375.415 77.4952 375.802 77.7021 376.149C78.5316 377.653 80.5096 378.401 82.123 378.629C83.7364 378.856 87.0178 377.991 87.8838 377.717C88.1117 378.182 88.3304 378.629 88.5583 379.093C89.6703 381.299 90.7733 383.487 91.8033 385.666C92.1588 386.431 92.4869 387.206 92.8242 387.972C92.5143 387.516 92.2499 387.142 92.2044 387.06C90.7824 385.419 87.0634 383.077 84.8211 384.025C84.4543 384.194 84.1272 384.439 83.8608 384.742C83.5944 385.046 83.3946 385.402 83.2743 385.788C83.1541 386.174 83.116 386.58 83.1626 386.981C83.2093 387.383 83.3395 387.77 83.545 388.118C84.3744 389.631 86.3615 390.369 87.9658 390.606C89.5701 390.843 92.5234 390.05 93.5716 389.767C93.8816 390.56 94.2006 391.363 94.4832 392.146C94.6472 392.693 94.8569 393.195 94.9936 393.751C95.1303 394.307 95.2944 394.835 95.4494 395.373C95.6955 396.412 95.9598 397.488 96.1786 398.5C96.3335 399.211 96.4703 399.894 96.6161 400.578C96.2606 399.803 95.5405 398.317 95.4676 398.199C94.31 396.376 90.9921 393.477 88.6403 394.079C88.2512 394.19 87.8899 394.382 87.5796 394.642C87.2693 394.901 87.017 395.223 86.8392 395.587C86.6613 395.95 86.5617 396.347 86.547 396.752C86.5322 397.156 86.6026 397.559 86.7535 397.935C87.346 399.548 89.1872 400.587 90.7459 401.061C92.4505 401.581 96.215 401.061 96.7073 401.061C96.9351 402.191 97.1448 403.294 97.3271 404.333C97.7373 406.63 98.0381 408.7 98.2386 410.441H99.8338C99.5512 408.618 99.1866 406.485 98.7126 404.06C98.4847 402.911 98.2204 401.69 97.9378 400.414C99.0774 399.959 100.188 399.435 101.265 398.846C102.514 400.195 105.704 401.781 106.114 401.982C105.677 403.048 105.248 404.078 104.82 405.054C103.908 407.086 103.106 408.882 102.359 410.413H104.091C104.72 409 105.421 407.396 106.151 405.61C106.597 404.534 107.062 403.367 107.509 402.164C107.965 402.255 111.711 403.021 113.461 402.629C115.038 402.264 116.961 401.371 117.663 399.803C117.843 399.442 117.944 399.046 117.96 398.643C117.977 398.239 117.908 397.837 117.758 397.462C117.609 397.087 117.382 396.747 117.092 396.466C116.802 396.185 116.456 395.968 116.077 395.829C113.771 395.054 110.252 397.652 108.958 399.42C108.885 399.521 108.183 400.733 107.755 401.508C107.937 401.015 108.119 400.541 108.302 400.031C108.666 399.028 109.004 398.017 109.377 396.923C109.532 396.394 109.696 395.856 109.86 395.319C110.025 394.781 110.143 394.197 110.289 393.632C110.608 392.311 110.854 390.961 111.082 389.594C111.993 389.913 115.102 391.007 116.733 390.898C118.365 390.788 120.379 390.187 121.291 388.746C121.523 388.416 121.683 388.039 121.76 387.643C121.837 387.246 121.83 386.837 121.738 386.444C121.647 386.05 121.474 385.68 121.231 385.357C120.987 385.035 120.678 384.767 120.325 384.572C118.155 383.451 114.281 385.483 112.741 387.042C112.641 387.142 111.665 388.364 111.137 389.047C111.264 388.227 111.401 387.407 111.501 386.568C111.802 384.152 112.03 381.7 112.267 379.276C112.34 378.528 112.422 377.781 112.504 377.033C112.814 377.152 116.515 378.528 118.338 378.401C119.96 378.291 121.984 377.699 122.895 376.259C123.127 375.927 123.286 375.551 123.362 375.153C123.439 374.756 123.431 374.348 123.339 373.954C123.247 373.56 123.073 373.19 122.828 372.868C122.584 372.546 122.274 372.279 121.92 372.084C119.76 370.963 115.886 372.995 114.345 374.554C114.227 374.673 112.814 376.432 112.522 376.897C112.695 375.256 112.887 373.615 113.142 372.011C113.469 369.856 113.938 367.724 114.546 365.63C114.682 365.685 118.547 367.144 120.416 367.016C122.029 366.897 124.062 366.305 124.973 364.865C125.205 364.534 125.365 364.158 125.442 363.761C125.519 363.364 125.512 362.956 125.421 362.562C125.33 362.168 125.157 361.798 124.913 361.476C124.67 361.153 124.361 360.885 124.007 360.69C121.838 359.569 117.964 361.601 116.423 363.16C116.305 363.279 114.783 365.184 114.537 365.548C114.537 365.421 114.6 365.293 114.637 365.166C115.302 363.067 116.153 361.033 117.18 359.086C117.736 358.001 118.319 356.998 118.921 356.032C119.614 356.378 122.786 357.919 124.481 357.992C126.177 358.065 128.182 357.691 129.276 356.36C129.543 356.057 129.743 355.701 129.864 355.315C129.984 354.929 130.022 354.522 129.974 354.12C129.927 353.719 129.796 353.331 129.589 352.984C129.382 352.637 129.105 352.337 128.774 352.103C126.742 350.754 122.658 352.377 120.963 353.726C120.872 353.799 120.051 354.637 119.395 355.285C119.677 354.856 119.951 354.373 120.224 353.999C121.245 352.468 122.266 351.119 123.187 349.943C123.716 349.278 124.208 348.685 124.673 348.12C125.52 348.12 128.966 348.002 130.47 347.3C131.974 346.598 133.624 345.322 133.979 343.654C134.075 343.261 134.087 342.853 134.015 342.456C133.944 342.059 133.79 341.681 133.563 341.347C133.336 341.013 133.042 340.73 132.699 340.517C132.356 340.303 131.973 340.164 131.573 340.108C129.148 339.853 126.277 343.171 125.393 345.149C125.311 345.322 124.427 348.147 124.481 348.147H124.536C124.071 348.667 123.624 349.223 123.077 349.852C122.166 351.019 121.063 352.34 120.015 353.854C118.859 355.476 117.799 357.165 116.843 358.913C115.748 360.858 114.833 362.899 114.108 365.011C114.108 365.011 114.108 365.065 114.108 365.093C114.108 364.382 114.108 362.358 114.063 362.23C113.789 360.07 111.984 356.078 109.587 355.631C109.186 355.568 108.775 355.59 108.383 355.697C107.991 355.804 107.626 355.993 107.312 356.251C106.999 356.51 106.744 356.832 106.564 357.196C106.384 357.561 106.283 357.959 106.269 358.366C106.123 360.079 107.363 361.793 108.575 362.923C109.942 364.145 113.734 365.32 114.044 365.412C113.366 367.58 112.831 369.791 112.44 372.029C112.212 373.333 112.021 374.645 111.838 375.976C111.838 375.356 111.838 374.8 111.838 374.727C111.556 372.567 109.751 368.575 107.354 368.128C106.952 368.064 106.542 368.087 106.15 368.194C105.758 368.301 105.393 368.49 105.079 368.748C104.766 369.007 104.51 369.329 104.331 369.693C104.151 370.058 104.05 370.456 104.036 370.862C103.89 372.576 105.139 374.29 106.342 375.375C107.545 376.459 110.781 377.544 111.638 377.817L111.446 379.34C111.155 381.782 110.872 384.216 110.535 386.632C110.416 387.47 110.262 388.291 110.116 389.12C110.116 388.573 110.116 388.108 110.116 388.035C109.842 385.884 108.037 381.883 105.64 381.436C105.239 381.376 104.83 381.4 104.439 381.508C104.048 381.616 103.684 381.806 103.371 382.063C103.058 382.321 102.803 382.642 102.622 383.005C102.442 383.368 102.339 383.765 102.322 384.171C102.176 385.875 103.416 387.598 104.628 388.674C105.841 389.749 108.758 390.743 109.769 391.071C109.596 391.909 109.414 392.748 109.204 393.55C109.049 394.097 108.94 394.635 108.748 395.173C108.557 395.71 108.402 396.248 108.238 396.777C107.873 397.78 107.5 398.819 107.117 399.794C106.862 400.469 106.597 401.107 106.333 401.754C106.47 400.924 106.688 399.284 106.697 399.138C106.672 397.216 106.155 395.333 105.193 393.669C105.212 393.456 105.212 393.243 105.193 393.031C105.143 392.629 105.009 392.242 104.799 391.896C104.589 391.55 104.308 391.252 103.975 391.021C103.643 390.791 103.265 390.633 102.867 390.558C102.469 390.484 102.06 390.494 101.666 390.588C99.3142 391.208 97.8284 395.337 97.719 397.506C97.719 397.634 97.792 399.037 97.8558 399.913C97.7373 399.402 97.6279 398.91 97.5003 398.381C97.2542 397.342 96.9807 396.312 96.689 395.2L96.1968 393.587C96.051 393.049 95.8231 392.493 95.6317 391.946C95.1668 390.67 94.629 389.403 94.0639 388.145C94.9754 387.926 98.2022 387.106 99.533 386.112C100.864 385.119 102.122 383.341 102.122 381.646C102.133 381.241 102.059 380.839 101.905 380.465C101.751 380.091 101.52 379.754 101.226 379.476C100.933 379.197 100.585 378.983 100.203 378.848C99.822 378.713 99.4166 378.66 99.0134 378.692C96.5979 378.957 94.4558 382.812 94.0547 384.936C94.0547 385.073 93.8816 386.632 93.8269 387.498C93.4805 386.741 93.1341 385.985 92.7604 385.228C91.6757 383.049 90.5181 380.88 89.3695 378.711C89.014 378.045 88.6677 377.371 88.3213 376.705C88.6494 376.632 92.496 375.739 93.9454 374.627C95.2397 373.643 96.607 372.029 96.5888 370.306C96.599 369.903 96.5243 369.502 96.3694 369.129C96.2146 368.756 95.9832 368.42 95.6901 368.142C95.397 367.865 95.0489 367.652 94.6682 367.517C94.2876 367.383 93.8829 367.33 93.4805 367.362C91.065 367.617 88.9229 371.473 88.5218 373.606C88.5218 373.761 88.2848 376.013 88.2575 376.587C87.5009 375.119 86.7535 373.652 86.079 372.175C85.156 370.183 84.3614 368.134 83.6999 366.041C83.8549 366.041 87.8747 365.129 89.3604 363.953C90.6457 362.96 92.0129 361.346 92.0038 359.633C92.014 359.228 91.9391 358.825 91.7838 358.452C91.6285 358.078 91.3964 357.741 91.1025 357.462C90.8086 357.184 90.4594 356.97 90.0776 356.835C89.6959 356.7 89.29 356.647 88.8864 356.679C86.4709 356.944 84.3289 360.799 83.9369 362.923C83.9369 363.096 83.6817 365.512 83.6726 365.949C83.6726 365.831 83.5814 365.712 83.545 365.585C82.9432 363.468 82.5314 361.303 82.3144 359.113C82.1777 357.901 82.1139 356.743 82.0865 355.604C82.8522 355.513 86.3524 355.048 87.8017 354.173C89.251 353.298 90.7186 351.876 90.9009 350.162C90.9559 349.764 90.9271 349.359 90.8163 348.973C90.7056 348.587 90.5154 348.229 90.2579 347.921C90.0004 347.612 89.6813 347.361 89.3211 347.184C88.9609 347.006 88.5676 346.906 88.1663 346.89C85.7326 346.89 83.2259 350.49 82.5514 352.55C82.5514 352.669 82.2688 353.854 82.1048 354.72C82.1048 354.2 82.1048 353.68 82.1048 353.188C82.1048 351.365 82.2233 349.661 82.3326 348.166C82.4056 347.318 82.4876 346.552 82.5787 345.841C83.2806 345.358 86.0972 343.371 86.9631 341.949C87.8291 340.527 88.4945 338.567 87.8747 336.963C87.7385 336.583 87.5237 336.235 87.2445 335.943C86.9652 335.651 86.6276 335.421 86.2537 335.268C85.8797 335.115 85.4778 335.043 85.0739 335.055C84.6701 335.068 84.2734 335.165 83.9096 335.341C81.7493 336.453 81.175 340.81 81.5396 342.952C81.5396 343.134 82.3873 345.978 82.4511 345.951C82.36 346.634 82.2688 347.373 82.1777 348.184C82.0318 349.67 81.8769 351.356 81.8313 353.206C81.7645 355.198 81.8132 357.191 81.9771 359.177C82.1504 361.399 82.5195 363.601 83.0801 365.758V365.84C82.6972 365.238 81.567 363.589 81.4667 363.47C80.0447 361.829 76.3348 359.487 74.0925 360.444C73.7248 360.612 73.3966 360.856 73.1294 361.16C72.8622 361.463 72.6618 361.819 72.5415 362.206C72.4211 362.592 72.3833 362.999 72.4307 363.4C72.4781 363.802 72.6095 364.189 72.8164 364.537C73.5729 366.022 75.5509 366.752 77.1552 366.989Z" fill="#263238"/>
<path d="M118.892 355.557C118.892 355.557 119.667 352.713 119.695 352.531C119.995 350.38 119.312 346.041 117.115 344.984C116.746 344.818 116.347 344.731 115.943 344.73C115.539 344.729 115.139 344.812 114.769 344.976C114.399 345.139 114.068 345.378 113.797 345.678C113.526 345.978 113.321 346.331 113.195 346.715C112.612 348.329 113.35 350.316 114.235 351.674C115.274 353.26 118.892 355.548 118.892 355.557Z" fill="#263238"/>
<path d="M287.807 362.039C289.33 362.704 293.03 362.613 293.03 362.613C293.03 362.613 292.237 360.188 292.164 360.042C291.353 358.347 288.783 355.539 286.695 355.822C286.349 355.877 286.018 356.005 285.725 356.197C285.431 356.389 285.182 356.641 284.992 356.936C284.803 357.231 284.678 357.563 284.626 357.91C284.574 358.257 284.596 358.611 284.69 358.949C285.036 360.398 286.522 361.464 287.807 362.039Z" fill="#263238"/>
<path d="M289.093 372.768C290.661 372.996 293.97 372.039 294.225 371.957C294.773 373.849 295.443 375.703 296.23 377.508C296.686 378.565 297.142 379.605 297.689 380.653C297.379 380.206 297.114 379.814 297.069 379.741C295.829 378.31 292.612 376.287 290.688 377.107C290.37 377.253 290.086 377.465 289.855 377.728C289.624 377.991 289.451 378.3 289.347 378.634C289.243 378.969 289.21 379.321 289.252 379.669C289.293 380.017 289.406 380.352 289.585 380.653C290.296 381.965 292.019 382.613 293.414 382.813C294.808 383.014 297.661 382.257 298.409 382.047L299.001 383.241C299.913 385.147 300.915 387.043 301.809 388.938C302.119 389.604 302.401 390.269 302.72 390.935L302.182 390.169C300.943 388.747 297.725 386.714 295.802 387.535C295.482 387.681 295.197 387.893 294.966 388.157C294.734 388.42 294.56 388.73 294.456 389.066C294.352 389.401 294.32 389.755 294.361 390.104C294.403 390.452 294.518 390.788 294.699 391.09C295.41 392.393 297.133 393.04 298.527 393.241C299.922 393.441 302.492 392.758 303.386 392.512C303.659 393.204 303.933 393.897 304.16 394.581C304.315 395.046 304.489 395.492 304.616 395.966C304.744 396.44 304.871 396.878 305.008 397.37C305.218 398.282 305.446 399.193 305.637 400.105C305.774 400.724 305.892 401.308 306.011 401.928C305.71 401.262 305.099 399.968 305.026 399.868C304.024 398.272 301.143 395.784 299.102 396.304C298.764 396.398 298.45 396.563 298.181 396.788C297.911 397.012 297.693 397.291 297.538 397.606C297.384 397.921 297.299 398.265 297.287 398.616C297.275 398.966 297.337 399.315 297.47 399.64C297.98 401.043 299.576 401.937 300.925 402.374C302.41 402.83 305.692 402.42 306.102 402.374C306.293 403.35 306.476 404.307 306.631 405.209C306.986 407.205 307.25 408.992 307.451 410.505H308.837C308.59 408.946 308.28 407.078 307.861 404.981C307.67 403.988 307.442 402.921 307.196 401.836C308.181 401.439 309.143 400.985 310.076 400.478C311.348 401.578 312.765 402.498 314.287 403.213C313.905 404.124 313.531 405.036 313.166 405.874C312.401 407.634 311.671 409.201 311.033 410.523H312.528C313.075 409.302 313.686 407.907 314.351 406.358C314.743 405.446 315.135 404.407 315.527 403.368C315.928 403.45 319.173 404.115 320.686 403.769C322.063 403.459 323.722 402.684 324.332 401.326C324.487 401.011 324.573 400.667 324.586 400.316C324.599 399.966 324.538 399.616 324.408 399.291C324.277 398.965 324.079 398.67 323.828 398.426C323.576 398.181 323.276 397.993 322.947 397.871C320.951 397.206 317.897 399.476 316.776 400.989C316.712 401.08 316.101 402.128 315.728 402.812C315.892 402.383 316.047 401.973 316.211 401.527C316.53 400.661 316.821 399.786 317.122 398.838C317.259 398.373 317.396 397.926 317.542 397.443C317.687 396.96 317.788 396.468 317.915 395.975C318.189 394.836 318.407 393.669 318.599 392.484C319.365 392.758 322.09 393.706 323.494 393.605C324.897 393.505 326.666 392.995 327.477 391.782C327.683 391.495 327.825 391.166 327.894 390.82C327.963 390.473 327.958 390.115 327.879 389.77C327.8 389.426 327.648 389.102 327.434 388.82C327.22 388.538 326.949 388.305 326.638 388.136C324.761 387.17 321.397 388.948 320.066 390.278C319.975 390.36 319.155 391.427 318.672 392.019C318.781 391.299 318.9 390.588 318.991 389.868C319.246 387.772 319.447 385.648 319.656 383.488C319.72 382.84 319.784 382.193 319.857 381.546C320.13 381.646 323.339 382.85 324.916 382.731C326.319 382.64 328.079 382.12 328.899 380.908C329.104 380.62 329.246 380.291 329.315 379.944C329.383 379.596 329.377 379.239 329.297 378.894C329.217 378.549 329.064 378.225 328.85 377.944C328.635 377.663 328.363 377.43 328.051 377.262C326.228 376.296 322.819 378.073 321.479 379.404C321.379 379.504 320.158 381.036 319.866 381.437C320.021 380.015 320.185 378.593 320.404 377.207C320.684 375.323 321.089 373.459 321.616 371.629C321.744 371.674 325.089 372.941 326.702 372.823C328.106 372.732 329.874 372.212 330.686 371C330.891 370.712 331.033 370.384 331.103 370.037C331.172 369.69 331.167 369.333 331.088 368.988C331.008 368.643 330.857 368.319 330.643 368.038C330.429 367.756 330.158 367.523 329.847 367.354C327.969 366.388 324.606 368.165 323.275 369.496C323.166 369.605 321.853 371.246 321.634 371.565C321.634 371.456 321.689 371.346 321.716 371.237C322.298 369.419 323.039 367.656 323.931 365.968C324.405 365.057 324.916 364.145 325.435 363.316C326.037 363.616 328.79 364.956 330.257 365.011C331.725 365.066 333.466 364.756 334.414 363.598C334.644 363.334 334.816 363.025 334.92 362.69C335.023 362.356 335.055 362.003 335.014 361.655C334.973 361.308 334.859 360.972 334.68 360.671C334.502 360.37 334.262 360.109 333.976 359.907C332.217 358.74 328.68 360.144 327.204 361.319C327.131 361.383 326.383 362.122 325.855 362.669C326.092 362.295 326.329 361.903 326.566 361.556C327.477 360.226 328.389 359.059 329.136 358.038C329.592 357.455 330.048 356.944 330.421 356.47C331.16 356.47 334.149 356.361 335.453 355.75C336.756 355.139 338.187 354.036 338.497 352.578C338.58 352.237 338.589 351.883 338.526 351.538C338.463 351.194 338.329 350.866 338.131 350.577C337.934 350.287 337.677 350.042 337.379 349.858C337.081 349.674 336.748 349.554 336.401 349.506C334.304 349.278 331.843 352.15 331.05 353.872C330.977 354.027 330.212 356.47 330.248 356.47H330.294C329.902 356.917 329.473 357.382 329.027 357.947C328.206 358.959 327.295 360.107 326.374 361.42C325.377 362.826 324.464 364.29 323.64 365.804C322.702 367.497 321.915 369.269 321.288 371.1C321.291 371.121 321.291 371.143 321.288 371.164C321.288 370.544 321.288 368.812 321.288 368.685C321.042 366.862 319.465 363.343 317.396 362.96C317.05 362.907 316.697 362.928 316.359 363.02C316.022 363.113 315.707 363.275 315.437 363.497C315.166 363.719 314.945 363.995 314.788 364.308C314.631 364.62 314.541 364.962 314.524 365.312C314.397 366.798 315.436 368.283 316.521 369.222C317.706 370.28 320.996 371.301 321.261 371.383C320.668 373.26 320.202 375.176 319.866 377.116C319.665 378.246 319.501 379.386 319.346 380.534C319.346 379.996 319.346 379.522 319.346 379.459C319.1 377.59 317.523 374.117 315.463 373.734C315.117 373.68 314.763 373.7 314.424 373.792C314.085 373.883 313.77 374.045 313.498 374.267C313.226 374.489 313.004 374.766 312.847 375.079C312.689 375.393 312.599 375.736 312.583 376.086C312.455 377.572 313.54 379.058 314.588 379.987C315.636 380.917 318.435 381.874 319.146 382.111L318.982 383.433C318.726 385.548 318.48 387.662 318.18 389.731C318.079 390.461 317.943 391.172 317.815 391.883C317.815 391.409 317.815 390.971 317.815 390.971C317.578 389.148 315.992 385.63 313.932 385.247C313.585 385.193 313.231 385.212 312.893 385.304C312.554 385.396 312.239 385.558 311.967 385.78C311.695 386.002 311.473 386.278 311.315 386.592C311.158 386.905 311.068 387.248 311.052 387.599C310.933 389.084 312.009 390.57 313.057 391.5C314.426 392.42 315.93 393.121 317.514 393.578C317.359 394.307 317.204 395.036 317.022 395.729C316.894 396.203 316.794 396.641 316.63 397.142C316.466 397.643 316.329 398.054 316.183 398.528C315.864 399.394 315.545 400.296 315.217 401.144C314.989 401.727 314.761 402.283 314.534 402.848C314.652 402.119 314.843 400.697 314.853 400.579C314.828 398.922 314.379 397.3 313.549 395.866C313.563 395.681 313.563 395.495 313.549 395.31C313.505 394.962 313.388 394.628 313.206 394.329C313.024 394.029 312.781 393.772 312.493 393.572C312.205 393.373 311.879 393.236 311.535 393.171C311.19 393.106 310.836 393.114 310.495 393.195C308.454 393.733 307.159 397.315 307.068 399.193C307.068 399.302 307.132 400.515 307.196 401.28C307.086 400.834 306.995 400.369 306.886 399.95C306.667 399.038 306.43 398.127 306.175 397.215C306.038 396.759 305.892 396.304 305.756 395.82C305.619 395.337 305.427 394.909 305.263 394.398C304.853 393.296 304.397 392.193 303.905 391.099C304.698 390.916 307.487 390.187 308.609 389.34C309.73 388.492 310.906 387.079 310.897 385.593C310.907 385.239 310.842 384.886 310.706 384.559C310.57 384.232 310.366 383.937 310.108 383.695C309.849 383.453 309.542 383.268 309.206 383.154C308.871 383.04 308.515 382.998 308.162 383.032C306.066 383.26 304.242 386.605 303.869 388.446C303.869 388.565 303.714 389.923 303.668 390.661C303.367 390.014 303.067 389.349 302.757 388.701C301.845 386.815 300.806 384.928 299.813 383.05C299.503 382.467 299.211 381.892 298.901 381.318C299.174 381.245 302.547 380.48 303.778 379.495C304.89 378.638 306.075 377.235 306.066 375.749C306.076 375.395 306.011 375.042 305.875 374.715C305.739 374.388 305.535 374.093 305.276 373.851C305.018 373.609 304.711 373.424 304.375 373.31C304.04 373.195 303.684 373.154 303.331 373.187C301.234 373.415 299.411 376.761 299.029 378.602C299.029 378.739 298.828 380.689 298.81 381.191C298.144 379.914 297.497 378.647 296.914 377.362C296.113 375.637 295.425 373.862 294.854 372.048C294.981 372.048 298.5 371.219 299.758 370.225C300.879 369.368 302.055 367.964 302.046 366.479C302.056 366.124 301.992 365.772 301.855 365.445C301.719 365.117 301.515 364.823 301.257 364.581C300.998 364.338 300.691 364.154 300.355 364.04C300.02 363.925 299.664 363.884 299.311 363.917C297.215 364.145 295.392 367.49 295.018 369.332C295.018 369.478 294.799 371.583 294.79 371.957C294.79 371.857 294.708 371.747 294.681 371.647C294.16 369.811 293.803 367.932 293.614 366.032C293.496 364.984 293.441 363.972 293.414 362.988C294.079 362.906 297.114 362.504 298.363 361.748C299.612 360.991 300.906 359.752 301.052 358.266C301.101 357.919 301.076 357.565 300.979 357.229C300.882 356.892 300.715 356.579 300.488 356.312C300.262 356.044 299.982 355.827 299.666 355.676C299.35 355.524 299.005 355.44 298.655 355.431C296.54 355.431 294.371 358.548 293.787 360.344C293.787 360.444 293.541 361.465 293.405 362.213C293.405 361.775 293.405 361.301 293.405 360.891C293.405 359.296 293.514 357.837 293.614 356.543C293.669 355.805 293.742 355.139 293.815 354.52C294.425 354.1 296.868 352.377 297.616 351.147C298.363 349.916 298.956 348.212 298.409 346.826C298.29 346.496 298.104 346.194 297.861 345.94C297.618 345.687 297.325 345.487 297 345.353C296.675 345.22 296.326 345.157 295.975 345.167C295.624 345.177 295.28 345.261 294.963 345.414C293.095 346.38 292.602 350.153 292.912 352.013C292.912 352.177 293.642 354.638 293.678 354.62C293.596 355.212 293.514 355.85 293.441 356.552C293.313 357.847 293.177 359.287 293.14 360.909C293.077 362.636 293.117 364.365 293.259 366.087C293.407 368.017 293.731 369.93 294.225 371.802C294.222 371.823 294.222 371.845 294.225 371.866C293.888 371.346 292.912 369.915 292.83 369.815C291.591 368.393 288.373 366.36 286.45 367.181C286.131 367.328 285.847 367.54 285.616 367.804C285.385 368.068 285.212 368.378 285.108 368.713C285.004 369.048 284.972 369.401 285.013 369.749C285.054 370.098 285.168 370.434 285.347 370.735C285.976 371.92 287.698 372.568 289.093 372.768Z" fill="#263238"/>
<path d="M325.28 362.85C325.28 362.85 325.945 360.389 325.973 360.234C326.228 358.411 325.635 354.601 323.739 353.689C323.42 353.545 323.073 353.47 322.722 353.469C322.372 353.468 322.025 353.541 321.704 353.683C321.383 353.825 321.096 354.032 320.861 354.293C320.626 354.553 320.448 354.86 320.339 355.193C319.829 356.588 320.476 358.311 321.251 359.487C322.135 360.881 325.271 362.85 325.28 362.85Z" fill="#263238"/>
<path d="M246.316 371.318C247.561 371.645 248.848 371.786 250.135 371.738C250.135 371.738 249.551 369.96 249.506 369.86C248.913 368.611 247.027 366.56 245.495 366.761C245.241 366.801 244.998 366.895 244.783 367.036C244.567 367.177 244.384 367.363 244.245 367.58C244.107 367.797 244.016 368.041 243.978 368.295C243.941 368.55 243.958 368.81 244.028 369.058C244.224 369.577 244.531 370.047 244.925 370.437C245.32 370.827 245.794 371.128 246.316 371.318Z" fill="#263238"/>
<path d="M247.253 379.168C248.528 379.158 249.793 378.958 251.009 378.575C251.407 379.962 251.897 381.32 252.476 382.641C252.817 383.406 253.172 384.172 253.543 384.938C253.324 384.61 253.123 384.327 253.087 384.291C252.175 383.242 249.833 381.757 248.411 382.367C248.178 382.474 247.97 382.628 247.801 382.819C247.632 383.011 247.504 383.237 247.428 383.481C247.351 383.725 247.327 383.983 247.357 384.237C247.386 384.491 247.469 384.736 247.6 384.956C247.922 385.408 248.34 385.783 248.824 386.055C249.307 386.328 249.845 386.491 250.398 386.533C251.635 386.537 252.865 386.35 254.044 385.977L254.482 386.888C255.183 388.283 255.885 389.623 256.532 391.054C256.76 391.537 256.97 392.029 257.18 392.522C256.988 392.23 256.815 391.993 256.788 391.957C255.876 390.917 253.524 389.432 252.112 390.033C251.878 390.139 251.669 390.294 251.498 390.486C251.328 390.679 251.2 390.905 251.124 391.15C251.047 391.396 251.023 391.654 251.054 391.91C251.084 392.165 251.168 392.411 251.3 392.631C251.624 393.081 252.042 393.456 252.526 393.728C253.009 394 253.546 394.164 254.099 394.208C255.305 394.216 256.504 394.034 257.654 393.67C257.854 394.181 258.055 394.682 258.228 395.183C258.337 395.53 258.465 395.849 258.556 396.204C258.647 396.56 258.747 396.888 258.839 397.234C259.003 397.89 259.167 398.574 259.304 399.221C259.404 399.668 259.495 400.133 259.577 400.534C259.358 400.042 258.902 399.094 258.857 399.021C258.119 397.854 256.013 396.031 254.518 396.414C254.271 396.483 254.041 396.604 253.844 396.769C253.647 396.933 253.487 397.137 253.374 397.368C253.262 397.599 253.199 397.85 253.19 398.107C253.181 398.364 253.227 398.619 253.324 398.857C253.578 399.35 253.936 399.783 254.373 400.125C254.811 400.466 255.317 400.708 255.858 400.835C257.112 401.027 258.387 401.027 259.641 400.835C259.787 401.555 259.923 402.257 260.033 402.913C260.288 404.371 260.488 405.648 260.634 406.796H261.637C261.464 405.648 261.227 404.28 260.926 402.749C260.78 402.02 260.616 401.245 260.434 400.443C261.158 400.154 261.864 399.822 262.549 399.449C263.477 400.249 264.51 400.918 265.62 401.436C265.347 402.111 265.073 402.776 264.809 403.387C264.244 404.672 263.715 405.821 263.241 406.796H264.372C264.782 405.885 265.219 404.873 265.684 403.742C265.967 403.059 266.258 402.32 266.541 401.555C267.779 401.846 269.055 401.945 270.324 401.846C270.875 401.755 271.399 401.545 271.861 401.23C272.322 400.915 272.709 400.503 272.994 400.023C273.109 399.793 273.173 399.542 273.183 399.285C273.194 399.029 273.149 398.773 273.054 398.534C272.958 398.296 272.814 398.081 272.629 397.902C272.444 397.724 272.224 397.586 271.983 397.499C270.515 397.006 268.282 398.665 267.425 399.777C267.38 399.841 266.933 400.607 266.659 401.099C266.778 400.789 266.896 400.488 267.015 400.188C267.243 399.559 267.462 398.911 267.689 398.219C267.79 397.881 267.899 397.544 267.999 397.198C268.1 396.851 268.182 396.487 268.273 396.131C268.473 395.293 268.637 394.436 268.774 393.57C269.92 394.023 271.128 394.3 272.356 394.39C272.912 394.39 273.461 394.269 273.965 394.034C274.469 393.8 274.916 393.458 275.273 393.032C275.422 392.822 275.524 392.583 275.573 392.33C275.622 392.077 275.617 391.817 275.559 391.567C275.5 391.316 275.389 391.081 275.233 390.876C275.077 390.672 274.88 390.502 274.653 390.38C273.286 389.678 270.825 390.981 269.85 391.947C269.786 392.011 269.166 392.786 268.829 393.224C268.911 392.704 268.993 392.184 269.057 391.647C269.248 390.115 269.394 388.566 269.549 387.016C269.595 386.533 269.64 386.059 269.695 385.594C270.878 386.066 272.126 386.358 273.396 386.46C273.952 386.456 274.5 386.332 275.004 386.096C275.507 385.86 275.954 385.518 276.312 385.093C276.459 384.883 276.56 384.644 276.608 384.393C276.657 384.141 276.651 383.882 276.593 383.633C276.534 383.383 276.424 383.149 276.269 382.945C276.114 382.741 275.917 382.572 275.693 382.449C274.325 381.738 271.864 383.042 270.889 384.017C270.807 384.09 269.914 385.211 269.704 385.503C269.813 384.464 269.932 383.425 270.096 382.404C270.311 381.024 270.616 379.66 271.007 378.32C272.197 378.809 273.454 379.116 274.735 379.232C275.29 379.229 275.838 379.105 276.34 378.869C276.842 378.633 277.287 378.29 277.643 377.864C277.792 377.655 277.894 377.416 277.944 377.164C277.994 376.912 277.99 376.652 277.932 376.401C277.875 376.151 277.765 375.915 277.61 375.71C277.455 375.505 277.258 375.336 277.033 375.212C275.656 374.51 273.195 375.814 272.22 376.789C272.147 376.862 271.181 378.065 271.026 378.293C271.026 378.22 271.026 378.138 271.089 378.056C271.509 376.724 272.049 375.434 272.703 374.2C273.049 373.517 273.423 372.878 273.806 372.268C274.912 372.858 276.101 373.276 277.333 373.507C277.886 373.564 278.444 373.5 278.969 373.321C279.495 373.141 279.975 372.85 280.378 372.468C280.554 372.275 280.686 372.047 280.766 371.799C280.846 371.55 280.872 371.287 280.842 371.028C280.812 370.769 280.726 370.519 280.591 370.296C280.456 370.073 280.274 369.881 280.059 369.734C278.764 368.877 276.176 369.907 275.1 370.764C275.045 370.809 274.498 371.347 274.107 371.748C274.28 371.475 274.462 371.192 274.635 370.937C275.282 369.962 275.93 369.114 276.513 368.357L277.424 367.209C278.659 367.221 279.888 367.046 281.071 366.689C281.589 366.489 282.057 366.176 282.441 365.775C282.826 365.373 283.117 364.892 283.295 364.365C283.357 364.116 283.367 363.857 283.322 363.604C283.278 363.352 283.181 363.111 283.037 362.899C282.893 362.686 282.706 362.506 282.489 362.371C282.271 362.236 282.027 362.148 281.772 362.113C280.232 361.949 278.409 364.055 277.844 365.313C277.844 365.422 277.233 367.218 277.27 367.218C276.978 367.555 276.668 367.911 276.358 368.303C275.766 369.041 275.091 369.88 274.416 370.846C273.688 371.878 273.015 372.949 272.402 374.054C271.744 375.278 271.192 376.556 270.752 377.874V377.919C270.752 377.472 270.752 376.205 270.752 376.096C270.57 374.729 269.421 372.195 267.908 371.912C267.655 371.871 267.395 371.884 267.147 371.95C266.898 372.015 266.666 372.133 266.467 372.295C266.267 372.457 266.104 372.659 265.988 372.888C265.872 373.118 265.806 373.369 265.794 373.626C265.816 374.181 265.96 374.724 266.213 375.218C266.466 375.712 266.824 376.146 267.261 376.488C268.331 377.186 269.498 377.72 270.725 378.074C270.294 379.447 269.956 380.848 269.713 382.267C269.567 383.097 269.44 383.926 269.33 384.774C269.33 384.382 269.33 384.026 269.33 383.981C269.148 382.613 267.999 380.07 266.486 379.797C266.232 379.755 265.972 379.768 265.723 379.835C265.473 379.901 265.241 380.02 265.042 380.183C264.842 380.346 264.679 380.549 264.563 380.779C264.448 381.01 264.382 381.262 264.372 381.52C264.391 382.075 264.533 382.619 264.787 383.114C265.04 383.609 265.4 384.041 265.839 384.382C266.872 385.066 268.003 385.588 269.193 385.931C269.193 386.25 269.111 386.579 269.075 386.898C268.884 388.447 268.71 389.997 268.483 391.51C268.41 392.039 268.309 392.567 268.218 393.087C268.218 392.74 268.218 392.449 268.218 392.403C268.045 391.036 266.896 388.493 265.374 388.21C265.12 388.17 264.861 388.184 264.613 388.251C264.365 388.318 264.134 388.437 263.936 388.6C263.737 388.763 263.575 388.965 263.46 389.195C263.345 389.425 263.28 389.676 263.269 389.933C263.291 390.488 263.434 391.031 263.687 391.526C263.941 392.02 264.299 392.453 264.736 392.795C265.739 393.465 266.84 393.976 267.999 394.308C267.881 394.846 267.771 395.375 267.635 395.885C267.544 396.232 267.471 396.578 267.352 396.915L267.024 397.936C266.787 398.574 266.559 399.23 266.313 399.85C266.149 400.279 265.985 400.68 265.821 401.09C265.903 400.561 266.04 399.522 266.049 399.431C266.041 398.224 265.728 397.038 265.137 395.985C265.155 395.849 265.155 395.711 265.137 395.575C265.106 395.321 265.021 395.075 264.888 394.856C264.756 394.636 264.578 394.447 264.367 394.301C264.156 394.155 263.917 394.055 263.665 394.007C263.413 393.96 263.154 393.966 262.904 394.026C261.418 394.427 260.47 397.043 260.397 398.419C260.397 398.501 260.443 399.385 260.488 399.951C260.416 399.622 260.343 399.303 260.261 398.975C260.106 398.319 259.932 397.663 259.741 396.952C259.641 396.623 259.54 396.277 259.431 395.931C259.322 395.584 259.194 395.238 259.076 394.892C258.784 394.08 258.438 393.278 258.082 392.476C259.29 392.227 260.452 391.794 261.528 391.191C261.987 390.882 262.374 390.478 262.663 390.006C262.953 389.534 263.137 389.006 263.205 388.456C263.212 388.199 263.165 387.944 263.067 387.707C262.969 387.469 262.821 387.255 262.634 387.079C262.448 386.902 262.226 386.767 261.983 386.683C261.741 386.598 261.483 386.566 261.227 386.588C259.695 386.752 258.356 389.195 258.082 390.544C258.082 390.635 257.973 391.619 257.936 392.166C257.717 391.692 257.499 391.209 257.262 390.726C256.578 389.35 255.84 387.991 255.111 386.597L254.445 385.33C255.692 385.067 256.893 384.622 258.009 384.008C258.47 383.701 258.859 383.298 259.149 382.825C259.438 382.353 259.622 381.824 259.686 381.274C259.694 381.018 259.647 380.763 259.549 380.526C259.451 380.289 259.305 380.076 259.119 379.9C258.933 379.723 258.712 379.588 258.471 379.503C258.229 379.418 257.973 379.384 257.717 379.405C256.177 379.569 254.846 382.012 254.573 383.361C254.573 383.47 254.418 384.892 254.409 385.257C253.926 384.345 253.452 383.434 253.023 382.459C252.432 381.196 251.927 379.896 251.51 378.566C252.767 378.304 253.977 377.856 255.101 377.235C255.564 376.93 255.954 376.527 256.243 376.054C256.533 375.582 256.716 375.052 256.779 374.501C256.787 374.243 256.741 373.987 256.644 373.748C256.546 373.51 256.399 373.295 256.212 373.117C256.025 372.94 255.802 372.804 255.559 372.719C255.316 372.634 255.057 372.601 254.801 372.623C253.269 372.796 251.938 375.239 251.656 376.588C251.656 376.698 251.501 378.229 251.492 378.512C251.469 378.431 251.441 378.352 251.41 378.275C251.03 376.93 250.771 375.554 250.635 374.164C250.544 373.398 250.507 372.66 250.48 371.949C251.735 371.831 252.964 371.524 254.126 371.037C254.619 370.782 255.051 370.422 255.391 369.983C255.731 369.544 255.971 369.036 256.095 368.494C256.131 368.239 256.113 367.98 256.042 367.733C255.97 367.486 255.848 367.257 255.681 367.06C255.515 366.864 255.309 366.705 255.078 366.594C254.846 366.483 254.593 366.422 254.336 366.416C252.795 366.416 251.2 368.695 250.781 370.007C250.781 370.08 250.599 370.828 250.498 371.384C250.498 371.055 250.498 370.718 250.498 370.408C250.498 369.241 250.571 368.175 250.644 367.227C250.69 366.689 250.744 366.197 250.799 365.75C251.794 365.065 252.682 364.235 253.433 363.289C253.753 362.836 253.97 362.317 254.069 361.771C254.169 361.225 254.148 360.664 254.008 360.126C253.923 359.884 253.788 359.662 253.611 359.475C253.434 359.288 253.22 359.141 252.983 359.043C252.745 358.945 252.489 358.898 252.232 358.906C251.976 358.913 251.723 358.975 251.492 359.087C250.125 359.798 249.76 362.56 249.988 363.918C249.988 364.037 250.526 365.842 250.553 365.823C250.498 366.261 250.434 366.735 250.38 367.245C250.289 368.157 250.188 369.26 250.161 370.436C250.121 371.697 250.151 372.96 250.252 374.218C250.364 375.631 250.599 377.031 250.954 378.402C250.954 378.402 250.954 378.402 250.954 378.448C250.708 378.065 249.997 377.017 249.933 376.944C249.022 375.905 246.67 374.419 245.248 375.021C245.014 375.127 244.805 375.281 244.635 375.473C244.464 375.666 244.337 375.892 244.26 376.138C244.184 376.383 244.16 376.642 244.19 376.897C244.22 377.152 244.305 377.398 244.437 377.618C244.765 378.066 245.188 378.436 245.674 378.704C246.16 378.972 246.699 379.13 247.253 379.168Z" fill="#263238"/>
<path d="M273.733 371.912C273.733 371.912 274.226 370.089 274.244 369.989C274.435 368.631 273.998 365.878 272.603 365.204C272.369 365.099 272.116 365.045 271.86 365.044C271.604 365.044 271.351 365.098 271.117 365.202C270.883 365.306 270.674 365.458 270.503 365.648C270.332 365.839 270.203 366.063 270.124 366.306C269.999 366.847 269.993 367.408 270.106 367.951C270.219 368.494 270.449 369.006 270.78 369.451C271.639 370.412 272.634 371.241 273.733 371.912Z" fill="#263238"/>
<path d="M323.995 53.1334C323.236 56.1327 323.429 59.2939 324.548 62.1784C325.667 65.0628 327.656 67.5276 330.238 69.2308C332.821 70.934 335.87 71.7911 338.962 71.6833C342.054 71.5755 345.036 70.5081 347.494 68.6292L353.264 74.153C353.115 74.7548 353.126 75.385 353.296 75.9812C353.465 76.5775 353.787 77.1192 354.23 77.553L366.763 89.8311C367.1 90.1573 367.497 90.4141 367.933 90.5867C368.368 90.7593 368.833 90.8445 369.302 90.8373C369.77 90.8301 370.233 90.7307 370.663 90.5448C371.093 90.3588 371.482 90.09 371.808 89.7537C372.135 89.4173 372.391 89.02 372.564 88.5844C372.737 88.1488 372.822 87.6835 372.815 87.215C372.807 86.7465 372.708 86.284 372.522 85.8539C372.336 85.4238 372.067 85.0346 371.731 84.7084L359.17 72.4211C358.718 71.9857 358.159 71.6773 357.549 71.5269C356.939 71.3764 356.301 71.3894 355.697 71.5643L350.055 66.1317C351.417 64.463 352.394 62.5148 352.917 60.4256C353.396 58.5265 353.496 56.5517 353.212 54.614C352.927 52.6762 352.264 50.8135 351.26 49.132C350.256 47.4506 348.93 45.9835 347.359 44.8144C345.787 43.6453 344.001 42.7971 342.102 42.3183C340.203 41.8395 338.228 41.7394 336.291 42.0238C334.353 42.3082 332.49 42.9714 330.809 43.9757C329.127 44.98 327.66 46.3056 326.491 47.8769C325.322 49.4482 324.474 51.2344 323.995 53.1334V53.1334ZM350.329 59.7511C349.738 62.0993 348.464 64.2195 346.667 65.8435C344.871 67.4675 342.634 68.5224 340.238 68.8748C337.843 69.2271 335.396 68.8611 333.209 67.823C331.021 66.7849 329.191 65.1213 327.949 63.0427C326.707 60.9641 326.109 58.5638 326.231 56.1455C326.353 53.7272 327.19 51.3994 328.635 49.4566C330.08 47.5138 332.069 46.0433 334.351 45.231C336.632 44.4188 339.102 44.3012 341.45 44.8933C344.596 45.6891 347.298 47.7005 348.962 50.486C350.627 53.2715 351.118 56.6036 350.329 59.7511Z" stroke="#263238" stroke-width="0.911517" stroke-miterlimit="10"/>
<path d="M48.3433 233.77C46.0824 234.31 44.0456 235.54 42.5153 237.29C40.985 239.04 40.037 241.223 39.8026 243.536C39.5682 245.848 40.0591 248.177 41.2072 250.198C42.3553 252.219 44.1038 253.833 46.2103 254.816L44.5331 260.586C44.08 260.695 43.6632 260.921 43.3242 261.241C42.9852 261.56 42.7358 261.963 42.6007 262.409L38.7268 275.052C38.5359 275.737 38.6195 276.47 38.9599 277.094C39.3002 277.719 39.8705 278.186 40.5498 278.397C41.235 278.588 41.9676 278.505 42.5922 278.164C43.2167 277.824 43.6841 277.254 43.8951 276.574L47.7417 263.932C47.8785 263.478 47.8915 262.997 47.7793 262.537C47.6671 262.077 47.4338 261.655 47.1036 261.316L48.7626 255.646C50.4088 255.985 52.1102 255.95 53.7409 255.542C55.3716 255.135 56.8898 254.367 58.1834 253.293C59.4769 252.22 60.5126 250.87 61.2138 249.342C61.915 247.815 62.2638 246.149 62.2344 244.469C62.205 242.788 61.7981 241.136 61.0439 239.634C60.2896 238.132 59.2073 236.818 57.8771 235.791C56.5468 234.764 55.0026 234.049 53.3586 233.699C51.7147 233.349 50.0131 233.373 48.3797 233.77H48.3433ZM53.0649 253.641C51.2934 254.062 49.4367 253.948 47.7297 253.314C46.0227 252.68 44.542 251.554 43.475 250.079C42.4079 248.603 41.8024 246.844 41.7351 245.025C41.6677 243.205 42.1414 241.406 43.0964 239.856C44.0514 238.305 45.4447 237.073 47.1002 236.314C48.7556 235.556 50.5988 235.305 52.3967 235.594C54.1945 235.884 55.8663 236.699 57.2005 237.939C58.5347 239.178 59.4714 240.785 59.8922 242.557C60.455 244.926 60.0565 247.423 58.784 249.5C57.5115 251.577 55.4684 253.066 53.1014 253.641H53.0649Z" stroke="#263238" stroke-width="0.911517" stroke-miterlimit="10"/>
<path d="M352.244 149.763H325.81C324.093 149.763 322.447 150.445 321.233 151.659C320.02 152.872 319.338 154.519 319.338 156.235V170.865C319.338 172.581 320.02 174.227 321.233 175.441C322.447 176.655 324.093 177.337 325.81 177.337H344.222L343.311 186.452L351.879 177.337H352.244C353.094 177.337 353.935 177.169 354.72 176.844C355.506 176.519 356.219 176.042 356.82 175.441C357.421 174.84 357.898 174.127 358.223 173.341C358.548 172.556 358.715 171.715 358.715 170.865V156.235C358.715 155.385 358.548 154.544 358.223 153.758C357.898 152.973 357.421 152.26 356.82 151.659C356.219 151.058 355.506 150.581 354.72 150.256C353.935 149.931 353.094 149.763 352.244 149.763V149.763Z" stroke="#263238" stroke-width="0.911517" stroke-miterlimit="10"/>
<path d="M50.2584 184.4H68.1697C68.7455 184.4 69.3156 184.514 69.8476 184.734C70.3795 184.954 70.8628 185.277 71.27 185.685C71.6771 186.092 72.0001 186.575 72.2204 187.107C72.4407 187.639 72.5541 188.209 72.5541 188.785V198.693C72.5541 199.269 72.4407 199.839 72.2204 200.371C72.0001 200.903 71.6771 201.386 71.27 201.793C70.8628 202.2 70.3795 202.523 69.8476 202.744C69.3156 202.964 68.7455 203.077 68.1697 203.077H55.7002L56.3474 209.239L50.5045 203.077H50.2584C49.0956 203.077 47.9804 202.615 47.1582 201.793C46.3359 200.971 45.874 199.856 45.874 198.693V188.785C45.874 187.622 46.3359 186.507 47.1582 185.685C47.9804 184.862 49.0956 184.4 50.2584 184.4Z" stroke="#263238" stroke-width="0.911517" stroke-miterlimit="10"/>
<path d="M182.656 17.374H200.568C201.731 17.374 202.846 17.836 203.668 18.6582C204.49 19.4804 204.952 20.5956 204.952 21.7584V31.6666C204.952 32.8294 204.49 33.9446 203.668 34.7669C202.846 35.5891 201.731 36.051 200.568 36.051H188.098L188.745 42.2129L182.902 36.051H182.656C181.494 36.051 180.378 35.5891 179.556 34.7669C178.734 33.9446 178.272 32.8294 178.272 31.6666V21.7584C178.272 20.5956 178.734 19.4804 179.556 18.6582C180.378 17.836 181.494 17.374 182.656 17.374V17.374Z" stroke="#263238" stroke-width="0.911517" stroke-miterlimit="10"/>
<path d="M158.318 37.501L202.144 159.972L296.258 39.4334" stroke="#263238" stroke-width="0.911517" stroke-miterlimit="10"/>
<path d="M333.639 117.431L202.143 159.972L290.451 259.236" stroke="#263238" stroke-width="0.911517" stroke-miterlimit="10"/>
<path d="M100.947 255.371L202.144 159.972L64.2039 136.765" stroke="#263238" stroke-width="0.911517" stroke-miterlimit="10"/>
<path d="M344.892 123.995C348.306 117.474 345.787 109.421 339.266 106.008C332.745 102.595 324.692 105.114 321.279 111.634C317.866 118.155 320.385 126.208 326.906 129.621C333.426 133.034 341.479 130.515 344.892 123.995Z" fill="#263238" stroke="#263238" stroke-width="0.455759" stroke-miterlimit="10"/>
<path d="M337.495 116.894H328.809C327.994 116.894 327.213 117.218 326.637 117.794C326.06 118.37 325.737 119.151 325.737 119.966V127.258C327.86 128.914 330.48 129.804 333.173 129.783C335.865 129.761 338.471 128.83 340.567 127.139V119.966C340.567 119.151 340.244 118.37 339.667 117.794C339.091 117.218 338.31 116.894 337.495 116.894Z" fill="white" stroke="#263238" stroke-width="0.911517" stroke-miterlimit="10"/>
<path d="M333.002 115.554C333.877 115.554 334.732 115.294 335.459 114.809C336.186 114.323 336.752 113.632 337.087 112.825C337.421 112.017 337.509 111.128 337.338 110.27C337.168 109.413 336.747 108.625 336.128 108.007C335.51 107.388 334.722 106.967 333.865 106.797C333.007 106.626 332.118 106.714 331.311 107.048C330.503 107.383 329.812 107.95 329.327 108.677C328.841 109.404 328.582 110.258 328.582 111.133C328.582 112.305 329.047 113.43 329.876 114.259C330.705 115.088 331.83 115.554 333.002 115.554Z" fill="white" stroke="#263238" stroke-width="0.911517" stroke-miterlimit="10"/>
<path d="M304.098 259.646C306.939 252.857 303.739 245.05 296.949 242.208C290.16 239.367 282.353 242.567 279.511 249.357C276.67 256.146 279.87 263.953 286.66 266.795C293.449 269.636 301.256 266.436 304.098 259.646Z" fill="#263238" stroke="#263238" stroke-width="0.455759" stroke-miterlimit="10"/>
<path d="M296.276 253.622H287.589C287.186 253.621 286.787 253.699 286.415 253.853C286.042 254.006 285.703 254.231 285.418 254.516C285.132 254.8 284.906 255.138 284.752 255.511C284.597 255.883 284.518 256.282 284.518 256.685V263.977C286.64 265.633 289.261 266.523 291.953 266.502C294.646 266.48 297.252 265.549 299.348 263.858V256.685C299.348 256.282 299.268 255.883 299.114 255.511C298.959 255.138 298.733 254.8 298.448 254.516C298.162 254.231 297.824 254.006 297.451 253.853C297.078 253.699 296.679 253.621 296.276 253.622Z" fill="white" stroke="#263238" stroke-width="0.911517" stroke-miterlimit="10"/>
<path d="M291.719 252.272C292.594 252.272 293.448 252.013 294.175 251.527C294.902 251.041 295.469 250.351 295.804 249.543C296.138 248.735 296.226 247.846 296.055 246.989C295.885 246.131 295.463 245.343 294.845 244.725C294.227 244.107 293.439 243.686 292.582 243.515C291.724 243.345 290.835 243.432 290.027 243.767C289.22 244.101 288.529 244.668 288.043 245.395C287.558 246.122 287.298 246.977 287.298 247.851C287.298 248.432 287.413 249.006 287.635 249.543C287.857 250.079 288.183 250.567 288.593 250.977C289.004 251.388 289.491 251.713 290.027 251.935C290.564 252.158 291.139 252.272 291.719 252.272Z" fill="white" stroke="#263238" stroke-width="0.911517" stroke-miterlimit="10"/>
<path d="M157.745 46.1057C162.97 46.1057 167.206 41.8696 167.206 36.6442C167.206 31.4187 162.97 27.1826 157.745 27.1826C152.519 27.1826 148.283 31.4187 148.283 36.6442C148.283 41.8696 152.519 46.1057 157.745 46.1057Z" fill="#263238" stroke="#263238" stroke-width="0.455759" stroke-miterlimit="10"/>
<path d="M160.88 36.0513H154.718C154.14 36.0513 153.586 36.2808 153.178 36.6893C152.769 37.0979 152.54 37.652 152.54 38.2298V43.3434C154.047 44.5147 155.905 45.1437 157.813 45.1288C159.722 45.1139 161.57 44.456 163.058 43.2614V38.1842C163.047 37.6144 162.812 37.0719 162.404 36.6731C161.997 36.2744 161.45 36.0511 160.88 36.0513Z" fill="white" stroke="#263238" stroke-width="0.911517" stroke-miterlimit="10"/>
<path d="M157.724 35.0491C158.345 35.0491 158.951 34.8652 159.467 34.5206C159.982 34.1761 160.384 33.6864 160.621 33.1134C160.859 32.5404 160.921 31.91 160.8 31.3017C160.679 30.6935 160.38 30.1348 159.942 29.6962C159.503 29.2577 158.944 28.9591 158.336 28.8381C157.728 28.7171 157.097 28.7792 156.525 29.0165C155.952 29.2538 155.462 29.6557 155.117 30.1714C154.773 30.687 154.589 31.2933 154.589 31.9135C154.589 32.7451 154.919 33.5426 155.507 34.1307C156.095 34.7187 156.893 35.0491 157.724 35.0491Z" fill="white" stroke="#263238" stroke-width="0.911517" stroke-miterlimit="10"/>
<path d="M108.228 257.468C110.24 252.645 107.962 247.104 103.14 245.092C98.3173 243.08 92.7766 245.358 90.7643 250.18C88.7519 255.003 91.03 260.543 95.8524 262.556C100.675 264.568 106.216 262.29 108.228 257.468Z" fill="#263238" stroke="#263238" stroke-width="0.455759" stroke-miterlimit="10"/>
<path d="M102.634 253.184H96.4721C96.1845 253.183 95.8994 253.239 95.6335 253.348C95.3675 253.458 95.1259 253.619 94.9225 253.822C94.7191 254.026 94.558 254.267 94.4485 254.533C94.339 254.799 94.2832 255.084 94.2844 255.372V260.54C95.7903 261.718 97.6509 262.352 99.5628 262.337C101.475 262.322 103.325 261.66 104.812 260.458V255.372C104.814 255.085 104.758 254.801 104.649 254.535C104.54 254.27 104.38 254.029 104.178 253.825C103.975 253.622 103.735 253.461 103.47 253.351C103.205 253.241 102.921 253.184 102.634 253.184Z" fill="white" stroke="#263238" stroke-width="0.911517" stroke-miterlimit="10"/>
<path d="M99.4428 252.227C100.063 252.227 100.669 252.043 101.185 251.698C101.7 251.354 102.102 250.864 102.34 250.291C102.577 249.718 102.639 249.088 102.518 248.479C102.397 247.871 102.098 247.313 101.66 246.874C101.221 246.435 100.663 246.137 100.054 246.016C99.4462 245.895 98.8158 245.957 98.2428 246.194C97.6699 246.432 97.1801 246.833 96.8356 247.349C96.491 247.865 96.3071 248.471 96.3071 249.091C96.3071 249.923 96.6375 250.72 97.2255 251.308C97.8136 251.896 98.6111 252.227 99.4428 252.227Z" fill="white" stroke="#263238" stroke-width="0.911517" stroke-miterlimit="10"/>
<path d="M304.892 39.3951C306.795 34.5286 304.393 29.0406 299.527 27.1373C294.66 25.2341 289.172 27.6363 287.269 32.5028C285.366 37.3694 287.768 42.8573 292.634 44.7606C297.501 46.6639 302.989 44.2617 304.892 39.3951Z" fill="#263238" stroke="#263238" stroke-width="0.455759" stroke-miterlimit="10"/>
<path d="M299.238 35.313H293.067C292.781 35.313 292.498 35.3693 292.234 35.4788C291.969 35.5883 291.729 35.7488 291.527 35.9511C291.324 36.1534 291.164 36.3935 291.055 36.6578C290.945 36.9221 290.889 37.2054 290.889 37.4915V42.6689C292.397 43.8409 294.257 44.4703 296.167 44.4554C298.077 44.4405 299.927 43.7823 301.417 42.5869V37.4915C301.417 37.2054 301.36 36.9221 301.251 36.6578C301.141 36.3935 300.981 36.1534 300.779 35.9511C300.576 35.7488 300.336 35.5883 300.072 35.4788C299.808 35.3693 299.524 35.313 299.238 35.313Z" fill="white" stroke="#263238" stroke-width="0.911517" stroke-miterlimit="10"/>
<path d="M296.048 34.3557C296.668 34.3557 297.274 34.1718 297.79 33.8273C298.306 33.4827 298.708 32.993 298.945 32.42C299.182 31.8471 299.244 31.2166 299.123 30.6084C299.002 30.0001 298.704 29.4414 298.265 29.0029C297.827 28.5643 297.268 28.2657 296.66 28.1447C296.051 28.0237 295.421 28.0858 294.848 28.3232C294.275 28.5605 293.785 28.9624 293.441 29.478C293.096 29.9937 292.912 30.5999 292.912 31.2201C292.912 32.0517 293.243 32.8493 293.831 33.4373C294.419 34.0254 295.216 34.3557 296.048 34.3557Z" fill="white" stroke="#263238" stroke-width="0.911517" stroke-miterlimit="10"/>
<path d="M78.9537 141.22C82.6628 132.431 78.5446 122.299 69.7554 118.59C60.9662 114.881 50.8344 118.999 47.1253 127.788C43.4162 136.577 47.5345 146.709 56.3236 150.418C65.1128 154.127 75.2447 150.009 78.9537 141.22Z" fill="#263238" stroke="#263238" stroke-width="0.455759" stroke-miterlimit="10"/>
<path d="M68.7701 133.337H57.5129C56.458 133.337 55.4462 133.756 54.6994 134.501C53.9527 135.246 53.532 136.257 53.5295 137.312V146.755C56.2817 148.896 59.6755 150.046 63.1623 150.02C66.6491 149.993 70.025 148.792 72.7443 146.609V137.312C72.7443 136.258 72.3256 135.247 71.5803 134.501C70.835 133.756 69.8241 133.337 68.7701 133.337Z" fill="white" stroke="#263238" stroke-width="0.911517" stroke-miterlimit="10"/>
<path d="M62.927 131.587C64.0591 131.587 65.1659 131.252 66.1072 130.623C67.0486 129.994 67.7823 129.1 68.2156 128.054C68.6488 127.008 68.7622 125.857 68.5413 124.746C68.3204 123.636 67.7752 122.616 66.9747 121.815C66.1741 121.015 65.1541 120.47 64.0437 120.249C62.9333 120.028 61.7823 120.141 60.7364 120.574C59.6904 121.008 58.7964 121.741 58.1674 122.683C57.5384 123.624 57.2026 124.731 57.2026 125.863C57.2026 127.381 57.8057 128.837 58.8793 129.911C59.9528 130.984 61.4088 131.587 62.927 131.587Z" fill="white" stroke="#263238" stroke-width="0.911517" stroke-miterlimit="10"/>
<path d="M119.234 65.8031C119.234 65.7484 119.234 65.6937 119.234 65.639C118.975 63.2735 118.043 61.0319 116.549 59.1802C115.054 57.3286 113.06 55.9448 110.802 55.193C108.511 54.4154 106.037 54.3549 103.711 55.0198C104.226 53.2705 104.402 51.439 104.23 49.6236C103.892 45.9933 102.185 42.6275 99.4572 40.2085C96.729 37.7896 93.1832 36.4985 89.5384 36.597C85.8936 36.6956 82.4227 38.1764 79.8292 40.7392C77.2358 43.302 75.7138 46.7551 75.572 50.3984C75.3623 50.3984 75.1527 50.3984 74.943 50.3984C71.1307 50.3984 67.4744 51.9129 64.7786 54.6086C62.0829 57.3044 60.5684 60.9606 60.5684 64.773C60.5649 66.0604 60.7366 67.3422 61.0789 68.5832C61.5612 70.2499 62.5745 71.7135 63.9648 72.7516C65.355 73.7898 67.0461 74.3457 68.7812 74.3349H111.24C112.337 74.34 113.424 74.1187 114.432 73.6847C115.44 73.2506 116.347 72.6133 117.097 71.8125C117.848 71.0117 118.425 70.0646 118.792 69.0306C119.16 67.9966 119.31 66.8978 119.234 65.8031V65.8031Z" stroke="#263238" stroke-width="0.911517" stroke-miterlimit="10"/>
<path d="M337.296 211.71C337.292 211.68 337.292 211.649 337.296 211.619C337.158 210.339 336.655 209.126 335.847 208.125C335.039 207.123 333.96 206.374 332.739 205.968C331.502 205.546 330.166 205.514 328.91 205.876C329.193 204.932 329.292 203.942 329.202 202.96C329.067 200.961 328.165 199.092 326.683 197.744C325.201 196.395 323.255 195.673 321.253 195.727C319.25 195.781 317.346 196.608 315.94 198.034C314.533 199.461 313.733 201.376 313.706 203.379H313.369C311.311 203.381 309.338 204.201 307.883 205.657C306.429 207.113 305.612 209.087 305.612 211.145C305.614 211.838 305.706 212.527 305.886 213.196C306.144 214.098 306.69 214.89 307.44 215.453C308.19 216.016 309.104 216.318 310.042 216.313H332.958C333.552 216.32 334.141 216.203 334.688 215.971C335.235 215.738 335.728 215.395 336.135 214.962C336.543 214.53 336.857 214.017 337.056 213.458C337.256 212.898 337.338 212.303 337.296 211.71V211.71Z" stroke="#263238" stroke-width="0.911517" stroke-miterlimit="10"/>
<path d="M135.76 281.952C135.76 281.952 135.76 281.897 135.76 281.87C135.623 280.59 135.12 279.376 134.312 278.374C133.504 277.372 132.424 276.624 131.202 276.218C129.966 275.797 128.629 275.765 127.374 276.127C127.653 275.182 127.749 274.192 127.657 273.21C127.462 271.326 126.591 269.575 125.205 268.283C123.819 266.991 122.012 266.245 120.118 266.182C118.083 266.133 116.11 266.887 114.626 268.28C113.142 269.674 112.267 271.595 112.188 273.63H111.851C110.831 273.628 109.82 273.828 108.877 274.218C107.935 274.608 107.078 275.18 106.357 275.902C105.635 276.623 105.063 277.48 104.673 278.422C104.284 279.365 104.084 280.375 104.085 281.396C104.085 282.089 104.18 282.779 104.367 283.447C104.623 284.35 105.168 285.144 105.919 285.707C106.67 286.271 107.585 286.571 108.524 286.564H131.43C132.025 286.569 132.614 286.451 133.16 286.218C133.707 285.984 134.199 285.64 134.606 285.206C135.012 284.773 135.325 284.26 135.524 283.7C135.722 283.14 135.803 282.545 135.76 281.952V281.952Z" stroke="#263238" stroke-width="0.911517" stroke-miterlimit="10"/>
<path d="M266.199 44.5194C266.203 44.4922 266.203 44.4645 266.199 44.4373C266.063 43.1566 265.561 41.9421 264.753 40.9397C263.944 39.9372 262.864 39.1894 261.641 38.7859C260.405 38.3613 259.069 38.3263 257.813 38.6856C258.096 37.7443 258.192 36.7563 258.095 35.7779C257.96 33.7792 257.058 31.9101 255.576 30.5619C254.094 29.2138 252.148 28.4911 250.146 28.5453C248.143 28.5995 246.239 29.4263 244.833 30.8526C243.426 32.2789 242.626 34.1941 242.599 36.1972H242.262C241.068 36.2001 239.892 36.4777 238.823 37.0087C237.753 37.5396 236.821 38.3095 236.097 39.2587C235.374 40.208 234.878 41.3111 234.65 42.4826C234.421 43.6541 234.465 44.8625 234.779 46.0142C235.037 46.9159 235.583 47.7085 236.333 48.2712C237.083 48.834 237.997 49.1361 238.935 49.1316H261.851C262.447 49.1409 263.038 49.0258 263.588 48.7938C264.137 48.5617 264.632 48.2178 265.041 47.7839C265.45 47.3499 265.764 46.8355 265.964 46.2735C266.163 45.7114 266.243 45.114 266.199 44.5194V44.5194Z" stroke="#263238" stroke-width="0.911517" stroke-miterlimit="10"/>
<path d="M271.57 227.524C310.253 188.84 310.253 126.123 271.57 87.4393C232.886 48.756 170.169 48.756 131.485 87.4393C92.8021 126.122 92.8021 188.84 131.485 227.524C170.169 266.207 232.886 266.207 271.57 227.524Z" fill="white" stroke="#263238" stroke-width="0.911517" stroke-miterlimit="10"/>
<path d="M197.961 111.625L207.368 115.855L209.948 120.084L214.186 121.734L214.651 126.2L213.01 128.78L209.72 129.491L202.665 126.665V125.754L206.657 124.104L205.254 119.173L198.873 116.821L196.056 113.056L197.961 111.625ZM257.21 220.233L249.69 217.179L240.52 213.888H233.228L226.41 212.476L218.881 214.116L214.651 214.353H212.072L207.131 217.179L202.391 219.057L196.011 215.064L197.651 208.474L193.659 206.833H188.956L188.254 204.719L188.719 200.48L187.078 198.137L183.787 198.602L182.876 200.954L178.883 201.191L175.356 196.962L173.943 191.319L177.47 184.729L184.289 185.203L186.175 186.853H188.992L192.52 184.729L195.573 185.64L199.803 192.933L201.452 192.696L200.978 187.29L199.657 184.501L200.122 180.035L208.818 176.27L209.993 167.574L213.758 164.511L216.812 159.106L219.163 158.641L224.569 155.114L224.806 153.236L221.05 153.464L220.339 151.586H217.759L213.758 152.498L215.636 149.444L223.839 147.092L225.717 144.978L229.008 150.146L231.131 152.261L234.422 151.349L233.009 148.296L228.069 144.768L222.426 138.387L216.556 134.386L210.914 133.474L208.088 130.658L204.324 129.746L203.859 130.658L203.385 137.476L204.296 139.818L202.182 147.348L197.496 143.61L198.198 140.32L193.276 137.95L191.143 135.407L192.319 129.537L199.137 124.596L199.611 118.954L197.022 119.191L195.373 117.076L194.671 113.549L193.021 113.312L192.109 117.076L189.53 117.541L188.354 109.337L186.44 108.061L183.149 106.648L179.394 108.526L184.088 112.993L185 116.994L176.532 110.613L170.652 104.233L170.187 97.8522L164.108 96.1021L159.404 99.1648C158.271 99.851 157.102 100.478 155.904 101.043C154.048 101.485 152.162 101.79 150.262 101.954L149.35 105.956L143.945 106.183L144.419 108.772L153.115 110.185L157.581 115.116V123.32L154.992 130.612L155.466 138.369L148.885 149.882L147.472 167.046L149.523 176.972L152.577 184.501L156.104 184.966L154.929 181.21L153.051 178.385L151.875 173.216L153.99 172.743L157.28 181.21L159.632 188.73V194.838L164.098 200.252L172.092 206.122L184.316 209.422L188.081 212.94L190.897 216.705L195.136 219.294L200.304 220.697L205.472 220.47C205.472 220.47 205.244 222.821 205.244 223.997C205.244 225.173 201.954 229.165 201.954 229.165L199.374 233.851L201.252 239.019L206.429 241.134L213.721 248.663L217.012 250.067V253.594L217.422 255.235C235.707 252.28 252.79 244.238 266.717 232.028L266.845 230.323L273.225 218.801L270.172 216.687L257.21 220.233ZM281.693 127.376L279.105 122.901L275.814 117.732L274.903 110.677L279.132 111.388L279.369 109.037L276.306 108.8L278.895 107.624L281.721 105.983V103.631L278.895 99.8667L278.293 94.8078C264.632 78.0887 245.884 66.2895 224.9 61.2053C203.916 56.1211 181.846 58.0301 162.048 66.6419L167.462 70.4794L164.108 74.7088L159.641 75.6203L159.176 82.0009L157.289 82.7028L154.938 85.2733L155.175 89.5027L159.176 89.9767L157.526 93.9692H161.528L168.337 85.2733L169.048 81.5087L175.629 81.0438L177.27 78.2181L184.088 77.5163L184.799 73.5147L189.73 73.2868C189.73 73.2868 193.258 71.4 193.969 71.4C195.326 71.6949 196.661 72.0879 197.961 72.5758L201.489 75.4015H206.429L210.659 72.8128L216.064 73.2868C216.842 73.7925 217.73 74.105 218.653 74.1983C219.829 74.1983 223.356 72.5485 223.356 72.5485L230.165 76.7779L232.991 78.9018V82.4202L236.519 82.8942L237.694 80.7795L240.748 82.1924L240.511 84.0701L233.465 85.9478L237.457 91.1252L245.916 95.8287L249.444 100.523L254.621 100.997L255.797 98.6452L257.675 98.1713L251.559 93.4769L247.803 93.0029L250.857 92.0914L248.04 88.0899L252.033 87.862L257.201 90.6786L258.377 96.3209L260.965 99.3745L263.08 106.193L268.258 109.957V117.714L273.663 121.242L273.426 123.83L272.724 126.884L274.128 131.113L274.602 133.228L278.594 133.939L280.481 129.938L281.693 127.376ZM284.747 103.677V105.026L283.516 108.8L284.218 112.09L286.807 113.002V117.468L283.99 116.292L283.298 129.026L280.481 134.194L282.359 140.785L285.412 143.601V156.299L288.475 166.17L291.766 173.69L297.171 175.103L299.049 170.4L299.814 169.798C300.324 165.713 300.579 161.6 300.58 157.484C300.609 138.393 295.096 119.704 284.71 103.686L284.747 103.677ZM230.439 102.209L214.943 95.3911L208.125 95.6281L206.484 100.095L203.658 97.0319L198.49 98.2077L198.016 105.974L202.245 109.027L205.308 104.561L208.772 108.061L216.064 114.442L217.477 121.26L223.584 129.017L233.465 127.376L233.228 123.849L231.113 119.847L230.648 110.449L233 106.448L230.439 102.209ZM243.136 107.378L239.609 106.466L236.555 109.055L238.196 115.873H241.258L243.136 107.378ZM265.013 111.844L257.019 107.615L255.369 104.798L253.491 105.5L255.132 110.203L256.545 116.31L260.072 117.723L260.774 116.812L258.659 113.284L264.776 115.636L265.013 111.844ZM196.366 196.715L195.455 197.627L202.51 199.742L205.336 203.032L209.802 203.506L211.443 200.917L206.037 200.006L196.366 196.715ZM217.331 201.182L212.391 202.595L213.102 204.472H219.209L220.385 202.595L218.27 202.823L217.331 201.182Z" fill="#9F78D6" stroke="#663AA3" stroke-width="0.455759" stroke-miterlimit="10"/>
<path d="M271.668 280.336C271.585 282.898 271.892 285.459 272.579 287.929C273.664 291.393 274.739 294.647 275.824 295.95C276.909 297.254 278.65 295.084 277.128 292.477C275.605 289.87 276.48 287.063 277.346 287.063C278.212 287.063 285.149 291.393 286.234 292.915C287.318 294.437 290.572 298.338 290.572 295.731C290.572 293.125 285.586 287.71 284.72 286.188C283.855 284.666 279.078 278.167 279.078 278.167L271.668 280.336Z" fill="#FFBE9D"/>
<g filter="url(#filter0_d_2335_39411)">
<path d="M274.74 272.307L279.079 278.168L270.839 282.717L266.937 277.949L274.74 272.307Z" fill="#5B28A1"/>
</g>
<path d="M228.771 393.739C228.771 393.739 225.517 400.895 224.214 402.854C222.91 404.814 221.826 405.671 219.656 406.108C217.487 406.546 213.804 406.974 213.804 408.706C213.829 409.782 214.144 410.83 214.716 411.742C214.716 411.742 224.906 413.911 228.388 413.045C231.87 412.179 235.325 407.403 235.325 407.403L237.495 408.706L243.784 402.636C243.388 400.503 242.646 398.449 241.587 396.556C239.637 392.654 238.552 389.838 238.552 389.838C238.552 389.838 233.757 393.739 228.771 393.739Z" fill="#616161" stroke="#263238" stroke-width="0.911517" stroke-linejoin="round"/>
<path d="M242.398 398.353C240.119 400.495 234.851 405.645 233.411 406.912C231.588 408.525 227.85 411.752 224.988 411.752C222.928 411.752 217.177 410.922 214.05 410.448C214.19 410.9 214.386 411.331 214.633 411.734C214.633 411.734 224.824 413.903 228.306 413.037C231.788 412.171 235.243 407.395 235.243 407.395L237.412 408.698L243.702 402.628C243.462 401.15 243.024 399.712 242.398 398.353Z" fill="#555555" stroke="#263238" stroke-width="0.911517" stroke-linejoin="round"/>
<path d="M211.863 364.9C211.863 364.9 215.983 373.568 220.067 378.773C224.151 383.978 228.735 395.691 228.735 395.691C228.735 395.691 232.427 396.994 235.025 395.034C236.676 393.689 237.886 391.879 238.498 389.839C238.498 389.839 233.293 373.787 231.342 366.85C229.392 359.914 224.615 344.728 222.446 341.045C220.802 338.333 219.007 335.716 217.068 333.206C217.068 333.206 214.68 347.517 213.595 352.931C212.51 358.346 211.863 364.9 211.863 364.9Z" fill="#263238" stroke="#263238" stroke-width="0.911517" stroke-linejoin="round"/>
<path d="M192.556 265.152L192.775 279.025C192.775 279.025 189.128 304.621 192.127 317.628C195.126 330.635 199.93 344.973 199.93 344.973C199.93 344.973 197.551 368.828 196.676 374.68C195.801 380.532 192.118 391.598 192.118 391.598C192.118 391.598 198.408 394.852 199.492 394.852H201.662C201.662 394.852 208.161 377.287 209.464 374.68C210.768 372.073 215.316 367.096 216.839 356.249C218.361 345.402 218.798 334.117 218.798 334.117C218.798 334.117 229.636 320.235 232.243 315.887C234.85 311.539 238.961 302.652 238.961 302.652C238.961 302.652 243.737 290.291 243.081 278.369C242.425 266.446 238.751 260.375 238.751 260.375C238.751 260.375 217.495 265.361 207.523 265.361C197.551 265.361 192.556 265.152 192.556 265.152Z" fill="#263238" stroke="#263238" stroke-width="0.911517" stroke-linejoin="round"/>
<path d="M198.09 187.271C198.09 187.271 202.301 191.482 201.663 192.95C201.025 194.417 190.105 195.055 187.789 197.79C185.474 200.524 175.593 235.217 175.593 235.217C175.593 235.217 163.817 231.844 162.768 231.006C161.72 230.167 160.453 230.796 159.824 233.321C159.195 235.846 152.887 241.524 153.726 242.992C154.565 244.46 166.132 250.138 171.811 251.615C175.268 252.505 178.787 253.136 182.339 253.502L181.5 264.23C181.5 264.23 192.219 270.328 213.038 267.594C233.858 264.859 242.499 260.448 242.499 260.448L239.983 238.79C239.983 238.79 253.656 264.44 255.962 268.87C258.268 273.3 261.212 279.808 263.737 280.647C266.262 281.485 275.304 275.597 275.514 273.081C275.724 270.565 267.948 258.36 261.841 247.85C255.734 237.341 247.33 207.689 246.072 201.363C244.814 195.037 241.441 189.796 237.868 188.957C234.295 188.119 224.624 188.11 220.413 187.271C216.201 186.432 210.322 179.496 207.588 170.663L198.09 187.271Z" fill="#663AA3"/>
<path d="M190.543 206.842C191.609 204.581 192.43 203.041 192.43 203.041" stroke="#263238" stroke-width="0.444923" stroke-miterlimit="10"/>
<path d="M182.338 253.503C182.338 253.503 184.863 226.385 185.911 219.868C186.575 216.644 187.586 213.503 188.928 210.498" stroke="#263238" stroke-width="0.444923" stroke-miterlimit="10"/>
<path d="M232.991 213.934C232.682 212.439 232.39 210.971 232.153 209.559" stroke="#263238" stroke-width="0.444923" stroke-miterlimit="10"/>
<path d="M239.937 238.79C239.937 238.79 236.446 228.445 233.921 217.999" stroke="#263238" stroke-width="0.444923" stroke-miterlimit="10"/>
<path d="M196.012 194.755C197.024 196.924 200.268 201.308 210.104 201.135C221.707 200.944 226.812 192.932 228.69 188.055C225.915 187.942 223.149 187.674 220.404 187.253C216.202 186.414 210.313 179.478 207.579 170.645L198.09 187.271C198.09 187.271 202.301 191.482 201.663 192.95C201.371 193.633 198.837 194.144 196.012 194.755Z" fill="#FFBE9D"/>
<path d="M205.956 176.653L203.094 178.476L198.09 187.245C199.281 188.442 200.339 189.765 201.244 191.192C205.956 185.586 205.956 176.653 205.956 176.653Z" fill="#EB996E"/>
<path d="M173.708 167.309C173.708 167.309 177.7 174.246 178.748 177.399C180.285 181.264 183.211 184.415 186.952 186.232C190.735 187.909 192.631 189.386 195.994 189.595C200.816 189.896 204.398 183.078 206.294 177.819C208.19 172.559 208.19 171.721 208.19 171.721C208.19 171.721 211.125 167.309 211.125 162.678C211.125 158.048 205.875 152.798 199.987 150.063C194.098 147.328 190.106 143.336 184.008 148.805C177.91 154.274 173.708 167.309 173.708 167.309Z" fill="#FEBC9A"/>
<path d="M184.216 174.027C184.663 175.245 184.945 176.517 185.055 177.81C185.055 179.286 186.951 179.915 188.628 176.761" stroke="#263238" stroke-width="0.911517" stroke-miterlimit="10"/>
<path d="M189.046 180.982C189.046 180.982 194.306 181.82 195.354 175.513" stroke="#263238" stroke-width="0.911517" stroke-miterlimit="10"/>
<path d="M190.124 166.735C190.616 167.573 190.634 168.476 190.124 168.758C189.613 169.041 188.866 168.576 188.374 167.737C187.881 166.899 187.872 165.987 188.374 165.714C188.875 165.44 189.631 165.896 190.124 166.735Z" fill="#263238"/>
<path d="M181.636 170.956C182.128 171.794 182.146 172.706 181.636 172.979C181.125 173.253 180.378 172.797 179.895 171.958C179.412 171.12 179.384 170.208 179.895 169.935C180.405 169.661 181.153 170.099 181.636 170.956Z" fill="#263238"/>
<path d="M184.098 163.928C184.098 163.928 185.009 160.628 190.925 161.065" stroke="#263238" stroke-width="0.911517" stroke-miterlimit="10"/>
<path d="M179.687 167.236C179.687 167.236 176.387 167.236 176.606 169.88" stroke="#263238" stroke-width="0.911517" stroke-miterlimit="10"/>
<path d="M188.838 152.16C188.838 152.16 186.104 155.314 182.95 158.467C179.796 161.621 174.546 166.252 174.546 171.921C174.546 177.591 174.755 178.229 174.755 178.229C174.755 178.229 165.713 173.608 163.188 167.291C160.663 160.974 166.342 146.472 173.279 139.945C180.215 133.419 188.419 132.17 197.461 132.799C206.503 133.428 215.546 142.47 217.861 151.513C220.176 160.555 215.546 170.436 214.069 172.113C212.592 173.79 207.971 174.009 207.971 174.009C208.957 170.811 209.176 167.426 208.609 164.128C207.552 159.288 204.607 160.345 204.188 162.442C203.769 164.538 203.559 165.386 203.559 165.386C203.559 165.386 199.357 162.442 194.936 159.288C192.336 157.463 190.238 155.011 188.838 152.16Z" fill="#263238" stroke="#263238" stroke-width="0.911517" stroke-linejoin="round"/>
<path d="M148.896 237.114L154.566 228.701L157.301 231.436L148.896 237.114Z" fill="#39126D"/>
<path d="M168.939 224.707L155.732 224.762L143.144 200.516L156.351 200.461L168.939 224.707Z" fill="#263238" stroke="#263238" stroke-width="0.911517" stroke-linejoin="round"/>
<path d="M145.322 212.293C145.322 212.293 148.685 215.446 148.895 216.923C149.105 218.4 150.782 224.069 151.629 226.804C152.477 229.538 155.622 232.483 155.622 232.483L158.356 229.748L157.299 225.118C158.308 224.224 159.36 223.381 160.453 222.593C161.72 221.754 163.188 219.439 162.349 219.439C161.712 219.458 161.078 219.531 160.453 219.658C160.453 219.658 162.349 216.713 161.091 216.504C160.256 216.368 159.412 216.295 158.566 216.285C158.566 216.285 160.663 213.769 158.985 213.55C157.308 213.332 151.411 216.495 151.411 216.495L148.895 212.703C148.358 212.396 147.765 212.201 147.151 212.13C146.536 212.06 145.914 212.115 145.322 212.293Z" fill="#FFBE9D" stroke="#263238" stroke-width="0.911517" stroke-linejoin="round"/>
<path d="M146.016 210.907C145.836 211.063 145.703 211.266 145.632 211.493C145.561 211.72 145.555 211.963 145.615 212.193C145.675 212.423 145.798 212.632 145.97 212.797C146.142 212.961 146.357 213.073 146.59 213.122C146.977 213.258 147.393 213.292 147.797 213.22C148.201 213.149 148.58 212.973 148.896 212.712C149.944 211.454 154.147 208.09 154.147 206.404C154.147 204.718 152.26 206.614 151.412 207.042C149.516 208.189 147.712 209.482 146.016 210.907Z" fill="#FFBE9D" stroke="#263238" stroke-width="0.911517" stroke-linejoin="round"/>
<path d="M151.881 216.907L148.173 211.716L145.949 212.457L148.173 214.682L151.14 217.648L151.881 216.907Z" fill="#FFBE9D"/>
<path d="M158.566 216.285C158.566 216.285 152.258 219.439 151.201 220.706" stroke="#263238" stroke-width="0.911517" stroke-linejoin="round"/>
<path d="M160.462 219.657C160.462 219.657 155.421 221.963 153.735 223.859" stroke="#263238" stroke-width="0.911517" stroke-linejoin="round"/>
<path d="M160.874 230.796L157.939 228.271L148.896 237.104L154.995 241.735C154.995 241.735 160.664 236.265 160.874 230.796Z" fill="#5B28A2"/>
<path d="M160.78 230.997C160.78 232.232 160.038 235.594 157.072 239.154" stroke="#263238" stroke-width="0.444923"/>
<path d="M219.018 279.681C219.018 279.681 209.256 302.66 207.086 312.24C204.917 321.82 200.797 339.996 200.797 341.08" stroke="#757575" stroke-width="0.911517" stroke-linejoin="round"/>
<path d="M204.917 286.189L210.56 292.688" stroke="#757575" stroke-width="0.911517" stroke-linejoin="round"/>
<path d="M192.129 390.923C192.129 390.923 190.826 393.739 184.536 395.034C178.247 396.328 172.395 393.958 171.31 394.168C170.225 394.378 169.141 396.337 169.141 398.078C169.141 399.819 176.734 404.577 179.769 406.1C182.187 407.128 184.747 407.786 187.362 408.05H188.437L188.228 410.22C189.99 410.922 191.799 411.5 193.642 411.952C195.298 412.196 196.981 412.196 198.637 411.952C199.296 409.178 199.66 406.343 199.722 403.493C199.869 400.513 200.529 397.58 201.673 394.824L192.129 390.923Z" fill="#616161" stroke="#263238" stroke-width="0.911517" stroke-linejoin="round"/>
<path d="M199.294 408.56C195.019 408.004 187.134 406.737 182.349 404.914C177.28 403 171.602 399.099 169.195 397.367C169.159 397.593 169.141 397.821 169.141 398.05C169.141 399.782 176.734 404.549 179.769 406.072C182.187 407.1 184.747 407.758 187.362 408.022H188.437L188.228 410.192C189.99 410.894 191.799 411.472 193.642 411.924C195.298 412.168 196.981 412.168 198.637 411.924C198.637 411.924 198.984 410.538 199.294 408.56Z" fill="#555555" stroke="#263238" stroke-width="0.911517" stroke-linejoin="round"/>
<path d="M160.779 230.99L157.813 228.023" stroke="#263238" stroke-width="0.444923"/>
</g>
<defs>
<filter id="filter0_d_2335_39411" x="265.454" y="272.307" width="15.1075" height="13.3758" filterUnits="userSpaceOnUse" color-interpolation-filters="sRGB">
<feFlood flood-opacity="0" result="BackgroundImageFix"/>
<feColorMatrix in="SourceAlpha" type="matrix" values="0 0 0 0 0 0 0 0 0 0 0 0 0 0 0 0 0 0 127 0" result="hardAlpha"/>
<feOffset dy="1.48308"/>
<feGaussianBlur stdDeviation="0.741539"/>
<feComposite in2="hardAlpha" operator="out"/>
<feColorMatrix type="matrix" values="0 0 0 0 0.4 0 0 0 0 0.227451 0 0 0 0 0.639216 0 0 0 0.12 0"/>
<feBlend mode="normal" in2="BackgroundImageFix" result="effect1_dropShadow_2335_39411"/>
<feBlend mode="normal" in="SourceGraphic" in2="effect1_dropShadow_2335_39411" result="shape"/>
</filter>
<linearGradient id="paint0_linear_2335_39411" x1="200.981" y1="0" x2="200.981" y2="439" gradientUnits="userSpaceOnUse">
<stop stop-color="#FFE8D7"/>
<stop offset="1" stop-color="white"/>
</linearGradient>
<clipPath id="clip0_2335_39411">
<rect width="421.194" height="419.799" fill="white" transform="translate(-9.77466)"/>
</clipPath>
</defs>
</svg>
