<svg width="496" height="282" viewBox="0 0 496 282" fill="none" xmlns="http://www.w3.org/2000/svg">
<g clip-path="url(#clip0_877_45050)">
<path d="M20.1558 112.015C20.0153 101.411 28.4429 92.5616 39.0476 92.4212C49.6524 92.2807 58.3609 100.779 58.5716 111.383C58.712 121.988 50.2844 130.837 39.6797 130.977C29.1452 131.188 20.3665 122.62 20.1558 112.015ZM48.5989 111.524C48.5287 106.467 44.3149 102.394 39.2583 102.464C34.2018 102.534 30.1284 106.748 30.1987 111.805C30.2689 116.861 34.4827 120.935 39.5392 120.864C44.5958 120.864 48.6691 116.65 48.5989 111.524Z" fill="#F5F5F5"/>
<path d="M20.1559 112.015C20.0154 101.41 28.443 92.5614 39.0478 92.4209L39.1882 102.464C34.1317 102.534 30.0583 106.748 30.1286 111.804C30.1988 116.861 34.4126 120.934 39.4691 120.864L39.6096 130.907C29.1453 131.188 20.3666 122.62 20.1559 112.015Z" fill="#E0E0E0"/>
<path d="M37.3635 90.8764C49.724 90.6658 59.6264 100.287 59.8371 112.718L48.1087 112.929C48.0385 106.959 43.4735 103.237 37.5742 103.307L37.3635 90.8764Z" fill="#EBEBEB"/>
<path d="M34.6244 178.175H21.5616V210.902H34.6244V178.175Z" fill="#EBEBEB"/>
<path d="M45.0863 258.377V261.257C45.0863 264.768 43.3306 266.735 39.9596 266.735C36.5885 266.735 34.8328 264.768 34.8328 261.257V249.95C34.8328 246.438 36.5885 244.472 39.9596 244.472C43.3306 244.472 45.0863 246.438 45.0863 249.95V252.057H41.8558V249.739C41.8558 248.194 41.1535 247.562 40.1 247.562C39.0466 247.562 38.3443 248.124 38.3443 249.739V261.467C38.3443 263.012 39.0466 263.574 40.1 263.574C41.1535 263.574 41.8558 263.012 41.8558 261.467V258.377H45.0863Z" fill="#EBEBEB"/>
<path d="M46.8428 249.95C46.8428 246.438 48.6688 244.472 52.0398 244.472C55.4108 244.472 57.2368 246.438 57.2368 249.95V261.257C57.2368 264.768 55.4108 266.735 52.0398 266.735C48.6688 266.735 46.8428 264.768 46.8428 261.257V249.95ZM50.284 261.467C50.284 263.012 50.9863 263.644 52.0398 263.644C53.0932 263.644 53.7955 263.083 53.7955 261.467V249.739C53.7955 248.194 53.0932 247.562 52.0398 247.562C50.9863 247.562 50.284 248.124 50.284 249.739V261.467Z" fill="#EBEBEB"/>
<path d="M59.4141 244.752H62.8553V263.363H68.4737V266.453H59.4141V244.752Z" fill="#EBEBEB"/>
<path d="M44.3162 218.065H41.788L41.9284 217.433H47.6873L47.5468 218.065H45.0888L43.8246 224.456H43.1223L44.3162 218.065Z" fill="#E0E0E0"/>
<path d="M52.4632 219.188L48.6005 225.158C47.9685 226.141 47.4769 226.492 46.7043 226.492C46.2127 226.492 45.7211 226.352 45.4402 226.001L45.7913 225.509C46.002 225.72 46.3532 225.86 46.7043 225.86C47.1257 225.86 47.5471 225.65 47.8982 225.018L48.2494 224.456L46.915 219.188H47.6173L48.741 223.683L51.6204 219.188H52.4632Z" fill="#E0E0E0"/>
<path d="M58.3618 221.365C58.3618 223.191 57.0976 224.526 55.3419 224.526C54.3586 224.526 53.6563 224.104 53.3052 223.332L52.6731 226.422H51.9708L53.4457 219.118H54.148L54.0075 219.961C54.4991 219.399 55.2014 219.048 56.0442 219.048C57.4488 219.118 58.3618 219.961 58.3618 221.365ZM57.6595 221.436C57.6595 220.382 57.0274 219.75 55.9037 219.75C54.5693 219.75 53.5861 220.804 53.5861 222.208C53.5861 223.262 54.2182 223.824 55.3419 223.824C56.6762 223.894 57.6595 222.84 57.6595 221.436Z" fill="#E0E0E0"/>
<path d="M59.2052 222.279C59.2052 220.453 60.4693 219.118 62.2953 219.118C63.7701 219.118 64.6831 219.961 64.6831 221.366C64.6831 223.192 63.419 224.526 61.593 224.526C60.1884 224.526 59.2052 223.613 59.2052 222.279ZM63.9808 221.436C63.9808 220.382 63.3488 219.75 62.2251 219.75C60.8907 219.75 59.9075 220.804 59.9075 222.208C59.9075 223.262 60.5396 223.824 61.6632 223.824C62.9976 223.894 63.9808 222.84 63.9808 221.436Z" fill="#E0E0E0"/>
<path d="M113.843 18.4714C113.843 18.5417 97.6194 18.6821 77.5336 18.6821C57.5181 18.6821 41.2247 18.6119 41.2247 18.4714C41.2247 18.4012 57.4479 18.2607 77.5336 18.2607C97.6194 18.331 113.843 18.4012 113.843 18.4714Z" fill="#E0E0E0"/>
<path d="M46.2105 228.458C40.7326 224.946 33.1477 224.876 27.8102 228.598C22.7537 232.11 20.1552 238.571 20.3659 244.751C20.5766 250.931 23.5965 258.516 29.2148 261.747L45.6487 261.677C50.9159 257.814 54.4274 251.634 54.7083 245.102C54.919 238.571 51.6884 231.969 46.2105 228.458Z" fill="#455A64"/>
<path d="M38.1345 262.38C38.0642 262.38 38.0642 261.888 38.0642 260.975C38.0642 259.992 37.994 258.657 37.9238 257.112C37.8536 253.882 37.7131 249.387 37.5024 244.401C37.2917 239.414 37.0108 234.92 36.8001 231.689C36.7299 230.144 36.6596 228.88 36.5894 227.826C36.5192 226.913 36.5192 226.422 36.5894 226.422C36.6596 226.422 36.7299 226.913 36.8001 227.826C36.9406 228.739 37.081 230.074 37.2215 231.689C37.5024 234.92 37.8536 239.414 38.0642 244.401C38.2749 249.387 38.3452 253.882 38.3452 257.112C38.3452 258.728 38.3452 260.062 38.2749 260.975C38.2047 261.818 38.1345 262.38 38.1345 262.38Z" fill="#263238"/>
<path d="M21.9816 243.348C21.9816 243.489 21.0686 243.559 20.0151 243.418C18.8915 243.348 18.0487 243.137 18.0487 242.997C18.0487 242.856 18.9617 242.786 20.0151 242.927C21.1388 243.067 22.0518 243.208 21.9816 243.348Z" fill="#263238"/>
<path d="M22.3323 237.797C22.2621 237.938 21.4895 237.727 20.6468 237.306C19.7338 236.884 19.1017 236.463 19.1719 236.323C19.2422 236.182 20.0147 236.393 20.8575 236.814C21.7002 237.236 22.4025 237.727 22.3323 237.797Z" fill="#263238"/>
<path d="M25.1416 233.724C25.0714 233.865 24.2286 233.444 23.3156 232.671C22.4027 231.898 21.8408 231.126 21.9813 231.056C22.1217 230.986 22.824 231.547 23.6668 232.25C24.5096 233.022 25.2821 233.584 25.1416 233.724Z" fill="#263238"/>
<path d="M28.0212 229.792C27.8807 229.862 27.4593 229.23 27.1082 228.317C26.757 227.474 26.5464 226.702 26.6868 226.631C26.8273 226.561 27.2487 227.193 27.5998 228.106C27.951 229.019 28.1616 229.792 28.0212 229.792Z" fill="#263238"/>
<path d="M32.5164 227.055C32.3759 227.125 31.9545 226.422 31.6736 225.439C31.3927 224.456 31.3225 223.684 31.4629 223.613C31.6034 223.613 31.8843 224.316 32.1652 225.229C32.4461 226.282 32.6568 226.984 32.5164 227.055Z" fill="#263238"/>
<path d="M40.0306 223.965C40.171 224.035 40.1008 224.597 39.8199 225.299C39.6092 226.002 39.2581 226.493 39.1176 226.423C38.9771 226.353 39.0474 225.791 39.3283 225.089C39.6092 224.457 39.8901 223.895 40.0306 223.965Z" fill="#263238"/>
<path d="M45.6491 226.352C45.7193 226.492 45.3681 226.984 44.8765 227.476C44.3147 227.967 43.8231 228.318 43.7528 228.178C43.6826 228.038 44.0338 227.546 44.5254 227.054C45.017 226.563 45.5086 226.282 45.6491 226.352Z" fill="#263238"/>
<path d="M50.5646 229.512C50.6348 229.653 50.2134 230.074 49.5813 230.495C48.9493 230.917 48.3874 231.127 48.3172 231.057C48.247 230.917 48.6683 230.495 49.3004 230.074C49.8623 229.653 50.4241 229.372 50.5646 229.512Z" fill="#263238"/>
<path d="M54.0062 234.219C54.0764 234.359 53.3741 234.781 52.4612 235.132C51.5482 235.483 50.7756 235.694 50.7054 235.624C50.6352 235.483 51.3375 235.062 52.2505 234.711C53.1635 234.289 53.936 234.149 54.0062 234.219Z" fill="#263238"/>
<path d="M55.4108 239.415C55.4108 239.556 54.7085 239.767 53.8658 239.907C52.9528 240.047 52.2505 239.977 52.2505 239.837C52.2505 239.696 52.9528 239.486 53.7955 239.345C54.6383 239.205 55.3406 239.275 55.4108 239.415Z" fill="#263238"/>
<path d="M56.1125 245.736C56.0422 245.877 55.3399 245.666 54.4269 245.315C53.5842 244.964 52.8819 244.542 52.9521 244.402C53.0223 244.261 53.7246 244.472 54.6376 244.823C55.4804 245.174 56.1827 245.596 56.1125 245.736Z" fill="#263238"/>
<path d="M55.4827 251.212C55.4125 251.352 54.4995 251.142 53.5162 250.439C52.533 249.807 51.9712 249.035 52.0414 248.964C52.1819 248.894 52.8842 249.456 53.7972 250.018C54.7101 250.58 55.5529 251.071 55.4827 251.212Z" fill="#263238"/>
<path d="M52.6718 256.13C52.6015 256.27 51.829 255.778 51.1267 255.006C50.4244 254.233 50.003 253.461 50.1435 253.391C50.2839 253.32 50.8458 253.952 51.5481 254.655C52.1802 255.427 52.742 255.989 52.6718 256.13Z" fill="#263238"/>
<path d="M25.7737 256.691C25.844 256.831 25.0714 257.393 24.018 257.885C22.9645 258.447 22.0516 258.727 22.0516 258.657C21.9813 258.517 22.7539 257.955 23.8073 257.463C24.7905 256.901 25.7035 256.621 25.7737 256.691Z" fill="#263238"/>
<path d="M23.315 252.266C23.3852 252.406 22.7532 252.828 21.9104 253.179C21.0677 253.53 20.3654 253.741 20.2951 253.6C20.2249 253.46 20.857 253.038 21.6997 252.687C22.4723 252.336 23.2448 252.125 23.315 252.266Z" fill="#263238"/>
<path d="M21.4892 248.264C21.4892 248.404 20.7167 248.615 19.7334 248.755C18.7502 248.896 17.9777 248.896 17.9075 248.755C17.9075 248.615 18.68 248.404 19.6632 248.264C20.6464 248.123 21.4892 248.123 21.4892 248.264Z" fill="#263238"/>
<path d="M27.3874 246.085C27.4576 246.226 26.6851 246.577 25.6316 246.718C24.6484 246.858 23.8057 246.647 23.8057 246.507C23.8057 246.366 24.5782 246.296 25.5614 246.156C26.5446 246.085 27.3874 245.945 27.3874 246.085Z" fill="#263238"/>
<path d="M32.3056 241.169C32.3758 241.31 31.7437 241.591 30.901 241.661C30.0582 241.731 29.4261 241.591 29.4261 241.45C29.4261 241.31 30.0582 241.24 30.8307 241.169C31.6735 241.099 32.3056 241.029 32.3056 241.169Z" fill="#263238"/>
<path d="M33.2888 237.239C33.2186 237.379 32.5865 237.309 31.814 237.028C31.0415 236.747 30.4796 236.466 30.5499 236.326C30.6201 236.185 31.2522 236.255 32.0247 236.536C32.727 236.817 33.2888 237.098 33.2888 237.239Z" fill="#263238"/>
<path d="M35.0427 233.304C34.9725 233.375 34.4809 233.094 34.1999 232.532C33.8488 231.97 33.8488 231.408 33.9892 231.408C34.1297 231.338 34.3404 231.759 34.6915 232.251C34.9022 232.742 35.1832 233.164 35.0427 233.304Z" fill="#263238"/>
<path d="M32.8665 249.527C32.8665 249.667 32.3046 249.948 31.6023 250.089C31.1809 250.159 30.7596 250.229 30.5489 250.229L30.4786 249.948C30.6893 249.948 30.7596 249.948 30.8298 249.948C30.8298 250.018 30.7596 250.089 30.6191 250.229L30.5489 249.948C30.7596 249.808 31.1107 249.667 31.5321 249.597C32.2344 249.457 32.8665 249.386 32.8665 249.527Z" fill="#263238"/>
<path d="M33.9208 256.48C33.991 256.62 33.2185 257.042 32.3055 257.393C31.3925 257.744 30.5498 257.955 30.4795 257.814C30.4093 257.674 31.1818 257.253 32.0948 256.901C33.078 256.55 33.8506 256.34 33.9208 256.48Z" fill="#263238"/>
<path d="M28.3721 253.389C28.4424 253.53 27.9508 253.811 27.3187 254.022C26.6866 254.232 26.1248 254.302 26.0545 254.162C25.9843 254.022 26.4759 253.741 27.108 253.53C27.7401 253.319 28.3019 253.249 28.3721 253.389Z" fill="#263238"/>
<path d="M28.7932 239.275C28.7932 239.416 27.9504 239.345 26.9672 238.994C25.984 238.643 25.2817 238.222 25.3519 238.081C25.4221 237.941 26.1946 238.222 27.1076 238.503C28.0206 238.784 28.7932 239.135 28.7932 239.275Z" fill="#263238"/>
<path d="M42.2082 237.73C42.2785 237.87 41.7868 238.292 41.1548 238.713C40.5227 239.134 39.8906 239.415 39.8204 239.275C39.7502 239.135 40.2418 238.713 40.8739 238.292C41.5762 237.87 42.138 237.589 42.2082 237.73Z" fill="#263238"/>
<path d="M42.9797 244.682C42.9797 244.822 42.4881 245.033 41.856 245.173C41.2239 245.314 40.6621 245.314 40.6621 245.173C40.6621 245.033 41.1537 244.822 41.7858 244.682C42.4179 244.541 42.9095 244.541 42.9797 244.682Z" fill="#263238"/>
<path d="M43.823 252.546C43.7528 252.687 43.0505 252.476 42.2077 252.125C41.3649 251.774 40.8031 251.352 40.8031 251.212C40.8733 251.072 41.5756 251.282 42.4184 251.633C43.2612 251.984 43.8932 252.406 43.823 252.546Z" fill="#263238"/>
<path d="M41.9972 260.203C41.8567 260.273 41.4353 259.922 40.9437 259.36C40.4521 258.798 40.1712 258.307 40.3117 258.166C40.4521 258.096 40.8735 258.447 41.3651 259.009C41.8567 259.571 42.1376 260.133 41.9972 260.203Z" fill="#263238"/>
<path d="M41.6459 232.53C41.7161 232.671 41.4352 233.022 40.8734 233.303C40.3818 233.584 39.8902 233.584 39.8199 233.443C39.7497 233.303 40.1711 233.092 40.6627 232.811C41.1543 232.601 41.5757 232.46 41.6459 232.53Z" fill="#263238"/>
<path d="M48.2485 239.624C48.3188 239.764 47.6867 240.115 46.8439 240.185C46.0012 240.326 45.2989 240.115 45.3691 239.975C45.3691 239.834 46.0012 239.764 46.7737 239.624C47.5462 239.553 48.1783 239.483 48.2485 239.624Z" fill="#263238"/>
<path d="M46.9128 233.305C46.9831 233.446 46.351 233.867 45.5082 234.148C44.6655 234.429 43.8929 234.429 43.8929 234.289C43.8929 234.148 44.525 233.938 45.3678 233.657C46.2105 233.376 46.8426 233.165 46.9128 233.305Z" fill="#263238"/>
<path d="M49.6519 249.387C49.6519 249.527 48.5985 249.598 47.3343 249.387C46.0702 249.176 45.1572 248.685 45.2274 248.614C45.2977 248.474 46.2809 248.685 47.4748 248.895C48.6687 249.106 49.6519 249.246 49.6519 249.387Z" fill="#263238"/>
<path d="M47.1928 258.589C47.1226 258.729 46.3501 258.238 45.5775 257.465C44.805 256.692 44.3836 255.92 44.4539 255.85C44.5943 255.779 45.1562 256.341 45.9287 257.114C46.7012 257.886 47.3333 258.448 47.1928 258.589Z" fill="#263238"/>
<path d="M36.4485 225.789C36.5187 225.929 34.3416 226.772 31.8836 229.441C29.3553 232.039 26.7568 236.604 26.1247 242.082C25.8438 244.821 26.0545 247.49 26.4759 249.807C26.8972 252.195 27.4591 254.302 27.9507 256.058C28.4423 257.813 28.9339 259.218 29.2148 260.201C29.4957 261.184 29.7064 261.746 29.6362 261.746C29.6362 261.746 29.3553 261.255 29.0041 260.271C28.653 259.288 28.0911 257.954 27.5995 256.198C27.0377 254.442 26.4759 252.335 26.0545 249.948C25.6331 247.56 25.3522 244.891 25.6331 242.012C26.2652 236.393 29.0041 231.688 31.6026 229.16C32.937 227.825 34.1309 226.982 35.0439 226.491C35.4653 226.21 35.8867 226.07 36.0974 225.929C36.3081 225.859 36.4485 225.789 36.4485 225.789Z" fill="#263238"/>
<path d="M43.6131 262.099C43.4727 262.029 44.807 260.063 46.0009 256.481C47.1948 252.969 48.2483 247.702 47.4055 242.013C47.0544 239.204 46.2116 236.535 45.1582 234.288C44.1047 232.041 42.7001 230.215 41.3658 228.951C39.9612 227.687 38.5566 226.984 37.6436 226.563C36.6603 226.141 36.0985 226.071 36.0985 226.001C36.0985 226.001 36.239 226.001 36.5199 226.001C36.8008 226.071 37.2222 226.141 37.7138 226.352C38.697 226.703 40.1718 227.406 41.6467 228.599C43.0513 229.864 44.5261 231.69 45.6498 234.007C46.7032 236.325 47.6162 238.994 47.9674 241.873C48.8101 247.702 47.6865 253.04 46.4223 256.551C46.1414 257.464 45.72 258.237 45.4391 258.939C45.0879 259.641 44.807 260.203 44.5963 260.695C43.9643 261.608 43.6131 262.099 43.6131 262.099Z" fill="#263238"/>
<path d="M23.317 260.834H52.1815L52.3922 266.663H23.317V260.834Z" fill="#FD652D"/>
<path d="M25.7742 263.714L27.3895 281.412H48.5287L50.2142 263.925L25.7742 263.714Z" fill="#FD652D"/>
<path d="M52.3927 266.733C52.3927 266.874 45.8613 267.014 37.8551 267.014C29.8489 267.014 23.3175 266.874 23.3175 266.733C23.3175 266.593 29.8489 266.452 37.8551 266.452C45.8613 266.452 52.3927 266.593 52.3927 266.733Z" fill="#263238"/>
<path d="M49.4415 272.071C49.4415 272.071 49.3011 272.492 48.8095 273.194C48.3881 273.897 47.6156 274.81 46.5621 275.863L46.4216 276.004L46.2812 275.863C44.8766 274.388 42.9804 272.633 40.5926 270.877H40.9437C40.1712 271.579 39.3284 272.352 38.4154 273.054C37.362 273.967 36.3788 274.81 35.4658 275.653L35.3253 275.793L35.1848 275.653C33.3589 274.107 31.7436 272.773 30.339 271.579H30.6199C29.6367 272.773 28.7939 273.827 28.0916 274.599C27.4595 275.301 27.1084 275.723 27.1084 275.653C27.1084 275.653 27.3893 275.231 27.8809 274.459C28.513 273.616 29.2855 272.562 30.2687 271.298L30.4092 271.158L30.5497 271.298C31.9543 272.422 33.6398 273.756 35.4658 275.301H35.1146C36.0276 274.459 37.0811 273.616 38.0643 272.703C38.907 271.93 39.7498 271.228 40.5926 270.526L40.733 270.385L40.8735 270.526C43.2613 272.281 45.1575 274.107 46.4919 275.653H46.211C48.4583 273.616 49.3713 272.001 49.4415 272.071Z" fill="#263238"/>
<path d="M395.325 110.332H474.263H495.402L479.109 122.13V145.306C479.109 147.975 476.932 150.152 474.263 150.152H395.325C392.656 150.152 390.479 147.975 390.479 145.306V115.177C390.479 112.509 392.656 110.332 395.325 110.332Z" fill="#F5F5F5"/>
<path d="M399.539 126.696C399.539 126.766 414.638 126.836 433.249 126.836C451.86 126.836 466.959 126.766 466.959 126.696C466.959 126.625 451.86 126.555 433.249 126.555C414.638 126.555 399.539 126.625 399.539 126.696Z" fill="#E0E0E0"/>
<path d="M399.539 135.612C399.539 135.682 414.638 135.752 433.249 135.752C451.86 135.752 466.96 135.682 466.96 135.612C466.96 135.542 451.86 135.471 433.249 135.471C414.638 135.401 399.539 135.471 399.539 135.612Z" fill="#E0E0E0"/>
<path d="M243.347 24.9346H238.642V40.5958H243.347V24.9346Z" fill="#E0E0E0"/>
<path d="M204.23 22.688H199.525V40.6669H204.23V22.688Z" fill="#E0E0E0"/>
<path d="M214.062 18.9653H209.356V40.6664H214.062V18.9653Z" fill="#E0E0E0"/>
<path d="M223.824 20.0879H219.118V40.595H223.824V20.0879Z" fill="#E0E0E0"/>
<path d="M233.586 13.2061H228.88V40.666H233.586V13.2061Z" fill="#E0E0E0"/>
<path d="M253.181 13.3447H248.476V40.6642H253.181V13.3447Z" fill="#E0E0E0"/>
<path d="M262.941 22.2666H258.235V40.5966H262.941V22.2666Z" fill="#E0E0E0"/>
<path d="M272.703 14.5415H267.997V40.667H272.703V14.5415Z" fill="#E0E0E0"/>
<path d="M282.465 8.64209H277.76V40.667H282.465V8.64209Z" fill="#E0E0E0"/>
<path d="M292.298 14.3999H287.593V40.6659H292.298V14.3999Z" fill="#E0E0E0"/>
<path d="M415.621 39.1898L454.317 33.2905C457.548 54.5701 442.73 74.6559 421.52 77.9567C400.24 81.1873 380.155 66.3688 376.854 45.1593C373.693 23.8796 388.442 3.72364 409.721 0.422834C413.093 -0.0687754 416.534 -0.139005 419.975 0.212144L415.621 39.1898Z" fill="#EBEBEB"/>
<path d="M428.192 0.351074L423.487 30.4095L452.984 24.8613C452.984 24.8613 448.629 8.00614 428.192 0.351074Z" fill="#E0E0E0"/>
<path d="M144.958 179.716H120.518V208.721H144.958V179.716Z" fill="#F5F5F5"/>
<path d="M121.429 177.821H11.0974V210.548H121.429V177.821Z" fill="#E0E0E0"/>
<path d="M145.657 180.631H118.407V177.892H145.657C146.429 177.892 147.061 178.524 147.061 179.296C147.061 179.999 146.429 180.631 145.657 180.631Z" fill="#E0E0E0"/>
<path d="M145.657 210.548H118.407V207.809H145.657C146.429 207.809 147.061 208.441 147.061 209.213C147.061 209.986 146.429 210.548 145.657 210.548Z" fill="#E0E0E0"/>
<path d="M112.72 177.821H99.6572V210.548H112.72V177.821Z" fill="#EBEBEB"/>
<path d="M144.956 184.564C144.956 184.634 139.689 184.704 133.157 184.704C126.626 184.704 121.359 184.634 121.359 184.564C121.359 184.494 126.626 184.423 133.157 184.423C139.689 184.423 144.956 184.423 144.956 184.564Z" fill="#E0E0E0"/>
<path d="M144.956 188.916C144.956 188.986 139.689 189.056 133.157 189.056C126.626 189.056 121.359 188.986 121.359 188.916C121.359 188.845 126.626 188.775 133.157 188.775C139.689 188.705 144.956 188.775 144.956 188.916Z" fill="#E0E0E0"/>
<path d="M144.956 194.255C144.956 194.325 139.689 194.396 133.157 194.396C126.626 194.396 121.359 194.325 121.359 194.255C121.359 194.185 126.626 194.115 133.157 194.115C139.689 194.115 144.956 194.185 144.956 194.255Z" fill="#E0E0E0"/>
<path d="M144.956 199.591C144.956 199.661 139.689 199.732 133.157 199.732C126.626 199.732 121.359 199.661 121.359 199.591C121.359 199.521 126.626 199.451 133.157 199.451C139.689 199.451 144.956 199.521 144.956 199.591Z" fill="#E0E0E0"/>
<path d="M144.956 204.933C144.956 205.003 139.689 205.073 133.157 205.073C126.626 205.073 121.359 205.003 121.359 204.933C121.359 204.863 126.626 204.792 133.157 204.792C139.689 204.792 144.956 204.863 144.956 204.933Z" fill="#E0E0E0"/>
<path d="M92.7041 191.305H43.0515V197.204H92.7041V191.305Z" fill="#EBEBEB"/>
<path d="M144.674 211.25H119.883V228.948H144.674V211.25Z" fill="#FAFAFA"/>
<path d="M120.235 210.548H14.7495V229.51H120.235V210.548Z" fill="#F5F5F5"/>
<path d="M119.392 211.883H146.079C146.43 211.883 146.711 211.602 146.711 211.251C146.711 210.9 146.43 210.619 146.079 210.619H119.392V211.883Z" fill="#F5F5F5"/>
<path d="M119.391 229.509H146.36C146.5 229.509 146.641 229.368 146.641 229.228V228.526C146.641 228.385 146.5 228.245 146.36 228.245H119.391V229.509Z" fill="#F5F5F5"/>
<path d="M144.672 214.552C144.672 214.622 139.194 214.693 132.452 214.693C125.71 214.693 120.232 214.622 120.232 214.552C120.232 214.482 125.71 214.412 132.452 214.412C139.194 214.412 144.672 214.482 144.672 214.552Z" fill="#E0E0E0"/>
<path d="M144.672 217.921C144.672 217.991 139.194 218.062 132.452 218.062C125.71 218.062 120.232 217.991 120.232 217.921C120.232 217.851 125.71 217.781 132.452 217.781C139.194 217.781 144.672 217.851 144.672 217.921Z" fill="#E0E0E0"/>
<path d="M144.673 221.294C144.673 221.365 139.195 221.435 132.453 221.435C125.71 221.435 120.233 221.365 120.233 221.294C120.233 221.224 125.71 221.154 132.453 221.154C139.195 221.154 144.673 221.154 144.673 221.294Z" fill="#E0E0E0"/>
<path d="M144.672 224.594C144.672 224.664 139.194 224.735 132.452 224.735C125.71 224.735 120.232 224.664 120.232 224.594C120.232 224.524 125.71 224.454 132.452 224.454C139.194 224.454 144.672 224.524 144.672 224.594Z" fill="#E0E0E0"/>
<path d="M148.469 231.199H123.186V279.096H148.469V231.199Z" fill="#EBEBEB"/>
<path d="M123.185 229.51H4.42603V281.48H123.185V229.51Z" fill="#E0E0E0"/>
<path d="M150.433 281.479H119.883V278.108H150.433C151.346 278.108 152.118 278.881 152.118 279.794C152.118 280.777 151.346 281.479 150.433 281.479Z" fill="#E0E0E0"/>
<path d="M151.346 232.881H119.883V229.51H151.346C151.767 229.51 152.118 229.861 152.118 230.283V232.109C152.118 232.6 151.767 232.881 151.346 232.881Z" fill="#E0E0E0"/>
<path d="M148.468 237.657C148.468 237.727 142.78 237.797 135.827 237.797C128.874 237.797 123.185 237.727 123.185 237.657C123.185 237.586 128.874 237.516 135.827 237.516C142.78 237.516 148.468 237.586 148.468 237.657Z" fill="#E0E0E0"/>
<path d="M148.468 243.767C148.468 243.838 142.779 243.908 135.827 243.908C128.874 243.908 123.185 243.838 123.185 243.767C123.185 243.697 128.874 243.627 135.827 243.627C142.779 243.627 148.468 243.697 148.468 243.767Z" fill="#E0E0E0"/>
<path d="M148.469 249.949C148.469 250.019 142.781 250.09 135.828 250.09C128.875 250.09 123.186 250.019 123.186 249.949C123.186 249.879 128.875 249.809 135.828 249.809C142.781 249.809 148.469 249.879 148.469 249.949Z" fill="#E0E0E0"/>
<path d="M148.469 256.127C148.469 256.197 142.78 256.267 135.827 256.267C128.875 256.267 123.186 256.197 123.186 256.127C123.186 256.057 128.875 255.987 135.827 255.987C142.78 255.916 148.469 255.987 148.469 256.127Z" fill="#E0E0E0"/>
<path d="M148.468 262.238C148.468 262.308 142.779 262.379 135.826 262.379C128.874 262.379 123.185 262.308 123.185 262.238C123.185 262.168 128.874 262.098 135.826 262.098C142.779 262.098 148.468 262.168 148.468 262.238Z" fill="#E0E0E0"/>
<path d="M148.469 268.42C148.469 268.49 142.781 268.56 135.828 268.56C128.875 268.56 123.186 268.49 123.186 268.42C123.186 268.35 128.875 268.279 135.828 268.279C142.781 268.279 148.469 268.279 148.469 268.42Z" fill="#E0E0E0"/>
<path d="M148.469 274.53C148.469 274.6 142.781 274.67 135.828 274.67C128.875 274.67 123.186 274.6 123.186 274.53C123.186 274.459 128.875 274.389 135.828 274.389C142.781 274.389 148.469 274.459 148.469 274.53Z" fill="#E0E0E0"/>
<path d="M69.6674 249.95C69.6674 246.438 71.4933 244.472 74.8644 244.472C78.2354 244.472 80.0614 246.438 80.0614 249.95V261.257C80.0614 264.768 78.2354 266.735 74.8644 266.735C71.4933 266.735 69.6674 264.768 69.6674 261.257V249.95ZM73.1086 261.467C73.1086 263.012 73.8109 263.644 74.8644 263.644C75.9178 263.644 76.6201 263.083 76.6201 261.467V249.739C76.6201 248.194 75.9178 247.562 74.8644 247.562C73.8109 247.562 73.1086 248.124 73.1086 249.739V261.467Z" fill="#EBEBEB"/>
<path d="M85.5393 244.752V261.537C85.5393 263.082 86.2416 263.644 87.2951 263.644C88.3485 263.644 89.0508 263.082 89.0508 261.537V244.752H92.2814V261.327C92.2814 264.838 90.5257 266.805 87.1546 266.805C83.7836 266.805 82.0278 264.838 82.0278 261.327V244.752H85.5393Z" fill="#EBEBEB"/>
<path d="M101.832 266.453C101.622 265.892 101.551 265.54 101.551 263.785V260.343C101.551 258.307 100.849 257.604 99.3041 257.604H98.1102V266.453H94.6689V244.682H99.7957C103.307 244.682 104.852 246.297 104.852 249.668V251.354C104.852 253.601 104.15 255.076 102.605 255.778C104.29 256.481 104.852 258.166 104.852 260.414V263.785C104.852 264.838 104.852 265.611 105.203 266.453H101.832ZM98.1102 247.842V254.514H99.4446C100.709 254.514 101.481 253.952 101.481 252.197V250.02C101.481 248.475 100.919 247.772 99.7255 247.772H98.1102V247.842Z" fill="#EBEBEB"/>
<path d="M71.5656 219.187L70.6526 223.822C70.3015 225.718 69.3182 226.49 67.5625 226.49C66.5793 226.49 65.7365 226.21 65.1747 225.718L65.5961 225.156C66.0174 225.577 66.7197 225.858 67.5625 225.858C68.8969 225.858 69.5992 225.226 69.8801 223.962L70.0205 223.4C69.5289 223.962 68.8266 224.313 67.9136 224.313C66.509 224.313 65.5961 223.471 65.5961 222.206C65.5961 220.521 66.8602 219.187 68.6159 219.187C69.5992 219.187 70.3717 219.608 70.6526 220.38L70.8633 219.187H71.5656ZM70.3717 221.293C70.3717 220.31 69.7396 219.748 68.6159 219.748C67.2816 219.748 66.2984 220.732 66.2984 222.066C66.2984 223.049 66.9304 223.611 68.0541 223.611C69.3885 223.611 70.3717 222.628 70.3717 221.293Z" fill="#E0E0E0"/>
<path d="M76.2706 219.118L76.1301 219.82C76.0599 219.82 75.9896 219.82 75.9194 219.82C74.7957 219.82 74.0232 220.452 73.7423 221.786L73.1804 224.455H72.4781L73.5316 219.118H74.2339L74.0232 220.101C74.5148 219.399 75.2171 219.118 76.2706 219.118Z" fill="#E0E0E0"/>
<path d="M82.3104 219.187L81.2569 224.524H80.5546L80.6951 223.681C80.2035 224.243 79.5012 224.594 78.6584 224.594C77.324 224.594 76.3408 223.751 76.3408 222.347C76.3408 220.521 77.605 219.187 79.3607 219.187C80.3439 219.187 81.0462 219.608 81.3974 220.31L81.6081 219.187H82.3104ZM81.1165 221.434C81.1165 220.38 80.4844 219.748 79.3607 219.748C78.0263 219.748 77.0431 220.802 77.0431 222.206C77.0431 223.26 77.6752 223.822 78.7989 223.822C80.2035 223.892 81.1165 222.838 81.1165 221.434Z" fill="#E0E0E0"/>
<path d="M89.263 221.365C89.263 223.191 87.9989 224.525 86.2431 224.525C85.2599 224.525 84.5576 224.104 84.2064 223.331L83.5744 226.422H82.8721L84.3469 219.118H85.0492L84.9087 219.96C85.4003 219.399 86.1027 219.047 86.9454 219.047C88.2798 219.118 89.263 219.96 89.263 221.365ZM88.4905 221.435C88.4905 220.382 87.8584 219.75 86.7347 219.75C85.4003 219.75 84.4171 220.803 84.4171 222.208C84.4171 223.261 85.0492 223.823 86.1729 223.823C87.5072 223.893 88.4905 222.84 88.4905 221.435Z" fill="#E0E0E0"/>
<path d="M95.6542 220.873C95.6542 221.084 95.6542 221.294 95.584 221.505L94.9519 224.525H94.2496L94.8817 221.505C94.8817 221.365 94.9519 221.154 94.9519 221.013C94.9519 220.241 94.5306 219.819 93.5473 219.819C92.4237 219.819 91.6511 220.452 91.3702 221.645L90.8084 224.525H90.1061L91.5809 217.01H92.2832L91.7214 219.96C92.213 219.398 92.9153 219.117 93.758 219.117C94.9519 219.117 95.6542 219.749 95.6542 220.873Z" fill="#E0E0E0"/>
<path d="M102.396 219.188L98.5336 225.158C97.9016 226.141 97.41 226.492 96.6374 226.492C96.1458 226.492 95.6542 226.351 95.3733 226L95.7244 225.509C95.9351 225.719 96.2863 225.86 96.6374 225.86C97.0588 225.86 97.41 225.649 97.8313 225.017L98.1825 224.455L96.8481 219.188H97.5504L98.6741 223.683L101.554 219.188H102.396Z" fill="#E0E0E0"/>
<path d="M118.337 0.914551H33.3587H10.6744L28.2319 13.5559V38.4876C28.2319 41.367 30.5495 43.6846 33.4289 43.6846H118.407C121.287 43.6846 123.604 41.367 123.604 38.4876V6.11157C123.604 3.23214 121.216 0.914551 118.337 0.914551Z" fill="#F5F5F5"/>
<path d="M113.842 28.0901C113.842 28.1603 97.6191 28.3008 77.5334 28.3008C57.5178 28.3008 41.2245 28.2305 41.2245 28.0901C41.2245 28.0199 57.4476 27.8794 77.5334 27.8794C97.6191 27.8794 113.842 27.9496 113.842 28.0901Z" fill="#E0E0E0"/>
<path d="M491.961 281.481C491.961 281.551 381.84 281.692 245.945 281.692C110.12 281.692 -0.000244141 281.622 -0.000244141 281.481C-0.000244141 281.341 110.12 281.271 246.015 281.271C381.84 281.341 491.961 281.411 491.961 281.481Z" fill="#263238"/>
<path d="M445.747 245.664C445.747 245.664 427.136 224.244 420.113 202.824C413.09 181.403 416.391 183.862 416.391 183.862C416.391 183.862 425.872 204.65 433.106 214.763C440.34 224.735 453.121 239.484 453.121 239.484L445.747 245.664Z" fill="#455A64"/>
<path d="M449.47 187.163C448.838 186.109 447.293 186.671 447.434 187.865C448.557 195.38 451.016 213.078 450.945 224.525C450.805 239.414 450.945 245.173 450.945 245.173H458.671C458.671 245.173 457.266 214.412 455.51 205.001C454.316 198.399 451.718 191.166 449.47 187.163Z" fill="#455A64"/>
<path d="M453.684 242.645C453.684 242.645 458.53 232.392 460.075 219.54C460.707 214.062 459.583 206.687 457.898 196.785C457.055 192.009 456.915 188.357 456.915 185.829C456.915 183.933 459.443 183.301 460.356 184.986C461.269 186.672 464.008 192.361 464.71 195.942C466.606 205.704 468.713 210.55 467.098 219.82C465.483 229.091 459.443 243.347 459.443 243.347L453.684 242.645Z" fill="#455A64"/>
<path d="M460.707 243.278C460.707 243.278 481.144 199.384 482.549 192.852C483.953 186.321 488.799 171.292 489.361 172.135C489.923 172.977 490.766 180.913 487.114 189.973C483.462 199.033 467.73 244.612 467.73 244.612H460.707" fill="#455A64"/>
<path d="M451.437 241.31C451.437 241.31 451.226 241.169 450.875 240.888C450.524 240.607 449.962 240.256 449.26 239.694C447.925 238.641 445.959 237.025 443.782 234.848C439.287 230.564 433.739 223.963 428.963 215.816C424.117 207.669 420.887 199.733 418.85 193.904C417.797 190.955 417.094 188.567 416.603 186.952C416.322 186.109 416.181 185.477 416.041 185.055C415.9 184.634 415.9 184.353 415.9 184.353C415.9 184.353 415.971 184.564 416.111 184.985C416.252 185.477 416.462 186.109 416.743 186.881C417.305 188.497 418.078 190.884 419.131 193.764C421.238 199.523 424.539 207.459 429.314 215.605C434.09 223.682 439.568 230.283 443.992 234.638C446.17 236.815 448.066 238.5 449.4 239.554C450.032 240.116 450.594 240.537 450.945 240.818C451.296 241.169 451.437 241.31 451.437 241.31Z" fill="#263238"/>
<path d="M453.684 220.242C453.684 220.242 453.614 219.75 453.473 218.977C453.403 218.064 453.263 216.871 453.122 215.466C452.771 212.516 452.279 208.373 451.577 203.878C450.875 199.383 450.032 195.31 449.4 192.431C449.119 191.026 448.838 189.832 448.627 188.989C448.487 188.146 448.346 187.725 448.417 187.725C448.417 187.725 448.557 188.146 448.838 188.989C449.049 189.762 449.4 190.956 449.751 192.431C450.453 195.31 451.296 199.383 452.069 203.878C452.771 208.373 453.263 212.516 453.473 215.466C453.614 216.941 453.684 218.135 453.684 218.977C453.684 219.75 453.754 220.242 453.684 220.242Z" fill="#263238"/>
<path d="M458.459 184.565C458.459 184.565 458.529 184.776 458.67 185.127C458.81 185.548 459.021 186.11 459.302 186.742C459.583 187.444 459.864 188.357 460.145 189.341C460.426 190.394 460.847 191.518 461.128 192.852C461.268 193.484 461.479 194.186 461.619 194.889C461.76 195.591 461.9 196.364 462.041 197.136C462.392 198.681 462.603 200.367 462.813 202.193C463.235 205.774 463.445 209.707 463.305 213.851C463.165 217.994 462.673 221.927 461.971 225.439C461.619 227.195 461.268 228.88 460.847 230.425C460.636 231.198 460.426 231.97 460.215 232.672C460.004 233.375 459.793 234.077 459.583 234.709C459.161 235.973 458.74 237.167 458.319 238.15C457.967 239.134 457.546 239.976 457.265 240.679C456.984 241.311 456.703 241.873 456.563 242.294C456.422 242.645 456.282 242.856 456.282 242.856C456.282 242.856 456.352 242.645 456.493 242.294C456.633 241.873 456.844 241.381 457.125 240.679C457.406 239.976 457.757 239.134 458.108 238.08C458.459 237.097 458.951 235.903 459.302 234.639C459.513 234.007 459.723 233.305 459.934 232.602C460.145 231.9 460.285 231.127 460.496 230.355C460.917 228.81 461.268 227.195 461.619 225.439C462.252 221.927 462.743 218.065 462.884 213.921C463.024 209.778 462.813 205.915 462.462 202.333C462.252 200.577 462.041 198.892 461.69 197.347C461.549 196.574 461.409 195.802 461.268 195.099C461.128 194.397 460.917 193.695 460.777 193.063C460.496 191.728 460.145 190.605 459.864 189.551C459.583 188.498 459.302 187.655 459.091 186.953C458.88 186.25 458.67 185.689 458.529 185.267C458.529 184.776 458.459 184.565 458.459 184.565Z" fill="#263238"/>
<path d="M489.079 173.048C489.079 173.048 489.079 173.118 489.079 173.259C489.079 173.399 489.009 173.61 489.009 173.82C488.939 174.312 488.798 175.085 488.588 175.998C488.166 177.894 487.534 180.633 486.481 183.933C485.497 187.234 484.093 191.097 482.407 195.381C480.792 199.665 478.826 204.3 477 209.216C475.174 214.132 473.769 218.978 472.435 223.333C471.1 227.687 469.836 231.62 468.642 234.85C467.448 238.081 466.254 240.609 465.412 242.365C464.99 243.208 464.639 243.91 464.358 244.331C464.218 244.542 464.147 244.682 464.077 244.823C464.007 244.963 464.007 244.963 463.937 244.963C463.937 244.963 463.937 244.893 464.007 244.753C464.077 244.612 464.147 244.472 464.288 244.261C464.499 243.769 464.85 243.137 465.271 242.295C466.114 240.539 467.167 238.011 468.361 234.78C469.555 231.549 470.749 227.617 472.083 223.262C473.418 218.908 474.822 214.062 476.648 209.146C478.474 204.23 480.371 199.595 482.056 195.311C483.742 191.097 485.146 187.234 486.2 183.933C487.253 180.633 487.955 177.964 488.377 176.068C488.588 175.155 488.728 174.382 488.868 173.891C488.939 173.68 488.939 173.469 489.009 173.329C489.079 173.118 489.079 173.048 489.079 173.048Z" fill="#263238"/>
<path d="M426.083 163.357C424.819 162.092 422.642 163.427 423.204 165.183C423.766 166.938 424.538 169.186 425.803 171.784C428.612 177.754 436.899 199.174 440.761 210.972C444.624 222.771 450.102 244.683 450.102 244.683L458.319 243.348C458.319 243.348 450.804 207.25 443.36 194.258C437.39 183.793 431.421 168.694 426.083 163.357Z" fill="#455A64"/>
<path d="M442.94 218.277C442.94 218.277 443.15 218.628 443.361 219.26C443.572 219.892 443.923 220.875 444.344 221.999C445.117 224.387 446.03 227.617 446.943 231.269C447.856 234.921 448.628 238.222 449.19 240.68C449.471 241.804 449.612 242.787 449.822 243.56C449.963 244.262 450.033 244.613 449.963 244.613C449.963 244.613 449.822 244.262 449.612 243.56C449.401 242.787 449.19 241.874 448.839 240.75C448.207 238.292 447.364 234.992 446.451 231.41C445.538 227.758 444.625 224.457 443.923 222.069C443.572 220.946 443.291 220.033 443.08 219.26C443.01 218.628 442.869 218.277 442.94 218.277Z" fill="#263238"/>
<path d="M454.107 243.91C454.107 243.91 454.107 243.84 454.036 243.699C454.036 243.559 453.966 243.348 453.966 243.067C453.896 242.505 453.826 241.663 453.615 240.539C453.334 238.362 452.772 235.272 451.859 231.409C450.946 227.617 449.682 223.122 447.997 218.206C446.311 213.29 444.204 208.022 441.746 202.545C436.9 191.659 432.054 181.967 428.824 174.804C427.208 171.222 425.944 168.343 425.172 166.306C424.75 165.323 424.469 164.48 424.259 163.988C424.189 163.707 424.118 163.567 424.048 163.356C423.978 163.216 423.978 163.146 423.978 163.146C423.978 163.146 424.048 163.216 424.118 163.356C424.189 163.497 424.259 163.707 424.399 163.988C424.61 164.55 424.961 165.323 425.383 166.306C426.225 168.343 427.56 171.222 429.175 174.733C432.405 181.827 437.322 191.518 442.167 202.474C444.555 207.952 446.662 213.219 448.348 218.136C450.033 223.052 451.297 227.546 452.14 231.409C452.983 235.272 453.474 238.362 453.755 240.539C453.896 241.592 453.966 242.505 454.036 243.067C454.036 243.348 454.107 243.559 454.107 243.699C454.107 243.84 454.107 243.91 454.107 243.91Z" fill="#263238"/>
<path d="M458.25 243.278C458.25 243.278 458.109 242.786 457.969 241.873C457.828 240.89 457.618 239.626 457.337 238.081C456.775 234.85 455.932 230.496 454.668 225.721C453.404 220.945 452.069 216.661 450.946 213.571C450.454 212.096 449.963 210.902 449.682 209.919C449.401 209.076 449.19 208.584 449.26 208.584C449.26 208.584 449.471 209.006 449.892 209.849C450.244 210.691 450.735 211.885 451.297 213.43C452.421 216.45 453.895 220.734 455.16 225.58C456.424 230.356 457.267 234.85 457.758 238.011C457.969 239.626 458.18 240.89 458.25 241.803C458.25 242.786 458.25 243.278 458.25 243.278Z" fill="#263238"/>
<path d="M475.174 242.083H442.939V281.342H475.174V242.083Z" fill="#FD652D"/>
<g opacity="0.3">
<path opacity="0.3" d="M475.174 242.083H442.939V281.342H475.174V242.083Z" fill="black"/>
</g>
<path d="M464.92 242.083H436.337V281.342H464.92V242.083Z" fill="#FD652D"/>
<path d="M396.941 276.571H90.8081C85.1897 276.571 80.5546 272.006 80.5546 266.318V70.7975C80.5546 65.1791 85.1195 60.5439 90.8081 60.5439H396.941C402.559 60.5439 407.194 65.1089 407.194 70.7975V266.318C407.194 272.006 402.629 276.571 396.941 276.571Z" fill="#455A64"/>
<path d="M411.265 281.485H82.378C75.4955 281.485 69.8771 275.867 69.8771 268.984V262.593H423.766V268.984C423.766 275.937 418.147 281.485 411.265 281.485Z" fill="#455A64"/>
<path d="M211.672 260.559L216.097 267.582H277.829L281.972 260.559H211.672Z" fill="#263238"/>
<path d="M404.384 260.558C404.384 260.699 331.906 260.769 242.504 260.769C153.101 260.769 80.6235 260.699 80.6235 260.558C80.6235 260.418 153.101 260.348 242.504 260.348C331.906 260.348 404.384 260.488 404.384 260.558Z" fill="#263238"/>
<path d="M394.271 254.863H92.2116C90.9475 254.863 89.894 253.809 89.894 252.545V75.2849C89.894 74.0207 90.9475 72.9673 92.2116 72.9673H394.271C395.535 72.9673 396.588 74.0207 396.588 75.2849V252.545C396.518 253.88 395.535 254.863 394.271 254.863Z" fill="#EBEBEB"/>
<path d="M396.235 255.144H89.6111L89.892 86.5923H396.235V255.144Z" fill="white"/>
<path d="M115.105 79.9947C115.105 81.329 113.981 82.4527 112.647 82.4527C111.313 82.4527 110.189 81.329 110.189 79.9947C110.189 78.6603 111.313 77.5366 112.647 77.5366C113.981 77.5366 115.105 78.6603 115.105 79.9947Z" fill="#263238"/>
<path d="M100.217 79.9947C100.217 81.329 99.0931 82.4527 97.7587 82.4527C96.4243 82.4527 95.3007 81.329 95.3007 79.9947C95.3007 78.6603 96.4243 77.5366 97.7587 77.5366C99.1633 77.6069 100.217 78.6603 100.217 79.9947Z" fill="#263238"/>
<path d="M107.38 79.9947C107.38 81.329 106.256 82.4527 104.922 82.4527C103.587 82.4527 102.464 81.329 102.464 79.9947C102.464 78.6603 103.587 77.5366 104.922 77.5366C106.256 77.6069 107.38 78.6603 107.38 79.9947Z" fill="#263238"/>
<path d="M396.588 238.854H89.6129V255.147H396.588V238.854Z" fill="#263238"/>
<path d="M101.202 248.896V249.388H98.744V248.967L100.078 247.703C100.429 247.422 100.429 247.211 100.429 247C100.429 246.719 100.219 246.509 99.7974 246.509C99.4463 246.509 99.2356 246.649 99.0249 246.86L98.6035 246.509C98.8844 246.157 99.3058 245.947 99.8677 245.947C100.57 245.947 101.062 246.298 101.062 246.93C101.062 247.281 100.991 247.562 100.5 247.983L99.5867 248.826H101.202V248.896Z" fill="white"/>
<path d="M101.553 247.281C101.553 247.07 101.694 246.859 101.975 246.859C102.185 246.859 102.396 247 102.396 247.281C102.396 247.491 102.256 247.702 101.975 247.702C101.694 247.632 101.553 247.491 101.553 247.281ZM101.553 249.037C101.553 248.826 101.694 248.615 101.975 248.615C102.185 248.615 102.396 248.756 102.396 249.037C102.396 249.247 102.256 249.458 101.975 249.458C101.694 249.458 101.553 249.247 101.553 249.037Z" fill="white"/>
<path d="M103.871 246.087V249.388H103.239V246.579H102.537V246.087H103.871Z" fill="white"/>
<path d="M107.453 248.685H106.891V249.458H106.329V248.685H104.503V248.264L106.118 246.157H106.75L105.205 248.193H106.259V247.491H106.821V248.193H107.382V248.685H107.453Z" fill="white"/>
<path d="M364.424 247.35H112.86V248.474H364.424V247.35Z" fill="white"/>
<path d="M191.307 246.086H112.72V249.177H191.307V246.086Z" fill="#FF725E"/>
<path d="M193.834 247.913C193.834 250.02 192.149 251.776 189.972 251.776C187.865 251.776 186.109 250.09 186.109 247.913C186.109 245.806 187.795 244.05 189.972 244.05C192.149 244.05 193.834 245.806 193.834 247.913Z" fill="#FF725E"/>
<path d="M370.814 247.842C370.814 248.474 370.252 248.895 369.62 248.895C368.707 248.895 368.215 248.333 368.215 247.28C368.215 246.156 368.847 245.524 369.83 245.524C370.182 245.524 370.462 245.594 370.673 245.735L370.462 246.226C370.252 246.086 370.041 246.086 369.83 246.086C369.198 246.086 368.777 246.507 368.777 247.209C368.988 246.999 369.269 246.858 369.69 246.858C370.322 246.858 370.814 247.28 370.814 247.842ZM370.182 247.912C370.182 247.561 369.901 247.35 369.549 247.35C369.128 247.35 368.847 247.561 368.847 247.912C368.847 248.193 369.128 248.474 369.549 248.474C369.971 248.474 370.182 248.263 370.182 247.912Z" fill="white"/>
<path d="M371.094 246.717C371.094 246.507 371.235 246.296 371.516 246.296C371.727 246.296 371.937 246.436 371.937 246.717C371.937 246.928 371.797 247.139 371.516 247.139C371.305 247.139 371.094 246.928 371.094 246.717ZM371.094 248.543C371.094 248.333 371.235 248.122 371.516 248.122C371.727 248.122 371.937 248.262 371.937 248.543C371.937 248.754 371.797 248.965 371.516 248.965C371.305 248.894 371.094 248.754 371.094 248.543Z" fill="white"/>
<path d="M372.288 247.209C372.288 246.086 372.85 245.524 373.693 245.524C374.465 245.524 375.098 246.156 375.098 247.209C375.098 248.333 374.536 248.895 373.693 248.895C372.85 248.965 372.288 248.333 372.288 247.209ZM374.395 247.209C374.395 246.437 374.114 246.016 373.623 246.016C373.201 246.016 372.85 246.367 372.85 247.209C372.85 247.982 373.131 248.403 373.623 248.403C374.114 248.403 374.395 248.052 374.395 247.209Z" fill="white"/>
<path d="M375.449 247.209C375.449 246.086 376.01 245.524 376.853 245.524C377.626 245.524 378.258 246.156 378.258 247.209C378.258 248.333 377.696 248.895 376.853 248.895C376.081 248.965 375.449 248.333 375.449 247.209ZM377.626 247.209C377.626 246.437 377.345 246.016 376.853 246.016C376.432 246.016 376.081 246.367 376.081 247.209C376.081 247.982 376.362 248.403 376.853 248.403C377.275 248.403 377.626 248.052 377.626 247.209Z" fill="white"/>
<path d="M383.596 246.999H382.472V243.698H385.773V244.892H383.596V246.999Z" fill="white"/>
<path d="M385.773 251.354H382.472V248.053H383.596V250.23H385.773V251.354Z" fill="white"/>
<path d="M391.041 251.354H387.74V250.23H389.847V248.053H391.041V251.354Z" fill="white"/>
<path d="M391.041 246.999H389.847V244.892H387.74V243.698H391.041V246.999Z" fill="white"/>
<path d="M131.681 96.6367H113.561L104.572 112.298L113.561 127.889H131.681L140.67 112.298L131.681 96.6367Z" fill="#EBEBEB"/>
<path d="M115.036 115.317C114.264 114.404 113.421 113.491 112.859 112.438C112.297 111.385 111.946 110.191 112.087 108.997C112.227 108.294 112.508 107.662 112.508 106.96C112.578 105.977 112.157 104.994 112.508 104.081C113.07 102.676 114.966 102.465 116.09 101.482C117.003 100.71 117.424 99.5157 118.407 98.8134C119.25 98.2515 120.374 98.2515 121.427 98.392C122.481 98.5325 123.464 98.8134 124.517 98.6729C125.22 98.6027 125.922 98.2515 126.624 98.1111C127.327 97.9004 128.099 97.9004 128.801 98.2515C129.434 98.6027 129.785 99.5157 129.363 100.148C130.557 99.5859 132.032 100.499 132.383 101.763C132.734 103.027 132.032 104.362 131.049 105.204C130.066 106.047 128.731 106.398 127.467 106.679C123.815 107.381 119.882 106.96 116.792 104.994" fill="#263238"/>
<path d="M131.821 119.179C131.681 116.932 131.049 112.367 130.487 108.224C129.855 103.729 125.852 100.568 121.357 100.849H120.936C116.16 101.481 113.983 105.906 114.685 110.682L116.09 127.888H127.818L127.537 124.868C127.467 124.868 132.032 123.815 131.821 119.179Z" fill="#FFBE9D"/>
<path d="M127.464 124.8C127.464 124.8 124.584 125.221 121.284 123.465C121.284 123.465 122.969 126.696 127.534 125.994L127.464 124.8Z" fill="#EB996E"/>
<path d="M128.945 112.159C129.015 112.51 128.734 112.791 128.383 112.861C128.032 112.931 127.68 112.65 127.68 112.299C127.61 111.948 127.891 111.667 128.242 111.597C128.593 111.597 128.945 111.807 128.945 112.159Z" fill="#263238"/>
<path d="M129.576 110.544C129.506 110.614 128.944 110.263 128.242 110.333C127.54 110.404 127.048 110.755 126.978 110.685C126.908 110.614 126.978 110.474 127.259 110.333C127.469 110.123 127.821 109.982 128.312 109.912C128.734 109.912 129.155 110.053 129.366 110.193C129.576 110.333 129.647 110.474 129.576 110.544Z" fill="#263238"/>
<path d="M122.198 112.642C122.268 112.993 121.987 113.274 121.636 113.344C121.285 113.414 120.934 113.134 120.934 112.782C120.864 112.431 121.144 112.15 121.496 112.08C121.847 112.08 122.198 112.291 122.198 112.642Z" fill="#263238"/>
<path d="M122.626 111.177C122.555 111.247 121.993 110.966 121.291 110.966C120.589 111.036 120.097 111.387 120.027 111.317C119.957 111.247 120.027 111.106 120.308 110.966C120.519 110.755 120.87 110.615 121.361 110.544C121.783 110.544 122.204 110.685 122.415 110.825C122.555 110.966 122.626 111.106 122.626 111.177Z" fill="#263238"/>
<path d="M125.575 116.223C125.575 116.153 125.997 116.083 126.699 115.942C126.91 115.942 127.05 115.872 127.05 115.731C127.05 115.591 126.98 115.38 126.91 115.17C126.699 114.748 126.488 114.257 126.278 113.835C125.365 111.939 124.732 110.324 124.803 110.324C124.873 110.324 125.645 111.799 126.558 113.765C126.769 114.257 126.98 114.678 127.191 115.099C127.261 115.31 127.401 115.521 127.331 115.802C127.261 115.942 127.191 116.083 127.05 116.083C126.91 116.153 126.839 116.153 126.769 116.153C125.997 116.223 125.575 116.293 125.575 116.223Z" fill="#263238"/>
<path d="M122.619 108.361C122.549 108.571 121.846 108.501 121.004 108.641C120.161 108.782 119.529 109.063 119.388 108.922C119.318 108.852 119.458 108.641 119.669 108.431C119.95 108.22 120.371 108.009 120.863 107.939C121.355 107.869 121.846 107.869 122.127 108.009C122.478 108.08 122.619 108.22 122.619 108.361Z" fill="#263238"/>
<path d="M129.223 108.502C129.082 108.642 128.591 108.502 128.029 108.572C127.467 108.572 126.975 108.783 126.835 108.572C126.765 108.502 126.835 108.291 127.045 108.15C127.256 108.01 127.607 107.87 128.029 107.799C128.45 107.799 128.801 107.94 129.012 108.08C129.152 108.221 129.223 108.431 129.223 108.502Z" fill="#263238"/>
<path d="M115.244 114.047C115.174 114.047 112.014 113.345 112.295 116.505C112.576 119.666 116.017 118.612 116.017 118.542C116.017 118.472 115.244 114.047 115.244 114.047Z" fill="#FFBE9D"/>
<path d="M114.616 117.497C114.616 117.497 114.546 117.567 114.476 117.567C114.406 117.637 114.265 117.637 114.055 117.637C113.703 117.567 113.352 117.075 113.282 116.443C113.212 116.162 113.282 115.881 113.352 115.671C113.422 115.46 113.563 115.249 113.703 115.179C113.844 115.109 113.984 115.179 114.055 115.319C114.125 115.39 114.125 115.46 114.125 115.46C114.125 115.46 114.195 115.39 114.125 115.249C114.125 115.179 114.055 115.109 113.984 115.038C113.914 114.968 113.774 114.968 113.703 114.968C113.493 115.038 113.282 115.249 113.142 115.53C113.071 115.811 113.001 116.092 113.071 116.443C113.142 117.075 113.563 117.637 113.984 117.707C114.195 117.777 114.406 117.637 114.476 117.567C114.616 117.567 114.616 117.497 114.616 117.497Z" fill="#EB996E"/>
<path d="M130.207 103.87C129.996 105.134 127.468 106.258 125.291 106.187C123.324 106.117 122.341 105.134 120.936 104.502C120.023 104.08 120.023 104.08 118.83 104.291C117.846 104.432 117.355 105.626 116.793 106.468C117.846 108.786 117.425 111.455 117.004 113.913C116.933 114.194 116.863 114.474 116.652 114.685C116.301 114.966 115.739 114.826 115.388 114.474C114.826 113.983 114.546 113.21 114.405 112.438C113.984 110.752 113.843 108.997 114.124 107.311C114.405 105.626 115.107 103.94 116.231 102.676C117.706 101.061 119.813 100.148 121.99 100.077C124.167 99.9369 126.344 100.639 128.1 101.833C128.943 102.325 129.715 103.027 130.207 103.87Z" fill="#263238"/>
<path d="M125.992 117.846C125.43 117.565 124.939 117.355 124.377 117.074C124.307 117.003 124.166 117.003 124.096 117.003C123.955 117.003 123.885 117.074 123.815 117.214C123.464 117.635 123.323 118.338 123.604 118.829C123.885 119.321 124.587 119.602 125.149 119.391C125.711 119.181 125.992 118.548 125.992 117.846Z" fill="#EB996E"/>
<path d="M125.22 119.532C125.22 119.532 124.869 119.813 124.307 119.602C124.026 119.532 123.675 119.321 123.464 118.9C123.253 118.549 123.183 118.057 123.324 117.565C123.394 117.355 123.534 117.144 123.745 117.004C123.815 116.933 123.886 116.863 124.026 116.793C124.096 116.723 124.377 116.723 124.447 116.793C124.799 117.004 125.079 117.144 125.29 117.355C125.782 117.636 126.063 117.917 125.992 117.917C125.992 117.987 125.641 117.846 125.15 117.565C124.869 117.425 124.588 117.285 124.307 117.144C124.237 117.144 124.237 117.144 124.166 117.144C124.096 117.214 124.026 117.214 123.956 117.285C123.815 117.425 123.745 117.565 123.675 117.776C123.534 118.127 123.605 118.478 123.745 118.83C123.886 119.11 124.166 119.321 124.377 119.462C124.869 119.602 125.22 119.462 125.22 119.532Z" fill="#263238"/>
<path d="M124.728 112.297C124.658 112.297 124.728 112.016 124.588 111.525C124.447 111.033 124.096 110.331 123.394 109.769C122.692 109.207 121.498 108.926 120.374 109.348C119.25 109.699 118.337 110.893 118.337 112.297C118.337 113.702 119.25 114.826 120.374 115.247C121.498 115.668 122.621 115.388 123.394 114.826C124.096 114.264 124.447 113.562 124.588 113.07C124.658 112.578 124.658 112.297 124.728 112.297C124.728 112.297 124.728 112.368 124.728 112.508C124.728 112.649 124.728 112.859 124.658 113.14C124.588 113.632 124.237 114.404 123.464 115.036C122.692 115.668 121.427 116.02 120.233 115.598C118.969 115.177 117.916 113.913 117.916 112.368C117.916 110.823 118.969 109.488 120.233 109.137C121.498 108.716 122.762 109.067 123.464 109.699C124.237 110.331 124.588 111.104 124.658 111.595C124.728 111.876 124.728 112.087 124.728 112.227C124.728 112.157 124.728 112.297 124.728 112.297Z" fill="#263238"/>
<path d="M132.594 111.946C132.524 111.946 132.594 111.665 132.454 111.174C132.313 110.682 131.962 109.98 131.26 109.488C130.558 108.926 129.434 108.645 128.38 109.067C127.327 109.418 126.344 110.612 126.414 111.946C126.414 113.281 127.327 114.404 128.38 114.826C129.434 115.247 130.628 114.966 131.26 114.404C131.962 113.913 132.313 113.21 132.454 112.719C132.524 112.227 132.524 111.946 132.594 111.946C132.594 111.946 132.594 112.017 132.594 112.157C132.594 112.297 132.594 112.508 132.524 112.719C132.454 113.21 132.103 113.983 131.33 114.545C130.628 115.177 129.364 115.528 128.17 115.036C126.976 114.615 125.922 113.351 125.922 111.876C125.922 110.401 126.976 109.067 128.17 108.716C129.364 108.294 130.628 108.645 131.33 109.207C132.103 109.839 132.384 110.542 132.524 111.033C132.594 111.314 132.594 111.525 132.594 111.595C132.594 111.876 132.594 111.946 132.594 111.946Z" fill="#263238"/>
<path d="M126.133 111.245C126.063 111.315 125.782 111.104 125.36 111.104C124.939 111.104 124.658 111.315 124.588 111.245C124.518 111.174 124.799 110.753 125.36 110.753C125.922 110.753 126.273 111.174 126.133 111.245Z" fill="#263238"/>
<path d="M118.267 111.805C118.338 111.875 117.706 112.437 116.863 113.069C116.02 113.701 115.318 114.123 115.248 114.052C115.177 113.982 115.809 113.42 116.652 112.788C117.495 112.156 118.267 111.735 118.267 111.805Z" fill="#263238"/>
<path d="M183.511 112.088C183.511 112.158 175.364 112.298 165.391 112.298C155.348 112.298 147.272 112.228 147.272 112.088C147.272 111.947 155.419 111.877 165.391 111.877C175.364 111.947 183.511 112.017 183.511 112.088Z" fill="#263238"/>
<path d="M166.726 115.88C166.726 115.95 162.442 116.09 157.104 116.09C151.767 116.09 147.483 116.02 147.483 115.88C147.483 115.739 151.767 115.669 157.104 115.669C162.371 115.739 166.726 115.809 166.726 115.88Z" fill="#263238"/>
<path d="M293.019 140.184C293.019 140.184 302.641 144.889 306.082 157.039C309.523 169.189 319.847 200.793 319.847 200.793C319.847 200.793 325.746 207.745 326.378 212.942C327.01 218.139 325.746 230.57 323.85 232.958C321.954 235.275 319.215 234.924 319.215 234.924L294.283 232.536L284.451 166.731L293.019 140.184Z" fill="#FD652D"/>
<path d="M210.499 138.99C210.499 138.99 192.66 144.608 188.236 149.454L202.844 217.437L202.633 238.857H287.19C287.19 237.803 287.962 167.644 287.962 167.644L293.019 140.113L262.96 134.846L257.061 130.211L223.632 131.896L218.575 136.953L210.499 138.99Z" fill="#FD652D"/>
<g opacity="0.3">
<path opacity="0.3" d="M217.241 197.982C216.96 197.42 216.609 196.788 215.977 196.647C214.923 196.437 214.291 197.631 213.94 198.614C211.201 206.409 207.549 213.573 202.844 220.315L202.633 230.779C207.549 226.636 212.395 222.211 215.555 216.593C218.716 210.904 219.91 203.881 217.241 197.982Z" fill="black"/>
</g>
<path d="M188.166 149.454C188.166 149.454 182.266 157.46 179.879 162.727C177.421 167.924 157.194 211.888 156 216.453C154.807 221.018 151.646 235.275 160.917 238.575H179.879L198.981 200.019L199.964 155.212L188.166 149.454Z" fill="#FD652D"/>
<path d="M181.072 210.694C181.072 210.694 180.651 210.343 179.808 209.851C178.965 209.36 177.56 208.798 175.805 208.377C174.962 208.166 173.979 208.025 172.925 207.955C171.872 207.885 170.748 207.885 169.624 208.166C167.307 208.657 165.06 210.132 163.234 212.169C161.408 214.206 160.284 216.593 159.582 218.911C158.879 221.229 158.598 223.336 158.458 225.162C158.247 226.988 158.247 228.392 158.177 229.446C158.177 229.937 158.107 230.288 158.107 230.639C158.107 230.92 158.036 231.061 158.036 231.061C158.036 231.061 158.036 230.92 158.036 230.639C158.036 230.359 158.036 229.937 158.036 229.446C158.036 228.462 158.107 226.988 158.247 225.162C158.388 223.336 158.669 221.158 159.301 218.841C159.933 216.523 161.127 214.065 162.953 211.958C164.779 209.851 167.166 208.377 169.554 207.885C170.748 207.604 171.942 207.604 172.995 207.674C174.049 207.745 175.032 207.955 175.945 208.166C177.701 208.587 179.105 209.219 179.948 209.711C180.37 209.992 180.721 210.203 180.861 210.413C181.002 210.624 181.072 210.694 181.072 210.694Z" fill="#263238"/>
<path d="M172.083 203.039C172.083 203.039 172.294 202.969 172.715 202.969C173.137 202.899 173.769 202.899 174.471 202.969C175.243 202.969 176.086 203.11 177.069 203.32C178.053 203.531 179.036 203.882 180.089 204.374C181.143 204.865 182.056 205.427 182.828 206.059C183.601 206.691 184.233 207.253 184.725 207.815C185.216 208.377 185.567 208.868 185.848 209.22C186.059 209.571 186.199 209.781 186.199 209.781C186.129 209.852 185.638 209.079 184.584 208.026C184.092 207.464 183.39 206.902 182.618 206.34C181.845 205.778 180.932 205.217 179.949 204.725C178.966 204.233 177.912 203.882 176.999 203.671C176.086 203.461 175.173 203.25 174.471 203.25C172.996 203.039 172.083 203.11 172.083 203.039Z" fill="#263238"/>
<path d="M189.29 200.933C189.29 200.933 188.939 200.933 188.377 200.863C187.815 200.793 186.972 200.722 185.989 200.652C183.952 200.512 181.213 200.442 178.123 200.793C175.033 201.144 172.364 201.846 170.468 202.478C169.485 202.759 168.712 203.04 168.221 203.251C167.659 203.461 167.378 203.532 167.378 203.532C167.378 203.532 167.659 203.391 168.15 203.11C168.642 202.9 169.415 202.548 170.398 202.197C172.294 201.495 175.033 200.793 178.123 200.371C181.213 200.02 184.022 200.09 186.059 200.301C187.042 200.442 187.885 200.512 188.447 200.652C188.939 200.793 189.29 200.863 189.29 200.933Z" fill="#263238"/>
<path d="M243.367 163.36C243.367 163.36 243.297 163.29 243.157 163.149C243.016 162.939 242.876 162.728 242.665 162.447C242.173 161.815 241.541 160.902 240.769 159.778C239.153 157.461 236.836 154.23 234.167 150.438L234.448 150.367C233.395 153.387 232.271 156.688 231.077 160.2L231.007 160.41L230.796 160.27C230.656 160.2 230.515 160.129 230.375 159.989C228.83 159.006 227.425 157.812 226.231 156.477C225.037 155.143 224.054 153.809 223.281 152.404C221.666 149.595 220.683 146.856 220.051 144.538C219.419 142.221 219.068 140.254 218.787 138.92C218.646 138.288 218.576 137.796 218.506 137.375C218.506 137.234 218.436 137.094 218.436 136.953C218.436 136.883 218.365 136.813 218.365 136.813C218.436 136.813 218.646 137.515 218.927 138.85C219.208 140.184 219.559 142.08 220.262 144.398C220.964 146.715 221.947 149.384 223.562 152.193C224.335 153.528 225.318 154.932 226.512 156.196C227.706 157.461 229.04 158.655 230.585 159.638C230.726 159.708 230.866 159.778 231.007 159.919L230.726 159.989C231.92 156.477 233.043 153.177 234.097 150.157L234.237 149.876L234.448 150.157C237.117 154.019 239.364 157.25 240.979 159.567C241.752 160.691 242.384 161.604 242.805 162.236C243.016 162.517 243.157 162.798 243.297 162.939C243.367 163.29 243.437 163.36 243.367 163.36Z" fill="#263238"/>
<g opacity="0.3">
<path opacity="0.3" d="M265.419 195.805C264.646 203.67 266.402 211.747 270.335 218.629C274.268 225.442 280.027 231.552 287.19 234.853C287.401 227.9 287.12 219.683 287.331 212.66L265.419 195.805Z" fill="black"/>
</g>
<path d="M264.646 186.605C264.646 186.605 261.556 187.448 263.873 193.768C266.191 200.089 266.963 199.668 268.508 205.567C270.054 211.466 271.809 216.804 274.548 220.175C277.217 223.476 287.19 230.288 287.19 230.288L296.179 221.86C296.179 221.86 294.704 215.54 295.055 211.256C295.407 206.972 296.32 196.507 296.179 194.681C296.039 192.855 294.142 188.571 294.142 188.571V185.622L289.507 171.435C289.507 171.435 286.979 170.311 286.066 174.385L284.521 170.031C284.521 170.031 282.063 169.609 281.431 174.666C280.799 179.652 281.922 186.605 281.922 186.605L280.658 195.313L278.762 201.213L277.076 201.494C277.076 201.494 274.548 200.791 273.214 196.086C271.809 191.24 268.087 185.622 264.646 186.605Z" fill="#FFBE9D"/>
<path d="M293.089 208.938C293.089 208.938 293.089 208.797 293.019 208.587C293.019 208.376 292.948 208.025 292.948 207.674C292.878 206.831 292.808 205.637 292.738 204.162C292.597 201.072 292.386 196.858 292.176 191.872L292.246 191.942C291.825 191.45 291.122 191.31 290.42 191.45C289.718 191.591 289.156 192.012 288.735 192.644C287.962 193.908 287.892 195.524 287.681 197.139C287.189 200.721 286.698 204.162 286.276 207.252C286.066 208.797 285.855 210.272 285.504 211.677C285.223 213.081 284.802 214.275 284.38 215.399C283.959 216.523 283.608 217.506 283.397 218.419C283.186 219.332 283.116 220.104 283.116 220.807C283.116 222.141 283.538 222.773 283.467 222.843C283.467 222.843 283.397 222.703 283.257 222.352C283.186 222 282.976 221.509 282.976 220.807C282.905 220.104 282.976 219.332 283.186 218.419C283.397 217.506 283.748 216.452 284.099 215.329C284.521 214.205 284.872 213.011 285.153 211.606C285.434 210.272 285.644 208.797 285.855 207.252C286.276 204.162 286.698 200.721 287.189 197.139C287.33 196.367 287.4 195.524 287.541 194.751C287.681 193.979 287.892 193.206 288.313 192.504C288.735 191.802 289.437 191.31 290.209 191.169C290.982 190.959 291.825 191.169 292.387 191.731L292.457 191.802V191.872C292.597 196.858 292.808 201.072 292.878 204.162C292.948 205.637 292.948 206.831 292.948 207.674C292.948 208.025 292.948 208.376 292.948 208.587C293.159 208.797 293.089 208.938 293.089 208.938Z" fill="#EB996E"/>
<path d="M288.243 192.785C288.243 192.785 288.103 192.505 287.892 192.013C287.681 191.451 287.4 190.679 287.119 189.695C286.838 188.712 286.628 187.518 286.487 186.184C286.417 185.482 286.347 184.779 286.417 184.077C286.487 183.304 286.698 182.532 287.19 181.9C287.611 181.338 288.173 180.846 288.805 180.636L288.945 180.565L289.016 180.706C290.28 183.023 291.474 184.99 292.246 186.465C292.597 187.167 292.948 187.729 293.159 188.15C293.37 188.572 293.44 188.782 293.44 188.782C293.44 188.782 293.3 188.572 293.019 188.22C292.738 187.799 292.387 187.237 292.035 186.535C291.193 185.13 289.999 183.094 288.735 180.846L288.945 180.917C288.383 181.057 287.892 181.478 287.47 182.04C287.049 182.672 286.838 183.375 286.768 184.077C286.698 184.779 286.698 185.482 286.768 186.114C286.909 187.448 287.119 188.642 287.33 189.625C287.541 190.608 287.822 191.381 287.962 191.943C288.173 192.434 288.243 192.785 288.243 192.785Z" fill="#EB996E"/>
<path d="M286.066 193.908C286.066 193.908 285.996 193.627 285.996 193.065C285.996 192.433 285.926 191.731 285.926 190.818C285.855 188.921 285.785 186.323 285.785 183.443C285.785 180.564 285.645 177.965 285.926 176.069C286.066 175.156 286.207 174.384 286.417 173.892C286.558 173.401 286.698 173.12 286.768 173.12C286.839 173.12 286.347 174.243 286.206 176.069C285.996 177.895 286.206 180.564 286.206 183.373C286.277 186.253 286.277 188.851 286.277 190.747C286.277 191.66 286.277 192.363 286.277 192.995C286.136 193.627 286.066 193.908 286.066 193.908Z" fill="#EB996E"/>
<path d="M278.481 217.505C278.411 217.435 278.973 216.803 279.675 215.609C280.026 215.047 280.377 214.275 280.728 213.432C281.08 212.589 281.36 211.606 281.501 210.553C281.712 209.499 281.782 208.516 281.782 207.603C281.782 206.69 281.712 205.847 281.571 205.215C281.36 203.881 281.08 203.038 281.08 203.038C281.08 203.038 281.22 203.249 281.36 203.6C281.501 203.951 281.641 204.513 281.852 205.215C281.993 205.918 282.133 206.76 282.133 207.673C282.133 208.586 282.063 209.64 281.922 210.693C281.712 211.747 281.431 212.73 281.08 213.573C280.728 214.415 280.307 215.188 279.956 215.75C279.605 216.312 279.254 216.803 278.973 217.084C278.692 217.365 278.481 217.576 278.481 217.505Z" fill="#EB996E"/>
<path d="M294.213 213.152L302.008 215.821C302.008 215.821 309.453 211.958 314.579 215.821C319.706 219.683 324.131 229.796 322.726 233.87C322.726 233.87 319.215 238.224 316.476 238.856C313.807 239.488 303.343 236.96 298.988 236.047C294.634 235.134 287.12 230.288 287.12 230.288L294.213 213.152Z" fill="#FFBE9D"/>
<path d="M295.196 224.599C295.196 224.599 295.126 224.389 295.126 223.897C295.126 223.405 295.055 222.773 294.985 222.001C294.915 220.386 294.774 218.208 294.774 215.821C294.704 213.363 294.774 211.185 294.985 209.57C295.055 208.798 295.126 208.166 295.196 207.674C295.266 207.253 295.336 206.972 295.336 206.972C295.406 206.972 295.266 207.955 295.196 209.57C295.126 211.185 295.055 213.363 295.126 215.75C295.196 218.138 295.196 220.245 295.266 221.931C295.266 222.703 295.266 223.335 295.266 223.827C295.196 224.318 295.196 224.599 295.196 224.599Z" fill="#EB996E"/>
<path d="M320.83 215.541C320.76 215.611 319.987 214.487 318.232 213.223C316.546 211.959 313.737 210.554 310.506 210.414C307.206 210.203 304.326 211.257 302.5 212.38C300.604 213.434 299.691 214.487 299.691 214.417C299.691 214.417 299.902 214.136 300.323 213.715C300.744 213.293 301.447 212.731 302.36 212.17C304.186 211.046 307.135 209.922 310.506 210.063C313.877 210.273 316.687 211.678 318.372 213.012C319.215 213.715 319.847 214.347 320.268 214.768C320.619 215.26 320.83 215.541 320.83 215.541Z" fill="#263238"/>
<path d="M319.847 209.009C319.777 209.079 318.794 208.025 316.617 207.253C314.51 206.41 311.209 206.059 307.838 206.972C306.153 207.464 304.608 208.096 303.343 208.868C302.009 209.641 300.956 210.413 300.043 211.186C299.2 211.958 298.498 212.59 298.076 213.012C297.585 213.433 297.374 213.714 297.374 213.714C297.374 213.714 297.585 213.433 298.006 212.941C298.427 212.45 299.059 211.748 299.902 210.975C300.745 210.202 301.869 209.36 303.203 208.587C304.537 207.815 306.082 207.112 307.768 206.621C311.209 205.638 314.58 206.059 316.687 206.972C317.741 207.393 318.583 207.955 319.075 208.306C319.356 208.517 319.496 208.657 319.637 208.798C319.777 208.938 319.847 209.009 319.847 209.009Z" fill="#263238"/>
<path d="M319.917 203.39C319.917 203.46 318.512 203.039 316.265 202.758C315.141 202.618 313.807 202.477 312.262 202.477C310.787 202.477 309.101 202.618 307.416 202.899C305.73 203.18 304.115 203.671 302.71 204.163C301.306 204.654 300.042 205.216 299.058 205.778C297.022 206.831 295.898 207.674 295.828 207.604C295.828 207.604 296.109 207.393 296.6 206.972C296.881 206.761 297.162 206.551 297.584 206.34C298.005 206.129 298.426 205.778 298.918 205.567C299.901 205.006 301.165 204.444 302.57 203.882C303.974 203.39 305.59 202.899 307.345 202.618C309.101 202.337 310.787 202.196 312.262 202.196C313.807 202.196 315.141 202.337 316.265 202.547C316.827 202.618 317.318 202.758 317.81 202.828C318.231 202.899 318.652 203.039 318.933 203.109C319.565 203.25 319.917 203.39 319.917 203.39Z" fill="#263238"/>
<path d="M260.292 134.636C260.292 134.636 260.643 135.339 260.854 136.673C261.064 138.078 260.994 140.114 260.573 142.713C260.362 143.977 260.011 145.381 259.59 146.926C259.098 148.401 258.396 149.946 257.553 151.632C255.867 154.862 253.761 158.374 251.302 162.166L251.022 162.588V162.096C251.022 159.638 251.022 157.04 251.022 154.301L251.302 154.441C249.196 156.127 247.018 157.882 244.771 159.708L244.841 159.638C243.296 164.484 242.313 169.821 241.892 175.37C241.26 183.938 241.751 192.084 242.173 199.529C242.524 206.973 242.734 213.645 242.945 219.263C243.156 224.882 243.366 229.447 243.507 232.537C243.577 234.082 243.647 235.276 243.718 236.119C243.718 236.54 243.788 236.821 243.788 237.032C243.788 237.242 243.788 237.383 243.788 237.383C243.788 237.383 243.788 237.242 243.718 237.032C243.718 236.821 243.647 236.47 243.647 236.119C243.577 235.276 243.437 234.082 243.366 232.537C243.156 229.376 242.945 224.882 242.664 219.263C242.383 213.645 242.102 206.973 241.751 199.529C241.33 192.084 240.768 183.938 241.47 175.37C241.892 169.751 242.875 164.344 244.42 159.498V159.427H244.49C246.737 157.601 248.985 155.846 251.092 154.16L251.373 153.949V154.301C251.373 157.04 251.373 159.638 251.373 162.096L251.092 162.026C255.938 154.511 259.871 148.05 260.432 142.783C260.924 140.255 260.994 138.148 260.783 136.813C260.713 136.111 260.573 135.619 260.503 135.268C260.362 134.847 260.292 134.636 260.292 134.636Z" fill="#263238"/>
<path d="M247.72 225.232H247.44C246.456 225.232 245.543 226.215 245.543 227.198C245.543 228.182 246.456 229.165 247.44 229.165C248.423 229.235 249.406 228.322 249.476 227.339C249.546 226.356 248.704 225.372 247.72 225.232Z" fill="white"/>
<path d="M247.721 198.193H247.44C246.457 198.193 245.544 199.176 245.544 200.159C245.544 201.143 246.457 202.126 247.44 202.126C248.424 202.196 249.407 201.283 249.477 200.3C249.547 199.246 248.704 198.263 247.721 198.193Z" fill="white"/>
<path d="M247.44 173.964C248.424 174.034 249.407 173.121 249.477 172.138C249.547 171.154 248.704 170.101 247.721 170.031H247.44C246.457 170.031 245.544 171.014 245.544 171.997C245.544 172.98 246.457 173.893 247.44 173.964Z" fill="white"/>
<path d="M217.101 102.961C214.643 100.222 212.185 97.4832 210.359 94.2526C208.533 91.022 207.48 87.2998 208.112 83.6479C208.463 81.541 209.376 79.5043 209.517 77.3974C209.727 74.4477 208.463 71.3576 209.517 68.6186C211.132 64.2644 216.961 63.6323 220.472 60.6124C223.211 58.2948 224.546 54.5024 227.566 52.536C230.234 50.8505 233.605 50.8505 236.695 51.2718C239.786 51.6932 242.946 52.4658 246.036 52.0444C248.283 51.7635 250.32 50.8505 252.497 50.2886C254.674 49.7268 257.132 49.5863 259.029 50.71C260.995 51.8337 262.049 54.5727 260.784 56.3986C264.366 54.7131 269.001 57.5223 269.984 61.385C270.968 65.2476 269.001 69.3912 265.911 71.9195C262.821 74.4477 258.888 75.6416 254.955 76.3439C243.929 78.4508 231.92 77.2569 222.369 71.2874" fill="#263238"/>
<path d="M256.009 140.115C255.447 135.901 255.026 132.46 255.026 131.968C255.026 131.968 269.002 128.808 268.229 114.692C267.878 107.879 265.912 93.8333 264.086 81.1919C262.049 67.5673 249.899 57.8053 236.204 58.7183L234.87 58.7885C220.192 60.6145 213.59 74.0987 215.838 88.7065L223.774 137.657C223.774 137.657 227.145 148.472 234.378 150.368L243.508 163.361L244.983 157.743L251.795 151.843C251.795 151.843 253.34 150.158 255.166 146.857C256.501 144.188 256.22 141.449 256.009 140.115Z" fill="#FFBE9D"/>
<path d="M255.028 131.819C255.028 131.819 246.109 133.153 236.277 127.815C236.277 127.815 241.333 137.718 255.309 135.47L255.028 131.819Z" fill="#EB996E"/>
<path d="M259.514 93.3387C259.654 94.3922 258.811 95.3754 257.688 95.5159C256.564 95.6563 255.581 94.8838 255.51 93.8304C255.37 92.7769 256.213 91.7937 257.336 91.6532C258.39 91.5128 259.373 92.2853 259.514 93.3387Z" fill="#263238"/>
<path d="M261.486 88.3503C261.276 88.6312 259.66 87.5778 257.483 87.7182C255.306 87.8587 253.761 89.0526 253.55 88.8419C253.41 88.7014 253.621 88.2098 254.323 87.7182C254.955 87.1564 256.079 86.5945 257.483 86.5243C258.818 86.4541 260.012 86.8755 260.714 87.2968C261.346 87.7182 261.627 88.2098 261.486 88.3503Z" fill="#263238"/>
<path d="M239.014 94.8153C239.155 95.8688 238.312 96.852 237.188 96.9924C236.065 97.1329 235.081 96.3604 235.011 95.3069C234.871 94.2535 235.713 93.2702 236.837 93.1298C237.891 92.9893 238.874 93.7619 239.014 94.8153Z" fill="#263238"/>
<path d="M240.129 90.1779C239.918 90.4588 238.303 89.4054 236.126 89.5459C233.949 89.6863 232.404 90.8802 232.193 90.6695C232.052 90.5291 232.263 90.0375 232.965 89.5459C233.598 88.984 234.721 88.4222 236.126 88.352C237.46 88.2817 238.654 88.7031 239.356 89.1245C239.988 89.5459 240.269 90.0375 240.129 90.1779Z" fill="#263238"/>
<path d="M249.121 105.771C249.121 105.63 250.455 105.35 252.632 104.928C253.194 104.858 253.686 104.717 253.756 104.296C253.826 103.875 253.615 103.313 253.264 102.681C252.632 101.346 252 100.012 251.368 98.5372C248.699 92.7081 246.733 87.8623 246.944 87.7218C247.154 87.5814 249.542 92.2868 252.211 98.1158C252.843 99.5907 253.475 100.925 254.037 102.259C254.318 102.891 254.669 103.594 254.458 104.437C254.318 104.858 253.967 105.209 253.615 105.279C253.264 105.42 252.983 105.42 252.702 105.49C250.525 105.771 249.121 105.841 249.121 105.771Z" fill="#263238"/>
<path d="M240.132 81.6147C239.992 82.2467 237.744 82.1063 235.216 82.5277C232.688 82.949 230.651 83.862 230.3 83.3002C230.159 83.0895 230.44 82.4574 231.213 81.8254C231.985 81.1933 233.25 80.5612 234.795 80.2803C236.34 79.9994 237.744 80.1398 238.657 80.491C239.711 80.9124 240.202 81.3337 240.132 81.6147Z" fill="#263238"/>
<path d="M260.296 82.107C259.945 82.5986 258.4 82.2474 256.644 82.3177C254.818 82.3177 253.343 82.8795 252.992 82.3879C252.852 82.1772 253.063 81.6154 253.695 81.1237C254.327 80.6321 255.38 80.1405 256.644 80.1405C257.908 80.0703 258.962 80.4917 259.664 80.9131C260.156 81.3344 260.437 81.826 260.296 82.107Z" fill="#263238"/>
<path d="M217.665 99.1733C217.384 99.103 207.763 96.9259 208.746 106.618C209.729 116.239 220.123 113.149 220.123 112.868C220.123 112.517 217.665 99.1733 217.665 99.1733Z" fill="#FFBE9D"/>
<path d="M215.837 109.636C215.767 109.636 215.697 109.776 215.416 109.916C215.135 110.057 214.714 110.197 214.152 110.057C213.099 109.776 212.045 108.231 211.834 106.545C211.694 105.703 211.834 104.79 212.045 104.087C212.256 103.385 212.677 102.823 213.169 102.683C213.66 102.542 214.082 102.753 214.222 103.034C214.363 103.315 214.363 103.455 214.363 103.526C214.363 103.526 214.573 103.315 214.433 102.964C214.363 102.753 214.222 102.542 214.012 102.402C213.731 102.261 213.379 102.191 213.028 102.261C212.256 102.402 211.694 103.104 211.413 103.947C211.132 104.719 210.992 105.703 211.062 106.686C211.343 108.652 212.466 110.338 213.941 110.619C214.644 110.759 215.205 110.478 215.486 110.197C215.837 109.846 215.837 109.636 215.837 109.636Z" fill="#EB996E"/>
<path d="M263.312 67.9873C262.68 71.8499 254.884 75.3614 248.423 75.1507C242.454 75.0103 239.504 71.9904 235.22 69.9537C232.481 68.6193 232.481 68.6193 228.759 69.2514C225.739 69.743 224.194 73.2545 222.508 75.7828C225.739 82.8058 224.405 90.9525 223.07 98.5373C222.93 99.3801 222.719 100.293 222.087 100.855C221.034 101.838 219.278 101.206 218.154 100.293C216.469 98.748 215.696 96.4304 215.134 94.183C213.87 89.0562 213.378 83.7188 214.151 78.5218C214.994 73.3247 217.101 68.2682 220.682 64.3353C225.107 59.4894 231.638 56.6802 238.24 56.3291C244.842 55.9779 251.443 58.0146 256.921 61.6666C259.52 63.2819 261.907 65.3185 263.312 67.9873Z" fill="#263238"/>
<path d="M250.53 110.617C248.915 109.845 247.229 109.072 245.614 108.3C245.333 108.159 245.052 108.019 244.701 108.089C244.35 108.159 244.069 108.37 243.858 108.651C242.734 110.055 242.453 112.092 243.296 113.707C244.209 115.252 246.246 116.095 247.931 115.393C249.687 114.691 250.53 112.654 250.67 110.758L250.53 110.617Z" fill="#EB996E"/>
<path d="M248.072 115.744C248.072 115.814 247.861 115.954 247.37 116.025C246.878 116.095 246.106 116.165 245.263 115.884C244.42 115.603 243.437 114.901 242.805 113.847C242.173 112.794 241.962 111.319 242.524 109.985C242.805 109.353 243.156 108.721 243.648 108.299C243.929 108.089 244.139 107.878 244.42 107.667C244.561 107.597 244.771 107.527 244.982 107.457C245.193 107.457 245.403 107.527 245.544 107.597C245.895 107.737 246.106 107.878 246.316 108.018C246.527 108.159 246.738 108.299 247.019 108.44C247.44 108.721 247.861 108.931 248.213 109.212C249.687 110.125 250.53 110.757 250.53 110.828C250.46 110.898 249.477 110.476 248.002 109.634C247.581 109.423 247.229 109.212 246.738 108.931C246.527 108.791 246.316 108.65 246.035 108.58C245.825 108.44 245.544 108.299 245.333 108.229C245.122 108.159 244.982 108.159 244.771 108.299C244.561 108.44 244.35 108.58 244.139 108.791C243.718 109.212 243.367 109.704 243.156 110.266C242.735 111.389 242.875 112.654 243.367 113.567C243.858 114.48 244.631 115.112 245.403 115.463C246.176 115.744 246.808 115.814 247.3 115.814C247.791 115.744 248.072 115.673 248.072 115.744Z" fill="#263238"/>
<path d="M246.526 93.6212C246.456 93.6212 246.526 92.7082 246.175 91.1632C245.754 89.6181 244.771 87.441 242.523 85.6852C241.4 84.8425 239.995 84.1402 238.31 83.8593C236.694 83.5783 234.868 83.6486 233.113 84.2806C232.2 84.5616 231.357 85.0532 230.584 85.615C229.812 86.1768 229.109 86.8791 228.477 87.7219C227.283 89.3372 226.581 91.4441 226.581 93.551C226.581 95.7281 227.283 97.7648 228.477 99.3801C229.039 100.223 229.812 100.925 230.584 101.487C231.357 102.049 232.2 102.54 233.113 102.821C234.868 103.453 236.694 103.524 238.31 103.243C239.925 102.962 241.4 102.26 242.523 101.417C244.771 99.661 245.824 97.4839 246.175 95.9388C246.526 94.464 246.526 93.551 246.526 93.6212C246.526 93.6212 246.526 93.6915 246.526 93.7617C246.526 93.9021 246.526 94.0426 246.526 94.2533C246.526 94.464 246.526 94.7449 246.456 95.0258C246.386 95.3067 246.386 95.6579 246.246 96.0793C246.105 96.8518 245.754 97.835 245.122 98.8182C244.56 99.8015 243.717 100.855 242.594 101.698C241.47 102.54 239.995 103.313 238.31 103.664C236.624 103.945 234.728 103.945 232.902 103.243C231.989 102.962 231.146 102.47 230.303 101.838C229.461 101.276 228.758 100.504 228.126 99.661C226.862 97.9755 226.16 95.7984 226.16 93.6212C226.16 91.3739 226.862 89.267 228.126 87.5814C228.758 86.7387 229.461 85.9662 230.303 85.4043C231.076 84.7722 231.989 84.3509 232.902 83.9997C234.728 83.2974 236.624 83.2974 238.31 83.5783C239.995 83.8593 241.47 84.6318 242.594 85.5448C243.717 86.4578 244.56 87.441 245.192 88.4242C245.754 89.4074 246.105 90.3204 246.316 91.1632C246.456 91.5846 246.456 91.9357 246.526 92.2166C246.597 92.4975 246.597 92.7785 246.597 92.9891C246.597 93.1998 246.597 93.3403 246.597 93.4808C246.526 93.551 246.526 93.6212 246.526 93.6212Z" fill="#263238"/>
<path d="M270.616 92.6373C270.546 92.6373 270.616 91.7946 270.265 90.2495C269.914 88.7747 268.931 86.5976 266.683 84.9121C265.559 84.0693 264.225 83.367 262.61 83.0861C260.995 82.8052 259.239 82.8754 257.553 83.5075C256.711 83.7884 255.868 84.28 255.095 84.8418C254.323 85.4037 253.62 86.106 253.059 86.8785C251.865 88.4235 251.233 90.4602 251.162 92.5671C251.162 94.674 251.865 96.7107 253.059 98.2557C253.62 99.0283 254.323 99.7306 255.095 100.292C255.868 100.854 256.711 101.276 257.553 101.627C259.239 102.259 261.065 102.329 262.61 102.048C264.225 101.767 265.559 101.065 266.683 100.222C268.931 98.5367 269.914 96.3595 270.265 94.8847C270.616 93.5503 270.546 92.6373 270.616 92.6373C270.616 92.6373 270.616 92.848 270.616 93.2694C270.616 93.4801 270.616 93.761 270.546 94.0419C270.476 94.3229 270.476 94.674 270.335 95.0954C269.984 96.5702 269.001 98.8176 266.753 100.573C265.63 101.416 264.225 102.189 262.61 102.47C260.995 102.75 259.098 102.75 257.343 102.048C256.43 101.767 255.587 101.276 254.814 100.714C254.042 100.152 253.269 99.4496 252.707 98.6069C251.443 96.9916 250.811 94.8847 250.741 92.7076C250.741 90.5304 251.443 88.4235 252.707 86.8083C253.339 85.9655 254.042 85.2632 254.814 84.7014C255.587 84.1395 256.43 83.6479 257.343 83.367C259.098 82.7349 260.924 82.6647 262.61 82.9456C264.225 83.2265 265.7 83.9991 266.753 84.8418C269.001 86.5976 269.984 88.8449 270.335 90.3198C270.476 90.6709 270.476 91.0221 270.546 91.3732C270.616 91.6541 270.616 91.935 270.616 92.1457C270.616 92.4267 270.616 92.6373 270.616 92.6373Z" fill="#263238"/>
<path d="M250.951 90.3892C250.881 90.4594 250.67 90.2488 250.249 90.0381C249.828 89.8274 249.196 89.6167 248.493 89.6167C247.791 89.6167 247.159 89.8274 246.738 90.0381C246.316 90.2488 246.106 90.4594 246.035 90.3892C246.035 90.3892 246.176 90.1083 246.597 89.7572C247.018 89.4762 247.721 89.1953 248.493 89.1953C249.266 89.1953 249.968 89.4762 250.39 89.7572C250.811 90.1083 251.022 90.3892 250.951 90.3892Z" fill="#263238"/>
<path d="M227.003 92.1465C227.073 92.2167 225.107 93.832 222.578 95.6579C220.12 97.4839 218.013 98.9588 217.943 98.8885C217.873 98.8183 219.839 97.203 222.368 95.377C224.896 93.5511 226.933 92.0762 227.003 92.1465Z" fill="#263238"/>
<g opacity="0.3">
<path opacity="0.3" d="M218.715 137.867C217.732 147.418 221.384 157.461 229.039 163.22C229.671 163.641 230.373 164.133 231.076 163.852C231.567 163.641 231.848 163.22 232.129 162.728C234.306 158.936 235.009 154.792 234.377 150.508C233.183 153.668 232.129 156.829 230.935 160.13C224.263 156.126 220.12 147.558 218.715 137.867Z" fill="black"/>
</g>
<path opacity="0.3" d="M244.56 159.567L250.179 157.53L251.092 167.011C251.092 167.011 257.132 155.985 259.66 150.928C262.188 145.872 260.854 137.023 260.854 137.023C260.854 137.023 261.767 144.748 255.657 154.651L251.092 162.095V154.3L244.56 159.567Z" fill="black"/>
<g opacity="0.3">
<path opacity="0.3" d="M179.317 207.745C176.788 206.551 173.909 206.41 171.17 206.691C168.291 207.043 165.341 207.885 163.094 209.782C160.846 211.607 159.301 214.487 159.582 217.437L159.863 217.507C161.829 212.24 165.692 208.377 170.749 207.885C175.735 207.394 180.651 209.641 184.092 213.363C183.741 210.554 181.845 208.939 179.317 207.745Z" fill="black"/>
</g>
<g opacity="0.3">
<path opacity="0.3" d="M321.181 213.153C319.285 211.117 316.687 209.923 313.948 209.431C309.172 208.588 304.045 210.063 300.464 213.364L301.517 212.521C304.256 210.906 307.346 209.993 310.506 210.063C313.667 210.133 316.827 211.327 319.074 213.504C321.181 215.471 322.445 218.21 323.639 220.808C324.131 218.069 323.078 215.19 321.181 213.153Z" fill="black"/>
</g>
<path d="M285.013 169.118C285.013 169.118 285.084 168.837 285.294 168.345C285.505 167.783 285.786 167.081 286.067 166.308C286.769 164.553 287.682 162.235 288.665 159.566C289.649 156.898 290.491 154.51 291.123 152.754C291.404 151.911 291.685 151.279 291.826 150.717C292.036 150.226 292.107 149.945 292.107 149.945C292.107 149.945 292.036 150.226 291.966 150.717C291.826 151.209 291.615 151.911 291.334 152.824C290.772 154.58 290 157.038 289.017 159.707C288.033 162.376 287.05 164.693 286.348 166.449C285.997 167.292 285.645 167.994 285.435 168.415C285.154 168.837 285.084 169.118 285.013 169.118Z" fill="#263238"/>
<path d="M196.453 169.821C196.383 169.821 195.61 166.52 194.768 162.376C193.925 158.233 193.293 154.862 193.433 154.862C193.504 154.862 194.276 158.163 195.119 162.306C195.962 166.38 196.594 169.751 196.453 169.821Z" fill="#263238"/>
<path d="M195.189 211.607C195.399 211.748 192.59 189.695 192.59 189.695C192.59 189.695 194.346 172.981 195.329 172.208V166.309C195.329 166.309 198.068 164.623 198.77 167.292C198.77 167.292 201.158 165.185 201.58 170.171C202.001 175.158 202.071 180.285 202.071 180.285L207.479 193.769L208.392 194.19C208.392 194.19 209.516 183.656 210.218 182.11C210.92 180.565 211.342 176.773 213.94 177.335C216.468 177.897 216.679 180.004 216.258 183.445C215.766 186.886 215.204 190.468 215.415 192.645C215.626 194.892 216.609 199.738 216.328 203.671C216.047 207.534 213.87 211.677 211.623 214.557C209.375 217.436 205.091 223.406 202.774 225.161C202.071 225.934 195.189 211.607 195.189 211.607Z" fill="#FFBE9D"/>
<path d="M197.857 193.698C197.857 193.698 197.857 193.347 197.857 192.785C197.927 192.083 197.998 191.24 198.068 190.257C198.208 188.08 198.489 185.13 198.77 181.829C198.911 180.214 199.051 178.599 199.192 177.194C199.262 176.492 199.332 175.79 199.192 175.228C199.121 174.596 198.84 174.104 198.489 173.683C197.787 172.91 196.874 172.7 196.312 172.7C195.75 172.7 195.399 172.84 195.399 172.84C195.399 172.84 195.469 172.77 195.61 172.7C195.75 172.629 195.961 172.559 196.312 172.559C196.944 172.489 197.927 172.7 198.7 173.472C199.121 173.893 199.402 174.455 199.472 175.087C199.613 175.719 199.543 176.422 199.472 177.124C199.332 178.529 199.192 180.144 199.051 181.759C198.77 185.06 198.489 188.01 198.208 190.187C198.068 191.24 197.998 192.083 197.927 192.715C197.927 193.347 197.927 193.698 197.857 193.698Z" fill="#EB996E"/>
<path d="M200.807 184.709C200.878 184.779 200.246 185.271 199.824 186.465C199.403 187.588 199.262 189.344 198.911 191.24C198.63 193.136 198.349 194.822 198.139 196.016C197.928 197.21 197.787 197.982 197.717 197.982C197.647 197.982 197.717 197.21 197.928 195.946C198.068 194.681 198.349 192.996 198.63 191.1C198.911 189.204 199.122 187.518 199.613 186.324C199.824 185.762 200.175 185.271 200.386 185.06C200.597 184.779 200.737 184.639 200.807 184.709Z" fill="#EB996E"/>
<path d="M198.771 167.081C198.771 167.081 198.841 167.291 198.981 167.783C199.052 168.204 199.192 168.907 199.332 169.679C199.613 171.294 199.894 173.542 200.105 176.07C200.316 178.598 200.316 180.846 200.316 182.461C200.316 183.304 200.245 183.936 200.245 184.427C200.245 184.919 200.175 185.13 200.175 185.13C200.105 185.13 200.105 184.146 200.035 182.461C199.965 180.846 199.894 178.528 199.754 176.07C199.543 173.542 199.332 171.294 199.122 169.679C198.911 168.064 198.771 167.081 198.771 167.081Z" fill="#EB996E"/>
<path d="M214.361 187.659C214.432 187.729 213.589 188.151 212.535 187.8C211.482 187.519 210.99 186.676 211.131 186.676C211.201 186.606 211.763 187.168 212.676 187.448C213.519 187.8 214.291 187.589 214.361 187.659Z" fill="#EB996E"/>
<path d="M195.47 208.868L181.213 214.837H172.715C172.715 214.837 164.358 217.436 163.024 225.301C161.759 233.167 161.549 237.241 165.271 238.154C168.993 239.137 179.387 239.207 184.514 237.522C189.711 235.836 203.195 224.88 203.195 224.88L204.53 217.014L195.47 208.868Z" fill="#FFBE9D"/>
<path d="M198.77 217.506C198.77 217.506 198.63 217.365 198.349 217.155C198.068 216.874 197.787 216.523 197.436 215.961C196.734 214.907 195.961 213.292 195.469 211.466C194.908 209.64 194.697 207.884 194.627 206.62C194.486 205.356 194.556 204.583 194.556 204.583C194.627 204.583 194.697 205.356 194.837 206.62C195.048 207.884 195.259 209.57 195.821 211.396C196.312 213.222 197.014 214.767 197.646 215.891C198.349 216.874 198.84 217.506 198.77 217.506Z" fill="#EB996E"/>
<path d="M205.021 220.035C204.951 220.035 205.583 218.912 205.864 217.015C206.004 216.032 206.004 214.909 205.723 213.644C205.442 212.38 204.88 211.116 203.967 209.922C203.125 208.728 202.141 207.675 201.299 206.621C200.456 205.638 199.824 204.585 199.402 203.742C198.981 202.829 198.77 202.056 198.7 201.495C198.63 200.933 198.63 200.652 198.7 200.652C198.77 200.652 198.77 201.916 199.683 203.672C200.105 204.514 200.807 205.498 201.65 206.481C202.493 207.464 203.476 208.518 204.319 209.782C205.232 211.046 205.864 212.38 206.074 213.644C206.355 214.979 206.355 216.173 206.145 217.156C206.004 218.139 205.723 218.912 205.512 219.403C205.372 219.684 205.302 219.825 205.232 219.965C205.021 219.965 205.021 220.035 205.021 220.035Z" fill="#EB996E"/>
<path d="M183.039 185.764C182.969 185.834 181.424 182.954 179.598 179.443C177.772 175.931 176.367 172.982 176.437 172.982C176.508 172.911 178.053 175.791 179.879 179.302C181.705 182.814 183.109 185.693 183.039 185.764Z" fill="white"/>
<path d="M206.074 160.129C206.003 160.059 206.916 157.742 208.251 154.862C209.515 151.983 210.639 149.735 210.709 149.735C210.779 149.806 209.866 152.123 208.532 155.003C207.268 157.882 206.144 160.2 206.074 160.129Z" fill="white"/>
<path d="M228.618 176.773C228.548 176.843 227.073 175.228 225.388 173.192C223.702 171.155 222.368 169.399 222.438 169.329C222.508 169.259 223.983 170.874 225.669 172.911C227.354 174.947 228.689 176.703 228.618 176.773Z" fill="white"/>
<path d="M223.421 199.598C223.351 199.528 224.404 197.913 225.879 195.946C227.284 193.98 228.548 192.435 228.618 192.505C228.688 192.575 227.635 194.191 226.16 196.157C224.755 198.124 223.491 199.669 223.421 199.598Z" fill="white"/>
<path d="M216.468 231.975C216.398 231.975 216.117 231.483 215.625 230.57C215.134 229.657 214.572 228.393 213.94 226.989C213.308 225.584 212.816 224.25 212.535 223.337C212.184 222.353 212.044 221.792 212.114 221.792C212.184 221.792 212.395 222.353 212.816 223.266C213.237 224.32 213.799 225.514 214.361 226.918C214.923 228.253 215.485 229.447 215.906 230.5C216.257 231.343 216.468 231.905 216.468 231.975Z" fill="white"/>
<path d="M236.274 218.209C236.274 218.279 234.377 217.998 231.99 217.577C229.672 217.156 227.776 216.664 227.776 216.594C227.776 216.524 229.672 216.804 232.06 217.226C234.448 217.647 236.274 218.139 236.274 218.209Z" fill="white"/>
<path d="M251.653 188.01C251.583 187.94 253.409 185.833 255.727 183.375C258.044 180.847 260.011 178.88 260.081 178.951C260.151 179.021 258.325 181.128 256.008 183.586C253.69 186.114 251.724 188.08 251.653 188.01Z" fill="white"/>
<path d="M267.104 228.251C267.034 228.322 264.787 225.653 262.048 222.352C259.309 219.051 257.202 216.312 257.272 216.242C257.342 216.172 259.59 218.841 262.329 222.141C265.068 225.512 267.245 228.251 267.104 228.251Z" fill="white"/>
<path d="M171.1 211.116C171.171 211.186 169.064 212.24 166.816 213.996C164.569 215.751 162.954 217.437 162.883 217.367C162.883 217.367 163.164 216.875 163.867 216.173C164.499 215.47 165.482 214.557 166.606 213.715C167.729 212.872 168.853 212.17 169.696 211.748C170.538 211.257 171.03 211.046 171.1 211.116Z" fill="white"/>
<path d="M176.859 195.596C176.929 195.666 176.227 196.93 175.244 198.405C174.26 199.88 173.347 201.074 173.277 201.003C173.207 200.933 173.909 199.669 174.892 198.194C175.876 196.719 176.789 195.525 176.859 195.596Z" fill="white"/>
<path d="M189.922 210.835C189.852 210.905 189.079 209.641 188.728 207.956C188.307 206.27 188.447 204.795 188.587 204.866C188.728 204.866 188.728 206.27 189.149 207.886C189.43 209.501 189.992 210.765 189.922 210.835Z" fill="white"/>
<path d="M191.817 162.446C191.817 162.516 190.623 162.797 189.078 163.008C187.603 163.219 186.339 163.289 186.339 163.219C186.339 163.148 187.533 162.868 189.078 162.657C190.553 162.446 191.817 162.306 191.817 162.446Z" fill="white"/>
<path d="M201.65 145.1C201.72 145.17 200.667 145.873 199.262 146.645C197.928 147.418 196.734 147.909 196.734 147.839C196.664 147.769 197.717 147.067 199.122 146.294C200.456 145.522 201.58 144.96 201.65 145.1Z" fill="white"/>
<path d="M229.18 152.403C229.11 152.473 227.916 150.999 226.441 149.173C225.036 147.347 223.913 145.731 224.053 145.661C224.123 145.591 225.317 147.066 226.792 148.892C228.126 150.788 229.25 152.333 229.18 152.403Z" fill="white"/>
<path d="M264.084 169.892C264.013 169.962 262.749 168.628 261.555 166.732C260.361 164.836 259.729 163.08 259.87 163.08C259.94 163.01 260.713 164.695 261.906 166.521C263.03 168.417 264.224 169.822 264.084 169.892Z" fill="white"/>
<path d="M277.428 174.247C277.498 174.317 276.866 175.932 275.953 177.899C275.04 179.865 274.267 181.41 274.197 181.41C274.127 181.34 274.759 179.725 275.672 177.758C276.585 175.792 277.357 174.247 277.428 174.247Z" fill="white"/>
<path d="M279.325 156.055C279.254 156.126 277.639 154.37 275.743 152.052C273.847 149.805 272.372 147.909 272.442 147.838C272.512 147.768 274.128 149.524 276.024 151.842C277.92 154.089 279.395 155.985 279.325 156.055Z" fill="white"/>
<path d="M258.957 141.238C258.887 141.238 258.747 139.693 258.606 137.867C258.536 135.97 258.536 134.425 258.676 134.425C258.747 134.425 258.887 135.97 259.027 137.796C259.098 139.763 259.027 141.238 258.957 141.238Z" fill="white"/>
<path d="M275.532 140.325C275.532 140.395 273.635 140.746 271.177 141.097C268.79 141.448 266.823 141.589 266.823 141.519C266.823 141.448 268.719 141.097 271.177 140.746C273.565 140.395 275.532 140.254 275.532 140.325Z" fill="white"/>
<path d="M301.727 159.566C301.656 159.637 300.462 157.389 299.128 154.58C297.794 151.771 296.74 149.523 296.881 149.453C296.951 149.383 298.145 151.63 299.479 154.44C300.814 157.249 301.797 159.496 301.727 159.566Z" fill="white"/>
<path d="M297.303 176.143C297.232 176.143 297.443 174.317 297.935 172.139C298.356 169.962 298.777 168.207 298.918 168.207C298.988 168.207 298.777 170.033 298.286 172.21C297.864 174.457 297.443 176.213 297.303 176.143Z" fill="white"/>
<path d="M309.453 189.274C309.383 189.274 308.399 186.886 307.346 183.867C306.292 180.847 305.52 178.389 305.59 178.318C305.66 178.318 306.644 180.706 307.697 183.726C308.75 186.746 309.523 189.204 309.453 189.274Z" fill="white"/>
<path d="M307.767 196.93C307.767 197.001 306.082 196.649 304.185 195.666C302.359 194.683 301.095 193.419 301.166 193.419C301.236 193.349 302.5 194.402 304.326 195.385C306.222 196.298 307.767 196.79 307.767 196.93Z" fill="white"/>
<path d="M323.288 214.417C323.218 214.487 322.656 213.364 322.024 212.029C321.392 210.695 321.041 209.571 321.111 209.501C321.181 209.431 321.743 210.555 322.375 211.889C323.007 213.223 323.429 214.347 323.288 214.417Z" fill="white"/>
<path d="M231.497 238.717C231.427 238.717 231.146 237.313 230.936 235.627C230.725 233.871 230.655 232.467 230.725 232.467C230.795 232.467 231.076 233.871 231.287 235.557C231.497 237.313 231.568 238.717 231.497 238.717Z" fill="white"/>
<path d="M279.183 237.523C279.113 237.523 279.324 236.118 279.675 234.503C280.026 232.818 280.377 231.483 280.518 231.553C280.588 231.553 280.377 232.958 280.026 234.573C279.675 236.259 279.253 237.593 279.183 237.523Z" fill="white"/>
<path d="M287.525 98.2515L293.705 87.3659C290.966 82.9414 289.421 77.7444 289.421 72.126C289.421 56.0433 302.414 43.0508 318.496 43.0508C334.579 43.0508 347.572 56.0433 347.572 72.126C347.572 88.2086 334.579 101.201 318.496 101.201C311.825 101.201 305.644 98.9538 300.728 95.0912L287.525 98.2515Z" fill="#FAFAFA"/>
<path d="M287.525 98.2512C288.157 98.1108 292.301 97.1276 300.728 95.2313H300.869L300.798 95.0909L300.658 95.2313C302.344 96.4955 304.31 97.7596 306.628 98.8131C308.945 99.8665 311.614 100.709 314.634 101.06C316.109 101.271 317.654 101.341 319.269 101.271C320.042 101.201 320.884 101.201 321.657 101.131C322.5 100.99 323.272 100.85 324.115 100.78C327.416 100.147 330.787 98.8833 333.947 96.9169C337.107 94.9504 339.987 92.3519 342.304 89.1213C344.622 85.8908 346.378 82.0281 347.22 77.8845C348.063 73.741 347.993 69.2463 346.869 64.9622C345.746 60.6782 343.709 56.4644 340.619 53.0231L339.425 51.6888C339.004 51.2674 338.582 50.9162 338.161 50.4949C337.739 50.1437 337.318 49.6521 336.826 49.3712L335.422 48.3177C335 47.9666 334.439 47.6857 333.947 47.3345C333.455 47.0536 332.964 46.7024 332.472 46.4215C331.981 46.1406 331.419 45.9299 330.927 45.649C330.436 45.4383 329.944 45.1574 329.382 44.9467C325.168 43.2612 320.674 42.6291 316.319 42.91C312.035 43.1909 307.892 44.4551 304.38 46.4215C300.798 48.388 297.849 51.0567 295.531 54.0064C293.214 56.956 291.598 60.1866 290.545 63.4172C289.562 66.6478 289.281 69.8783 289.281 72.8982C289.351 75.9181 289.913 78.6571 290.685 81.0449C291.458 83.4327 292.511 85.5396 293.635 87.2954V87.2251C289.772 94.3183 287.876 97.7596 287.525 98.2512C287.806 97.6894 289.772 94.3184 293.775 87.4358V87.3656V87.2954C292.722 85.5396 291.669 83.5029 290.896 81.0449C290.124 78.6571 289.562 75.9181 289.491 72.9684C289.491 70.0188 289.772 66.7882 290.756 63.6279C291.739 60.3973 293.424 57.2369 295.672 54.2873C297.989 51.4079 300.939 48.8093 304.45 46.8429C307.962 44.8765 312.035 43.6826 316.319 43.3314C320.603 43.0505 325.028 43.6826 329.171 45.2978C329.733 45.4383 330.225 45.7192 330.716 46.0001C331.208 46.2811 331.7 46.4918 332.262 46.7727C332.753 47.0536 333.245 47.3345 333.736 47.6857C334.228 47.9666 334.72 48.2475 335.141 48.5987L336.546 49.6521C337.037 50.0033 337.388 50.4246 337.88 50.7758C338.301 51.1972 338.793 51.5483 339.144 51.9697L340.338 53.2338C343.358 56.6751 345.395 60.8187 346.518 65.0325C347.572 69.3165 347.642 73.6707 346.869 77.8143C346.027 81.9579 344.341 85.7503 342.023 88.9106C339.706 92.1412 336.826 94.7397 333.736 96.6359C330.646 98.6024 327.275 99.7963 324.045 100.499C323.202 100.639 322.429 100.78 321.587 100.85C320.814 100.92 319.971 100.92 319.199 100.99C317.654 101.06 316.109 100.99 314.634 100.78C311.684 100.428 309.015 99.5856 306.698 98.5322C304.38 97.4787 302.414 96.2848 300.728 94.9504L300.166 94.529L300.588 95.0909L300.658 94.9504C292.301 97.1275 288.157 98.1108 287.525 98.2512Z" fill="#263238"/>
<path d="M326.358 70.9332C326.358 72.4783 327.622 73.7424 329.167 73.7424C330.713 73.7424 331.977 72.4783 331.977 70.9332C331.977 69.3882 330.713 68.124 329.167 68.124C327.622 68.124 326.358 69.3882 326.358 70.9332Z" fill="#263238"/>
<path d="M314.981 70.9322C314.981 72.4773 316.245 73.7414 317.79 73.7414C319.335 73.7414 320.599 72.4773 320.599 70.9322C320.599 69.3872 319.335 68.123 317.79 68.123C316.245 68.123 314.981 69.3872 314.981 70.9322Z" fill="#263238"/>
<path d="M303.6 69.5295C302.827 70.8638 303.248 72.6196 304.653 73.3921C305.987 74.1646 307.743 73.7433 308.516 72.3387C309.288 71.0043 308.867 69.2485 307.462 68.476C306.128 67.7035 304.372 68.1951 303.6 69.5295Z" fill="#263238"/>
</g>
<defs>
<clipPath id="clip0_877_45050">
<rect width="495.402" height="281.692" fill="white"/>
</clipPath>
</defs>
</svg>
