<svg width="410" height="388" viewBox="0 0 410 388" fill="none" xmlns="http://www.w3.org/2000/svg">
<g filter="url(#filter0_d_877_48137)">
<path d="M162.698 285.926H146.445V385.567H162.698V285.926Z" fill="#FFE8D7"/>
<path d="M368.519 286.161H352.266V385.811H368.519V286.161Z" fill="#FFE8D7"/>
<path d="M403.239 346.684H386.987V385.802H403.239V346.684Z" fill="#FFE8D7"/>
<path d="M26.9345 292.221H10.682V385.566H26.9345V292.221Z" fill="#FFE8D7"/>
<path d="M60.8762 220.807H44.6237V385.567H60.8762V220.807Z" fill="#FFE8D7"/>
<path d="M94.8145 327.306H78.562V385.575H94.8145V327.306Z" fill="#FFE8D7"/>
<path d="M128.756 213.221H112.504V385.576H128.756V213.221Z" fill="#FFE8D7"/>
<path d="M196.628 228.121H180.375V385.567H196.628V228.121Z" fill="#FFE8D7"/>
<path d="M230.567 269.037H214.314V385.575H230.567V269.037Z" fill="#FFE8D7"/>
<path d="M264.508 212.04H248.256V385.567H264.508V212.04Z" fill="#FFE8D7"/>
<path d="M298.45 182.314H282.197V385.566H298.45V182.314Z" fill="#FFE8D7"/>
<path d="M332.38 241.583H316.127V385.576H332.38V241.583Z" fill="#FFE8D7"/>
</g>
<path d="M402.07 385.764C402.07 385.891 312.059 386 201.044 386C90.0292 386 0 385.891 0 385.764C0 385.637 89.9929 385.528 201.044 385.528C312.095 385.528 402.07 385.628 402.07 385.764Z" fill="black"/>
<path d="M334 332.582C320.372 326.813 304.683 315.466 297.661 301.558C312.745 307.803 325.466 318.663 334 332.582Z" fill="black"/>
<path d="M331.111 310.99C317.484 305.23 301.795 293.884 294.772 279.966C309.853 286.217 322.572 297.076 331.111 310.99Z" fill="black"/>
<path d="M327.177 289.993C313.55 284.225 297.861 272.878 290.838 258.969C305.492 264.856 318.41 275.894 327.177 289.993Z" fill="black"/>
<path d="M322.253 268.009C309.434 260.405 295.144 246.978 289.821 232.233C304.063 240.527 315.392 253.023 322.253 268.009Z" fill="black"/>
<path d="M316.984 251.193C307.645 238.974 298.942 220.796 299.051 205.043C309.434 218.33 315.671 234.382 316.984 251.193Z" fill="black"/>
<path d="M319.59 259.187C321.48 242.671 327.903 221.94 338.813 209.512C336.971 227.494 330.332 244.65 319.59 259.187Z" fill="black"/>
<path d="M323.987 277.256C327.312 260.222 335.716 239.164 348.098 227.218C344.706 245.762 336.377 263.048 323.987 277.256Z" fill="black"/>
<path d="M329.03 299.287C332.355 282.262 340.759 261.195 353.15 249.249C349.761 267.795 341.428 285.083 329.03 299.287Z" fill="black"/>
<path d="M333.082 326.343C336.407 309.309 344.81 288.251 357.193 276.305C353.803 294.849 345.473 312.136 333.082 326.343Z" fill="black"/>
<path d="M316.348 247.923C316.348 247.923 316.393 248.005 316.457 248.177C316.52 248.35 316.611 248.622 316.711 248.931L317.62 251.884C318.437 254.446 319.537 258.17 320.836 262.785C322.135 267.4 323.561 272.951 325.042 279.138C326.523 285.324 327.967 292.147 329.33 299.351C330.693 306.555 331.783 313.46 332.673 319.746C333.563 326.033 334.217 331.729 334.69 336.508C335.162 341.286 335.489 345.156 335.662 347.845C335.741 349.154 335.804 350.18 335.853 350.925C335.853 351.252 335.853 351.516 335.853 351.734C335.869 351.824 335.869 351.916 335.853 352.006C335.83 351.917 335.814 351.826 335.807 351.734C335.807 351.525 335.753 351.261 335.716 350.934C335.644 350.189 335.553 349.163 335.426 347.854C335.189 345.184 334.808 341.313 334.29 336.544C333.772 331.774 333.055 326.106 332.164 319.819C331.274 313.532 330.129 306.646 328.785 299.451C327.44 292.256 325.959 285.434 324.542 279.247C323.125 273.06 321.699 267.528 320.445 262.894C319.191 258.261 318.147 254.518 317.393 251.938C317.038 250.685 316.757 249.685 316.548 248.968C316.466 248.65 316.393 248.395 316.339 248.186C316.33 248.098 316.333 248.01 316.348 247.923Z" fill="black"/>
<path d="M340.614 341.577C334.854 329.513 330.666 312.506 333.491 299.306C339.938 312.4 342.413 327.094 340.614 341.577Z" fill="#A2909E"/>
<path d="M350.196 325.951C344.436 313.886 340.248 296.925 343.074 283.68C349.52 296.774 351.995 311.467 350.196 325.951Z" fill="#A2909E"/>
<path d="M358.791 310.064C353.031 297.999 348.843 281.038 351.669 267.792C358.115 280.887 360.591 295.58 358.791 310.064Z" fill="#A2909E"/>
<path d="M367.284 292.929C362.996 280.165 360.843 262.749 365.222 250.013C370.053 263.816 370.769 278.726 367.284 292.929Z" fill="#A2909E"/>
<path d="M372.737 278.903C373.164 265.276 377.161 248.297 385.592 238.267C385.409 252.784 380.937 266.922 372.737 278.903Z" fill="#A2909E"/>
<path d="M370.23 285.64C380.223 276.201 395.421 266.844 409.076 265.654C398.387 276.009 384.869 282.964 370.23 285.64Z" fill="#A2909E"/>
<path d="M363.487 299.931C374.689 291.056 391.323 282.725 405.713 282.67C393.66 292.483 378.962 298.491 363.487 299.931Z" fill="#A2909E"/>
<path d="M355.066 317.166C366.267 308.29 382.901 299.959 397.291 299.905C385.241 309.721 370.542 315.73 355.066 317.166Z" fill="#A2909E"/>
<path d="M343.329 337.007C354.531 328.132 371.174 319.801 385.555 319.747C373.506 329.565 358.806 335.574 343.329 337.007Z" fill="#A2909E"/>
<path d="M374.081 276.44C374.081 276.44 374.081 276.513 374.017 276.658L373.79 277.303C373.554 277.902 373.245 278.711 372.881 279.747C372.064 281.863 370.819 284.907 369.248 288.641C366.05 296.108 361.317 306.301 355.43 317.221C352.486 322.672 349.534 327.796 346.763 332.402C343.992 337.007 341.385 341.086 339.132 344.466C336.879 347.845 335.017 350.562 333.681 352.397C333.036 353.305 332.527 354.005 332.146 354.523L331.737 355.068C331.646 355.186 331.592 355.25 331.583 355.24L331.701 355.031L332.064 354.459L333.518 352.288C334.798 350.407 336.615 347.673 338.823 344.266C341.031 340.859 343.583 336.762 346.354 332.165C349.125 327.568 351.978 322.417 354.921 316.967C360.799 306.065 365.577 295.908 368.857 288.477C370.501 284.771 371.8 281.745 372.663 279.647C373.1 278.638 373.445 277.83 373.69 277.248C373.808 276.994 373.899 276.794 373.972 276.622C374.044 276.449 374.072 276.431 374.081 276.44Z" fill="black"/>
<path d="M368.058 343.03H310.816V354.068H316.693L321.654 385.528H357.039L362.126 354.068H368.058V343.03Z" fill="#FD652D"/>
<path d="M368.059 353.833C368.059 353.687 355.34 353.569 339.642 353.569C323.943 353.569 311.225 353.687 311.225 353.833C311.225 353.978 323.943 354.096 339.642 354.096C355.34 354.096 368.059 353.978 368.059 353.833Z" fill="black"/>
<path d="M358.927 0.210938H91.992C86.1969 0.210938 81.4991 4.90873 81.4991 10.7037V190.344C81.4991 196.139 86.1969 200.837 91.992 200.837H358.927C364.722 200.837 369.42 196.139 369.42 190.344V10.7037C369.42 4.90873 364.722 0.210938 358.927 0.210938Z" fill="#E0E0E0"/>
<path d="M369.419 10.7036C369.419 10.7036 369.419 10.4946 369.374 10.0858C369.337 9.47265 369.243 8.86431 369.092 8.26887C368.517 5.90102 367.128 3.81074 365.168 2.36382C364.495 1.85543 363.763 1.43134 362.987 1.10105C362.114 0.743723 361.198 0.502435 360.262 0.383359C359.238 0.284739 358.21 0.25136 357.182 0.283427H353.839H337.714L234.948 0.365189H163.978H93.2174C92.3408 0.337242 91.4632 0.373678 90.5919 0.474205C89.7278 0.589952 88.8822 0.81588 88.0755 1.14647C86.4508 1.82231 85.025 2.90098 83.9328 4.28069C82.8319 5.66675 82.1145 7.31774 81.8525 9.06832C81.7334 9.95029 81.6879 10.8406 81.7162 11.7301V14.4555C81.7162 18.0894 81.7162 21.7415 81.7162 25.4117V47.7418C81.7162 62.7618 81.7162 78.0786 81.7162 93.6922V190.326C81.7293 191.337 81.8759 192.342 82.1523 193.315C82.7387 195.26 83.8874 196.988 85.4539 198.281C87.0204 199.574 88.9346 200.375 90.9553 200.583C91.9546 200.655 92.9903 200.628 94.0169 200.628H262.174L343.664 200.683H357.827C358.597 200.703 359.367 200.681 360.135 200.619C360.886 200.526 361.626 200.356 362.342 200.11C363.76 199.616 365.052 198.818 366.13 197.773C367.208 196.729 368.045 195.461 368.583 194.06C369.095 192.665 369.327 191.183 369.265 189.699C369.265 188.209 369.265 186.719 369.265 185.239C369.265 173.404 369.265 162.054 369.265 151.189C369.265 107.801 369.328 72.6884 369.346 48.4232C369.346 36.2951 369.346 26.8743 369.346 20.4878C369.346 17.29 369.346 14.8553 369.346 13.22C369.346 11.5848 369.346 10.7399 369.346 10.7399C369.346 10.7399 369.346 11.5848 369.346 13.22C369.346 14.8553 369.346 17.29 369.346 20.4878C369.346 26.8471 369.346 36.2951 369.392 48.4232C369.392 72.6884 369.437 107.801 369.465 151.189C369.465 162.036 369.465 173.386 369.465 185.239V189.699C369.524 191.227 369.284 192.752 368.756 194.187C368.203 195.643 367.337 196.96 366.22 198.045C365.102 199.129 363.76 199.955 362.288 200.465C361.547 200.726 360.779 200.903 359.998 200.991C359.219 201.059 358.437 201.087 357.654 201.073H343.664H262.211H172.182H94.0532C93.0175 201.073 92.0091 201.073 90.9462 201.028C89.9019 200.907 88.8784 200.647 87.9029 200.256C86.9231 199.847 86.0056 199.303 85.1775 198.638C84.3682 197.961 83.6559 197.175 83.0607 196.304C82.4824 195.42 82.0298 194.46 81.7162 193.451C81.4214 192.435 81.2655 191.384 81.2529 190.326C81.2529 157.23 81.2529 124.916 81.2529 93.6922V47.7418C81.2529 40.2379 81.2529 32.8127 81.2529 25.4662V11.8391C81.2223 10.9285 81.2679 10.0168 81.3891 9.11374C81.6654 7.28864 82.4174 5.56846 83.5695 4.12625C84.708 2.66835 86.2038 1.52928 87.9119 0.819424C88.753 0.473252 89.6356 0.2381 90.5374 0.119902C91.4267 0.0159602 92.3226 -0.0204818 93.2174 0.0108872H124.441H163.978H234.948L337.714 0.0835629H353.839H357.209C358.243 0.0548892 359.278 0.0913024 360.307 0.192582C361.244 0.315706 362.161 0.563168 363.033 0.928439C363.812 1.27039 364.549 1.70015 365.231 2.20938C366.363 3.05873 367.311 4.12787 368.02 5.35268C368.526 6.25777 368.891 7.23512 369.101 8.2507C369.247 8.84652 369.335 9.45495 369.365 10.0676C369.41 10.4946 369.419 10.7036 369.419 10.7036Z" fill="black"/>
<path d="M102.038 7.28801L102.038 195.259L342.482 195.259V7.28801L102.038 7.28801Z" fill="white"/>
<path d="M354.947 107.41C359.196 107.41 362.641 103.965 362.641 99.7152C362.641 95.4656 359.196 92.0205 354.947 92.0205C350.697 92.0205 347.252 95.4656 347.252 99.7152C347.252 103.965 350.697 107.41 354.947 107.41Z" fill="black"/>
<path d="M89.7828 71.4263V129.632C89.7828 130.244 90.2791 130.74 90.8912 130.74H91.8541C92.4663 130.74 92.9625 130.244 92.9625 129.632V71.4263C92.9625 70.8142 92.4663 70.318 91.8541 70.318H90.8912C90.2791 70.318 89.7828 70.8142 89.7828 71.4263Z" fill="black"/>
<path d="M124.559 6.63281H102.038V195.258H124.559V6.63281Z" fill="#FD652D"/>
<path d="M104.192 88.7062H125.541V107.457H104.192C103.907 107.461 103.623 107.407 103.358 107.3C103.093 107.193 102.852 107.034 102.649 106.833C102.446 106.632 102.285 106.392 102.176 106.128C102.067 105.864 102.011 105.581 102.012 105.295V90.8593C102.012 90.5742 102.069 90.292 102.179 90.029C102.288 89.766 102.45 89.5274 102.652 89.3271C102.855 89.1268 103.096 88.9688 103.36 88.8622C103.624 88.7556 103.907 88.7026 104.192 88.7062Z" fill="white"/>
<path d="M113.304 33.7688C112.764 33.7688 112.229 33.6623 111.73 33.4553C111.231 33.2484 110.778 32.9451 110.397 32.5629C110.016 32.1806 109.713 31.7269 109.507 31.2276C109.302 30.7284 109.196 30.1934 109.198 29.6534C109.196 29.113 109.302 28.5776 109.507 28.0778C109.713 27.5781 110.015 27.1237 110.396 26.7408C110.778 26.3578 111.231 26.0536 111.73 25.8457C112.228 25.6378 112.763 25.5302 113.304 25.529C113.848 25.5242 114.388 25.6274 114.892 25.8326C115.396 26.0378 115.854 26.341 116.241 26.7246C116.627 27.1082 116.933 27.5646 117.141 28.0673C117.35 28.57 117.457 29.1091 117.455 29.6534C117.456 30.1969 117.348 30.7351 117.139 31.2367C116.93 31.7384 116.623 32.1937 116.237 32.5763C115.851 32.959 115.393 33.2613 114.89 33.466C114.386 33.6707 113.847 33.7736 113.304 33.7688Z" fill="white"/>
<path d="M116.72 48.5598C115.499 48.7923 114.254 48.8716 113.013 48.796C111.773 48.8716 110.528 48.7923 109.307 48.5598C110.528 48.3273 111.773 48.248 113.013 48.3236C114.254 48.248 115.499 48.3273 116.72 48.5598Z" fill="white"/>
<path d="M117.374 69.4368C116.156 69.6696 114.914 69.7489 113.676 69.673C112.436 69.7492 111.191 69.6699 109.97 69.4368C111.19 69.1982 112.436 69.1188 113.676 69.2005C114.914 69.1191 116.157 69.1985 117.374 69.4368Z" fill="white"/>
<path d="M117.374 122.554C116.156 122.787 114.914 122.866 113.676 122.79C112.436 122.867 111.191 122.787 109.97 122.554C111.191 122.321 112.436 122.242 113.676 122.318C114.914 122.242 116.156 122.321 117.374 122.554Z" fill="white"/>
<path d="M117.374 149.909C116.156 150.142 114.914 150.221 113.676 150.145C112.436 150.221 111.191 150.142 109.97 149.909C111.191 149.676 112.436 149.596 113.676 149.673C114.914 149.597 116.156 149.676 117.374 149.909Z" fill="white"/>
<path d="M117.374 98.362C116.156 98.5949 114.914 98.6742 113.676 98.5982C112.436 98.6745 111.191 98.5952 109.97 98.362C111.19 98.1235 112.436 98.0441 113.676 98.1258C114.914 98.0444 116.157 98.1238 117.374 98.362Z" fill="black"/>
<path d="M342.483 195.232C342.483 193.606 342.41 120.393 342.292 6.60681L342.483 6.80667H102.057L102.293 6.57047C102.293 74.6057 102.293 138.925 102.293 195.196L102.084 194.987L342.483 195.232L102.011 195.468H101.802V195.232C101.802 138.962 101.802 74.642 101.802 6.60681V6.37061H102.057H342.483H342.683V6.56138C342.565 120.42 342.483 193.633 342.483 195.232Z" fill="black"/>
<path d="M269.305 161.9H266.062V172.748H269.305V161.9Z" fill="#FD652D"/>
<path d="M242.251 160.329H239.008V172.748H242.251V160.329Z" fill="#FD652D"/>
<path d="M249.009 157.738H245.766V172.746H249.009V157.738Z" fill="#FD652D"/>
<path d="M255.779 158.565H252.536V172.755H255.779V158.565Z" fill="#FD652D"/>
<path d="M262.539 153.76H259.296V172.747H262.539V153.76Z" fill="#FD652D"/>
<path d="M276.065 153.851H272.822V172.747H276.065V153.851Z" fill="#FD652D"/>
<path d="M282.833 160.057H279.59V172.748H282.833V160.057Z" fill="#FD652D"/>
<path d="M289.593 154.687H286.349V172.747H289.593V154.687Z" fill="#FD652D"/>
<path d="M296.36 150.617H293.117V172.747H296.36V150.617Z" fill="#FD652D"/>
<path d="M303.118 154.597H299.874V172.748H303.118V154.597Z" fill="#FD652D"/>
<path d="M309.887 186.2H230.215C228.471 186.198 226.8 185.504 225.567 184.271C224.334 183.038 223.64 181.367 223.637 179.623V131.992C223.64 130.248 224.334 128.577 225.567 127.344C226.8 126.111 228.471 125.417 230.215 125.415H309.887C311.631 125.417 313.303 126.111 314.536 127.344C315.769 128.577 316.462 130.248 316.465 131.992V179.623C316.462 181.367 315.769 183.038 314.536 184.271C313.303 185.504 311.631 186.198 309.887 186.2ZM230.215 126.06C228.643 126.062 227.136 126.688 226.026 127.8C224.915 128.913 224.292 130.42 224.292 131.992V179.623C224.292 181.195 224.915 182.702 226.026 183.814C227.136 184.927 228.643 185.553 230.215 185.555H309.887C311.46 185.553 312.968 184.927 314.08 183.815C315.192 182.703 315.817 181.195 315.82 179.623V131.992C315.817 130.419 315.192 128.912 314.08 127.8C312.968 126.688 311.46 126.062 309.887 126.06H230.215Z" fill="#E0E0E0"/>
<path d="M275.573 141.251C275.573 141.342 266.352 141.424 254.987 141.424C243.622 141.424 234.401 141.342 234.401 141.251C234.401 141.16 243.613 141.087 254.987 141.087C266.361 141.087 275.573 141.16 275.573 141.251Z" fill="#E0E0E0"/>
<path d="M142.802 125.951V184.784H149.925H159.727H205.405V125.951H142.802Z" fill="#F5F5F5"/>
<path d="M173.827 132.62C170.007 132.62 166.273 133.752 163.097 135.875C159.92 137.997 157.445 141.013 155.983 144.543C154.521 148.072 154.139 151.955 154.884 155.702C155.629 159.448 157.469 162.89 160.17 165.591C162.871 168.292 166.312 170.131 170.059 170.877C173.805 171.622 177.689 171.239 181.218 169.778C184.747 168.316 187.764 165.84 189.886 162.664C192.008 159.488 193.141 155.754 193.141 151.934C193.141 146.811 191.106 141.899 187.484 138.277C183.862 134.654 178.949 132.62 173.827 132.62ZM174.118 163.508C171.772 163.508 169.479 162.812 167.528 161.509C165.577 160.206 164.056 158.354 163.158 156.188C162.259 154.021 162.023 151.636 162.48 149.335C162.936 147.034 164.064 144.92 165.722 143.26C167.379 141.6 169.491 140.468 171.792 140.009C174.092 139.549 176.477 139.781 178.645 140.676C180.814 141.572 182.668 143.089 183.974 145.038C185.28 146.987 185.979 149.279 185.982 151.625C185.985 153.184 185.679 154.729 185.084 156.171C184.489 157.612 183.616 158.922 182.514 160.026C181.412 161.13 180.103 162.005 178.662 162.603C177.222 163.2 175.677 163.508 174.118 163.508Z" fill="#FF980D"/>
<path d="M174.126 132.63V139.816C175.989 139.82 177.825 140.262 179.486 141.106C181.146 141.951 182.585 143.175 183.685 144.678C184.786 146.182 185.517 147.923 185.819 149.761C186.122 151.6 185.988 153.483 185.427 155.26L192.432 157.159C193.228 154.312 193.361 151.32 192.82 148.413C192.279 145.507 191.078 142.763 189.31 140.394C187.541 138.025 185.253 136.093 182.621 134.747C179.988 133.401 177.082 132.677 174.126 132.63Z" fill="#FD652D"/>
<path d="M162.252 151.625C162.252 149.333 162.916 147.089 164.163 145.165C165.411 143.242 167.19 141.721 169.284 140.787L166.313 134.119C162.812 135.595 159.825 138.071 157.724 141.237C155.623 144.402 154.503 148.117 154.503 151.916C154.503 152.189 154.503 152.461 154.503 152.725H162.279C162.252 152.359 162.243 151.992 162.252 151.625Z" fill="#37474F"/>
<path d="M174.117 163.508C173.273 163.51 172.432 163.418 171.609 163.235C171.31 164.961 170.701 168.295 170.301 170.921C171.464 171.136 172.644 171.245 173.826 171.248C178.042 171.248 182.142 169.869 185.501 167.322C188.86 164.774 191.294 161.199 192.431 157.139L185.427 155.259C184.66 157.655 183.151 159.746 181.118 161.229C179.085 162.712 176.633 163.51 174.117 163.508Z" fill="#FD652D"/>
<g opacity="0.3">
<path opacity="0.3" d="M174.114 163.509C173.271 163.511 172.43 163.419 171.607 163.236C171.307 164.962 170.699 168.296 170.299 170.922C171.462 171.137 172.641 171.246 173.824 171.249C178.039 171.249 182.139 169.87 185.498 167.323C188.858 164.775 191.291 161.2 192.429 157.14L185.425 155.26C184.658 157.656 183.149 159.747 181.116 161.23C179.083 162.713 176.631 163.511 174.114 163.509Z" fill="#FF980D"/>
</g>
<path d="M171.554 152.606H170.836V153.515H169.846V152.606H167.484V151.916L169.555 149.136H170.618L168.701 151.77H169.882V150.953H170.791V151.77H171.508L171.554 152.606Z" fill="black"/>
<path d="M171.854 151.326C171.854 149.881 172.653 149.063 173.734 149.063C174.815 149.063 175.615 149.881 175.615 151.326C175.615 152.77 174.825 153.597 173.734 153.597C172.644 153.597 171.854 152.779 171.854 151.326ZM174.579 151.326C174.579 150.335 174.225 149.917 173.671 149.917C173.117 149.917 172.817 150.335 172.817 151.326C172.817 152.316 173.171 152.743 173.671 152.743C174.17 152.743 174.597 152.325 174.597 151.326H174.579Z" fill="black"/>
<path d="M176.034 150.299C176.017 150.145 176.033 149.99 176.081 149.842C176.129 149.695 176.207 149.559 176.311 149.444C176.414 149.33 176.541 149.238 176.683 149.175C176.825 149.113 176.978 149.081 177.133 149.082C177.377 149.058 177.623 149.109 177.838 149.227C178.053 149.346 178.228 149.526 178.338 149.746C178.449 149.965 178.49 150.213 178.457 150.456C178.425 150.699 178.319 150.927 178.154 151.109C177.99 151.292 177.774 151.42 177.535 151.477C177.296 151.535 177.046 151.518 176.817 151.431C176.587 151.343 176.39 151.188 176.25 150.986C176.11 150.784 176.035 150.545 176.034 150.299ZM177.587 150.299C177.587 149.827 177.405 149.6 177.133 149.6C176.86 149.6 176.67 149.836 176.67 150.299C176.67 150.763 176.86 150.99 177.133 150.99C177.405 150.99 177.587 150.763 177.587 150.299ZM179.74 149.136H180.494L177.496 153.524H176.742L179.74 149.136ZM179.022 152.361C179.045 152.15 179.129 151.949 179.264 151.785C179.398 151.62 179.578 151.497 179.781 151.433C179.984 151.368 180.201 151.363 180.406 151.42C180.611 151.476 180.796 151.591 180.937 151.75C181.079 151.909 181.171 152.106 181.202 152.316C181.234 152.527 181.204 152.742 181.116 152.936C181.027 153.129 180.885 153.293 180.705 153.407C180.525 153.522 180.316 153.581 180.104 153.579C179.95 153.579 179.798 153.546 179.658 153.483C179.517 153.42 179.392 153.328 179.29 153.213C179.188 153.098 179.111 152.962 179.065 152.816C179.019 152.669 179.005 152.514 179.022 152.361ZM180.567 152.361C180.567 151.898 180.385 151.671 180.104 151.671C179.822 151.671 179.649 151.898 179.649 152.361C179.649 152.825 179.84 153.061 180.104 153.061C180.367 153.061 180.567 152.825 180.567 152.361Z" fill="black"/>
<path d="M189.816 176.154C189.816 176.254 182.657 176.336 173.827 176.336C164.996 176.336 157.847 176.254 157.847 176.154C157.847 176.054 164.996 175.963 173.827 175.963C182.657 175.963 189.816 176.018 189.816 176.154Z" fill="black"/>
<path d="M182.694 179.061C182.694 179.161 178.724 179.243 173.828 179.243C168.931 179.243 164.961 179.161 164.961 179.061C164.961 178.961 168.931 178.87 173.828 178.87C178.724 178.87 182.694 178.961 182.694 179.061Z" fill="black"/>
<path d="M329.192 39.7207H328.284H325.558H314.938L275.383 39.8842L141.184 39.966L141.512 39.7298C141.512 50.2771 141.512 61.2151 141.512 72.4347C141.512 83.9722 141.512 95.2281 141.512 106.103L141.184 105.866L274.448 105.948L313.648 106.021L324.177 106.066H326.903H327.811C327.811 106.066 327.502 106.066 326.903 106.066H324.177H313.648L274.448 106.139L141.184 106.221H140.857V105.984C140.857 95.0828 140.857 83.8541 140.857 72.3166C140.857 61.1242 140.857 50.1863 140.857 39.6117V39.3755H141.184L275.383 39.4572L314.884 39.5299H325.504H328.229L329.192 39.7207Z" fill="#E0E0E0"/>
<path d="M329.192 50.8947C329.192 51.0219 287.103 51.1309 235.193 51.1309C183.283 51.1309 141.185 51.0219 141.185 50.8947C141.185 50.7675 183.265 50.6494 235.193 50.6494C287.121 50.6494 329.192 50.7857 329.192 50.8947Z" fill="#E0E0E0"/>
<path d="M329.192 60.0334C329.192 60.1606 287.103 60.2696 235.193 60.2696C183.283 60.2696 141.185 60.1606 141.185 60.0334C141.185 59.9062 183.265 59.7881 235.193 59.7881C287.121 59.7881 329.192 59.8698 329.192 60.0334Z" fill="#E0E0E0"/>
<path d="M329.192 69.1731C329.192 69.3003 287.103 69.4093 235.193 69.4093C183.283 69.4093 141.185 69.3003 141.185 69.1731C141.185 69.0459 183.265 68.9551 235.193 68.9551C287.121 68.9551 329.192 69.0368 329.192 69.1731Z" fill="#E0E0E0"/>
<path d="M329.192 78.3121C329.192 78.4393 287.103 78.5483 235.193 78.5483C183.283 78.5483 141.185 78.4393 141.185 78.3121C141.185 78.1849 183.265 78.0396 235.193 78.0396C287.121 78.0396 329.192 78.1758 329.192 78.3121Z" fill="#E0E0E0"/>
<path d="M329.192 87.4513C329.192 87.5785 287.103 87.6875 235.193 87.6875C183.283 87.6875 141.185 87.5785 141.185 87.4513C141.185 87.3242 183.265 87.2061 235.193 87.2061C287.121 87.2061 329.192 87.3151 329.192 87.4513Z" fill="#E0E0E0"/>
<path d="M141.185 96.58C141.185 96.4528 183.274 96.3438 235.184 96.3438C287.094 96.3438 329.192 96.4528 329.192 96.58C329.192 96.7071 287.112 96.8252 235.184 96.8252C183.256 96.8252 141.185 96.7162 141.185 96.58Z" fill="#E0E0E0"/>
<path d="M167.832 107.111C167.696 107.111 167.596 92.0392 167.596 73.4429C167.596 54.8465 167.696 39.7568 167.832 39.7568C167.968 39.7568 168.077 54.8374 168.077 73.4429C168.077 92.0483 167.968 107.111 167.832 107.111Z" fill="#E0E0E0"/>
<path d="M194.912 107.111C194.776 107.111 194.667 92.0392 194.667 73.4429C194.667 54.8465 194.776 39.7568 194.912 39.7568C195.049 39.7568 195.149 54.8374 195.149 73.4429C195.149 92.0483 195.04 107.111 194.912 107.111Z" fill="#E0E0E0"/>
<path d="M221.984 107.111C221.856 107.111 221.747 92.0392 221.747 73.4429C221.747 54.8465 221.856 39.7568 221.984 39.7568C222.111 39.7568 222.229 54.8374 222.229 73.4429C222.229 92.0483 222.12 107.111 221.984 107.111Z" fill="#E0E0E0"/>
<path d="M249.067 107.111C248.931 107.111 248.822 92.0392 248.822 73.4429C248.822 54.8465 248.931 39.7568 249.067 39.7568C249.203 39.7568 249.303 54.8374 249.303 73.4429C249.303 92.0483 249.185 107.111 249.067 107.111Z" fill="#E0E0E0"/>
<path d="M276.136 107.111C276.009 107.111 275.9 92.0392 275.9 73.4429C275.9 54.8465 276.009 39.7568 276.136 39.7568C276.264 39.7568 276.382 54.8374 276.382 73.4429C276.382 92.0483 276.273 107.111 276.136 107.111Z" fill="#E0E0E0"/>
<path d="M302.356 107.111C302.22 107.111 302.111 92.0392 302.111 73.4429C302.111 54.8465 302.22 39.7568 302.356 39.7568C302.492 39.7568 302.592 54.8374 302.592 73.4429C302.592 92.0483 302.483 107.111 302.356 107.111Z" fill="#E0E0E0"/>
<path d="M329.428 107.111C329.301 107.111 329.192 92.0392 329.192 73.4429C329.192 54.8465 329.301 39.7568 329.428 39.7568C329.556 39.7568 329.674 54.8374 329.674 73.4429C329.674 92.0483 329.565 107.111 329.428 107.111Z" fill="#E0E0E0"/>
<path d="M169.483 96.5813C169.485 96.9087 169.39 97.2293 169.209 97.5024C169.028 97.7755 168.771 97.9888 168.469 98.1153C168.167 98.2419 167.834 98.2759 167.513 98.2132C167.191 98.1504 166.896 97.9936 166.664 97.7628C166.432 97.5319 166.273 97.2373 166.209 96.9163C166.144 96.5954 166.177 96.2625 166.301 95.9598C166.426 95.6572 166.638 95.3984 166.91 95.2163C167.182 95.0342 167.502 94.937 167.83 94.937C168.267 94.937 168.686 95.11 168.996 95.4181C169.306 95.7262 169.481 96.1444 169.483 96.5813Z" fill="#FD652D"/>
<path d="M196.556 78.3112C196.556 78.6386 196.459 78.9586 196.277 79.2307C196.095 79.5028 195.836 79.7147 195.533 79.8396C195.231 79.9644 194.898 79.9966 194.577 79.9321C194.256 79.8676 193.961 79.7092 193.73 79.477C193.5 79.2449 193.343 78.9494 193.28 78.6281C193.217 78.3068 193.251 77.9741 193.378 77.6721C193.504 77.3701 193.718 77.1125 193.991 76.932C194.264 76.7514 194.584 76.6559 194.912 76.6577C195.129 76.6577 195.343 76.7006 195.543 76.7838C195.743 76.867 195.925 76.9889 196.078 77.1426C196.231 77.2962 196.352 77.4786 196.434 77.6791C196.516 77.8797 196.557 78.0945 196.556 78.3112Z" fill="#FD652D"/>
<path d="M223.636 87.2874C223.638 87.6148 223.543 87.9354 223.362 88.2084C223.181 88.4815 222.924 88.6949 222.622 88.8214C222.32 88.948 221.987 88.982 221.666 88.9192C221.344 88.8565 221.049 88.6997 220.817 88.4688C220.585 88.238 220.426 87.9434 220.362 87.6224C220.297 87.3014 220.329 86.9685 220.454 86.6659C220.579 86.3632 220.791 86.1044 221.063 85.9224C221.335 85.7403 221.655 85.6431 221.983 85.6431C222.419 85.6454 222.837 85.8191 223.146 86.1267C223.455 86.4343 223.631 86.8512 223.636 87.2874Z" fill="#FD652D"/>
<path d="M250.546 68.0464C250.867 68.3668 251.047 68.8015 251.047 69.2546C251.047 69.7078 250.867 70.1424 250.546 70.4629C250.226 70.7834 249.791 70.9634 249.338 70.9634C248.885 70.9634 248.45 70.7834 248.13 70.4629C247.809 70.1425 247.629 69.7078 247.629 69.2546C247.629 68.8015 247.809 68.3668 248.13 68.0464C248.45 67.7259 248.885 67.5459 249.338 67.5459C249.791 67.5459 250.226 67.7259 250.546 68.0464Z" fill="#FD652D"/>
<path d="M277.936 68.0464C278.095 68.205 278.221 68.3934 278.306 68.6007C278.392 68.808 278.437 69.0302 278.437 69.2546C278.437 69.479 278.392 69.7012 278.306 69.9085C278.221 70.1159 278.095 70.3042 277.936 70.4629C277.777 70.6216 277.589 70.7474 277.382 70.8333C277.174 70.9192 276.952 70.9634 276.728 70.9634C276.503 70.9634 276.281 70.9192 276.074 70.8333C275.867 70.7474 275.678 70.6216 275.52 70.4629C275.199 70.1425 275.019 69.7078 275.019 69.2546C275.019 68.8015 275.199 68.3668 275.52 68.0464C275.84 67.7259 276.275 67.5459 276.728 67.5459C277.181 67.5459 277.616 67.7259 277.936 68.0464Z" fill="#FD652D"/>
<path d="M303.555 85.9785C303.875 86.299 304.055 86.7336 304.055 87.1868C304.055 87.64 303.875 88.0746 303.555 88.395C303.234 88.7155 302.8 88.8955 302.347 88.8955C301.893 88.8955 301.459 88.7155 301.138 88.395C300.818 88.0746 300.638 87.64 300.638 87.1868C300.638 86.7336 300.818 86.299 301.138 85.9785C301.459 85.6581 301.893 85.478 302.347 85.478C302.8 85.478 303.234 85.6581 303.555 85.9785Z" fill="#FD652D"/>
<path d="M196.556 60.0338C196.556 60.3612 196.459 60.6812 196.277 60.9533C196.095 61.2254 195.836 61.4373 195.533 61.5622C195.231 61.6871 194.898 61.7193 194.577 61.6548C194.256 61.5902 193.961 61.4318 193.73 61.1997C193.5 60.9676 193.343 60.6721 193.28 60.3508C193.217 60.0294 193.251 59.6967 193.378 59.3948C193.504 59.0928 193.718 58.8352 193.991 58.6546C194.264 58.474 194.584 58.3786 194.912 58.3804C195.129 58.3804 195.343 58.4232 195.543 58.5064C195.743 58.5896 195.925 58.7116 196.078 58.8652C196.231 59.0189 196.352 59.2012 196.434 59.4018C196.516 59.6023 196.557 59.8171 196.556 60.0338Z" fill="#A2909E"/>
<path d="M169.483 87.4503C169.483 87.7773 169.386 88.097 169.205 88.3689C169.023 88.6408 168.765 88.8527 168.463 88.9778C168.16 89.103 167.828 89.1357 167.507 89.0719C167.187 89.0081 166.892 88.8507 166.661 88.6194C166.429 88.3882 166.272 88.0936 166.208 87.7729C166.144 87.4521 166.177 87.1197 166.302 86.8176C166.427 86.5154 166.639 86.2572 166.911 86.0755C167.183 85.8939 167.503 85.7969 167.83 85.7969C168.268 85.7969 168.689 85.9711 168.999 86.2811C169.309 86.5912 169.483 87.0118 169.483 87.4503Z" fill="#A2909E"/>
<path d="M303.565 95.3812C303.857 95.7069 304.013 96.1321 304 96.5693C303.988 97.0065 303.808 97.4222 303.499 97.7309C303.189 98.0395 302.772 98.2176 302.335 98.2283C301.898 98.2391 301.473 98.0817 301.149 97.7886C300.857 97.4629 300.701 97.0376 300.713 96.6005C300.726 96.1633 300.905 95.7475 301.215 95.4389C301.525 95.1302 301.942 94.9522 302.379 94.9414C302.816 94.9307 303.241 95.0881 303.565 95.3812Z" fill="#A2909E"/>
<path d="M277.791 78.3112C277.791 78.6382 277.694 78.9578 277.512 79.2297C277.33 79.5016 277.072 79.7136 276.77 79.8387C276.468 79.9639 276.135 79.9966 275.815 79.9328C275.494 79.869 275.199 79.7115 274.968 79.4803C274.737 79.2491 274.579 78.9544 274.516 78.6337C274.452 78.313 274.485 77.9805 274.61 77.6784C274.735 77.3763 274.947 77.1181 275.219 76.9364C275.491 76.7547 275.81 76.6577 276.137 76.6577C276.355 76.6565 276.57 76.6985 276.771 76.7812C276.973 76.8638 277.155 76.9856 277.309 77.1393C277.463 77.2931 277.585 77.4758 277.667 77.677C277.75 77.8781 277.792 78.0937 277.791 78.3112Z" fill="#A2909E"/>
<path d="M251.001 78.0393C251.002 78.3667 250.907 78.6873 250.726 78.9604C250.546 79.2335 250.288 79.4468 249.986 79.5734C249.684 79.6999 249.351 79.7339 249.03 79.6712C248.709 79.6084 248.413 79.4517 248.181 79.2208C247.949 78.9899 247.791 78.6953 247.726 78.3744C247.662 78.0534 247.694 77.7205 247.819 77.4178C247.944 77.1152 248.155 76.8564 248.428 76.6743C248.7 76.4922 249.02 76.395 249.347 76.395C249.783 76.3974 250.201 76.5711 250.51 76.8787C250.82 77.1863 250.996 77.6031 251.001 78.0393Z" fill="#A2909E"/>
<path d="M156.52 113.633C154.796 113.948 153.029 113.948 151.305 113.633C153.028 113.306 154.797 113.306 156.52 113.633Z" fill="#E0E0E0"/>
<path d="M184.201 113.633C182.477 113.948 180.711 113.948 178.987 113.633C180.71 113.306 182.478 113.306 184.201 113.633Z" fill="#E0E0E0"/>
<path d="M211.872 113.633C210.151 113.948 208.388 113.948 206.667 113.633C208.387 113.306 210.152 113.306 211.872 113.633Z" fill="#E0E0E0"/>
<path d="M239.554 113.633C237.83 113.948 236.063 113.948 234.339 113.633C236.062 113.306 237.831 113.306 239.554 113.633Z" fill="#E0E0E0"/>
<path d="M267.224 113.633C265.5 113.948 263.733 113.948 262.009 113.633C263.732 113.306 265.501 113.306 267.224 113.633Z" fill="#E0E0E0"/>
<path d="M291.98 113.633C290.256 113.948 288.49 113.948 286.766 113.633C288.489 113.306 290.258 113.306 291.98 113.633Z" fill="#E0E0E0"/>
<path d="M316.728 113.633C315.004 113.948 313.238 113.948 311.514 113.633C313.237 113.306 315.006 113.306 316.728 113.633Z" fill="#E0E0E0"/>
<path d="M137.269 105.704C136.595 105.934 135.879 106.014 135.171 105.94C134.46 106.014 133.741 105.933 133.063 105.704C133.738 105.464 134.459 105.38 135.171 105.459C135.88 105.379 136.598 105.463 137.269 105.704Z" fill="#E0E0E0"/>
<path d="M137.269 95.0721C136.595 95.302 135.879 95.3826 135.171 95.3083C134.46 95.3822 133.741 95.3016 133.063 95.0721C133.738 94.8319 134.459 94.7481 135.171 94.8269C135.88 94.7475 136.598 94.8314 137.269 95.0721Z" fill="#E0E0E0"/>
<path d="M137.269 84.4432C136.595 84.6731 135.879 84.7537 135.171 84.6794C134.46 84.7533 133.741 84.6727 133.063 84.4432C133.738 84.203 134.459 84.1192 135.171 84.198C135.88 84.1186 136.598 84.2025 137.269 84.4432Z" fill="#E0E0E0"/>
<path d="M137.269 73.8148C136.595 74.0447 135.879 74.1253 135.171 74.051C134.46 74.1249 133.741 74.0443 133.063 73.8148C133.738 73.5746 134.459 73.4907 135.171 73.5695C135.88 73.4902 136.598 73.5741 137.269 73.8148Z" fill="#E0E0E0"/>
<path d="M137.269 63.1859C136.595 63.4158 135.879 63.4964 135.171 63.4221C134.46 63.496 133.741 63.4154 133.063 63.1859C133.738 62.9457 134.459 62.8618 135.171 62.9406C135.88 62.8613 136.598 62.9452 137.269 63.1859Z" fill="#E0E0E0"/>
<path d="M137.269 52.6019C136.595 52.8318 135.879 52.9124 135.171 52.8381C134.46 52.912 133.741 52.8314 133.063 52.6019C133.738 52.3617 134.459 52.2778 135.171 52.3566C135.88 52.2773 136.598 52.3612 137.269 52.6019Z" fill="#E0E0E0"/>
<path d="M137.269 41.9261C136.595 42.156 135.879 42.2366 135.171 42.1623C134.46 42.2362 133.741 42.1556 133.063 41.9261C133.74 41.6921 134.46 41.6144 135.171 41.699C135.879 41.6139 136.596 41.6916 137.269 41.9261Z" fill="#E0E0E0"/>
<path d="M141.004 106.492L140.704 105.638L167.622 96.1808L194.839 77.8025L221.921 86.7872L249.202 68.7905L276.529 68.7178L276.647 68.7995L302.602 87.1324L327.758 70.5165L328.257 71.2797L302.584 88.2408L302.329 88.0591L276.238 69.6262L249.475 69.6989L222.057 87.7865L194.976 78.8109L167.985 97.0166L141.004 106.492Z" fill="#FD652D"/>
<path d="M302.747 96.782L276.247 78.7671H248.929L221.593 60.7249L195.093 60.4887L168.021 87.8972H141.185V86.9887H167.639L194.721 59.5712L221.875 59.8164L249.202 77.8586H276.519L302.447 95.4738L328.329 49.9868L329.12 50.432L302.747 96.782Z" fill="#A2909E"/>
<path d="M328.91 26.4291C328.91 26.5653 318.698 26.6653 306.107 26.6653C293.516 26.6653 283.304 26.5653 283.304 26.4291C283.304 26.2928 293.516 26.1929 306.107 26.1929C318.698 26.1929 328.91 26.3019 328.91 26.4291Z" fill="black"/>
<path d="M142.528 25.4564H140.875V24.4844H145.417V25.4564H143.764V29.6536H142.528V25.4564Z" fill="black"/>
<path d="M149.316 29.6536L148.344 28.2091H147.236V29.6536H146.046V24.4844H148.28C149.661 24.4844 150.524 25.2021 150.524 26.3558C150.539 26.7051 150.445 27.0503 150.254 27.3434C150.064 27.6365 149.787 27.8629 149.461 27.9911L150.624 29.6536H149.316ZM148.199 25.4564H147.217V27.2734H148.199C148.925 27.2734 149.298 26.9372 149.298 26.3649C149.298 25.7926 148.925 25.4564 148.199 25.4564Z" fill="black"/>
<path d="M155.457 28.6906V29.6536H151.45V24.4844H155.357V25.3928H152.631V26.5193H155.03V27.4278H152.631V28.627L155.457 28.6906Z" fill="black"/>
<path d="M161.152 24.4844V29.6536H160.153L157.573 26.5103V29.6536H156.392V24.4844H157.427L160.007 27.6186V24.4844H161.152Z" fill="black"/>
<path d="M162.37 24.4843H164.696C165.058 24.4471 165.423 24.4863 165.769 24.5992C166.115 24.7122 166.433 24.8964 166.703 25.14C166.973 25.3836 167.188 25.6812 167.336 26.0135C167.484 26.3457 167.56 26.7053 167.56 27.0689C167.56 27.4325 167.484 27.7921 167.336 28.1244C167.188 28.4566 166.973 28.7542 166.703 28.9978C166.433 29.2414 166.115 29.4257 165.769 29.5386C165.423 29.6516 165.058 29.6907 164.696 29.6535H162.343L162.37 24.4843ZM164.696 28.6724C164.917 28.689 165.139 28.6599 165.347 28.5868C165.556 28.5138 165.748 28.3984 165.91 28.2479C166.073 28.0974 166.202 27.915 166.291 27.7121C166.379 27.5092 166.425 27.2903 166.425 27.0689C166.425 26.8476 166.379 26.6286 166.291 26.4258C166.202 26.2229 166.073 26.0405 165.91 25.89C165.748 25.7395 165.556 25.6241 165.347 25.551C165.139 25.478 164.917 25.4488 164.696 25.4655H163.606V28.6724H164.696Z" fill="black"/>
<path d="M97.6766 147.481L94.4879 151.469V144.601H84.4221C84.4221 144.601 83.3046 160.336 83.5136 163.679C83.7225 167.022 87.5108 176.616 87.5108 176.616C91.4035 174.304 94.8397 171.299 97.6494 167.749C102.119 162.008 109.55 147.999 109.55 147.999L101.801 143.32L97.6766 147.481Z" fill="#FFBE9D"/>
<path d="M98.3117 146.746C97.9367 147.374 97.4984 147.961 97.0035 148.499C96.1496 149.553 94.9776 150.998 93.6331 152.569C92.2886 154.141 91.0167 155.513 89.9992 156.449C89.5023 156.998 88.923 157.467 88.2822 157.839C88.7369 157.268 89.2285 156.728 89.7539 156.221C90.6624 155.231 91.8888 153.823 93.2334 152.261C95.9315 149.117 98.2027 146.637 98.3117 146.746Z" fill="#EB996E"/>
<path d="M98.0146 121.763C98.0146 121.763 95.1529 98.2792 83.8152 95.8809L77.9465 118.447L82.825 134.727L99.0048 132.547L98.0146 121.763Z" fill="#FD652D"/>
<path d="M23.1462 137.362L23.6822 139.043L34.7837 173.937C34.7837 173.937 62.2649 184.33 72.1309 180.242C81.9968 176.154 86.5574 170.249 86.5574 170.249L84.3589 95.9727L68.7059 93.6016L41.7153 91.6211L23.6368 97.4262L23.1462 137.362Z" fill="#FD652D"/>
<g opacity="0.3">
<path opacity="0.3" d="M57.2137 150.961C46.9058 146.531 37.2918 140.634 28.6696 133.455L23.1461 136.399C27.2978 144.784 30.7591 152.433 36.4824 159.837C38.4626 162.489 41.0858 164.593 44.1045 165.951C46.2749 166.718 48.6126 166.881 50.8685 166.423C53.1243 165.966 55.2137 164.904 56.9139 163.353C60.2026 160.291 62.6736 151.297 61.5925 143.966C59.7483 144.075 58.9216 151.67 57.2137 150.961Z" fill="#FF980D"/>
</g>
<path d="M85.9048 129.503C85.5679 126.977 84.9587 124.495 84.0879 122.099C83.0567 119.766 81.771 117.555 80.2542 115.504C80.8503 115.976 81.3737 116.533 81.8076 117.157C82.9213 118.617 83.8377 120.218 84.533 121.918C85.2267 123.619 85.6852 125.407 85.8957 127.232C86.0099 127.985 86.013 128.75 85.9048 129.503Z" fill="black"/>
<path d="M85.8592 74.0594C85.1346 74.1492 84.3994 74.0402 83.732 73.7442C83.0647 73.4481 82.4905 72.9761 82.0708 72.3787C83.0338 72.6232 84.0485 72.5661 84.9779 72.2152C85.8864 71.7701 86.3588 70.4709 85.6684 69.7623C85.1324 69.2082 84.2421 69.3081 83.479 69.2536C82.5822 69.1725 81.7269 68.8383 81.0128 68.2898C80.2986 67.7413 79.7551 67.0012 79.4454 66.1557C78.7913 64.2843 79.3818 62.2493 79.618 60.287C79.927 57.4173 79.4623 54.5172 78.2722 51.8878C77.0821 49.2583 75.2098 46.9953 72.8499 45.3336L60.5401 38.2476C56.0795 43.9527 54.6896 51.6566 55.6162 58.8425C56.5429 66.0285 59.5862 72.7966 63.2564 79.0469C64.2617 80.9096 65.5113 82.6298 66.9721 84.1616C68.4431 85.6993 70.3886 86.6976 72.4956 86.996C72.7666 86.1273 72.8256 85.2062 72.6675 84.31C72.5095 83.4138 72.139 82.5686 71.5871 81.845C73.2556 81.9422 74.9265 81.7018 76.5 81.1383C78.0734 80.5748 79.517 79.6997 80.7445 78.5654L78.1008 76.5486C79.4974 76.7266 80.916 76.596 82.2565 76.1659C83.5971 75.7358 84.8269 75.0167 85.8592 74.0594Z" fill="black"/>
<path d="M38.4633 53.9914C38.5031 51.5169 39.3381 49.1209 40.8449 47.1576C42.3517 45.1944 44.4502 43.7681 46.8303 43.0898L62.2742 38.6837C68.9697 37.7752 73.6937 45.8969 74.3205 52.6287C75.0291 60.1054 75.556 68 74.8384 73.6143C73.403 84.9066 64.8452 86.6054 64.8452 86.6054C64.8452 86.6054 64.9996 91.9472 65.0905 95.2359L62.574 109.944L42.1971 92.5741L38.4178 54.1277C38.4178 53.9369 38.4178 54.2458 38.4633 53.9914Z" fill="#FFBE9D"/>
<path d="M72.3585 61.2492C72.3736 61.6249 72.2416 61.9917 71.9905 62.2716C71.7394 62.5515 71.3891 62.7225 71.014 62.7482C70.8309 62.7696 70.6453 62.7538 70.4684 62.7018C70.2916 62.6498 70.127 62.5627 69.9845 62.4457C69.842 62.3286 69.7246 62.1841 69.6393 62.0207C69.5539 61.8573 69.5024 61.6783 69.4878 61.4945C69.4703 61.1197 69.6002 60.7529 69.8498 60.4727C70.0995 60.1926 70.4489 60.0213 70.8232 59.9956C71.0066 59.9755 71.1922 59.9921 71.3691 60.0445C71.546 60.0969 71.7107 60.184 71.8536 60.3006C71.9965 60.4173 72.1148 60.5613 72.2015 60.7242C72.2881 60.887 72.3415 61.0655 72.3585 61.2492Z" fill="black"/>
<path d="M72.7499 57.1437C72.5682 57.3344 71.4598 56.5622 69.9064 56.6167C68.3529 56.6712 67.2445 57.5252 67.0719 57.289C66.8993 57.0528 67.1537 56.862 67.6352 56.4896C68.2953 56.0057 69.0881 55.7362 69.9064 55.7174C70.7113 55.685 71.505 55.9145 72.1684 56.3715C72.659 56.6985 72.8316 57.0256 72.7499 57.1437Z" fill="black"/>
<path d="M58.7764 61.2678C58.7914 61.6435 58.6594 62.0103 58.4083 62.2902C58.1573 62.5701 57.8069 62.7411 57.4318 62.7668C57.2487 62.7881 57.0631 62.7723 56.8863 62.7204C56.7094 62.6684 56.5448 62.5813 56.4023 62.4642C56.2599 62.3472 56.1424 62.2027 56.0571 62.0393C55.9717 61.8758 55.9202 61.6969 55.9056 61.5131C55.8882 61.1368 56.0194 60.7687 56.2709 60.4883C56.5225 60.2079 56.8741 60.0376 57.2501 60.0141C57.4328 59.9953 57.6174 60.0129 57.7933 60.0659C57.9691 60.1189 58.1327 60.2062 58.2746 60.3227C58.4166 60.4393 58.534 60.5828 58.6201 60.7451C58.7062 60.9073 58.7593 61.085 58.7764 61.2678Z" fill="black"/>
<path d="M58.0136 57.5335C57.841 57.7334 56.7235 56.9521 55.1701 57.0066C53.6166 57.0611 52.5083 57.9151 52.3356 57.688C52.163 57.4609 52.4174 57.261 52.908 56.8794C53.5648 56.3958 54.3546 56.1262 55.1701 56.1072C55.9773 56.0794 56.7725 56.3084 57.4412 56.7613C57.9227 57.1429 58.1044 57.4518 58.0136 57.5335Z" fill="black"/>
<path d="M63.2088 69.5811C64.0194 69.3002 64.8615 69.1201 65.7162 69.0451C66.1068 69.0451 66.4793 68.9088 66.5429 68.6363C66.5601 68.2247 66.4559 67.8171 66.2431 67.4644C65.8343 66.5559 65.4164 65.5293 64.9803 64.4846C63.2179 60.242 61.9278 56.7535 62.1004 56.6808C62.2731 56.6082 63.8356 59.9967 65.5981 64.2393L66.8154 67.2372C67.0783 67.7064 67.1683 68.2529 67.0698 68.7816C67.0167 68.9236 66.9318 69.0514 66.8215 69.1554C66.7113 69.2593 66.5786 69.3366 66.4338 69.3812C66.2162 69.4512 65.99 69.4909 65.7616 69.4993C64.9179 69.6386 64.0596 69.6661 63.2088 69.5811Z" fill="black"/>
<path d="M49.7931 83.0635C49.7931 83.0635 53.6723 90.6855 64.8828 89.2865L64.8101 86.6428C59.5693 86.866 54.3698 85.6266 49.7931 83.0635Z" fill="#EB996E"/>
<path d="M57.3691 51.9487C57.2328 52.3756 55.6702 52.2212 53.8624 52.4937C52.0545 52.7663 50.5919 53.3114 50.3375 52.9389C50.2285 52.7663 50.4738 52.3575 51.0461 51.9305C51.8236 51.4032 52.7131 51.0641 53.6443 50.9403C54.5588 50.8056 55.4921 50.8865 56.3697 51.1765C57.0784 51.4217 57.4327 51.7488 57.3691 51.9487Z" fill="black"/>
<path d="M72.1042 52.3827C71.8408 52.7461 70.7597 52.3827 69.4788 52.4372C68.1978 52.4917 67.1077 52.7461 66.8533 52.3827C66.7352 52.2101 66.8533 51.8558 67.362 51.4743C67.988 51.054 68.7248 50.8296 69.4788 50.8296C70.2327 50.8296 70.9696 51.054 71.5955 51.4743C72.0316 51.8558 72.2223 52.2101 72.1042 52.3827Z" fill="black"/>
<path d="M57.3967 72.5887C57.4966 72.1259 57.7562 71.7131 58.1299 71.4224C58.5036 71.1317 58.9677 70.9818 59.4408 70.9989C59.7945 71.0291 60.1349 71.1482 60.4303 71.3452C60.7257 71.5421 60.9666 71.8105 61.1305 72.1254C61.2883 72.4348 61.3825 72.7726 61.4074 73.119C61.4324 73.4655 61.3877 73.8134 61.2759 74.1422V74.2875C60.9643 74.6472 60.5484 74.9008 60.086 75.0132C59.6236 75.1255 59.1377 75.091 58.6958 74.9144C58.2487 74.73 57.8771 74.4 57.6412 73.9778C57.4054 73.5556 57.3192 73.066 57.3967 72.5887Z" fill="#EB996E"/>
<path d="M62.3469 74.2868C62.3469 74.0597 60.7753 74.1778 59.5579 72.9241C58.3406 71.6704 58.386 69.9897 58.168 69.9897C57.9499 69.9897 57.8864 70.3895 57.9227 71.0981C57.9878 72.0163 58.3699 72.8834 59.0038 73.5509C59.6157 74.1855 60.4487 74.5597 61.3294 74.5957C62.0381 74.6048 62.3651 74.4049 62.3469 74.2868Z" fill="black"/>
<path d="M43.652 36.0853C45.8212 32.9995 49.0307 30.7996 52.6912 29.8895C56.3251 29.2536 58.5599 29.8895 60.9674 32.0789C61.9955 33.0664 63.2397 33.8005 64.6013 34.2229C66.3546 34.5681 67.8263 34.2774 69.9158 35.3494C72.7775 36.8121 74.0312 40.6276 75.3666 43.5256C77.0109 47.1595 79.3548 50.5118 80.4268 54.3546C81.4988 58.1974 80.9355 62.9214 77.7014 65.2562C78.3191 61.9766 78.8279 58.3246 77.0291 55.5174C75.6573 53.3734 73.2045 52.1833 71.442 50.3482C69.3162 48.1316 69.0437 45.1609 66.8088 43.0805C61.7214 38.2565 52.773 46.7144 43.6792 36.0944" fill="black"/>
<path d="M75.9556 51.457C74.7794 48.1825 73.0897 45.1159 70.9499 42.3723C68.1043 39.0618 64.1334 36.9224 59.8034 36.3671C55.4735 35.8118 51.0912 36.8799 47.5023 39.3653L46.5939 39.4379C47.9843 41.175 49.7468 42.5779 51.7515 43.5432C53.7561 44.5086 55.9519 45.0119 58.1768 45.0159C60.8205 45.0159 63.6822 44.3255 65.9533 45.6882C68.2245 47.0509 68.9513 49.74 70.75 51.5387C71.9674 52.7561 73.6026 53.5101 74.7927 54.7729C75.9527 56.1993 76.8035 57.8514 77.291 59.6241C78.0723 56.9169 77.0367 54.0552 75.9556 51.457Z" fill="black"/>
<path d="M52.3157 41.5621L45.1115 35.2029C39.4972 34.9121 35.8905 40.2176 33.9646 44.2875C32.5292 47.3309 32.0841 50.7377 31.003 53.9264C29.9219 57.1151 28.1231 60.2312 27.1147 63.5289C26.1063 66.8267 25.9701 70.6786 27.9596 73.5221L29.2133 71.2146C29.4233 74.4426 30.7498 77.497 32.9653 79.8541C33.1288 79.0546 33.2923 78.2552 33.4468 77.4467C34.6393 79.8947 36.5378 81.9293 38.8976 83.2881L42.2771 92.3092C47.2555 77.1287 34.4279 75.984 52.3157 41.5621Z" fill="black"/>
<path d="M51.2826 42.8804C50.9129 44.9404 50.3471 46.9603 49.5929 48.9126C48.8308 50.872 47.5494 52.5868 45.8863 53.8729C43.4244 55.6898 40.2447 56.026 37.2831 56.7436C34.3215 57.4613 31.1691 58.815 29.9518 61.604C30.4336 57.5095 31.2788 53.466 32.4773 49.5213C33.7946 45.1698 35.6933 40.7909 39.3272 38.0019C40.9947 36.7508 42.948 35.9352 45.0101 35.6291C47.0722 35.3229 49.1782 35.5359 51.1373 36.2486" fill="black"/>
<path d="M43.6233 62.7307C43.4689 62.3582 36.4827 60.0598 36.6008 67.4184C36.7099 74.5681 43.8686 72.951 43.8686 72.742C43.8686 72.5331 43.6233 62.7307 43.6233 62.7307Z" fill="#FFBE9D"/>
<path d="M41.6338 70.0801C41.6338 70.0801 41.5157 70.1709 41.3068 70.2708C41.0149 70.3862 40.6901 70.3862 40.3983 70.2708C39.6352 70.0074 38.9811 68.8264 38.9175 67.5454C38.8874 66.9237 38.996 66.3031 39.2354 65.7285C39.2965 65.5048 39.4111 65.2994 39.5694 65.13C39.7277 64.9607 39.9249 64.8324 40.1439 64.7564C40.2867 64.7134 40.4401 64.7227 40.5766 64.7827C40.7132 64.8426 40.8239 64.9493 40.8889 65.0835C40.9888 65.2743 40.9434 65.4196 40.9797 65.4378C41.016 65.456 41.1341 65.3106 41.0706 65.0199C41.0266 64.843 40.9242 64.6861 40.7798 64.5747C40.5802 64.4311 40.3331 64.3694 40.0894 64.4021C39.799 64.4716 39.5302 64.6116 39.3068 64.8096C39.0834 65.0077 38.9122 65.2578 38.8085 65.5377C38.5169 66.162 38.3827 66.8482 38.4178 67.5363C38.4905 68.9808 39.2536 70.3163 40.2893 70.5888C40.4819 70.6432 40.6845 70.6526 40.8814 70.6164C41.0782 70.5802 41.2642 70.4992 41.4249 70.3799C41.6247 70.2527 41.6611 70.0891 41.6338 70.0801Z" fill="#EB996E"/>
<path d="M40.8623 71.3697C40.5122 71.321 40.1566 71.4075 39.8679 71.6116C39.5793 71.8158 39.3793 72.1223 39.3087 72.4687C39.238 72.8151 39.302 73.1754 39.4877 73.4763C39.6733 73.7771 39.9667 73.996 40.308 74.0882C40.6492 74.1805 41.0129 74.1392 41.3248 73.9728C41.6367 73.8064 41.8735 73.5274 41.987 73.1925C42.1005 72.8577 42.0821 72.4922 41.9356 72.1704C41.7891 71.8487 41.5255 71.5948 41.1985 71.4606" fill="white"/>
<path d="M41.1975 71.4621C41.5024 71.6937 41.733 72.0095 41.8606 72.3705C41.9194 72.5636 41.9277 72.7685 41.8848 72.9658C41.8419 73.163 41.7491 73.3459 41.6153 73.497C41.4603 73.6876 41.2528 73.8285 41.0184 73.9021C40.784 73.9757 40.5332 73.9788 40.297 73.9111C40.0609 73.8433 39.8498 73.7077 39.6901 73.521C39.5304 73.3344 39.4291 73.1049 39.3987 72.8611C39.3682 72.6613 39.3879 72.4569 39.4561 72.2666C39.5243 72.0763 39.6388 71.9059 39.7893 71.7709C40.0926 71.5176 40.4673 71.3651 40.8613 71.3349C40.8613 71.3349 40.7432 71.2622 40.5252 71.2622C40.1935 71.2706 39.874 71.3888 39.6167 71.5983C39.4221 71.7516 39.2704 71.9526 39.1765 72.1819C39.0826 72.4111 39.0496 72.6608 39.0807 72.9065C39.118 73.2062 39.2423 73.4883 39.4382 73.7181C39.6342 73.9478 39.8932 74.1151 40.1832 74.1992C40.4732 74.2833 40.7815 74.2805 41.0699 74.1913C41.3584 74.102 41.6143 73.9301 41.8061 73.6969C41.931 73.5356 42.0217 73.3505 42.0726 73.1529C42.1234 72.9554 42.1334 72.7495 42.102 72.5479C42.0705 72.3464 41.9982 72.1534 41.8896 71.9807C41.7809 71.808 41.6381 71.6594 41.47 71.5438C41.3246 71.4621 41.1975 71.4439 41.1975 71.4621Z" fill="black"/>
<path d="M36.283 71.044C36.283 71.044 36.1921 71.044 36.0558 70.8804C35.8604 70.713 35.6782 70.5308 35.5108 70.3354C34.8819 69.6125 34.3783 68.7896 34.0209 67.9007C33.476 66.57 33.282 65.1216 33.4576 63.6945C33.7033 61.9183 34.6041 60.2981 35.9832 59.1521C37.3354 58.0613 38.8416 57.1766 40.4528 56.5266C41.9064 55.8998 43.1782 55.3547 44.2502 54.7824C45.3675 54.1841 46.4078 53.4519 47.3481 52.6021C47.175 52.9077 46.9542 53.1837 46.694 53.4197C46.0097 54.0863 45.2435 54.6633 44.4137 55.1367C43.1857 55.8061 41.9243 56.4126 40.6345 56.9536C39.0741 57.6019 37.6147 58.4708 36.3011 59.5337C35.0036 60.5981 34.1407 62.1009 33.8755 63.758C33.6951 65.1165 33.851 66.4985 34.3297 67.7826C34.8089 68.9638 35.4678 70.0639 36.283 71.044Z" fill="#A2909E"/>
<path d="M35.6915 66.8009C35.5419 66.5901 35.4339 66.3527 35.3736 66.1014C35.162 65.4293 35.0758 64.7242 35.1192 64.021C35.1769 62.9661 35.4885 61.9407 36.0276 61.0321C36.6785 59.9049 37.6535 58.9996 38.8257 58.4339C39.9639 57.9028 41.1282 57.4298 42.3143 57.0167C43.2562 56.6742 44.1389 56.1868 44.9306 55.5722C45.6419 54.9827 46.2025 54.2322 46.5659 53.3828C46.5725 53.6418 46.5131 53.8981 46.3933 54.1278C46.1135 54.7816 45.6877 55.3627 45.1487 55.8266C44.3536 56.5023 43.4508 57.0397 42.4778 57.4164C41.4149 57.8706 40.1975 58.2522 39.0438 58.8518C37.9517 59.3825 37.0343 60.2147 36.4001 61.2501C35.895 62.1046 35.5848 63.06 35.4917 64.0482C35.4306 64.9706 35.4979 65.897 35.6915 66.8009Z" fill="#A2909E"/>
<path d="M51.7452 43.354C51.0232 41.6993 50.0854 40.1475 48.9562 38.739C47.7189 37.4273 46.3138 36.2848 44.7772 35.3413C45.3159 35.4349 45.8294 35.6391 46.2853 35.9409C47.4309 36.592 48.4571 37.4338 49.3196 38.4301C50.1887 39.4182 50.8803 40.5493 51.3636 41.7733C51.5966 42.2689 51.7264 42.8067 51.7452 43.354Z" fill="#A2909E"/>
<path d="M84.5944 69.6261C84.2875 69.6309 83.9815 69.5912 83.686 69.508C82.8612 69.3426 82.0479 69.1241 81.2513 68.8539C80.697 68.658 80.1592 68.418 79.6433 68.1362C79.0192 67.8206 78.4801 67.3594 78.0716 66.7917C77.8557 66.4683 77.7102 66.103 77.6447 65.7197L77.5629 65.1655C77.5273 64.9675 77.506 64.7671 77.4993 64.5659C77.5174 63.7544 77.6646 62.951 77.9354 62.1858C78.1955 61.4649 78.3634 60.714 78.435 59.9509C78.4472 59.2553 78.251 58.5719 77.8718 57.9886C77.1609 56.984 76.3312 56.0689 75.4007 55.2632C74.8049 54.6856 74.1739 54.1456 73.5111 53.6462C73.2548 53.4799 73.009 53.2979 72.7753 53.1011C73.8675 53.5368 74.8529 54.203 75.6642 55.0543C76.6566 55.8391 77.5369 56.7561 78.2806 57.7797C78.7142 58.4303 78.9421 59.1963 78.9347 59.9782C78.8704 60.7846 78.6993 61.5788 78.4259 62.3402C78.1672 63.0581 78.0231 63.8123 77.999 64.575C78.0077 64.7515 78.0259 64.9274 78.0535 65.1019L78.1261 65.6561C78.179 65.9791 78.2964 66.288 78.4714 66.5646C78.8368 67.0806 79.3154 67.5063 79.8704 67.8092C80.3645 68.0897 80.8775 68.3356 81.4057 68.545C83.3226 69.2809 84.6217 69.5444 84.5944 69.6261Z" fill="#A2909E"/>
<path d="M59.1318 373.372L59.5225 363.351L77.0014 362.688L76.7289 374.961L70.3787 378.795L59.1318 373.372Z" fill="#FFBE9D"/>
<path d="M77.1096 372.682V373.826C77.1096 373.826 96.5145 381.839 96.6871 385.536L58.0135 384.964L58.7312 372.1C61.5732 373.511 64.6857 374.293 67.857 374.394C71.0284 374.494 74.1841 373.91 77.1096 372.682Z" fill="#FD652D"/>
<g opacity="0.3">
<path opacity="0.3" d="M77.111 372.682V373.827C77.111 373.827 96.5159 381.84 96.6885 385.537L58.015 384.965L58.7327 372.101C61.5747 373.512 64.6872 374.294 67.8585 374.395C71.0298 374.495 74.1856 373.911 77.111 372.682Z" fill="#FF980D"/>
</g>
<g opacity="0.6">
<path opacity="0.6" d="M62.5756 376.28C62.1961 376.388 61.871 376.635 61.6642 376.971C61.4574 377.308 61.3839 377.709 61.4581 378.097C61.5512 378.475 61.7861 378.803 62.1142 379.012C62.4423 379.222 62.8384 379.297 63.2206 379.223C63.6155 379.107 63.9534 378.848 64.1697 378.498C64.386 378.148 64.4653 377.73 64.3925 377.325C64.2543 376.941 63.9723 376.626 63.6062 376.446C63.24 376.266 62.8183 376.236 62.4302 376.362" fill="white"/>
</g>
<g opacity="0.6">
<path opacity="0.6" d="M58.0045 384.963L58.1771 381.875L95.1791 383.546C95.1791 383.546 96.887 384.318 96.678 385.536L58.0045 384.963Z" fill="white"/>
</g>
<path d="M77.2372 373.937C77.2372 374.127 76.3288 374.2 75.3476 374.791C74.3665 375.381 73.9032 376.171 73.7305 376.099C73.5579 376.026 73.8577 374.927 75.0024 374.282C76.1471 373.637 77.2827 373.764 77.2372 373.937Z" fill="black"/>
<path d="M81.2701 375.671C81.2701 375.862 80.4889 376.171 79.8348 376.961C79.1807 377.752 78.9808 378.587 78.7991 378.578C78.6174 378.569 78.4993 377.497 79.3351 376.534C80.1709 375.571 81.2701 375.499 81.2701 375.671Z" fill="black"/>
<path d="M83.5052 380.558C83.3326 380.558 83.0782 379.65 83.5778 378.614C84.0775 377.578 84.9678 377.188 85.0496 377.351C85.1313 377.515 84.5681 378.051 84.1411 378.905C83.7141 379.759 83.6869 380.558 83.5052 380.558Z" fill="black"/>
<path d="M43.4136 373.6L43.8133 363.579L61.2832 362.916L61.0197 375.189L54.6695 379.023L43.4136 373.6Z" fill="#FFBE9D"/>
<path d="M61.4018 372.91V374.055C61.4018 374.055 80.8067 382.067 80.9793 385.765L42.3058 385.193L43.0235 372.329C45.8654 373.739 48.978 374.522 52.1493 374.622C55.3206 374.722 58.4763 374.138 61.4018 372.91Z" fill="#FD652D"/>
<g opacity="0.6">
<path opacity="0.6" d="M46.8673 376.506C46.4866 376.613 46.1602 376.86 45.9531 377.196C45.746 377.533 45.6734 377.935 45.7498 378.323C45.8506 378.693 46.0873 379.01 46.4125 379.213C46.7377 379.415 47.1273 379.487 47.5032 379.413C47.8981 379.297 48.2361 379.039 48.4523 378.688C48.6686 378.338 48.7479 377.92 48.6751 377.515C48.5369 377.131 48.255 376.816 47.8888 376.636C47.5226 376.457 47.1009 376.426 46.7128 376.552" fill="white"/>
</g>
<g opacity="0.6">
<path opacity="0.6" d="M42.2979 385.191L42.4705 382.103L79.4724 383.774C79.4724 383.774 81.1803 384.555 80.9714 385.764L42.2979 385.191Z" fill="white"/>
</g>
<path d="M61.5301 374.198C61.5301 374.389 60.6217 374.461 59.6405 375.052C58.6594 375.642 58.1961 376.433 58.0235 376.36C57.8508 376.287 58.1416 375.197 59.2953 374.543C60.4491 373.889 61.5756 373.989 61.5301 374.198Z" fill="black"/>
<path d="M65.5638 375.898C65.5638 376.089 64.7825 376.397 64.1284 377.188C63.4743 377.978 63.2745 378.814 63.0837 378.805C62.8929 378.796 62.793 377.724 63.6288 376.761C64.4645 375.798 65.5638 375.725 65.5638 375.898Z" fill="black"/>
<path d="M67.788 380.796C67.6154 380.796 67.3701 379.887 67.8698 378.851C68.3694 377.816 69.2597 377.425 69.3415 377.589C69.4233 377.752 68.86 378.288 68.433 379.142C68.0061 379.996 67.9788 380.777 67.788 380.796Z" fill="black"/>
<path d="M17.1705 126.487C17.1705 126.487 31.706 149.017 39.3372 158.102C46.9683 167.187 59.5143 159.192 60.9678 146.837C62.4214 134.482 62.0398 111.579 62.0398 111.579L51.8831 105.538L45.3149 136.798L37.1387 121.582L17.1705 126.487Z" fill="#FFBE9D"/>
<path d="M62.0379 111.58L66.3986 100.678C67.2974 100.257 68.1577 99.759 68.9695 99.1881C69.6145 98.5886 69.4874 94.6458 69.3057 93.9554C69.124 93.2649 70.0143 91.23 69.3874 90.8666C68.7606 90.5032 67.0072 90.8666 66.9436 90.1398C66.9436 89.9854 67.8521 88.1321 66.5712 87.2145C65.9298 86.9716 65.2493 86.8484 64.5634 86.8511L63.8548 83.2173C63.8548 83.2173 60.9477 79.4108 59.3125 81.4003C59.3125 81.4003 53.1258 88.8498 52.5807 89.9399C52.0357 91.0301 51.8812 103.658 51.8812 106.02" fill="#FFBE9D"/>
<path d="M51.9001 106.038C51.8749 105.821 51.8749 105.601 51.9001 105.384C51.9001 104.902 51.9001 104.275 51.9001 103.494C51.9001 101.85 51.9001 99.4788 51.9909 96.5353C51.9909 95.0636 52.0818 93.4556 52.209 91.7205C52.209 91.2844 52.2817 90.812 52.3634 90.385C52.4628 89.9108 52.6817 89.4699 52.9993 89.1041C53.5444 88.3409 54.1258 87.596 54.7345 86.8238C55.9428 85.2885 57.2328 83.6987 58.5773 82.0453C58.9071 81.585 59.3019 81.175 59.7493 80.8279C60.0232 80.6869 60.3269 80.6133 60.635 80.6133C60.9432 80.6133 61.2468 80.6869 61.5208 80.8279C62.5451 81.3739 63.4356 82.1403 64.1281 83.0718V83.1354C64.2008 83.4806 64.2734 83.8622 64.3461 84.2438C64.5096 85.0886 64.6823 85.9335 64.8458 86.7511L64.6187 86.5604C65.094 86.5732 65.5678 86.6218 66.0359 86.7057C66.2965 86.7479 66.5464 86.8405 66.7717 86.9782C66.981 87.1333 67.1545 87.3316 67.2805 87.5597C67.5085 88.0111 67.582 88.525 67.4894 89.0223C67.4616 89.2541 67.4099 89.4825 67.335 89.7037L67.2351 90.0216V90.0943C67.2302 90.1042 67.2277 90.1151 67.2277 90.1261C67.2277 90.1371 67.2302 90.148 67.2351 90.1579C67.3538 90.262 67.5043 90.3228 67.662 90.3305C67.8693 90.3656 68.0787 90.3869 68.2889 90.3941C68.5069 90.3941 68.7249 90.3941 68.9521 90.4577C69.2193 90.4807 69.473 90.5854 69.6788 90.7575C69.8385 90.9777 69.9069 91.2511 69.8696 91.5206C69.8696 91.7507 69.8424 91.9688 69.7878 92.1747C69.7061 92.5926 69.6062 92.9923 69.5607 93.383C69.5288 93.5571 69.5288 93.7357 69.5607 93.9099C69.5607 94.137 69.6152 94.3278 69.6425 94.5367C69.6425 94.9485 69.6607 95.3483 69.697 95.7359C69.713 96.5099 69.6735 97.2841 69.5789 98.0525C69.5427 98.4478 69.4252 98.8313 69.2337 99.179C68.9713 99.4531 68.6641 99.6805 68.3252 99.8512C67.7165 100.215 67.1079 100.514 66.5083 100.76L66.5991 100.669L63.3377 108.6C62.9562 109.508 62.6473 110.226 62.4293 110.762C62.3331 111.016 62.2177 111.262 62.084 111.498C62.1476 111.234 62.2327 110.976 62.3384 110.726C62.5383 110.181 62.8199 109.445 63.1651 108.527C63.9191 106.592 64.9821 103.867 66.2721 100.533V100.469H66.3357C66.9171 100.187 67.5167 99.8694 68.1526 99.5151C68.4436 99.3655 68.7101 99.1725 68.943 98.9428C69.0918 98.6417 69.1812 98.3147 69.2064 97.9798C69.2922 97.2351 69.3226 96.4851 69.2973 95.7359C69.2973 95.3422 69.2791 94.9516 69.2428 94.564C69.2309 94.3743 69.2035 94.1859 69.161 94.0007C69.1203 93.7754 69.1203 93.5447 69.161 93.3194C69.2155 92.8924 69.3154 92.4836 69.3881 92.0838C69.4252 91.8888 69.4495 91.6915 69.4608 91.4933C69.4836 91.34 69.4549 91.1834 69.379 91.0482C69.2412 90.9631 69.0859 90.9102 68.9248 90.8937C68.7249 90.8937 68.516 90.8937 68.298 90.8392C68.0799 90.7847 67.8619 90.8392 67.6257 90.7757C67.3451 90.7546 67.0841 90.6241 66.8989 90.4123C66.8415 90.3425 66.8066 90.257 66.799 90.167C66.7802 90.1079 66.7802 90.0444 66.799 89.9853V89.8944L66.8989 89.5856C66.9573 89.3827 67.0028 89.1764 67.0352 88.9678C67.113 88.5698 67.0554 88.1573 66.8717 87.7959C66.7776 87.6271 66.6473 87.4813 66.4901 87.3689C66.3222 87.2712 66.1372 87.2064 65.945 87.1781C65.4928 87.1264 65.0373 87.1082 64.5823 87.1236H64.3915V86.9328C64.228 86.1152 64.0554 85.2703 63.8919 84.4255C63.8192 84.0439 63.7465 83.6714 63.6739 83.3171V83.417C63.0266 82.5503 62.1991 81.8343 61.2482 81.3185C61.04 81.2072 60.8076 81.1489 60.5714 81.1489C60.3353 81.1489 60.1028 81.2072 59.8946 81.3185C59.4961 81.6343 59.1471 82.0079 58.859 82.4268C57.4963 84.0621 56.2062 85.6519 54.9889 87.1781C54.3802 87.9321 53.7897 88.6862 53.2537 89.422C52.9645 89.7366 52.7639 90.1221 52.6723 90.5394C52.5996 90.9664 52.5542 91.4479 52.5088 91.8295C52.3634 93.5465 52.2998 95.1636 52.2362 96.6262C52.1363 99.5242 52.0545 101.886 52 103.576C52 104.357 52 104.984 51.9364 105.466C51.9391 105.657 51.927 105.848 51.9001 106.038Z" fill="#EB996E"/>
<path d="M64.5829 86.8518C63.9575 87.0786 63.3207 87.2726 62.6751 87.4332C62.0039 87.6838 61.3538 87.9876 60.731 88.3417C59.8849 88.6778 58.9943 88.8889 58.0874 88.9686C57.3113 89.0325 56.5601 89.2728 55.891 89.6711C55.2219 90.0694 54.6525 90.6152 54.2264 91.267C53.9092 91.8305 53.6939 92.4456 53.5905 93.0839C53.5073 92.745 53.495 92.3925 53.5544 92.0486C53.6138 91.7046 53.7436 91.3767 53.9357 91.0853C54.3054 90.4212 54.8211 89.8496 55.4437 89.4137C56.2122 88.9025 57.0957 88.5903 58.0147 88.5052C58.8817 88.4228 59.7357 88.2367 60.5584 87.9511C61.1999 87.5841 61.8753 87.2798 62.5752 87.0426C63.2268 86.8547 63.9077 86.79 64.5829 86.8518Z" fill="#EB996E"/>
<path d="M61.8923 87.259C61.7924 87.3407 61.3927 86.9683 61.2836 86.3505C61.1746 85.7327 61.4472 85.2422 61.5653 85.2876C61.6834 85.333 61.6652 85.7691 61.7561 86.2778C61.8469 86.7866 62.0377 87.1772 61.8923 87.259Z" fill="#EB996E"/>
<path d="M67.2255 90.2204C65.3746 90.8305 63.4322 91.1163 61.484 91.0653C60.7655 90.9929 60.0398 91.0639 59.3491 91.2743C58.8341 91.5137 58.4285 91.9387 58.2135 92.4643C58.0397 92.9877 57.9001 93.5218 57.7956 94.0632C57.6308 93.4926 57.6693 92.8825 57.9046 92.3372C58.118 91.7004 58.5755 91.1743 59.1765 90.8745C59.9139 90.6184 60.6969 90.5193 61.4749 90.5838C64.6454 90.5566 67.1982 90.0842 67.2255 90.2204Z" fill="#EB996E"/>
<path d="M68.9874 93.3993C68.5562 93.6058 68.0847 93.7144 67.6066 93.7173C66.6981 93.8172 65.5262 93.7809 64.218 93.8263C63.6057 93.8241 62.9954 93.8974 62.401 94.0444C61.9464 94.157 61.5412 94.4155 61.2473 94.7802C60.9961 95.1455 60.8687 95.5818 60.8839 96.0248C60.8839 96.0248 60.7658 95.9158 60.7204 95.6614C60.675 95.2893 60.7618 94.9131 60.9657 94.5985C61.2743 94.135 61.733 93.7918 62.2648 93.6265C62.8815 93.4457 63.5208 93.3539 64.1635 93.3539C65.508 93.3085 66.689 93.3539 67.5521 93.3539C68.0307 93.3137 68.5123 93.3289 68.9874 93.3993Z" fill="#EB996E"/>
<path d="M67.3717 96.6079C67.4626 96.6079 66.9811 97.4528 65.8183 97.7163L65.9999 97.4619L66.0635 98.0797C66.2186 98.9052 66.2186 99.7524 66.0635 100.578C65.7547 99.8 65.5945 98.9711 65.5911 98.1342L65.5366 97.5164V97.2984H65.7365C66.7176 97.1167 67.29 96.5171 67.3717 96.6079Z" fill="#EB996E"/>
<path d="M86.5674 168.886C86.5674 168.886 99.4949 197.421 99.4949 215.272C99.4949 233.124 86.7764 291.502 86.7764 291.502C86.7764 291.502 85.0775 307.645 83.3696 329.185C82.2514 342.66 80.0735 356.025 76.8559 369.158H64.1373L43.4515 369.721C43.4515 369.721 34.6666 333.736 35.2299 320.137C35.7931 306.537 38.0643 290.948 38.0643 290.948C38.0643 290.948 27.0173 245.897 25.0278 237.675C24.2556 234.459 23.9013 228.327 23.8377 221.795C23.7039 208.361 26.1719 195.027 31.1054 182.531L34.7393 173.364L86.5674 168.886Z" fill="black"/>
<path d="M67.4889 225.982C67.3526 225.982 65.8173 257.924 64.064 297.343C62.3106 336.761 60.957 368.748 61.1296 368.748C61.3022 368.748 62.8012 336.807 64.5545 297.379C66.3079 257.951 67.5979 225.982 67.4889 225.982Z" fill="#A2909E"/>
<path d="M70.215 213.22C70.354 212.702 70.4482 212.173 70.4966 211.639C70.6511 210.621 70.8237 209.131 70.9781 207.296C71.3597 202.499 71.387 197.68 71.0599 192.879C70.7365 188.078 70.0593 183.308 69.034 178.607C68.6343 176.79 68.2618 175.355 67.9711 174.373C67.8496 173.851 67.6824 173.34 67.4714 172.847C67.5322 173.378 67.6355 173.904 67.7803 174.419C68.0074 175.418 68.3254 176.881 68.6888 178.68C69.6238 183.38 70.261 188.135 70.5966 192.915C70.9185 197.694 70.9367 202.488 70.6511 207.269C70.5421 209.086 70.433 210.594 70.3422 211.621C70.2549 212.149 70.2123 212.684 70.215 213.22Z" fill="#A2909E"/>
<path d="M26.7889 196.412C27.05 196.653 27.3598 196.836 27.6974 196.948C28.5804 197.311 29.5332 197.472 30.4864 197.42C32.912 197.357 36.1098 196.112 39.026 193.941C41.517 192.063 43.5358 189.631 44.922 186.837C45.337 185.993 45.6863 185.118 45.9667 184.22C46.0844 183.896 46.1577 183.556 46.1847 183.212C46.0848 183.212 45.7214 184.611 44.604 186.664C43.1624 189.353 41.1538 191.696 38.7171 193.532C36.3322 195.434 33.4741 196.649 30.4501 197.048C29.196 197.139 27.9389 196.92 26.7889 196.412Z" fill="#A2909E"/>
<path d="M80.2081 179.413C80.2342 179.724 80.3045 180.03 80.4171 180.321C80.6644 181.135 80.9679 181.93 81.3255 182.702C82.4811 185.263 84.0494 187.617 85.9678 189.67C87.891 191.722 90.1412 193.441 92.6269 194.757C93.3727 195.161 94.1469 195.51 94.9435 195.802C95.2326 195.933 95.5382 196.025 95.852 196.074C95.852 195.983 94.6528 195.502 92.8177 194.448C88.008 191.674 84.1289 187.535 81.6708 182.556C80.6896 180.694 80.2899 179.386 80.2081 179.413Z" fill="#A2909E"/>
<path d="M61.9559 178.77C61.9559 178.77 62.0104 178.57 62.1194 178.252C62.2714 177.807 62.5609 177.422 62.9461 177.153C63.2443 176.936 63.5966 176.806 63.964 176.777C64.3315 176.749 64.6997 176.822 65.0281 176.989C65.3565 177.156 65.6322 177.411 65.8248 177.726C66.0174 178.04 66.1193 178.401 66.1193 178.77C66.1193 179.138 66.0174 179.5 65.8248 179.814C65.6322 180.128 65.3565 180.383 65.0281 180.551C64.6997 180.718 64.3315 180.791 63.964 180.762C63.5966 180.733 63.2443 180.604 62.9461 180.387C62.5609 180.117 62.2714 179.732 62.1194 179.288C62.0104 178.97 62.0013 178.77 61.9559 178.77C61.9104 178.77 61.8741 178.97 61.9559 179.333C62.0477 179.864 62.3323 180.343 62.7553 180.678C63.07 180.933 63.4445 181.103 63.8436 181.173C64.2426 181.243 64.6529 181.21 65.0356 181.077C65.5144 180.91 65.9295 180.599 66.2232 180.185C66.5169 179.772 66.6747 179.277 66.6747 178.77C66.6747 178.263 66.5169 177.768 66.2232 177.355C65.9295 176.941 65.5144 176.629 65.0356 176.462C64.6529 176.329 64.2426 176.296 63.8436 176.366C63.4445 176.436 63.07 176.607 62.7553 176.862C62.3323 177.197 62.0477 177.675 61.9559 178.207C61.8741 178.57 61.9286 178.77 61.9559 178.77Z" fill="#A2909E"/>
<path d="M44.3236 290.129C46.5042 291.649 48.78 293.026 51.1371 294.254C53.4274 295.612 55.8001 296.825 58.2413 297.888C56.0468 296.374 53.7556 295.005 51.3824 293.791C49.1059 292.428 46.7486 291.205 44.3236 290.129Z" fill="#A2909E"/>
<path d="M98.7866 110.816C94.8438 116.812 78.8639 141.113 74.1307 148.299C74.0152 148.478 73.9529 148.685 73.9511 148.898C73.9493 149.11 74.0081 149.319 74.1206 149.499C74.2331 149.679 74.3947 149.824 74.5863 149.915C74.778 150.007 74.9918 150.042 75.2027 150.016L103.601 146.437C103.751 146.42 103.896 146.371 104.026 146.294C104.155 146.218 104.268 146.115 104.355 145.992L131.473 108.926C131.599 108.756 131.673 108.553 131.687 108.342C131.7 108.13 131.653 107.92 131.551 107.734C131.449 107.549 131.296 107.397 131.11 107.296C130.924 107.194 130.712 107.149 130.501 107.164L101.285 109.326C100.782 109.364 100.294 109.519 99.8604 109.777C99.4269 110.036 99.0593 110.391 98.7866 110.816Z" fill="#E0E0E0"/>
<path d="M98.7855 110.816C98.8519 110.695 98.9278 110.58 99.0127 110.471C99.265 110.159 99.5731 109.898 99.9211 109.699C100.507 109.393 101.159 109.237 101.82 109.244L104.454 109.026L121.297 107.7L126.884 107.273L129.846 107.046C130.11 107.046 130.337 107 130.636 107C130.865 107.011 131.087 107.082 131.279 107.206C131.471 107.33 131.628 107.503 131.732 107.707C131.836 107.91 131.885 108.138 131.872 108.367C131.86 108.595 131.788 108.817 131.663 109.008L123.814 119.828L105.644 144.593C105.236 145.156 104.863 145.674 104.418 146.255C104.28 146.412 104.105 146.53 103.909 146.601C103.732 146.654 103.549 146.691 103.364 146.71L102.365 146.828L98.3858 147.327L90.6184 148.299L75.9376 150.116C75.6378 150.116 75.3834 150.198 75.0291 150.216C74.8594 150.214 74.6918 150.179 74.5359 150.112C74.38 150.044 74.2389 149.947 74.1206 149.826C73.8812 149.582 73.7418 149.258 73.73 148.917C73.7498 148.586 73.8702 148.269 74.0752 148.009C74.7111 147.1 75.3289 146.11 75.9466 145.174C77.1579 143.315 78.3511 141.498 79.526 139.724L85.967 129.994L95.3061 115.922L97.868 112.106C98.1587 111.688 98.3767 111.361 98.5493 111.125C98.722 110.889 98.7855 110.789 98.7855 110.798C98.7301 110.922 98.6632 111.041 98.5857 111.152L97.9498 112.161L95.4605 116.022L86.2396 130.176L79.8803 139.942L76.3191 145.392L74.5022 148.236C74.3393 148.423 74.2462 148.66 74.2387 148.908C74.2387 149.149 74.3344 149.38 74.5048 149.551C74.6752 149.721 74.9062 149.817 75.1472 149.817C75.3834 149.817 75.7104 149.744 75.9921 149.717L90.6729 147.9L98.4403 146.919L102.41 146.419L103.41 146.292C103.56 146.279 103.709 146.252 103.855 146.21C103.977 146.16 104.089 146.086 104.182 145.992C104.572 145.447 104.972 144.911 105.372 144.375L123.541 119.628L131.454 108.845C131.573 108.664 131.624 108.447 131.598 108.232C131.571 108.017 131.469 107.819 131.309 107.673C131.151 107.529 130.949 107.446 130.736 107.437C130.527 107.437 130.237 107.437 129.991 107.437L127.03 107.645L121.443 108.045L104.591 109.217L101.947 109.39C101.303 109.375 100.666 109.512 100.085 109.789C99.5846 110.037 99.142 110.387 98.7855 110.816Z" fill="black"/>
<path d="M131.472 108.927C131.279 108.978 131.081 109.008 130.882 109.017L129.156 109.19L122.742 109.762L100.939 111.579L101.111 111.479C99.7486 113.505 98.3405 115.613 96.9233 117.793C91.1636 126.642 86.1398 134.772 82.3333 140.568C80.4437 143.467 78.8811 145.783 77.7909 147.382L76.51 149.199C76.3751 149.421 76.2167 149.628 76.0376 149.817C76.1572 149.585 76.2907 149.36 76.4373 149.144C76.728 148.681 77.1368 148.054 77.6365 147.273L82.0607 140.378C85.7855 134.545 90.773 126.378 96.5326 117.521C97.9499 115.34 99.3671 113.233 100.739 111.161L100.802 111.071H100.911L122.715 109.453L129.147 109.017L130.873 108.927C131.072 108.913 131.273 108.913 131.472 108.927Z" fill="black"/>
<path d="M114.575 114.677C114.558 114.602 114.526 114.532 114.482 114.47C114.437 114.408 114.38 114.356 114.315 114.316C114.25 114.276 114.177 114.25 114.102 114.238C114.026 114.227 113.949 114.231 113.875 114.25C113.586 114.317 113.321 114.465 113.112 114.677C112.979 114.797 112.892 114.96 112.867 115.138C112.842 115.316 112.881 115.497 112.976 115.649C113.258 116.003 113.884 115.876 114.184 115.576C114.321 115.472 114.429 115.335 114.497 115.178C114.566 115.02 114.593 114.848 114.575 114.677Z" fill="white"/>
<path d="M101.311 135.69C101.311 135.69 100.194 132.965 103.038 132.674C106.472 132.494 109.914 132.494 113.349 132.674C113.349 132.674 117.428 133.101 116.565 136.027C116.565 136.027 118.981 138.189 117.682 140.514C116.383 142.84 115.865 142.15 115.865 142.15C115.865 142.15 116.21 144.993 114.048 145.42C114.048 145.42 111.713 148.146 109.56 148.009C107.407 147.873 98.2771 143.467 97.6775 142.558C97.078 141.65 96.2058 141.214 96.7237 140.251C96.7237 140.251 95.6062 137.725 98.0228 137.344C98.0409 137.362 98.2135 135.273 101.311 135.69Z" fill="#FFBE9D"/>
<path d="M114.266 136.653C113.635 136.774 112.991 136.819 112.349 136.789C111.159 136.789 109.524 136.789 107.716 136.789C106.16 136.828 104.604 136.734 103.065 136.508C101.838 136.226 101.357 135.508 101.411 135.49C101.934 135.829 102.517 136.063 103.128 136.181C104.255 136.371 105.917 136.253 107.725 136.317C109.533 136.381 111.168 136.39 112.349 136.453C112.994 136.442 113.637 136.509 114.266 136.653Z" fill="#EB996E"/>
<path d="M112.231 140.958C112.231 140.958 112.022 141.086 111.613 141.167C111.016 141.291 110.404 141.33 109.796 141.285C108.919 141.216 108.052 141.058 107.207 140.813C106.298 140.55 105.245 140.177 104.173 139.85C103.179 139.527 102.152 139.316 101.111 139.223C100.21 139.299 99.3051 139.116 98.5038 138.696C98.189 138.484 97.9678 138.159 97.886 137.788C97.8275 137.514 97.866 137.228 97.995 136.979C98.2131 136.57 98.5219 136.552 98.5128 136.57C98.5038 136.589 98.2948 136.698 98.1585 137.061C98.0744 137.311 98.0821 137.583 98.1803 137.828C98.2786 138.072 98.4609 138.274 98.6945 138.396C99.4608 138.738 100.305 138.867 101.138 138.769C102.216 138.839 103.281 139.044 104.309 139.378L107.334 140.377C108.149 140.636 108.985 140.821 109.832 140.931C110.63 141.001 111.432 141.011 112.231 140.958Z" fill="#EB996E"/>
<path d="M109.178 144.601C108.525 144.564 107.881 144.439 107.261 144.229C106.089 143.938 104.49 143.475 102.719 142.911C100.947 142.348 99.4121 141.758 98.2947 141.303C97.6712 141.101 97.076 140.82 96.5232 140.468C96.5777 140.34 99.3849 141.322 102.882 142.457C106.38 143.593 109.214 144.474 109.178 144.601Z" fill="#EB996E"/>
<path d="M109.915 147.989C109.376 148.037 108.832 147.975 108.316 147.808C107.064 147.506 105.847 147.077 104.683 146.527C103.311 145.9 102.121 145.264 101.249 144.81C100.757 144.6 100.299 144.322 99.8859 143.983C101.609 144.537 103.278 145.246 104.873 146.1C106.521 146.814 108.204 147.444 109.915 147.989Z" fill="#EB996E"/>
<path d="M23.6373 97.4165C23.6373 97.4165 11.9544 102.277 14.8524 117.739C17.7504 133.201 19.2585 138.361 19.2585 138.361L42.2882 126.242L23.6373 97.4165Z" fill="#FD652D"/>
<path d="M41.8067 126.496C41.5445 126.706 41.2614 126.889 40.9618 127.041C40.4077 127.368 39.59 127.822 38.5816 128.377C36.5648 129.494 33.7577 130.993 30.6416 132.637C27.5256 134.282 24.7002 135.735 22.638 136.771C21.6114 137.289 20.7757 137.679 20.1942 137.97C19.9059 138.132 19.6014 138.263 19.2858 138.361C19.5432 138.142 19.827 137.955 20.1306 137.807C20.6848 137.479 21.5024 137.025 22.5108 136.471C24.5276 135.363 27.3348 133.855 30.4508 132.219C33.5669 130.584 36.3922 129.122 38.4454 128.086L40.8982 126.878C41.1854 126.716 41.4902 126.588 41.8067 126.496Z" fill="black"/>
<path d="M41.8058 126.496C41.3268 125.823 40.9044 125.112 40.543 124.37L37.6177 119.155C36.5094 117.193 35.501 115.421 34.6743 113.95C34.2293 113.25 33.8549 112.507 33.5569 111.733C34.0913 112.365 34.5601 113.05 34.9559 113.777C35.7735 115.076 36.8728 116.893 38.0265 118.928C39.1803 120.963 40.1796 122.834 40.8428 124.215C41.2411 124.94 41.5638 125.704 41.8058 126.496Z" fill="black"/>
<defs>
<filter id="filter0_d_877_48137" x="10.682" y="182.314" width="394.557" height="205.497" filterUnits="userSpaceOnUse" color-interpolation-filters="sRGB">
<feFlood flood-opacity="0" result="BackgroundImageFix"/>
<feColorMatrix in="SourceAlpha" type="matrix" values="0 0 0 0 0 0 0 0 0 0 0 0 0 0 0 0 0 0 127 0" result="hardAlpha"/>
<feOffset dx="1" dy="1"/>
<feGaussianBlur stdDeviation="0.5"/>
<feComposite in2="hardAlpha" operator="out"/>
<feColorMatrix type="matrix" values="0 0 0 0 0.4 0 0 0 0 0.227451 0 0 0 0 0.639216 0 0 0 0.25 0"/>
<feBlend mode="normal" in2="BackgroundImageFix" result="effect1_dropShadow_877_48137"/>
<feBlend mode="normal" in="SourceGraphic" in2="effect1_dropShadow_877_48137" result="shape"/>
</filter>
</defs>
</svg>
