<svg width="408" height="444" viewBox="0 0 408 444" fill="none" xmlns="http://www.w3.org/2000/svg">
<rect x="0.980957" width="406.541" height="444" fill="url(#paint0_linear_2335_40641)"/>
<g clip-path="url(#clip0_2335_40641)">
<path d="M360.182 197.332H439.12H460.26L443.966 209.13V232.306C443.966 234.975 441.789 237.152 439.12 237.152H360.182C357.513 237.152 355.336 234.975 355.336 232.306V202.177C355.336 199.509 357.513 197.332 360.182 197.332Z" fill="#F5F5F5"/>
<path d="M364.396 213.696C364.396 213.766 379.495 213.836 398.106 213.836C416.717 213.836 431.816 213.766 431.816 213.696C431.816 213.625 416.717 213.555 398.106 213.555C379.495 213.555 364.396 213.625 364.396 213.696Z" fill="#E0E0E0"/>
<path d="M364.396 222.612C364.396 222.682 379.495 222.752 398.106 222.752C416.717 222.752 431.817 222.682 431.817 222.612C431.817 222.542 416.717 222.471 398.106 222.471C379.495 222.401 364.396 222.471 364.396 222.612Z" fill="#E0E0E0"/>
<path d="M208.205 111.935H203.499V127.596H208.205V111.935Z" fill="#E0E0E0"/>
<path d="M169.087 109.688H164.382V127.667H169.087V109.688Z" fill="#E0E0E0"/>
<path d="M178.919 105.965H174.213V127.666H178.919V105.965Z" fill="#E0E0E0"/>
<path d="M188.681 107.088H183.976V127.595H188.681V107.088Z" fill="#E0E0E0"/>
<path d="M198.443 100.206H193.737V127.666H198.443V100.206Z" fill="#E0E0E0"/>
<path d="M218.038 100.345H213.333V127.664H218.038V100.345Z" fill="#E0E0E0"/>
<path d="M227.798 109.267H223.093V127.597H227.798V109.267Z" fill="#E0E0E0"/>
<path d="M237.56 101.542H232.855V127.667H237.56V101.542Z" fill="#E0E0E0"/>
<path d="M247.323 95.6421H242.617V127.667H247.323V95.6421Z" fill="#E0E0E0"/>
<path d="M257.155 101.4H252.45V127.666H257.155V101.4Z" fill="#E0E0E0"/>
<path d="M380.478 126.19L419.175 120.29C422.405 141.57 407.587 161.656 386.377 164.957C365.097 168.187 345.012 153.369 341.711 132.159C338.551 110.88 353.299 90.7236 374.579 87.4228C377.95 86.9312 381.391 86.861 384.832 87.2121L380.478 126.19Z" fill="#EBEBEB"/>
<path d="M393.049 87.3511L388.344 117.409L417.841 111.861C417.841 111.861 413.486 95.0061 393.049 87.3511Z" fill="#E0E0E0"/>
<path d="M-14.987 199.015C-15.1275 188.411 -6.69991 179.562 3.90482 179.421C14.5095 179.281 23.2181 187.779 23.4287 198.383C23.5692 208.988 15.1416 217.837 4.53689 217.977C-5.99761 218.188 -14.7763 209.62 -14.987 199.015ZM13.4561 198.524C13.3859 193.467 9.17207 189.394 4.11551 189.464C-0.941048 189.534 -5.01439 193.748 -4.94416 198.805C-4.87393 203.861 -0.66013 207.935 4.39643 207.864C9.45298 207.864 13.5263 203.65 13.4561 198.524Z" fill="#F5F5F5"/>
<path d="M-14.9868 199.015C-15.1273 188.41 -6.69966 179.561 3.90506 179.421L4.04552 189.464C-1.01103 189.534 -5.08437 193.748 -5.01414 198.804C-4.94391 203.861 -0.730111 207.934 4.32645 207.864L4.46691 217.907C-5.99736 218.188 -14.7761 209.62 -14.9868 199.015Z" fill="#E0E0E0"/>
<path d="M2.2207 177.876C14.5812 177.666 24.4836 187.287 24.6943 199.718L12.9659 199.929C12.8957 193.959 8.33071 190.237 2.43139 190.307L2.2207 177.876Z" fill="#EBEBEB"/>
<path d="M109.815 266.716H85.3748V295.721H109.815V266.716Z" fill="#F5F5F5"/>
<path d="M86.2858 264.821H-24.0454V297.548H86.2858V264.821Z" fill="#E0E0E0"/>
<path d="M110.514 267.631H83.2644V264.892H110.514C111.286 264.892 111.918 265.524 111.918 266.296C111.918 266.999 111.286 267.631 110.514 267.631Z" fill="#E0E0E0"/>
<path d="M110.514 297.548H83.2644V294.809H110.514C111.286 294.809 111.918 295.441 111.918 296.213C111.918 296.986 111.286 297.548 110.514 297.548Z" fill="#E0E0E0"/>
<path d="M77.5772 264.821H64.5144V297.548H77.5772V264.821Z" fill="#EBEBEB"/>
<path d="M109.813 271.564C109.813 271.634 104.546 271.704 98.0145 271.704C91.4831 271.704 86.2158 271.634 86.2158 271.564C86.2158 271.494 91.4831 271.423 98.0145 271.423C104.546 271.423 109.813 271.423 109.813 271.564Z" fill="#E0E0E0"/>
<path d="M109.813 275.916C109.813 275.986 104.546 276.056 98.0145 276.056C91.4831 276.056 86.2158 275.986 86.2158 275.916C86.2158 275.845 91.4831 275.775 98.0145 275.775C104.546 275.705 109.813 275.775 109.813 275.916Z" fill="#E0E0E0"/>
<path d="M109.813 281.255C109.813 281.325 104.546 281.396 98.0145 281.396C91.4831 281.396 86.2158 281.325 86.2158 281.255C86.2158 281.185 91.4831 281.115 98.0145 281.115C104.546 281.115 109.813 281.185 109.813 281.255Z" fill="#E0E0E0"/>
<path d="M109.813 286.591C109.813 286.661 104.546 286.732 98.0145 286.732C91.4831 286.732 86.2158 286.661 86.2158 286.591C86.2158 286.521 91.4831 286.451 98.0145 286.451C104.546 286.451 109.813 286.521 109.813 286.591Z" fill="#E0E0E0"/>
<path d="M109.813 291.933C109.813 292.003 104.546 292.073 98.0145 292.073C91.4831 292.073 86.2158 292.003 86.2158 291.933C86.2158 291.863 91.4831 291.792 98.0145 291.792C104.546 291.792 109.813 291.863 109.813 291.933Z" fill="#E0E0E0"/>
<path d="M57.5613 278.305H7.90869V284.204H57.5613V278.305Z" fill="#EBEBEB"/>
<path d="M109.532 298.25H84.7405V315.948H109.532V298.25Z" fill="#FAFAFA"/>
<path d="M85.0921 297.548H-20.3933V316.51H85.0921V297.548Z" fill="#F5F5F5"/>
<path d="M84.249 298.883H110.936C111.288 298.883 111.568 298.602 111.568 298.251C111.568 297.9 111.288 297.619 110.936 297.619H84.249V298.883Z" fill="#F5F5F5"/>
<path d="M84.2485 316.509H111.217C111.357 316.509 111.498 316.368 111.498 316.228V315.526C111.498 315.385 111.357 315.245 111.217 315.245H84.2485V316.509Z" fill="#F5F5F5"/>
<path d="M109.529 301.552C109.529 301.622 104.051 301.693 97.3091 301.693C90.5671 301.693 85.0891 301.622 85.0891 301.552C85.0891 301.482 90.5671 301.412 97.3091 301.412C104.051 301.412 109.529 301.482 109.529 301.552Z" fill="#E0E0E0"/>
<path d="M109.529 304.921C109.529 304.991 104.051 305.062 97.3091 305.062C90.5671 305.062 85.0891 304.991 85.0891 304.921C85.0891 304.851 90.5671 304.781 97.3091 304.781C104.051 304.781 109.529 304.851 109.529 304.921Z" fill="#E0E0E0"/>
<path d="M109.53 308.294C109.53 308.365 104.052 308.435 97.3099 308.435C90.5678 308.435 85.0898 308.365 85.0898 308.294C85.0898 308.224 90.5678 308.154 97.3099 308.154C104.052 308.154 109.53 308.154 109.53 308.294Z" fill="#E0E0E0"/>
<path d="M109.529 311.594C109.529 311.664 104.051 311.735 97.3091 311.735C90.5671 311.735 85.0891 311.664 85.0891 311.594C85.0891 311.524 90.5671 311.454 97.3091 311.454C104.051 311.454 109.529 311.524 109.529 311.594Z" fill="#E0E0E0"/>
<path d="M113.326 318.199H88.0437V366.096H113.326V318.199Z" fill="#EBEBEB"/>
<path d="M88.042 316.51H-30.7168V368.48H88.042V316.51Z" fill="#E0E0E0"/>
<path d="M115.29 368.479H84.7402V365.108H115.29C116.203 365.108 116.976 365.881 116.976 366.794C116.976 367.777 116.203 368.479 115.29 368.479Z" fill="#E0E0E0"/>
<path d="M116.203 319.881H84.7397V316.51H116.203C116.624 316.51 116.975 316.861 116.975 317.283V319.109C116.975 319.6 116.624 319.881 116.203 319.881Z" fill="#E0E0E0"/>
<path d="M113.326 324.657C113.326 324.727 107.637 324.797 100.684 324.797C93.7314 324.797 88.0427 324.727 88.0427 324.657C88.0427 324.586 93.7314 324.516 100.684 324.516C107.637 324.516 113.326 324.586 113.326 324.657Z" fill="#E0E0E0"/>
<path d="M113.325 330.767C113.325 330.838 107.637 330.908 100.684 330.908C93.7311 330.908 88.0425 330.838 88.0425 330.767C88.0425 330.697 93.7311 330.627 100.684 330.627C107.637 330.627 113.325 330.697 113.325 330.767Z" fill="#E0E0E0"/>
<path d="M113.326 336.949C113.326 337.019 107.638 337.09 100.685 337.09C93.7323 337.09 88.0437 337.019 88.0437 336.949C88.0437 336.879 93.7323 336.809 100.685 336.809C107.638 336.809 113.326 336.879 113.326 336.949Z" fill="#E0E0E0"/>
<path d="M113.326 343.127C113.326 343.197 107.637 343.267 100.685 343.267C93.7318 343.267 88.0432 343.197 88.0432 343.127C88.0432 343.057 93.7318 342.987 100.685 342.987C107.637 342.916 113.326 342.987 113.326 343.127Z" fill="#E0E0E0"/>
<path d="M113.325 349.238C113.325 349.308 107.636 349.379 100.684 349.379C93.7309 349.379 88.0422 349.308 88.0422 349.238C88.0422 349.168 93.7309 349.098 100.684 349.098C107.636 349.098 113.325 349.168 113.325 349.238Z" fill="#E0E0E0"/>
<path d="M113.326 355.42C113.326 355.49 107.638 355.56 100.685 355.56C93.7323 355.56 88.0437 355.49 88.0437 355.42C88.0437 355.35 93.7323 355.279 100.685 355.279C107.638 355.279 113.326 355.279 113.326 355.42Z" fill="#E0E0E0"/>
<path d="M113.326 361.53C113.326 361.6 107.638 361.67 100.685 361.67C93.7323 361.67 88.0437 361.6 88.0437 361.53C88.0437 361.459 93.7323 361.389 100.685 361.389C107.638 361.389 113.326 361.459 113.326 361.53Z" fill="#E0E0E0"/>
<path d="M9.94351 345.377V348.257C9.94351 351.768 8.18777 353.735 4.81673 353.735C1.44569 353.735 -0.310059 351.768 -0.310059 348.257V336.95C-0.310059 333.438 1.44569 331.472 4.81673 331.472C8.18777 331.472 9.94351 333.438 9.94351 336.95V339.057H6.71294V336.739C6.71294 335.194 6.01064 334.562 4.95719 334.562C3.90374 334.562 3.20144 335.124 3.20144 336.739V348.467C3.20144 350.012 3.90374 350.574 4.95719 350.574C6.01064 350.574 6.71294 350.012 6.71294 348.467V345.377H9.94351Z" fill="#EBEBEB"/>
<path d="M11.7 336.95C11.7 333.438 13.5259 331.472 16.897 331.472C20.268 331.472 22.094 333.438 22.094 336.95V348.257C22.094 351.768 20.268 353.735 16.897 353.735C13.5259 353.735 11.7 351.768 11.7 348.257V336.95ZM15.1412 348.467C15.1412 350.012 15.8435 350.644 16.897 350.644C17.9504 350.644 18.6527 350.083 18.6527 348.467V336.739C18.6527 335.194 17.9504 334.562 16.897 334.562C15.8435 334.562 15.1412 335.124 15.1412 336.739V348.467Z" fill="#EBEBEB"/>
<path d="M24.2712 331.752H27.7125V350.363H33.3309V353.453H24.2712V331.752Z" fill="#EBEBEB"/>
<path d="M34.5244 336.95C34.5244 333.438 36.3504 331.472 39.7214 331.472C43.0925 331.472 44.9184 333.438 44.9184 336.95V348.257C44.9184 351.768 43.0925 353.735 39.7214 353.735C36.3504 353.735 34.5244 351.768 34.5244 348.257V336.95ZM37.9657 348.467C37.9657 350.012 38.668 350.644 39.7214 350.644C40.7749 350.644 41.4772 350.083 41.4772 348.467V336.739C41.4772 335.194 40.7749 334.562 39.7214 334.562C38.668 334.562 37.9657 335.124 37.9657 336.739V348.467Z" fill="#EBEBEB"/>
<path d="M50.3965 331.752V348.537C50.3965 350.082 51.0988 350.644 52.1523 350.644C53.2057 350.644 53.908 350.082 53.908 348.537V331.752H57.1386V348.327C57.1386 351.838 55.3828 353.805 52.0118 353.805C48.6408 353.805 46.885 351.838 46.885 348.327V331.752H50.3965Z" fill="#EBEBEB"/>
<path d="M66.6896 353.453C66.4789 352.892 66.4087 352.54 66.4087 350.785V347.343C66.4087 345.307 65.7064 344.604 64.1613 344.604H62.9674V353.453H59.5261V331.682H64.6529C68.1644 331.682 69.7095 333.297 69.7095 336.668V338.354C69.7095 340.601 69.0072 342.076 67.4621 342.778C69.1476 343.481 69.7095 345.166 69.7095 347.414V350.785C69.7095 351.838 69.7095 352.611 70.0606 353.453H66.6896ZM62.9674 334.842V341.514H64.3018C65.5659 341.514 66.3384 340.952 66.3384 339.197V337.02C66.3384 335.475 65.7766 334.772 64.5827 334.772H62.9674V334.842Z" fill="#EBEBEB"/>
<path d="M9.1733 305.064H6.64502L6.78548 304.432H12.5443L12.4039 305.064H9.94583L8.68169 311.455H7.97939L9.1733 305.064Z" fill="#E0E0E0"/>
<path d="M17.3204 306.188L13.4577 312.158C12.8256 313.141 12.334 313.492 11.5615 313.492C11.0699 313.492 10.5783 313.351 10.2974 313L10.6485 312.509C10.8592 312.719 11.2104 312.86 11.5615 312.86C11.9829 312.86 12.4043 312.649 12.7554 312.017L13.1066 311.455L11.7722 306.188H12.4745L13.5982 310.683L16.4776 306.188H17.3204Z" fill="#E0E0E0"/>
<path d="M23.2188 308.365C23.2188 310.191 21.9547 311.525 20.1989 311.525C19.2157 311.525 18.5134 311.104 18.1623 310.331L17.5302 313.422H16.8279L18.3027 306.118H19.005L18.8646 306.96C19.3562 306.399 20.0585 306.047 20.9012 306.047C22.3058 306.118 23.2188 306.96 23.2188 308.365ZM22.5165 308.435C22.5165 307.382 21.8844 306.75 20.7608 306.75C19.4264 306.75 18.4432 307.803 18.4432 309.208C18.4432 310.261 19.0752 310.823 20.1989 310.823C21.5333 310.893 22.5165 309.84 22.5165 308.435Z" fill="#E0E0E0"/>
<path d="M24.0623 309.278C24.0623 307.452 25.3264 306.118 27.1524 306.118C28.6272 306.118 29.5402 306.96 29.5402 308.365C29.5402 310.191 28.276 311.525 26.4501 311.525C25.0455 311.525 24.0623 310.612 24.0623 309.278ZM28.8379 308.435C28.8379 307.382 28.2058 306.75 27.0821 306.75C25.7478 306.75 24.7646 307.803 24.7646 309.208C24.7646 310.261 25.3966 310.823 26.5203 310.823C27.8547 310.893 28.8379 309.84 28.8379 308.435Z" fill="#E0E0E0"/>
<path d="M36.4227 306.187L35.5097 310.822C35.1585 312.718 34.1753 313.49 32.4196 313.49C31.4363 313.49 30.5936 313.21 30.0317 312.718L30.4531 312.156C30.8745 312.577 31.5768 312.858 32.4196 312.858C33.7539 312.858 34.4562 312.226 34.7371 310.962L34.8776 310.4C34.386 310.962 33.6837 311.313 32.7707 311.313C31.3661 311.313 30.4531 310.471 30.4531 309.206C30.4531 307.521 31.7173 306.187 33.473 306.187C34.4562 306.187 35.2288 306.608 35.5097 307.38L35.7204 306.187H36.4227ZM35.2288 308.293C35.2288 307.31 34.5967 306.748 33.473 306.748C32.1386 306.748 31.1554 307.732 31.1554 309.066C31.1554 310.049 31.7875 310.611 32.9112 310.611C34.2455 310.611 35.2288 309.628 35.2288 308.293Z" fill="#E0E0E0"/>
<path d="M41.1276 306.118L40.9872 306.82C40.9169 306.82 40.8467 306.82 40.7765 306.82C39.6528 306.82 38.8803 307.452 38.5993 308.786L38.0375 311.455H37.3352L38.3887 306.118H39.091L38.8803 307.101C39.3719 306.399 40.0742 306.118 41.1276 306.118Z" fill="#E0E0E0"/>
<path d="M47.1675 306.187L46.1141 311.524H45.4118L45.5523 310.681C45.0606 311.243 44.3583 311.594 43.5156 311.594C42.1812 311.594 41.198 310.751 41.198 309.347C41.198 307.521 42.4621 306.187 44.2179 306.187C45.2011 306.187 45.9034 306.608 46.2546 307.31L46.4652 306.187H47.1675ZM45.9736 308.434C45.9736 307.38 45.3416 306.748 44.2179 306.748C42.8835 306.748 41.9003 307.802 41.9003 309.206C41.9003 310.26 42.5324 310.822 43.656 310.822C45.0606 310.892 45.9736 309.838 45.9736 308.434Z" fill="#E0E0E0"/>
<path d="M54.1202 308.365C54.1202 310.191 52.856 311.525 51.1003 311.525C50.1171 311.525 49.4148 311.104 49.0636 310.331L48.4315 313.422H47.7292L49.2041 306.118H49.9064L49.7659 306.96C50.2575 306.399 50.9598 306.047 51.8026 306.047C53.137 306.118 54.1202 306.96 54.1202 308.365ZM53.3476 308.435C53.3476 307.382 52.7156 306.75 51.5919 306.75C50.2575 306.75 49.2743 307.803 49.2743 309.208C49.2743 310.261 49.9064 310.823 51.0301 310.823C52.3644 310.893 53.3476 309.84 53.3476 308.435Z" fill="#E0E0E0"/>
<path d="M60.5113 307.873C60.5113 308.084 60.5113 308.294 60.4411 308.505L59.809 311.525H59.1067L59.7388 308.505C59.7388 308.365 59.809 308.154 59.809 308.013C59.809 307.241 59.3876 306.819 58.4044 306.819C57.2807 306.819 56.5082 307.452 56.2273 308.645L55.6654 311.525H54.9631L56.438 304.01H57.1403L56.5784 306.96C57.07 306.398 57.7723 306.117 58.6151 306.117C59.809 306.117 60.5113 306.749 60.5113 307.873Z" fill="#E0E0E0"/>
<path d="M67.2535 306.188L63.3908 312.158C62.7587 313.141 62.2671 313.492 61.4946 313.492C61.003 313.492 60.5114 313.351 60.2305 313L60.5816 312.509C60.7923 312.719 61.1435 312.86 61.4946 312.86C61.916 312.86 62.2671 312.649 62.6885 312.017L63.0397 311.455L61.7053 306.188H62.4076L63.5313 310.683L66.4107 306.188H67.2535Z" fill="#E0E0E0"/>
<path d="M83.1943 87.9146H-1.78399H-24.4683L-6.91077 100.556V125.488C-6.91077 128.367 -4.59319 130.685 -1.71376 130.685H83.2645C86.1439 130.685 88.4615 128.367 88.4615 125.488V93.1116C88.4615 90.2321 86.0737 87.9146 83.1943 87.9146Z" fill="#F5F5F5"/>
<path d="M78.6998 105.471C78.6998 105.541 62.4767 105.682 42.3909 105.682C22.3754 105.682 6.08203 105.611 6.08203 105.471C6.08203 105.401 22.3052 105.26 42.3909 105.26C62.4767 105.33 78.6998 105.401 78.6998 105.471Z" fill="#E0E0E0"/>
<path d="M78.6996 115.09C78.6996 115.16 62.4764 115.301 42.3907 115.301C22.3751 115.301 6.08179 115.231 6.08179 115.09C6.08179 115.02 22.3049 114.879 42.3907 114.879C62.4764 114.879 78.6996 114.95 78.6996 115.09Z" fill="#E0E0E0"/>
<path d="M456.818 368.481C456.818 368.551 346.697 368.692 210.802 368.692C74.9775 368.692 -35.1431 368.622 -35.1431 368.481C-35.1431 368.341 74.9775 368.271 210.872 368.271C346.697 368.341 456.818 368.411 456.818 368.481Z" fill="#263238"/>
<path d="M410.604 332.664C410.604 332.664 391.994 311.244 384.971 289.824C377.948 268.403 381.248 270.862 381.248 270.862C381.248 270.862 390.729 291.65 397.963 301.763C405.197 311.735 417.979 326.484 417.979 326.484L410.604 332.664Z" fill="#455A64"/>
<path d="M416.294 328.31C416.294 328.31 416.083 328.169 415.732 327.888C415.381 327.607 414.819 327.256 414.117 326.694C412.782 325.641 410.816 324.025 408.639 321.848C404.144 317.564 398.596 310.963 393.82 302.816C388.974 294.669 385.744 286.733 383.707 280.904C382.654 277.955 381.951 275.567 381.46 273.952C381.179 273.109 381.038 272.477 380.898 272.055C380.758 271.634 380.758 271.353 380.758 271.353C380.758 271.353 380.828 271.564 380.968 271.985C381.109 272.477 381.319 273.109 381.6 273.881C382.162 275.497 382.935 277.884 383.988 280.764C386.095 286.523 389.396 294.459 394.171 302.605C398.947 310.682 404.425 317.283 408.85 321.638C411.027 323.815 412.923 325.5 414.257 326.554C414.889 327.116 415.451 327.537 415.802 327.818C416.153 328.169 416.294 328.31 416.294 328.31Z" fill="#263238"/>
<path d="M390.941 250.357C389.677 249.092 387.499 250.427 388.061 252.183C388.623 253.938 389.396 256.186 390.66 258.784C393.469 264.754 401.756 286.174 405.619 297.972C409.481 309.771 414.959 331.683 414.959 331.683L423.176 330.348C423.176 330.348 415.662 294.25 408.217 281.258C402.248 270.793 396.278 255.694 390.941 250.357Z" fill="#455A64"/>
<path d="M418.964 330.91C418.964 330.91 418.964 330.84 418.894 330.699C418.894 330.559 418.823 330.348 418.823 330.067C418.753 329.505 418.683 328.663 418.472 327.539C418.191 325.362 417.629 322.272 416.717 318.409C415.804 314.617 414.539 310.122 412.854 305.206C411.168 300.29 409.061 295.022 406.603 289.545C401.758 278.659 396.912 268.967 393.681 261.804C392.066 258.222 390.802 255.343 390.029 253.306C389.608 252.323 389.327 251.48 389.116 250.988C389.046 250.707 388.976 250.567 388.905 250.356C388.835 250.216 388.835 250.146 388.835 250.146C388.835 250.146 388.905 250.216 388.976 250.356C389.046 250.497 389.116 250.707 389.257 250.988C389.467 251.55 389.818 252.323 390.24 253.306C391.083 255.343 392.417 258.222 394.032 261.733C397.263 268.827 402.179 278.518 407.025 289.474C409.413 294.952 411.519 300.219 413.205 305.136C414.891 310.052 416.155 314.546 416.997 318.409C417.84 322.272 418.332 325.362 418.613 327.539C418.753 328.592 418.823 329.505 418.894 330.067C418.894 330.348 418.964 330.559 418.964 330.699C418.964 330.84 418.964 330.91 418.964 330.91Z" fill="#263238"/>
<path d="M429.777 329.083H401.194V368.342H429.777V329.083Z" fill="#663AA3"/>
<path d="M11.0677 315.458C5.58974 311.946 -1.9951 311.876 -7.33257 315.598C-12.3891 319.11 -14.9876 325.571 -14.7769 331.751C-14.5663 337.931 -11.5464 345.516 -5.92798 348.747L10.5058 348.677C15.7731 344.814 19.2846 338.634 19.5655 332.102C19.7762 325.571 16.5456 318.969 11.0677 315.458Z" fill="#455A64"/>
<path d="M2.99153 349.38C2.9213 349.38 2.9213 348.888 2.9213 347.975C2.9213 346.992 2.85107 345.657 2.78084 344.112C2.71061 340.882 2.57015 336.387 2.35946 331.401C2.14877 326.414 1.86785 321.92 1.65716 318.689C1.58693 317.144 1.5167 315.88 1.44647 314.826C1.37624 313.913 1.37624 313.422 1.44647 313.422C1.5167 313.422 1.58693 313.913 1.65716 314.826C1.79762 315.739 1.93808 317.074 2.07854 318.689C2.35946 321.92 2.71061 326.414 2.9213 331.401C3.13199 336.387 3.20222 340.882 3.20222 344.112C3.20222 345.728 3.20222 347.062 3.13199 347.975C3.06176 348.818 2.99153 349.38 2.99153 349.38Z" fill="#263238"/>
<path d="M4.88776 310.965C5.02822 311.035 4.95799 311.597 4.67707 312.299C4.46638 313.002 4.11523 313.493 3.97477 313.423C3.83431 313.353 3.90454 312.791 4.18546 312.089C4.46638 311.457 4.7473 310.895 4.88776 310.965Z" fill="#263238"/>
<path d="M10.5062 313.352C10.5765 313.492 10.2253 313.984 9.7337 314.476C9.17186 314.967 8.68025 315.318 8.61002 315.178C8.53979 315.038 8.89094 314.546 9.38255 314.054C9.87416 313.563 10.3658 313.282 10.5062 313.352Z" fill="#263238"/>
<path d="M15.4217 316.512C15.492 316.653 15.0706 317.074 14.4385 317.495C13.8064 317.917 13.2446 318.127 13.1744 318.057C13.1041 317.917 13.5255 317.495 14.1576 317.074C14.7194 316.653 15.2813 316.372 15.4217 316.512Z" fill="#263238"/>
<path d="M18.8635 321.219C18.9337 321.359 18.2314 321.781 17.3185 322.132C16.4055 322.483 15.6329 322.694 15.5627 322.624C15.4925 322.483 16.1948 322.062 17.1078 321.711C18.0208 321.289 18.7933 321.149 18.8635 321.219Z" fill="#263238"/>
<path d="M20.268 326.415C20.268 326.556 19.5657 326.767 18.723 326.907C17.81 327.047 17.1077 326.977 17.1077 326.837C17.1077 326.696 17.81 326.486 18.6527 326.345C19.4955 326.205 20.1978 326.275 20.268 326.415Z" fill="#263238"/>
<path d="M20.9696 332.736C20.8994 332.877 20.1971 332.666 19.2841 332.315C18.4414 331.964 17.7391 331.542 17.8093 331.402C17.8795 331.261 18.5818 331.472 19.4948 331.823C20.3376 332.174 21.0399 332.596 20.9696 332.736Z" fill="#263238"/>
<path d="M20.3397 338.212C20.2695 338.352 19.3565 338.142 18.3733 337.439C17.3901 336.807 16.8282 336.035 16.8985 335.964C17.0389 335.894 17.7412 336.456 18.6542 337.018C19.5672 337.58 20.41 338.071 20.3397 338.212Z" fill="#263238"/>
<path d="M17.5288 343.13C17.4586 343.27 16.6861 342.778 15.9838 342.006C15.2815 341.233 14.8601 340.461 15.0005 340.391C15.141 340.32 15.7028 340.952 16.4051 341.655C17.0372 342.427 17.5991 342.989 17.5288 343.13Z" fill="#263238"/>
<path d="M7.06541 324.73C7.13564 324.87 6.64403 325.292 6.01196 325.713C5.37989 326.134 4.74782 326.415 4.67759 326.275C4.60736 326.135 5.09897 325.713 5.73104 325.292C6.43334 324.87 6.99518 324.589 7.06541 324.73Z" fill="#263238"/>
<path d="M7.83687 331.682C7.83687 331.822 7.34526 332.033 6.71319 332.173C6.08112 332.314 5.51929 332.314 5.51929 332.173C5.51929 332.033 6.0109 331.822 6.64297 331.682C7.27503 331.541 7.76665 331.541 7.83687 331.682Z" fill="#263238"/>
<path d="M8.68029 339.546C8.61006 339.687 7.90776 339.476 7.065 339.125C6.22224 338.774 5.6604 338.352 5.6604 338.212C5.73063 338.072 6.43293 338.282 7.27569 338.633C8.11845 338.984 8.75052 339.406 8.68029 339.546Z" fill="#263238"/>
<path d="M6.85449 347.203C6.71403 347.273 6.29265 346.922 5.80104 346.36C5.30943 345.798 5.02851 345.307 5.16897 345.166C5.30943 345.096 5.73081 345.447 6.22242 346.009C6.71403 346.571 6.99495 347.133 6.85449 347.203Z" fill="#263238"/>
<path d="M6.5031 319.53C6.57333 319.671 6.29241 320.022 5.73057 320.303C5.23896 320.584 4.74735 320.584 4.67712 320.443C4.60689 320.303 5.02827 320.092 5.51988 319.811C6.01149 319.601 6.43287 319.46 6.5031 319.53Z" fill="#263238"/>
<path d="M13.1057 326.624C13.1759 326.764 12.5439 327.115 11.7011 327.185C10.8584 327.326 10.1561 327.115 10.2263 326.975C10.2263 326.834 10.8584 326.764 11.6309 326.624C12.4034 326.553 13.0355 326.483 13.1057 326.624Z" fill="#263238"/>
<path d="M11.7701 320.305C11.8404 320.446 11.2083 320.867 10.3655 321.148C9.52278 321.429 8.75024 321.429 8.75024 321.289C8.75024 321.148 9.38231 320.938 10.2251 320.657C11.0678 320.376 11.6999 320.165 11.7701 320.305Z" fill="#263238"/>
<path d="M14.5091 336.387C14.5091 336.527 13.4556 336.598 12.1915 336.387C10.9274 336.176 10.0144 335.685 10.0846 335.614C10.1548 335.474 11.138 335.685 12.332 335.895C13.5259 336.106 14.5091 336.246 14.5091 336.387Z" fill="#263238"/>
<path d="M12.05 345.589C11.9798 345.729 11.2073 345.238 10.4347 344.465C9.66219 343.692 9.24081 342.92 9.31104 342.85C9.4515 342.779 10.0133 343.341 10.7859 344.114C11.5584 344.886 12.1905 345.448 12.05 345.589Z" fill="#263238"/>
<path d="M1.30569 312.789C1.37592 312.929 -0.801208 313.772 -3.25926 316.441C-5.78753 319.039 -8.38604 323.604 -9.01811 329.082C-9.29903 331.821 -9.08834 334.49 -8.66696 336.807C-8.24558 339.195 -7.68375 341.302 -7.19214 343.058C-6.70053 344.813 -6.20892 346.218 -5.928 347.201C-5.64708 348.184 -5.43639 348.746 -5.50662 348.746C-5.50662 348.746 -5.78754 348.255 -6.13869 347.271C-6.48984 346.288 -7.05168 344.954 -7.54329 343.198C-8.10512 341.442 -8.66697 339.335 -9.08834 336.948C-9.50972 334.56 -9.79064 331.891 -9.50972 329.012C-8.87765 323.393 -6.13869 318.688 -3.54018 316.16C-2.20581 314.825 -1.0119 313.982 -0.0989084 313.491C0.322472 313.21 0.743852 313.07 0.954541 312.929C1.16523 312.859 1.30569 312.789 1.30569 312.789Z" fill="#263238"/>
<path d="M8.47017 349.099C8.32971 349.029 9.66408 347.063 10.858 343.481C12.0519 339.969 13.1053 334.702 12.2626 329.013C11.9114 326.204 11.0687 323.535 10.0152 321.288C8.96178 319.041 7.55718 317.215 6.22281 315.951C4.81821 314.687 3.41361 313.984 2.50062 313.563C1.5174 313.141 0.955566 313.071 0.955566 313.001C0.955566 313.001 1.09603 313.001 1.37695 313.001C1.65786 313.071 2.07925 313.141 2.57085 313.352C3.55407 313.703 5.0289 314.406 6.50373 315.599C7.90833 316.864 9.38316 318.69 10.5068 321.007C11.5603 323.325 12.4733 325.994 12.8244 328.873C13.6672 334.702 12.5435 340.04 11.2794 343.551C10.9984 344.464 10.5771 345.237 10.2961 345.939C9.945 346.641 9.66408 347.203 9.45339 347.695C8.82132 348.608 8.47017 349.099 8.47017 349.099Z" fill="#263238"/>
<path d="M-11.8259 347.834H17.0386L17.2493 353.663H-11.8259V347.834Z" fill="#663AA3"/>
<path d="M-9.36865 350.714L-7.75336 368.412H13.3859L15.0714 350.925L-9.36865 350.714Z" fill="#663AA3"/>
<path d="M17.2498 353.733C17.2498 353.874 10.7184 354.014 2.71216 354.014C-5.29405 354.014 -11.8254 353.874 -11.8254 353.733C-11.8254 353.593 -5.29405 353.452 2.71216 353.452C10.7184 353.452 17.2498 353.593 17.2498 353.733Z" fill="#263238"/>
<path d="M14.2987 359.071C14.2987 359.071 14.1582 359.492 13.6666 360.194C13.2453 360.897 12.4727 361.81 11.4193 362.863L11.2788 363.004L11.1384 362.863C9.73376 361.388 7.83755 359.633 5.44973 357.877H5.80088C5.02835 358.579 4.18559 359.352 3.2726 360.054C2.21915 360.967 1.23593 361.81 0.322943 362.653L0.182483 362.793L0.0420218 362.653C-1.78396 361.107 -3.39924 359.773 -4.80384 358.579H-4.52293C-5.50615 359.773 -6.3489 360.827 -7.0512 361.599C-7.68327 362.301 -8.03442 362.723 -8.03442 362.653C-8.03442 362.653 -7.7535 362.231 -7.26189 361.459C-6.62982 360.616 -5.85729 359.562 -4.87408 358.298L-4.73361 358.158L-4.59315 358.298C-3.18856 359.422 -1.50304 360.756 0.322943 362.301H-0.0282068C0.884783 361.459 1.93823 360.616 2.92145 359.703C3.76421 358.93 4.60697 358.228 5.44973 357.526L5.59019 357.385L5.73065 357.526C8.11847 359.281 10.0147 361.107 11.349 362.653H11.0681C13.3155 360.616 14.2285 359.001 14.2987 359.071Z" fill="#263238"/>
<path d="M361.798 363.571H55.6654C50.047 363.571 45.4119 359.006 45.4119 353.318V157.798C45.4119 152.179 49.9768 147.544 55.6654 147.544H361.798C367.416 147.544 372.051 152.109 372.051 157.798V353.318C372.051 359.006 367.486 363.571 361.798 363.571Z" fill="#455A64"/>
<path d="M376.122 368.485H47.2353C40.3528 368.485 34.7344 362.867 34.7344 355.984V349.593H388.623V355.984C388.623 362.937 383.005 368.485 376.122 368.485Z" fill="#455A64"/>
<path d="M176.529 347.559L180.954 354.582H242.686L246.829 347.559H176.529Z" fill="#263238"/>
<path d="M369.241 347.558C369.241 347.699 296.764 347.769 207.361 347.769C117.958 347.769 45.481 347.699 45.481 347.558C45.481 347.418 117.958 347.348 207.361 347.348C296.764 347.348 369.241 347.488 369.241 347.558Z" fill="#263238"/>
<path d="M359.128 341.863H57.0691C55.8049 341.863 54.7515 340.809 54.7515 339.545V162.285C54.7515 161.021 55.8049 159.967 57.0691 159.967H359.128C360.392 159.967 361.446 161.021 361.446 162.285V339.545C361.375 340.88 360.392 341.863 359.128 341.863Z" fill="#EBEBEB"/>
<path d="M361.092 342.144H54.4685L54.7494 173.592H361.092V342.144Z" fill="white"/>
<path d="M79.9625 166.995C79.9625 168.329 78.8388 169.453 77.5044 169.453C76.1701 169.453 75.0464 168.329 75.0464 166.995C75.0464 165.66 76.1701 164.537 77.5044 164.537C78.8388 164.537 79.9625 165.66 79.9625 166.995Z" fill="#263238"/>
<path d="M65.0743 166.995C65.0743 168.329 63.9506 169.453 62.6163 169.453C61.2819 169.453 60.1582 168.329 60.1582 166.995C60.1582 165.66 61.2819 164.537 62.6163 164.537C64.0209 164.607 65.0743 165.66 65.0743 166.995Z" fill="#263238"/>
<path d="M72.2369 166.995C72.2369 168.329 71.1132 169.453 69.7788 169.453C68.4445 169.453 67.3208 168.329 67.3208 166.995C67.3208 165.66 68.4445 164.537 69.7788 164.537C71.1132 164.607 72.2369 165.66 72.2369 166.995Z" fill="#263238"/>
<path d="M361.445 325.854H54.4702V342.147H361.445V325.854Z" fill="#263238"/>
<path d="M66.0592 335.896V336.388H63.6012V335.967L64.9355 334.703C65.2867 334.422 65.2867 334.211 65.2867 334C65.2867 333.719 65.076 333.509 64.6546 333.509C64.3035 333.509 64.0928 333.649 63.8821 333.86L63.4607 333.509C63.7416 333.157 64.163 332.947 64.7248 332.947C65.4271 332.947 65.9187 333.298 65.9187 333.93C65.9187 334.281 65.8485 334.562 65.3569 334.983L64.4439 335.826H66.0592V335.896Z" fill="white"/>
<path d="M66.4106 334.281C66.4106 334.07 66.5511 333.859 66.832 333.859C67.0427 333.859 67.2534 334 67.2534 334.281C67.2534 334.491 67.1129 334.702 66.832 334.702C66.5511 334.632 66.4106 334.491 66.4106 334.281ZM66.4106 336.037C66.4106 335.826 66.5511 335.615 66.832 335.615C67.0427 335.615 67.2534 335.756 67.2534 336.037C67.2534 336.247 67.1129 336.458 66.832 336.458C66.5511 336.458 66.4106 336.247 66.4106 336.037Z" fill="white"/>
<path d="M68.7282 333.087V336.388H68.0961V333.579H67.3938V333.087H68.7282Z" fill="white"/>
<path d="M72.3098 335.685H71.7479V336.458H71.1861V335.685H69.3601V335.264L70.9754 333.157H71.6075L70.0624 335.193H71.1159V334.491H71.6777V335.193H72.2395V335.685H72.3098Z" fill="white"/>
<path d="M329.281 334.35H77.717V335.474H329.281V334.35Z" fill="white"/>
<path d="M156.164 333.086H77.5769V336.177H156.164V333.086Z" fill="#FF725E"/>
<path d="M158.691 334.913C158.691 337.02 157.006 338.776 154.829 338.776C152.722 338.776 150.966 337.09 150.966 334.913C150.966 332.806 152.652 331.05 154.829 331.05C157.006 331.05 158.691 332.806 158.691 334.913Z" fill="#FF725E"/>
<path d="M335.671 334.842C335.671 335.474 335.109 335.895 334.477 335.895C333.564 335.895 333.072 335.333 333.072 334.28C333.072 333.156 333.704 332.524 334.688 332.524C335.039 332.524 335.32 332.594 335.53 332.735L335.32 333.226C335.109 333.086 334.898 333.086 334.688 333.086C334.055 333.086 333.634 333.507 333.634 334.209C333.845 333.999 334.126 333.858 334.547 333.858C335.179 333.858 335.671 334.28 335.671 334.842ZM335.039 334.912C335.039 334.561 334.758 334.35 334.407 334.35C333.985 334.35 333.704 334.561 333.704 334.912C333.704 335.193 333.985 335.474 334.407 335.474C334.828 335.474 335.039 335.263 335.039 334.912Z" fill="white"/>
<path d="M335.952 333.717C335.952 333.507 336.092 333.296 336.373 333.296C336.584 333.296 336.794 333.436 336.794 333.717C336.794 333.928 336.654 334.139 336.373 334.139C336.162 334.139 335.952 333.928 335.952 333.717ZM335.952 335.543C335.952 335.333 336.092 335.122 336.373 335.122C336.584 335.122 336.794 335.262 336.794 335.543C336.794 335.754 336.654 335.965 336.373 335.965C336.162 335.894 335.952 335.754 335.952 335.543Z" fill="white"/>
<path d="M337.146 334.209C337.146 333.086 337.707 332.524 338.55 332.524C339.323 332.524 339.955 333.156 339.955 334.209C339.955 335.333 339.393 335.895 338.55 335.895C337.707 335.965 337.146 335.333 337.146 334.209ZM339.252 334.209C339.252 333.437 338.972 333.016 338.48 333.016C338.059 333.016 337.707 333.367 337.707 334.209C337.707 334.982 337.988 335.403 338.48 335.403C338.972 335.403 339.252 335.052 339.252 334.209Z" fill="white"/>
<path d="M340.306 334.209C340.306 333.086 340.868 332.524 341.711 332.524C342.483 332.524 343.115 333.156 343.115 334.209C343.115 335.333 342.553 335.895 341.711 335.895C340.938 335.965 340.306 335.333 340.306 334.209ZM342.483 334.209C342.483 333.437 342.202 333.016 341.711 333.016C341.289 333.016 340.938 333.367 340.938 334.209C340.938 334.982 341.219 335.403 341.711 335.403C342.132 335.403 342.483 335.052 342.483 334.209Z" fill="white"/>
<path d="M348.453 333.999H347.33V330.698H350.63V331.892H348.453V333.999Z" fill="white"/>
<path d="M350.63 338.354H347.33V335.053H348.453V337.23H350.63V338.354Z" fill="white"/>
<path d="M355.898 338.354H352.597V337.23H354.704V335.053H355.898V338.354Z" fill="white"/>
<path d="M355.898 333.999H354.704V331.892H352.597V330.698H355.898V333.999Z" fill="white"/>
<path d="M96.5382 183.637H78.4189L69.4294 199.298L78.4189 214.889H96.5382L105.528 199.298L96.5382 183.637Z" fill="#EBEBEB"/>
<path d="M79.8937 202.317C79.1212 201.404 78.2784 200.491 77.7166 199.438C77.1547 198.385 76.8036 197.191 76.9441 195.997C77.0845 195.294 77.3654 194.662 77.3654 193.96C77.4357 192.977 77.0143 191.994 77.3654 191.081C77.9273 189.676 79.8235 189.465 80.9472 188.482C81.8602 187.71 82.2815 186.516 83.2648 185.813C84.1075 185.252 85.2312 185.252 86.2846 185.392C87.3381 185.532 88.3213 185.813 89.3748 185.673C90.0771 185.603 90.7794 185.252 91.4817 185.111C92.184 184.9 92.9565 184.9 93.6588 185.252C94.2908 185.603 94.642 186.516 94.2206 187.148C95.4145 186.586 96.8894 187.499 97.2405 188.763C97.5917 190.027 96.8894 191.362 95.9061 192.204C94.9229 193.047 93.5886 193.398 92.3244 193.679C88.6725 194.381 84.7396 193.96 81.6495 191.994" fill="#263238"/>
<path d="M96.6784 206.179C96.538 203.932 95.9059 199.367 95.3441 195.224C94.712 190.729 90.7089 187.568 86.2142 187.849H85.7928C81.0171 188.481 78.84 192.906 79.5423 197.682L80.9469 214.888H92.6753L92.3944 211.868C92.3242 211.868 96.8891 210.815 96.6784 206.179Z" fill="#FFBE9D"/>
<path d="M92.3209 211.8C92.3209 211.8 89.4414 212.221 86.1406 210.465C86.1406 210.465 87.8262 213.696 92.3911 212.994L92.3209 211.8Z" fill="#EB996E"/>
<path d="M93.8013 199.159C93.8716 199.51 93.5907 199.791 93.2395 199.861C92.8884 199.931 92.5372 199.65 92.5372 199.299C92.467 198.948 92.7479 198.667 93.099 198.597C93.4502 198.597 93.8013 198.807 93.8013 199.159Z" fill="#263238"/>
<path d="M94.4332 197.544C94.3629 197.614 93.8011 197.263 93.0988 197.333C92.3965 197.404 91.9049 197.755 91.8347 197.685C91.7644 197.614 91.8347 197.474 92.1156 197.333C92.3263 197.123 92.6774 196.982 93.169 196.912C93.5904 196.912 94.0118 197.053 94.2225 197.193C94.4332 197.333 94.5034 197.474 94.4332 197.544Z" fill="#263238"/>
<path d="M87.055 199.642C87.1252 199.993 86.8443 200.274 86.4932 200.344C86.142 200.414 85.7909 200.134 85.7909 199.782C85.7206 199.431 86.0016 199.15 86.3527 199.08C86.7039 199.08 87.055 199.291 87.055 199.642Z" fill="#263238"/>
<path d="M87.4825 198.177C87.4123 198.247 86.8504 197.966 86.1481 197.966C85.4458 198.036 84.9542 198.387 84.884 198.317C84.8137 198.247 84.884 198.106 85.1649 197.966C85.3756 197.755 85.7267 197.615 86.2183 197.544C86.6397 197.544 87.0611 197.685 87.2718 197.825C87.4123 197.966 87.4825 198.106 87.4825 198.177Z" fill="#263238"/>
<path d="M90.4322 203.223C90.4322 203.153 90.8535 203.083 91.5558 202.942C91.7665 202.942 91.907 202.872 91.907 202.731C91.907 202.591 91.8367 202.38 91.7665 202.17C91.5558 201.748 91.3451 201.257 91.1345 200.835C90.2215 198.939 89.5894 197.324 89.6596 197.324C89.7298 197.324 90.5024 198.799 91.4154 200.765C91.6261 201.257 91.8368 201.678 92.0474 202.099C92.1177 202.31 92.2581 202.521 92.1879 202.802C92.1177 202.942 92.0474 203.083 91.907 203.083C91.7665 203.153 91.6963 203.153 91.6261 203.153C90.8535 203.223 90.4322 203.293 90.4322 203.223Z" fill="#263238"/>
<path d="M87.4759 195.361C87.4057 195.571 86.7034 195.501 85.8606 195.641C85.0179 195.782 84.3858 196.063 84.2453 195.922C84.1751 195.852 84.3155 195.641 84.5262 195.431C84.8072 195.22 85.2285 195.009 85.7202 194.939C86.2118 194.869 86.7034 194.869 86.9843 195.009C87.3354 195.08 87.4759 195.22 87.4759 195.361Z" fill="#263238"/>
<path d="M94.0797 195.502C93.9392 195.642 93.4476 195.502 92.8858 195.572C92.3239 195.572 91.8323 195.783 91.6919 195.572C91.6216 195.502 91.6919 195.291 91.9025 195.15C92.1132 195.01 92.4644 194.87 92.8858 194.799C93.3072 194.799 93.6583 194.94 93.869 195.08C94.0094 195.221 94.0797 195.431 94.0797 195.502Z" fill="#263238"/>
<path d="M80.1016 201.047C80.0314 201.047 76.871 200.345 77.1519 203.505C77.4329 206.666 80.8741 205.612 80.8741 205.542C80.8741 205.472 80.1016 201.047 80.1016 201.047Z" fill="#FFBE9D"/>
<path d="M79.4736 204.497C79.4736 204.497 79.4033 204.567 79.3331 204.567C79.2629 204.637 79.1224 204.637 78.9117 204.637C78.5606 204.567 78.2094 204.075 78.1392 203.443C78.069 203.162 78.1392 202.881 78.2094 202.671C78.2796 202.46 78.4201 202.249 78.5606 202.179C78.701 202.109 78.8415 202.179 78.9117 202.319C78.9819 202.39 78.982 202.46 78.982 202.46C78.982 202.46 79.0522 202.39 78.982 202.249C78.982 202.179 78.9117 202.109 78.8415 202.038C78.7713 201.968 78.6308 201.968 78.5606 201.968C78.3499 202.038 78.1392 202.249 77.9987 202.53C77.9285 202.811 77.8583 203.092 77.9285 203.443C77.9987 204.075 78.4201 204.637 78.8415 204.707C79.0522 204.777 79.2629 204.637 79.3331 204.567C79.4736 204.567 79.4736 204.497 79.4736 204.497Z" fill="#EB996E"/>
<path d="M95.064 190.87C94.8533 192.134 92.325 193.258 90.1479 193.187C88.1815 193.117 87.1983 192.134 85.7937 191.502C84.8807 191.08 84.8807 191.08 83.6868 191.291C82.7035 191.432 82.2119 192.626 81.6501 193.468C82.7035 195.786 82.2822 198.455 81.8608 200.913C81.7906 201.194 81.7203 201.474 81.5096 201.685C81.1585 201.966 80.5966 201.826 80.2455 201.474C79.6837 200.983 79.4027 200.21 79.2623 199.438C78.8409 197.752 78.7004 195.997 78.9814 194.311C79.2623 192.626 79.9646 190.94 81.0883 189.676C82.5631 188.061 84.67 187.148 86.8471 187.077C89.0242 186.937 91.2014 187.639 92.9571 188.833C93.7999 189.325 94.5724 190.027 95.064 190.87Z" fill="#263238"/>
<path d="M90.8495 204.846C90.2877 204.565 89.7961 204.355 89.2342 204.074C89.164 204.003 89.0235 204.003 88.9533 204.003C88.8128 204.003 88.7426 204.074 88.6724 204.214C88.3212 204.635 88.1808 205.338 88.4617 205.829C88.7426 206.321 89.4449 206.602 90.0068 206.391C90.5686 206.181 90.8495 205.548 90.8495 204.846Z" fill="#EB996E"/>
<path d="M90.0772 206.532C90.0772 206.532 89.726 206.813 89.1642 206.602C88.8833 206.532 88.5321 206.321 88.3214 205.9C88.1108 205.549 88.0405 205.057 88.181 204.565C88.2512 204.355 88.3917 204.144 88.6024 204.004C88.6726 203.933 88.7428 203.863 88.8833 203.793C88.9535 203.723 89.2344 203.723 89.3047 203.793C89.6558 204.004 89.9367 204.144 90.1474 204.355C90.639 204.636 90.9199 204.917 90.8497 204.917C90.8497 204.987 90.4986 204.846 90.007 204.565C89.726 204.425 89.4451 204.285 89.1642 204.144C89.094 204.144 89.094 204.144 89.0237 204.144C88.9535 204.214 88.8833 204.214 88.8131 204.285C88.6726 204.425 88.6024 204.565 88.5321 204.776C88.3917 205.127 88.4619 205.478 88.6024 205.83C88.7428 206.11 89.0237 206.321 89.2344 206.462C89.726 206.602 90.0772 206.462 90.0772 206.532Z" fill="#263238"/>
<path d="M89.5855 199.297C89.5153 199.297 89.5855 199.016 89.445 198.525C89.3046 198.033 88.9534 197.331 88.2511 196.769C87.5488 196.207 86.3549 195.926 85.2312 196.348C84.1076 196.699 83.1946 197.893 83.1946 199.297C83.1946 200.702 84.1076 201.826 85.2312 202.247C86.3549 202.668 87.4786 202.388 88.2511 201.826C88.9534 201.264 89.3046 200.562 89.445 200.07C89.5153 199.578 89.5153 199.297 89.5855 199.297C89.5855 199.297 89.5855 199.368 89.5855 199.508C89.5855 199.649 89.5855 199.859 89.5153 200.14C89.445 200.632 89.0939 201.404 88.3214 202.036C87.5488 202.668 86.2847 203.02 85.0908 202.598C83.8266 202.177 82.7732 200.913 82.7732 199.368C82.7732 197.823 83.8266 196.488 85.0908 196.137C86.3549 195.716 87.6191 196.067 88.3214 196.699C89.0939 197.331 89.445 198.104 89.5153 198.595C89.5855 198.876 89.5855 199.087 89.5855 199.227C89.5855 199.157 89.5855 199.297 89.5855 199.297Z" fill="#263238"/>
<path d="M97.4516 198.946C97.3814 198.946 97.4516 198.665 97.3112 198.174C97.1707 197.682 96.8196 196.98 96.1173 196.488C95.415 195.926 94.2913 195.645 93.2378 196.067C92.1844 196.418 91.2012 197.612 91.2714 198.946C91.2714 200.281 92.1844 201.404 93.2378 201.826C94.2913 202.247 95.4852 201.966 96.1173 201.404C96.8196 200.913 97.1707 200.21 97.3112 199.719C97.3814 199.227 97.3814 198.946 97.4516 198.946C97.4516 198.946 97.4516 199.017 97.4516 199.157C97.4516 199.297 97.4516 199.508 97.3814 199.719C97.3112 200.21 96.96 200.983 96.1875 201.545C95.4852 202.177 94.2211 202.528 93.0271 202.036C91.8332 201.615 90.7798 200.351 90.7798 198.876C90.7798 197.401 91.8332 196.067 93.0271 195.716C94.2211 195.294 95.4852 195.645 96.1875 196.207C96.96 196.839 97.2409 197.542 97.3814 198.033C97.4516 198.314 97.4516 198.525 97.4516 198.595C97.4516 198.876 97.4516 198.946 97.4516 198.946Z" fill="#263238"/>
<path d="M90.9902 198.245C90.92 198.315 90.6391 198.104 90.2177 198.104C89.7963 198.104 89.5154 198.315 89.4452 198.245C89.3749 198.174 89.6559 197.753 90.2177 197.753C90.7795 197.753 91.1307 198.174 90.9902 198.245Z" fill="#263238"/>
<path d="M83.1248 198.805C83.195 198.875 82.563 199.437 81.7202 200.069C80.8775 200.701 80.1752 201.123 80.1049 201.052C80.0347 200.982 80.6668 200.42 81.5095 199.788C82.3523 199.156 83.1248 198.735 83.1248 198.805Z" fill="#263238"/>
<path d="M148.368 199.088C148.368 199.158 140.221 199.298 130.248 199.298C120.206 199.298 112.129 199.228 112.129 199.088C112.129 198.947 120.276 198.877 130.248 198.877C140.221 198.947 148.368 199.017 148.368 199.088Z" fill="#263238"/>
<path d="M131.583 202.88C131.583 202.95 127.299 203.09 121.962 203.09C116.624 203.09 112.34 203.02 112.34 202.88C112.34 202.739 116.624 202.669 121.962 202.669C127.229 202.739 131.583 202.809 131.583 202.88Z" fill="#263238"/>
<path d="M257.876 227.184C257.876 227.184 267.498 231.889 270.939 244.039C274.38 256.189 284.704 287.793 284.704 287.793C284.704 287.793 290.603 294.745 291.235 299.942C291.867 305.139 290.603 317.57 288.707 319.958C286.811 322.275 284.072 321.924 284.072 321.924L259.14 319.536L249.308 253.731L257.876 227.184Z" fill="#663AA3"/>
<path d="M175.356 225.99C175.356 225.99 157.517 231.608 153.093 236.454L167.701 304.437L167.49 325.857H252.047C252.047 324.803 252.819 254.644 252.819 254.644L257.876 227.113L227.817 221.846L221.918 217.211L188.489 218.896L183.432 223.953L175.356 225.99Z" fill="#663AA3"/>
<g opacity="0.3">
<path opacity="0.3" d="M182.098 284.982C181.817 284.42 181.466 283.788 180.834 283.647C179.78 283.437 179.148 284.631 178.797 285.614C176.058 293.409 172.406 300.573 167.701 307.315L167.49 317.779C172.406 313.636 177.252 309.211 180.413 303.593C183.573 297.904 184.767 290.881 182.098 284.982Z" fill="black"/>
</g>
<path d="M153.023 236.454C153.023 236.454 147.124 244.46 144.736 249.727C142.278 254.924 122.052 298.888 120.858 303.453C119.664 308.018 116.503 322.275 125.774 325.575H144.736L163.838 287.019L164.822 242.212L153.023 236.454Z" fill="#663AA3"/>
<path d="M145.929 297.694C145.929 297.694 145.508 297.343 144.665 296.851C143.822 296.36 142.418 295.798 140.662 295.377C139.819 295.166 138.836 295.025 137.783 294.955C136.729 294.885 135.605 294.885 134.482 295.166C132.164 295.657 129.917 297.132 128.091 299.169C126.265 301.206 125.141 303.593 124.439 305.911C123.737 308.229 123.456 310.336 123.315 312.162C123.104 313.988 123.104 315.392 123.034 316.446C123.034 316.937 122.964 317.288 122.964 317.639C122.964 317.92 122.894 318.061 122.894 318.061C122.894 318.061 122.894 317.92 122.894 317.639C122.894 317.359 122.894 316.937 122.894 316.446C122.894 315.462 122.964 313.988 123.104 312.162C123.245 310.336 123.526 308.158 124.158 305.841C124.79 303.523 125.984 301.065 127.81 298.958C129.636 296.851 132.024 295.377 134.412 294.885C135.605 294.604 136.799 294.604 137.853 294.674C138.906 294.745 139.889 294.955 140.802 295.166C142.558 295.587 143.963 296.219 144.806 296.711C145.227 296.992 145.578 297.203 145.719 297.413C145.859 297.624 145.929 297.694 145.929 297.694Z" fill="#263238"/>
<path d="M136.94 290.039C136.94 290.039 137.151 289.969 137.573 289.969C137.994 289.899 138.626 289.899 139.328 289.969C140.101 289.969 140.944 290.11 141.927 290.32C142.91 290.531 143.893 290.882 144.947 291.374C146 291.865 146.913 292.427 147.686 293.059C148.458 293.691 149.09 294.253 149.582 294.815C150.073 295.377 150.425 295.868 150.706 296.22C150.916 296.571 151.057 296.781 151.057 296.781C150.986 296.852 150.495 296.079 149.441 295.026C148.95 294.464 148.247 293.902 147.475 293.34C146.702 292.778 145.789 292.217 144.806 291.725C143.823 291.233 142.77 290.882 141.857 290.671C140.944 290.461 140.031 290.25 139.328 290.25C137.853 290.039 136.94 290.11 136.94 290.039Z" fill="#263238"/>
<path d="M154.147 287.933C154.147 287.933 153.796 287.933 153.234 287.863C152.672 287.793 151.829 287.722 150.846 287.652C148.809 287.512 146.07 287.442 142.98 287.793C139.89 288.144 137.221 288.846 135.325 289.478C134.342 289.759 133.569 290.04 133.078 290.251C132.516 290.461 132.235 290.532 132.235 290.532C132.235 290.532 132.516 290.391 133.008 290.11C133.499 289.9 134.272 289.548 135.255 289.197C137.151 288.495 139.89 287.793 142.98 287.371C146.07 287.02 148.88 287.09 150.916 287.301C151.899 287.442 152.742 287.512 153.304 287.652C153.796 287.793 154.147 287.863 154.147 287.933Z" fill="#263238"/>
<path d="M208.225 250.36C208.225 250.36 208.154 250.29 208.014 250.149C207.873 249.939 207.733 249.728 207.522 249.447C207.031 248.815 206.399 247.902 205.626 246.778C204.011 244.461 201.693 241.23 199.024 237.438L199.305 237.367C198.252 240.387 197.128 243.688 195.934 247.2L195.864 247.41L195.653 247.27C195.513 247.2 195.372 247.129 195.232 246.989C193.687 246.006 192.282 244.812 191.088 243.477C189.895 242.143 188.911 240.809 188.139 239.404C186.523 236.595 185.54 233.856 184.908 231.538C184.276 229.221 183.925 227.254 183.644 225.92C183.504 225.288 183.433 224.796 183.363 224.375C183.363 224.234 183.293 224.094 183.293 223.953C183.293 223.883 183.223 223.813 183.223 223.813C183.293 223.813 183.504 224.515 183.785 225.85C184.065 227.184 184.417 229.08 185.119 231.398C185.821 233.715 186.804 236.384 188.42 239.193C189.192 240.528 190.175 241.932 191.369 243.196C192.563 244.461 193.898 245.655 195.443 246.638C195.583 246.708 195.724 246.778 195.864 246.919L195.583 246.989C196.777 243.477 197.901 240.177 198.954 237.157L199.095 236.876L199.305 237.157C201.974 241.019 204.221 244.25 205.837 246.567C206.609 247.691 207.241 248.604 207.663 249.236C207.873 249.517 208.014 249.798 208.154 249.939C208.225 250.29 208.295 250.36 208.225 250.36Z" fill="#263238"/>
<g opacity="0.3">
<path opacity="0.3" d="M230.276 282.805C229.503 290.67 231.259 298.747 235.192 305.629C239.125 312.442 244.884 318.552 252.047 321.853C252.258 314.9 251.977 306.683 252.188 299.66L230.276 282.805Z" fill="black"/>
</g>
<path d="M229.503 273.605C229.503 273.605 226.413 274.448 228.731 280.768C231.048 287.089 231.821 286.668 233.366 292.567C234.911 298.466 236.667 303.804 239.406 307.175C242.074 310.476 252.047 317.288 252.047 317.288L261.036 308.86C261.036 308.86 259.562 302.54 259.913 298.256C260.264 293.972 261.177 283.507 261.036 281.681C260.896 279.855 259 275.571 259 275.571V272.622L254.364 258.435C254.364 258.435 251.836 257.311 250.923 261.385L249.378 257.031C249.378 257.031 246.92 256.609 246.288 261.666C245.656 266.652 246.78 273.605 246.78 273.605L245.516 282.313L243.619 288.213L241.934 288.494C241.934 288.494 239.406 287.791 238.071 283.086C236.667 278.24 232.944 272.622 229.503 273.605Z" fill="#FFBE9D"/>
<path d="M257.946 295.938C257.946 295.938 257.946 295.797 257.876 295.587C257.876 295.376 257.806 295.025 257.806 294.674C257.735 293.831 257.665 292.637 257.595 291.162C257.454 288.072 257.244 283.858 257.033 278.872L257.103 278.942C256.682 278.45 255.98 278.31 255.277 278.45C254.575 278.591 254.013 279.012 253.592 279.644C252.819 280.908 252.749 282.524 252.538 284.139C252.047 287.721 251.555 291.162 251.134 294.252C250.923 295.797 250.712 297.272 250.361 298.677C250.08 300.081 249.659 301.275 249.238 302.399C248.816 303.523 248.465 304.506 248.254 305.419C248.044 306.332 247.973 307.104 247.973 307.807C247.973 309.141 248.395 309.773 248.325 309.843C248.325 309.843 248.254 309.703 248.114 309.352C248.044 309 247.833 308.509 247.833 307.807C247.763 307.104 247.833 306.332 248.044 305.419C248.254 304.506 248.606 303.452 248.957 302.329C249.378 301.205 249.729 300.011 250.01 298.606C250.291 297.272 250.502 295.797 250.712 294.252C251.134 291.162 251.555 287.721 252.047 284.139C252.187 283.367 252.257 282.524 252.398 281.751C252.538 280.979 252.749 280.206 253.17 279.504C253.592 278.802 254.294 278.31 255.067 278.169C255.839 277.959 256.682 278.169 257.244 278.731L257.314 278.802V278.872C257.454 283.858 257.665 288.072 257.735 291.162C257.806 292.637 257.806 293.831 257.806 294.674C257.806 295.025 257.806 295.376 257.806 295.587C258.016 295.797 257.946 295.938 257.946 295.938Z" fill="#EB996E"/>
<path d="M253.1 279.785C253.1 279.785 252.96 279.505 252.749 279.013C252.539 278.451 252.258 277.679 251.977 276.695C251.696 275.712 251.485 274.518 251.345 273.184C251.274 272.482 251.204 271.779 251.274 271.077C251.345 270.304 251.555 269.532 252.047 268.9C252.468 268.338 253.03 267.846 253.662 267.636L253.803 267.565L253.873 267.706C255.137 270.023 256.331 271.99 257.104 273.465C257.455 274.167 257.806 274.729 258.017 275.15C258.227 275.572 258.297 275.782 258.297 275.782C258.297 275.782 258.157 275.572 257.876 275.22C257.595 274.799 257.244 274.237 256.893 273.535C256.05 272.13 254.856 270.094 253.592 267.846L253.803 267.917C253.241 268.057 252.749 268.478 252.328 269.04C251.907 269.672 251.696 270.375 251.626 271.077C251.555 271.779 251.555 272.482 251.626 273.114C251.766 274.448 251.977 275.642 252.187 276.625C252.398 277.608 252.679 278.381 252.82 278.943C253.03 279.434 253.1 279.785 253.1 279.785Z" fill="#EB996E"/>
<path d="M250.923 280.908C250.923 280.908 250.853 280.627 250.853 280.065C250.853 279.433 250.783 278.731 250.783 277.818C250.713 275.921 250.643 273.323 250.643 270.443C250.643 267.564 250.502 264.965 250.783 263.069C250.923 262.156 251.064 261.384 251.275 260.892C251.415 260.401 251.556 260.12 251.626 260.12C251.696 260.12 251.204 261.243 251.064 263.069C250.853 264.895 251.064 267.564 251.064 270.373C251.134 273.253 251.134 275.851 251.134 277.747C251.134 278.66 251.134 279.363 251.134 279.995C250.994 280.627 250.923 280.908 250.923 280.908Z" fill="#EB996E"/>
<path d="M243.338 304.505C243.268 304.435 243.83 303.803 244.532 302.609C244.883 302.047 245.234 301.275 245.586 300.432C245.937 299.589 246.218 298.606 246.358 297.553C246.569 296.499 246.639 295.516 246.639 294.603C246.639 293.69 246.569 292.847 246.428 292.215C246.218 290.881 245.937 290.038 245.937 290.038C245.937 290.038 246.077 290.249 246.218 290.6C246.358 290.951 246.499 291.513 246.709 292.215C246.85 292.918 246.99 293.76 246.99 294.673C246.99 295.586 246.92 296.64 246.779 297.693C246.569 298.747 246.288 299.73 245.937 300.573C245.586 301.415 245.164 302.188 244.813 302.75C244.462 303.312 244.111 303.803 243.83 304.084C243.549 304.365 243.338 304.576 243.338 304.505Z" fill="#EB996E"/>
<path d="M259.07 300.152L266.866 302.821C266.866 302.821 274.31 298.958 279.437 302.821C284.563 306.683 288.988 316.796 287.583 320.87C287.583 320.87 284.072 325.224 281.333 325.856C278.664 326.488 268.2 323.96 263.846 323.047C259.491 322.134 251.977 317.288 251.977 317.288L259.07 300.152Z" fill="#FFBE9D"/>
<path d="M260.053 311.599C260.053 311.599 259.983 311.389 259.983 310.897C259.983 310.405 259.913 309.773 259.842 309.001C259.772 307.386 259.632 305.208 259.632 302.821C259.562 300.363 259.632 298.185 259.842 296.57C259.913 295.798 259.983 295.166 260.053 294.674C260.123 294.253 260.194 293.972 260.194 293.972C260.264 293.972 260.123 294.955 260.053 296.57C259.983 298.185 259.913 300.363 259.983 302.75C260.053 305.138 260.053 307.245 260.123 308.931C260.123 309.703 260.123 310.335 260.123 310.827C260.053 311.318 260.053 311.599 260.053 311.599Z" fill="#EB996E"/>
<path d="M285.687 302.541C285.617 302.611 284.845 301.487 283.089 300.223C281.403 298.959 278.594 297.554 275.364 297.414C272.063 297.203 269.183 298.257 267.357 299.38C265.461 300.434 264.548 301.487 264.548 301.417C264.548 301.417 264.759 301.136 265.18 300.715C265.602 300.293 266.304 299.731 267.217 299.17C269.043 298.046 271.992 296.922 275.364 297.063C278.735 297.273 281.544 298.678 283.229 300.012C284.072 300.715 284.704 301.347 285.125 301.768C285.477 302.26 285.687 302.541 285.687 302.541Z" fill="#263238"/>
<path d="M284.705 296.009C284.635 296.079 283.651 295.025 281.474 294.253C279.367 293.41 276.067 293.059 272.695 293.972C271.01 294.464 269.465 295.096 268.201 295.868C266.866 296.641 265.813 297.413 264.9 298.186C264.057 298.958 263.355 299.59 262.934 300.012C262.442 300.433 262.231 300.714 262.231 300.714C262.231 300.714 262.442 300.433 262.863 299.941C263.285 299.45 263.917 298.748 264.759 297.975C265.602 297.202 266.726 296.36 268.06 295.587C269.395 294.815 270.94 294.112 272.625 293.621C276.067 292.638 279.438 293.059 281.544 293.972C282.598 294.393 283.441 294.955 283.932 295.306C284.213 295.517 284.354 295.657 284.494 295.798C284.635 295.938 284.705 296.009 284.705 296.009Z" fill="#263238"/>
<path d="M284.774 290.39C284.774 290.46 283.369 290.039 281.122 289.758C279.998 289.618 278.664 289.477 277.119 289.477C275.644 289.477 273.959 289.618 272.273 289.899C270.587 290.18 268.972 290.671 267.568 291.163C266.163 291.654 264.899 292.216 263.916 292.778C261.879 293.831 260.755 294.674 260.685 294.604C260.685 294.604 260.966 294.393 261.458 293.972C261.739 293.761 262.019 293.551 262.441 293.34C262.862 293.129 263.284 292.778 263.775 292.567C264.758 292.006 266.023 291.444 267.427 290.882C268.832 290.39 270.447 289.899 272.203 289.618C273.959 289.337 275.644 289.196 277.119 289.196C278.664 289.196 279.998 289.337 281.122 289.547C281.684 289.618 282.175 289.758 282.667 289.828C283.088 289.899 283.51 290.039 283.791 290.109C284.423 290.25 284.774 290.39 284.774 290.39Z" fill="#263238"/>
<path d="M225.149 221.636C225.149 221.636 225.5 222.339 225.711 223.673C225.921 225.078 225.851 227.114 225.43 229.713C225.219 230.977 224.868 232.381 224.447 233.926C223.955 235.401 223.253 236.946 222.41 238.632C220.724 241.862 218.618 245.374 216.16 249.166L215.879 249.588V249.096C215.879 246.638 215.879 244.04 215.879 241.301L216.16 241.441C214.053 243.127 211.875 244.882 209.628 246.708L209.698 246.638C208.153 251.484 207.17 256.821 206.749 262.37C206.117 270.938 206.608 279.084 207.03 286.529C207.381 293.973 207.591 300.645 207.802 306.263C208.013 311.882 208.224 316.447 208.364 319.537C208.434 321.082 208.504 322.276 208.575 323.119C208.575 323.54 208.645 323.821 208.645 324.032C208.645 324.242 208.645 324.383 208.645 324.383C208.645 324.383 208.645 324.242 208.575 324.032C208.575 323.821 208.504 323.47 208.504 323.119C208.434 322.276 208.294 321.082 208.224 319.537C208.013 316.376 207.802 311.882 207.521 306.263C207.24 300.645 206.959 293.973 206.608 286.529C206.187 279.084 205.625 270.938 206.327 262.37C206.749 256.751 207.732 251.344 209.277 246.498V246.427H209.347C211.595 244.601 213.842 242.846 215.949 241.16L216.23 240.949V241.301C216.23 244.04 216.23 246.638 216.23 249.096L215.949 249.026C220.795 241.511 224.728 235.05 225.289 229.783C225.781 227.255 225.851 225.148 225.641 223.813C225.57 223.111 225.43 222.619 225.36 222.268C225.219 221.847 225.149 221.636 225.149 221.636Z" fill="#263238"/>
<path d="M212.578 312.232H212.297C211.313 312.232 210.4 313.215 210.4 314.198C210.4 315.182 211.313 316.165 212.297 316.165C213.28 316.235 214.263 315.322 214.333 314.339C214.404 313.356 213.561 312.372 212.578 312.232Z" fill="white"/>
<path d="M212.579 285.193H212.298C211.314 285.193 210.401 286.176 210.401 287.159C210.401 288.143 211.314 289.126 212.298 289.126C213.281 289.196 214.264 288.283 214.334 287.3C214.404 286.246 213.562 285.263 212.579 285.193Z" fill="white"/>
<path d="M212.298 260.964C213.281 261.034 214.264 260.121 214.334 259.138C214.404 258.154 213.562 257.101 212.579 257.031H212.298C211.314 257.031 210.401 258.014 210.401 258.997C210.401 259.98 211.314 260.893 212.298 260.964Z" fill="white"/>
<path d="M181.959 189.961C179.501 187.222 177.043 184.483 175.217 181.253C173.391 178.022 172.337 174.3 172.969 170.648C173.32 168.541 174.233 166.504 174.374 164.397C174.585 161.448 173.32 158.358 174.374 155.619C175.989 151.264 181.818 150.632 185.33 147.612C188.069 145.295 189.403 141.502 192.423 139.536C195.092 137.85 198.463 137.85 201.553 138.272C204.643 138.693 207.803 139.466 210.893 139.044C213.141 138.763 215.177 137.85 217.355 137.289C219.532 136.727 221.99 136.586 223.886 137.71C225.852 138.834 226.906 141.573 225.642 143.399C229.223 141.713 233.859 144.522 234.842 148.385C235.825 152.248 233.859 156.391 230.768 158.919C227.678 161.448 223.745 162.642 219.813 163.344C208.786 165.451 196.777 164.257 187.226 158.287" fill="#263238"/>
<path d="M220.866 227.115C220.304 222.901 219.883 219.46 219.883 218.968C219.883 218.968 233.859 215.808 233.086 201.692C232.735 194.879 230.769 180.833 228.943 168.192C226.906 154.567 214.756 144.805 201.061 145.718L199.727 145.789C185.049 147.614 178.447 161.099 180.695 175.706L188.631 224.657C188.631 224.657 192.002 235.472 199.236 237.368L208.365 250.361L209.84 244.743L216.653 238.843C216.653 238.843 218.198 237.158 220.024 233.857C221.358 231.188 221.077 228.449 220.866 227.115Z" fill="#FFBE9D"/>
<path d="M219.885 218.819C219.885 218.819 210.966 220.153 201.134 214.815C201.134 214.815 206.19 224.718 220.166 222.47L219.885 218.819Z" fill="#EB996E"/>
<path d="M224.37 180.339C224.511 181.392 223.668 182.375 222.544 182.516C221.421 182.656 220.438 181.884 220.367 180.83C220.227 179.777 221.07 178.794 222.193 178.653C223.247 178.513 224.23 179.285 224.37 180.339Z" fill="#263238"/>
<path d="M226.344 175.35C226.133 175.631 224.518 174.578 222.34 174.718C220.163 174.859 218.618 176.053 218.408 175.842C218.267 175.701 218.478 175.21 219.18 174.718C219.812 174.156 220.936 173.595 222.34 173.524C223.675 173.454 224.869 173.875 225.571 174.297C226.203 174.718 226.484 175.21 226.344 175.35Z" fill="#263238"/>
<path d="M203.871 181.815C204.012 182.869 203.169 183.852 202.045 183.992C200.922 184.133 199.939 183.36 199.868 182.307C199.728 181.253 200.571 180.27 201.694 180.13C202.748 179.989 203.731 180.762 203.871 181.815Z" fill="#263238"/>
<path d="M204.986 177.178C204.775 177.459 203.16 176.405 200.983 176.546C198.806 176.686 197.261 177.88 197.05 177.67C196.91 177.529 197.12 177.037 197.823 176.546C198.455 175.984 199.578 175.422 200.983 175.352C202.317 175.282 203.511 175.703 204.214 176.124C204.846 176.546 205.127 177.037 204.986 177.178Z" fill="#263238"/>
<path d="M213.978 192.771C213.978 192.63 215.312 192.35 217.489 191.928C218.051 191.858 218.543 191.717 218.613 191.296C218.683 190.875 218.473 190.313 218.122 189.681C217.489 188.346 216.857 187.012 216.225 185.537C213.557 179.708 211.59 174.862 211.801 174.722C212.012 174.581 214.399 179.287 217.068 185.116C217.7 186.591 218.332 187.925 218.894 189.259C219.175 189.891 219.526 190.594 219.315 191.437C219.175 191.858 218.824 192.209 218.473 192.279C218.122 192.42 217.841 192.42 217.56 192.49C215.383 192.771 213.978 192.841 213.978 192.771Z" fill="#263238"/>
<path d="M204.989 168.615C204.849 169.247 202.601 169.106 200.073 169.528C197.545 169.949 195.508 170.862 195.157 170.3C195.017 170.089 195.298 169.457 196.07 168.825C196.843 168.193 198.107 167.561 199.652 167.28C201.197 166.999 202.602 167.14 203.514 167.491C204.568 167.912 205.06 168.334 204.989 168.615Z" fill="#263238"/>
<path d="M225.153 169.107C224.802 169.599 223.257 169.247 221.501 169.318C219.675 169.318 218.201 169.879 217.849 169.388C217.709 169.177 217.92 168.615 218.552 168.124C219.184 167.632 220.237 167.141 221.501 167.141C222.766 167.07 223.819 167.492 224.521 167.913C225.013 168.334 225.294 168.826 225.153 169.107Z" fill="#263238"/>
<path d="M182.523 186.173C182.242 186.103 172.62 183.926 173.603 193.618C174.587 203.239 184.981 200.149 184.981 199.868C184.981 199.517 182.523 186.173 182.523 186.173Z" fill="#FFBE9D"/>
<path d="M180.695 196.636C180.624 196.636 180.554 196.776 180.273 196.916C179.992 197.057 179.571 197.197 179.009 197.057C177.956 196.776 176.902 195.231 176.692 193.545C176.551 192.703 176.692 191.79 176.902 191.087C177.113 190.385 177.534 189.823 178.026 189.683C178.518 189.542 178.939 189.753 179.079 190.034C179.22 190.315 179.22 190.455 179.22 190.526C179.22 190.526 179.431 190.315 179.29 189.964C179.22 189.753 179.079 189.542 178.869 189.402C178.588 189.261 178.237 189.191 177.885 189.261C177.113 189.402 176.551 190.104 176.27 190.947C175.989 191.719 175.849 192.703 175.919 193.686C176.2 195.652 177.324 197.338 178.798 197.619C179.501 197.759 180.063 197.478 180.344 197.197C180.695 196.846 180.695 196.636 180.695 196.636Z" fill="#EB996E"/>
<path d="M228.169 154.987C227.537 158.85 219.742 162.361 213.28 162.151C207.311 162.01 204.361 158.99 200.077 156.954C197.338 155.619 197.338 155.619 193.616 156.251C190.596 156.743 189.051 160.255 187.366 162.783C190.596 169.806 189.262 177.952 187.927 185.537C187.787 186.38 187.576 187.293 186.944 187.855C185.891 188.838 184.135 188.206 183.011 187.293C181.326 185.748 180.553 183.43 179.991 181.183C178.727 176.056 178.236 170.719 179.008 165.522C179.851 160.325 181.958 155.268 185.54 151.335C189.964 146.489 196.495 143.68 203.097 143.329C209.699 142.978 216.3 145.015 221.778 148.667C224.377 150.282 226.765 152.319 228.169 154.987Z" fill="#263238"/>
<path d="M215.387 197.617C213.772 196.845 212.086 196.072 210.471 195.3C210.19 195.159 209.909 195.019 209.558 195.089C209.207 195.159 208.926 195.37 208.715 195.651C207.592 197.055 207.311 199.092 208.154 200.707C209.067 202.252 211.103 203.095 212.789 202.393C214.545 201.691 215.387 199.654 215.528 197.758L215.387 197.617Z" fill="#EB996E"/>
<path d="M212.929 202.744C212.929 202.814 212.719 202.954 212.227 203.025C211.736 203.095 210.963 203.165 210.12 202.884C209.277 202.603 208.294 201.901 207.662 200.847C207.03 199.794 206.819 198.319 207.381 196.985C207.662 196.353 208.013 195.721 208.505 195.299C208.786 195.089 208.997 194.878 209.277 194.667C209.418 194.597 209.629 194.527 209.839 194.457C210.05 194.457 210.261 194.527 210.401 194.597C210.752 194.737 210.963 194.878 211.174 195.018C211.384 195.159 211.595 195.299 211.876 195.44C212.297 195.721 212.719 195.931 213.07 196.212C214.545 197.125 215.387 197.757 215.387 197.828C215.317 197.898 214.334 197.476 212.859 196.634C212.438 196.423 212.087 196.212 211.595 195.931C211.384 195.791 211.174 195.65 210.893 195.58C210.682 195.44 210.401 195.299 210.19 195.229C209.98 195.159 209.839 195.159 209.629 195.299C209.418 195.44 209.207 195.58 208.997 195.791C208.575 196.212 208.224 196.704 208.013 197.266C207.592 198.389 207.732 199.654 208.224 200.567C208.716 201.48 209.488 202.112 210.261 202.463C211.033 202.744 211.665 202.814 212.157 202.814C212.649 202.744 212.929 202.673 212.929 202.744Z" fill="#263238"/>
<path d="M211.384 180.621C211.314 180.621 211.384 179.708 211.033 178.163C210.611 176.618 209.628 174.441 207.381 172.685C206.257 171.842 204.852 171.14 203.167 170.859C201.552 170.578 199.726 170.649 197.97 171.281C197.057 171.562 196.214 172.053 195.442 172.615C194.669 173.177 193.967 173.879 193.335 174.722C192.141 176.337 191.438 178.444 191.438 180.551C191.438 182.728 192.141 184.765 193.335 186.38C193.897 187.223 194.669 187.925 195.442 188.487C196.214 189.049 197.057 189.54 197.97 189.821C199.726 190.453 201.552 190.524 203.167 190.243C204.782 189.962 206.257 189.26 207.381 188.417C209.628 186.661 210.681 184.484 211.033 182.939C211.384 181.464 211.384 180.551 211.384 180.621C211.384 180.621 211.384 180.691 211.384 180.762C211.384 180.902 211.384 181.043 211.384 181.253C211.384 181.464 211.384 181.745 211.314 182.026C211.243 182.307 211.243 182.658 211.103 183.079C210.962 183.852 210.611 184.835 209.979 185.818C209.417 186.801 208.575 187.855 207.451 188.698C206.327 189.54 204.852 190.313 203.167 190.664C201.481 190.945 199.585 190.945 197.759 190.243C196.846 189.962 196.003 189.47 195.161 188.838C194.318 188.276 193.616 187.504 192.984 186.661C191.719 184.975 191.017 182.798 191.017 180.621C191.017 178.374 191.719 176.267 192.984 174.581C193.616 173.739 194.318 172.966 195.161 172.404C195.933 171.772 196.846 171.351 197.759 171C199.585 170.297 201.481 170.297 203.167 170.578C204.852 170.859 206.327 171.632 207.451 172.545C208.575 173.458 209.417 174.441 210.049 175.424C210.611 176.407 210.962 177.32 211.173 178.163C211.314 178.585 211.314 178.936 211.384 179.217C211.454 179.498 211.454 179.778 211.454 179.989C211.454 180.2 211.454 180.34 211.454 180.481C211.384 180.551 211.384 180.621 211.384 180.621Z" fill="#263238"/>
<path d="M235.473 179.637C235.403 179.637 235.473 178.795 235.122 177.25C234.771 175.775 233.788 173.598 231.54 171.912C230.417 171.069 229.082 170.367 227.467 170.086C225.852 169.805 224.096 169.875 222.41 170.507C221.568 170.788 220.725 171.28 219.952 171.842C219.18 172.404 218.478 173.106 217.916 173.878C216.722 175.424 216.09 177.46 216.02 179.567C216.02 181.674 216.722 183.711 217.916 185.256C218.478 186.028 219.18 186.731 219.952 187.292C220.725 187.854 221.568 188.276 222.41 188.627C224.096 189.259 225.922 189.329 227.467 189.048C229.082 188.767 230.417 188.065 231.54 187.222C233.788 185.537 234.771 183.36 235.122 181.885C235.473 180.55 235.403 179.637 235.473 179.637C235.473 179.637 235.473 179.848 235.473 180.269C235.473 180.48 235.473 180.761 235.403 181.042C235.333 181.323 235.333 181.674 235.192 182.095C234.841 183.57 233.858 185.818 231.611 187.573C230.487 188.416 229.082 189.189 227.467 189.47C225.852 189.75 223.956 189.75 222.2 189.048C221.287 188.767 220.444 188.276 219.671 187.714C218.899 187.152 218.126 186.45 217.565 185.607C216.3 183.992 215.668 181.885 215.598 179.708C215.598 177.53 216.3 175.424 217.565 173.808C218.197 172.965 218.899 172.263 219.671 171.701C220.444 171.14 221.287 170.648 222.2 170.367C223.956 169.735 225.781 169.665 227.467 169.946C229.082 170.227 230.557 170.999 231.611 171.842C233.858 173.598 234.841 175.845 235.192 177.32C235.333 177.671 235.333 178.022 235.403 178.373C235.473 178.654 235.473 178.935 235.473 179.146C235.473 179.427 235.473 179.637 235.473 179.637Z" fill="#263238"/>
<path d="M215.809 177.389C215.738 177.459 215.528 177.249 215.106 177.038C214.685 176.827 214.053 176.617 213.351 176.617C212.648 176.617 212.016 176.827 211.595 177.038C211.173 177.249 210.963 177.459 210.893 177.389C210.893 177.389 211.033 177.108 211.454 176.757C211.876 176.476 212.578 176.195 213.351 176.195C214.123 176.195 214.825 176.476 215.247 176.757C215.668 177.108 215.879 177.389 215.809 177.389Z" fill="#263238"/>
<path d="M191.86 179.146C191.93 179.217 189.964 180.832 187.436 182.658C184.978 184.484 182.871 185.959 182.8 185.889C182.73 185.818 184.697 184.203 187.225 182.377C189.753 180.551 191.79 179.076 191.86 179.146Z" fill="#263238"/>
<g opacity="0.3">
<path opacity="0.3" d="M183.572 224.867C182.589 234.418 186.241 244.461 193.896 250.22C194.528 250.641 195.231 251.133 195.933 250.852C196.425 250.641 196.705 250.22 196.986 249.728C199.164 245.936 199.866 241.792 199.234 237.508C198.04 240.668 196.986 243.829 195.792 247.13C189.121 243.126 184.977 234.558 183.572 224.867Z" fill="black"/>
</g>
<path opacity="0.3" d="M209.417 246.567L215.036 244.53L215.949 254.011C215.949 254.011 221.989 242.985 224.517 237.928C227.045 232.872 225.711 224.023 225.711 224.023C225.711 224.023 226.624 231.748 220.514 241.651L215.949 249.095V241.3L209.417 246.567Z" fill="black"/>
<g opacity="0.3">
<path opacity="0.3" d="M144.174 294.745C141.646 293.551 138.766 293.41 136.027 293.691C133.148 294.043 130.198 294.885 127.951 296.782C125.703 298.607 124.158 301.487 124.439 304.437L124.72 304.507C126.687 299.24 130.549 295.377 135.606 294.885C140.592 294.394 145.508 296.641 148.949 300.363C148.598 297.554 146.702 295.939 144.174 294.745Z" fill="black"/>
</g>
<g opacity="0.3">
<path opacity="0.3" d="M286.039 300.153C284.142 298.117 281.544 296.923 278.805 296.431C274.029 295.588 268.903 297.063 265.321 300.364L266.374 299.521C269.113 297.906 272.203 296.993 275.364 297.063C278.524 297.133 281.684 298.327 283.932 300.504C286.039 302.471 287.303 305.21 288.497 307.808C288.988 305.069 287.935 302.19 286.039 300.153Z" fill="black"/>
</g>
<path d="M249.871 256.118C249.871 256.118 249.941 255.837 250.152 255.345C250.362 254.783 250.643 254.081 250.924 253.308C251.626 251.553 252.539 249.235 253.523 246.566C254.506 243.898 255.349 241.51 255.981 239.754C256.262 238.911 256.542 238.279 256.683 237.717C256.894 237.226 256.964 236.945 256.964 236.945C256.964 236.945 256.894 237.226 256.823 237.717C256.683 238.209 256.472 238.911 256.191 239.824C255.629 241.58 254.857 244.038 253.874 246.707C252.89 249.376 251.907 251.693 251.205 253.449C250.854 254.292 250.503 254.994 250.292 255.415C250.011 255.837 249.941 256.118 249.871 256.118Z" fill="#263238"/>
<path d="M161.31 256.821C161.24 256.821 160.467 253.52 159.625 249.376C158.782 245.233 158.15 241.862 158.29 241.862C158.361 241.862 159.133 245.163 159.976 249.306C160.819 253.38 161.451 256.751 161.31 256.821Z" fill="#263238"/>
<path d="M160.046 298.607C160.257 298.748 157.448 276.695 157.448 276.695C157.448 276.695 159.203 259.981 160.186 259.208V253.309C160.186 253.309 162.925 251.623 163.628 254.292C163.628 254.292 166.016 252.185 166.437 257.171C166.858 262.158 166.929 267.285 166.929 267.285L172.336 280.769L173.249 281.19C173.249 281.19 174.373 270.656 175.075 269.11C175.778 267.565 176.199 263.773 178.797 264.335C181.326 264.897 181.536 267.004 181.115 270.445C180.623 273.886 180.062 277.468 180.272 279.645C180.483 281.892 181.466 286.738 181.185 290.671C180.904 294.534 178.727 298.677 176.48 301.557C174.232 304.436 169.948 310.406 167.631 312.161C166.929 312.934 160.046 298.607 160.046 298.607Z" fill="#FFBE9D"/>
<path d="M162.714 280.698C162.714 280.698 162.714 280.347 162.714 279.785C162.785 279.083 162.855 278.24 162.925 277.257C163.066 275.08 163.346 272.13 163.627 268.829C163.768 267.214 163.908 265.599 164.049 264.194C164.119 263.492 164.189 262.79 164.049 262.228C163.979 261.596 163.698 261.104 163.346 260.683C162.644 259.91 161.731 259.7 161.169 259.7C160.607 259.7 160.256 259.84 160.256 259.84C160.256 259.84 160.327 259.77 160.467 259.7C160.607 259.629 160.818 259.559 161.169 259.559C161.801 259.489 162.785 259.7 163.557 260.472C163.979 260.893 164.259 261.455 164.33 262.087C164.47 262.719 164.4 263.422 164.33 264.124C164.189 265.529 164.049 267.144 163.908 268.759C163.627 272.06 163.346 275.01 163.066 277.187C162.925 278.24 162.855 279.083 162.785 279.715C162.785 280.347 162.785 280.698 162.714 280.698Z" fill="#EB996E"/>
<path d="M165.665 271.709C165.735 271.779 165.103 272.271 164.681 273.465C164.26 274.588 164.119 276.344 163.768 278.24C163.487 280.136 163.207 281.822 162.996 283.016C162.785 284.21 162.645 284.982 162.574 284.982C162.504 284.982 162.574 284.21 162.785 282.946C162.926 281.681 163.207 279.996 163.487 278.1C163.768 276.204 163.979 274.518 164.471 273.324C164.681 272.762 165.032 272.271 165.243 272.06C165.454 271.779 165.594 271.639 165.665 271.709Z" fill="#EB996E"/>
<path d="M163.628 254.081C163.628 254.081 163.698 254.291 163.839 254.783C163.909 255.204 164.049 255.907 164.19 256.679C164.471 258.294 164.752 260.542 164.962 263.07C165.173 265.598 165.173 267.846 165.173 269.461C165.173 270.304 165.103 270.936 165.103 271.427C165.103 271.919 165.033 272.13 165.033 272.13C164.962 272.13 164.962 271.146 164.892 269.461C164.822 267.846 164.752 265.528 164.611 263.07C164.4 260.542 164.19 258.294 163.979 256.679C163.768 255.064 163.628 254.081 163.628 254.081Z" fill="#EB996E"/>
<path d="M179.218 274.659C179.289 274.729 178.446 275.151 177.392 274.8C176.339 274.519 175.847 273.676 175.988 273.676C176.058 273.606 176.62 274.168 177.533 274.448C178.376 274.8 179.148 274.589 179.218 274.659Z" fill="#EB996E"/>
<path d="M160.327 295.868L146.07 301.837H137.573C137.573 301.837 129.215 304.436 127.881 312.301C126.617 320.167 126.406 324.241 130.128 325.154C133.85 326.137 144.244 326.207 149.371 324.522C154.568 322.836 168.052 311.88 168.052 311.88L169.387 304.014L160.327 295.868Z" fill="#FFBE9D"/>
<path d="M163.627 304.506C163.627 304.506 163.487 304.365 163.206 304.155C162.925 303.874 162.644 303.523 162.293 302.961C161.591 301.907 160.818 300.292 160.327 298.466C159.765 296.64 159.554 294.884 159.484 293.62C159.343 292.356 159.414 291.583 159.414 291.583C159.484 291.583 159.554 292.356 159.694 293.62C159.905 294.884 160.116 296.57 160.678 298.396C161.169 300.222 161.872 301.767 162.504 302.891C163.206 303.874 163.698 304.506 163.627 304.506Z" fill="#EB996E"/>
<path d="M169.878 307.035C169.808 307.035 170.44 305.912 170.721 304.015C170.861 303.032 170.861 301.909 170.58 300.644C170.299 299.38 169.738 298.116 168.825 296.922C167.982 295.728 166.999 294.675 166.156 293.621C165.313 292.638 164.681 291.585 164.26 290.742C163.838 289.829 163.628 289.056 163.557 288.495C163.487 287.933 163.487 287.652 163.557 287.652C163.628 287.652 163.628 288.916 164.541 290.672C164.962 291.514 165.664 292.498 166.507 293.481C167.35 294.464 168.333 295.518 169.176 296.782C170.089 298.046 170.721 299.38 170.931 300.644C171.212 301.979 171.212 303.173 171.002 304.156C170.861 305.139 170.58 305.912 170.37 306.403C170.229 306.684 170.159 306.825 170.089 306.965C169.878 306.965 169.878 307.035 169.878 307.035Z" fill="#EB996E"/>
<path d="M147.896 272.764C147.826 272.834 146.281 269.954 144.455 266.443C142.629 262.931 141.225 259.982 141.295 259.982C141.365 259.911 142.91 262.791 144.736 266.302C146.562 269.814 147.967 272.693 147.896 272.764Z" fill="white"/>
<path d="M170.931 247.129C170.861 247.059 171.774 244.742 173.108 241.862C174.372 238.983 175.496 236.735 175.566 236.735C175.636 236.806 174.723 239.123 173.389 242.003C172.125 244.882 171.001 247.2 170.931 247.129Z" fill="white"/>
<path d="M193.476 263.773C193.405 263.843 191.931 262.228 190.245 260.192C188.56 258.155 187.225 256.399 187.295 256.329C187.366 256.259 188.84 257.874 190.526 259.911C192.211 261.947 193.546 263.703 193.476 263.773Z" fill="white"/>
<path d="M188.278 286.598C188.208 286.528 189.261 284.913 190.736 282.946C192.141 280.98 193.405 279.435 193.475 279.505C193.545 279.575 192.492 281.191 191.017 283.157C189.613 285.124 188.348 286.669 188.278 286.598Z" fill="white"/>
<path d="M181.325 318.975C181.255 318.975 180.974 318.483 180.483 317.57C179.991 316.657 179.429 315.393 178.797 313.989C178.165 312.584 177.673 311.25 177.393 310.337C177.041 309.353 176.901 308.792 176.971 308.792C177.041 308.792 177.252 309.353 177.673 310.266C178.095 311.32 178.657 312.514 179.219 313.918C179.78 315.253 180.342 316.447 180.764 317.5C181.115 318.343 181.325 318.905 181.325 318.975Z" fill="white"/>
<path d="M201.131 305.209C201.131 305.279 199.235 304.998 196.847 304.577C194.529 304.156 192.633 303.664 192.633 303.594C192.633 303.524 194.529 303.804 196.917 304.226C199.305 304.647 201.131 305.139 201.131 305.209Z" fill="white"/>
<path d="M216.511 275.01C216.44 274.94 218.266 272.833 220.584 270.375C222.901 267.847 224.868 265.88 224.938 265.951C225.008 266.021 223.182 268.128 220.865 270.586C218.547 273.114 216.581 275.08 216.511 275.01Z" fill="white"/>
<path d="M231.962 315.251C231.891 315.322 229.644 312.653 226.905 309.352C224.166 306.051 222.059 303.312 222.129 303.242C222.2 303.172 224.447 305.841 227.186 309.141C229.925 312.512 232.102 315.251 231.962 315.251Z" fill="white"/>
<path d="M135.958 298.116C136.028 298.186 133.921 299.24 131.674 300.996C129.426 302.751 127.811 304.437 127.741 304.367C127.741 304.367 128.022 303.875 128.724 303.173C129.356 302.47 130.339 301.557 131.463 300.715C132.587 299.872 133.71 299.17 134.553 298.748C135.396 298.257 135.887 298.046 135.958 298.116Z" fill="white"/>
<path d="M141.716 282.596C141.786 282.666 141.084 283.93 140.101 285.405C139.118 286.88 138.205 288.074 138.134 288.003C138.064 287.933 138.767 286.669 139.75 285.194C140.733 283.719 141.646 282.525 141.716 282.596Z" fill="white"/>
<path d="M154.779 297.835C154.709 297.905 153.936 296.641 153.585 294.956C153.164 293.27 153.304 291.795 153.445 291.866C153.585 291.866 153.585 293.27 154.007 294.886C154.287 296.501 154.849 297.765 154.779 297.835Z" fill="white"/>
<path d="M156.674 249.446C156.674 249.516 155.481 249.797 153.935 250.008C152.461 250.219 151.197 250.289 151.197 250.219C151.197 250.148 152.39 249.868 153.935 249.657C155.41 249.446 156.674 249.306 156.674 249.446Z" fill="white"/>
<path d="M166.508 232.1C166.578 232.17 165.524 232.873 164.12 233.645C162.785 234.418 161.591 234.909 161.591 234.839C161.521 234.769 162.575 234.067 163.979 233.294C165.314 232.522 166.437 231.96 166.508 232.1Z" fill="white"/>
<path d="M194.037 239.403C193.967 239.473 192.773 237.999 191.298 236.173C189.894 234.347 188.77 232.731 188.91 232.661C188.981 232.591 190.174 234.066 191.649 235.892C192.984 237.788 194.107 239.333 194.037 239.403Z" fill="white"/>
<path d="M228.941 256.892C228.871 256.962 227.607 255.628 226.413 253.732C225.219 251.836 224.587 250.08 224.727 250.08C224.797 250.01 225.57 251.695 226.764 253.521C227.887 255.417 229.081 256.822 228.941 256.892Z" fill="white"/>
<path d="M242.285 261.247C242.355 261.317 241.723 262.932 240.81 264.899C239.897 266.865 239.125 268.41 239.054 268.41C238.984 268.34 239.616 266.725 240.529 264.758C241.442 262.792 242.215 261.247 242.285 261.247Z" fill="white"/>
<path d="M244.182 243.055C244.112 243.126 242.496 241.37 240.6 239.052C238.704 236.805 237.229 234.909 237.299 234.838C237.37 234.768 238.985 236.524 240.881 238.842C242.777 241.089 244.252 242.985 244.182 243.055Z" fill="white"/>
<path d="M223.815 228.238C223.744 228.238 223.604 226.693 223.463 224.867C223.393 222.97 223.393 221.425 223.534 221.425C223.604 221.425 223.744 222.97 223.885 224.796C223.955 226.763 223.885 228.238 223.815 228.238Z" fill="white"/>
<path d="M240.389 227.325C240.389 227.395 238.493 227.746 236.035 228.097C233.647 228.448 231.68 228.589 231.68 228.519C231.68 228.448 233.577 228.097 236.035 227.746C238.423 227.395 240.389 227.254 240.389 227.325Z" fill="white"/>
<path d="M266.584 246.566C266.514 246.637 265.32 244.389 263.985 241.58C262.651 238.771 261.597 236.523 261.738 236.453C261.808 236.383 263.002 238.63 264.336 241.44C265.671 244.249 266.654 246.496 266.584 246.566Z" fill="white"/>
<path d="M262.16 263.143C262.09 263.143 262.3 261.317 262.792 259.139C263.213 256.962 263.635 255.207 263.775 255.207C263.845 255.207 263.635 257.033 263.143 259.21C262.722 261.457 262.3 263.213 262.16 263.143Z" fill="white"/>
<path d="M274.31 276.274C274.24 276.274 273.257 273.886 272.203 270.867C271.15 267.847 270.377 265.389 270.447 265.318C270.518 265.318 271.501 267.706 272.554 270.726C273.608 273.746 274.38 276.204 274.31 276.274Z" fill="white"/>
<path d="M272.624 283.93C272.624 284.001 270.939 283.649 269.043 282.666C267.217 281.683 265.953 280.419 266.023 280.419C266.093 280.349 267.357 281.402 269.183 282.385C271.079 283.298 272.624 283.79 272.624 283.93Z" fill="white"/>
<path d="M288.145 301.417C288.075 301.487 287.513 300.364 286.881 299.029C286.249 297.695 285.898 296.571 285.968 296.501C286.039 296.431 286.6 297.555 287.232 298.889C287.865 300.223 288.286 301.347 288.145 301.417Z" fill="white"/>
<path d="M196.355 325.717C196.285 325.717 196.004 324.313 195.793 322.627C195.582 320.871 195.512 319.467 195.582 319.467C195.652 319.467 195.933 320.871 196.144 322.557C196.355 324.313 196.425 325.717 196.355 325.717Z" fill="white"/>
<path d="M244.041 324.523C243.97 324.523 244.181 323.118 244.532 321.503C244.883 319.818 245.234 318.483 245.375 318.553C245.445 318.553 245.234 319.958 244.883 321.573C244.532 323.259 244.111 324.593 244.041 324.523Z" fill="white"/>
<path d="M252.382 185.252L258.563 174.366C255.824 169.941 254.279 164.744 254.279 159.126C254.279 143.043 267.271 130.051 283.354 130.051C299.436 130.051 312.429 143.043 312.429 159.126C312.429 175.209 299.436 188.201 283.354 188.201C276.682 188.201 270.502 185.954 265.586 182.091L252.382 185.252Z" fill="#FAFAFA"/>
<path d="M252.382 185.251C253.014 185.111 257.158 184.128 265.586 182.231H265.726L265.656 182.091L265.515 182.231C267.201 183.495 269.167 184.76 271.485 185.813C273.802 186.867 276.471 187.709 279.491 188.06C280.966 188.271 282.511 188.341 284.126 188.271C284.899 188.201 285.742 188.201 286.514 188.131C287.357 187.99 288.129 187.85 288.972 187.78C292.273 187.147 295.644 185.883 298.804 183.917C301.965 181.95 304.844 179.352 307.162 176.121C309.479 172.891 311.235 169.028 312.078 164.885C312.921 160.741 312.85 156.246 311.727 151.962C310.603 147.678 308.566 143.464 305.476 140.023L304.282 138.689C303.861 138.267 303.44 137.916 303.018 137.495C302.597 137.144 302.175 136.652 301.684 136.371L300.279 135.318C299.858 134.967 299.296 134.686 298.804 134.335C298.313 134.054 297.821 133.702 297.329 133.422C296.838 133.141 296.276 132.93 295.784 132.649C295.293 132.438 294.801 132.157 294.239 131.947C290.026 130.261 285.531 129.629 281.177 129.91C276.893 130.191 272.749 131.455 269.238 133.422C265.656 135.388 262.706 138.057 260.389 141.006C258.071 143.956 256.456 147.187 255.402 150.417C254.419 153.648 254.138 156.878 254.138 159.898C254.208 162.918 254.77 165.657 255.543 168.045C256.315 170.433 257.369 172.54 258.492 174.295V174.225C254.63 181.318 252.733 184.76 252.382 185.251C252.663 184.689 254.63 181.318 258.633 174.436V174.366V174.295C257.579 172.54 256.526 170.503 255.753 168.045C254.981 165.657 254.419 162.918 254.349 159.968C254.349 157.019 254.63 153.788 255.613 150.628C256.596 147.397 258.282 144.237 260.529 141.287C262.847 138.408 265.796 135.809 269.308 133.843C272.819 131.876 276.893 130.683 281.177 130.331C285.461 130.05 289.885 130.683 294.029 132.298C294.591 132.438 295.082 132.719 295.574 133C296.065 133.281 296.557 133.492 297.119 133.773C297.61 134.054 298.102 134.335 298.594 134.686C299.085 134.967 299.577 135.248 299.998 135.599L301.403 136.652C301.894 137.003 302.246 137.425 302.737 137.776C303.159 138.197 303.65 138.548 304.001 138.97L305.195 140.234C308.215 143.675 310.252 147.819 311.375 152.032C312.429 156.316 312.499 160.671 311.727 164.814C310.884 168.958 309.198 172.75 306.881 175.911C304.563 179.141 301.684 181.74 298.594 183.636C295.504 185.602 292.132 186.796 288.902 187.499C288.059 187.639 287.287 187.78 286.444 187.85C285.671 187.92 284.829 187.92 284.056 187.99C282.511 188.06 280.966 187.99 279.491 187.78C276.541 187.428 273.873 186.586 271.555 185.532C269.238 184.479 267.271 183.285 265.586 181.95L265.024 181.529L265.445 182.091L265.515 181.95C257.158 184.128 253.014 185.111 252.382 185.251Z" fill="#263238"/>
<path d="M291.216 157.933C291.216 159.478 292.48 160.742 294.025 160.742C295.57 160.742 296.834 159.478 296.834 157.933C296.834 156.388 295.57 155.124 294.025 155.124C292.48 155.124 291.216 156.388 291.216 157.933Z" fill="#263238"/>
<path d="M279.838 157.932C279.838 159.477 281.102 160.741 282.647 160.741C284.192 160.741 285.457 159.477 285.457 157.932C285.457 156.387 284.192 155.123 282.647 155.123C281.102 155.123 279.838 156.387 279.838 157.932Z" fill="#263238"/>
<path d="M268.457 156.529C267.685 157.864 268.106 159.62 269.511 160.392C270.845 161.165 272.601 160.743 273.373 159.339C274.146 158.004 273.724 156.249 272.32 155.476C270.985 154.703 269.23 155.195 268.457 156.529Z" fill="#263238"/>
</g>
<defs>
<linearGradient id="paint0_linear_2335_40641" x1="204.251" y1="0" x2="204.251" y2="444" gradientUnits="userSpaceOnUse">
<stop stop-color="#FFE8D7"/>
<stop offset="1" stop-color="white"/>
</linearGradient>
<clipPath id="clip0_2335_40641">
<rect width="495.402" height="281.692" fill="white" transform="translate(-35.1428 87)"/>
</clipPath>
</defs>
</svg>
