<svg width="75" height="64" viewBox="0 0 75 64" fill="none" xmlns="http://www.w3.org/2000/svg">
<path d="M0 64C0 59.7956 0 55.6691 0 51.6204C0 47.4161 0.0775853 43.4453 0.232756 39.708C0.387926 26.9392 2.24997 17.2068 5.8189 10.511C9.54299 3.65937 16.2153 0.155716 25.8359 0L29.56 10.511C24.129 10.8224 20.4825 13.0024 18.6205 17.0511C16.9136 21.0998 16.0602 26.7835 16.0602 34.1022H30.491V64H0ZM44.4564 64C44.4564 59.7956 44.4564 55.6691 44.4564 51.6204C44.4564 47.4161 44.5339 43.4453 44.6891 39.708C44.8443 26.9392 46.7063 17.2068 50.2753 10.511C53.9993 3.65937 60.6717 0.155716 70.2923 0L74.0163 10.511C68.5854 10.8224 64.9389 13.0024 63.0768 17.0511C61.3699 21.0998 60.5165 26.7835 60.5165 34.1022H74.9474V64H44.4564Z" fill="white" fill-opacity="0.3"/>
</svg>
