<svg width="72" height="84" viewBox="0 0 72 84" fill="none" xmlns="http://www.w3.org/2000/svg">
<g id="Group 92">
<path id="Vector" opacity="0.45" d="M6.35996 15.5695C9.11513 11.5794 12.6518 8.18685 16.7568 5.5964C20.8618 3.00595 25.4502 1.27121 30.2454 0.496724C35.0407 -0.277767 39.9435 -0.0759748 44.6585 1.08994C49.3734 2.25586 53.8029 4.36176 57.6799 7.28073C73.1798 18.854 76.151 41.8243 64.7234 57.5109L47.3432 81.6209C46.9285 82.1967 46.4039 82.6851 45.7996 83.0583C45.1952 83.4315 44.523 83.6821 43.8214 83.7956C43.1198 83.9092 42.4025 83.8836 41.7109 83.7202C41.0192 83.5568 40.3667 83.2589 39.7907 82.8435L15.6163 65.4681C-0.101781 54.1746 -4.61046 31.484 6.35996 15.5695Z" fill="url(#paint0_linear_175_1708)"/>
<path id="Vector_2" opacity="0.45" d="M35.2592 0.00771972C40.1152 -0.0927284 44.9414 0.787995 49.4472 2.59686C53.9529 4.40572 58.045 7.10531 61.4771 10.5331C64.9091 13.9608 67.6101 18.0458 69.4175 22.5422C71.2248 27.0385 72.101 31.8531 71.9935 36.696C71.5779 56.0297 54.6029 71.8095 35.2072 71.7888H5.41258C4.69917 71.7888 3.9928 71.6481 3.33408 71.3749C2.67537 71.1017 2.07732 70.7013 1.57431 70.1967C1.0713 69.6922 0.673275 69.0934 0.403112 68.4349C0.132948 67.7764 -0.00401818 67.0711 8.97375e-05 66.3596V36.6339C0.052033 17.321 15.8947 0.411799 35.2592 0.00771972Z" fill="url(#paint1_linear_175_1708)"/>
<path id="Vector_3" opacity="0.45" d="M19.3946 4.06707C23.7031 1.82757 28.4217 0.481384 33.2659 0.109668C38.1101 -0.262048 42.9796 0.348403 47.5809 1.90422C52.1822 3.46004 56.4199 5.92901 60.0387 9.16228C63.6574 12.3956 66.5822 16.3262 68.6368 20.7172C76.8438 38.2377 68.6368 59.8818 51.2358 68.4296L24.5058 81.5777C23.8673 81.8963 23.1719 82.0855 22.4596 82.1344C21.7474 82.1833 21.0325 82.0909 20.3563 81.8626C19.68 81.6343 19.0559 81.2745 18.5199 80.8041C17.984 80.3337 17.5468 79.7621 17.2337 79.1222L4.0817 52.4633C-4.47855 35.1294 2.21174 13.019 19.3946 4.06707Z" fill="url(#paint2_linear_175_1708)"/>
<path id="Vector_4" opacity="0.45" d="M63.6812 58.423C60.1982 62.5753 55.8507 65.9218 50.9406 68.2298C46.0305 70.5379 40.6755 71.7523 35.2474 71.7887H24.3913L15.6129 65.4789C11.1484 62.2111 7.46727 57.9954 4.83529 53.1361C2.20332 48.2767 0.686201 42.8951 0.393498 37.3798C0.225703 34.6077 0.386102 31.8256 0.871376 29.091C1.70957 24.259 3.58417 19.6645 6.36697 15.6217C9.11612 11.6365 12.651 8.25209 16.7556 5.67513C17.1712 5.40575 17.5971 5.13636 18.023 4.89806C18.449 4.65976 18.9476 4.36965 19.4255 4.12098C20.5804 3.51287 21.7702 2.97317 22.9888 2.50467L24.2043 1.99698C24.5471 1.87264 24.8899 1.75867 25.2432 1.65506L25.8561 1.46857C26.4794 1.28207 27.1131 1.11629 27.7468 0.971237L28.5883 0.784739C29.4298 0.59824 30.2816 0.442826 31.1335 0.328855L31.8711 0.245967H31.9958L32.5152 0.17344H32.8269L34.1774 0.0801908H34.4683H34.6345C34.8387 0.0698558 35.0432 0.0698558 35.2474 0.0801908H35.9954C36.2514 0.0644156 36.5082 0.0644156 36.7642 0.0801908C37.2732 0.0801908 37.803 0.0801908 38.2705 0.142357C38.738 0.204523 39.2263 0.204523 39.6938 0.266689H40.1509L41.1897 0.401382H41.4287C41.8027 0.463548 42.1663 0.515353 42.5299 0.58788H42.6441C43.1012 0.660407 43.548 0.764017 44.0051 0.857266H44.0674C44.5141 0.950515 44.9504 1.06449 45.3867 1.18882C45.6257 1.25098 45.8646 1.31315 46.1036 1.39604L46.5503 1.52037L47.0905 1.69651C47.1527 1.70616 47.2126 1.72724 47.2671 1.75867C47.5268 1.8312 47.7761 1.91409 48.0255 2.00734C48.2748 2.10059 48.6696 2.24564 48.9812 2.38033C49.2929 2.51503 49.376 2.52539 49.563 2.59791L50.1344 2.83622L50.685 3.08488L50.8823 3.15741L51.2148 3.32319L51.5576 3.48896L51.7862 3.59257L51.89 3.64438L52.2329 3.82051H52.3368L52.7419 4.03809L52.8666 4.11062H52.9809L53.1471 4.19351L53.251 4.25568L53.8016 4.56651L53.947 4.64939L54.082 4.72192L54.3937 4.90842L54.7158 5.10528L54.8404 5.17781C55.0336 5.28895 55.2208 5.40999 55.4014 5.54044C55.6433 5.67307 55.8758 5.82192 56.0974 5.98596C56.3572 6.1621 56.6169 6.32788 56.8662 6.51438C57.4272 6.89773 57.9674 7.32253 58.5076 7.74733L58.8712 8.0478C58.9348 8.09403 58.9939 8.14606 59.0478 8.20322L59.6608 8.72127L59.7439 8.78344C69.4988 17.5592 73.3842 30.956 70.9532 43.3581C70.4492 45.937 69.6619 48.4526 68.6054 50.8595C67.2859 53.5752 65.6317 56.116 63.6812 58.423Z" fill="url(#paint3_linear_175_1708)"/>
<path id="Vector_5" d="M14.8539 47.6461C14.856 48.3331 14.6536 49.0051 14.2725 49.5773C13.8913 50.1495 13.3485 50.5959 12.7128 50.8602C12.077 51.1245 11.377 51.1948 10.7012 51.062C10.0254 50.9292 9.40432 50.5995 8.91657 50.1145C8.42881 49.6295 8.09632 49.011 7.96119 48.3375C7.82606 47.6639 7.89437 46.9655 8.15747 46.3306C8.42057 45.6958 8.86663 45.1531 9.43917 44.7712C10.0117 44.3894 10.685 44.1856 11.3737 44.1856C11.8303 44.1842 12.2826 44.2727 12.7048 44.446C13.127 44.6193 13.5107 44.874 13.834 45.1955C14.1573 45.5169 14.4138 45.8989 14.5888 46.3194C14.7639 46.74 14.8539 47.1908 14.8539 47.6461Z" fill="#8FEFE9"/>
<path id="Vector_6" d="M37.1289 67.3841C37.1289 67.3841 57.2933 60.2247 50.8523 37.9692C50.8005 37.8116 50.8036 37.6412 50.861 37.4856C50.9185 37.33 51.027 37.1983 51.169 37.112C51.3109 37.0256 51.478 36.9896 51.643 37.0098C51.808 37.03 51.9614 37.1052 52.0782 37.2232C54.7688 39.8446 59.3502 43.129 63.1629 40.3315C65.4272 38.5599 67.0176 36.0709 67.6715 33.2757C67.7142 33.0995 67.8206 32.9453 67.9703 32.8426C68.1199 32.7398 68.3023 32.6958 68.4825 32.7189C68.6627 32.742 68.8281 32.8306 68.9468 32.9678C69.0655 33.105 69.1293 33.281 69.1259 33.4622C69.2818 44.1547 65.5834 63.7888 37.1289 67.3841Z" fill="#8FEFE9"/>
<path id="Vector_7" d="M59.8408 40.3004C62.1071 40.3004 63.9443 38.4681 63.9443 36.2078C63.9443 33.9476 62.1071 32.1152 59.8408 32.1152C57.5745 32.1152 55.7373 33.9476 55.7373 36.2078C55.7373 38.4681 57.5745 40.3004 59.8408 40.3004Z" fill="#8FEFE9"/>
<path id="Vector_8" d="M43.2077 47.2742C44.5998 51.6051 44.7556 55.3765 43.6544 58.4848C41.8468 63.5617 36.9953 65.7375 33.2657 66.7011C31.514 67.1499 29.7138 67.383 27.9052 67.3953C12.3222 67.3953 4.01131 49.7816 4.01131 49.6262C3.57498 48.6522 4.23986 48.072 5.05017 48.7558C5.62582 49.2416 6.22566 49.698 6.84741 50.1235C11.8651 53.553 15.5635 51.7605 17.1633 46.3832C17.2138 46.2266 17.3162 46.0918 17.4536 46.0009C17.591 45.9099 17.7553 45.8683 17.9195 45.8828C18.0838 45.8972 18.2383 45.9669 18.3576 46.0804C18.4769 46.1939 18.554 46.3445 18.5762 46.5075C19.4177 54.6098 22.555 66.6078 33.9514 63.4581C36.7252 62.5463 39.769 60.8057 40.9326 57.5109C41.8156 55.0242 41.6598 51.8745 40.4755 48.186C39.6301 45.7901 38.6093 43.4595 37.4212 41.213C36.278 39.0568 35.2786 36.8278 34.4293 34.5405C32.5593 29.2046 32.5489 23.6822 34.4293 19.3617C36.0011 15.8041 38.8944 12.9927 42.5013 11.5184C42.6813 11.4422 42.8747 11.4021 43.0703 11.4004C43.2659 11.3988 43.4599 11.4356 43.6413 11.5087C43.8227 11.5818 43.9878 11.6898 44.1273 11.8266C44.2668 11.9634 44.3779 12.1262 44.4543 12.3058C44.5307 12.4854 44.5709 12.6783 44.5726 12.8734C44.5742 13.0684 44.5374 13.262 44.464 13.4428C44.3907 13.6237 44.2824 13.7884 44.1453 13.9275C44.0081 14.0667 43.8449 14.1775 43.6648 14.2537C40.768 15.4345 38.4388 17.6832 37.1615 20.5325C35.5824 24.1692 35.624 28.9249 37.255 33.577C38.0616 35.7413 39.0054 37.8523 40.0807 39.8972C41.322 42.2675 42.3678 44.7346 43.2077 47.2742Z" fill="#8FEFE9"/>
<path id="Vector_9" d="M45.472 5.16773C45.472 5.91979 45.2484 6.65496 44.8294 7.28028C44.4105 7.9056 43.815 8.39297 43.1184 8.68077C42.4217 8.96857 41.6551 9.04387 40.9155 8.89715C40.1759 8.75043 39.4966 8.38828 38.9634 7.8565C38.4302 7.32471 38.0671 6.64717 37.9199 5.90956C37.7728 5.17195 37.8483 4.4074 38.1369 3.71258C38.4255 3.01777 38.9141 2.42391 39.5411 2.00608C40.1681 1.58826 40.9053 1.36525 41.6593 1.36525C42.1604 1.36388 42.6568 1.4613 43.12 1.65191C43.5832 1.84252 44.004 2.12256 44.3583 2.47592C44.7126 2.82929 44.9934 3.24901 45.1845 3.71097C45.3757 4.17293 45.4733 4.668 45.472 5.16773Z" fill="#8FEFE9"/>
<path id="Vector_10" d="M56.1184 10.4822C56.1184 11.2347 55.8946 11.9703 55.4752 12.5958C55.0558 13.2214 54.4597 13.7087 53.7624 13.9962C53.0651 14.2837 52.298 14.3584 51.5582 14.2108C50.8183 14.0633 50.139 13.7001 49.6062 13.1673C49.0734 12.6344 48.7111 11.9559 48.5652 11.2176C48.4192 10.4794 48.4962 9.71448 48.7864 9.01985C49.0765 8.32522 49.5668 7.73207 50.1952 7.31549C50.8235 6.89892 51.5617 6.67765 52.3162 6.6797C52.8164 6.6797 53.3117 6.77813 53.7736 6.96935C54.2356 7.16057 54.6553 7.44082 55.0085 7.79405C55.3617 8.14728 55.6415 8.56654 55.832 9.02782C56.0225 9.4891 56.1198 9.98333 56.1184 10.4822Z" fill="#8FEFE9"/>
<path id="Vector_11" d="M33.1003 5.17796C33.1023 5.71294 32.9446 6.2364 32.6471 6.68163C32.3497 7.12685 31.9261 7.47367 31.4303 7.67788C30.9345 7.8821 30.389 7.93445 29.8632 7.82828C29.3375 7.72211 28.8554 7.46221 28.4783 7.08172C28.1012 6.70123 27.8462 6.21738 27.7459 5.69183C27.6456 5.16628 27.7044 4.62284 27.9149 4.13078C28.1255 3.63871 28.4781 3.22031 28.928 2.92889C29.3778 2.63747 29.9045 2.48623 30.4408 2.49446C31.149 2.50264 31.8254 2.78897 32.3233 3.29134C32.8212 3.79371 33.1004 4.4716 33.1003 5.17796Z" fill="#8FEFE9"/>
<path id="Vector_12" d="M63.1316 16.9569C63.1336 17.4902 62.977 18.012 62.6814 18.4564C62.3859 18.9007 61.9648 19.2476 61.4714 19.4531C60.978 19.6586 60.4346 19.7134 59.91 19.6107C59.3853 19.5079 58.9031 19.2521 58.5243 18.8758C58.1455 18.4995 57.8872 18.0195 57.7822 17.4967C57.6771 16.9738 57.73 16.4317 57.9341 15.9388C58.1382 15.446 58.4844 15.0246 58.9288 14.7282C59.3732 14.4317 59.8959 14.2734 60.4305 14.2734C61.1442 14.2761 61.8281 14.5594 62.3338 15.0618C62.8394 15.5642 63.1261 16.2451 63.1316 16.9569Z" fill="#8FEFE9"/>
<path id="Vector_13" d="M22.6664 8.72183C22.6684 8.97022 22.5964 9.21362 22.4596 9.42114C22.3227 9.62867 22.1271 9.79097 21.8976 9.88744C21.6681 9.98392 21.415 10.0102 21.1705 9.96304C20.926 9.91584 20.7011 9.79726 20.5242 9.62235C20.3474 9.44744 20.2266 9.22408 20.1773 8.98061C20.1279 8.73714 20.1522 8.48454 20.247 8.25486C20.3419 8.02517 20.503 7.82876 20.7099 7.69054C20.9168 7.55232 21.1603 7.47852 21.4093 7.47852C21.7409 7.4785 22.0591 7.60917 22.2945 7.84204C22.53 8.07491 22.6636 8.39114 22.6664 8.72183Z" fill="#8FEFE9"/>
<path id="Vector_14" d="M66.4349 23.4426C66.437 23.6914 66.3647 23.9352 66.2274 24.143C66.0901 24.3507 65.8939 24.513 65.6638 24.6092C65.4336 24.7053 65.18 24.731 64.9352 24.683C64.6904 24.6349 64.4655 24.5153 64.2891 24.3394C64.1127 24.1634 63.9927 23.9391 63.9446 23.6949C63.8964 23.4508 63.9221 23.1979 64.0186 22.9684C64.115 22.7389 64.2777 22.5432 64.486 22.4062C64.6943 22.2693 64.9388 22.1972 65.1883 22.1993C65.352 22.1993 65.5141 22.2314 65.6654 22.2939C65.8166 22.3564 65.954 22.448 66.0698 22.5634C66.1856 22.6789 66.2774 22.8159 66.34 22.9668C66.4027 23.1176 66.4349 23.2793 66.4349 23.4426Z" fill="#8FEFE9"/>
</g>
<defs>
<linearGradient id="paint0_linear_175_1708" x1="35.9852" y1="0.0351562" x2="35.9852" y2="83.8652" gradientUnits="userSpaceOnUse">
<stop stop-color="#75DEE5"/>
<stop offset="1" stop-color="#0DB193" stop-opacity="0.42"/>
</linearGradient>
<linearGradient id="paint1_linear_175_1708" x1="36.0011" y1="0" x2="36.0011" y2="71.7888" gradientUnits="userSpaceOnUse">
<stop stop-color="#75DEE5"/>
<stop offset="1" stop-color="#0DB193" stop-opacity="0.42"/>
</linearGradient>
<linearGradient id="paint2_linear_175_1708" x1="36.1015" y1="0.00390625" x2="36.1015" y2="82.1471" gradientUnits="userSpaceOnUse">
<stop stop-color="#75DEE5"/>
<stop offset="1" stop-color="#0DB193" stop-opacity="0.42"/>
</linearGradient>
<linearGradient id="paint3_linear_175_1708" x1="35.9936" y1="0.0683594" x2="35.9936" y2="71.7887" gradientUnits="userSpaceOnUse">
<stop stop-color="#75DEE5"/>
<stop offset="1" stop-color="#0DB193" stop-opacity="0.42"/>
</linearGradient>
</defs>
</svg>
