<svg width="408" height="444" viewBox="0 0 408 444" fill="none" xmlns="http://www.w3.org/2000/svg">
<rect x="0.980957" width="406.541" height="444" fill="url(#paint0_linear_2335_42361)"/>
<path d="M281.003 63.4567H345.868C345.868 63.4567 340.137 53.019 323.434 54.5778C307.492 56.028 306.663 49.4379 298.574 48.6585C290.484 47.8791 283.706 53.9957 281.003 63.4567Z" fill="#E0E0E0"/>
<path d="M111.462 234.938C111.462 234.938 104.961 238.45 114.422 252.025C123.883 265.6 130.039 272.111 130.039 272.111C130.039 272.111 131.834 275.317 129.052 276.235C126.27 277.152 119.848 277.024 119.058 280.684C118.239 284.492 121.347 287.59 127.089 289.809C132.83 292.029 145.241 297.485 146.356 297.978C147.471 298.471 148.694 299.902 146.899 300.829C145.103 301.757 131.183 305.18 133.195 311.681C135.208 318.182 152.255 321.862 154.11 322.296C155.965 322.73 156.488 323.421 156.478 324.408C156.468 325.394 151.683 326.104 147.757 327.239C143.83 328.373 139.49 330.386 140.969 334.046C142.449 337.706 153.163 344.346 176.82 343.408L187.751 342.264L192.408 332.251C201.06 310.221 198.327 297.919 195.367 295.314C192.408 292.71 189.073 296.163 186.715 299.497C184.358 302.832 182.108 307.113 181.171 306.798C180.234 306.482 179.76 305.762 179.958 303.838C180.155 301.914 182.296 284.64 176.811 280.595C171.325 276.55 163.512 288.566 162.012 289.957C160.513 291.349 159.595 289.711 159.497 288.507C159.398 287.304 158.362 273.798 158.116 267.622C157.869 261.446 156.004 257.52 152.147 257.046C148.29 256.573 146.445 262.689 144.659 265.018C142.873 267.346 140.437 264.593 140.437 264.593C140.437 264.593 136.303 256.642 126.625 243.245C116.947 229.847 111.334 235.037 111.334 235.037" fill="#EBEBEB"/>
<path d="M188.665 344.759C181.571 334.894 169.269 317.136 158.624 301.953C147.98 286.77 138.341 273.038 131.297 263.133C127.775 258.2 124.934 254.195 122.951 251.423L120.682 248.226L120.1 247.398C119.972 247.21 119.912 247.102 119.912 247.102C119.912 247.102 119.991 247.19 120.129 247.378L120.741 248.187L123.059 251.344C125.033 254.076 127.992 258.062 131.494 262.995C138.588 272.86 148.266 286.573 158.901 301.756C169.535 316.939 181.818 334.716 188.862 344.611" fill="#E0E0E0"/>
<path d="M128.034 281.237C128.3 281.248 128.565 281.285 128.824 281.346C129.327 281.435 130.047 281.583 130.945 281.78C132.73 282.165 135.177 282.766 137.851 283.477L144.756 285.322L146.848 285.874C147.109 285.919 147.364 285.995 147.607 286.101C147.342 286.098 147.077 286.064 146.818 286.002C146.315 285.914 145.595 285.766 144.697 285.558C142.921 285.154 140.475 284.572 137.791 283.812L130.886 282.017L128.794 281.474C128.531 281.43 128.276 281.35 128.034 281.237V281.237Z" fill="#E0E0E0"/>
<path d="M148.26 285.351C148.161 285.351 149.177 280.221 150.519 273.947C151.86 267.672 153.034 262.592 153.123 262.611C153.212 262.631 152.206 267.732 150.854 274.016C149.503 280.3 148.348 285.351 148.26 285.351Z" fill="#E0E0E0"/>
<path d="M163.548 309.352C163.633 309.096 163.749 308.851 163.894 308.622L164.939 306.649C165.817 305.012 167.031 302.703 168.264 300.178C169.497 297.652 170.563 295.245 171.303 293.578L172.19 291.555C172.276 291.295 172.399 291.049 172.555 290.825C172.501 291.092 172.421 291.353 172.319 291.605C172.141 292.098 171.875 292.798 171.529 293.666C170.839 295.403 169.823 297.77 168.57 300.335C167.317 302.9 166.074 305.15 165.147 306.768C164.673 307.567 164.278 308.218 164.002 308.652C163.874 308.899 163.722 309.134 163.548 309.352Z" fill="#E0E0E0"/>
<path d="M144.452 309.707C144.692 309.641 144.942 309.611 145.192 309.618L147.234 309.5C148.95 309.411 151.328 309.322 153.952 309.234C156.576 309.145 158.954 309.096 160.68 309.076H162.722C162.972 309.054 163.223 309.054 163.472 309.076C163.228 309.143 162.976 309.176 162.722 309.174L160.69 309.293C158.964 309.372 156.586 309.47 153.962 309.549C151.338 309.628 148.96 309.687 147.234 309.707H145.201C144.952 309.736 144.701 309.736 144.452 309.707V309.707Z" fill="#E0E0E0"/>
<path d="M155.253 332.704C155.577 332.632 155.908 332.595 156.24 332.595L158.854 332.438C161.054 332.319 164.102 332.171 167.467 332.033C170.831 331.895 173.879 331.796 176.079 331.737L178.693 331.678C179.022 331.652 179.352 331.652 179.68 331.678C179.355 331.741 179.025 331.777 178.693 331.786L176.079 331.944C173.879 332.063 170.831 332.211 167.467 332.349C164.102 332.487 161.054 332.586 158.854 332.645L156.24 332.704C155.911 332.731 155.581 332.731 155.253 332.704V332.704Z" fill="#E0E0E0"/>
<path d="M179.028 331.519C179.139 331.195 179.278 330.882 179.442 330.582L180.685 328.066C181.731 325.945 183.151 323.015 184.631 319.73C186.111 316.444 187.393 313.445 188.301 311.255L189.376 308.671C189.494 308.351 189.636 308.041 189.801 307.743C189.732 308.081 189.63 308.412 189.495 308.73C189.278 309.361 188.952 310.259 188.508 311.354C187.66 313.564 186.417 316.592 184.927 319.878C183.437 323.163 181.967 326.093 180.872 328.184C180.32 329.23 179.886 330.079 179.531 330.651C179.385 330.952 179.217 331.242 179.028 331.519V331.519Z" fill="#E0E0E0"/>
<path d="M270.766 185.926C259.026 172.756 260.151 153.745 264.6 137.477C265.34 134.755 265.725 131.795 267.56 129.703C269.395 127.612 272.867 126.685 275.047 128.421C276.853 129.861 277.178 132.436 277.849 134.666C278.741 137.631 280.451 140.284 282.782 142.321C284.311 143.643 286.334 144.699 288.287 144.166C290.96 143.416 292.006 140.22 292.638 137.487C293.802 132.403 294.972 127.319 296.15 122.235C296.637 119.476 297.56 116.813 298.882 114.343C300.342 111.955 302.829 110.002 305.551 109.894C308.274 109.785 311.165 112.034 311.076 114.826C310.913 115.979 310.672 117.119 310.356 118.24C310.208 118.799 310.227 119.39 310.411 119.939C310.595 120.488 310.936 120.971 311.392 121.328C312.378 121.91 313.671 121.397 314.677 120.785C318.14 118.703 320.892 115.616 323.506 112.508C326.121 109.4 328.706 106.214 331.971 103.817C335.236 101.419 339.321 99.8703 343.277 100.581C347.233 101.291 350.814 104.685 350.893 108.739C350.972 112.794 347.815 116.188 344.638 118.713C339.944 122.463 334.734 125.516 329.169 127.78C328.118 128.073 327.188 128.695 326.515 129.555C325.529 131.233 326.782 133.442 328.429 134.488C330.304 135.642 332.553 135.958 334.625 136.708C336.697 137.458 338.768 138.947 339.094 141.137C339.548 144.186 336.529 146.554 333.786 147.925C328.294 150.654 322.375 152.423 316.285 153.154C314.105 153.41 311.846 153.558 309.892 154.574C307.939 155.59 306.39 157.82 306.933 159.971C307.475 162.121 309.813 163.335 312.003 163.433C314.193 163.532 316.344 162.851 318.524 162.575C322.599 162.042 327.403 163.443 329.001 167.251C329.476 168.545 329.643 169.932 329.489 171.302C329.335 172.672 328.864 173.987 328.114 175.144C326.611 177.425 324.665 179.381 322.392 180.895C314.771 186.613 305.771 190.208 296.307 191.313C286.916 192.3 278.668 191.175 270.786 185.976" fill="#F5F5F5"/>
<path d="M273.155 187.503C275.285 181.15 273.056 184.336 277.446 176.651C282.287 168.356 287.6 160.345 293.359 152.658C294.872 150.606 296.368 148.584 297.848 146.591C299.328 144.618 300.807 142.645 302.346 140.78C305.34 137.255 308.525 133.895 311.886 130.718C315.073 127.659 318.21 124.877 321.17 122.293C324.129 119.708 326.931 117.36 329.575 115.338C333.737 112.111 338.148 109.218 342.765 106.686C344.393 105.788 345.725 105.137 346.563 104.712L347.55 104.229L347.895 104.081C347.793 104.158 347.684 104.224 347.569 104.278L346.583 104.811C345.715 105.275 344.442 105.955 342.834 106.873C338.272 109.471 333.912 112.409 329.792 115.663C327.168 117.705 324.386 120.063 321.446 122.648C318.506 125.233 315.388 128.034 312.212 131.093C308.875 134.269 305.71 137.622 302.731 141.136C301.192 142.971 299.771 144.934 298.262 146.927L293.773 152.994C288.034 160.654 282.724 168.628 277.87 176.878C273.47 184.544 275.68 181.308 273.51 187.622" fill="#E0E0E0"/>
<path d="M302.536 140.8C302.496 140.393 302.496 139.983 302.536 139.577C302.536 138.787 302.664 137.604 302.793 136.252C303.049 133.44 303.542 129.583 304.095 125.331C304.647 121.079 305.081 117.222 305.289 114.42C305.397 113.019 305.476 111.894 305.525 111.105C305.522 110.697 305.565 110.29 305.654 109.892C305.718 110.296 305.741 110.706 305.723 111.115C305.723 111.894 305.723 113.088 305.654 114.44C305.535 117.261 305.16 121.138 304.598 125.4C304.036 129.662 303.542 133.391 303.158 136.252C302.99 137.564 302.852 138.669 302.743 139.557C302.721 139.978 302.651 140.395 302.536 140.8V140.8Z" fill="#E0E0E0"/>
<path d="M339.035 142.547C338.554 142.544 338.075 142.491 337.605 142.389C336.687 142.251 335.355 142.054 333.708 141.856C330.423 141.442 325.816 141.037 320.804 140.801C315.792 140.564 311.165 140.564 307.841 140.653C306.183 140.653 304.881 140.751 303.895 140.791C303.412 140.831 302.927 140.831 302.444 140.791C302.917 140.674 303.399 140.601 303.885 140.574C304.812 140.475 306.154 140.357 307.831 140.278C311.156 140.09 315.723 140.041 320.833 140.278C325.162 140.465 329.479 140.87 333.767 141.491C335.405 141.738 336.727 141.994 337.644 142.182C338.118 142.259 338.584 142.381 339.035 142.547V142.547Z" fill="#E0E0E0"/>
<path d="M278.027 176.099C277.955 175.947 277.908 175.783 277.889 175.616C277.81 175.231 277.712 174.767 277.583 174.205C277.337 172.982 277.011 171.245 276.646 168.996C275.906 164.586 275.078 158.46 274.249 151.682C273.42 144.905 272.651 138.778 272.009 134.359C271.694 132.208 271.427 130.412 271.23 129.13C271.151 128.558 271.082 128.084 271.023 127.699C271.007 127.532 271.007 127.364 271.023 127.196C271.094 127.35 271.144 127.513 271.171 127.68L271.467 129.09C271.723 130.314 272.039 132.05 272.404 134.299C273.144 138.709 273.973 144.836 274.801 151.613C275.63 158.391 276.4 164.517 277.041 168.937C277.366 171.088 277.623 172.883 277.82 174.175C277.909 174.738 277.968 175.211 278.027 175.596C278.049 175.763 278.049 175.932 278.027 176.099Z" fill="#E0E0E0"/>
<path d="M328.115 172.124C327.953 172.176 327.783 172.202 327.612 172.203L326.152 172.341L320.785 172.775C316.257 173.14 310.002 173.761 303.097 174.373C296.191 174.985 289.916 175.547 285.339 175.823C283.07 175.961 281.235 176.05 279.962 176.09H278.502C278.332 176.115 278.159 176.115 277.989 176.09C278.153 176.042 278.322 176.016 278.492 176.011L279.952 175.873L285.319 175.439C289.847 175.074 296.102 174.452 303.008 173.84C309.914 173.229 316.178 172.666 320.766 172.4C323.044 172.262 324.879 172.163 326.152 172.124H327.612C327.779 172.103 327.948 172.103 328.115 172.124V172.124Z" fill="#E0E0E0"/>
<path d="M366.968 272.525C366.933 272.686 366.88 272.841 366.81 272.989L366.267 274.301C365.764 275.485 365.054 277.152 364.166 279.234L356.56 296.824L356.51 296.923H356.402L332.508 300.869L324.497 302.181L324.132 302.24L324.221 301.885C326.194 294.2 327.96 287.087 329.489 281.118L329.597 281.345L315.559 275.071L311.682 273.305L310.695 272.831C310.577 272.781 310.465 272.718 310.36 272.644L310.715 272.772L311.751 273.196L315.697 274.863L329.805 280.98L329.962 281.049V281.207C328.463 287.225 326.697 294.308 324.783 302.003L324.507 301.707L332.518 300.385L356.422 296.498L356.254 296.627L364.018 279.115C364.955 277.024 365.705 275.367 366.238 274.183L366.83 272.89C366.868 272.766 366.914 272.644 366.968 272.525V272.525Z" fill="#E0E0E0"/>
<path d="M327.297 299.407L326.636 301.123L327.682 302.643L325.847 302.554L324.732 304.014L324.249 302.238L322.512 301.626L324.051 300.62L324.101 298.785L325.531 299.939L327.297 299.407Z" fill="#E0E0E0"/>
<path d="M310.89 271.537L310.564 272.396L311.077 273.145L310.17 273.096L309.617 273.826L309.37 272.948L308.512 272.642L309.272 272.139L309.301 271.222L310.012 271.794L310.89 271.537Z" fill="#E0E0E0"/>
<path d="M357.227 295.768L356.902 296.626L357.415 297.376L356.507 297.336L355.955 298.066L355.708 297.178L354.85 296.883L355.609 296.379L355.629 295.462L356.349 296.034L357.227 295.768Z" fill="#E0E0E0"/>
<path d="M330.483 280.388L330.158 281.236L330.681 281.996L329.763 281.947L329.211 282.677L328.974 281.789L328.106 281.493L328.875 280.99L328.895 280.072L329.605 280.644L330.483 280.388Z" fill="#E0E0E0"/>
<path d="M368.079 271.666L367.754 272.524L368.277 273.274L367.359 273.235L366.807 273.965L366.57 273.077L365.702 272.771L366.471 272.278L366.491 271.36L367.201 271.933L368.079 271.666Z" fill="#E0E0E0"/>
<path d="M69.0583 343.467H120.714C120.714 343.467 116.146 335.15 102.847 336.363C90.1506 337.518 89.5094 332.269 83.0475 331.628C76.5857 330.987 71.2189 335.929 69.0583 343.467Z" fill="#E0E0E0"/>
<path d="M79.3186 140.122H130.964C130.964 140.122 126.396 131.815 113.098 133.019C100.411 134.183 99.7598 128.934 93.3078 128.293C86.8558 127.652 81.4693 132.594 79.3186 140.122Z" fill="#F5F5F5"/>
<path d="M341.62 176.042H384.042C384.042 176.042 380.293 169.215 369.372 170.201C358.934 171.188 358.401 166.847 353.104 166.314C347.806 165.782 343.386 169.856 341.62 176.042Z" fill="#F5F5F5"/>
<path d="M256.895 259.788C259.006 243.895 247.829 230.774 233.859 222.891C219.89 215.009 203.681 212.345 188.251 207.984C173.7 203.851 159.227 197.813 148.454 187.198C137.681 176.583 131.21 160.63 135.077 146.01C136.063 142.34 137.79 138.65 140.947 136.529C144.104 134.408 148.908 134.467 151.266 137.447C156.278 143.8 146.511 155.204 152.627 160.473C154.028 161.696 155.962 162.14 157.412 163.294C161.269 166.382 160.026 172.37 160.569 177.283C161.644 187.001 170.76 193.749 179.708 197.685C191.694 202.953 204.677 205.429 217.384 208.537C230.091 211.645 242.926 215.601 253.511 223.335C264.097 231.07 273.301 243.066 273.242 256.177C273.242 259.837 272.759 264.336 270.46 267.177C268.161 270.018 265.241 270.62 261.926 269.061C258.612 267.503 256.303 265.115 256.915 259.808" fill="#663AA3"/>
<g opacity="0.8">
<path opacity="0.8" d="M256.887 259.788C258.998 243.895 247.821 230.774 233.851 222.891C219.882 215.009 203.673 212.345 188.243 207.984C173.692 203.851 159.219 197.813 148.446 187.198C137.673 176.583 131.201 160.63 135.069 146.01C136.055 142.34 137.782 138.65 140.939 136.529C144.096 134.408 148.9 134.467 151.258 137.447C156.27 143.8 146.503 155.204 152.619 160.473C154.02 161.696 155.954 162.14 157.404 163.294C161.261 166.382 160.018 172.37 160.561 177.283C161.636 187.001 170.752 193.749 179.7 197.685C191.686 202.953 204.669 205.429 217.376 208.537C230.083 211.645 242.918 215.601 253.503 223.335C264.089 231.07 273.293 243.066 273.234 256.177C273.234 259.837 272.751 264.336 270.452 267.177C268.153 270.018 265.233 270.62 261.918 269.061C258.604 267.503 256.295 265.115 256.907 259.808" fill="white"/>
</g>
<path d="M189.313 133.423C188.81 127.504 193.2 122.403 198.192 119.661C203.184 116.918 208.906 115.793 214.046 113.357C226.822 107.299 234.941 93.0438 235.543 78.4331C236.145 63.8224 229.801 49.2018 219.896 38.4682C215.861 34.1077 210.909 29.5301 210.85 23.5813C210.79 17.3661 216.769 12.4728 222.826 12.5517C228.884 12.6306 234.388 16.6656 237.989 21.7266C241.59 26.7875 243.573 32.7956 245.517 38.7148C244.136 36.2288 246.967 33.1606 249.71 33.427C252.452 33.6933 254.642 35.9723 256.29 38.2413C263.588 48.1509 267.089 60.3505 266.155 72.6223C265.167 84.6653 259.713 95.904 250.864 104.133C241.127 113.011 228.252 117.165 215.763 121.111L189.708 129.329" fill="#663AA3"/>
<g opacity="0.8">
<path opacity="0.8" d="M189.316 133.421C188.813 127.502 193.203 122.401 198.195 119.659C203.187 116.916 208.909 115.792 214.049 113.355C226.824 107.297 234.944 93.0418 235.545 78.4311C236.147 63.8204 229.804 49.1998 219.899 38.4663C215.864 34.1057 210.911 29.5282 210.852 23.5793C210.793 17.3641 216.772 12.4708 222.829 12.5498C228.886 12.6287 234.391 16.6637 237.992 21.7246C241.593 26.7856 243.576 32.7936 245.519 38.7129C244.138 36.2268 246.97 33.1587 249.712 33.425C252.455 33.6914 254.645 35.9703 256.292 38.2393C263.591 48.149 267.092 60.3485 266.158 72.6204C265.169 84.6634 259.715 95.9021 250.866 104.131C241.129 113.009 228.255 117.163 215.765 121.109L189.711 129.327" fill="white"/>
</g>
<path d="M182.064 9.62902C180.743 10.1741 179.683 11.2083 179.106 12.5159C178.529 13.8235 178.479 15.3034 178.967 16.6468C179.455 17.9902 180.443 19.0933 181.724 19.7259C183.006 20.3586 184.482 20.4719 185.845 20.0422C187.209 19.6126 188.353 18.6731 189.04 17.4199C189.727 16.1666 189.904 14.6965 189.533 13.3162C189.163 11.9359 188.273 10.752 187.051 10.0117C185.828 9.27141 184.367 9.03182 182.972 9.34292" fill="#663AA3"/>
<g opacity="0.8">
<path opacity="0.8" d="M182.066 9.63098C180.745 10.1761 179.685 11.2103 179.108 12.5179C178.531 13.8254 178.482 15.3053 178.969 16.6487C179.457 17.9921 180.445 19.0952 181.727 19.7279C183.008 20.3606 184.485 20.4739 185.848 20.0442C187.211 19.6145 188.355 18.675 189.042 17.4218C189.73 16.1686 189.906 14.6984 189.535 13.3181C189.165 11.9378 188.275 10.754 187.053 10.0137C185.83 9.27337 184.369 9.03377 182.974 9.34488" fill="white"/>
</g>
<path d="M214.197 389.763C211.001 383.144 213.793 374.886 218.883 369.579C223.974 364.271 230.919 361.242 237.628 358.283C252.485 351.732 268.211 343.938 275.758 329.574C278.303 324.731 279.753 319.403 281.184 314.115C283.956 303.895 286.56 292.283 280.986 283.276C279.378 280.681 276.971 278.343 273.972 277.85C270.549 277.238 267.066 279.123 264.935 281.875C262.96 284.751 261.772 288.095 261.492 291.573C260.664 298.114 261.354 304.773 260.663 311.304C259.973 317.835 257.595 324.809 252.229 328.539C245.648 333.126 236.266 332.1 229.883 336.944C224.724 340.89 222.76 347.638 218.735 352.729C215.342 356.981 210.596 359.881 206.256 363.156C201.915 366.432 197.712 370.417 196.232 375.656C195.456 378.394 195.486 381.298 196.318 384.02C197.15 386.742 198.75 389.166 200.925 391.002C203.1 392.837 205.759 394.007 208.582 394.37C211.405 394.733 214.272 394.274 216.841 393.049" fill="#663AA3"/>
<g opacity="0.8">
<path opacity="0.8" d="M214.193 389.766C210.997 383.147 213.788 374.889 218.879 369.582C223.97 364.274 230.915 361.245 237.623 358.286C252.481 351.735 268.206 343.941 275.753 329.577C278.299 324.733 279.749 319.406 281.179 314.118C283.951 303.898 286.556 292.286 280.982 283.279C279.374 280.684 276.967 278.346 273.968 277.853C270.544 277.241 267.062 279.126 264.931 281.878C262.955 284.754 261.768 288.098 261.488 291.576C260.659 298.117 261.35 304.776 260.659 311.307C259.969 317.838 257.591 324.812 252.224 328.541C245.644 333.129 236.262 332.103 229.879 336.947C224.719 340.893 222.756 347.641 218.731 352.732C215.337 356.984 210.592 359.884 206.251 363.159C201.91 366.435 197.708 370.42 196.228 375.659C195.452 378.397 195.481 381.301 196.314 384.023C197.146 386.745 198.746 389.169 200.921 391.005C203.096 392.84 205.754 394.01 208.577 394.373C211.4 394.736 214.268 394.277 216.837 393.052" fill="white"/>
</g>
<path d="M115.423 55.3466C112.796 53.3963 110.672 50.8476 109.228 47.912C107.784 44.9764 107.06 41.7387 107.118 38.4676C107.176 35.1964 108.013 31.9863 109.561 29.1037C111.108 26.221 113.32 23.749 116.015 21.8929C119.053 19.8113 122.644 18.5288 125.347 15.9736C127.745 13.7441 129.293 10.6562 131.987 8.78174C133.667 7.58979 135.685 6.96603 137.745 7.00143C139.806 7.03682 141.801 7.72952 143.44 8.9785C145.078 10.2275 146.275 11.9674 146.856 13.9445C147.436 15.9216 147.37 18.0324 146.666 19.9691C145.433 23.4319 142.326 25.9673 141.023 29.4005C139.622 33.1099 140.53 37.2928 140.037 41.1798C139.714 43.5998 138.851 45.9161 137.511 47.957C136.171 49.9979 134.389 51.711 132.296 52.9694C130.204 54.2277 127.856 54.999 125.425 55.2261C122.994 55.4532 120.543 55.1302 118.254 54.2811" fill="#663AA3"/>
<g opacity="0.8">
<path opacity="0.8" d="M115.424 55.3466C112.798 53.3963 110.674 50.8476 109.23 47.912C107.785 44.9764 107.062 41.7387 107.12 38.4676C107.178 35.1964 108.015 31.9863 109.562 29.1037C111.11 26.221 113.322 23.749 116.016 21.8929C119.055 19.8113 122.646 18.5288 125.349 15.9736C127.746 13.7441 129.295 10.6562 131.988 8.78174C133.669 7.58979 135.687 6.96603 137.747 7.00143C139.807 7.03682 141.802 7.72952 143.441 8.9785C145.08 10.2275 146.277 11.9674 146.858 13.9445C147.438 15.9216 147.372 18.0324 146.668 19.9691C145.435 23.4319 142.327 25.9673 141.025 29.4005C139.624 33.1099 140.532 37.2928 140.039 41.1798C139.716 43.5998 138.852 45.9161 137.512 47.957C136.172 49.9979 134.39 51.711 132.298 52.9694C130.206 54.2277 127.857 54.999 125.426 55.2261C122.996 55.4532 120.545 55.1302 118.256 54.2811" fill="white"/>
</g>
<path d="M115.795 34.1953H127.92V59.1844C127.92 59.8853 127.782 60.5794 127.514 61.2269C127.246 61.8744 126.852 62.4628 126.357 62.9584C125.861 63.454 125.273 63.8472 124.625 64.1154C123.978 64.3836 123.284 64.5217 122.583 64.5217H121.142C119.727 64.5217 118.369 63.9593 117.368 62.9584C116.368 61.9575 115.805 60.6 115.805 59.1844V34.1953H115.795Z" fill="#663AA3"/>
<path d="M115.795 34.1955L121.853 23.0771L127.92 34.1955H115.795Z" fill="#FFBE9D"/>
<path d="M119.457 27.4771C119.457 27.4771 121.302 30.2493 124.262 27.4771L121.864 23.0771L119.457 27.4771Z" fill="#663AA3"/>
<path d="M128.09 57.9713C126.044 58.2185 123.982 58.3009 121.924 58.2179C119.868 58.301 117.81 58.2186 115.768 57.9713C117.81 57.724 119.868 57.6415 121.924 57.7247C123.982 57.6417 126.044 57.7241 128.09 57.9713V57.9713Z" fill="#263238"/>
<path d="M127.921 56.1061C125.919 56.3532 123.899 56.4357 121.883 56.3527C119.867 56.4357 117.848 56.3532 115.846 56.1061C117.849 55.8714 119.868 55.7923 121.883 55.8693C123.899 55.7923 125.918 55.8714 127.921 56.1061V56.1061Z" fill="#263238"/>
<path d="M119.358 34.373C119.486 34.373 119.605 39.2071 119.605 45.1757C119.605 51.1443 119.486 56.0277 119.358 56.0277C119.23 56.0277 119.111 51.1837 119.111 45.1757C119.111 39.1677 119.22 34.373 119.358 34.373Z" fill="#FAFAFA"/>
<path d="M124.265 34.373C124.403 34.373 124.511 39.2071 124.511 45.1757C124.511 51.1443 124.403 56.0277 124.265 56.0277C124.127 56.0277 124.018 51.1837 124.018 45.1757C124.018 39.1677 124.127 34.373 124.265 34.373Z" fill="#FAFAFA"/>
<path d="M221.142 375.835L276.221 378.193L277.552 381.399L241.445 440L176.274 438.096L221.142 375.835Z" fill="#263238"/>
<path d="M173.801 432.384L239.357 436.132L273.61 382.987L249.558 384.941L188.698 406.368L173.801 432.384Z" fill="#E0E0E0"/>
<path d="M164.591 428.446L224.771 429.433C222.275 421.728 228.164 410.886 236.264 407.235C241.631 404.818 251.723 401.681 256.932 399.008C266.797 393.927 275.775 384.318 274.995 376.061L250.253 375.242L218.684 374.019C216.04 381.852 210.397 386.972 201.814 390.06C194.138 392.822 185.398 392.812 177.9 395.979C165.844 401.03 160.053 417.397 164.542 428.476" fill="#EBEBEB"/>
<path d="M164.59 428.448C164.59 428.448 164.531 428.32 164.442 428.053L164.028 426.899C163.809 426.255 163.638 425.595 163.515 424.926C163.313 424.022 163.175 423.106 163.1 422.183C162.909 419.622 163.068 417.046 163.574 414.528C164.275 411.137 165.585 407.901 167.441 404.978C167.964 404.133 168.541 403.322 169.168 402.551C169.493 402.166 169.809 401.742 170.154 401.367L171.269 400.233C171.642 399.844 172.044 399.484 172.473 399.157C172.897 398.812 173.311 398.447 173.765 398.122C174.704 397.46 175.694 396.873 176.725 396.366C180.898 394.264 185.88 393.406 191.069 392.419C193.673 391.946 196.357 391.433 199.04 390.713C201.801 389.956 204.466 388.883 206.982 387.516C208.281 386.813 209.519 386.001 210.681 385.089C211.879 384.168 212.98 383.127 213.967 381.982C216.01 379.62 217.565 376.877 218.544 373.912L218.603 373.744H218.771L245.062 374.731C254.188 375.086 263.629 375.332 273.297 375.658L275.053 375.717H275.27V375.934C275.402 377.824 275.133 379.72 274.481 381.498C274.17 382.377 273.801 383.234 273.376 384.063C272.941 384.879 272.46 385.669 271.936 386.431C269.856 389.418 267.342 392.078 264.478 394.323C261.708 396.528 258.684 398.393 255.47 399.878C252.294 401.308 249.078 402.472 245.931 403.636C242.784 404.801 239.666 405.905 236.716 407.188C235.264 407.832 233.901 408.661 232.662 409.654C232.02 410.108 231.488 410.69 230.906 411.193C230.323 411.696 229.82 412.308 229.357 412.93C227.435 415.25 226.002 417.934 225.144 420.822C224.274 423.556 224.222 426.484 224.996 429.247L225.085 429.513H224.809L181.016 428.744L168.872 428.497L165.695 428.408H164.6C164.6 428.408 164.975 428.408 165.695 428.408H168.882L181.026 428.547L224.809 429.158L224.621 429.415C223.811 426.578 223.856 423.565 224.75 420.753C225.608 417.8 227.062 415.053 229.021 412.683C229.485 412.052 230.067 411.509 230.59 410.917C231.113 410.325 231.734 409.802 232.385 409.329C233.648 408.31 235.042 407.463 236.529 406.813C239.488 405.511 242.626 404.396 245.773 403.232C248.92 402.068 252.126 400.894 255.273 399.473C258.444 398.004 261.426 396.155 264.152 393.968C266.979 391.758 269.459 389.138 271.512 386.194C272.027 385.456 272.504 384.692 272.942 383.906C273.355 383.098 273.714 382.264 274.017 381.41C274.646 379.697 274.908 377.872 274.787 376.053L275.024 376.27L273.258 376.22C263.59 375.895 254.148 375.638 245.033 375.234L218.732 374.247L218.959 374.089C217.952 377.108 216.363 379.9 214.282 382.307C213.275 383.472 212.151 384.53 210.928 385.464C209.746 386.392 208.485 387.214 207.159 387.921C204.617 389.303 201.922 390.382 199.129 391.137C196.416 391.877 193.723 392.37 191.118 392.834C185.929 393.761 180.967 394.629 176.853 396.681C175.846 397.177 174.879 397.751 173.962 398.398C173.508 398.714 173.104 399.079 172.68 399.384C172.255 399.708 171.856 400.064 171.486 400.45L170.342 401.584C169.986 401.959 169.681 402.374 169.355 402.758C168.726 403.514 168.15 404.312 167.629 405.146C165.772 408.034 164.458 411.237 163.752 414.597C163.222 417.092 163.039 419.648 163.209 422.193C163.268 423.112 163.393 424.025 163.584 424.926C163.694 425.594 163.852 426.254 164.057 426.899C164.225 427.412 164.343 427.797 164.432 428.073C164.521 428.349 164.59 428.448 164.59 428.448Z" fill="#263238"/>
<path d="M235.641 374.996C235.641 374.996 235.72 374.612 235.779 373.921C235.851 372.95 235.689 371.975 235.305 371.08C234.768 369.745 233.756 368.655 232.464 368.021C231.672 367.653 230.814 367.447 229.941 367.417C229.068 367.386 228.198 367.532 227.382 367.845C226.567 368.158 225.823 368.632 225.194 369.238C224.565 369.845 224.065 370.572 223.723 371.376C223.119 372.685 222.916 374.144 223.141 375.569C223.284 376.527 223.62 377.446 224.128 378.272C224.503 378.864 224.779 379.14 224.749 379.169C224.444 378.959 224.182 378.691 223.98 378.38C223.369 377.568 222.954 376.626 222.766 375.628C222.473 374.131 222.649 372.581 223.269 371.188C223.63 370.324 224.163 369.542 224.835 368.89C225.507 368.238 226.305 367.73 227.179 367.396C228.054 367.062 228.988 366.909 229.923 366.947C230.859 366.985 231.777 367.213 232.622 367.617C233.995 368.313 235.053 369.505 235.582 370.952C235.95 371.892 236.066 372.912 235.917 373.911C235.877 374.183 235.811 374.451 235.72 374.71C235.7 374.917 235.66 374.996 235.641 374.996Z" fill="#263238"/>
<path d="M245.083 374.996C245.034 374.996 245.162 374.612 245.222 373.921C245.289 372.95 245.127 371.976 244.748 371.08C244.206 369.744 243.191 368.656 241.897 368.021C241.105 367.654 240.247 367.449 239.374 367.42C238.502 367.39 237.632 367.536 236.817 367.849C236.002 368.162 235.257 368.635 234.629 369.241C234 369.847 233.499 370.573 233.156 371.376C232.554 372.686 232.355 374.145 232.584 375.569C232.723 376.528 233.059 377.448 233.57 378.272C233.945 378.864 234.222 379.14 234.192 379.169C233.879 378.965 233.613 378.696 233.413 378.38C232.806 377.566 232.391 376.625 232.199 375.628C231.915 374.13 232.094 372.582 232.712 371.188C233.073 370.325 233.605 369.545 234.276 368.894C234.948 368.242 235.744 367.734 236.618 367.401C237.492 367.067 238.424 366.914 239.359 366.951C240.293 366.988 241.21 367.215 242.055 367.617C243.428 368.313 244.486 369.505 245.014 370.951C245.38 371.892 245.499 372.911 245.36 373.911C245.322 374.185 245.253 374.453 245.152 374.71C245.15 374.809 245.126 374.907 245.083 374.996V374.996Z" fill="#263238"/>
<path d="M252.223 375.489C252.223 375.489 252.282 375.095 252.302 374.404C252.317 373.43 252.101 372.466 251.67 371.593C251.053 370.293 249.978 369.268 248.652 368.712C247.842 368.391 246.977 368.235 246.106 368.252C245.236 368.269 244.377 368.459 243.581 368.81C241.978 369.545 240.732 370.887 240.118 372.54C239.59 373.882 239.47 375.351 239.773 376.762C239.981 377.716 240.384 378.616 240.956 379.406C241.361 379.968 241.657 380.235 241.627 380.264C241.305 380.078 241.026 379.826 240.809 379.524C240.153 378.746 239.684 377.828 239.437 376.841C239.067 375.363 239.157 373.807 239.694 372.382C240.005 371.499 240.492 370.688 241.127 369.999C241.761 369.31 242.528 368.757 243.383 368.374C244.237 367.991 245.161 367.786 246.097 367.771C247.033 367.756 247.963 367.932 248.829 368.288C250.24 368.903 251.365 370.032 251.976 371.445C252.405 372.369 252.582 373.39 252.489 374.404C252.468 374.679 252.415 374.951 252.331 375.213C252.302 375.401 252.223 375.489 252.223 375.489Z" fill="#263238"/>
<path d="M259.93 375.923C259.93 375.923 259.93 375.528 259.93 374.837C259.897 373.864 259.63 372.913 259.15 372.065C258.468 370.797 257.34 369.827 255.984 369.342C255.157 369.063 254.283 368.953 253.413 369.018C252.542 369.083 251.694 369.322 250.919 369.722C250.143 370.121 249.455 370.672 248.897 371.343C248.338 372.013 247.92 372.789 247.667 373.624C247.208 374.992 247.167 376.465 247.549 377.856C247.809 378.799 248.258 379.679 248.871 380.441C249.305 380.974 249.611 381.22 249.581 381.26C249.25 381.087 248.959 380.848 248.723 380.559C248.029 379.817 247.513 378.926 247.213 377.955C246.758 376.5 246.758 374.941 247.213 373.486C247.48 372.589 247.923 371.755 248.518 371.033C249.113 370.311 249.847 369.716 250.676 369.283C251.511 368.856 252.425 368.603 253.361 368.54C254.298 368.477 255.237 368.606 256.122 368.918C257.559 369.454 258.742 370.511 259.437 371.878C259.914 372.789 260.143 373.81 260.098 374.837C260.088 375.11 260.052 375.381 259.989 375.646C259.979 375.834 259.95 375.923 259.93 375.923Z" fill="#263238"/>
<path d="M267.625 375.747C267.625 375.747 267.625 375.352 267.625 374.661C267.565 373.688 267.271 372.744 266.767 371.909C266.049 370.663 264.897 369.725 263.531 369.275C262.696 369.017 261.818 368.929 260.949 369.018C260.08 369.107 259.237 369.37 258.472 369.792C257.707 370.214 257.034 370.785 256.495 371.473C255.956 372.16 255.56 372.95 255.333 373.793C254.978 374.949 254.919 376.175 255.163 377.36C255.406 378.544 255.943 379.648 256.724 380.571C257.178 381.094 257.493 381.33 257.464 381.36C257.126 381.207 256.826 380.981 256.586 380.699C255.875 379.972 255.336 379.096 255.007 378.134C254.516 376.69 254.478 375.131 254.899 373.665C255.141 372.761 255.562 371.915 256.136 371.176C256.711 370.438 257.427 369.821 258.243 369.364C259.066 368.915 259.971 368.637 260.903 368.549C261.836 368.461 262.777 368.564 263.669 368.851C265.125 369.35 266.34 370.378 267.073 371.731C267.577 372.635 267.832 373.656 267.813 374.691C267.812 374.966 267.783 375.241 267.724 375.51C267.675 375.648 267.645 375.747 267.625 375.747Z" fill="#263238"/>
<path d="M274.118 376.605C274.118 376.605 274.118 376.211 274.118 375.52C274.096 374.546 273.839 373.591 273.368 372.738C272.698 371.468 271.585 370.488 270.241 369.985C269.417 369.695 268.544 369.573 267.673 369.628C266.802 369.682 265.951 369.911 265.17 370.301C264.389 370.692 263.695 371.235 263.129 371.9C262.563 372.564 262.136 373.336 261.875 374.168C261.477 375.309 261.371 376.531 261.565 377.723C261.76 378.916 262.25 380.04 262.989 380.995C263.424 381.538 263.719 381.784 263.7 381.824C263.371 381.648 263.082 381.407 262.851 381.114C262.162 380.365 261.655 379.467 261.371 378.489C260.936 377.028 260.961 375.468 261.441 374.02C261.717 373.127 262.171 372.297 262.774 371.582C263.377 370.867 264.118 370.281 264.953 369.857C265.793 369.441 266.709 369.2 267.645 369.149C268.581 369.098 269.518 369.238 270.398 369.561C271.834 370.114 273.006 371.194 273.674 372.58C274.143 373.493 274.361 374.515 274.305 375.54C274.294 375.813 274.254 376.084 274.187 376.349C274.167 376.516 274.137 376.615 274.118 376.605Z" fill="#263238"/>
<path d="M302.536 174.513C299.811 174.431 297.084 174.556 294.378 174.887C286.167 175.944 278.625 179.967 273.174 186.197C267.723 192.428 264.738 200.437 264.781 208.716C264.752 214.163 265.459 219.588 266.883 224.846C271.628 241.676 273.088 256.504 272.545 263.735L288.429 272.269C288.429 272.269 295.779 261.703 302.882 257.145C309.985 252.588 333.622 240.374 342.985 227.894C349.012 219.824 350.177 203.231 335.793 188.768C326.946 179.927 315.04 174.824 302.536 174.513Z" fill="#663AA3"/>
<path d="M264.951 282.104L279.295 289.859L269.963 301.717L260.393 297.376L264.951 282.104Z" fill="#455A64"/>
<path d="M265.648 282.589C265.52 282.539 266.941 278.277 268.825 273.078C270.709 267.879 272.337 263.686 272.465 263.736C272.594 263.785 271.173 268.037 269.289 273.246C267.404 278.455 265.777 282.628 265.648 282.589Z" fill="#263238"/>
<path d="M278.395 289.297C278.276 289.228 280.526 285.203 283.406 280.309C286.287 275.416 288.724 271.539 288.852 271.539C288.98 271.539 286.721 275.633 283.83 280.526C280.94 285.42 278.503 289.346 278.395 289.297Z" fill="#263238"/>
<g opacity="0.4">
<path opacity="0.4" d="M307.27 174.965C306.629 174.965 298.736 184.239 295.244 190.493C283.494 211.536 282.962 232.007 279.706 255.882C279.242 259.295 277.545 266.645 277.575 266.477C279.311 267.838 285.152 270.551 285.152 270.551C285.152 270.551 290.667 263.902 292.857 260.558C301.617 247.17 311.137 236.723 318.645 222.586C326.152 208.449 333.374 195.949 326.429 181.486C326.429 181.486 314.373 174.561 307.27 174.965Z" fill="black"/>
</g>
<path d="M342.985 230.005C342.902 229.861 342.832 229.709 342.778 229.551C342.649 229.255 342.491 228.792 342.225 228.219C341.482 226.563 340.552 224.998 339.453 223.553C337.766 221.322 335.707 219.4 333.366 217.871C330.365 215.882 326.945 214.616 323.372 214.171H323.254L323.195 214.092C321.277 211.458 319.135 208.996 316.792 206.732C314.227 204.257 311.27 202.224 308.041 200.715C304.797 199.247 301.25 198.57 297.693 198.741C294.451 198.868 291.314 199.915 288.646 201.76L288.498 201.859L288.37 201.741C285.658 199.361 282.285 197.864 278.702 197.449C275.918 197.132 273.099 197.491 270.484 198.495C268.79 199.143 267.201 200.037 265.768 201.149C265.275 201.543 264.9 201.859 264.663 202.076C264.546 202.194 264.417 202.3 264.278 202.392C264.383 202.264 264.495 202.142 264.614 202.027C264.841 201.79 265.196 201.454 265.679 201.04C267.093 199.865 268.685 198.923 270.395 198.248C273.044 197.186 275.912 196.786 278.751 197.084C282.421 197.48 285.882 198.991 288.666 201.415H288.389C291.122 199.509 294.343 198.424 297.673 198.288C301.301 198.102 304.922 198.778 308.239 200.261C311.518 201.795 314.519 203.865 317.118 206.387C319.48 208.673 321.632 211.166 323.55 213.836L323.402 213.747C327.036 214.208 330.511 215.519 333.543 217.575C335.903 219.148 337.97 221.121 339.65 223.405C340.736 224.881 341.638 226.485 342.334 228.18C342.58 228.762 342.718 229.236 342.827 229.541C342.889 229.692 342.942 229.847 342.985 230.005V230.005Z" fill="#263238"/>
<path d="M313.449 250.97C313.205 249.748 312.74 248.581 312.077 247.527C311.301 246.32 310.258 245.307 309.029 244.567C307.457 243.594 305.612 243.158 303.771 243.324H303.573V243.127C303.188 240.765 302.205 238.541 300.719 236.666C299.232 234.791 297.291 233.327 295.079 232.413C293.119 231.646 291.013 231.326 288.913 231.476C286.985 231.616 285.106 232.157 283.399 233.064L283.251 233.143L283.132 233.015C281.655 231.467 279.724 230.43 277.617 230.055C275.982 229.738 274.296 229.791 272.685 230.213C271.255 230.611 269.915 231.281 268.739 232.186C268.739 232.186 268.798 232.097 268.946 231.969C269.094 231.841 269.311 231.634 269.617 231.407C270.517 230.769 271.517 230.286 272.576 229.976C274.227 229.5 275.966 229.412 277.657 229.72C279.86 230.083 281.886 231.153 283.428 232.768L283.162 232.719C284.916 231.787 286.844 231.229 288.825 231.081C290.996 230.929 293.174 231.266 295.198 232.068C297.632 233.051 299.741 234.699 301.285 236.823C302.673 238.688 303.581 240.867 303.929 243.166L303.702 242.989C305.627 242.838 307.55 243.319 309.177 244.36C310.428 245.137 311.482 246.194 312.255 247.448C312.749 248.25 313.103 249.131 313.301 250.052C313.351 250.293 313.387 250.537 313.409 250.782C313.428 250.844 313.441 250.906 313.449 250.97V250.97Z" fill="#263238"/>
<path d="M276.526 293.599C276.526 293.599 276.368 293.401 276.003 293.244C275.453 293.077 274.863 293.098 274.326 293.303C273.913 293.432 273.485 293.509 273.053 293.53C272.786 293.527 272.523 293.471 272.279 293.364C272.035 293.257 271.815 293.102 271.632 292.908C270.873 292.109 270.587 290.935 269.866 290.175C269.702 289.988 269.498 289.841 269.27 289.744C269.041 289.646 268.793 289.602 268.544 289.613C268.036 289.668 267.534 289.771 267.045 289.919C266.557 290.058 266.045 290.085 265.545 289.998C265.021 289.868 264.543 289.593 264.168 289.203C263.793 288.814 263.535 288.327 263.424 287.798C263.357 287.579 263.357 287.346 263.424 287.127C263.424 287.127 263.424 287.364 263.592 287.758C263.777 288.303 264.121 288.781 264.579 289.13C264.879 289.369 265.235 289.529 265.614 289.593C266.055 289.653 266.504 289.612 266.926 289.475C267.443 289.309 267.975 289.196 268.515 289.14C268.832 289.121 269.15 289.174 269.443 289.296C269.737 289.417 270 289.603 270.212 289.84C271.05 290.826 271.307 291.912 271.948 292.592C272.231 292.909 272.629 293.101 273.053 293.125C273.45 293.121 273.845 293.064 274.227 292.957C274.835 292.768 275.492 292.81 276.072 293.076C276.486 293.313 276.545 293.599 276.526 293.599Z" fill="#263238"/>
<path d="M278.167 291.27C275.764 290.27 273.428 289.117 271.173 287.817C268.837 286.66 266.573 285.362 264.395 283.93C266.799 284.935 269.138 286.088 271.4 287.383C273.732 288.54 275.992 289.838 278.167 291.27V291.27Z" fill="#263238"/>
<path d="M275.321 294.91C275.321 294.91 275.124 295.009 274.778 295.167C274.601 295.246 274.404 295.364 274.127 295.483C273.811 295.593 273.475 295.637 273.141 295.611C272.274 295.563 271.446 295.242 270.773 294.693C270.38 294.36 270.072 293.937 269.875 293.46C269.715 292.994 269.478 292.557 269.175 292.168C268.819 291.868 268.404 291.647 267.957 291.518C267.51 291.389 267.041 291.355 266.58 291.418C265.741 291.516 264.89 291.436 264.084 291.181C263.532 290.971 263.081 290.558 262.822 290.027C262.664 289.642 262.723 289.396 262.743 289.406C262.762 289.415 262.802 289.623 262.999 289.938C263.285 290.376 263.714 290.7 264.213 290.856C264.98 291.049 265.779 291.085 266.561 290.964C267.087 290.887 267.625 290.924 268.135 291.074C268.646 291.224 269.119 291.483 269.52 291.832C269.854 292.264 270.114 292.747 270.29 293.263C270.456 293.681 270.716 294.056 271.049 294.358C271.647 294.859 272.377 295.174 273.151 295.266C273.679 295.313 274.211 295.218 274.69 294.989C275.094 294.881 275.321 294.881 275.321 294.91Z" fill="#263238"/>
<path d="M167.002 202.777L191.813 199.097L179.975 182.326L173.621 182.701C171.522 182.822 169.497 183.524 167.774 184.73C166.051 185.936 164.697 187.597 163.864 189.528V189.528C162.963 191.622 162.713 193.939 163.144 196.177L167.002 202.777Z" fill="#663AA3"/>
<path opacity="0.4" d="M167.002 202.777L191.813 199.097L179.975 182.326L173.621 182.701C171.522 182.822 169.497 183.524 167.774 184.73C166.051 185.936 164.697 187.597 163.864 189.528V189.528C162.963 191.622 162.713 193.939 163.144 196.177L167.002 202.777Z" fill="black"/>
<path d="M273.571 230.261C273.827 230.972 274.104 231.81 274.39 232.817C274.626 233.684 274.716 234.584 274.656 235.48C274.617 236.592 274.428 237.694 274.094 238.756C273.689 239.742 274.636 240.65 275.435 240.176C276.235 239.703 277.409 237.138 277.409 233.843C277.409 230.548 280.704 234.494 281.957 235.914C283.209 237.335 287.294 241.548 288.034 241.508C289.119 241.449 289.257 240.275 287.974 238.884C286.692 237.493 283.13 233.063 283.91 232.432C284.689 231.8 290.964 239.13 290.964 239.13C290.964 239.13 292.049 240.916 292.937 240.226C294.614 238.973 287.363 231.682 286.652 231.011C286.169 230.538 286.988 229.827 287.491 230.36C287.994 230.893 293.588 237.809 295.304 236.546C296.617 235.559 289.385 230.498 289.03 228.426C288.675 226.355 294.121 232.836 295.334 231.87C295.798 231.505 296.084 231.169 292.374 227.923C290.599 226.325 283.831 221.59 283.831 221.59L263.469 163.295L247.743 172.302L273.571 230.261Z" fill="#FFBE9D"/>
<path d="M152.352 120.006L129.602 92.8565C129.315 91.9196 128.942 91.0114 128.487 90.1435C127.959 89.0604 127.208 88.1013 126.283 87.3293C125.358 86.5574 124.28 85.99 123.12 85.6646C121.68 85.3489 120.023 85.5068 118.888 84.5597C118.385 84.1355 118.049 83.5731 117.517 83.1391C116.984 82.705 116.106 82.6655 115.761 83.2278C115.672 83.4472 115.635 83.684 115.652 83.92C115.669 84.156 115.74 84.385 115.859 84.5893C116.714 86.598 118.073 88.3517 119.806 89.6798C117.675 90.331 114.626 91.3175 114.626 91.3175C114.626 91.3175 109.822 86.0987 107.355 86.1086C104.889 86.1184 109.328 90.7749 109.328 90.7749C109.328 90.7749 105.382 87.1247 104.159 88.1507C102.936 89.1767 106.073 91.8897 106.073 91.8897C105.13 91.2491 104.005 90.9338 102.867 90.9919C101.752 91.1794 100.795 92.4915 101.397 93.4484C101.653 93.7933 101.993 94.068 102.383 94.2475L108.441 97.6215C109.41 98.2676 110.519 98.6735 111.676 98.8054C114.754 98.904 117.093 97 120.161 97.0789C120.161 97.0789 137.317 133.196 139.053 135.061C140.789 136.925 178.515 139.461 178.515 139.461L200.327 120.667L152.352 120.006Z" fill="#FFBE9D"/>
<path d="M220.695 316.752L243.928 326.864L231.498 355.839C228.795 354.487 229.683 337.094 229.683 337.094L214.529 331.225L220.695 316.752Z" fill="#663AA3"/>
<g opacity="0.6">
<path opacity="0.6" d="M232.262 327.614C232.466 327.37 232.753 327.21 233.068 327.165C233.383 327.119 233.704 327.191 233.969 327.368C234.217 327.564 234.381 327.849 234.427 328.162C234.473 328.476 234.397 328.795 234.215 329.055C234 329.311 233.697 329.478 233.365 329.523C233.033 329.569 232.697 329.49 232.42 329.301C232.178 329.071 232.036 328.756 232.023 328.422C232.01 328.089 232.128 327.764 232.351 327.516" fill="white"/>
</g>
<path opacity="0.6" d="M243.934 326.865L241.546 325.938L230.517 354.064C230.517 354.064 230.517 355.603 231.503 355.84L243.934 326.865Z" fill="white"/>
<path d="M229.322 337.52C229.47 337.569 229.835 336.889 230.595 336.395C231.354 335.902 232.094 335.774 232.094 335.626C232.094 335.478 231.187 335.33 230.289 335.951C229.391 336.573 229.184 337.49 229.322 337.52Z" fill="#263238"/>
<path d="M229.272 341.089C229.4 341.188 229.903 340.675 230.712 340.448C231.521 340.221 232.202 340.359 232.261 340.221C232.32 340.083 231.551 339.639 230.554 339.935C229.558 340.231 229.144 341.03 229.272 341.089Z" fill="#263238"/>
<path d="M232.176 344.385C232.264 344.267 231.633 343.764 230.706 343.793C229.778 343.823 229.186 344.356 229.275 344.464C229.364 344.573 229.956 344.346 230.725 344.336C231.495 344.326 232.097 344.543 232.176 344.385Z" fill="#263238"/>
<path d="M226.016 335.793C226.173 335.793 226.252 335.053 226.657 334.284C227.061 333.514 227.574 332.991 227.486 332.863C227.397 332.735 226.627 333.119 226.173 334.037C225.72 334.954 225.877 335.813 226.016 335.793Z" fill="#263238"/>
<path d="M222.88 333.622C222.939 333.622 223.264 333.129 223.491 332.172C223.627 331.61 223.69 331.034 223.679 330.456C223.674 330.125 223.648 329.796 223.6 329.469C223.578 329.268 223.525 329.072 223.442 328.887C223.382 328.752 223.279 328.64 223.148 328.57C223.018 328.5 222.868 328.477 222.722 328.502C222.592 328.528 222.471 328.584 222.368 328.666C222.265 328.749 222.183 328.855 222.13 328.976C222.05 329.161 221.997 329.357 221.972 329.558C221.814 330.48 221.892 331.427 222.199 332.31C222.525 333.248 222.959 333.701 223.008 333.662C223.057 333.622 222.781 333.1 222.554 332.202C222.432 331.675 222.376 331.135 222.386 330.594C222.394 330.263 222.427 329.933 222.485 329.607C222.534 329.272 222.643 329.005 222.82 328.986C222.998 328.966 222.899 328.986 222.968 329.084C223.021 329.224 223.057 329.37 223.077 329.518C223.133 329.845 223.169 330.174 223.185 330.505C223.215 331.049 223.192 331.594 223.116 332.133C223.004 332.623 222.925 333.121 222.88 333.622V333.622Z" fill="#263238"/>
<path d="M223.156 333.533C223.156 333.533 222.821 332.99 221.923 332.547C221.396 332.289 220.829 332.125 220.246 332.063C219.918 332.027 219.587 332.027 219.259 332.063C219.034 332.061 218.811 332.116 218.613 332.223C218.415 332.33 218.247 332.485 218.125 332.675C218.074 332.806 218.061 332.948 218.087 333.086C218.113 333.223 218.178 333.351 218.273 333.454C218.413 333.6 218.572 333.726 218.746 333.829C219.052 334.02 219.384 334.163 219.733 334.253C220.309 334.396 220.912 334.396 221.489 334.253C222.475 334.007 222.909 333.494 222.87 333.464C222.395 333.629 221.911 333.768 221.42 333.878C220.898 333.953 220.366 333.913 219.861 333.76C219.568 333.667 219.289 333.534 219.032 333.365C218.746 333.188 218.549 332.971 218.628 332.872C218.713 332.773 218.819 332.694 218.939 332.641C219.058 332.588 219.188 332.563 219.318 332.566C219.646 332.534 219.977 332.534 220.305 332.566C220.841 332.603 221.369 332.716 221.874 332.902C222.623 333.217 223.107 333.592 223.156 333.533Z" fill="#263238"/>
<path d="M202.807 356.549L212.416 376.684L215.425 394.857C215.475 395.166 215.59 395.461 215.76 395.724C215.93 395.987 216.153 396.212 216.414 396.385C216.675 396.558 216.969 396.676 217.277 396.73C217.586 396.785 217.902 396.775 218.207 396.701C218.561 396.619 218.891 396.453 219.168 396.216C219.444 395.979 219.66 395.678 219.795 395.34C221.561 390.97 227.983 374.84 227.194 373.409C226.286 371.752 218.463 351.498 218.463 351.498L202.807 356.549Z" fill="#663AA3"/>
<path opacity="0.6" d="M218.202 396.654L226.568 371.99L226.963 372.849C227.298 373.593 227.357 374.432 227.131 375.216C226.519 377.318 224.714 383.109 219.85 395.263C219.712 395.613 219.49 395.924 219.202 396.167C218.914 396.409 218.571 396.577 218.202 396.654Z" fill="white"/>
<g opacity="0.6">
<path opacity="0.6" d="M219.443 367.302C219.275 367.597 219.222 367.944 219.295 368.276C219.368 368.608 219.561 368.901 219.838 369.098C220.128 369.277 220.476 369.339 220.81 369.269C221.145 369.199 221.439 369.004 221.633 368.723C221.807 368.408 221.858 368.04 221.778 367.689C221.698 367.338 221.492 367.028 221.199 366.819C220.878 366.663 220.508 366.639 220.169 366.751C219.83 366.864 219.549 367.104 219.384 367.421" fill="white"/>
</g>
<path d="M218.85 385.671C218.104 385.191 217.241 384.921 216.354 384.889C215.467 384.858 214.588 385.067 213.809 385.494C213.809 385.494 213.957 385.178 214.401 384.902C214.995 384.544 215.681 384.369 216.374 384.399C217.063 384.42 217.731 384.639 218.298 385.03C218.732 385.346 218.89 385.632 218.85 385.671Z" fill="#263238"/>
<path d="M218.68 389.048C217.952 388.981 217.22 388.961 216.49 388.989C215.778 389.158 215.076 389.369 214.389 389.62C214.28 389.541 215.069 388.634 216.421 388.495C216.814 388.4 217.225 388.4 217.618 388.496C218.011 388.592 218.375 388.781 218.68 389.048Z" fill="#263238"/>
<path d="M219.982 380.967C218.867 380.772 217.739 380.663 216.608 380.641C215.481 380.767 214.365 380.985 213.273 381.292C214.243 380.602 215.391 380.205 216.58 380.147C217.769 380.089 218.95 380.374 219.982 380.967V380.967Z" fill="#263238"/>
<path d="M217.574 374.604C217.574 374.752 216.242 374.782 214.752 375.393C213.263 376.005 212.266 376.863 212.168 376.755C212.732 375.884 213.584 375.238 214.575 374.93C215.505 374.47 216.567 374.355 217.574 374.604Z" fill="#263238"/>
<path d="M214.898 368.617C213.882 368.732 212.886 368.985 211.938 369.367C211.058 369.88 210.255 370.515 209.55 371.251C209.501 371.251 209.6 370.866 209.955 370.393C210.419 369.766 211.028 369.262 211.731 368.923C212.426 368.575 213.193 368.399 213.97 368.41C214.562 368.429 214.907 368.567 214.898 368.617Z" fill="#263238"/>
<path d="M211.465 368.221C211.294 367.993 211.167 367.735 211.09 367.461C210.847 366.724 210.75 365.947 210.804 365.172C210.792 364.602 210.969 364.044 211.307 363.584C211.429 363.45 211.588 363.355 211.763 363.312C211.939 363.268 212.123 363.277 212.294 363.337C212.626 363.5 212.889 363.777 213.034 364.117C213.295 364.822 213.302 365.596 213.054 366.306C212.805 367.016 212.317 367.616 211.672 368.004C211.028 368.374 210.29 368.546 209.549 368.496C208.808 368.447 208.098 368.18 207.509 367.728C207.359 367.61 207.237 367.46 207.152 367.29C207.066 367.119 207.02 366.932 207.016 366.741C207.026 366.552 207.095 366.372 207.214 366.225C207.332 366.078 207.494 365.972 207.677 365.922C208.228 365.811 208.799 365.845 209.334 366.021C210.089 366.218 210.801 366.553 211.435 367.007C211.879 367.313 212.077 367.54 212.057 367.57C211.19 367.033 210.245 366.633 209.255 366.386C208.784 366.246 208.285 366.229 207.805 366.337C207.705 366.362 207.615 366.418 207.549 366.498C207.484 366.578 207.445 366.677 207.44 366.78C207.457 366.901 207.499 367.018 207.561 367.123C207.624 367.228 207.707 367.319 207.805 367.392C208.324 367.769 208.94 367.989 209.58 368.026C210.22 368.063 210.857 367.915 211.416 367.599C211.975 367.274 212.404 366.765 212.631 366.159C212.857 365.553 212.867 364.887 212.659 364.275C212.57 364.032 212.394 363.832 212.165 363.712C212.071 363.669 211.966 363.658 211.865 363.679C211.764 363.7 211.672 363.753 211.603 363.831C211.314 364.219 211.155 364.688 211.149 365.172C211.074 366.199 211.181 367.231 211.465 368.221V368.221Z" fill="#263238"/>
<path d="M235.183 319.209L208.832 301.451L217.553 215.829L192.594 201.258L169.775 195.97C169.775 195.97 160.245 215.799 155.963 228.526C146.946 255.527 140.623 265.205 142.073 284.759C142.527 290.954 165.395 306.463 179.838 315.055C180 316.775 180.257 318.484 180.607 320.175C185.54 342.491 200.614 372.166 200.614 372.166L223.502 361.522L216.123 336.217L223.818 340.705L235.183 319.209ZM178.545 263.962L181.623 250.239C180.972 258.97 180.38 268.076 179.956 276.807C178.468 272.71 177.985 268.315 178.545 263.992V263.962Z" fill="#263238"/>
<path d="M200.657 372.166C200.586 372.05 200.527 371.928 200.479 371.801L199.996 370.725L198.23 366.552C196.711 362.912 194.53 357.673 191.916 351.113C189.302 344.552 186.204 336.778 183.037 327.998C182.258 325.798 181.498 323.539 180.778 321.201C180.462 320.017 180.058 318.853 179.851 317.6C179.792 317.294 179.722 316.979 179.673 316.673L179.565 315.735L179.357 313.861C179.081 311.335 178.861 308.764 178.696 306.146C178.618 304.844 178.548 303.522 178.489 302.2C178.43 300.878 178.391 299.527 178.489 298.175C178.884 287.422 179.782 277.221 180.531 267.937C181.281 258.654 182.001 250.308 182.593 243.274C183.185 236.24 183.58 230.577 183.777 226.641C183.905 224.668 183.974 223.148 184.014 222.122L184.083 220.939C184.065 220.808 184.065 220.675 184.083 220.544C184.094 220.675 184.094 220.807 184.083 220.939C184.083 221.235 184.083 221.619 184.083 222.122C184.083 223.158 184.034 224.687 183.945 226.651C183.777 230.597 183.432 236.279 182.909 243.303C182.386 250.328 181.686 258.684 180.936 267.967C180.186 277.25 179.328 287.451 178.963 298.175C178.884 299.517 178.963 300.839 178.963 302.171C178.963 303.502 179.081 304.805 179.17 306.117C179.328 308.747 179.542 311.309 179.811 313.802L180.018 315.686L180.127 316.614C180.176 316.919 180.245 317.215 180.305 317.521C180.502 318.725 180.896 319.899 181.212 321.073C181.913 323.391 182.672 325.65 183.442 327.85C186.539 336.621 189.608 344.424 192.173 350.985C194.738 357.545 196.878 362.823 198.348 366.473C199.069 368.289 199.641 369.699 200.035 370.686C200.213 371.15 200.361 371.515 200.46 371.781C200.558 372.047 200.657 372.166 200.657 372.166Z" fill="#455A64"/>
<path d="M183.035 217.644C183.035 217.644 182.808 217.506 182.443 217.161C181.972 216.63 181.595 216.023 181.329 215.365C180.548 213.189 180.167 210.89 180.204 208.578C180.174 206.271 180.282 203.965 180.529 201.672C180.576 200.725 180.708 199.784 180.924 198.86C181.005 199.806 181.005 200.756 180.924 201.702C180.835 203.448 180.697 205.865 180.737 208.528C180.721 210.792 181.054 213.045 181.723 215.207C181.955 215.841 182.27 216.442 182.66 216.993C182.897 217.398 183.065 217.624 183.035 217.644Z" fill="#455A64"/>
<path d="M173.186 197.272C173.419 198.046 173.486 198.859 173.383 199.66C173.252 201.624 172.599 203.518 171.49 205.144C170.382 206.771 168.859 208.073 167.079 208.914C166.369 209.301 165.587 209.536 164.781 209.604C164.781 209.525 165.639 209.289 166.922 208.618C168.591 207.73 170.019 206.45 171.085 204.888C172.15 203.326 172.821 201.528 173.038 199.65C173.206 198.19 173.097 197.272 173.186 197.272Z" fill="#455A64"/>
<path d="M214.127 247.054C214.127 247.054 214.127 247.143 214.127 247.31C214.127 247.478 214.127 247.764 214.068 248.07C213.989 248.78 213.89 249.767 213.772 251.029C213.485 253.604 213.091 257.264 212.598 261.763C211.611 270.869 210.151 283.368 208.592 297.19C208.037 303.696 208.472 310.249 209.885 316.625C210.503 319.402 211.297 322.137 212.262 324.813C213.15 327.339 213.969 329.696 214.729 331.857C216.218 336.139 217.422 339.621 218.27 342.068C218.665 343.252 218.981 344.179 219.257 344.85L219.494 345.58C219.526 345.658 219.546 345.742 219.553 345.826C219.553 345.826 219.553 345.757 219.444 345.59C219.336 345.422 219.276 345.175 219.168 344.879C218.911 344.218 218.576 343.301 218.181 342.127L214.492 331.975C213.722 329.825 212.874 327.467 211.966 324.951C210.978 322.261 210.164 319.509 209.529 316.714C208.077 310.297 207.621 303.696 208.178 297.141C209.717 283.28 211.256 270.79 212.331 261.724C212.894 257.225 213.318 253.565 213.663 251C213.821 249.757 213.949 248.79 214.048 248.04C214.048 247.734 214.127 247.488 214.156 247.291C214.135 247.213 214.125 247.134 214.127 247.054V247.054Z" fill="#455A64"/>
<path d="M169.771 195.82L173.816 185.491L183.04 199.244L170.738 196.175" fill="#FFBE9D"/>
<path d="M266.277 164.775L255.336 140.239C254.024 136.293 251.567 135.682 249.515 133.393L222.099 117.934C202.112 109.745 191.23 137.191 191.23 137.191L173.068 178.626C151.71 185.699 166.833 202.105 166.833 202.105C166.833 202.105 161.023 192.003 166.744 188.363C172.723 184.545 179.352 194.598 185.726 204.148C193.253 215.414 217.699 222.734 217.699 222.734C220.56 219.715 219.761 209.169 222.001 203.506C222.711 201.721 239.64 162.506 239.64 162.506L246.201 178.399C246.201 178.399 254.606 168.533 258.69 166.975C261.152 166.027 263.69 165.291 266.277 164.775V164.775Z" fill="#663AA3"/>
<path d="M217.694 182.218C217.442 182.446 217.164 182.641 216.865 182.8C216.068 183.262 215.233 183.655 214.369 183.974C211.495 185.057 208.391 185.379 205.356 184.911C202.321 184.442 199.459 183.199 197.045 181.301C196.316 180.738 195.639 180.11 195.023 179.426C194.778 179.194 194.572 178.924 194.411 178.627C194.48 178.558 195.398 179.673 197.252 181.024C199.663 182.803 202.468 183.97 205.429 184.427C208.389 184.884 211.416 184.617 214.251 183.649C216.441 182.919 217.694 182.139 217.694 182.218Z" fill="#263238"/>
<path d="M172.308 143.288L189.227 144.886L216.298 116.276L200.375 115.724L172.032 118.525C173.523 126.705 173.617 135.077 172.308 143.288V143.288Z" fill="#663AA3"/>
<path d="M195.761 128.233C195.72 128.418 195.65 128.594 195.554 128.756L194.873 130.216C194.261 131.538 193.403 133.363 192.367 135.573C190.266 140.111 187.434 146.425 184.475 153.43C181.515 160.434 178.694 166.778 176.582 171.326C175.547 173.605 174.688 175.43 174.077 176.692L173.356 178.133C173.281 178.308 173.185 178.474 173.07 178.626C173.12 178.443 173.186 178.265 173.268 178.093L173.899 176.613L176.267 171.187C178.24 166.541 180.992 160.217 183.991 153.232C186.99 146.248 189.911 139.934 192.051 135.425C193.146 133.176 194.024 131.371 194.705 130.128C195.021 129.555 195.268 129.082 195.465 128.707C195.546 128.539 195.646 128.38 195.761 128.233V128.233Z" fill="#263238"/>
<path d="M247.408 136.55C247.457 136.639 246.421 137.181 244.971 138.405C244.139 139.117 243.376 139.907 242.692 140.762C241.858 141.819 241.138 142.96 240.541 144.166C239.969 145.381 239.519 146.65 239.199 147.954C238.951 149.026 238.805 150.12 238.765 151.22C238.696 153.094 238.913 154.258 238.815 154.268C238.711 154.013 238.644 153.744 238.617 153.469C238.543 153.145 238.497 152.815 238.479 152.482C238.429 152.05 238.406 151.615 238.41 151.18C238.403 150.053 238.519 148.928 238.756 147.826C239.052 146.465 239.498 145.142 240.087 143.88C240.705 142.644 241.456 141.48 242.327 140.407C243.048 139.545 243.858 138.761 244.744 138.069C245.078 137.795 245.431 137.544 245.799 137.319C246.065 137.129 246.345 136.961 246.638 136.816C246.879 136.687 247.139 136.597 247.408 136.55V136.55Z" fill="#263238"/>
<path d="M252.132 97.2567L236.259 126.932C235.008 129.266 232.919 131.039 230.413 131.896C227.908 132.753 225.171 132.629 222.753 131.549C221.45 130.96 220.281 130.109 219.32 129.051C218.358 127.993 217.623 126.748 217.161 125.395C216.699 124.041 216.519 122.608 216.632 121.182C216.745 119.757 217.15 118.369 217.82 117.106L220.553 111.956C220.553 111.956 213.647 107.487 216.883 100.029C219.764 93.3796 230.339 74.5958 232.579 70.6299L245.956 76.6182C247.737 77.5469 249.313 78.8231 250.593 80.3715C251.872 81.9199 252.827 83.7091 253.403 85.6331C253.979 87.5572 254.163 89.5771 253.945 91.5736C253.726 93.5701 253.11 95.5025 252.132 97.2567V97.2567Z" fill="#FFBE9D"/>
<path d="M220.554 111.848C223.951 113.443 227.745 113.992 231.455 113.426C231.455 113.426 226.779 117.737 219.676 113.762L220.554 111.848Z" fill="#EB996E"/>
<path d="M225.655 88.1219C225.528 88.3972 225.514 88.711 225.616 88.9965C225.717 89.2821 225.926 89.5168 226.197 89.651C226.327 89.7214 226.47 89.7653 226.617 89.7801C226.764 89.7949 226.913 89.7803 227.054 89.7372C227.195 89.694 227.327 89.6232 227.44 89.5288C227.554 89.4344 227.648 89.3183 227.716 89.1873C227.843 88.912 227.857 88.5982 227.755 88.3126C227.654 88.0271 227.446 87.7923 227.174 87.6582C227.044 87.5877 226.901 87.5438 226.754 87.529C226.607 87.5142 226.459 87.5288 226.317 87.572C226.176 87.6151 226.044 87.686 225.931 87.7804C225.817 87.8748 225.723 87.9909 225.655 88.1219V88.1219Z" fill="#263238"/>
<path d="M225.709 87.1843C225.778 87.3816 226.843 87.1843 227.988 87.6579C229.132 88.1314 229.704 89.1081 229.892 89.0292C230.079 88.9503 229.951 88.6839 229.714 88.2597C229.371 87.6979 228.866 87.2539 228.264 86.987C227.67 86.7207 227.007 86.6482 226.37 86.7799C225.906 86.8884 225.669 87.0561 225.709 87.1843Z" fill="#263238"/>
<path d="M236.32 93.3696C236.191 93.6446 236.175 93.9594 236.277 94.2456C236.378 94.5319 236.589 94.7666 236.862 94.8988C236.993 94.9689 237.136 95.0122 237.283 95.0263C237.431 95.0404 237.58 95.025 237.721 94.9809C237.863 94.9368 237.994 94.8649 238.107 94.7695C238.221 94.6741 238.314 94.5571 238.381 94.4252C238.505 94.151 238.517 93.8396 238.416 93.5564C238.315 93.2732 238.108 93.0401 237.839 92.906C237.709 92.8341 237.566 92.7892 237.419 92.7736C237.272 92.7581 237.123 92.7724 236.981 92.8157C236.839 92.859 236.708 92.9303 236.594 93.0255C236.48 93.1206 236.387 93.2377 236.32 93.3696V93.3696Z" fill="#263238"/>
<path d="M236.823 92.4042C236.892 92.6015 237.958 92.4042 239.102 92.8778C240.246 93.3513 240.819 94.3378 241.006 94.2589C241.193 94.18 241.075 93.9136 240.828 93.4795C240.485 92.921 239.979 92.4805 239.378 92.2168C238.786 91.9457 238.121 91.8731 237.484 92.0096C237.02 92.1181 236.784 92.3154 236.823 92.4042Z" fill="#263238"/>
<path d="M228.902 99.0029C228.384 98.5517 227.814 98.1641 227.205 97.8486C226.929 97.6809 226.672 97.5034 226.711 97.2863C226.751 97.0693 227.007 96.7832 227.294 96.5069L229.148 94.672C230.786 93.1503 232.3 91.5009 233.676 89.7393C231.911 91.1181 230.261 92.6392 228.744 94.2872L226.919 96.1518C226.579 96.4214 226.345 96.8021 226.258 97.2271C226.256 97.3483 226.281 97.4684 226.33 97.5791C226.38 97.6898 226.453 97.7885 226.544 97.8684C226.686 97.9819 226.842 98.078 227.007 98.1545C227.597 98.523 228.234 98.8086 228.902 99.0029Z" fill="#263238"/>
<path d="M231.898 101.293C231.72 101.204 231.168 102.437 229.717 102.842C228.267 103.246 227.004 102.526 226.916 102.694C226.827 102.861 227.103 103.059 227.655 103.325C228.374 103.661 229.189 103.731 229.954 103.522C230.692 103.327 231.323 102.848 231.71 102.19C231.986 101.697 231.986 101.332 231.898 101.293Z" fill="#263238"/>
<path d="M238.527 87.8057C238.527 88.1708 239.701 88.5259 240.964 89.2855C242.226 90.0452 243.154 90.8936 243.45 90.6963C243.588 90.5976 243.529 90.2228 243.233 89.7098C242.812 89.0839 242.256 88.561 241.605 88.1801C240.954 87.7992 240.226 87.5701 239.474 87.5098C238.902 87.5098 238.537 87.638 238.527 87.8057Z" fill="#263238"/>
<path d="M227.603 84.0968C227.692 84.452 228.59 84.5309 229.576 84.9354C230.563 85.3398 231.244 85.9219 231.55 85.7049C231.855 85.4878 231.688 85.2905 231.441 84.8959C231.116 84.3838 230.635 83.9896 230.07 83.7712C229.51 83.5295 228.889 83.4708 228.294 83.6035C227.801 83.6825 227.554 83.8995 227.603 84.0968Z" fill="#263238"/>
<path d="M247.141 101.706C247.298 101.706 252.912 102.476 250.485 107.477C248.058 112.479 243.579 109.006 243.579 108.858C243.579 108.711 247.141 101.706 247.141 101.706Z" fill="#FFBE9D"/>
<path d="M246.047 107.704C246.047 107.704 246.106 107.803 246.215 107.951C246.383 108.138 246.615 108.255 246.866 108.276C247.295 108.233 247.704 108.076 248.051 107.821C248.398 107.566 248.67 107.222 248.839 106.826C249.059 106.404 249.184 105.94 249.204 105.464C249.232 105.285 249.216 105.102 249.158 104.93C249.099 104.758 249 104.603 248.869 104.478C248.78 104.404 248.668 104.364 248.553 104.364C248.438 104.364 248.326 104.404 248.237 104.478C248.109 104.586 248.089 104.695 248.06 104.695C248.03 104.695 247.991 104.557 248.129 104.369C248.219 104.259 248.344 104.183 248.484 104.152C248.672 104.117 248.867 104.156 249.027 104.261C249.211 104.402 249.356 104.587 249.449 104.799C249.542 105.011 249.58 105.244 249.559 105.474C249.561 106.01 249.432 106.538 249.184 107.013C248.993 107.471 248.671 107.861 248.258 108.137C247.846 108.412 247.362 108.56 246.866 108.562C246.713 108.532 246.568 108.469 246.441 108.379C246.313 108.289 246.206 108.173 246.126 108.039C245.998 107.832 246.027 107.704 246.047 107.704Z" fill="#EB996E"/>
<path d="M250.04 102.841C249.576 102.606 249.058 102.498 248.538 102.527C248.018 102.557 247.516 102.723 247.081 103.008C246.43 103.581 245.986 104.37 245.335 104.981C245.034 105.3 244.637 105.509 244.205 105.577C243.773 105.645 243.33 105.567 242.947 105.356C242.723 105.156 242.555 104.9 242.462 104.614C242.368 104.328 242.352 104.023 242.414 103.729C242.547 103.138 242.791 102.579 243.135 102.081C244.486 99.8514 246.035 97.7205 247.199 95.3824C248.466 93.0729 249.018 90.4394 248.787 87.8156C248.654 86.5106 248.171 85.2659 247.39 84.2121C246.608 83.1583 245.558 82.3345 244.348 81.8273C242.72 81.2551 240.905 81.4228 239.238 80.9492C238.251 80.653 237.344 80.1369 236.585 79.4397C235.827 78.7425 235.236 77.8825 234.857 76.9242C234.661 76.5376 234.444 76.1622 234.206 75.7995C234.265 75.6811 234.857 74.6748 235.439 74.4775C239.839 72.9878 245.788 74.6946 249.429 77.5654C251.287 79.0094 252.808 80.8415 253.884 82.934C254.961 85.0264 255.569 87.3288 255.664 89.6802C255.713 94.3169 252.793 99.4272 250.08 102.88" fill="#263238"/>
<path d="M250.091 102.298C251.482 99.93 253.731 98.2232 255.448 96.0923C257.164 93.9614 258.408 90.9524 257.125 88.5058C256.711 87.6672 256.04 86.9668 255.695 86.0986C255.421 85.1973 255.256 84.2667 255.201 83.3264C254.978 81.8895 254.433 80.5217 253.606 79.3257C252.779 78.1297 251.692 77.1365 250.426 76.4206C248.67 75.4341 246.648 75.0395 244.862 74.1023C242.051 72.6225 239.989 69.8799 236.97 68.7059C236.494 68.4739 235.975 68.3451 235.446 68.3281C234.918 68.3111 234.391 68.4062 233.902 68.6072C233.668 68.7211 233.46 68.883 233.293 69.0825C233.125 69.2819 233.002 69.5143 232.93 69.7647C232.858 70.015 232.84 70.2776 232.877 70.5354C232.913 70.7932 233.004 71.0405 233.142 71.261C233.084 71.0338 232.976 70.822 232.828 70.6407C232.679 70.4593 232.492 70.3128 232.28 70.2112C232.069 70.1097 231.838 70.0557 231.603 70.053C231.369 70.0503 231.136 70.0989 230.922 70.1956C230.503 70.4244 230.16 70.7721 229.937 71.1951C229.714 71.6181 229.621 72.0975 229.67 72.5731C229.785 73.5227 230.157 74.4229 230.745 75.1776C232.574 77.7707 235.267 79.6278 238.341 80.4161L245.158 79.8834L250.742 84.017L254.866 90.5973L247.378 100.325L250.091 102.298Z" fill="#263238"/>
<path d="M207.487 63.4762C207.21 59.1778 205.783 55.0326 203.357 51.4737C200.93 47.9149 197.592 45.073 193.692 43.245C189.792 41.417 185.472 40.67 181.184 41.0819C176.897 41.4939 172.798 43.0497 169.317 45.5869C165.837 48.124 163.101 51.5494 161.396 55.5052C159.692 59.4609 159.081 63.8019 159.627 68.0745C160.173 72.3471 161.857 76.3946 164.502 79.7941C167.147 83.1936 170.657 85.8203 174.664 87.3999C174.852 90.2412 175.059 93.4573 175.059 93.4573L196.092 92.0959C196.092 92.0959 196.003 88.6923 195.845 85.6537C199.637 83.3847 202.73 80.1141 204.784 76.2015C206.837 72.2889 207.773 67.8858 207.487 63.4762V63.4762Z" fill="#663AA3"/>
<path d="M188.478 92.4914C188.478 92.4914 188.478 92.3829 188.478 92.1955C188.478 92.008 188.478 91.6923 188.478 91.3174C188.478 90.5578 188.586 89.4233 188.705 87.9731C188.823 86.5228 188.991 84.7372 189.317 82.6951C189.677 80.3683 190.261 78.082 191.063 75.8682C191.534 74.5795 192.119 73.3349 192.809 72.1489C193.185 71.5013 193.717 70.9585 194.358 70.5704C194.704 70.3772 195.092 70.27 195.489 70.258C195.885 70.246 196.279 70.3295 196.637 70.5014C197.015 70.6837 197.309 71.0054 197.456 71.3991C197.618 71.7976 197.618 72.2437 197.456 72.6422C197.103 73.409 196.482 74.0199 195.709 74.3588C194.895 74.6776 194.025 74.8317 193.151 74.8121C192.277 74.7924 191.415 74.5994 190.616 74.2443C189.816 73.8892 189.096 73.379 188.495 72.7433C187.894 72.1075 187.426 71.3589 187.117 70.5408C186.752 69.6687 186.639 68.7116 186.791 67.7785C186.874 67.2823 187.127 66.8305 187.507 66.5009C187.887 66.1714 188.37 65.9847 188.873 65.9731C189.133 65.9816 189.387 66.0568 189.61 66.1915C189.832 66.3263 190.017 66.5161 190.145 66.7427C190.41 67.1801 190.512 67.6975 190.431 68.2027C190.199 69.1759 189.664 70.05 188.902 70.6987C188.177 71.3961 187.312 71.9323 186.365 72.2723C185.419 72.6124 184.41 72.7485 183.407 72.6718C182.402 72.5772 181.434 72.2407 180.587 71.691C179.74 71.1412 179.039 70.3946 178.543 69.5148C178.289 69.0814 178.127 68.6 178.067 68.1008C178.008 67.6016 178.052 67.0955 178.198 66.6144C178.27 66.3676 178.394 66.1394 178.564 65.9461C178.733 65.7527 178.943 65.5989 179.178 65.4954C179.413 65.3919 179.668 65.3413 179.925 65.3471C180.182 65.353 180.434 65.4151 180.665 65.5292C181.119 65.7393 181.497 66.0837 181.75 66.5157C181.985 66.9369 182.139 67.3988 182.204 67.8772C182.33 68.8011 182.266 69.7411 182.016 70.6395C181.553 72.4005 180.434 73.9179 178.889 74.8816C177.414 75.7861 175.665 76.1358 173.956 75.8682C173.125 75.7904 172.343 75.4441 171.726 74.8816C171.425 74.5878 171.232 74.2002 171.18 73.7825C171.128 73.3647 171.22 72.9417 171.44 72.583C171.696 72.2527 172.072 72.0364 172.486 71.9812C172.88 71.9308 173.281 71.9817 173.65 72.1292C174.331 72.4615 174.882 73.0096 175.219 73.6879C175.909 74.9507 176.472 76.1839 177.044 77.3579C179.274 82.0735 180.891 85.9704 181.977 88.6735C182.519 90.0251 182.963 91.0807 183.2 91.791C183.328 92.1461 183.427 92.4224 183.506 92.6098C183.542 92.703 183.572 92.7986 183.595 92.8959L183.476 92.6197L183.141 91.8206L181.868 88.713C180.743 86.0296 179.096 82.1426 176.847 77.4466C176.274 76.2825 175.692 75.0296 175.012 73.7964C174.695 73.1674 174.183 72.6584 173.552 72.3462C173.233 72.196 172.874 72.1514 172.528 72.2188C172.182 72.2862 171.867 72.4622 171.628 72.7211C171.449 73.0341 171.379 73.3977 171.429 73.7548C171.479 74.112 171.646 74.4424 171.904 74.6942C172.479 75.2187 173.21 75.5409 173.986 75.6117C175.634 75.8571 177.317 75.5074 178.731 74.6251C180.197 73.6856 181.254 72.2267 181.691 70.5408C181.932 69.6779 181.992 68.7744 181.868 67.887C181.839 67.446 181.698 67.0196 181.458 66.6484C181.218 66.2772 180.887 65.9734 180.497 65.766C180.3 65.6756 180.087 65.6289 179.87 65.6289C179.654 65.6289 179.44 65.6756 179.244 65.766C179.044 65.8613 178.868 65.999 178.726 66.1693C178.585 66.3396 178.482 66.5386 178.425 66.7525C178.293 67.1949 178.253 67.66 178.309 68.1184C178.365 68.5769 178.515 69.0187 178.751 69.4162C179.231 70.2441 179.902 70.945 180.709 71.4599C181.516 71.9749 182.434 72.2889 183.387 72.3758C184.349 72.447 185.314 72.3142 186.22 71.986C187.126 71.6579 187.953 71.1419 188.646 70.4718C189.351 69.8702 189.852 69.0631 190.076 68.1633C190.145 67.7233 190.058 67.2729 189.83 66.8906C189.724 66.7069 189.573 66.5527 189.392 66.4424C189.211 66.3321 189.005 66.2691 188.794 66.2592C188.358 66.262 187.939 66.4274 187.62 66.7229C187.298 67.0168 187.083 67.4088 187.008 67.8377C186.862 68.7173 186.968 69.6203 187.314 70.4422C187.609 71.2336 188.059 71.9581 188.637 72.5733C189.216 73.1884 189.912 73.6819 190.684 74.0246C191.455 74.3674 192.288 74.5525 193.132 74.5692C193.977 74.586 194.816 74.4339 195.601 74.122C196.314 73.8105 196.89 73.2492 197.219 72.5435C197.36 72.211 197.369 71.8373 197.245 71.4982C197.12 71.1592 196.871 70.8803 196.548 70.7184C196.225 70.5623 195.869 70.4862 195.51 70.4965C195.151 70.5068 194.8 70.6032 194.486 70.7776C193.889 71.1447 193.391 71.6529 193.036 72.2574C192.351 73.4279 191.77 74.6559 191.299 75.9274C190.489 78.1202 189.894 80.3868 189.524 82.6951C189.178 84.7372 188.991 86.513 188.853 87.9632C188.715 89.4134 188.646 90.5282 188.577 91.3076C188.577 91.6726 188.517 91.9686 188.508 92.1757C188.498 92.3829 188.478 92.4914 188.478 92.4914Z" fill="#263238"/>
<path d="M194.72 96.091L176.666 97.265C176.305 97.2867 175.951 97.1652 175.679 96.9269C175.408 96.6886 175.241 96.3527 175.216 95.9923C175.194 95.6327 175.316 95.2792 175.555 95.0092C175.793 94.7393 176.129 94.5748 176.488 94.552L194.552 93.3879C194.73 93.3758 194.908 93.399 195.076 93.456C195.245 93.513 195.401 93.6027 195.535 93.72C195.668 93.8374 195.778 93.98 195.856 94.1397C195.935 94.2994 195.981 94.473 195.992 94.6506V94.6506C196.014 95.0103 195.892 95.3638 195.654 95.6338C195.415 95.9037 195.079 96.0682 194.72 96.091V96.091Z" fill="#263238"/>
<path d="M194.8 97.2745L176.736 98.4485C176.377 98.472 176.043 98.637 175.806 98.9071C175.569 99.1772 175.45 99.5304 175.473 99.8888C175.497 100.247 175.662 100.582 175.932 100.819C176.202 101.055 176.555 101.175 176.913 101.152L178.887 101.023L181.846 105.867C182.015 106.138 182.253 106.357 182.536 106.503C182.819 106.649 183.136 106.716 183.454 106.696L189.906 106.282C190.226 106.257 190.532 106.147 190.794 105.963C191.056 105.779 191.264 105.528 191.396 105.236L193.626 100.076L194.977 99.9875C195.323 99.9458 195.639 99.7733 195.862 99.5053C196.084 99.2374 196.195 98.8944 196.173 98.5469C196.15 98.1995 195.995 97.8739 195.739 97.6372C195.484 97.4006 195.148 97.2708 194.8 97.2745V97.2745Z" fill="#263238"/>
<g opacity="0.2">
<path opacity="0.2" d="M167.081 50.7312C168.412 49.3159 169.969 48.1323 171.689 47.2289C172.814 46.6135 174.024 46.168 175.28 45.907C176.187 45.759 176.71 45.8083 176.769 45.9958C176.897 46.4298 175.122 47.1895 172.823 48.9554C169.752 51.1898 167.39 54.2605 166.016 57.8011C164.643 61.3416 164.318 65.2025 165.079 68.923C165.602 71.8333 166.401 73.5894 166.065 73.8557C165.888 73.9643 165.473 73.6486 164.911 72.9284C164.138 71.8875 163.533 70.7325 163.115 69.5051C162.476 67.6781 162.143 65.7581 162.129 63.8226C162.083 61.4139 162.502 59.019 163.362 56.7688" fill="white"/>
</g>
<g opacity="0.2">
<path opacity="0.2" d="M182.625 46.667C181.105 46.746 179.734 46.4204 179.527 45.6213C179.438 45.2267 179.695 44.7827 180.217 44.4177C180.894 44.0063 181.662 43.7661 182.452 43.718C183.243 43.6699 184.034 43.8152 184.755 44.1415C185.328 44.4473 185.624 44.8617 185.584 45.2661" fill="white"/>
</g>
<path d="M191.064 105.68C190.634 105.605 190.209 105.503 189.791 105.374C188.777 105.16 187.736 105.097 186.703 105.187C185.685 105.297 184.689 105.552 183.744 105.946C183.014 106.262 182.58 106.519 182.56 106.479C182.879 106.175 183.249 105.931 183.655 105.759C184.614 105.291 185.65 105.001 186.713 104.901C187.777 104.798 188.85 104.892 189.88 105.177C190.3 105.277 190.7 105.447 191.064 105.68Z" fill="#455A64"/>
<path d="M193.678 100.136C193.678 100.214 190.423 100.491 186.388 100.757C182.353 101.023 179.097 101.162 179.087 101.073C179.078 100.984 182.343 100.718 186.368 100.461C190.393 100.205 193.669 100.057 193.678 100.136Z" fill="#455A64"/>
<path d="M192.675 102.355C192.095 102.499 191.505 102.595 190.909 102.641C189.814 102.789 188.295 102.947 186.608 103.085C184.921 103.223 183.402 103.292 182.297 103.322C181.703 103.376 181.105 103.376 180.511 103.322C181.096 103.203 181.69 103.137 182.287 103.125L186.588 102.799L190.889 102.444C191.481 102.364 192.078 102.334 192.675 102.355Z" fill="#455A64"/>
<path d="M62.6138 223.198L66.5599 229.483C66.5599 229.483 83.3312 214.083 99.8952 218.433C99.8656 218.414 84.9491 205.766 62.6138 223.198Z" fill="#663AA3"/>
<path d="M99.8635 218.412C99.8635 218.412 112.146 205.074 130.16 208.112L135.093 208.852L133.534 206.021C133.534 206.021 102.172 195.287 99.8635 218.412Z" fill="#663AA3"/>
<path d="M73.9367 173.437C73.9367 173.437 49.3323 169.204 33.2122 177.935L58.8623 226.158C58.8623 226.158 79.8362 205.943 99.9025 218.393L73.9367 173.437Z" fill="#F5F5F5"/>
<path d="M73.9392 173.437C73.9899 173.5 74.0361 173.566 74.0774 173.635L74.4424 174.246L75.863 176.644L81.1903 185.779L100.053 218.335C100.077 218.376 100.086 218.424 100.079 218.471C100.073 218.518 100.051 218.562 100.018 218.596C99.9842 218.629 99.9405 218.651 99.8934 218.657C99.8463 218.664 99.7984 218.655 99.7571 218.631C96.865 216.843 93.6622 215.614 90.3159 215.01C88.5583 214.726 86.7786 214.6 84.9984 214.636C83.1673 214.716 81.3459 214.947 79.5527 215.326C71.9724 217.189 64.979 220.92 59.2102 226.178L58.9931 226.375C58.971 226.399 58.9442 226.418 58.9145 226.431C58.8848 226.443 58.8528 226.45 58.8205 226.45C58.7881 226.45 58.7561 226.443 58.7264 226.431C58.6967 226.418 58.67 226.399 58.6478 226.375V226.326L33.0273 178.035C33.0137 178.012 33.0049 177.987 33.0016 177.961C32.9982 177.936 33.0003 177.909 33.0077 177.884C33.0152 177.859 33.0278 177.836 33.0447 177.816C33.0617 177.796 33.0826 177.78 33.1062 177.768V177.768C38.2477 175.203 43.7956 173.551 49.5026 172.885C53.8577 172.349 58.2483 172.158 62.6335 172.313C66.2639 172.441 69.0953 172.727 71.0092 172.964C71.9958 173.082 72.7061 173.191 73.1993 173.28L73.7617 173.378H73.9392H73.7518L73.1895 173.309C72.6962 173.25 71.9662 173.151 70.9994 173.053C69.0263 172.855 66.2442 172.609 62.6236 172.52C58.2558 172.399 53.8852 172.62 49.5519 173.181C43.8921 173.877 38.3951 175.546 33.3035 178.114L33.3825 177.847L59.0326 226.07L58.6478 226L58.8649 225.803C61.856 223.13 65.1467 220.813 68.6711 218.897C72.0517 217.035 75.6786 215.66 79.4442 214.813C81.2656 214.424 83.1174 214.193 84.9787 214.123C86.7888 214.081 88.5989 214.21 90.3849 214.507C93.7838 215.133 97.036 216.387 99.9741 218.207L99.6683 218.503L81.0128 185.947L75.7644 176.733L74.3931 174.286C74.2451 174.01 74.1267 173.802 74.0478 173.645C74.0068 173.578 73.9705 173.509 73.9392 173.437Z" fill="#263238"/>
<path d="M112.609 163.543C112.609 163.543 94.003 151.704 74.2524 173.408L100.179 218.385C100.179 218.385 105.467 200.134 136.424 206.477L112.609 163.543Z" fill="#F5F5F5"/>
<path d="M112.608 163.541C112.659 163.598 112.702 163.661 112.736 163.728C112.815 163.876 112.934 164.064 113.072 164.31L114.384 166.599L119.316 175.32L136.611 206.426C136.625 206.45 136.634 206.476 136.637 206.504C136.641 206.531 136.639 206.559 136.631 206.586C136.624 206.612 136.611 206.637 136.594 206.659C136.577 206.681 136.556 206.699 136.532 206.712C136.484 206.73 136.431 206.73 136.384 206.712L131.776 205.952C130.99 205.819 130.196 205.73 129.399 205.686L126.972 205.489C126.149 205.42 125.322 205.4 124.496 205.43L122 205.439C121.151 205.439 120.313 205.607 119.464 205.686C118.608 205.756 117.758 205.885 116.919 206.071L114.384 206.643L111.888 207.521C111.067 207.852 110.264 208.224 109.481 208.636C109.074 208.821 108.684 209.042 108.317 209.297L107.182 210.027C106.432 210.53 105.761 211.142 105.061 211.704C104.4 212.323 103.777 212.982 103.196 213.677C102.002 215.079 101.067 216.683 100.434 218.413C100.412 218.474 100.366 218.524 100.307 218.552C100.248 218.58 100.18 218.583 100.118 218.561C100.064 218.541 100.018 218.503 99.9901 218.452L98.9443 216.647C89.7794 200.714 81.1866 185.866 74.0933 173.466C74.0695 173.429 74.0569 173.386 74.0569 173.342C74.0569 173.299 74.0695 173.256 74.0933 173.219C78.0091 168.785 82.7853 165.194 88.1318 162.663C92.2803 160.769 96.8282 159.916 101.381 160.177C104.289 160.351 107.15 160.99 109.856 162.071C110.564 162.362 111.255 162.691 111.927 163.058L112.44 163.354L112.598 163.472L112.421 163.383L111.898 163.117C111.434 162.89 110.743 162.554 109.816 162.199C106.355 160.882 102.665 160.272 98.964 160.406C95.2632 160.54 91.6268 161.415 88.2699 162.979C82.984 165.516 78.2658 169.097 74.3991 173.505V173.268L99.3094 216.479L100.395 218.265L99.9407 218.324C100.593 216.524 101.558 214.854 102.792 213.391C103.394 212.677 104.033 211.996 104.706 211.349C105.436 210.767 106.116 210.135 106.886 209.632L108.04 208.883C108.418 208.625 108.817 208.4 109.234 208.212C110.063 207.827 110.842 207.363 111.69 207.067L114.226 206.189L116.811 205.607C117.662 205.416 118.526 205.287 119.395 205.222C120.254 205.144 121.102 204.986 121.951 204.976H124.486C125.318 204.936 126.152 204.956 126.982 205.035L129.429 205.242C130.232 205.281 131.033 205.369 131.826 205.509L136.463 206.288L136.236 206.604C129.162 193.779 123.253 183.035 119.09 175.468C117.028 171.71 115.4 168.73 114.285 166.678L113.022 164.35C112.894 164.093 112.786 163.896 112.707 163.748C112.628 163.6 112.608 163.541 112.608 163.541Z" fill="#263238"/>
<path d="M40.123 154.75L67.8745 208.171C67.8745 208.171 90.417 207.185 99.9668 218.175L74.2574 173.435C74.2574 173.435 59.1831 154.75 40.123 154.75Z" fill="#F5F5F5"/>
<path d="M40.1214 154.751H40.8318L42.9627 154.84C43.1995 154.84 43.456 154.84 43.7125 154.84L44.5313 154.978L46.386 155.284C47.1046 155.403 47.8135 155.575 48.5071 155.797C49.311 155.99 50.1046 156.224 50.8846 156.498C57.5142 158.707 66.4128 164.054 74.4038 173.269L100.153 217.979C100.185 218.035 100.194 218.102 100.177 218.165C100.161 218.228 100.12 218.281 100.064 218.314C100.022 218.348 99.9696 218.366 99.9158 218.366C99.862 218.366 99.8098 218.348 99.7678 218.314V218.314L98.6826 217.229C96.6194 215.248 94.2124 213.66 91.5795 212.543C89.0293 211.403 86.3679 210.53 83.6379 209.939C78.4576 208.789 73.1581 208.266 67.8532 208.38V208.38C67.8112 208.38 67.77 208.369 67.7336 208.349C67.6972 208.328 67.667 208.298 67.646 208.261C59.5563 192.575 52.6505 179.168 47.7474 169.678C45.36 164.992 43.4461 161.243 42.0945 158.658C41.4533 157.405 40.9501 156.428 40.6048 155.698L40.23 154.959L40.1116 154.712C40.1705 154.795 40.2201 154.884 40.2596 154.978L40.6739 155.738L42.2326 158.698L48.0138 169.767L68.0406 208.064L67.8334 207.946C73.1738 207.816 78.5103 208.333 83.7266 209.485C86.4857 210.084 89.1765 210.963 91.7571 212.109C94.4417 213.255 96.8954 214.879 98.9983 216.904L100.123 218.009L99.7185 218.295C90.1786 201.671 81.3491 186.262 74.0684 173.545C70.5021 169.382 66.4213 165.689 61.924 162.555C58.4919 160.13 54.7489 158.179 50.7958 156.754C50.0193 156.474 49.229 156.234 48.4281 156.034C47.7419 155.804 47.0395 155.626 46.3268 155.501L44.482 155.166L43.6829 155.018L42.9528 154.959L40.1214 154.751Z" fill="#263238"/>
<path d="M126.741 306.264L127.332 307.25C128.001 308.361 128.973 309.258 130.134 309.835L131.121 310.348L130.134 310.94C129.027 311.613 128.131 312.584 127.55 313.742L127.037 314.778L126.445 313.791C125.776 312.68 124.804 311.783 123.643 311.206L122.607 310.693L123.593 310.101C124.707 309.436 125.604 308.463 126.178 307.3L126.741 306.264Z" fill="#663AA3"/>
<path d="M72.0446 102.769L72.6365 103.755C73.3058 104.863 74.278 105.756 75.4383 106.33L76.4249 106.843L75.4383 107.445C74.3232 108.108 73.4252 109.082 72.8536 110.247L72.3406 111.233L71.7486 110.247C71.079 109.133 70.1029 108.236 68.937 107.662L67.9011 107.149L68.8877 106.557C69.9964 105.881 70.8923 104.907 71.4724 103.745L72.0446 102.769Z" fill="#663AA3"/>
<path d="M325.171 137.88L325.763 138.866C326.433 139.98 327.409 140.877 328.575 141.451L329.611 141.964L328.624 142.556C327.516 143.229 326.622 144.204 326.049 145.368L325.536 146.354L324.935 145.368C324.268 144.258 323.295 143.364 322.133 142.793L321.087 142.3L322.074 141.698C323.189 141.034 324.087 140.061 324.658 138.896L325.171 137.88Z" fill="#663AA3"/>
<path d="M295.28 319.039L295.872 320.026C296.545 321.134 297.52 322.028 298.684 322.6L299.719 323.113L298.733 323.715C297.622 324.384 296.726 325.356 296.148 326.517L295.645 327.553L295.043 326.566C294.378 325.453 293.405 324.556 292.241 323.982L291.206 323.469L292.192 322.877C293.306 322.207 294.203 321.231 294.777 320.065L295.28 319.039Z" fill="#663AA3"/>
<path d="M300.97 357.107L301.256 357.226C301.57 357.348 301.911 357.382 302.243 357.324L302.549 357.265L302.43 357.551C302.308 357.865 302.274 358.206 302.332 358.538L302.391 358.844L302.105 358.725C301.791 358.604 301.45 358.569 301.118 358.627L300.812 358.686L300.931 358.4C301.053 358.086 301.087 357.745 301.03 357.413L300.97 357.107Z" fill="#663AA3"/>
<path d="M318.186 99.6914L318.462 99.8098C318.776 99.9306 319.117 99.9647 319.449 99.9084L319.745 99.8493L319.636 100.135C319.509 100.448 319.475 100.79 319.538 101.122L319.597 101.428L319.311 101.309C318.997 101.189 318.656 101.154 318.324 101.211L318.028 101.27L318.137 100.984C318.264 100.671 318.298 100.329 318.235 99.9972L318.186 99.6914Z" fill="#663AA3"/>
<path d="M83.1644 76.2012L83.4505 76.3097C83.7631 76.4367 84.1056 76.4709 84.4371 76.4083H84.7429L84.6245 76.6846C84.5037 76.9986 84.4696 77.3394 84.5259 77.6711L84.5851 77.9671L84.299 77.8586C83.9864 77.7316 83.6439 77.6974 83.3124 77.7599H83.0066L83.125 77.4837C83.2458 77.1696 83.2799 76.8289 83.2236 76.4971L83.1644 76.2012Z" fill="#663AA3"/>
<path d="M112.136 276.627L112.422 276.735C112.734 276.867 113.077 276.901 113.409 276.834L113.715 276.785L113.596 277.071C113.474 277.385 113.44 277.726 113.498 278.057L113.557 278.353L113.271 278.245C112.958 278.118 112.616 278.084 112.284 278.146L111.978 278.205L112.097 277.919C112.218 277.605 112.252 277.265 112.195 276.933L112.136 276.627Z" fill="#663AA3"/>
<path d="M143.623 354.101L143.346 354.387L142.527 355.206L139.341 358.353L127.502 369.767V369.649C128.124 382.03 128.913 398.801 129.742 417.545V417.96L129.387 417.733L125.115 414.872L98.0442 396.749H97.985V396.69C93.9402 384.624 90.5366 374.443 88.1196 367.261C86.9357 363.69 86.0084 360.868 85.3573 358.915L84.647 356.695C84.568 356.458 84.5088 356.271 84.4694 356.133C84.4694 355.995 84.4102 355.936 84.4201 355.936L84.499 356.113L84.7062 356.675C84.8837 357.198 85.1402 357.928 85.4757 358.875L88.3366 367.192C90.7833 374.364 94.2559 384.516 98.3402 396.561L98.2613 396.463L125.362 414.556L129.633 417.407L129.298 417.594C128.499 398.85 127.779 382.079 127.246 369.678V369.609H127.295L139.213 358.303L142.458 355.255L143.307 354.475C143.514 354.18 143.623 354.101 143.623 354.101Z" fill="#663AA3"/>
<path d="M131.008 411.873L130.92 414.665L133.179 416.322L130.495 417.102L129.617 419.756L128.039 417.447L125.247 417.437L126.964 415.227L126.105 412.564L128.739 413.511L131.008 411.873Z" fill="#663AA3"/>
<path d="M98.3933 392.922L98.4525 394.727L99.9718 395.714L98.2651 396.316L97.8014 398.072L96.6965 396.641L94.8911 396.74L95.9073 395.24L95.2561 393.553L96.9924 394.066L98.3933 392.922Z" fill="#663AA3"/>
<path d="M84.3498 352.542L85.7112 354.298L87.9309 354.16L86.6879 356.005L87.4968 358.067L85.3659 357.455L83.6493 358.866L83.5704 356.646L81.7058 355.452L83.7874 354.693L84.3498 352.542Z" fill="#663AA3"/>
<path d="M142.243 350.796L143.614 352.542L145.824 352.414L144.581 354.249L145.39 356.321L143.259 355.699L141.542 357.11L141.473 354.89L139.599 353.696L141.69 352.937L142.243 350.796Z" fill="#663AA3"/>
<path d="M127.055 367.704L127.924 368.829L129.334 368.74L128.545 369.914L129.058 371.236L127.697 370.841L126.602 371.739L126.552 370.328L125.359 369.559L126.69 369.075L127.055 367.704Z" fill="#663AA3"/>
<path d="M74.8379 293.095C85.7023 293.095 94.5096 284.288 94.5096 273.424C94.5096 262.559 85.7023 253.752 74.8379 253.752C63.9736 253.752 55.1663 262.559 55.1663 273.424C55.1663 284.288 63.9736 293.095 74.8379 293.095Z" fill="#663AA3"/>
<g opacity="0.3">
<path opacity="0.3" d="M72.2775 279.56C72.2794 280.197 72.0922 280.82 71.7396 281.35C71.3869 281.881 70.8847 282.294 70.2967 282.539C69.7086 282.784 69.0611 282.848 68.4363 282.724C67.8115 282.601 67.2376 282.294 66.7872 281.844C66.3368 281.393 66.0303 280.819 65.9065 280.195C65.7828 279.57 65.8473 278.922 66.0919 278.334C66.3366 277.746 66.7503 277.244 67.2807 276.891C67.8111 276.539 68.4343 276.352 69.0712 276.354C69.9208 276.356 70.7348 276.695 71.3355 277.295C71.9362 277.896 72.2749 278.71 72.2775 279.56V279.56Z" fill="white"/>
</g>
<g opacity="0.3">
<path opacity="0.3" d="M67.7386 270.306C67.7405 270.677 67.6323 271.04 67.4275 271.35C67.2227 271.66 66.9307 271.901 66.5883 272.045C66.246 272.188 65.8688 272.227 65.5046 272.155C65.1403 272.084 64.8054 271.907 64.5423 271.645C64.2791 271.383 64.0996 271.049 64.0265 270.685C63.9534 270.321 63.9899 269.944 64.1315 269.601C64.2731 269.258 64.5133 268.964 64.8218 268.758C65.1302 268.552 65.493 268.441 65.8642 268.441C66.3596 268.441 66.8349 268.638 67.1861 268.987C67.5373 269.336 67.736 269.811 67.7386 270.306V270.306Z" fill="white"/>
</g>
<path d="M55.7471 278.207C55.8359 278.553 38.9068 294.791 43.2772 298.254C47.6476 301.717 65.9677 292.838 81.6438 280.2C97.32 267.563 111.585 252.212 107.669 248.147C103.752 244.083 84.199 256.109 84.199 256.109L86.5371 257.608C86.5371 257.608 98.3756 250.022 102.105 252.962C105.834 255.902 95.1989 267.405 80.1344 278.395C65.0699 289.385 50.5381 297.08 48.2987 294.071C46.0592 291.062 56.6843 281.029 56.6843 281.029L55.7471 278.207Z" fill="#663AA3"/>
<g opacity="0.3">
<path opacity="0.3" d="M55.7478 278.206C55.8366 278.552 38.9075 294.79 43.2779 298.253C47.6483 301.716 65.9684 292.837 81.6446 280.199C97.3207 267.562 111.586 252.211 107.67 248.147C103.753 244.082 84.1997 256.108 84.1997 256.108L86.5378 257.607C86.5378 257.607 98.3763 250.021 102.105 252.961C105.835 255.901 95.1997 267.404 80.1352 278.394C65.0706 289.384 50.5389 297.079 48.2994 294.07C46.06 291.061 56.685 281.028 56.685 281.028L55.7478 278.206Z" fill="black"/>
</g>
<g opacity="0.3">
<path opacity="0.3" d="M63.9936 259.563C64.1515 259.751 62.8196 260.885 61.3102 263.154C59.3077 266.07 58.2032 269.508 58.133 273.044C58.0629 276.581 59.0303 280.06 60.9156 283.053C62.3362 285.391 63.6187 286.575 63.451 286.752C63.2833 286.93 61.7739 285.983 60.0178 283.655C59.0036 282.292 58.1989 280.786 57.6304 279.186C56.1909 275.202 56.2787 270.826 57.877 266.903C58.5064 265.322 59.3711 263.845 60.4421 262.523C62.2869 260.274 63.9048 259.425 63.9936 259.563Z" fill="white"/>
</g>
<path d="M302.899 100.809C309.361 94.5991 309.565 84.3257 303.355 77.8632C297.145 71.4007 286.871 71.1962 280.409 77.4066C273.946 83.6169 273.742 93.8903 279.952 100.353C286.163 106.815 296.436 107.02 302.899 100.809Z" fill="#663AA3"/>
<g opacity="0.4">
<path opacity="0.4" d="M296.95 82.9132C296.962 82.3905 297.129 81.883 297.429 81.4549C297.729 81.0268 298.149 80.6974 298.637 80.5082C299.124 80.319 299.657 80.2786 300.167 80.3921C300.678 80.5056 301.143 80.7679 301.504 81.1458C301.866 81.5237 302.107 82.0003 302.197 82.5152C302.288 83.0302 302.224 83.5604 302.013 84.0389C301.802 84.5174 301.454 84.9227 301.013 85.2034C300.572 85.4842 300.058 85.6279 299.535 85.6163C299.187 85.6099 298.844 85.5348 298.526 85.3952C298.207 85.2556 297.92 85.0544 297.68 84.8031C297.439 84.5518 297.251 84.2554 297.126 83.9311C297.001 83.6067 296.941 83.2608 296.95 82.9132Z" fill="black"/>
</g>
<g opacity="0.4">
<path opacity="0.4" d="M302.235 89.0862C302.241 88.7795 302.338 88.4815 302.514 88.23C302.689 87.9784 302.935 87.7846 303.221 87.6732C303.507 87.5618 303.819 87.5377 304.119 87.604C304.418 87.6704 304.691 87.8241 304.903 88.0458C305.115 88.2675 305.257 88.5471 305.31 88.8492C305.363 89.1514 305.324 89.4624 305.2 89.7429C305.076 90.0234 304.872 90.2607 304.613 90.4248C304.353 90.5889 304.051 90.6724 303.745 90.6646C303.542 90.6608 303.342 90.6168 303.156 90.5353C302.97 90.4538 302.802 90.3363 302.662 90.1895C302.521 90.0428 302.411 89.8698 302.338 89.6804C302.265 89.4911 302.23 89.2891 302.235 89.0862V89.0862Z" fill="black"/>
</g>
<g opacity="0.4">
<path opacity="0.4" d="M300.169 93.8255C300.243 93.8255 300.316 93.8404 300.385 93.8694C300.453 93.8984 300.515 93.9409 300.566 93.9943C300.618 94.0477 300.658 94.1109 300.685 94.1803C300.711 94.2496 300.724 94.3235 300.721 94.3977C300.716 94.5487 300.652 94.6917 300.544 94.7966C300.435 94.9015 300.29 94.9602 300.139 94.9601C299.989 94.9549 299.847 94.891 299.744 94.7821C299.64 94.6732 299.584 94.5281 299.587 94.378C299.588 94.3033 299.604 94.2296 299.634 94.1612C299.664 94.0928 299.707 94.0311 299.762 93.9797C299.816 93.9282 299.88 93.8881 299.95 93.8617C300.019 93.8352 300.094 93.8229 300.169 93.8255V93.8255Z" fill="black"/>
</g>
<defs>
<linearGradient id="paint0_linear_2335_42361" x1="204.251" y1="0" x2="204.251" y2="444" gradientUnits="userSpaceOnUse">
<stop stop-color="#FFE8D7"/>
<stop offset="1" stop-color="white"/>
</linearGradient>
</defs>
</svg>
