<svg width="21" height="26" viewBox="0 0 21 26" fill="none" xmlns="http://www.w3.org/2000/svg">
<path fill-rule="evenodd" clip-rule="evenodd" d="M14.28 2.59997H16.8C17.2452 2.60134 17.6717 2.78439 17.9865 3.10915C18.3013 3.43393 18.4787 3.874 18.48 4.33328V8.66655H16.8V4.33328H14.28V6.93324H4.2V4.33328H1.68V22.533H9.24V24.2663H1.68C1.23484 24.265 0.808303 24.0819 0.493533 23.7572C0.178751 23.4324 0.00133301 22.9923 0 22.533V4.33328C0.00133301 3.874 0.178751 3.43393 0.493533 3.10915C0.808303 2.78439 1.23484 2.60134 1.68 2.59997H4.2V1.73331C4.20133 1.27404 4.37875 0.833965 4.69353 0.509181C5.0083 0.184423 5.43484 0.00137531 5.88 0H12.6C13.0452 0.00137531 13.4717 0.184423 13.7865 0.509181C14.1013 0.833965 14.2787 1.27404 14.28 1.73331V2.59997ZM5.88 5.19993H12.6V1.73331H5.88V5.19993Z" fill="#444444"/>
<path fill-rule="evenodd" clip-rule="evenodd" d="M20.3925 13.1146C20.7928 13.8779 21.0017 14.7323 21 15.6001C20.9996 16.3302 20.8498 17.0519 20.5603 17.718C20.2707 18.3841 19.8481 18.9796 19.32 19.4654V26L15.96 24.3586L12.6 26V19.4654C11.9731 18.8869 11.4964 18.1556 11.2135 17.3384C10.9307 16.5211 10.8506 15.6438 10.9805 14.7863C11.1104 13.9289 11.4463 13.1187 11.9575 12.4295C12.4687 11.7403 13.1389 11.1941 13.9071 10.8406C14.6753 10.4871 15.517 10.3376 16.3555 10.4057C17.1941 10.4739 18.0028 10.7574 18.7079 11.2305C19.413 11.7037 19.9921 12.3514 20.3925 13.1146ZM15.96 22.4407L17.64 23.2614V20.4968C16.5543 20.9013 15.3657 20.9013 14.28 20.4968V23.2614L15.96 22.4407ZM14.0933 18.4825C14.6458 18.8635 15.2954 19.0668 15.96 19.0668C16.8508 19.0656 17.7048 18.7 18.3346 18.0501C18.9645 17.4003 19.3189 16.5192 19.32 15.6001C19.32 14.9145 19.1229 14.2443 18.7537 13.6742C18.3845 13.1041 17.8598 12.6598 17.2458 12.3974C16.6319 12.135 15.9563 12.0664 15.3045 12.2001C14.6527 12.3339 14.054 12.6641 13.5841 13.1489C13.1142 13.6337 12.7942 14.2514 12.6646 14.9238C12.5349 15.5963 12.6015 16.2933 12.8558 16.9268C13.1101 17.5602 13.5407 18.1016 14.0933 18.4825Z" fill="#444444"/>
</svg>
