<svg width="24" height="21" viewBox="0 0 24 21" fill="none" xmlns="http://www.w3.org/2000/svg">
<path fill-rule="evenodd" clip-rule="evenodd" d="M19.6931 1.4C19.6974 1.17126 19.6996 0.937961 19.6996 0.7V0H4.29961V0.7C4.29961 0.937961 4.30187 1.17126 4.3063 1.4H0.0996094V2.1C0.0996094 9.79288 6.70794 11.6803 7.56818 11.8811C8.2005 12.5665 8.84008 13.0732 9.40065 13.5174L9.47961 13.58C10.6696 14.49 11.2996 14.98 11.2996 16.1V18.2C10.1796 18.34 9.05961 18.76 8.63961 19.6H7.09961C6.32961 19.6 5.69961 20.23 5.69961 21H18.2996C18.2996 20.23 17.6696 19.6 16.8996 19.6H15.3596C14.9396 18.76 13.8896 18.34 12.6996 18.2V16.1C12.6996 14.98 13.2596 14.49 14.5196 13.58C15.1212 13.1188 15.8033 12.5943 16.4703 11.8717C17.4742 11.6266 23.8996 9.68565 23.8996 2.1V1.4H19.6931ZM19.6372 2.8C19.4371 6.0182 18.7753 8.22044 17.9327 9.80375C19.738 8.89664 22.2283 6.91407 22.4996 2.8H19.6372ZM1.49961 2.8H4.36338C4.56854 6.03176 5.24819 8.23897 6.10325 9.82373C4.2958 8.91634 1.76806 6.91631 1.49961 2.8ZM11.9996 13.93C11.5796 13.37 10.9496 12.88 10.3896 12.46L10.3491 12.4285C8.46286 10.9618 5.90861 8.97569 5.76961 1.4H18.3696C18.2296 8.96 15.6396 10.99 13.7496 12.46L13.6063 12.5601C12.964 13.0084 12.3907 13.4085 11.9996 13.93Z" fill="#444444"/>
</svg>
