<svg width="21" height="17" viewBox="0 0 21 17" fill="none" xmlns="http://www.w3.org/2000/svg">
<path d="M20.25 1.54545H16.5V0.193182C16.5 0.0869318 16.4156 0 16.3125 0H15C14.8969 0 14.8125 0.0869318 14.8125 0.193182V1.54545H11.3438V0.193182C11.3438 0.0869318 11.2594 0 11.1562 0H9.84375C9.74063 0 9.65625 0.0869318 9.65625 0.193182V1.54545H6.1875V0.193182C6.1875 0.0869318 6.10313 0 6 0H4.6875C4.58437 0 4.5 0.0869318 4.5 0.193182V1.54545H0.75C0.335156 1.54545 0 1.89077 0 2.31818V16.2273C0 16.6547 0.335156 17 0.75 17H20.25C20.6648 17 21 16.6547 21 16.2273V2.31818C21 1.89077 20.6648 1.54545 20.25 1.54545ZM19.3125 15.2614H1.6875V3.28409H4.5V4.63636C4.5 4.74261 4.58437 4.82955 4.6875 4.82955H6C6.10313 4.82955 6.1875 4.74261 6.1875 4.63636V3.28409H9.65625V4.63636C9.65625 4.74261 9.74063 4.82955 9.84375 4.82955H11.1562C11.2594 4.82955 11.3438 4.74261 11.3438 4.63636V3.28409H14.8125V4.63636C14.8125 4.74261 14.8969 4.82955 15 4.82955H16.3125C16.4156 4.82955 16.5 4.74261 16.5 4.63636V3.28409H19.3125V15.2614ZM8.25 8.11364H3.9375C3.83437 8.11364 3.75 8.20057 3.75 8.30682V9.46591C3.75 9.57216 3.83437 9.65909 3.9375 9.65909H8.25C8.35312 9.65909 8.4375 9.57216 8.4375 9.46591V8.30682C8.4375 8.20057 8.35312 8.11364 8.25 8.11364ZM8.25 11.3977H3.9375C3.83437 11.3977 3.75 11.4847 3.75 11.5909V12.75C3.75 12.8562 3.83437 12.9432 3.9375 12.9432H8.25C8.35312 12.9432 8.4375 12.8562 8.4375 12.75V11.5909C8.4375 11.4847 8.35312 11.3977 8.25 11.3977ZM15.4734 7.11392L13.0453 10.5839L12.0891 9.15938C12.0187 9.05796 11.9063 9 11.7867 9H10.5C10.3477 9 10.2586 9.17869 10.3477 9.30668L12.7406 12.7862C12.7751 12.8356 12.8206 12.8758 12.8731 12.9035C12.9257 12.9313 12.9839 12.9457 13.043 12.9457C13.102 12.9457 13.1602 12.9313 13.2128 12.9035C13.2654 12.8758 13.3108 12.8356 13.3453 12.7862L17.2125 7.26364C17.3016 7.13565 17.2125 6.95696 17.0602 6.95696H15.7734C15.6562 6.95455 15.5438 7.01491 15.4734 7.11392Z" fill="#663AA3"/>
</svg>
