<svg width="11" height="11" viewBox="0 0 11 11" fill="none" xmlns="http://www.w3.org/2000/svg">
<path id="Vector" d="M10.7132 1.66363C10.805 1.57511 10.8781 1.46922 10.9285 1.35212C10.9789 1.23502 11.0054 1.10906 11.0066 0.981592C11.0078 0.854125 10.9835 0.727701 10.9353 0.609698C10.8871 0.491696 10.8159 0.384476 10.7258 0.294297C10.6357 0.204118 10.5285 0.132785 10.4106 0.0844597C10.2926 0.0361344 10.1662 0.0117854 10.0387 0.0128325C9.91127 0.0138797 9.78529 0.0403023 9.66814 0.0905589C9.55099 0.140816 9.44503 0.2139 9.35643 0.305547L5.50875 4.15195L1.66235 0.305547C1.57446 0.211228 1.46847 0.135577 1.35072 0.0831072C1.23296 0.0306375 1.10583 0.00242369 0.976935 0.000149401C0.848036 -0.00212488 0.719999 0.021587 0.600462 0.0698699C0.480925 0.118153 0.372338 0.190018 0.281178 0.281178C0.190018 0.372338 0.118153 0.480924 0.0698699 0.600461C0.021587 0.719998 -0.00212488 0.848036 0.000149401 0.976936C0.00242369 1.10584 0.0306375 1.23296 0.0831072 1.35072C0.135577 1.46847 0.211228 1.57446 0.305547 1.66235L4.14939 5.51003L0.302987 9.35643C0.133413 9.53841 0.0410945 9.77911 0.0454827 10.0278C0.0498708 10.2765 0.150622 10.5138 0.326511 10.6897C0.5024 10.8656 0.739692 10.9663 0.988398 10.9707C1.2371 10.9751 1.4778 10.8828 1.65979 10.7132L5.50875 6.86683L9.35515 10.7145C9.53713 10.8841 9.77783 10.9764 10.0265 10.972C10.2752 10.9676 10.5125 10.8669 10.6884 10.691C10.8643 10.5151 10.9651 10.2778 10.9694 10.0291C10.9738 9.78039 10.8815 9.53969 10.7119 9.35771L6.86811 5.51003L10.7132 1.66363Z" fill="white"/>
</svg>
