<svg width="48" height="56" viewBox="0 0 48 56" fill="none" xmlns="http://www.w3.org/2000/svg">
<g id="Group 92">
<path id="Vector" opacity="0.45" d="M4.19972 10.2828C6.01932 7.64761 8.35503 5.40708 11.0661 3.69626C13.7772 1.98545 16.8075 0.83977 19.9744 0.328272C23.1413 -0.183227 26.3793 -0.049957 29.4932 0.720051C32.6071 1.49006 35.5325 2.88086 38.093 4.80865C48.3296 12.452 50.2918 27.6223 42.7447 37.9822L31.2663 53.9053C30.9924 54.2855 30.646 54.6081 30.2468 54.8546C29.8477 55.101 29.4037 55.2665 28.9404 55.3415C28.477 55.4165 28.0033 55.3996 27.5465 55.2917C27.0897 55.1838 26.6588 54.9871 26.2784 54.7127L10.3129 43.2375C-0.0678076 35.7789 -3.04547 20.7933 4.19972 10.2828Z" fill="url(#paint0_linear_115_205)"/>
<path id="Vector_2" opacity="0.45" d="M23.2862 0.00509835C26.4933 -0.0612408 29.6807 0.520417 32.6564 1.71505C35.6322 2.90968 38.3347 4.69257 40.6013 6.95637C42.868 9.22017 44.6518 11.9181 45.8454 14.8876C47.039 17.8571 47.6177 21.0368 47.5467 24.2352C47.2722 37.0038 36.0614 47.4253 23.2519 47.4116H3.57463C3.10347 47.4116 2.63696 47.3187 2.20193 47.1383C1.7669 46.9578 1.37192 46.6934 1.03972 46.3602C0.707522 46.0269 0.444651 45.6315 0.266227 45.1966C0.0878031 44.7617 -0.00265373 44.2959 5.92654e-05 43.826V24.1942C0.0343642 11.4393 10.4974 0.271965 23.2862 0.00509835Z" fill="url(#paint1_linear_115_205)"/>
<path id="Vector_3" opacity="0.45" d="M12.8097 2.68735C15.6552 1.20831 18.7715 0.319248 21.9708 0.0737548C25.17 -0.171738 28.386 0.231423 31.4248 1.25894C34.4637 2.28645 37.2624 3.91703 39.6523 6.05239C42.0423 8.18775 43.9739 10.7837 45.3308 13.6836C50.751 25.2547 45.3308 39.5492 33.8386 45.1944L16.1853 53.8779C15.7637 54.0883 15.3044 54.2132 14.834 54.2455C14.3636 54.2778 13.8915 54.2168 13.4449 54.066C12.9983 53.9152 12.5861 53.6776 12.2321 53.3669C11.8781 53.0563 11.5894 52.6788 11.3827 52.2561L2.69665 34.6498C-2.95679 23.2019 1.46168 8.59948 12.8097 2.68735Z" fill="url(#paint2_linear_115_205)"/>
<path id="Vector_4" opacity="0.45" d="M42.0584 38.5842C39.7581 41.3265 36.8869 43.5366 33.6441 45.0609C30.4013 46.5853 26.8647 47.3873 23.2799 47.4113H16.1101L10.3126 43.2441C7.36415 41.086 4.93301 38.3018 3.19478 35.0925C1.45654 31.8833 0.454589 28.3291 0.261279 24.6866C0.150463 22.8558 0.256395 21.0184 0.576885 19.2124C1.13045 16.0212 2.36849 12.9868 4.20634 10.3168C6.02196 7.6849 8.35648 5.44972 11.0673 3.74781C11.3418 3.5699 11.6231 3.39199 11.9044 3.23461C12.1857 3.07723 12.515 2.88563 12.8306 2.7214C13.5933 2.31979 14.3791 1.96335 15.1839 1.65394L15.9866 1.31864C16.2131 1.23653 16.4395 1.16126 16.6727 1.09283L17.0775 0.969663C17.4892 0.846494 17.9077 0.737009 18.3262 0.641211L18.882 0.518042C19.4377 0.394872 20.0003 0.292231 20.5629 0.216961L21.05 0.162219H21.1324L21.4754 0.11432H21.6813L22.5732 0.0527357H22.7653H22.8751C23.0099 0.0459102 23.145 0.0459102 23.2799 0.0527357H23.7739C23.9429 0.0423173 24.1125 0.0423173 24.2816 0.0527357C24.6178 0.0527357 24.9677 0.0527357 25.2764 0.0937921C25.5852 0.134849 25.9076 0.134848 26.2164 0.175905H26.5182L27.2043 0.264861H27.3622C27.6091 0.305917 27.8493 0.340131 28.0894 0.38803H28.1649C28.4668 0.435929 28.7618 0.504357 29.0637 0.565941H29.1048C29.3999 0.627526 29.688 0.702796 29.9762 0.784909C30.134 0.825965 30.2918 0.867021 30.4496 0.921763L30.7446 1.00388L31.1014 1.1202C31.1425 1.12658 31.182 1.1405 31.218 1.16126C31.3895 1.20916 31.5542 1.2639 31.7189 1.32548C31.8835 1.38707 32.1443 1.48287 32.3501 1.57182C32.5559 1.66078 32.6108 1.66762 32.7343 1.71552L33.1116 1.8729L33.4753 2.03713L33.6056 2.08503L33.8252 2.19451L34.0516 2.304L34.2025 2.37242L34.2712 2.40664L34.4976 2.52296H34.5662L34.8338 2.66666L34.9161 2.71456H34.9916L35.1013 2.7693L35.1699 2.81036L35.5336 3.01564L35.6296 3.07038L35.7188 3.11828L35.9247 3.24145L36.1373 3.37146L36.2197 3.41936C36.3472 3.49277 36.4709 3.5727 36.5902 3.65886C36.7499 3.74645 36.9035 3.84476 37.0499 3.9531C37.2214 4.06942 37.3929 4.17891 37.5576 4.30208C37.9281 4.55526 38.2848 4.83581 38.6416 5.11636L38.8817 5.3148C38.9237 5.34533 38.9628 5.37969 38.9984 5.41744L39.4032 5.75958L39.4581 5.80064C45.9005 11.5964 48.4665 20.4441 46.8611 28.6349C46.5282 30.338 46.0082 31.9994 45.3105 33.589C44.4391 35.3825 43.3466 37.0606 42.0584 38.5842Z" fill="url(#paint3_linear_115_205)"/>
<path id="Vector_5" d="M9.8117 31.4681C9.81306 31.9218 9.67941 32.3656 9.42768 32.7435C9.17595 33.1214 8.81746 33.4162 8.3976 33.5908C7.97774 33.7653 7.51539 33.8117 7.06908 33.724C6.62278 33.6364 6.2126 33.4186 5.89047 33.0983C5.56834 32.778 5.34876 32.3695 5.25951 31.9247C5.17027 31.4798 5.21538 31.0186 5.38914 30.5993C5.5629 30.18 5.85749 29.8216 6.23562 29.5694C6.61374 29.3172 7.05839 29.1826 7.51327 29.1826C7.81478 29.1817 8.1135 29.2402 8.39232 29.3546C8.67114 29.4691 8.92457 29.6373 9.13809 29.8496C9.35161 30.0619 9.52102 30.3142 9.63661 30.5919C9.7522 30.8696 9.8117 31.1674 9.8117 31.4681Z" fill="#8FEFE9"/>
<path id="Vector_6" d="M24.5215 44.5034C24.5215 44.5034 37.8386 39.7751 33.5848 25.0769C33.5506 24.9728 33.5526 24.8603 33.5906 24.7575C33.6286 24.6548 33.7002 24.5678 33.794 24.5108C33.8877 24.4537 33.998 24.4299 34.107 24.4433C34.216 24.4566 34.3173 24.5063 34.3944 24.5842C36.1714 26.3154 39.1971 28.4846 41.7151 26.6371C43.2105 25.467 44.2609 23.8232 44.6928 21.9771C44.721 21.8608 44.7912 21.759 44.8901 21.6911C44.9889 21.6233 45.1094 21.5942 45.2284 21.6094C45.3474 21.6247 45.4566 21.6832 45.535 21.7738C45.6134 21.8644 45.6555 21.9807 45.6533 22.1003C45.7562 29.162 43.3137 42.129 24.5215 44.5034Z" fill="#8FEFE9"/>
<path id="Vector_7" d="M39.5187 26.6167C41.0154 26.6167 42.2288 25.4066 42.2288 23.9138C42.2288 22.4211 41.0154 21.2109 39.5187 21.2109C38.0219 21.2109 36.8086 22.4211 36.8086 23.9138C36.8086 25.4066 38.0219 26.6167 39.5187 26.6167Z" fill="#8FEFE9"/>
<path id="Vector_8" d="M28.5344 31.2215C29.4538 34.0818 29.5567 36.5725 28.8295 38.6254C27.6356 41.9783 24.4316 43.4153 21.9685 44.0516C20.8116 44.3481 19.6226 44.502 18.4282 44.5101C8.13674 44.5101 2.64795 32.8775 2.64795 32.7748C2.35979 32.1316 2.79889 31.7484 3.33405 32.2C3.71422 32.5208 4.11038 32.8223 4.521 33.1033C7.83485 35.3682 10.2774 34.1844 11.334 30.633C11.3673 30.5296 11.4349 30.4406 11.5256 30.3806C11.6164 30.3205 11.7249 30.293 11.8334 30.3026C11.9418 30.3121 12.0439 30.3581 12.1227 30.4331C12.2015 30.5081 12.2524 30.6075 12.267 30.7151C12.8228 36.0662 14.8948 43.9901 22.4213 41.9099C24.2532 41.3077 26.2634 40.1581 27.0319 37.9821C27.6151 36.3399 27.5121 34.2597 26.73 31.8237C26.1717 30.2414 25.4975 28.7022 24.7129 27.2185C23.9579 25.7945 23.2978 24.3224 22.7369 22.8118C21.5019 19.2878 21.4951 15.6406 22.7369 12.7872C23.775 10.4376 25.6858 8.58091 28.0679 7.60722C28.1868 7.5569 28.3145 7.53043 28.4437 7.52933C28.5729 7.52823 28.701 7.55252 28.8208 7.60081C28.9406 7.64911 29.0496 7.72045 29.1418 7.81078C29.2339 7.90111 29.3073 8.00865 29.3577 8.12727C29.4082 8.24588 29.4347 8.37325 29.4358 8.50209C29.4369 8.63093 29.4126 8.75873 29.3642 8.87819C29.3157 8.99765 29.2442 9.10642 29.1536 9.1983C29.0631 9.29019 28.9552 9.36338 28.8363 9.4137C26.9232 10.1935 25.3849 11.6787 24.5413 13.5604C23.4985 15.9622 23.5259 19.103 24.6031 22.1754C25.1358 23.6048 25.7591 24.999 26.4693 26.3495C27.2891 27.9149 27.9797 29.5443 28.5344 31.2215Z" fill="#8FEFE9"/>
<path id="Vector_9" d="M30.0301 3.41266C30.0301 3.90934 29.8824 4.39487 29.6058 4.80785C29.3291 5.22083 28.9358 5.54271 28.4757 5.73278C28.0156 5.92285 27.5093 5.97259 27.0209 5.87569C26.5325 5.77879 26.0838 5.53961 25.7316 5.1884C25.3795 4.83719 25.1397 4.38973 25.0425 3.90259C24.9454 3.41544 24.9952 2.91051 25.1858 2.45163C25.3764 1.99276 25.6991 1.60055 26.1132 1.3246C26.5273 1.04866 27.0141 0.901377 27.5121 0.901377C27.843 0.900474 28.1709 0.964813 28.4768 1.0907C28.7827 1.21658 29.0606 1.40153 29.2946 1.6349C29.5286 1.86827 29.7141 2.14548 29.8403 2.45057C29.9665 2.75566 30.031 3.08262 30.0301 3.41266Z" fill="#8FEFE9"/>
<path id="Vector_10" d="M37.0633 6.9234C37.0633 7.42038 36.9154 7.90618 36.6385 8.31931C36.3615 8.73243 35.9678 9.0543 35.5073 9.24417C35.0468 9.43405 34.5402 9.48338 34.0516 9.38592C33.5629 9.28847 33.1143 9.04861 32.7624 8.69672C32.4105 8.34482 32.1713 7.89671 32.0749 7.40912C31.9785 6.92153 32.0294 6.41638 32.221 5.95763C32.4126 5.49887 32.7364 5.10713 33.1514 4.83202C33.5664 4.5569 34.0539 4.41076 34.5522 4.41212C34.8825 4.41212 35.2096 4.47712 35.5147 4.60341C35.8198 4.7297 36.097 4.91479 36.3302 5.14807C36.5635 5.38135 36.7483 5.65825 36.8741 5.96289C36.9999 6.26754 37.0642 6.59394 37.0633 6.9234Z" fill="#8FEFE9"/>
<path id="Vector_11" d="M21.8587 3.41994C21.86 3.77326 21.7558 4.11897 21.5594 4.41301C21.363 4.70705 21.0832 4.9361 20.7558 5.07097C20.4284 5.20584 20.0681 5.24042 19.7209 5.1703C19.3736 5.10017 19.0552 4.92853 18.8062 4.67724C18.5571 4.42596 18.3888 4.1064 18.3225 3.75932C18.2562 3.41223 18.2951 3.05332 18.4341 2.72835C18.5732 2.40337 18.8061 2.12704 19.1032 1.93458C19.4003 1.74212 19.7481 1.64224 20.1023 1.64767C20.57 1.65307 21.0167 1.84218 21.3455 2.17396C21.6744 2.50574 21.8588 2.95344 21.8587 3.41994Z" fill="#8FEFE9"/>
<path id="Vector_12" d="M41.6946 11.2C41.696 11.5522 41.5925 11.8968 41.3974 12.1903C41.2022 12.4838 40.924 12.7129 40.5982 12.8486C40.2724 12.9843 39.9135 13.0205 39.567 12.9526C39.2205 12.8847 38.902 12.7158 38.6519 12.4673C38.4017 12.2187 38.2311 11.9018 38.1617 11.5565C38.0923 11.2112 38.1273 10.8531 38.2621 10.5276C38.3969 10.2021 38.6255 9.92385 38.919 9.72805C39.2125 9.53226 39.5577 9.42774 39.9108 9.42773C40.3822 9.42952 40.8338 9.6166 41.1678 9.94839C41.5017 10.2802 41.691 10.7299 41.6946 11.2Z" fill="#8FEFE9"/>
<path id="Vector_13" d="M14.9709 5.7596C14.9722 5.92365 14.9247 6.08439 14.8343 6.22145C14.7439 6.3585 14.6147 6.46569 14.4632 6.52941C14.3116 6.59313 14.1445 6.6105 13.983 6.57933C13.8215 6.54816 13.6729 6.46985 13.5561 6.35433C13.4394 6.23882 13.3596 6.0913 13.327 5.93051C13.2944 5.76971 13.3105 5.60289 13.3731 5.4512C13.4357 5.29951 13.5421 5.16979 13.6788 5.0785C13.8154 4.98722 13.9762 4.93848 14.1407 4.93848C14.3597 4.93847 14.5698 5.02476 14.7253 5.17856C14.8808 5.33236 14.9691 5.5412 14.9709 5.7596Z" fill="#8FEFE9"/>
<path id="Vector_14" d="M43.8752 15.4833C43.8765 15.6476 43.8288 15.8086 43.7381 15.9458C43.6474 16.083 43.5179 16.1902 43.3659 16.2537C43.2139 16.3172 43.0464 16.3342 42.8847 16.3025C42.7231 16.2707 42.5745 16.1917 42.458 16.0755C42.3415 15.9593 42.2623 15.8112 42.2305 15.6499C42.1987 15.4887 42.2157 15.3217 42.2794 15.1701C42.343 15.0185 42.4505 14.8893 42.5881 14.7988C42.7256 14.7084 42.8871 14.6608 43.0519 14.6621C43.16 14.6621 43.267 14.6834 43.3669 14.7246C43.4668 14.7659 43.5576 14.8264 43.634 14.9026C43.7105 14.9789 43.7711 15.0694 43.8125 15.169C43.8539 15.2687 43.8752 15.3754 43.8752 15.4833Z" fill="#8FEFE9"/>
</g>
<defs>
<linearGradient id="paint0_linear_115_205" x1="23.7651" y1="0.0234375" x2="23.7651" y2="55.3875" gradientUnits="userSpaceOnUse">
<stop stop-color="#75DEE5"/>
<stop offset="1" stop-color="#22BEA2" stop-opacity="0.69"/>
</linearGradient>
<linearGradient id="paint1_linear_115_205" x1="23.7762" y1="0" x2="23.7762" y2="47.4116" gradientUnits="userSpaceOnUse">
<stop stop-color="#75DEE5"/>
<stop offset="1" stop-color="#22BEA2" stop-opacity="0.69"/>
</linearGradient>
<linearGradient id="paint2_linear_115_205" x1="23.8435" y1="0.00390625" x2="23.8435" y2="54.2539" gradientUnits="userSpaceOnUse">
<stop stop-color="#75DEE5"/>
<stop offset="1" stop-color="#22BEA2" stop-opacity="0.69"/>
</linearGradient>
<linearGradient id="paint3_linear_115_205" x1="23.7727" y1="0.0449219" x2="23.7727" y2="47.4113" gradientUnits="userSpaceOnUse">
<stop stop-color="#75DEE5"/>
<stop offset="1" stop-color="#22BEA2" stop-opacity="0.69"/>
</linearGradient>
</defs>
</svg>
