<svg width="23" height="24" viewBox="0 0 23 24" fill="none" xmlns="http://www.w3.org/2000/svg">
<path d="M21.7601 17.9544C21.0805 17.3725 20.4856 16.7055 19.9913 15.9713C19.4517 14.9578 19.1282 13.851 19.04 12.7158V9.37238C19.0446 7.58939 18.3712 5.86613 17.1462 4.52638C15.9213 3.18662 14.2291 2.3226 12.3876 2.09663V1.22355C12.3876 0.98391 12.2885 0.75409 12.1121 0.584642C11.9356 0.415195 11.6963 0.32 11.4468 0.32C11.1973 0.32 10.958 0.415195 10.7816 0.584642C10.6052 0.75409 10.5061 0.98391 10.5061 1.22355V2.11017C8.68108 2.35242 7.00933 3.22167 5.80046 4.55692C4.59159 5.89217 3.92752 7.60294 3.93123 9.37238V12.7158C3.84297 13.851 3.51953 14.9578 2.97989 15.9713C2.49427 16.7039 1.90889 17.3708 1.23928 17.9544C1.16412 18.0178 1.10387 18.0959 1.06256 18.1834C1.02125 18.2709 0.999814 18.3659 0.999687 18.462V19.3824C0.999687 19.5619 1.07393 19.7341 1.20609 19.861C1.33825 19.9879 1.51749 20.0593 1.70439 20.0593H21.295C21.4819 20.0593 21.6611 19.9879 21.7933 19.861C21.9254 19.7341 21.9997 19.5619 21.9997 19.3824V18.462C21.9996 18.3659 21.9781 18.2709 21.9368 18.1834C21.8955 18.0959 21.8353 18.0178 21.7601 17.9544ZM2.46546 18.7056C3.12112 18.0973 3.6984 17.4156 4.18492 16.6752C4.86468 15.4512 5.2613 14.1006 5.34767 12.7158V9.37238C5.31973 8.57917 5.45826 7.78868 5.75502 7.04797C6.05178 6.30726 6.50071 5.63148 7.07506 5.06087C7.64942 4.49026 8.33746 4.03649 9.0982 3.72659C9.85895 3.41668 10.6769 3.25697 11.5032 3.25697C12.3296 3.25697 13.1475 3.41668 13.9082 3.72659C14.669 4.03649 15.357 4.49026 15.9314 5.06087C16.5057 5.63148 16.9546 6.30726 17.2514 7.04797C17.5482 7.78868 17.6867 8.57917 17.6587 9.37238V12.7158C17.7451 14.1006 18.1417 15.4512 18.8215 16.6752C19.308 17.4156 19.8853 18.0973 20.541 18.7056H2.46546Z" fill="#444444"/>
<path d="M11.5349 23.3198C11.9788 23.31 12.4048 23.1497 12.7376 22.8673C13.0703 22.5849 13.2883 22.1986 13.353 21.7767H9.64633C9.71291 22.21 9.94112 22.6054 10.2885 22.8893C10.6359 23.1732 11.0789 23.3261 11.5349 23.3198Z" fill="#444444"/>
<path fill-rule="evenodd" clip-rule="evenodd" d="M10.5599 0.353848C10.7973 0.125899 11.1165 0 11.4468 0C11.7771 0 12.0964 0.125899 12.3337 0.353848C12.5715 0.582218 12.7076 0.894776 12.7076 1.22355V1.81842C14.5139 2.10354 16.1675 2.98164 17.3824 4.31044C18.6604 5.7082 19.3648 7.50842 19.36 9.37321V12.7033C19.4457 13.7844 19.7535 14.839 20.266 15.8063C20.742 16.5106 21.3141 17.1511 21.9673 17.7105C22.0766 17.803 22.1651 17.9174 22.2262 18.0468C22.2875 18.1766 22.3195 18.318 22.3197 18.4616V19.3824C22.3197 19.6511 22.2085 19.906 22.0149 20.0918C21.8219 20.2772 21.5627 20.3793 21.295 20.3793H1.70439C1.43669 20.3793 1.17749 20.2772 0.984427 20.0918C0.79092 19.906 0.679688 19.6511 0.679688 19.3824V18.462C0.679877 18.3184 0.711912 18.1766 0.773175 18.0468C0.834027 17.9179 0.922108 17.8038 1.03083 17.7116C1.67437 17.1504 2.23716 16.51 2.70465 15.8073C3.21749 14.8398 3.52545 13.7848 3.61123 12.7033V9.3727M10.1861 1.83468V1.22355C10.1861 0.894777 10.3222 0.582219 10.5599 0.353848M11.4468 0.64C11.2781 0.64 11.1188 0.70449 11.0033 0.815437C10.8882 0.925961 10.8261 1.07304 10.8261 1.22355V2.3905L10.5482 2.42739C8.79649 2.65991 7.19448 3.49396 6.03769 4.77169C4.88119 6.0491 4.24769 7.68345 4.25123 9.3717L4.25123 12.7283L4.25027 12.7406C4.15856 13.9201 3.82252 15.0696 3.26234 16.1217L3.25511 16.1353L3.24661 16.1481C2.74497 16.9048 2.14053 17.5934 1.44953 18.1956L1.44567 18.199C1.40502 18.2333 1.37332 18.2747 1.35194 18.32C1.33061 18.3652 1.31978 18.4136 1.31969 18.4622V19.3824C1.31969 19.4728 1.35694 19.5622 1.42775 19.6302C1.499 19.6987 1.59828 19.7393 1.70439 19.7393H21.295C21.4011 19.7393 21.5004 19.6987 21.5716 19.6302C21.6424 19.5622 21.6797 19.4728 21.6797 19.3824V18.4624C21.6796 18.4137 21.6688 18.3652 21.6474 18.32C21.6261 18.2747 21.5944 18.2332 21.5537 18.1989L21.552 18.1974C20.8507 17.597 20.2365 16.9084 19.7259 16.15L19.7166 16.1363L19.7088 16.1217C19.1487 15.0696 18.8126 13.9201 18.7209 12.7406L18.72 12.7283V9.37238C18.7244 7.67119 18.082 6.02405 16.9101 4.74231C15.7379 3.46022 14.1162 2.63114 12.3486 2.41425L12.0676 2.37977V1.22355C12.0676 1.07305 12.0055 0.925962 11.8904 0.815437C11.7749 0.70449 11.6155 0.64 11.4468 0.64ZM11.5032 3.57697C10.718 3.57697 9.94111 3.72874 9.21893 4.02294C8.49677 4.31713 7.84449 4.74753 7.3006 5.28789C6.75673 5.82821 6.33236 6.46738 6.05207 7.16698C5.77179 7.86656 5.64111 8.61269 5.66748 9.36111L5.66787 9.37238L5.66767 12.7258L5.66705 12.7358C5.57769 14.1685 5.16734 15.5653 4.46468 16.8306L4.4589 16.841L4.45236 16.8509C4.09465 17.3953 3.68938 17.9087 3.24125 18.3856H19.7652C19.317 17.9087 18.9118 17.3953 18.5541 16.8509L18.5475 16.841L18.5417 16.8306C17.8391 15.5653 17.4287 14.1685 17.3394 12.7358L17.3387 12.7258V9.3611C17.3651 8.61268 17.2346 7.86656 16.9544 7.16699C16.6741 6.46738 16.2497 5.82821 15.7058 5.28789C15.1619 4.74753 14.5097 4.31713 13.7875 4.02294C13.0653 3.72874 12.2884 3.57697 11.5032 3.57697ZM8.97748 3.43023C9.7768 3.10461 10.6357 2.93697 11.5032 2.93697C12.3707 2.93697 13.2296 3.10461 14.0289 3.43023C14.8283 3.75586 15.5521 4.23299 16.1569 4.83386C16.7617 5.43476 17.2352 6.14715 17.5484 6.92896C17.861 7.70904 18.0074 8.54187 17.9787 9.37794V12.7058C18.0631 14.0352 18.4438 15.3323 19.0955 16.5094C19.5663 17.2243 20.1246 17.8828 20.7586 18.471L21.3564 19.0256H1.65007L2.24781 18.471C2.8818 17.8828 3.44008 17.2243 3.91094 16.5094C4.56265 15.3323 4.94328 14.0352 5.02767 12.7058V9.37792C4.99901 8.54186 5.14544 7.70903 5.45798 6.92896C5.77121 6.14715 6.24469 5.43476 6.84953 4.83386C7.45434 4.23299 8.17814 3.75586 8.97748 3.43023ZM9.27342 21.4567H13.7259L13.6693 21.8252C13.5926 22.3251 13.3347 22.7802 12.9446 23.1113C12.5549 23.4421 12.0579 23.6283 11.542 23.6397L11.5394 23.6398C11.0094 23.6471 10.4928 23.4695 10.0861 23.1371C9.67896 22.8045 9.40893 22.3388 9.33004 21.8253L9.27342 21.4567ZM10.0716 22.0967C10.1647 22.3043 10.3071 22.4913 10.491 22.6415C10.7787 22.8766 11.1475 23.0049 11.5292 22.9999C11.9006 22.9913 12.2551 22.857 12.5305 22.6233C12.7038 22.4762 12.8386 22.2959 12.9279 22.0967H10.0716Z" fill="#444444"/>
</svg>
