<svg width="25" height="17" viewBox="0 0 25 17" fill="none" xmlns="http://www.w3.org/2000/svg">
<path d="M16.6964 11.5357C16.4549 11.5357 16.2232 11.6317 16.0525 11.8025C15.8817 11.9732 15.7857 12.2049 15.7857 12.4464C15.7857 12.688 15.8817 12.9196 16.0525 13.0904C16.2232 13.2612 16.4549 13.3571 16.6964 13.3571H19.7321C19.9737 13.3571 20.2053 13.2612 20.3761 13.0904C20.5469 12.9196 20.6429 12.688 20.6429 12.4464C20.6429 12.2049 20.5469 11.9732 20.3761 11.8025C20.2053 11.6317 19.9737 11.5357 19.7321 11.5357H16.6964ZM3.33929 0C2.45365 0 1.60429 0.351816 0.978054 0.978054C0.351817 1.60429 0 2.45365 0 3.33929V13.6607C0 14.5463 0.351817 15.3957 0.978054 16.0219C1.60429 16.6482 2.45365 17 3.33929 17H20.9464C21.8321 17 22.6814 16.6482 23.3077 16.0219C23.9339 15.3957 24.2857 14.5463 24.2857 13.6607V3.33929C24.2857 2.45365 23.9339 1.60429 23.3077 0.978054C22.6814 0.351816 21.8321 0 20.9464 0H3.33929ZM1.82143 13.6607V7.28571H22.4643V13.6607C22.4643 14.4986 21.7843 15.1786 20.9464 15.1786H3.33929C2.50143 15.1786 1.82143 14.4986 1.82143 13.6607ZM1.82143 5.46429V3.33929C1.82143 2.50143 2.50143 1.82143 3.33929 1.82143H20.9464C21.7843 1.82143 22.4643 2.50143 22.4643 3.33929V5.46429H1.82143Z" fill="#444444"/>
</svg>
