<svg width="32" height="32" viewBox="0 0 32 32" fill="none" xmlns="http://www.w3.org/2000/svg">
<path d="M16.0909 5.57469C16.7348 5.57469 18.2646 5.91923 18.2646 5.91923C22.4091 6.72285 25.3263 9.953 25.3263 13.6V23.4163L26.1736 24.1366L26.8816 24.7384H5.11836L5.82636 24.1366L6.67373 23.4163V13.6C6.67373 9.95308 9.59091 6.72285 13.7354 5.91923C13.7354 5.91923 15.3756 5.57469 15.9091 5.57469M16 0C14.3998 0 13.1765 1.03985 13.1765 2.4V3.51992C7.81145 4.56015 3.76464 8.72 3.76464 13.6V22.4L0 25.6V27.2H32V25.6L28.2354 22.4V13.6C28.2354 8.72 24.1885 4.56015 18.8235 3.51992V2.4C18.8235 1.03985 17.6002 0 16 0ZM19.7646 28.8H12.2353C12.2353 30.5601 13.9292 32 16 32C18.0708 32 19.7646 30.5601 19.7646 28.8Z" fill="#FD652D"/>
</svg>
