<svg width="32" height="24" viewBox="0 0 32 24" fill="none" xmlns="http://www.w3.org/2000/svg">
<path d="M9.67442 10.875C9.67442 8.6025 7.83628 6.75 5.5814 6.75C3.32651 6.75 1.48837 8.6025 1.48837 10.875C1.48837 13.1475 3.32651 15 5.5814 15C7.83628 15 9.67442 13.1475 9.67442 10.875ZM3.72093 10.875C3.72093 10.3777 3.91694 9.90081 4.26585 9.54918C4.61475 9.19754 5.08797 9 5.5814 9C6.07482 9 6.54804 9.19754 6.89694 9.54918C7.24585 9.90081 7.44186 10.3777 7.44186 10.875C7.44186 11.3723 7.24585 11.8492 6.89694 12.2008C6.54804 12.5525 6.07482 12.75 5.5814 12.75C5.08797 12.75 4.61475 12.5525 4.26585 12.2008C3.91694 11.8492 3.72093 11.3723 3.72093 10.875ZM0 19.875V22.875C0 23.4975 0.498605 24 1.11628 24H10.0465C10.6642 24 11.1628 23.4975 11.1628 22.875V19.875C11.1628 17.6025 9.32465 15.75 7.06977 15.75H4.09302C3.00809 15.752 1.96816 16.1872 1.20099 16.9604C0.433827 17.7335 0.00196725 18.7816 0 19.875ZM2.23256 19.875C2.23256 19.3777 2.42857 18.9008 2.77748 18.5492C3.12638 18.1975 3.5996 18 4.09302 18H7.06977C7.56319 18 8.03641 18.1975 8.38531 18.5492C8.73422 18.9008 8.93023 19.3777 8.93023 19.875V21.75H2.23256V19.875ZM26.4186 6.75C24.1637 6.75 22.3256 8.6025 22.3256 10.875C22.3256 13.1475 24.1637 15 26.4186 15C28.6735 15 30.5116 13.1475 30.5116 10.875C30.5116 8.6025 28.6735 6.75 26.4186 6.75ZM26.4186 12.75C25.9252 12.75 25.452 12.5525 25.1031 12.2008C24.7542 11.8492 24.5581 11.3723 24.5581 10.875C24.5581 10.3777 24.7542 9.90081 25.1031 9.54918C25.452 9.19754 25.9252 9 26.4186 9C26.912 9 27.3852 9.19754 27.7342 9.54918C28.0831 9.90081 28.2791 10.3777 28.2791 10.875C28.2791 11.3723 28.0831 11.8492 27.7342 12.2008C27.3852 12.5525 26.912 12.75 26.4186 12.75ZM27.907 15.75H24.9302C23.8453 15.752 22.8054 16.1872 22.0382 16.9604C21.271 17.7335 20.8392 18.7816 20.8372 19.875V22.875C20.8372 23.4975 21.3358 24 21.9535 24H30.8837C31.5014 24 32 23.4975 32 22.875V19.875C32 17.6025 30.1619 15.75 27.907 15.75ZM29.7674 21.75H23.0698V19.875C23.0698 19.3777 23.2658 18.9008 23.6147 18.5492C23.9636 18.1975 24.4368 18 24.9302 18H27.907C28.4004 18 28.8736 18.1975 29.2225 18.5492C29.5714 18.9008 29.7674 19.3777 29.7674 19.875V21.75ZM20.093 4.125C20.093 1.8525 18.2549 0 16 0C13.7451 0 11.907 1.8525 11.907 4.125C11.907 6.3975 13.7451 8.25 16 8.25C18.2549 8.25 20.093 6.3975 20.093 4.125ZM14.1395 4.125C14.1395 3.62772 14.3355 3.15081 14.6845 2.79917C15.0334 2.44754 15.5066 2.25 16 2.25C16.4934 2.25 16.9666 2.44754 17.3155 2.79917C17.6645 3.15081 17.8605 3.62772 17.8605 4.125C17.8605 4.62228 17.6645 5.09919 17.3155 5.45083C16.9666 5.80246 16.4934 6 16 6C15.5066 6 15.0334 5.80246 14.6845 5.45083C14.3355 5.09919 14.1395 4.62228 14.1395 4.125ZM20.4651 17.25C21.0828 17.25 21.5814 16.7475 21.5814 16.125V13.125C21.5814 10.8525 19.7433 9 17.4884 9H14.5116C13.4267 9.00198 12.3868 9.43722 11.6196 10.2104C10.8524 10.9835 10.4206 12.0316 10.4186 13.125V16.125C10.4186 16.7475 10.9172 17.25 11.5349 17.25H20.4651ZM12.6512 13.125C12.6512 12.6277 12.8472 12.1508 13.1961 11.7992C13.545 11.4475 14.0182 11.25 14.5116 11.25H17.4884C17.9818 11.25 18.455 11.4475 18.8039 11.7992C19.1528 12.1508 19.3488 12.6277 19.3488 13.125V15H12.6512V13.125Z" fill="#FD652D"/>
</svg>
