<svg width="28" height="26" viewBox="0 0 28 26" fill="none" xmlns="http://www.w3.org/2000/svg">
<path d="M23.2143 11.1429H21.3571V13H23.2143C23.9529 13.0007 24.661 13.2945 25.1833 13.8167C25.7055 14.339 25.9993 15.0471 26 15.7857V19.5H27.8571V15.7857C27.8557 14.5548 27.366 13.3747 26.4957 12.5043C25.6253 11.634 24.4452 11.1443 23.2143 11.1429Z" fill="#663AA3"/>
<path d="M21.3571 1.85714C21.9081 1.85714 22.4467 2.02052 22.9048 2.32662C23.3629 2.63272 23.72 3.06779 23.9308 3.57681C24.1417 4.08583 24.1968 4.64595 24.0893 5.18632C23.9818 5.7267 23.7165 6.22307 23.3269 6.61265C22.9374 7.00224 22.441 7.26756 21.9006 7.37504C21.3602 7.48253 20.8001 7.42737 20.2911 7.21652C19.7821 7.00568 19.347 6.64863 19.0409 6.19052C18.7348 5.73241 18.5714 5.19382 18.5714 4.64286C18.5714 3.90404 18.8649 3.19548 19.3873 2.67306C19.9098 2.15064 20.6183 1.85714 21.3571 1.85714ZM21.3571 0C20.4389 0 19.5412 0.272299 18.7777 0.782462C18.0142 1.29263 17.4191 2.01774 17.0677 2.86611C16.7163 3.71448 16.6243 4.64801 16.8035 5.54863C16.9826 6.44926 17.4248 7.27654 18.0741 7.92585C18.7235 8.57517 19.5507 9.01736 20.4514 9.1965C21.352 9.37565 22.2855 9.2837 23.1339 8.9323C23.9823 8.58089 24.7074 7.9858 25.2175 7.22229C25.7277 6.45878 26 5.56113 26 4.64286C26 3.41149 25.5108 2.23057 24.6401 1.35986C23.7694 0.489157 22.5885 0 21.3571 0Z" fill="#663AA3"/>
<path d="M20.4286 26H18.5714V24.1429C18.5707 23.4043 18.277 22.6961 17.7547 22.1739C17.2324 21.6516 16.5243 21.3579 15.7857 21.3571H12.0714C11.3328 21.3579 10.6247 21.6516 10.1024 22.1739C9.58018 22.6961 9.28645 23.4043 9.28571 24.1429V26H7.42857V24.1429C7.43005 22.9119 7.91968 21.7319 8.79006 20.8615C9.66045 19.9911 10.8405 19.5015 12.0714 19.5H15.7857C17.0166 19.5015 18.1967 19.9911 19.0671 20.8615C19.9375 21.7319 20.4271 22.9119 20.4286 24.1429V26Z" fill="#663AA3"/>
<path d="M13.9286 10.2143C14.4795 10.2143 15.0181 10.3777 15.4762 10.6838C15.9343 10.9899 16.2914 11.4249 16.5022 11.934C16.7131 12.443 16.7682 13.0031 16.6608 13.5435C16.5533 14.0838 16.288 14.5802 15.8984 14.9698C15.5088 15.3594 15.0124 15.6247 14.472 15.7322C13.9317 15.8397 13.3715 15.7845 12.8625 15.5737C12.3535 15.3628 11.9184 15.0058 11.6123 14.5477C11.3062 14.0896 11.1429 13.551 11.1429 13C11.1429 12.2612 11.4364 11.5526 11.9588 11.0302C12.4812 10.5078 13.1898 10.2143 13.9286 10.2143ZM13.9286 8.35714C13.0103 8.35714 12.1127 8.62944 11.3491 9.13961C10.5856 9.64977 9.99054 10.3749 9.63913 11.2233C9.28772 12.0716 9.19578 13.0052 9.37492 13.9058C9.55407 14.8064 9.99626 15.6337 10.6456 16.283C11.2949 16.9323 12.1222 17.3745 13.0228 17.5536C13.9234 17.7328 14.8569 17.6408 15.7053 17.2894C16.5537 16.938 17.2788 16.3429 17.789 15.5794C18.2991 14.8159 18.5714 13.9183 18.5714 13C18.5714 11.7686 18.0823 10.5877 17.2116 9.717C16.3409 8.8463 15.1599 8.35714 13.9286 8.35714Z" fill="#663AA3"/>
<path d="M6.5 11.1429H4.64286C3.41195 11.1443 2.23188 11.634 1.36149 12.5043C0.491105 13.3747 0.00147444 14.5548 0 15.7857V19.5H1.85714V15.7857C1.85788 15.0471 2.15161 14.339 2.67387 13.8167C3.19614 13.2945 3.90427 13.0007 4.64286 13H6.5V11.1429Z" fill="#663AA3"/>
<path d="M6.5 1.85714C7.05096 1.85714 7.58955 2.02052 8.04766 2.32662C8.50577 2.63272 8.86282 3.06779 9.07366 3.57681C9.28451 4.08583 9.33967 4.64595 9.23219 5.18632C9.1247 5.7267 8.85939 6.22307 8.4698 6.61265C8.08021 7.00224 7.58384 7.26756 7.04347 7.37504C6.50309 7.48253 5.94298 7.42737 5.43395 7.21652C4.92493 7.00568 4.48986 6.64863 4.18376 6.19052C3.87767 5.73241 3.71429 5.19382 3.71429 4.64286C3.71429 3.90404 4.00778 3.19548 4.5302 2.67306C5.05263 2.15064 5.76118 1.85714 6.5 1.85714ZM6.5 0C5.58173 0 4.68408 0.272299 3.92057 0.782462C3.15705 1.29263 2.56197 2.01774 2.21056 2.86611C1.85915 3.71448 1.76721 4.64801 1.94635 5.54863C2.1255 6.44926 2.56769 7.27654 3.217 7.92585C3.86632 8.57517 4.6936 9.01736 5.59422 9.1965C6.49485 9.37565 7.42837 9.2837 8.27674 8.9323C9.12512 8.58089 9.85023 7.9858 10.3604 7.22229C10.8706 6.45878 11.1429 5.56113 11.1429 4.64286C11.1429 3.41149 10.6537 2.23057 9.783 1.35986C8.91229 0.489157 7.73136 0 6.5 0Z" fill="#663AA3"/>
</svg>
