<svg width="32" height="24" viewBox="0 0 32 24" fill="none" xmlns="http://www.w3.org/2000/svg">
<path d="M8 16H12.8C13.2243 16 13.6313 15.8314 13.9314 15.5314C14.2314 15.2313 14.4 14.8243 14.4 14.4C14.4 13.9757 14.2314 13.5687 13.9314 13.2686C13.6313 12.9686 13.2243 12.8 12.8 12.8H8C7.57565 12.8 7.16869 12.9686 6.86863 13.2686C6.56857 13.5687 6.4 13.9757 6.4 14.4C6.4 14.8243 6.56857 15.2313 6.86863 15.5314C7.16869 15.8314 7.57565 16 8 16ZM27.2 0H4.8C3.52696 0 2.30606 0.505713 1.40589 1.40589C0.505713 2.30606 0 3.52696 0 4.8V19.2C0 20.473 0.505713 21.6939 1.40589 22.5941C2.30606 23.4943 3.52696 24 4.8 24H27.2C28.473 24 29.6939 23.4943 30.5941 22.5941C31.4943 21.6939 32 20.473 32 19.2V4.8C32 3.52696 31.4943 2.30606 30.5941 1.40589C29.6939 0.505713 28.473 0 27.2 0ZM28.8 19.2C28.8 19.6243 28.6314 20.0313 28.3314 20.3314C28.0313 20.6314 27.6243 20.8 27.2 20.8H4.8C4.37565 20.8 3.96869 20.6314 3.66863 20.3314C3.36857 20.0313 3.2 19.6243 3.2 19.2V9.6H28.8V19.2ZM28.8 6.4H3.2V4.8C3.2 4.37565 3.36857 3.96869 3.66863 3.66863C3.96869 3.36857 4.37565 3.2 4.8 3.2H27.2C27.6243 3.2 28.0313 3.36857 28.3314 3.66863C28.6314 3.96869 28.8 4.37565 28.8 4.8V6.4Z" fill="#FD652D"/>
</svg>
