<svg width="340" height="389" viewBox="0 0 340 389" fill="none" xmlns="http://www.w3.org/2000/svg">
<rect width="340" height="389" fill="white"/>
<rect x="0.5" y="0.5" width="339" height="388" stroke="white" stroke-opacity="0.3"/>
<mask id="mask0_2234_33894" style="mask-type:alpha" maskUnits="userSpaceOnUse" x="0" y="0" width="340" height="389">
<rect width="340" height="389" fill="white"/>
<rect x="0.5" y="0.5" width="339" height="388" stroke="white" stroke-opacity="0.3"/>
</mask>
<g mask="url(#mask0_2234_33894)">
<path d="M140.349 226.547H128.828V297.181H140.349V226.547Z" fill="#EBEBEB"/>
<path d="M286.252 226.713H274.73V297.353H286.252V226.713Z" fill="#EBEBEB"/>
<path d="M310.865 269.617H299.344V297.348H310.865V269.617Z" fill="#EBEBEB"/>
<path d="M44.1071 231.009H32.5859V297.18H44.1071V231.009Z" fill="#EBEBEB"/>
<path d="M68.1696 180.385H56.6484V297.181H68.1696V180.385Z" fill="#EBEBEB"/>
<path d="M92.2282 255.88H80.707V297.186H92.2282V255.88Z" fill="#EBEBEB"/>
<path d="M116.287 175.007H104.766V297.187H116.287V175.007Z" fill="#EBEBEB"/>
<path d="M164.4 185.569H152.879V297.181H164.4V185.569Z" fill="#EBEBEB"/>
<path d="M188.459 214.574H176.938V297.187H188.459V214.574Z" fill="#EBEBEB"/>
<path d="M212.521 174.169H201V297.18H212.521V174.169Z" fill="#EBEBEB"/>
<path d="M236.58 153.098H225.059V297.18H236.58V153.098Z" fill="#EBEBEB"/>
<path d="M260.634 195.113H249.113V297.188H260.634V195.113Z" fill="#EBEBEB"/>
<path d="M310.034 297.321C310.034 297.411 246.226 297.488 167.529 297.488C88.8323 297.488 25.0117 297.411 25.0117 297.321C25.0117 297.231 88.8066 297.153 167.529 297.153C246.252 297.153 310.034 297.224 310.034 297.321Z" fill="black"/>
<path d="M261.78 259.621C252.12 255.531 240.998 247.488 236.02 237.628C246.713 242.055 255.73 249.754 261.78 259.621Z" fill="black"/>
<path d="M259.733 244.314C250.073 240.231 238.951 232.187 233.973 222.321C244.663 226.753 253.68 234.45 259.733 244.314Z" fill="black"/>
<path d="M256.944 229.43C247.284 225.341 236.162 217.297 231.184 207.438C241.571 211.611 250.729 219.435 256.944 229.43Z" fill="black"/>
<path d="M253.452 213.846C244.365 208.456 234.235 198.938 230.461 188.485C240.557 194.365 248.588 203.223 253.452 213.846Z" fill="black"/>
<path d="M249.717 201.925C243.097 193.263 236.927 180.377 237.005 169.21C244.365 178.629 248.786 190.008 249.717 201.925Z" fill="black"/>
<path d="M251.562 207.592C252.902 195.884 257.455 181.188 265.19 172.378C263.884 185.125 259.177 197.287 251.562 207.592Z" fill="black"/>
<path d="M254.68 220.401C257.037 208.326 262.994 193.398 271.772 184.93C269.367 198.075 263.463 210.329 254.68 220.401Z" fill="black"/>
<path d="M258.258 236.019C260.615 223.95 266.572 209.016 275.356 200.547C272.953 213.694 267.046 225.949 258.258 236.019Z" fill="black"/>
<path d="M261.129 255.198C263.486 243.123 269.443 228.195 278.221 219.727C275.818 232.872 269.913 245.127 261.129 255.198Z" fill="black"/>
<path d="M249.264 199.606C249.264 199.606 249.296 199.664 249.341 199.787C249.386 199.909 249.451 200.102 249.521 200.321L250.165 202.414C250.745 204.23 251.524 206.871 252.445 210.142C253.366 213.414 254.377 217.349 255.427 221.734C256.477 226.12 257.501 230.956 258.467 236.063C259.433 241.17 260.205 246.065 260.836 250.521C261.468 254.978 261.931 259.016 262.266 262.403C262.601 265.791 262.833 268.534 262.955 270.44C263.011 271.368 263.056 272.095 263.091 272.623C263.091 272.855 263.091 273.042 263.091 273.197C263.102 273.26 263.102 273.326 263.091 273.39C263.074 273.326 263.063 273.262 263.058 273.197C263.058 273.048 263.02 272.862 262.994 272.63C262.942 272.102 262.878 271.374 262.788 270.447C262.62 268.553 262.35 265.81 261.983 262.429C261.616 259.048 261.107 255.029 260.476 250.573C259.845 246.116 259.033 241.235 258.08 236.134C257.127 231.034 256.077 226.197 255.073 221.812C254.068 217.426 253.057 213.504 252.168 210.22C251.28 206.935 250.539 204.282 250.004 202.453C249.753 201.564 249.554 200.856 249.405 200.347C249.347 200.122 249.296 199.941 249.257 199.793C249.251 199.731 249.253 199.668 249.264 199.606Z" fill="black"/>
<path d="M266.467 265.997C262.384 257.444 259.416 245.389 261.418 236.031C265.988 245.314 267.743 255.73 266.467 265.997Z" fill="#A2909E"/>
<path d="M273.26 254.92C269.177 246.367 266.209 234.344 268.211 224.954C272.781 234.236 274.536 244.652 273.26 254.92Z" fill="#A2909E"/>
<path d="M279.354 243.658C275.271 235.105 272.302 223.082 274.305 213.692C278.875 222.975 280.63 233.391 279.354 243.658Z" fill="#A2909E"/>
<path d="M285.373 231.511C282.333 222.462 280.807 210.117 283.911 201.088C287.336 210.873 287.843 221.442 285.373 231.511Z" fill="#A2909E"/>
<path d="M289.238 221.568C289.541 211.908 292.375 199.872 298.351 192.762C298.221 203.052 295.051 213.075 289.238 221.568Z" fill="#A2909E"/>
<path d="M287.461 226.345C294.545 219.654 305.319 213.02 314.998 212.177C307.421 219.517 297.839 224.448 287.461 226.345Z" fill="#A2909E"/>
<path d="M282.684 236.475C290.624 230.183 302.416 224.278 312.617 224.239C304.073 231.195 293.654 235.454 282.684 236.475Z" fill="#A2909E"/>
<path d="M276.711 248.692C284.651 242.4 296.443 236.495 306.644 236.456C298.102 243.415 287.682 247.674 276.711 248.692Z" fill="#A2909E"/>
<path d="M268.391 262.759C276.331 256.467 288.129 250.561 298.324 250.522C289.782 257.483 279.362 261.742 268.391 262.759Z" fill="#A2909E"/>
<path d="M290.193 219.823C290.193 219.823 290.193 219.874 290.148 219.977L289.987 220.434C289.819 220.859 289.6 221.433 289.343 222.167C288.763 223.667 287.881 225.825 286.767 228.472C284.5 233.765 281.145 240.991 276.971 248.732C274.885 252.596 272.792 256.228 270.828 259.493C268.863 262.758 267.015 265.65 265.418 268.045C263.821 270.441 262.501 272.367 261.554 273.668C261.097 274.312 260.736 274.808 260.466 275.175L260.176 275.561C260.111 275.645 260.073 275.69 260.066 275.683L260.15 275.535L260.408 275.13L261.438 273.59C262.346 272.257 263.634 270.319 265.199 267.904C266.764 265.489 268.574 262.584 270.538 259.326C272.502 256.067 274.524 252.416 276.611 248.552C280.778 240.824 284.165 233.624 286.49 228.356C287.655 225.728 288.576 223.584 289.188 222.096C289.497 221.381 289.742 220.808 289.916 220.396C290 220.215 290.064 220.074 290.116 219.951C290.167 219.829 290.186 219.816 290.193 219.823Z" fill="black"/>
<path d="M285.922 267.026H245.344V274.851H249.51L253.027 297.153H278.111L281.717 274.851H285.922V267.026Z" fill="#663AA3"/>
<path d="M285.922 274.685C285.922 274.582 276.906 274.498 265.777 274.498C254.649 274.498 245.633 274.582 245.633 274.685C245.633 274.788 254.649 274.872 265.777 274.872C276.906 274.872 285.922 274.788 285.922 274.685Z" fill="black"/>
<path d="M279.451 24.0068H90.2234C86.1154 24.0068 82.7852 27.337 82.7852 31.4451V158.79C82.7852 162.898 86.1154 166.228 90.2234 166.228H279.451C283.559 166.228 286.889 162.898 286.889 158.79V31.4451C286.889 27.337 283.559 24.0068 279.451 24.0068Z" fill="#E0E0E0"/>
<path d="M286.889 31.445C286.889 31.445 286.889 31.2969 286.857 31.0071C286.831 30.5725 286.765 30.1412 286.658 29.7191C286.25 28.0406 285.265 26.5588 283.876 25.5331C283.399 25.1727 282.88 24.8721 282.33 24.6379C281.711 24.3846 281.061 24.2136 280.398 24.1292C279.672 24.0593 278.943 24.0356 278.215 24.0583H275.845H264.414L191.564 24.1163H141.255H91.0935C90.4721 24.0965 89.85 24.1223 89.2323 24.1936C88.6198 24.2756 88.0203 24.4358 87.4485 24.6701C86.2967 25.1492 85.286 25.9139 84.5118 26.892C83.7314 27.8745 83.2228 29.0449 83.037 30.2858C82.9527 30.9111 82.9204 31.5422 82.9404 32.1728V34.1048C82.9404 36.6808 82.9404 39.2697 82.9404 41.8714V57.701C82.9404 68.3485 82.9404 79.2064 82.9404 90.2746V158.777C82.9497 159.494 83.0537 160.206 83.2496 160.896C83.6653 162.275 84.4796 163.5 85.5901 164.416C86.7006 165.333 88.0575 165.901 89.4899 166.048C90.1983 166.099 90.9325 166.08 91.6602 166.08H210.865L268.632 166.119H278.672C279.218 166.133 279.764 166.118 280.308 166.074C280.84 166.008 281.365 165.887 281.873 165.713C282.878 165.363 283.794 164.797 284.558 164.057C285.322 163.316 285.916 162.417 286.297 161.424C286.66 160.435 286.824 159.385 286.78 158.333C286.78 157.277 286.78 156.22 286.78 155.171C286.78 146.782 286.78 138.736 286.78 131.034C286.78 100.276 286.825 75.3853 286.838 58.184C286.838 49.5866 286.838 42.9083 286.838 38.3809C286.838 36.1141 286.838 34.3881 286.838 33.2289C286.838 32.0697 286.838 31.4708 286.838 31.4708C286.838 31.4708 286.838 32.0697 286.838 33.2289C286.838 34.3881 286.838 36.1141 286.838 38.3809C286.838 42.889 286.838 49.5866 286.87 58.184C286.87 75.3853 286.902 100.276 286.922 131.034C286.922 138.723 286.922 146.769 286.922 155.171V158.333C286.964 159.416 286.793 160.497 286.419 161.514C286.027 162.546 285.414 163.48 284.621 164.249C283.829 165.018 282.878 165.603 281.834 165.964C281.309 166.15 280.765 166.275 280.211 166.338C279.659 166.386 279.104 166.405 278.55 166.396H268.632H210.891H147.07H91.686C90.9518 166.396 90.237 166.396 89.4835 166.364C88.7432 166.278 88.0177 166.094 87.3261 165.816C86.6315 165.526 85.9812 165.141 85.3941 164.67C84.8204 164.189 84.3155 163.633 83.8936 163.015C83.4836 162.388 83.1628 161.708 82.9404 160.993C82.7315 160.272 82.621 159.527 82.612 158.777C82.612 135.316 82.612 112.409 82.612 90.2746V57.701C82.612 52.3816 82.612 47.1179 82.612 41.9101V32.25C82.5903 31.6045 82.6226 30.9582 82.7086 30.318C82.9044 29.0242 83.4375 27.8048 84.2542 26.7825C85.0613 25.749 86.1216 24.9415 87.3325 24.4383C87.9288 24.1929 88.5544 24.0262 89.1937 23.9424C89.8241 23.8687 90.4592 23.8429 91.0935 23.8651H113.228H141.255H191.564L264.414 23.9167H275.845H278.234C278.967 23.8963 279.7 23.9221 280.43 23.9939C281.094 24.0812 281.744 24.2566 282.362 24.5156C282.914 24.758 283.437 25.0626 283.921 25.4236C284.723 26.0257 285.395 26.7836 285.898 27.6519C286.257 28.2935 286.515 28.9863 286.664 29.7062C286.767 30.1286 286.83 30.5599 286.851 30.9942C286.883 31.2969 286.889 31.445 286.889 31.445Z" fill="black"/>
<path d="M97.3477 29.0239L97.3477 162.274H267.796V29.0239H97.3477Z" fill="white"/>
<path d="M276.63 99.9992C279.643 99.9992 282.085 97.5571 282.085 94.5445C282.085 91.532 279.643 89.0898 276.63 89.0898C273.618 89.0898 271.176 91.532 271.176 94.5445C271.176 97.5571 273.618 99.9992 276.63 99.9992Z" fill="black"/>
<path d="M88.6602 74.4902V115.751C88.6602 116.185 89.0119 116.537 89.4458 116.537H90.1285C90.5624 116.537 90.9142 116.185 90.9142 115.751V74.4902C90.9142 74.0563 90.5624 73.7045 90.1285 73.7045H89.4458C89.0119 73.7045 88.6602 74.0563 88.6602 74.4902Z" fill="black"/>
<path d="M113.312 28.5596H97.3477V162.274H113.312V28.5596Z" fill="#663AA3"/>
<path d="M98.8737 86.7404H114.008V100.033H98.8737C98.6711 100.035 98.4701 99.9973 98.2822 99.9214C98.0944 99.8454 97.9236 99.7328 97.7797 99.5901C97.6358 99.4475 97.5218 99.2776 97.4443 99.0904C97.3667 98.9032 97.3273 98.7024 97.3281 98.4998V88.2666C97.3281 88.0646 97.3682 87.8645 97.4461 87.6781C97.524 87.4916 97.6382 87.3225 97.782 87.1805C97.9258 87.0385 98.0963 86.9265 98.2837 86.8509C98.4711 86.7754 98.6717 86.7378 98.8737 86.7404Z" fill="white"/>
<path d="M105.333 47.7953C104.95 47.7953 104.571 47.7198 104.217 47.5731C103.864 47.4264 103.543 47.2114 103.272 46.9405C103.002 46.6695 102.788 46.3478 102.642 45.9939C102.496 45.64 102.421 45.2608 102.422 44.878C102.421 44.4949 102.496 44.1154 102.641 43.7611C102.787 43.4068 103.001 43.0847 103.272 42.8132C103.542 42.5417 103.863 42.3261 104.217 42.1788C104.57 42.0314 104.95 41.9551 105.333 41.9542C105.719 41.9508 106.101 42.024 106.459 42.1695C106.816 42.3149 107.141 42.5299 107.415 42.8018C107.688 43.0737 107.905 43.3972 108.053 43.7536C108.201 44.11 108.277 44.4922 108.276 44.878C108.276 45.2633 108.2 45.6447 108.051 46.0004C107.903 46.356 107.686 46.6788 107.412 46.95C107.139 47.2213 106.814 47.4356 106.457 47.5807C106.1 47.7258 105.718 47.7987 105.333 47.7953Z" fill="white"/>
<path d="M107.755 58.2808C106.89 58.4456 106.007 58.5019 105.128 58.4483C104.248 58.5019 103.365 58.4456 102.5 58.2808C103.365 58.116 104.248 58.0598 105.128 58.1134C106.007 58.0598 106.89 58.116 107.755 58.2808Z" fill="white"/>
<path d="M108.217 73.0801C107.354 73.2452 106.474 73.3014 105.596 73.2476C104.717 73.3016 103.834 73.2454 102.969 73.0801C103.834 72.911 104.717 72.8548 105.596 72.9127C106.474 72.855 107.355 72.9112 108.217 73.0801Z" fill="white"/>
<path d="M108.217 110.734C107.354 110.899 106.474 110.956 105.596 110.902C104.717 110.956 103.834 110.899 102.969 110.734C103.834 110.569 104.717 110.513 105.596 110.567C106.474 110.513 107.354 110.569 108.217 110.734Z" fill="white"/>
<path d="M108.217 130.126C107.354 130.291 106.474 130.347 105.596 130.293C104.717 130.347 103.834 130.291 102.969 130.126C103.834 129.961 104.717 129.904 105.596 129.958C106.474 129.905 107.354 129.961 108.217 130.126Z" fill="white"/>
<path d="M108.217 93.585C107.354 93.7501 106.474 93.8063 105.596 93.7524C104.717 93.8065 103.834 93.7503 102.969 93.585C103.834 93.4159 104.717 93.3596 105.596 93.4176C106.474 93.3598 107.355 93.4161 108.217 93.585Z" fill="black"/>
<path d="M267.795 162.255C267.795 161.102 267.744 109.202 267.66 28.5405L267.795 28.6822H97.36L97.5274 28.5147C97.5274 76.744 97.5274 122.339 97.5274 162.229L97.3793 162.081L267.795 162.255L97.3278 162.422H97.1797V162.255C97.1797 122.365 97.1797 76.7698 97.1797 28.5405V28.373H97.36H267.795H267.937V28.5083C267.853 109.221 267.795 161.121 267.795 162.255Z" fill="black"/>
<path d="M215.92 138.627H213.621V146.316H215.92V138.627Z" fill="#663AA3"/>
<path d="M196.74 137.513H194.441V146.316H196.74V137.513Z" fill="#663AA3"/>
<path d="M201.533 135.677H199.234V146.316H201.533V135.677Z" fill="#663AA3"/>
<path d="M206.33 136.263H204.031V146.322H206.33V136.263Z" fill="#663AA3"/>
<path d="M211.123 132.856H208.824V146.316H211.123V132.856Z" fill="#663AA3"/>
<path d="M220.713 132.92H218.414V146.315H220.713V132.92Z" fill="#663AA3"/>
<path d="M225.51 137.319H223.211V146.316H225.51V137.319Z" fill="#663AA3"/>
<path d="M230.303 133.514H228.004V146.316H230.303V133.514Z" fill="#663AA3"/>
<path d="M235.1 130.628H232.801V146.316H235.1V130.628Z" fill="#663AA3"/>
<path d="M239.889 133.449H237.59V146.316H239.889V133.449Z" fill="#663AA3"/>
<path d="M244.688 155.852H188.209C186.973 155.85 185.788 155.358 184.914 154.484C184.04 153.61 183.549 152.425 183.547 151.189V117.424C183.549 116.188 184.04 115.003 184.914 114.129C185.788 113.255 186.973 112.763 188.209 112.762H244.688C245.925 112.763 247.109 113.255 247.983 114.129C248.858 115.003 249.349 116.188 249.351 117.424V151.189C249.349 152.425 248.858 153.61 247.983 154.484C247.109 155.358 245.925 155.85 244.688 155.852ZM188.209 113.219C187.095 113.221 186.027 113.664 185.24 114.453C184.453 115.241 184.011 116.31 184.011 117.424V151.189C184.011 152.304 184.453 153.372 185.24 154.161C186.027 154.949 187.095 155.393 188.209 155.395H244.688C245.803 155.393 246.872 154.949 247.66 154.161C248.448 153.373 248.892 152.304 248.894 151.189V117.424C248.892 116.309 248.448 115.241 247.66 114.453C246.872 113.664 245.803 113.221 244.688 113.219H188.209Z" fill="#E0E0E0"/>
<path d="M220.362 123.989C220.362 124.053 213.825 124.111 205.769 124.111C197.712 124.111 191.176 124.053 191.176 123.989C191.176 123.925 197.706 123.873 205.769 123.873C213.832 123.873 220.362 123.925 220.362 123.989Z" fill="#E0E0E0"/>
<path d="M126.242 113.143V154.848H131.291H138.24H170.62V113.143H126.242Z" fill="#F5F5F5"/>
<path d="M148.238 117.87C145.53 117.87 142.883 118.673 140.632 120.178C138.38 121.682 136.625 123.82 135.589 126.322C134.553 128.824 134.282 131.577 134.81 134.233C135.338 136.889 136.642 139.328 138.557 141.243C140.472 143.158 142.911 144.462 145.567 144.99C148.223 145.518 150.976 145.247 153.478 144.211C155.98 143.175 158.118 141.42 159.622 139.168C161.127 136.917 161.93 134.27 161.93 131.562C161.93 127.93 160.487 124.448 157.92 121.88C155.352 119.313 151.87 117.87 148.238 117.87ZM148.444 139.766C146.782 139.766 145.156 139.273 143.773 138.35C142.39 137.426 141.312 136.113 140.675 134.577C140.038 133.041 139.871 131.351 140.194 129.719C140.518 128.088 141.318 126.59 142.493 125.413C143.668 124.236 145.165 123.434 146.796 123.108C148.426 122.782 150.117 122.947 151.654 123.581C153.191 124.216 154.506 125.292 155.431 126.673C156.357 128.055 156.853 129.68 156.855 131.343C156.857 132.448 156.641 133.543 156.219 134.565C155.797 135.587 155.177 136.516 154.396 137.298C153.615 138.081 152.687 138.701 151.666 139.125C150.645 139.548 149.55 139.766 148.444 139.766Z" fill="#BA68C8"/>
<path d="M148.449 117.877V122.971C149.77 122.974 151.072 123.287 152.249 123.886C153.426 124.484 154.446 125.352 155.226 126.417C156.006 127.483 156.524 128.718 156.738 130.021C156.953 131.324 156.858 132.659 156.461 133.919L161.426 135.265C161.991 133.247 162.085 131.126 161.701 129.065C161.318 127.005 160.466 125.06 159.213 123.38C157.959 121.701 156.337 120.331 154.471 119.377C152.605 118.423 150.545 117.91 148.449 117.877Z" fill="#663AA3"/>
<path d="M140.032 131.343C140.032 129.717 140.503 128.127 141.387 126.763C142.272 125.4 143.533 124.322 145.017 123.66L142.911 118.933C140.429 119.979 138.312 121.734 136.822 123.978C135.333 126.222 134.539 128.855 134.539 131.549C134.539 131.742 134.539 131.935 134.539 132.122H140.052C140.032 131.863 140.026 131.602 140.032 131.343Z" fill="#37474F"/>
<path d="M148.443 139.766C147.845 139.767 147.249 139.702 146.666 139.572C146.453 140.796 146.022 143.159 145.738 145.021C146.563 145.173 147.399 145.251 148.237 145.252C151.225 145.252 154.132 144.275 156.513 142.469C158.894 140.663 160.62 138.129 161.426 135.251L156.461 133.918C155.917 135.617 154.848 137.099 153.406 138.15C151.965 139.201 150.227 139.767 148.443 139.766Z" fill="#663AA3"/>
<g opacity="0.3">
<path opacity="0.3" d="M148.439 139.767C147.841 139.769 147.245 139.704 146.662 139.574C146.449 140.798 146.018 143.161 145.734 145.023C146.559 145.175 147.395 145.252 148.233 145.254C151.222 145.254 154.128 144.277 156.509 142.471C158.89 140.665 160.616 138.131 161.422 135.253L156.457 133.92C155.913 135.619 154.844 137.101 153.402 138.152C151.961 139.203 150.223 139.769 148.439 139.767Z" fill="#BA68C8"/>
</g>
<path d="M146.623 132.038H146.115V132.682H145.413V132.038H143.738V131.549L145.207 129.578H145.96L144.601 131.446H145.438V130.866H146.082V131.446H146.591L146.623 132.038Z" fill="black"/>
<path d="M146.84 131.13C146.84 130.106 147.407 129.526 148.173 129.526C148.939 129.526 149.506 130.106 149.506 131.13C149.506 132.154 148.946 132.74 148.173 132.74C147.4 132.74 146.84 132.16 146.84 131.13ZM148.772 131.13C148.772 130.428 148.521 130.132 148.128 130.132C147.735 130.132 147.522 130.428 147.522 131.13C147.522 131.832 147.774 132.135 148.128 132.135C148.482 132.135 148.785 131.838 148.785 131.13H148.772Z" fill="black"/>
<path d="M149.801 130.402C149.79 130.293 149.801 130.183 149.835 130.078C149.869 129.974 149.924 129.878 149.998 129.796C150.071 129.715 150.161 129.65 150.262 129.605C150.362 129.561 150.471 129.539 150.581 129.539C150.754 129.522 150.928 129.558 151.081 129.642C151.233 129.726 151.357 129.854 151.435 130.01C151.513 130.165 151.543 130.341 151.52 130.513C151.496 130.686 151.421 130.847 151.305 130.976C151.188 131.106 151.035 131.197 150.866 131.237C150.697 131.278 150.519 131.266 150.356 131.204C150.194 131.142 150.054 131.032 149.955 130.889C149.856 130.746 149.802 130.576 149.801 130.402ZM150.903 130.402C150.903 130.067 150.774 129.906 150.581 129.906C150.387 129.906 150.252 130.074 150.252 130.402C150.252 130.731 150.387 130.892 150.581 130.892C150.774 130.892 150.903 130.731 150.903 130.402ZM152.429 129.578H152.963L150.838 132.688H150.304L152.429 129.578ZM151.92 131.864C151.936 131.714 151.996 131.572 152.091 131.455C152.187 131.338 152.314 131.251 152.458 131.206C152.601 131.16 152.755 131.156 152.901 131.196C153.047 131.236 153.177 131.318 153.278 131.43C153.378 131.543 153.443 131.683 153.465 131.832C153.488 131.981 153.467 132.134 153.404 132.271C153.341 132.408 153.24 132.525 153.113 132.605C152.986 132.686 152.837 132.729 152.687 132.727C152.578 132.727 152.47 132.704 152.37 132.659C152.271 132.614 152.182 132.549 152.11 132.467C152.037 132.386 151.983 132.29 151.95 132.186C151.918 132.082 151.907 131.972 151.92 131.864ZM153.015 131.864C153.015 131.536 152.886 131.375 152.687 131.375C152.487 131.375 152.365 131.536 152.365 131.864C152.365 132.193 152.5 132.36 152.687 132.36C152.873 132.36 153.015 132.193 153.015 131.864Z" fill="black"/>
<path d="M159.573 148.731C159.573 148.802 154.498 148.86 148.238 148.86C141.978 148.86 136.91 148.802 136.91 148.731C136.91 148.66 141.978 148.596 148.238 148.596C154.498 148.596 159.573 148.634 159.573 148.731Z" fill="black"/>
<path d="M154.524 150.791C154.524 150.862 151.71 150.92 148.239 150.92C144.767 150.92 141.953 150.862 141.953 150.791C141.953 150.721 144.767 150.656 148.239 150.656C151.71 150.656 154.524 150.721 154.524 150.791Z" fill="black"/>
<path d="M258.371 52.0143H257.727H255.795H248.267L220.227 52.1302L125.095 52.1881L125.327 52.0207C125.327 59.4976 125.327 67.2513 125.327 75.2048C125.327 83.3836 125.327 91.3628 125.327 99.0715L125.095 98.9041L219.564 98.962L247.353 99.0135L254.816 99.0457H256.748H257.392C257.392 99.0457 257.174 99.0457 256.748 99.0457H254.816H247.353L219.564 99.0972L125.095 99.1552H124.863V98.9878C124.863 91.2597 124.863 83.2999 124.863 75.121C124.863 67.1869 124.863 59.4332 124.863 51.937V51.7695H125.095L220.227 51.8275L248.228 51.879H255.757H257.689L258.371 52.0143Z" fill="#E0E0E0"/>
<path d="M258.374 59.9366C258.374 60.0267 228.537 60.104 191.739 60.104C154.941 60.104 125.098 60.0267 125.098 59.9366C125.098 59.8464 154.928 59.7627 191.739 59.7627C228.55 59.7627 258.374 59.8593 258.374 59.9366Z" fill="#E0E0E0"/>
<path d="M258.374 66.4151C258.374 66.5052 228.537 66.5825 191.739 66.5825C154.941 66.5825 125.098 66.5052 125.098 66.4151C125.098 66.3249 154.928 66.2412 191.739 66.2412C228.55 66.2412 258.374 66.2992 258.374 66.4151Z" fill="#E0E0E0"/>
<path d="M258.374 72.8938C258.374 72.984 228.537 73.0613 191.739 73.0613C154.941 73.0613 125.098 72.984 125.098 72.8938C125.098 72.8037 154.928 72.7393 191.739 72.7393C228.55 72.7393 258.374 72.7972 258.374 72.8938Z" fill="#E0E0E0"/>
<path d="M258.374 79.3719C258.374 79.4621 228.537 79.5394 191.739 79.5394C154.941 79.5394 125.098 79.4621 125.098 79.3719C125.098 79.2818 154.928 79.1787 191.739 79.1787C228.55 79.1787 258.374 79.2753 258.374 79.3719Z" fill="#E0E0E0"/>
<path d="M258.374 85.8506C258.374 85.9408 228.537 86.0181 191.739 86.0181C154.941 86.0181 125.098 85.9408 125.098 85.8506C125.098 85.7605 154.928 85.6768 191.739 85.6768C228.55 85.6768 258.374 85.754 258.374 85.8506Z" fill="#E0E0E0"/>
<path d="M125.098 92.3217C125.098 92.2316 154.934 92.1543 191.733 92.1543C228.531 92.1543 258.374 92.2316 258.374 92.3217C258.374 92.4119 228.544 92.4956 191.733 92.4956C154.921 92.4956 125.098 92.4183 125.098 92.3217Z" fill="#E0E0E0"/>
<path d="M143.988 99.7873C143.891 99.7873 143.82 89.1033 143.82 75.9206C143.82 62.7379 143.891 52.041 143.988 52.041C144.084 52.041 144.162 62.7315 144.162 75.9206C144.162 89.1098 144.084 99.7873 143.988 99.7873Z" fill="#E0E0E0"/>
<path d="M163.186 99.7873C163.089 99.7873 163.012 89.1033 163.012 75.9206C163.012 62.7379 163.089 52.041 163.186 52.041C163.282 52.041 163.353 62.7315 163.353 75.9206C163.353 89.1098 163.276 99.7873 163.186 99.7873Z" fill="#E0E0E0"/>
<path d="M182.374 99.7873C182.284 99.7873 182.207 89.1033 182.207 75.9206C182.207 62.7379 182.284 52.041 182.374 52.041C182.465 52.041 182.548 62.7315 182.548 75.9206C182.548 89.1098 182.471 99.7873 182.374 99.7873Z" fill="#E0E0E0"/>
<path d="M201.572 99.7873C201.476 99.7873 201.398 89.1033 201.398 75.9206C201.398 62.7379 201.476 52.041 201.572 52.041C201.669 52.041 201.74 62.7315 201.74 75.9206C201.74 89.1098 201.656 99.7873 201.572 99.7873Z" fill="#E0E0E0"/>
<path d="M220.761 99.7873C220.671 99.7873 220.594 89.1033 220.594 75.9206C220.594 62.7379 220.671 52.041 220.761 52.041C220.851 52.041 220.935 62.7315 220.935 75.9206C220.935 89.1098 220.858 99.7873 220.761 99.7873Z" fill="#E0E0E0"/>
<path d="M239.35 99.7873C239.253 99.7873 239.176 89.1033 239.176 75.9206C239.176 62.7379 239.253 52.041 239.35 52.041C239.446 52.041 239.517 62.7315 239.517 75.9206C239.517 89.1098 239.44 99.7873 239.35 99.7873Z" fill="#E0E0E0"/>
<path d="M258.539 99.7873C258.448 99.7873 258.371 89.1033 258.371 75.9206C258.371 62.7379 258.448 52.041 258.539 52.041C258.629 52.041 258.712 62.7315 258.712 75.9206C258.712 89.1098 258.635 99.7873 258.539 99.7873Z" fill="#E0E0E0"/>
<path d="M145.157 92.3229C145.158 92.555 145.09 92.7822 144.962 92.9758C144.834 93.1694 144.652 93.3206 144.438 93.4103C144.224 93.5 143.988 93.5241 143.76 93.4796C143.532 93.4352 143.323 93.324 143.158 93.1604C142.994 92.9967 142.881 92.7879 142.835 92.5604C142.79 92.3328 142.813 92.0968 142.901 91.8823C142.99 91.6677 143.14 91.4843 143.333 91.3552C143.526 91.2261 143.752 91.1572 143.985 91.1572C144.294 91.1572 144.591 91.2798 144.811 91.4982C145.031 91.7167 145.155 92.0131 145.157 92.3229Z" fill="#663AA3"/>
<path d="M164.348 79.3713C164.348 79.6034 164.279 79.8303 164.15 80.0232C164.021 80.216 163.838 80.3663 163.623 80.4548C163.408 80.5433 163.172 80.5661 162.945 80.5204C162.717 80.4746 162.509 80.3624 162.345 80.1978C162.181 80.0332 162.07 79.8238 162.026 79.596C161.981 79.3682 162.005 79.1324 162.095 78.9183C162.185 78.7042 162.336 78.5216 162.53 78.3936C162.723 78.2656 162.95 78.198 163.182 78.1992C163.336 78.1992 163.488 78.2296 163.63 78.2886C163.772 78.3476 163.901 78.434 164.009 78.5429C164.117 78.6518 164.203 78.7811 164.261 78.9233C164.319 79.0654 164.349 79.2177 164.348 79.3713Z" fill="#663AA3"/>
<path d="M183.547 85.734C183.549 85.9661 183.481 86.1933 183.353 86.3869C183.225 86.5805 183.042 86.7318 182.828 86.8215C182.614 86.9112 182.378 86.9353 182.15 86.8908C181.923 86.8463 181.713 86.7352 181.549 86.5715C181.384 86.4079 181.272 86.199 181.226 85.9715C181.18 85.7439 181.203 85.508 181.292 85.2934C181.38 85.0789 181.53 84.8954 181.723 84.7663C181.916 84.6373 182.143 84.5684 182.375 84.5684C182.684 84.57 182.981 84.6932 183.2 84.9112C183.419 85.1293 183.544 85.4248 183.547 85.734Z" fill="#663AA3"/>
<path d="M202.623 72.095C202.85 72.3222 202.977 72.6303 202.977 72.9515C202.977 73.2728 202.85 73.5809 202.623 73.8081C202.395 74.0352 202.087 74.1628 201.766 74.1628C201.445 74.1628 201.137 74.0352 200.909 73.8081C200.682 73.5809 200.555 73.2728 200.555 72.9515C200.555 72.6303 200.682 72.3222 200.909 72.095C201.137 71.8679 201.445 71.7402 201.766 71.7402C202.087 71.7402 202.395 71.8679 202.623 72.095Z" fill="#663AA3"/>
<path d="M222.037 72.095C222.149 72.2075 222.238 72.341 222.299 72.488C222.36 72.635 222.391 72.7925 222.391 72.9515C222.391 73.1106 222.36 73.2681 222.299 73.4151C222.238 73.562 222.149 73.6956 222.037 73.8081C221.924 73.9205 221.791 74.0098 221.644 74.0706C221.497 74.1315 221.339 74.1628 221.18 74.1628C221.021 74.1628 220.863 74.1315 220.717 74.0706C220.57 74.0098 220.436 73.9205 220.324 73.8081C220.096 73.5809 219.969 73.2728 219.969 72.9515C219.969 72.6303 220.096 72.3222 220.324 72.095C220.551 71.8679 220.859 71.7402 221.18 71.7402C221.501 71.7402 221.809 71.8679 222.037 72.095Z" fill="#663AA3"/>
<path d="M240.201 84.8069C240.428 85.0341 240.555 85.3422 240.555 85.6635C240.555 85.9847 240.428 86.2928 240.201 86.52C239.973 86.7471 239.665 86.8748 239.344 86.8748C239.023 86.8748 238.715 86.7471 238.488 86.52C238.26 86.2928 238.133 85.9847 238.133 85.6635C238.133 85.3422 238.26 85.0341 238.488 84.8069C238.715 84.5798 239.023 84.4521 239.344 84.4521C239.665 84.4521 239.973 84.5798 240.201 84.8069Z" fill="#663AA3"/>
<path d="M164.348 66.4153C164.348 66.6474 164.279 66.8742 164.15 67.0671C164.021 67.26 163.838 67.4102 163.623 67.4987C163.408 67.5873 163.172 67.6101 162.945 67.5643C162.717 67.5186 162.509 67.4063 162.345 67.2417C162.181 67.0772 162.07 66.8677 162.026 66.64C161.981 66.4122 162.005 66.1763 162.095 65.9623C162.185 65.7482 162.336 65.5656 162.53 65.4376C162.723 65.3096 162.95 65.2419 163.182 65.2432C163.336 65.2432 163.488 65.2735 163.63 65.3325C163.772 65.3915 163.901 65.4779 164.009 65.5869C164.117 65.6958 164.203 65.825 164.261 65.9672C164.319 66.1094 164.349 66.2616 164.348 66.4153Z" fill="#A2909E"/>
<path d="M145.157 85.8498C145.157 86.0816 145.088 86.3083 144.959 86.501C144.83 86.6937 144.647 86.844 144.433 86.9327C144.219 87.0214 143.983 87.0446 143.756 86.9994C143.529 86.9542 143.32 86.8425 143.156 86.6786C142.992 86.5147 142.88 86.3058 142.835 86.0785C142.79 85.8511 142.813 85.6155 142.902 85.4013C142.99 85.1871 143.141 85.0041 143.333 84.8753C143.526 84.7465 143.753 84.6777 143.985 84.6777C144.295 84.6777 144.594 84.8012 144.813 85.021C145.033 85.2408 145.157 85.539 145.157 85.8498Z" fill="#A2909E"/>
<path d="M240.206 91.4722C240.413 91.7031 240.523 92.0046 240.514 92.3145C240.505 92.6244 240.378 92.9191 240.158 93.1379C239.939 93.3567 239.644 93.4829 239.334 93.4906C239.024 93.4982 238.723 93.3866 238.493 93.1788C238.286 92.948 238.175 92.6465 238.184 92.3366C238.193 92.0267 238.32 91.732 238.54 91.5132C238.759 91.2943 239.055 91.1681 239.365 91.1605C239.675 91.1529 239.976 91.2645 240.206 91.4722Z" fill="#A2909E"/>
<path d="M221.934 79.3713C221.934 79.6031 221.865 79.8298 221.736 80.0225C221.608 80.2152 221.425 80.3655 221.21 80.4542C220.996 80.5429 220.761 80.5661 220.533 80.5209C220.306 80.4757 220.097 80.364 219.933 80.2001C219.769 80.0362 219.658 79.8273 219.612 79.6C219.567 79.3726 219.59 79.137 219.679 78.9228C219.768 78.7086 219.918 78.5256 220.111 78.3968C220.304 78.268 220.53 78.1992 220.762 78.1992C220.916 78.1984 221.069 78.2281 221.211 78.2867C221.354 78.3453 221.484 78.4316 221.593 78.5406C221.702 78.6496 221.788 78.7792 221.847 78.9218C221.905 79.0644 221.935 79.2172 221.934 79.3713Z" fill="#A2909E"/>
<path d="M202.946 79.1783C202.947 79.4104 202.879 79.6377 202.751 79.8313C202.623 80.0249 202.441 80.1761 202.227 80.2658C202.013 80.3555 201.777 80.3796 201.549 80.3351C201.321 80.2906 201.112 80.1795 200.947 80.0158C200.783 79.8522 200.67 79.6434 200.625 79.4158C200.579 79.1883 200.602 78.9523 200.69 78.7377C200.779 78.5232 200.929 78.3398 201.122 78.2107C201.315 78.0816 201.542 78.0127 201.774 78.0127C202.083 78.0144 202.379 78.1375 202.598 78.3556C202.818 78.5736 202.942 78.8691 202.946 79.1783Z" fill="#A2909E"/>
<path d="M135.966 104.41C134.744 104.633 133.492 104.633 132.27 104.41C133.491 104.178 134.745 104.178 135.966 104.41Z" fill="#E0E0E0"/>
<path d="M155.591 104.41C154.369 104.633 153.117 104.633 151.895 104.41C153.116 104.178 154.37 104.178 155.591 104.41Z" fill="#E0E0E0"/>
<path d="M175.206 104.41C173.986 104.633 172.736 104.633 171.516 104.41C172.735 104.178 173.987 104.178 175.206 104.41Z" fill="#E0E0E0"/>
<path d="M194.829 104.41C193.607 104.633 192.355 104.633 191.133 104.41C192.354 104.178 193.608 104.178 194.829 104.41Z" fill="#E0E0E0"/>
<path d="M214.443 104.41C213.221 104.633 211.968 104.633 210.746 104.41C211.967 104.178 213.221 104.178 214.443 104.41Z" fill="#E0E0E0"/>
<path d="M231.993 104.41C230.771 104.633 229.519 104.633 228.297 104.41C229.518 104.178 230.772 104.178 231.993 104.41Z" fill="#E0E0E0"/>
<path d="M249.536 104.41C248.314 104.633 247.062 104.633 245.84 104.41C247.061 104.178 248.315 104.178 249.536 104.41Z" fill="#E0E0E0"/>
<path d="M122.322 98.7901C121.844 98.9531 121.336 99.0102 120.834 98.9576C120.33 99.0099 119.82 98.9528 119.34 98.7901C119.818 98.6199 120.329 98.5604 120.834 98.6163C121.337 98.56 121.845 98.6195 122.322 98.7901Z" fill="#E0E0E0"/>
<path d="M122.322 91.253C121.844 91.416 121.336 91.4731 120.834 91.4205C120.33 91.4728 119.82 91.4157 119.34 91.253C119.818 91.0828 120.329 91.0233 120.834 91.0792C121.337 91.0229 121.845 91.0824 122.322 91.253Z" fill="#E0E0E0"/>
<path d="M122.322 83.7189C121.844 83.8818 121.336 83.9389 120.834 83.8863C120.33 83.9386 119.82 83.8815 119.34 83.7189C119.818 83.5486 120.329 83.4891 120.834 83.545C121.337 83.4887 121.845 83.5482 122.322 83.7189Z" fill="#E0E0E0"/>
<path d="M122.322 76.1837C121.844 76.3466 121.336 76.4038 120.834 76.3511C120.33 76.4035 119.82 76.3464 119.34 76.1837C119.818 76.0134 120.329 75.954 120.834 76.0098C121.337 75.9536 121.845 76.0131 122.322 76.1837Z" fill="#E0E0E0"/>
<path d="M122.322 68.6495C121.844 68.8125 121.336 68.8696 120.834 68.817C120.33 68.8693 119.82 68.8122 119.34 68.6495C119.818 68.4792 120.329 68.4198 120.834 68.4756C121.337 68.4194 121.845 68.4789 122.322 68.6495Z" fill="#E0E0E0"/>
<path d="M122.322 61.1456C121.844 61.3086 121.336 61.3657 120.834 61.3131C120.33 61.3654 119.82 61.3083 119.34 61.1456C119.818 60.9753 120.329 60.9159 120.834 60.9717C121.337 60.9155 121.845 60.975 122.322 61.1456Z" fill="#E0E0E0"/>
<path d="M122.322 53.5783C121.844 53.7413 121.336 53.7984 120.834 53.7457C120.33 53.7981 119.82 53.741 119.34 53.5783C119.819 53.4124 120.33 53.3573 120.834 53.4173C121.336 53.3569 121.844 53.412 122.322 53.5783Z" fill="#E0E0E0"/>
<path d="M124.97 99.3489L124.758 98.7435L143.84 92.0395L163.134 79.0113L182.332 85.3805L201.671 72.6228L221.043 72.5713L221.126 72.6293L239.525 85.6252L257.358 73.8464L257.712 74.3874L239.513 86.4109L239.332 86.2821L220.836 73.2153L201.864 73.2668L182.428 86.0889L163.231 79.7262L144.097 92.632L124.97 99.3489Z" fill="#663AA3"/>
<path d="M239.627 92.4645L220.841 79.694H201.476L182.098 66.9041L163.313 66.7367L144.121 86.1662H125.098V85.5222H143.851L163.049 66.0862L182.298 66.2601L201.67 79.05H221.035L239.414 91.5372L257.762 59.292L258.322 59.6076L239.627 92.4645Z" fill="#A2909E"/>
<path d="M258.173 42.5932C258.173 42.6898 250.934 42.7607 242.008 42.7607C233.082 42.7607 225.844 42.6898 225.844 42.5932C225.844 42.4966 233.082 42.4258 242.008 42.4258C250.934 42.4258 258.173 42.5031 258.173 42.5932Z" fill="black"/>
<path d="M126.051 41.9029H124.879V41.2139H128.099V41.9029H126.927V44.8782H126.051V41.9029Z" fill="black"/>
<path d="M130.861 44.8782L130.172 43.8543H129.387V44.8782H128.543V41.2139H130.127C131.106 41.2139 131.718 41.7226 131.718 42.5405C131.728 42.7881 131.662 43.0328 131.527 43.2406C131.391 43.4484 131.195 43.6089 130.964 43.6997L131.789 44.8782H130.861ZM130.069 41.9029H129.374V43.191H130.069C130.584 43.191 130.848 42.9527 130.848 42.547C130.848 42.1412 130.584 41.9029 130.069 41.9029Z" fill="black"/>
<path d="M135.215 44.1956V44.8782H132.375V41.2139H135.144V41.8579H133.212V42.6564H134.912V43.3004H133.212V44.1505L135.215 44.1956Z" fill="black"/>
<path d="M139.25 41.2139V44.8782H138.541L136.712 42.65V44.8782H135.875V41.2139H136.609L138.438 43.4357V41.2139H139.25Z" fill="black"/>
<path d="M140.117 41.2138H141.766C142.022 41.1874 142.281 41.2151 142.526 41.2952C142.771 41.3753 142.997 41.5059 143.188 41.6786C143.379 41.8513 143.532 42.0622 143.637 42.2977C143.742 42.5333 143.796 42.7882 143.796 43.0459C143.796 43.3037 143.742 43.5586 143.637 43.7941C143.532 44.0297 143.379 44.2406 143.188 44.4133C142.997 44.586 142.771 44.7166 142.526 44.7967C142.281 44.8768 142.022 44.9045 141.766 44.8781H140.098L140.117 41.2138ZM141.766 44.1826C141.922 44.1944 142.079 44.1738 142.227 44.122C142.376 44.0702 142.511 43.9884 142.626 43.8817C142.741 43.775 142.833 43.6457 142.896 43.5019C142.959 43.3581 142.991 43.2029 142.991 43.0459C142.991 42.889 142.959 42.7338 142.896 42.59C142.833 42.4462 142.741 42.3169 142.626 42.2102C142.511 42.1035 142.376 42.0217 142.227 41.9699C142.079 41.9181 141.922 41.8975 141.766 41.9093H140.993V44.1826H141.766Z" fill="black"/>
<path d="M94.2499 128.405L91.9894 131.232V126.363H84.8539C84.8539 126.363 84.0617 137.517 84.2099 139.887C84.358 142.257 87.0435 149.058 87.0435 149.058C89.8029 147.419 92.2388 145.289 94.2305 142.772C97.399 138.702 102.667 128.772 102.667 128.772L97.1736 125.455L94.2499 128.405Z" fill="#FFBE9D"/>
<path d="M94.7035 127.884C94.4377 128.329 94.127 128.746 93.7762 129.127C93.1708 129.874 92.34 130.898 91.3869 132.012C90.4338 133.126 89.5322 134.099 88.8109 134.762C88.4586 135.152 88.048 135.484 87.5938 135.748C87.9161 135.343 88.2646 134.96 88.637 134.601C89.281 133.899 90.1504 132.901 91.1036 131.793C93.0162 129.565 94.6263 127.807 94.7035 127.884Z" fill="#EB996E"/>
<path d="M94.4916 110.174C94.4916 110.174 92.463 93.5263 84.4259 91.8262L80.2656 107.823L83.7239 119.364L95.1936 117.818L94.4916 110.174Z" fill="#663AA3"/>
<path d="M41.418 121.232L41.7979 122.424L49.6676 147.16C49.6676 147.16 69.1487 154.527 76.1426 151.629C83.1364 148.731 86.3693 144.545 86.3693 144.545L84.8108 91.8914L73.7147 90.2106L54.5814 88.8066L41.7657 92.9218L41.418 121.232Z" fill="#663AA3"/>
<g opacity="0.3">
<path opacity="0.3" d="M65.5681 130.872C58.2609 127.731 51.4457 123.551 45.3335 118.462L41.418 120.548C44.3611 126.493 46.8147 131.915 50.8719 137.164C52.2757 139.044 54.1352 140.535 56.2751 141.498C57.8137 142.041 59.4709 142.157 61.07 141.833C62.6692 141.508 64.1503 140.756 65.3555 139.656C67.6868 137.486 69.4385 131.11 68.6721 125.913C67.3648 125.99 66.7788 131.374 65.5681 130.872Z" fill="#BA68C8"/>
</g>
<path d="M85.908 115.66C85.6692 113.87 85.2373 112.11 84.62 110.412C83.889 108.758 82.9776 107.19 81.9023 105.736C82.3249 106.071 82.696 106.466 83.0036 106.908C83.7931 107.943 84.4427 109.078 84.9356 110.283C85.4273 111.489 85.7523 112.757 85.9016 114.05C85.9825 114.584 85.9847 115.126 85.908 115.66Z" fill="black"/>
<path d="M85.874 76.3573C85.3604 76.4209 84.8392 76.3437 84.3661 76.1338C83.8931 75.924 83.486 75.5894 83.1885 75.1659C83.8711 75.3391 84.5905 75.2987 85.2493 75.0499C85.8933 74.7344 86.2282 73.8135 85.7388 73.3111C85.3588 72.9183 84.7277 72.9891 84.1867 72.9505C83.551 72.893 82.9447 72.6561 82.4385 72.2673C81.9322 71.8785 81.5469 71.3538 81.3274 70.7545C80.8637 69.4278 81.2823 67.9852 81.4497 66.5942C81.6688 64.5599 81.3394 62.5041 80.4957 60.6401C79.652 58.7761 78.3248 57.1719 76.6519 55.9939L67.9257 50.9707C64.7636 55.015 63.7783 60.4762 64.4352 65.5702C65.0921 70.6643 67.2495 75.4621 69.8512 79.8928C70.5638 81.2133 71.4497 82.4327 72.4852 83.5186C73.528 84.6086 74.9071 85.3163 76.4007 85.5279C76.5929 84.912 76.6347 84.2591 76.5226 83.6238C76.4106 82.9885 76.148 82.3893 75.7567 81.8764C76.9395 81.9453 78.124 81.7749 79.2394 81.3754C80.3548 80.976 81.3782 80.3556 82.2483 79.5515L80.3742 78.1218C81.3642 78.248 82.3699 78.1554 83.3201 77.8505C84.2704 77.5456 85.1422 77.0359 85.874 76.3573Z" fill="black"/>
<path d="M52.2744 62.1315C52.3026 60.3773 52.8945 58.6788 53.9627 57.2871C55.0308 55.8954 56.5185 54.8843 58.2056 54.4035L69.1537 51.28C73.9 50.636 77.2488 56.3934 77.6932 61.1655C78.1955 66.4656 78.569 72.062 78.0602 76.0419C77.0427 84.0469 70.9762 85.2512 70.9762 85.2512C70.9762 85.2512 71.0857 89.0379 71.1501 91.3692L69.3662 101.796L54.9212 89.4823L52.2422 62.2281C52.2422 62.0928 52.2422 62.3118 52.2744 62.1315Z" fill="#FFBE9D"/>
<path d="M76.3057 67.2764C76.3164 67.5427 76.2228 67.8027 76.0448 68.0012C75.8668 68.1996 75.6185 68.3208 75.3526 68.339C75.2227 68.3541 75.0912 68.3429 74.9658 68.3061C74.8404 68.2692 74.7238 68.2075 74.6228 68.1245C74.5218 68.0416 74.4385 67.9391 74.378 67.8233C74.3175 67.7074 74.281 67.5806 74.2706 67.4503C74.2582 67.1846 74.3504 66.9246 74.5273 66.726C74.7043 66.5273 74.9519 66.4059 75.2173 66.3877C75.3473 66.3735 75.4789 66.3852 75.6043 66.4224C75.7297 66.4595 75.8465 66.5212 75.9478 66.604C76.0491 66.6867 76.1329 66.7887 76.1943 66.9042C76.2558 67.0196 76.2936 67.1462 76.3057 67.2764Z" fill="black"/>
<path d="M76.5829 64.3667C76.4541 64.502 75.6684 63.9546 74.5672 63.9932C73.4659 64.0318 72.6803 64.6372 72.5579 64.4698C72.4355 64.3023 72.6159 64.1671 72.9572 63.903C73.4251 63.56 73.9871 63.369 74.5672 63.3556C75.1378 63.3327 75.7004 63.4954 76.1707 63.8193C76.5185 64.0512 76.6409 64.283 76.5829 64.3667Z" fill="black"/>
<path d="M66.6768 67.2904C66.6874 67.5567 66.5939 67.8167 66.4159 68.0151C66.2379 68.2136 65.9896 68.3348 65.7236 68.353C65.5938 68.3681 65.4623 68.3569 65.3369 68.3201C65.2115 68.2832 65.0948 68.2215 64.9938 68.1385C64.8928 68.0556 64.8096 67.9531 64.7491 67.8372C64.6886 67.7214 64.6521 67.5945 64.6417 67.4643C64.6294 67.1975 64.7224 66.9366 64.9007 66.7378C65.079 66.539 65.3283 66.4183 65.5948 66.4017C65.7243 66.3883 65.8552 66.4008 65.9799 66.4384C66.1045 66.4759 66.2205 66.5378 66.3211 66.6204C66.4217 66.7031 66.5049 66.8048 66.566 66.9198C66.627 67.0348 66.6647 67.1608 66.6768 67.2904Z" fill="black"/>
<path d="M66.1336 64.6426C66.0113 64.7843 65.2191 64.2304 64.1179 64.2691C63.0167 64.3077 62.231 64.9131 62.1086 64.7521C61.9863 64.5911 62.1666 64.4494 62.5143 64.1789C62.9799 63.836 63.5398 63.6449 64.1179 63.6315C64.6901 63.6118 65.2538 63.7741 65.7279 64.0952C66.0692 64.3657 66.198 64.5846 66.1336 64.6426Z" fill="black"/>
<path d="M69.8162 73.1828C70.3908 72.9836 70.9878 72.856 71.5936 72.8028C71.8706 72.8028 72.1346 72.7062 72.1797 72.513C72.1919 72.2212 72.118 71.9323 71.9672 71.6822C71.6774 71.0382 71.3811 70.3105 71.072 69.5699C69.8226 66.5624 68.9081 64.0894 69.0305 64.0379C69.1529 63.9864 70.2606 66.3885 71.5099 69.396L72.3729 71.5212C72.5592 71.8538 72.623 72.2412 72.5532 72.616C72.5156 72.7167 72.4554 72.8073 72.3772 72.881C72.2991 72.9547 72.2051 73.0094 72.1024 73.0411C71.9481 73.0907 71.7878 73.1188 71.6258 73.1248C71.0278 73.2235 70.4193 73.243 69.8162 73.1828Z" fill="black"/>
<path d="M60.3086 82.7402C60.3086 82.7402 63.0585 88.1434 71.0055 87.1517L70.954 85.2776C67.2388 85.4358 63.5529 84.5572 60.3086 82.7402Z" fill="#EB996E"/>
<path d="M65.6783 60.6835C65.5817 60.9862 64.474 60.8767 63.1924 61.0699C61.9108 61.2631 60.874 61.6495 60.6937 61.3855C60.6164 61.2631 60.7903 60.9733 61.196 60.6707C61.7471 60.2969 62.3777 60.0565 63.0379 59.9687C63.6861 59.8732 64.3477 59.9306 64.9699 60.1361C65.4722 60.31 65.7233 60.5419 65.6783 60.6835Z" fill="black"/>
<path d="M76.1233 60.9907C75.9365 61.2483 75.1702 60.9906 74.2621 61.0293C73.3541 61.0679 72.5813 61.2483 72.401 60.9907C72.3172 60.8683 72.401 60.6171 72.7616 60.3466C73.2053 60.0487 73.7277 59.8896 74.2621 59.8896C74.7966 59.8896 75.3189 60.0487 75.7626 60.3466C76.0718 60.6171 76.207 60.8683 76.1233 60.9907Z" fill="black"/>
<path d="M65.6993 75.3154C65.7702 74.9874 65.9542 74.6947 66.2191 74.4887C66.484 74.2826 66.8129 74.1763 67.1483 74.1884C67.3991 74.2099 67.6404 74.2943 67.8498 74.4339C68.0592 74.5735 68.2299 74.7638 68.3462 74.987C68.458 75.2063 68.5248 75.4458 68.5425 75.6914C68.5602 75.937 68.5285 76.1836 68.4492 76.4167V76.5197C68.2284 76.7747 67.9335 76.9545 67.6057 77.0341C67.2779 77.1138 66.9335 77.0893 66.6203 76.9641C66.3033 76.8334 66.0398 76.5994 65.8727 76.3001C65.7055 76.0008 65.6444 75.6538 65.6993 75.3154Z" fill="#EB996E"/>
<path d="M69.2056 76.5178C69.2056 76.3568 68.0915 76.4405 67.2285 75.5518C66.3655 74.6631 66.3977 73.4717 66.2432 73.4717C66.0886 73.4717 66.0435 73.755 66.0693 74.2574C66.1154 74.9083 66.3864 75.5229 66.8357 75.9962C67.2694 76.446 67.8599 76.7113 68.4843 76.7368C68.9866 76.7432 69.2185 76.6015 69.2056 76.5178Z" fill="black"/>
<path d="M55.9531 49.438C57.4909 47.2505 59.766 45.6911 62.3609 45.0459C64.937 44.5951 66.5212 45.0459 68.2278 46.598C68.9566 47.298 69.8386 47.8184 70.8038 48.1178C72.0467 48.3625 73.09 48.1565 74.5712 48.9164C76.5998 49.9532 77.4886 52.658 78.4352 54.7124C79.6009 57.2884 81.2624 59.6648 82.0223 62.3889C82.7823 65.113 82.383 68.4619 80.0903 70.1169C80.5282 67.7921 80.8889 65.2032 79.6138 63.2132C78.6413 61.6934 76.9025 60.8497 75.6532 59.5489C74.1462 57.9775 73.953 55.8716 72.3687 54.3968C68.7623 50.9772 62.4189 56.9729 55.9724 49.4445" fill="black"/>
<path d="M78.8532 60.3349C78.0194 58.0136 76.8216 55.8398 75.3048 53.8948C73.2875 51.548 70.4726 50.0315 67.4032 49.6379C64.3337 49.2442 61.2272 50.0014 58.6831 51.7632L58.0391 51.8147C59.0247 53.0461 60.2741 54.0406 61.6952 54.7249C63.1163 55.4093 64.6728 55.766 66.2501 55.7689C68.1241 55.7689 70.1527 55.2794 71.7627 56.2455C73.3728 57.2115 73.888 59.1177 75.1631 60.3928C76.026 61.2558 77.1852 61.7903 78.0289 62.6855C78.8512 63.6967 79.4543 64.8678 79.7999 66.1244C80.3537 64.2053 79.6196 62.1767 78.8532 60.3349Z" fill="black"/>
<path d="M62.0961 53.3208L56.9892 48.8128C53.0092 48.6067 50.4525 52.3677 49.0872 55.2528C48.0697 57.4102 47.7542 59.8252 46.9878 62.0857C46.2214 64.3461 44.9463 66.5551 44.2315 68.8928C43.5166 71.2305 43.42 73.9611 44.8304 75.9768L45.7191 74.3411C45.868 76.6294 46.8083 78.7946 48.3788 80.4655C48.4948 79.8988 48.6107 79.3321 48.7202 78.7589C49.5655 80.4943 50.9114 81.9366 52.5842 82.8998L54.9799 89.2948C58.509 78.5335 49.4157 77.7221 62.0961 53.3208Z" fill="black"/>
<path d="M61.3634 54.2553C61.1013 55.7156 60.7001 57.1475 60.1655 58.5315C59.6253 59.9204 58.7169 61.136 57.538 62.0477C55.7927 63.3357 53.5387 63.574 51.4393 64.0828C49.3398 64.5915 47.1052 65.5511 46.2422 67.5282C46.5837 64.6256 47.1829 61.7593 48.0325 58.9629C48.9663 55.8782 50.3123 52.7741 52.8883 50.797C54.0704 49.9101 55.455 49.3319 56.9168 49.1149C58.3787 48.8979 59.8715 49.0488 61.2603 49.5541" fill="black"/>
<path d="M55.9323 68.3273C55.8228 68.0632 50.8705 66.4339 50.9542 71.6503C51.0315 76.7186 56.1062 75.5723 56.1062 75.4242C56.1062 75.276 55.9323 68.3273 55.9323 68.3273Z" fill="#FFBE9D"/>
<path d="M54.5219 73.536C54.5219 73.536 54.4382 73.6004 54.2901 73.6712C54.0832 73.753 53.853 73.753 53.6461 73.6712C53.1051 73.4845 52.6414 72.6473 52.5964 71.7392C52.5751 71.2985 52.652 70.8585 52.8218 70.4512C52.865 70.2927 52.9463 70.147 53.0585 70.027C53.1707 69.9069 53.3105 69.816 53.4658 69.7621C53.567 69.7316 53.6757 69.7382 53.7725 69.7807C53.8693 69.8232 53.9478 69.8988 53.9938 69.994C54.0647 70.1292 54.0325 70.2322 54.0582 70.2451C54.084 70.258 54.1677 70.155 54.1226 69.9489C54.0915 69.8235 54.0189 69.7123 53.9166 69.6333C53.775 69.5315 53.5999 69.4878 53.4271 69.511C53.2213 69.5602 53.0307 69.6594 52.8724 69.7998C52.714 69.9402 52.5926 70.1175 52.5191 70.316C52.3124 70.7585 52.2173 71.245 52.2422 71.7328C52.2937 72.7567 52.8346 73.7034 53.5688 73.8966C53.7054 73.9352 53.849 73.9419 53.9885 73.9162C54.1281 73.8905 54.2599 73.8331 54.3738 73.7485C54.5155 73.6583 54.5412 73.5424 54.5219 73.536Z" fill="#EB996E"/>
<path d="M53.9767 74.4508C53.7285 74.4163 53.4764 74.4776 53.2718 74.6223C53.0672 74.767 52.9254 74.9843 52.8753 75.2298C52.8253 75.4754 52.8706 75.7308 53.0022 75.9441C53.1338 76.1574 53.3418 76.3125 53.5837 76.3779C53.8257 76.4433 54.0834 76.4141 54.3046 76.2961C54.5257 76.1781 54.6935 75.9803 54.774 75.743C54.8544 75.5056 54.8414 75.2465 54.7375 75.0184C54.6337 74.7904 54.4468 74.6104 54.215 74.5152" fill="white"/>
<path d="M54.2156 74.5157C54.4318 74.6799 54.5952 74.9038 54.6858 75.1597C54.7274 75.2966 54.7333 75.4418 54.7029 75.5816C54.6724 75.7214 54.6067 75.8511 54.5119 75.9583C54.402 76.0934 54.2548 76.1932 54.0887 76.2454C53.9225 76.2976 53.7447 76.2998 53.5773 76.2518C53.4099 76.2037 53.2603 76.1076 53.1471 75.9753C53.0339 75.8429 52.9621 75.6803 52.9405 75.5075C52.9189 75.3658 52.9328 75.2209 52.9812 75.086C53.0295 74.9511 53.1107 74.8303 53.2174 74.7347C53.4324 74.5551 53.698 74.447 53.9773 74.4255C53.9773 74.4255 53.8936 74.374 53.7391 74.374C53.5039 74.38 53.2774 74.4638 53.0951 74.6123C52.9571 74.721 52.8496 74.8635 52.783 75.026C52.7164 75.1885 52.693 75.3654 52.7151 75.5397C52.7415 75.7521 52.8296 75.9521 52.9685 76.115C53.1074 76.2778 53.291 76.3964 53.4966 76.456C53.7022 76.5156 53.9207 76.5137 54.1252 76.4504C54.3297 76.3871 54.5111 76.2653 54.6471 76.0999C54.7357 75.9856 54.7999 75.8544 54.836 75.7143C54.872 75.5743 54.8791 75.4284 54.8568 75.2855C54.8345 75.1426 54.7833 75.0057 54.7063 74.8834C54.6292 74.761 54.528 74.6556 54.4088 74.5737C54.3058 74.5157 54.2156 74.5028 54.2156 74.5157Z" fill="black"/>
<path d="M50.731 74.2197C50.731 74.2197 50.6666 74.2197 50.57 74.1038C50.4315 73.9851 50.3023 73.8559 50.1836 73.7174C49.7378 73.205 49.3808 72.6216 49.1274 71.9915C48.7411 71.0482 48.6037 70.0215 48.7281 69.0097C48.9023 67.7506 49.5409 66.6021 50.5185 65.7897C51.4771 65.0165 52.5448 64.3893 53.687 63.9286C54.7174 63.4842 55.619 63.0978 56.3789 62.6921C57.1709 62.268 57.9084 61.7489 58.5749 61.1465C58.4522 61.3631 58.2957 61.5588 58.1113 61.7261C57.6262 62.1987 57.083 62.6077 56.4948 62.9433C55.6242 63.4178 54.7301 63.8477 53.8158 64.2313C52.7096 64.6908 51.6751 65.3067 50.7439 66.0602C49.8241 66.8148 49.2124 67.8801 49.0244 69.0548C48.8965 70.0178 49.007 70.9975 49.3464 71.9078C49.6861 72.7451 50.1531 73.525 50.731 74.2197Z" fill="#A2909E"/>
<path d="M50.3119 71.2121C50.2058 71.0627 50.1293 70.8944 50.0865 70.7162C49.9366 70.2398 49.8754 69.7399 49.9062 69.2415C49.9471 68.4936 50.168 67.7668 50.5502 67.1227C51.0116 66.3236 51.7027 65.6819 52.5337 65.2808C53.3405 64.9044 54.1659 64.5691 55.0067 64.2762C55.6744 64.0334 56.3001 63.6879 56.8614 63.2522C57.3656 62.8343 57.763 62.3023 58.0206 61.7002C58.0253 61.8838 57.9832 62.0655 57.8982 62.2283C57.6999 62.6918 57.3981 63.1037 57.016 63.4326C56.4524 63.9116 55.8123 64.2925 55.1226 64.5596C54.3691 64.8816 53.5061 65.152 52.6883 65.5771C51.9141 65.9533 51.2638 66.5432 50.8142 67.2773C50.4561 67.8829 50.2362 68.5603 50.1702 69.2608C50.127 69.9146 50.1746 70.5713 50.3119 71.2121Z" fill="#A2909E"/>
<path d="M61.6895 54.5912C61.1777 53.4183 60.5129 52.3182 59.7124 51.3197C58.8353 50.3899 57.8393 49.58 56.75 48.9111C57.1319 48.9775 57.4959 49.1222 57.819 49.3362C58.6312 49.7977 59.3586 50.3945 59.97 51.1007C60.5862 51.8012 61.0764 52.603 61.419 53.4707C61.5841 53.822 61.6762 54.2032 61.6895 54.5912Z" fill="#A2909E"/>
<path d="M84.9761 73.2154C84.7585 73.2188 84.5416 73.1906 84.3321 73.1317C83.7474 73.0144 83.1709 72.8595 82.6062 72.668C82.2133 72.5291 81.8321 72.359 81.4663 72.1592C81.0239 71.9354 80.6418 71.6085 80.3522 71.2061C80.1991 70.9768 80.096 70.7179 80.0495 70.4462L79.9915 70.0533C79.9663 69.9129 79.9512 69.7709 79.9465 69.6283C79.9593 69.053 80.0637 68.4835 80.2556 67.941C80.44 67.43 80.559 66.8977 80.6098 66.3567C80.6184 65.8636 80.4793 65.3792 80.2105 64.9657C79.7066 64.2535 79.1184 63.6048 78.4588 63.0337C78.0365 62.6242 77.5891 62.2414 77.1193 61.8874C76.9376 61.7695 76.7633 61.6405 76.5977 61.501C77.3719 61.8099 78.0705 62.2821 78.6456 62.8856C79.3491 63.4419 79.9731 64.092 80.5003 64.8176C80.8077 65.2788 80.9693 65.8218 80.964 66.3761C80.9184 66.9477 80.7971 67.5108 80.6034 68.0505C80.4199 68.5594 80.3178 69.094 80.3007 69.6347C80.3068 69.7598 80.3197 69.8845 80.3393 70.0082L80.3908 70.4011C80.4283 70.63 80.5115 70.849 80.6355 71.0451C80.8946 71.4109 81.2339 71.7126 81.6273 71.9274C81.9776 72.1262 82.3413 72.3005 82.7157 72.449C84.0745 72.9707 84.9954 73.1574 84.9761 73.2154Z" fill="#A2909E"/>
<path d="M66.9258 288.536L67.2027 281.433L79.5933 280.963L79.4001 289.663L74.8985 292.381L66.9258 288.536Z" fill="#FFBE9D"/>
<path d="M79.6736 288.047V288.858C79.6736 288.858 93.4295 294.538 93.5519 297.16L66.1367 296.754L66.6455 287.635C68.6601 288.635 70.8665 289.189 73.1146 289.261C75.3628 289.332 77.5998 288.918 79.6736 288.047Z" fill="#663AA3"/>
<g opacity="0.3">
<path opacity="0.3" d="M79.6736 288.048V288.859C79.6736 288.859 93.4295 294.539 93.5519 297.161L66.1367 296.755L66.6455 287.636C68.6601 288.636 70.8665 289.19 73.1146 289.262C75.3628 289.333 77.5998 288.919 79.6736 288.048Z" fill="#BA68C8"/>
</g>
<g opacity="0.6">
<path opacity="0.6" d="M69.3668 290.598C69.0978 290.675 68.8673 290.85 68.7208 291.088C68.5742 291.326 68.5221 291.611 68.5747 291.886C68.6407 292.154 68.8072 292.386 69.0398 292.535C69.2723 292.683 69.5531 292.737 69.824 292.684C70.104 292.602 70.3436 292.419 70.4969 292.17C70.6502 291.922 70.7064 291.626 70.6548 291.338C70.5569 291.066 70.357 290.843 70.0974 290.715C69.8378 290.588 69.5389 290.567 69.2638 290.656" fill="white"/>
</g>
<g opacity="0.6">
<path opacity="0.6" d="M66.1289 296.753L66.2513 294.563L92.4815 295.748C92.4815 295.748 93.6922 296.296 93.5441 297.159L66.1289 296.753Z" fill="white"/>
</g>
<path d="M79.764 288.937C79.764 289.072 79.12 289.124 78.4245 289.542C77.729 289.961 77.4005 290.521 77.2782 290.47C77.1558 290.418 77.3683 289.639 78.1798 289.182C78.9912 288.724 79.7962 288.815 79.764 288.937Z" fill="black"/>
<path d="M82.6217 290.166C82.6217 290.302 82.0679 290.521 81.6042 291.081C81.1405 291.641 80.9988 292.234 80.87 292.227C80.7412 292.221 80.6575 291.461 81.25 290.778C81.8425 290.096 82.6217 290.044 82.6217 290.166Z" fill="black"/>
<path d="M84.2068 293.631C84.0845 293.631 83.9042 292.987 84.2584 292.253C84.6126 291.518 85.2437 291.242 85.3016 291.357C85.3596 291.473 84.9603 291.853 84.6576 292.459C84.355 293.064 84.3356 293.631 84.2068 293.631Z" fill="black"/>
<path d="M55.7852 288.697L56.0685 281.594L68.4527 281.124L68.2659 289.824L63.7643 292.542L55.7852 288.697Z" fill="#FFBE9D"/>
<path d="M68.5369 288.209V289.02C68.5369 289.02 82.2928 294.701 82.4152 297.322L55 296.916L55.5088 287.797C57.5234 288.797 59.7298 289.352 61.9779 289.423C64.226 289.494 66.4631 289.08 68.5369 288.209Z" fill="#663AA3"/>
<g opacity="0.6">
<path opacity="0.6" d="M58.235 290.758C57.9652 290.834 57.7338 291.009 57.587 291.247C57.4402 291.486 57.3887 291.771 57.4429 292.046C57.5143 292.308 57.6821 292.533 57.9126 292.677C58.1431 292.82 58.4193 292.871 58.6858 292.819C58.9657 292.736 59.2053 292.553 59.3586 292.305C59.5119 292.057 59.5682 291.76 59.5166 291.473C59.4186 291.201 59.2187 290.978 58.9592 290.85C58.6996 290.723 58.4006 290.701 58.1255 290.79" fill="white"/>
</g>
<g opacity="0.6">
<path opacity="0.6" d="M54.9922 296.915L55.1145 294.726L81.3448 295.911C81.3448 295.911 82.5555 296.464 82.4074 297.321L54.9922 296.915Z" fill="white"/>
</g>
<path d="M68.6278 289.123C68.6278 289.258 67.9838 289.309 67.2882 289.728C66.5927 290.147 66.2643 290.707 66.1419 290.655C66.0196 290.604 66.2256 289.831 67.0435 289.367C67.8614 288.904 68.66 288.974 68.6278 289.123Z" fill="black"/>
<path d="M71.4883 290.328C71.4883 290.463 70.9344 290.682 70.4707 291.242C70.0071 291.802 69.8654 292.395 69.7301 292.388C69.5949 292.382 69.524 291.622 70.1165 290.939C70.709 290.257 71.4883 290.205 71.4883 290.328Z" fill="black"/>
<path d="M73.0624 293.799C72.9401 293.799 72.7662 293.155 73.1204 292.421C73.4746 291.686 74.1057 291.41 74.1637 291.525C74.2216 291.641 73.8223 292.021 73.5197 292.627C73.217 293.232 73.1977 293.786 73.0624 293.799Z" fill="black"/>
<path d="M37.1797 113.523C37.1797 113.523 47.4837 129.494 52.8933 135.934C58.303 142.374 67.1966 136.707 68.227 127.948C69.2574 119.19 68.987 102.954 68.987 102.954L61.787 98.6719L57.1309 120.832L51.3349 110.045L37.1797 113.523Z" fill="#FFBE9D"/>
<path d="M68.989 102.955L72.0802 95.2271C72.7174 94.929 73.3273 94.5756 73.9027 94.1709C74.36 93.7459 74.2698 90.9509 74.141 90.4615C74.0122 89.972 74.6433 88.5295 74.199 88.2719C73.7546 88.0143 72.5117 88.2719 72.4666 87.7567C72.4666 87.6472 73.1106 86.3334 72.2026 85.683C71.7479 85.5108 71.2655 85.4235 70.7793 85.4254L70.277 82.8494C70.277 82.8494 68.2162 80.151 67.057 81.5614C67.057 81.5614 62.6713 86.8422 62.2849 87.615C61.8985 88.3878 61.7891 97.3394 61.7891 99.0138" fill="#FFBE9D"/>
<path d="M61.8024 99.0271C61.7846 98.8731 61.7846 98.7175 61.8024 98.5634C61.8024 98.2221 61.8024 97.7778 61.8024 97.2239C61.8024 96.0583 61.8024 94.3774 61.8668 92.2909C61.8668 91.2476 61.9312 90.1077 62.0214 88.8776C62.0214 88.5685 62.0729 88.2336 62.1309 87.931C62.2013 87.5948 62.3565 87.2822 62.5817 87.0229C62.9681 86.482 63.3802 85.9539 63.8117 85.4065C64.6683 84.3181 65.5827 83.1911 66.5359 82.019C66.7696 81.6927 67.0495 81.4021 67.3666 81.1561C67.5608 81.0561 67.7761 81.0039 67.9945 81.0039C68.213 81.0039 68.4282 81.0561 68.6224 81.1561C69.3486 81.5431 69.9798 82.0864 70.4707 82.7467V82.7918C70.5222 83.0365 70.5738 83.307 70.6253 83.5775C70.7412 84.1764 70.8636 84.7753 70.9795 85.3549L70.8185 85.2197C71.1555 85.2289 71.4913 85.2633 71.8231 85.3227C72.0079 85.3527 72.1851 85.4183 72.3448 85.516C72.4931 85.6259 72.6161 85.7665 72.7054 85.9281C72.8671 86.2482 72.9191 86.6124 72.8535 86.965C72.8338 87.1293 72.7971 87.2912 72.744 87.448L72.6732 87.6734V87.7249C72.6698 87.7319 72.668 87.7396 72.668 87.7474C72.668 87.7552 72.6698 87.7629 72.6732 87.77C72.7574 87.8437 72.8641 87.8869 72.9759 87.8923C73.1228 87.9172 73.2713 87.9323 73.4202 87.9374C73.5748 87.9374 73.7294 87.9374 73.8904 87.9825C74.0798 87.9988 74.2597 88.073 74.4056 88.195C74.5188 88.3511 74.5672 88.5449 74.5408 88.736C74.5408 88.8991 74.5215 89.0537 74.4828 89.1996C74.4249 89.4959 74.354 89.7792 74.3218 90.0562C74.2992 90.1796 74.2992 90.3062 74.3218 90.4297C74.3218 90.5907 74.3605 90.7259 74.3798 90.8741C74.3798 91.166 74.3927 91.4494 74.4184 91.7241C74.4298 92.2728 74.4018 92.8216 74.3347 93.3663C74.3091 93.6465 74.2257 93.9184 74.09 94.1649C73.904 94.3592 73.6862 94.5204 73.446 94.6415C73.0145 94.8991 72.583 95.1116 72.158 95.2855L72.2224 95.2211L69.9104 100.843C69.6399 101.487 69.421 101.996 69.2664 102.376C69.1983 102.556 69.1165 102.73 69.0217 102.898C69.0668 102.71 69.1271 102.527 69.202 102.35C69.3437 101.964 69.5433 101.442 69.7881 100.792C70.3226 99.42 71.0761 97.4879 71.9906 95.1245V95.0794H72.0356C72.4478 94.8797 72.8728 94.6543 73.3236 94.4032C73.5299 94.2971 73.7188 94.1603 73.8839 93.9975C73.9894 93.784 74.0528 93.5522 74.0707 93.3148C74.1315 92.7869 74.153 92.2552 74.1351 91.7241C74.1351 91.4451 74.1222 91.1681 74.0964 90.8934C74.088 90.7589 74.0686 90.6254 74.0385 90.4941C74.0096 90.3344 74.0096 90.1708 74.0385 90.0111C74.0771 89.7084 74.148 89.4186 74.1995 89.1352C74.2258 88.997 74.243 88.8572 74.251 88.7166C74.2672 88.6079 74.2468 88.4969 74.193 88.4011C74.0954 88.3407 73.9853 88.3033 73.871 88.2916C73.7294 88.2916 73.5812 88.2916 73.4267 88.253C73.2721 88.2143 73.1176 88.253 72.9501 88.2079C72.7512 88.193 72.5662 88.1004 72.4349 87.9503C72.3942 87.9008 72.3695 87.8402 72.3641 87.7764C72.3508 87.7345 72.3508 87.6895 72.3641 87.6476V87.5832L72.4349 87.3642C72.4763 87.2204 72.5086 87.0742 72.5315 86.9263C72.5867 86.6442 72.5459 86.3518 72.4156 86.0956C72.3489 85.9759 72.2565 85.8726 72.1451 85.7929C72.0261 85.7236 71.895 85.6777 71.7587 85.6576C71.4381 85.621 71.1152 85.6081 70.7927 85.619H70.6575V85.4837C70.5415 84.9041 70.4192 84.3052 70.3033 83.7063C70.2518 83.4358 70.2002 83.1718 70.1487 82.9206V82.9915C69.6899 82.377 69.1033 81.8695 68.4292 81.5038C68.2816 81.4249 68.1168 81.3836 67.9494 81.3836C67.7821 81.3836 67.6173 81.4249 67.4697 81.5038C67.1872 81.7277 66.9397 81.9925 66.7355 82.2895C65.7695 83.4487 64.855 84.5757 63.992 85.6576C63.5606 86.1922 63.142 86.7267 62.762 87.2483C62.557 87.4713 62.4148 87.7446 62.3498 88.0404C62.2983 88.3431 62.2661 88.6844 62.2339 88.9549C62.1309 90.1721 62.0858 91.3184 62.0407 92.3553C61.9699 94.4096 61.9119 96.084 61.8733 97.2819C61.8733 97.8357 61.8733 98.2801 61.8282 98.6214C61.8301 98.7571 61.8215 98.8927 61.8024 99.0271Z" fill="#EB996E"/>
<path d="M70.7934 85.4263C70.35 85.587 69.8986 85.7246 69.441 85.8384C68.9652 86.016 68.5043 86.2314 68.0628 86.4824C67.463 86.7207 66.8317 86.8704 66.1888 86.9268C65.6386 86.9721 65.1061 87.1424 64.6318 87.4248C64.1574 87.7072 63.7539 88.0941 63.4518 88.5561C63.2269 88.9556 63.0743 89.3916 63.001 89.8441C62.942 89.6038 62.9333 89.354 62.9754 89.1102C63.0175 88.8664 63.1096 88.6339 63.2457 88.4273C63.5078 87.9565 63.8733 87.5514 64.3147 87.2424C64.8595 86.88 65.4858 86.6587 66.1373 86.5983C66.7519 86.5399 67.3572 86.408 67.9405 86.2055C68.3952 85.9453 68.874 85.7297 69.3701 85.5615C69.832 85.4283 70.3147 85.3824 70.7934 85.4263Z" fill="#EB996E"/>
<path d="M68.883 85.715C68.8121 85.7729 68.5288 85.5089 68.4515 85.071C68.3742 84.6331 68.5674 84.2853 68.6511 84.3175C68.7348 84.3497 68.722 84.6588 68.7864 85.0195C68.8508 85.3801 68.986 85.657 68.883 85.715Z" fill="#EB996E"/>
<path d="M72.6662 87.8143C71.3542 88.2468 69.9772 88.4494 68.5962 88.4133C68.0869 88.3619 67.5724 88.4122 67.0828 88.5614C66.7177 88.7311 66.4302 89.0324 66.2777 89.405C66.1545 89.776 66.0556 90.1546 65.9815 90.5385C65.8647 90.134 65.892 89.7014 66.0588 89.3149C66.2101 88.8634 66.5344 88.4905 66.9604 88.278C67.4832 88.0964 68.0382 88.0262 68.5897 88.0719C70.8373 88.0526 72.6469 87.7177 72.6662 87.8143Z" fill="#EB996E"/>
<path d="M73.9156 90.0673C73.6099 90.2136 73.2757 90.2906 72.9367 90.2926C72.2927 90.3635 71.462 90.3377 70.5346 90.3699C70.1006 90.3684 69.668 90.4203 69.2466 90.5245C68.9243 90.6044 68.6371 90.7876 68.4287 91.0461C68.2507 91.3051 68.1604 91.6143 68.1711 91.9284C68.1711 91.9284 68.0874 91.8511 68.0552 91.6708C68.0231 91.407 68.0846 91.1403 68.2291 90.9173C68.4479 90.5887 68.773 90.3454 69.15 90.2283C69.5872 90.1001 70.0404 90.035 70.496 90.035C71.4491 90.0028 72.2863 90.035 72.8981 90.035C73.2374 90.0065 73.5788 90.0173 73.9156 90.0673Z" fill="#EB996E"/>
<path d="M72.7696 92.3416C72.834 92.3416 72.4927 92.9405 71.6684 93.1272L71.7972 92.9469L71.8423 93.3848C71.9522 93.9701 71.9522 94.5706 71.8423 95.1558C71.6233 94.6044 71.5098 94.0168 71.5074 93.4235L71.4688 92.9856V92.831H71.6104C72.306 92.7022 72.7117 92.2772 72.7696 92.3416Z" fill="#EB996E"/>
<path d="M86.3744 143.579C86.3744 143.579 95.5385 163.807 95.5385 176.462C95.5385 189.116 86.5225 230.5 86.5225 230.5C86.5225 230.5 85.3182 241.944 84.1075 257.213C83.3148 266.765 81.7709 276.24 79.49 285.549H70.4739L55.81 285.949C55.81 285.949 49.5825 260.44 49.9818 250.799C50.3811 241.158 51.9911 230.107 51.9911 230.107C51.9911 230.107 44.16 198.171 42.7496 192.343C42.2022 190.063 41.9511 185.716 41.906 181.086C41.8112 171.562 43.5607 162.111 47.058 153.252L49.634 146.754L86.3744 143.579Z" fill="black"/>
<path d="M72.8506 184.054C72.754 184.054 71.6656 206.697 70.4227 234.64C69.1798 262.583 68.2202 285.259 68.3426 285.259C68.4649 285.259 69.5275 262.616 70.7704 234.666C72.0134 206.716 72.9279 184.054 72.8506 184.054Z" fill="#A2909E"/>
<path d="M74.7847 175.006C74.8833 174.639 74.95 174.264 74.9844 173.886C75.0938 173.164 75.2162 172.108 75.3257 170.807C75.5962 167.407 75.6155 163.991 75.3837 160.587C75.1544 157.184 74.6744 153.802 73.9475 150.47C73.6642 149.182 73.4001 148.164 73.194 147.469C73.1079 147.098 72.9894 146.736 72.8398 146.387C72.8829 146.763 72.9561 147.136 73.0588 147.501C73.2198 148.209 73.4452 149.246 73.7028 150.521C74.3656 153.853 74.8173 157.224 75.0552 160.613C75.2834 164 75.2963 167.399 75.0939 170.788C75.0166 172.076 74.9393 173.145 74.8749 173.873C74.813 174.247 74.7828 174.626 74.7847 175.006Z" fill="#A2909E"/>
<path d="M44 163.092C44.1851 163.263 44.4047 163.393 44.644 163.472C45.27 163.729 45.9454 163.843 46.6211 163.807C48.3406 163.761 50.6075 162.879 52.6747 161.34C54.4405 160.009 55.8716 158.285 56.8543 156.304C57.1485 155.706 57.3961 155.086 57.5949 154.449C57.6783 154.219 57.7303 153.979 57.7494 153.734C57.6786 153.734 57.421 154.726 56.6289 156.182C55.6069 158.088 54.183 159.749 52.4557 161.05C50.7651 162.398 48.739 163.26 46.5953 163.543C45.7064 163.607 44.8152 163.452 44 163.092Z" fill="#A2909E"/>
<path d="M81.8672 151.041C81.8856 151.262 81.9355 151.479 82.0153 151.685C82.1906 152.262 82.4058 152.826 82.6593 153.373C83.4785 155.188 84.5902 156.857 85.9502 158.312C87.3135 159.767 88.9086 160.986 90.6707 161.919C91.1994 162.205 91.7482 162.452 92.3129 162.659C92.5178 162.752 92.7345 162.817 92.9569 162.852C92.9569 162.788 92.1068 162.447 90.8059 161.7C87.3964 159.733 84.6466 156.799 82.904 153.27C82.2085 151.949 81.9251 151.022 81.8672 151.041Z" fill="#A2909E"/>
<path d="M68.929 150.585C68.929 150.585 68.9676 150.443 69.0449 150.218C69.1527 149.902 69.3579 149.629 69.631 149.438C69.8424 149.285 70.0921 149.193 70.3526 149.172C70.613 149.152 70.8741 149.204 71.1069 149.322C71.3397 149.441 71.5351 149.622 71.6716 149.844C71.8082 150.067 71.8804 150.323 71.8804 150.585C71.8804 150.846 71.8082 151.102 71.6716 151.325C71.5351 151.548 71.3397 151.728 71.1069 151.847C70.8741 151.966 70.613 152.018 70.3526 151.997C70.0921 151.977 69.8424 151.885 69.631 151.731C69.3579 151.54 69.1527 151.267 69.0449 150.952C68.9676 150.726 68.9612 150.585 68.929 150.585C68.8968 150.585 68.871 150.726 68.929 150.984C68.9941 151.361 69.1959 151.7 69.4957 151.937C69.7188 152.118 69.9843 152.239 70.2672 152.289C70.55 152.338 70.8409 152.315 71.1122 152.22C71.4516 152.102 71.7459 151.881 71.9541 151.588C72.1623 151.295 72.2741 150.944 72.2741 150.585C72.2741 150.225 72.1623 149.875 71.9541 149.581C71.7459 149.288 71.4516 149.067 71.1122 148.949C70.8409 148.855 70.55 148.831 70.2672 148.881C69.9843 148.93 69.7188 149.051 69.4957 149.232C69.1959 149.469 68.9941 149.809 68.929 150.185C68.871 150.443 68.9097 150.585 68.929 150.585Z" fill="#A2909E"/>
<path d="M56.4297 229.527C57.9755 230.604 59.5888 231.581 61.2597 232.451C62.8832 233.414 64.5652 234.274 66.2958 235.027C64.7401 233.954 63.1159 232.984 61.4336 232.123C59.8198 231.157 58.1487 230.29 56.4297 229.527Z" fill="#A2909E"/>
<path d="M95.0392 102.414C92.2442 106.665 80.9162 123.892 77.561 128.986C77.4791 129.112 77.4349 129.259 77.4336 129.41C77.4324 129.56 77.474 129.708 77.5538 129.836C77.6336 129.964 77.7481 130.066 77.8839 130.131C78.0198 130.196 78.1714 130.221 78.3209 130.203L98.4524 127.665C98.5586 127.653 98.661 127.619 98.753 127.564C98.8451 127.51 98.9248 127.437 98.9869 127.35L118.21 101.075C118.299 100.954 118.352 100.81 118.362 100.66C118.371 100.51 118.338 100.361 118.266 100.229C118.193 100.098 118.084 99.9901 117.953 99.9185C117.821 99.8469 117.671 99.8145 117.521 99.8253L96.8102 101.358C96.4534 101.385 96.1077 101.494 95.8004 101.678C95.4931 101.861 95.2325 102.113 95.0392 102.414Z" fill="#E0E0E0"/>
<path d="M95.0389 102.414C95.0859 102.328 95.1398 102.246 95.1999 102.169C95.3788 101.948 95.5972 101.763 95.8439 101.622C96.2592 101.405 96.7215 101.294 97.1899 101.3L99.0575 101.145L110.997 100.205L114.958 99.9022L117.057 99.7412C117.244 99.7412 117.405 99.709 117.618 99.709C117.78 99.7166 117.937 99.767 118.073 99.8549C118.21 99.9428 118.32 100.065 118.394 100.21C118.468 100.354 118.502 100.515 118.494 100.677C118.485 100.839 118.434 100.996 118.345 101.132L112.781 108.802L99.9011 126.358C99.6113 126.757 99.3473 127.124 99.0317 127.536C98.9341 127.647 98.81 127.731 98.6711 127.781C98.5451 127.819 98.4157 127.845 98.2847 127.858L97.5763 127.942L94.7556 128.296L89.2493 128.985L78.8423 130.273C78.6297 130.273 78.4494 130.331 78.1983 130.344C78.078 130.343 77.9592 130.317 77.8487 130.27C77.7382 130.222 77.6381 130.153 77.5543 130.067C77.3846 129.895 77.2858 129.665 77.2773 129.423C77.2914 129.189 77.3768 128.964 77.5221 128.779C77.9729 128.135 78.4108 127.433 78.8487 126.77C79.7074 125.452 80.5532 124.164 81.3861 122.906L85.9521 116.009L92.5724 106.033L94.3885 103.328C94.5946 103.032 94.7491 102.8 94.8715 102.633C94.9938 102.465 95.0389 102.394 95.0389 102.401C94.9996 102.489 94.9522 102.573 94.8972 102.652L94.4464 103.367L92.6819 106.104L86.1453 116.137L81.6372 123.061L79.1127 126.925L77.8247 128.94C77.7093 129.073 77.6433 129.241 77.638 129.417C77.638 129.588 77.7058 129.751 77.8266 129.872C77.9474 129.993 78.1112 130.061 78.282 130.061C78.4494 130.061 78.6813 130.009 78.8809 129.99L89.288 128.702L94.7942 128.006L97.6085 127.652L98.3169 127.562C98.4237 127.553 98.5294 127.534 98.6325 127.504C98.7194 127.469 98.7982 127.416 98.8643 127.35C99.1412 126.963 99.4246 126.583 99.7079 126.203L112.588 108.661L118.197 101.016C118.282 100.888 118.318 100.734 118.299 100.582C118.28 100.43 118.208 100.289 118.094 100.186C117.983 100.084 117.839 100.025 117.688 100.018C117.54 100.018 117.334 100.018 117.16 100.018L115.061 100.166L111.1 100.45L99.1541 101.28L97.28 101.403C96.8239 101.392 96.3716 101.489 95.9599 101.686C95.6053 101.862 95.2916 102.109 95.0389 102.414Z" fill="black"/>
<path d="M118.207 101.075C118.07 101.111 117.93 101.133 117.789 101.139L116.565 101.262L112.018 101.667L96.5623 102.955L96.6846 102.884C95.7186 104.321 94.7204 105.815 93.7158 107.36C89.6328 113.633 86.0715 119.397 83.3731 123.505C82.0336 125.56 80.9259 127.202 80.1531 128.335L79.245 129.623C79.1494 129.781 79.0371 129.928 78.9102 130.061C78.995 129.897 79.0896 129.738 79.1935 129.585C79.3996 129.256 79.6894 128.812 80.0436 128.258L83.1799 123.37C85.8203 119.236 89.3559 113.446 93.4388 107.167C94.4435 105.621 95.4481 104.127 96.4206 102.659L96.4657 102.595H96.5429L111.999 101.448L116.559 101.139L117.782 101.075C117.924 101.065 118.066 101.065 118.207 101.075Z" fill="black"/>
<path d="M106.232 105.15C106.219 105.097 106.197 105.048 106.165 105.004C106.134 104.96 106.094 104.923 106.047 104.894C106.001 104.866 105.95 104.847 105.896 104.839C105.843 104.831 105.788 104.834 105.736 104.848C105.53 104.895 105.342 105 105.195 105.15C105.1 105.235 105.039 105.351 105.021 105.477C105.003 105.603 105.031 105.731 105.098 105.839C105.298 106.09 105.742 106 105.955 105.788C106.052 105.714 106.128 105.617 106.177 105.505C106.225 105.394 106.244 105.271 106.232 105.15Z" fill="white"/>
<path d="M96.8296 120.046C96.8296 120.046 96.0375 118.114 98.0532 117.908C100.488 117.781 102.928 117.781 105.363 117.908C105.363 117.908 108.254 118.211 107.642 120.285C107.642 120.285 109.355 121.817 108.435 123.466C107.514 125.115 107.147 124.625 107.147 124.625C107.147 124.625 107.391 126.641 105.859 126.944C105.859 126.944 104.203 128.876 102.677 128.779C101.151 128.683 94.6786 125.559 94.2536 124.915C93.8286 124.271 93.2103 123.962 93.5774 123.279C93.5774 123.279 92.7853 121.489 94.4983 121.219C94.5112 121.231 94.6336 119.75 96.8296 120.046Z" fill="#FFBE9D"/>
<path d="M106.01 120.729C105.563 120.814 105.106 120.847 104.651 120.825C103.808 120.825 102.648 120.825 101.367 120.825C100.264 120.853 99.1609 120.786 98.0695 120.626C97.2001 120.426 96.8588 119.917 96.8975 119.904C97.2678 120.144 97.6811 120.311 98.1146 120.394C98.9132 120.529 100.092 120.445 101.373 120.49C102.655 120.535 103.814 120.542 104.651 120.587C105.108 120.579 105.565 120.626 106.01 120.729Z" fill="#EB996E"/>
<path d="M104.57 123.782C104.57 123.782 104.422 123.872 104.133 123.93C103.709 124.017 103.276 124.045 102.845 124.014C102.223 123.964 101.608 123.852 101.009 123.679C100.365 123.492 99.6181 123.228 98.8582 122.996C98.1538 122.767 97.4257 122.618 96.6879 122.552C96.0488 122.605 95.4077 122.476 94.8396 122.178C94.6165 122.028 94.4597 121.797 94.4017 121.534C94.3602 121.34 94.3875 121.137 94.479 120.961C94.6335 120.671 94.8525 120.658 94.846 120.671C94.8396 120.684 94.6915 120.761 94.5949 121.019C94.5352 121.196 94.5407 121.389 94.6103 121.562C94.68 121.736 94.8092 121.879 94.9749 121.966C95.518 122.208 96.1165 122.299 96.7072 122.23C97.4714 122.279 98.2265 122.424 98.9548 122.661L101.099 123.37C101.677 123.553 102.269 123.685 102.87 123.762C103.436 123.812 104.004 123.819 104.57 123.782Z" fill="#EB996E"/>
<path d="M102.405 126.364C101.942 126.337 101.485 126.249 101.046 126.1C100.215 125.894 99.0815 125.565 97.8257 125.166C96.5699 124.767 95.4815 124.348 94.6894 124.026C94.2474 123.883 93.8254 123.683 93.4336 123.434C93.4722 123.344 95.4622 124.039 97.9416 124.844C100.421 125.649 102.43 126.274 102.405 126.364Z" fill="#EB996E"/>
<path d="M102.926 128.766C102.544 128.8 102.158 128.756 101.793 128.637C100.905 128.423 100.042 128.119 99.2167 127.729C98.2443 127.285 97.4007 126.834 96.7824 126.512C96.4342 126.363 96.1089 126.166 95.8164 125.926C97.0376 126.319 98.2209 126.821 99.352 127.426C100.52 127.933 101.713 128.38 102.926 128.766Z" fill="#EB996E"/>
<path d="M41.766 92.915C41.766 92.915 33.4841 96.3604 35.5385 107.321C37.5928 118.282 38.6619 121.94 38.6619 121.94L54.9873 113.349L41.766 92.915Z" fill="#663AA3"/>
<path d="M54.6445 113.528C54.4586 113.677 54.2579 113.807 54.0456 113.915C53.6527 114.147 53.0731 114.469 52.3583 114.861C50.9286 115.654 48.9386 116.716 46.7297 117.882C44.5208 119.047 42.5179 120.078 41.0561 120.812C40.3283 121.179 39.7359 121.456 39.3237 121.662C39.1193 121.777 38.9034 121.869 38.6797 121.939C38.8622 121.784 39.0634 121.652 39.2786 121.546C39.6715 121.314 40.2511 120.992 40.9659 120.599C42.3956 119.814 44.3855 118.745 46.5945 117.586C48.8034 116.426 50.8062 115.389 52.2617 114.655L54.0005 113.799C54.2041 113.684 54.4202 113.593 54.6445 113.528Z" fill="black"/>
<path d="M54.6444 113.529C54.3049 113.053 54.0055 112.549 53.7492 112.023L51.6756 108.326C50.8899 106.935 50.175 105.679 49.589 104.636C49.2735 104.14 49.0082 103.613 48.7969 103.064C49.1757 103.513 49.508 103.998 49.7886 104.513C50.3682 105.434 51.1475 106.722 51.9654 108.165C52.7832 109.608 53.4916 110.934 53.9618 111.913C54.2441 112.427 54.4728 112.969 54.6444 113.529Z" fill="black"/>
</g>
</svg>
