<svg width="420" height="469" viewBox="0 0 420 469" fill="none" xmlns="http://www.w3.org/2000/svg">
<g filter="url(#filter0_d_2234_39113)">
<mask id="mask0_2234_39113" style="mask-type:alpha" maskUnits="userSpaceOnUse" x="24" y="24" width="340" height="389">
<rect x="24" y="24" width="340" height="389" rx="30" fill="#FFE8D7"/>
</mask>
<g mask="url(#mask0_2234_39113)">
<rect x="24" y="24" width="340" height="389" fill="white"/>
<rect x="24.5" y="24.5" width="339" height="388" stroke="white" stroke-opacity="0.3"/>
<g clip-path="url(#clip0_2234_39113)">
<path d="M288.96 162.6H339.472H352.998L342.572 170.149V184.979C342.572 186.687 341.179 188.08 339.472 188.08H288.96C287.252 188.08 285.859 186.687 285.859 184.979V165.7C285.859 163.993 287.252 162.6 288.96 162.6Z" fill="#F5F5F5"/>
<path d="M291.656 173.071C291.656 173.116 301.318 173.161 313.227 173.161C325.136 173.161 334.798 173.116 334.798 173.071C334.798 173.026 325.136 172.981 313.227 172.981C301.318 172.981 291.656 173.026 291.656 173.071Z" fill="#E0E0E0"/>
<path d="M291.656 178.777C291.656 178.822 301.318 178.867 313.227 178.867C325.136 178.867 334.798 178.822 334.798 178.777C334.798 178.732 325.136 178.688 313.227 178.688C301.318 178.643 291.656 178.688 291.656 178.777Z" fill="#E0E0E0"/>
<path d="M191.714 107.954H188.703V117.976H191.714V107.954Z" fill="#E0E0E0"/>
<path d="M166.683 106.517H163.672V118.021H166.683V106.517Z" fill="#E0E0E0"/>
<path d="M172.976 104.135H169.965V118.021H172.976V104.135Z" fill="#E0E0E0"/>
<path d="M179.222 104.853H176.211V117.975H179.222V104.853Z" fill="#E0E0E0"/>
<path d="M185.468 100.449H182.457V118.02H185.468V100.449Z" fill="#E0E0E0"/>
<path d="M198.007 100.538H194.996V118.019H198.007V100.538Z" fill="#E0E0E0"/>
<path d="M204.253 106.247H201.242V117.976H204.253V106.247Z" fill="#E0E0E0"/>
<path d="M210.499 101.303H207.488V118.02H210.499V101.303Z" fill="#E0E0E0"/>
<path d="M216.745 97.5283H213.734V118.021H216.745V97.5283Z" fill="#E0E0E0"/>
<path d="M223.038 101.213H220.027V118.02H223.038V101.213Z" fill="#E0E0E0"/>
<path d="M301.95 117.077L326.712 113.302C328.779 126.918 319.297 139.771 305.725 141.883C292.109 143.95 279.256 134.468 277.144 120.897C275.122 107.28 284.559 94.3825 298.175 92.2704C300.333 91.9558 302.535 91.9109 304.737 92.1356L301.95 117.077Z" fill="#EBEBEB"/>
<path d="M309.995 92.2246L306.984 111.459L325.859 107.908C325.859 107.908 323.073 97.123 309.995 92.2246Z" fill="#E0E0E0"/>
<path d="M48.8956 163.678C48.8058 156.892 54.1984 151.23 60.9842 151.14C67.77 151.05 73.3425 156.488 73.4773 163.273C73.5672 170.059 68.1745 175.721 61.3887 175.811C54.6478 175.946 49.0305 170.464 48.8956 163.678ZM67.0959 163.363C67.051 160.128 64.3547 157.521 61.1191 157.566C57.8834 157.611 55.277 160.307 55.3219 163.543C55.3669 166.779 58.0632 169.385 61.2988 169.34C64.5344 169.34 67.1409 166.644 67.0959 163.363Z" fill="#F5F5F5"/>
<path d="M48.8956 163.678C48.8058 156.892 54.1984 151.23 60.9842 151.14L61.0741 157.566C57.8385 157.611 55.232 160.307 55.277 163.543C55.3219 166.778 58.0183 169.385 61.2539 169.34L61.3438 175.766C54.6478 175.946 49.0305 170.463 48.8956 163.678Z" fill="#E0E0E0"/>
<path d="M59.9062 150.151C67.8155 150.016 74.1519 156.172 74.2867 164.127L66.7819 164.261C66.737 160.442 63.8159 158.06 60.0411 158.105L59.9062 150.151Z" fill="#EBEBEB"/>
<path d="M128.756 206.998H113.117V225.558H128.756V206.998Z" fill="#F5F5F5"/>
<path d="M113.701 205.786H43.1016V226.728H113.701V205.786Z" fill="#E0E0E0"/>
<path d="M129.202 207.583H111.766V205.83H129.202C129.696 205.83 130.101 206.235 130.101 206.729C130.101 207.178 129.696 207.583 129.202 207.583Z" fill="#E0E0E0"/>
<path d="M129.202 226.727H111.766V224.975H129.202C129.696 224.975 130.101 225.379 130.101 225.873C130.101 226.368 129.696 226.727 129.202 226.727Z" fill="#E0E0E0"/>
<path d="M108.128 205.786H99.7695V226.728H108.128V205.786Z" fill="#EBEBEB"/>
<path d="M58.1555 206.011H49.7969V226.952H58.1555V206.011Z" fill="#EBEBEB"/>
<path d="M128.756 210.101C128.756 210.146 125.385 210.19 121.206 210.19C117.027 210.19 113.656 210.146 113.656 210.101C113.656 210.056 117.027 210.011 121.206 210.011C125.385 210.011 128.756 210.011 128.756 210.101Z" fill="#E0E0E0"/>
<path d="M128.756 212.886C128.756 212.931 125.385 212.976 121.206 212.976C117.027 212.976 113.656 212.931 113.656 212.886C113.656 212.841 117.027 212.796 121.206 212.796C125.385 212.751 128.756 212.796 128.756 212.886Z" fill="#E0E0E0"/>
<path d="M128.756 216.302C128.756 216.347 125.385 216.392 121.206 216.392C117.027 216.392 113.656 216.347 113.656 216.302C113.656 216.257 117.027 216.212 121.206 216.212C125.385 216.212 128.756 216.257 128.756 216.302Z" fill="#E0E0E0"/>
<path d="M128.756 219.716C128.756 219.761 125.385 219.806 121.206 219.806C117.027 219.806 113.656 219.761 113.656 219.716C113.656 219.671 117.027 219.626 121.206 219.626C125.385 219.626 128.756 219.671 128.756 219.716Z" fill="#E0E0E0"/>
<path d="M128.756 223.134C128.756 223.179 125.385 223.224 121.206 223.224C117.027 223.224 113.656 223.179 113.656 223.134C113.656 223.089 117.027 223.044 121.206 223.044C125.385 223.044 128.756 223.089 128.756 223.134Z" fill="#E0E0E0"/>
<path d="M95.3188 214.414H63.5469V218.189H95.3188V214.414Z" fill="#EBEBEB"/>
<path d="M128.574 227.177H112.711V238.501H128.574V227.177Z" fill="#FAFAFA"/>
<path d="M112.936 226.728H45.4375V238.861H112.936V226.728Z" fill="#F5F5F5"/>
<path d="M112.395 227.581H129.471C129.696 227.581 129.876 227.402 129.876 227.177C129.876 226.952 129.696 226.772 129.471 226.772H112.395V227.581Z" fill="#F5F5F5"/>
<path d="M112.395 238.861H129.651C129.741 238.861 129.831 238.771 129.831 238.681V238.232C129.831 238.142 129.741 238.052 129.651 238.052H112.395V238.861Z" fill="#F5F5F5"/>
<path d="M128.572 229.29C128.572 229.335 125.067 229.38 120.753 229.38C116.439 229.38 112.934 229.335 112.934 229.29C112.934 229.245 116.439 229.2 120.753 229.2C125.067 229.2 128.572 229.245 128.572 229.29Z" fill="#E0E0E0"/>
<path d="M128.572 231.445C128.572 231.49 125.067 231.535 120.753 231.535C116.439 231.535 112.934 231.49 112.934 231.445C112.934 231.4 116.439 231.355 120.753 231.355C125.067 231.355 128.572 231.4 128.572 231.445Z" fill="#E0E0E0"/>
<path d="M128.572 233.603C128.572 233.648 125.067 233.692 120.753 233.692C116.439 233.692 112.934 233.648 112.934 233.603C112.934 233.558 116.439 233.513 120.753 233.513C125.067 233.513 128.572 233.513 128.572 233.603Z" fill="#E0E0E0"/>
<path d="M128.572 235.715C128.572 235.76 125.067 235.805 120.753 235.805C116.439 235.805 112.934 235.76 112.934 235.715C112.934 235.67 116.439 235.625 120.753 235.625C125.067 235.625 128.572 235.67 128.572 235.715Z" fill="#E0E0E0"/>
<path d="M131.002 239.94H114.824V270.589H131.002V239.94Z" fill="#EBEBEB"/>
<path d="M114.824 238.86H38.832V272.115H114.824V238.86Z" fill="#E0E0E0"/>
<path d="M132.259 272.115H112.711V269.958H132.259C132.844 269.958 133.338 270.452 133.338 271.037C133.338 271.666 132.844 272.115 132.259 272.115Z" fill="#E0E0E0"/>
<path d="M132.844 241.017H112.711V238.86H132.844C133.113 238.86 133.338 239.085 133.338 239.355V240.523C133.338 240.838 133.113 241.017 132.844 241.017Z" fill="#E0E0E0"/>
<path d="M131.002 244.073C131.002 244.118 127.362 244.163 122.913 244.163C118.464 244.163 114.824 244.118 114.824 244.073C114.824 244.028 118.464 243.983 122.913 243.983C127.362 243.983 131.002 244.028 131.002 244.073Z" fill="#E0E0E0"/>
<path d="M131.002 247.984C131.002 248.029 127.362 248.074 122.913 248.074C118.464 248.074 114.824 248.029 114.824 247.984C114.824 247.939 118.464 247.895 122.913 247.895C127.362 247.895 131.002 247.939 131.002 247.984Z" fill="#E0E0E0"/>
<path d="M131.002 251.939C131.002 251.983 127.362 252.028 122.913 252.028C118.464 252.028 114.824 251.983 114.824 251.939C114.824 251.894 118.464 251.849 122.913 251.849C127.362 251.849 131.002 251.894 131.002 251.939Z" fill="#E0E0E0"/>
<path d="M131.002 255.892C131.002 255.937 127.362 255.982 122.913 255.982C118.464 255.982 114.824 255.937 114.824 255.892C114.824 255.847 118.464 255.802 122.913 255.802C127.362 255.757 131.002 255.802 131.002 255.892Z" fill="#E0E0E0"/>
<path d="M131.002 259.803C131.002 259.848 127.362 259.893 122.913 259.893C118.464 259.893 114.824 259.848 114.824 259.803C114.824 259.758 118.464 259.713 122.913 259.713C127.362 259.713 131.002 259.758 131.002 259.803Z" fill="#E0E0E0"/>
<path d="M131.002 263.759C131.002 263.804 127.362 263.849 122.913 263.849C118.464 263.849 114.824 263.804 114.824 263.759C114.824 263.714 118.464 263.669 122.913 263.669C127.362 263.669 131.002 263.669 131.002 263.759Z" fill="#E0E0E0"/>
<path d="M131.002 267.668C131.002 267.713 127.362 267.758 122.913 267.758C118.464 267.758 114.824 267.713 114.824 267.668C114.824 267.623 118.464 267.578 122.913 267.578C127.362 267.578 131.002 267.623 131.002 267.668Z" fill="#E0E0E0"/>
<path d="M64.8502 257.332V259.174C64.8502 261.421 63.7267 262.679 61.5696 262.679C59.4125 262.679 58.2891 261.421 58.2891 259.174V251.939C58.2891 249.692 59.4125 248.434 61.5696 248.434C63.7267 248.434 64.8502 249.692 64.8502 251.939V253.287H62.783V251.804C62.783 250.815 62.3336 250.411 61.6595 250.411C60.9854 250.411 60.536 250.77 60.536 251.804V259.309C60.536 260.297 60.9854 260.657 61.6595 260.657C62.3336 260.657 62.783 260.297 62.783 259.309V257.332H64.8502Z" fill="#EBEBEB"/>
<path d="M65.9727 251.939C65.9727 249.692 67.1411 248.434 69.2981 248.434C71.4552 248.434 72.6236 249.692 72.6236 251.939V259.174C72.6236 261.421 71.4552 262.679 69.2981 262.679C67.1411 262.679 65.9727 261.421 65.9727 259.174V251.939ZM68.1747 259.309C68.1747 260.297 68.6241 260.702 69.2981 260.702C69.9722 260.702 70.4216 260.342 70.4216 259.309V251.804C70.4216 250.815 69.9722 250.411 69.2981 250.411C68.6241 250.411 68.1747 250.77 68.1747 251.804V259.309Z" fill="#EBEBEB"/>
<path d="M74.0195 248.613H76.2215V260.522H79.8167V262.499H74.0195V248.613Z" fill="#EBEBEB"/>
<path d="M80.5781 251.939C80.5781 249.692 81.7465 248.434 83.9036 248.434C86.0607 248.434 87.2291 249.692 87.2291 251.939V259.174C87.2291 261.421 86.0607 262.679 83.9036 262.679C81.7465 262.679 80.5781 261.421 80.5781 259.174V251.939ZM82.7801 259.309C82.7801 260.297 83.2295 260.702 83.9036 260.702C84.5777 260.702 85.0271 260.342 85.0271 259.309V251.804C85.0271 250.815 84.5777 250.411 83.9036 250.411C83.2295 250.411 82.7801 250.77 82.7801 251.804V259.309Z" fill="#EBEBEB"/>
<path d="M90.7352 248.613V259.354C90.7352 260.342 91.1846 260.702 91.8587 260.702C92.5328 260.702 92.9822 260.342 92.9822 259.354V248.613H95.0494V259.219C95.0494 261.466 93.9259 262.724 91.7688 262.724C89.6118 262.724 88.4883 261.466 88.4883 259.219V248.613H90.7352Z" fill="#EBEBEB"/>
<path d="M101.162 262.499C101.027 262.14 100.982 261.915 100.982 260.792V258.59C100.982 257.287 100.533 256.837 99.5441 256.837H98.7801V262.499H96.5781V248.568H99.8587C102.106 248.568 103.094 249.602 103.094 251.759V252.838C103.094 254.276 102.645 255.219 101.656 255.669C102.735 256.118 103.094 257.197 103.094 258.635V260.792C103.094 261.466 103.094 261.96 103.319 262.499H101.162ZM98.7801 250.591V254.86H99.634C100.443 254.86 100.937 254.5 100.937 253.377V251.984C100.937 250.995 100.578 250.546 99.8137 250.546H98.7801V250.591Z" fill="#EBEBEB"/>
<path d="M64.3561 231.536H62.7383L62.8282 231.132H66.5132L66.4233 231.536H64.8504L64.0415 235.626H63.5921L64.3561 231.536Z" fill="#E0E0E0"/>
<path d="M69.5681 232.256L67.0965 236.076C66.692 236.705 66.3775 236.93 65.8831 236.93C65.5685 236.93 65.254 236.84 65.0742 236.615L65.2989 236.3C65.4337 236.435 65.6584 236.525 65.8831 236.525C66.1528 236.525 66.4224 236.39 66.6471 235.986L66.8718 235.626L66.0179 232.256H66.4673L67.1864 235.132L69.0289 232.256H69.5681Z" fill="#E0E0E0"/>
<path d="M73.3434 233.648C73.3434 234.816 72.5345 235.67 71.411 235.67C70.7818 235.67 70.3324 235.401 70.1077 234.906L69.7033 236.884H69.2539L70.1976 232.21H70.647L70.5571 232.749C70.8717 232.39 71.3211 232.165 71.8604 232.165C72.7592 232.21 73.3434 232.749 73.3434 233.648ZM72.894 233.693C72.894 233.019 72.4895 232.614 71.7705 232.614C70.9166 232.614 70.2875 233.289 70.2875 234.187C70.2875 234.861 70.692 235.221 71.411 235.221C72.2648 235.266 72.894 234.592 72.894 233.693Z" fill="#E0E0E0"/>
<path d="M73.8828 234.233C73.8828 233.065 74.6917 232.211 75.8601 232.211C76.8038 232.211 77.3881 232.75 77.3881 233.649C77.3881 234.817 76.5792 235.671 75.4107 235.671C74.512 235.671 73.8828 235.087 73.8828 234.233ZM76.9387 233.694C76.9387 233.02 76.5342 232.615 75.8152 232.615C74.9613 232.615 74.3322 233.289 74.3322 234.188C74.3322 234.862 74.7367 235.222 75.4557 235.222C76.3095 235.267 76.9387 234.593 76.9387 233.694Z" fill="#E0E0E0"/>
<path d="M81.7926 232.256L81.2084 235.222C80.9837 236.435 80.3545 236.93 79.231 236.93C78.6019 236.93 78.0626 236.75 77.7031 236.435L77.9728 236.076C78.2424 236.345 78.6918 236.525 79.231 236.525C80.0849 236.525 80.5343 236.121 80.714 235.312L80.8039 234.952C80.4893 235.312 80.04 235.536 79.4557 235.536C78.557 235.536 77.9728 234.997 77.9728 234.188C77.9728 233.11 78.7817 232.256 79.9051 232.256C80.5343 232.256 81.0286 232.525 81.2084 233.02L81.3432 232.256H81.7926ZM81.0286 233.604C81.0286 232.975 80.6242 232.615 79.9051 232.615C79.0513 232.615 78.4221 233.245 78.4221 234.098C78.4221 234.728 78.8266 235.087 79.5456 235.087C80.3995 235.087 81.0286 234.458 81.0286 233.604Z" fill="#E0E0E0"/>
<path d="M84.8017 232.211L84.7118 232.66C84.6669 232.66 84.622 232.66 84.577 232.66C83.858 232.66 83.3637 233.065 83.1839 233.919L82.8244 235.626H82.375L83.0491 232.211H83.4985L83.3637 232.84C83.6782 232.391 84.1276 232.211 84.8017 232.211Z" fill="#E0E0E0"/>
<path d="M88.6675 232.256L87.9934 235.671H87.544L87.6339 235.132C87.3193 235.491 86.8699 235.716 86.3306 235.716C85.4768 235.716 84.8477 235.177 84.8477 234.278C84.8477 233.11 85.6566 232.256 86.78 232.256C87.4092 232.256 87.8586 232.525 88.0833 232.975L88.2181 232.256H88.6675ZM87.9035 233.694C87.9035 233.02 87.4991 232.615 86.78 232.615C85.9262 232.615 85.297 233.289 85.297 234.188C85.297 234.862 85.7015 235.222 86.4205 235.222C87.3193 235.267 87.9035 234.593 87.9035 233.694Z" fill="#E0E0E0"/>
<path d="M93.1168 233.648C93.1168 234.816 92.3079 235.67 91.1844 235.67C90.5553 235.67 90.1059 235.401 89.8812 234.906L89.4767 236.884H89.0273L89.9711 232.21H90.4205L90.3306 232.749C90.6451 232.39 91.0945 232.165 91.6338 232.165C92.4877 232.21 93.1168 232.749 93.1168 233.648ZM92.6225 233.693C92.6225 233.019 92.218 232.614 91.499 232.614C90.6451 232.614 90.016 233.289 90.016 234.187C90.016 234.861 90.4205 235.221 91.1395 235.221C91.9933 235.266 92.6225 234.592 92.6225 233.693Z" fill="#E0E0E0"/>
<path d="M97.2064 233.334C97.2064 233.469 97.2064 233.604 97.1615 233.738L96.757 235.671H96.3077L96.7121 233.738C96.7121 233.649 96.757 233.514 96.757 233.424C96.757 232.93 96.4874 232.66 95.8583 232.66C95.1392 232.66 94.6449 233.064 94.4652 233.828L94.1056 235.671H93.6562L94.6 230.862H95.0494L94.6898 232.75C95.0044 232.39 95.4538 232.21 95.9931 232.21C96.757 232.21 97.2064 232.615 97.2064 233.334Z" fill="#E0E0E0"/>
<path d="M101.521 232.256L99.0496 236.076C98.6451 236.705 98.3306 236.93 97.8362 236.93C97.5217 236.93 97.2071 236.84 97.0273 236.615L97.252 236.3C97.3869 236.435 97.6116 236.525 97.8362 236.525C98.1059 236.525 98.3306 236.39 98.6002 235.986L98.8249 235.626L97.9711 232.256H98.4204L99.1395 235.132L100.982 232.256H101.521Z" fill="#E0E0E0"/>
<path d="M111.724 92.585H57.3473H42.832L54.0668 100.674V116.627C54.0668 118.47 55.5498 119.953 57.3923 119.953H111.769C113.611 119.953 115.094 118.47 115.094 116.627V95.9104C115.094 94.0679 113.566 92.585 111.724 92.585Z" fill="#F5F5F5"/>
<path d="M108.846 103.819C108.846 103.864 98.465 103.954 85.6124 103.954C72.8048 103.954 62.3789 103.909 62.3789 103.819C62.3789 103.774 72.7598 103.685 85.6124 103.685C98.465 103.73 108.846 103.774 108.846 103.819Z" fill="#E0E0E0"/>
<path d="M108.846 109.975C108.846 110.02 98.465 110.109 85.6124 110.109C72.8048 110.109 62.3789 110.065 62.3789 109.975C62.3789 109.93 72.7598 109.84 85.6124 109.84C98.465 109.84 108.846 109.885 108.846 109.975Z" fill="#E0E0E0"/>
<path d="M350.798 272.115C350.798 272.16 280.334 272.25 193.377 272.25C106.464 272.25 36 272.205 36 272.115C36 272.025 106.464 271.98 193.421 271.98C280.334 272.025 350.798 272.07 350.798 272.115Z" fill="#263238"/>
<path d="M321.226 249.197C321.226 249.197 309.317 235.49 304.823 221.784C300.329 208.078 302.441 209.651 302.441 209.651C302.441 209.651 308.508 222.952 313.137 229.424C317.765 235.805 325.944 245.242 325.944 245.242L321.226 249.197Z" fill="#455A64"/>
<path d="M323.61 211.763C323.205 211.089 322.217 211.448 322.307 212.212C323.026 217.021 324.598 228.345 324.553 235.67C324.464 245.198 324.553 248.883 324.553 248.883H329.497C329.497 248.883 328.598 229.199 327.475 223.177C326.711 218.953 325.048 214.324 323.61 211.763Z" fill="#455A64"/>
<path d="M326.305 247.265C326.305 247.265 329.405 240.704 330.394 232.48C330.799 228.974 330.08 224.256 329.001 217.919C328.462 214.864 328.372 212.527 328.372 210.909C328.372 209.696 329.99 209.291 330.574 210.37C331.158 211.448 332.911 215.088 333.36 217.38C334.573 223.627 335.922 226.728 334.888 232.659C333.854 238.591 329.99 247.714 329.99 247.714L326.305 247.265Z" fill="#455A64"/>
<path d="M330.797 247.67C330.797 247.67 343.874 219.583 344.773 215.404C345.672 211.224 348.772 201.608 349.132 202.147C349.492 202.686 350.031 207.764 347.694 213.561C345.357 219.358 335.291 248.524 335.291 248.524H330.797" fill="#455A64"/>
<path d="M324.864 246.41C324.864 246.41 324.729 246.321 324.505 246.141C324.28 245.961 323.92 245.736 323.471 245.377C322.617 244.703 321.359 243.669 319.966 242.276C317.09 239.535 313.54 235.31 310.484 230.098C307.383 224.885 305.316 219.806 304.012 216.077C303.338 214.189 302.889 212.661 302.574 211.628C302.395 211.088 302.305 210.684 302.215 210.414C302.125 210.145 302.125 209.965 302.125 209.965C302.125 209.965 302.17 210.1 302.26 210.369C302.35 210.684 302.485 211.088 302.664 211.583C303.024 212.616 303.518 214.144 304.192 215.987C305.54 219.672 307.652 224.75 310.708 229.963C313.764 235.131 317.269 239.355 320.101 242.141C321.494 243.534 322.707 244.613 323.561 245.287C323.965 245.646 324.325 245.916 324.55 246.096C324.774 246.321 324.864 246.41 324.864 246.41Z" fill="#263238"/>
<path d="M326.304 232.929C326.304 232.929 326.259 232.614 326.169 232.12C326.125 231.536 326.035 230.772 325.945 229.873C325.72 227.986 325.405 225.334 324.956 222.458C324.507 219.582 323.967 216.975 323.563 215.133C323.383 214.234 323.203 213.47 323.069 212.931C322.979 212.392 322.889 212.122 322.934 212.122C322.934 212.122 323.024 212.392 323.203 212.931C323.338 213.425 323.563 214.189 323.788 215.133C324.237 216.975 324.776 219.582 325.271 222.458C325.72 225.334 326.035 227.986 326.169 229.873C326.259 230.817 326.304 231.581 326.304 232.12C326.304 232.614 326.349 232.929 326.304 232.929Z" fill="#263238"/>
<path d="M329.358 210.1C329.358 210.1 329.403 210.234 329.493 210.459C329.583 210.729 329.717 211.088 329.897 211.493C330.077 211.942 330.257 212.526 330.436 213.155C330.616 213.83 330.886 214.549 331.066 215.402C331.155 215.807 331.29 216.256 331.38 216.706C331.47 217.155 331.56 217.649 331.65 218.144C331.875 219.132 332.009 220.211 332.144 221.379C332.414 223.671 332.549 226.188 332.459 228.839C332.369 231.491 332.054 234.007 331.605 236.254C331.38 237.378 331.156 238.456 330.886 239.445C330.751 239.939 330.616 240.433 330.481 240.883C330.347 241.332 330.212 241.782 330.077 242.186C329.807 242.995 329.538 243.759 329.268 244.388C329.043 245.017 328.774 245.557 328.594 246.006C328.414 246.41 328.234 246.77 328.145 247.04C328.055 247.264 327.965 247.399 327.965 247.399C327.965 247.399 328.01 247.264 328.1 247.04C328.19 246.77 328.324 246.455 328.504 246.006C328.684 245.557 328.909 245.017 329.133 244.343C329.358 243.714 329.673 242.95 329.897 242.141C330.032 241.737 330.167 241.287 330.302 240.838C330.436 240.389 330.526 239.894 330.661 239.4C330.931 238.411 331.156 237.378 331.38 236.254C331.785 234.007 332.099 231.536 332.189 228.884C332.279 226.233 332.144 223.761 331.919 221.469C331.785 220.346 331.65 219.267 331.425 218.279C331.335 217.784 331.245 217.29 331.156 216.84C331.066 216.391 330.931 215.942 330.841 215.537C330.661 214.683 330.436 213.964 330.257 213.29C330.077 212.616 329.897 212.077 329.762 211.628C329.628 211.178 329.493 210.819 329.403 210.549C329.403 210.234 329.358 210.1 329.358 210.1Z" fill="#263238"/>
<path d="M348.951 202.73C348.951 202.73 348.951 202.775 348.951 202.865C348.951 202.955 348.907 203.09 348.907 203.225C348.862 203.539 348.772 204.034 348.637 204.618C348.367 205.831 347.963 207.584 347.289 209.696C346.66 211.808 345.761 214.28 344.682 217.021C343.649 219.762 342.39 222.728 341.222 225.874C340.054 229.02 339.155 232.121 338.301 234.907C337.447 237.693 336.638 240.21 335.874 242.277C335.11 244.344 334.346 245.962 333.807 247.085C333.537 247.625 333.313 248.074 333.133 248.344C333.043 248.478 332.998 248.568 332.953 248.658C332.908 248.748 332.908 248.748 332.863 248.748C332.863 248.748 332.863 248.703 332.908 248.613C332.953 248.523 332.998 248.433 333.088 248.299C333.223 247.984 333.447 247.58 333.717 247.04C334.256 245.917 334.93 244.299 335.694 242.232C336.458 240.165 337.222 237.648 338.076 234.862C338.93 232.076 339.829 228.975 340.997 225.829C342.166 222.683 343.379 219.717 344.458 216.976C345.536 214.28 346.435 211.808 347.109 209.696C347.783 207.584 348.232 205.876 348.502 204.663C348.637 204.079 348.727 203.584 348.817 203.27C348.862 203.135 348.862 203 348.907 202.91C348.951 202.775 348.951 202.73 348.951 202.73Z" fill="#263238"/>
<path d="M308.643 196.529C307.834 195.72 306.441 196.574 306.8 197.697C307.16 198.821 307.654 200.259 308.463 201.922C310.261 205.742 315.563 219.448 318.035 226.998C320.507 234.547 324.012 248.568 324.012 248.568L329.27 247.715C329.27 247.715 324.461 224.616 319.698 216.302C315.878 209.606 312.058 199.944 308.643 196.529Z" fill="#455A64"/>
<path d="M319.43 231.671C319.43 231.671 319.565 231.896 319.7 232.3C319.835 232.705 320.059 233.334 320.329 234.053C320.823 235.581 321.408 237.648 321.992 239.985C322.576 242.321 323.07 244.434 323.43 246.006C323.61 246.725 323.699 247.355 323.834 247.849C323.924 248.298 323.969 248.523 323.924 248.523C323.924 248.523 323.834 248.298 323.699 247.849C323.565 247.355 323.43 246.77 323.205 246.051C322.801 244.479 322.261 242.366 321.677 240.075C321.093 237.738 320.509 235.626 320.059 234.098C319.835 233.379 319.655 232.794 319.52 232.3C319.475 231.896 319.385 231.671 319.43 231.671Z" fill="#263238"/>
<path d="M326.576 248.074C326.576 248.074 326.576 248.029 326.531 247.94C326.531 247.85 326.486 247.715 326.486 247.535C326.441 247.176 326.396 246.636 326.261 245.917C326.081 244.524 325.722 242.547 325.138 240.075C324.553 237.649 323.745 234.772 322.666 231.627C321.587 228.481 320.239 225.111 318.666 221.605C315.566 214.64 312.465 208.438 310.398 203.854C309.364 201.563 308.555 199.72 308.061 198.417C307.791 197.788 307.611 197.248 307.477 196.934C307.432 196.754 307.387 196.664 307.342 196.529C307.297 196.439 307.297 196.395 307.297 196.395C307.297 196.395 307.342 196.439 307.387 196.529C307.432 196.619 307.477 196.754 307.566 196.934C307.701 197.293 307.926 197.788 308.196 198.417C308.735 199.72 309.589 201.563 310.622 203.809C312.69 208.348 315.835 214.55 318.936 221.56C320.464 225.066 321.812 228.436 322.891 231.582C323.969 234.728 324.778 237.604 325.317 240.075C325.857 242.547 326.171 244.524 326.351 245.917C326.441 246.591 326.486 247.176 326.531 247.535C326.531 247.715 326.576 247.85 326.576 247.94C326.576 248.029 326.576 248.074 326.576 248.074Z" fill="#263238"/>
<path d="M329.226 247.67C329.226 247.67 329.136 247.355 329.046 246.771C328.956 246.142 328.821 245.333 328.642 244.344C328.282 242.277 327.743 239.491 326.934 236.435C326.125 233.379 325.271 230.638 324.552 228.66C324.238 227.717 323.923 226.953 323.743 226.324C323.563 225.784 323.429 225.47 323.474 225.47C323.474 225.47 323.608 225.739 323.878 226.279C324.103 226.818 324.417 227.582 324.777 228.571C325.496 230.503 326.44 233.244 327.248 236.345C328.057 239.401 328.597 242.277 328.911 244.299C329.046 245.333 329.181 246.142 329.226 246.726C329.226 247.355 329.226 247.67 329.226 247.67Z" fill="#263238"/>
<path d="M340.053 246.905H319.426V272.026H340.053V246.905Z" fill="#663AA3"/>
<g opacity="0.3">
<path opacity="0.3" d="M340.053 246.905H319.426V272.026H340.053V246.905Z" fill="black"/>
</g>
<path d="M333.493 246.905H315.203V272.026H333.493V246.905Z" fill="#663AA3"/>
<path d="M65.5686 238.187C62.0634 235.94 57.2099 235.895 53.7946 238.277C50.559 240.524 48.8962 244.658 49.031 248.613C49.1658 252.567 51.0982 257.421 54.6934 259.488L65.2091 259.443C68.5795 256.971 70.8265 253.017 71.0062 248.838C71.141 244.658 69.0738 240.434 65.5686 238.187Z" fill="#455A64"/>
<path d="M60.4013 259.893C60.3563 259.893 60.3563 259.578 60.3563 258.994C60.3563 258.365 60.3114 257.511 60.2665 256.522C60.2215 254.455 60.1316 251.579 59.9968 248.388C59.862 245.198 59.6822 242.321 59.5474 240.254C59.5025 239.266 59.4575 238.457 59.4126 237.783C59.3677 237.198 59.3677 236.884 59.4126 236.884C59.4575 236.884 59.5025 237.198 59.5474 237.783C59.6373 238.367 59.7272 239.221 59.8171 240.254C59.9968 242.321 60.2215 245.198 60.3563 248.388C60.4911 251.579 60.5361 254.455 60.5361 256.522C60.5361 257.556 60.5361 258.41 60.4911 258.994C60.4462 259.533 60.4013 259.893 60.4013 259.893Z" fill="#263238"/>
<path d="M50.0635 247.714C50.0635 247.804 49.4793 247.849 48.8052 247.759C48.0861 247.714 47.5469 247.579 47.5469 247.489C47.5469 247.4 48.1311 247.355 48.8052 247.444C49.5242 247.534 50.1084 247.624 50.0635 247.714Z" fill="#263238"/>
<path d="M50.2874 244.164C50.2424 244.254 49.7481 244.119 49.2088 243.849C48.6246 243.58 48.2202 243.31 48.2651 243.22C48.3101 243.13 48.8044 243.265 49.3437 243.535C49.8829 243.804 50.3323 244.119 50.2874 244.164Z" fill="#263238"/>
<path d="M52.0868 241.557C52.0418 241.647 51.5025 241.377 50.9183 240.883C50.3341 240.389 49.9746 239.894 50.0645 239.85C50.1544 239.805 50.6038 240.164 51.143 240.613C51.6823 241.108 52.1766 241.467 52.0868 241.557Z" fill="#263238"/>
<path d="M53.9289 239.04C53.839 239.085 53.5694 238.681 53.3447 238.097C53.12 237.557 52.9851 237.063 53.075 237.018C53.1649 236.973 53.4345 237.378 53.6592 237.962C53.8839 238.546 54.0187 239.04 53.9289 239.04Z" fill="#263238"/>
<path d="M56.805 237.289C56.7151 237.334 56.4454 236.884 56.2657 236.255C56.0859 235.626 56.041 235.132 56.1309 235.087C56.2208 235.087 56.4005 235.536 56.5803 236.121C56.76 236.795 56.8948 237.244 56.805 237.289Z" fill="#263238"/>
<path d="M61.6135 235.311C61.7034 235.356 61.6585 235.716 61.4787 236.165C61.3439 236.615 61.1192 236.929 61.0293 236.884C60.9394 236.839 60.9844 236.48 61.1641 236.03C61.3439 235.626 61.5236 235.266 61.6135 235.311Z" fill="#263238"/>
<path d="M65.2074 236.839C65.2523 236.929 65.0276 237.243 64.713 237.558C64.3535 237.872 64.0389 238.097 63.994 238.007C63.9491 237.917 64.1738 237.603 64.4883 237.288C64.8029 236.974 65.1175 236.794 65.2074 236.839Z" fill="#263238"/>
<path d="M68.3531 238.861C68.398 238.951 68.1284 239.221 67.7239 239.49C67.3195 239.76 66.96 239.895 66.915 239.85C66.8701 239.76 67.1397 239.49 67.5442 239.221C67.9037 238.951 68.2632 238.771 68.3531 238.861Z" fill="#263238"/>
<path d="M70.5566 241.872C70.6016 241.962 70.1522 242.232 69.568 242.457C68.9838 242.681 68.4894 242.816 68.4445 242.771C68.3996 242.681 68.849 242.412 69.4332 242.187C70.0174 241.917 70.5117 241.827 70.5566 241.872Z" fill="#263238"/>
<path d="M71.4559 245.197C71.4559 245.287 71.0065 245.422 70.4672 245.512C69.883 245.602 69.4336 245.557 69.4336 245.467C69.4336 245.377 69.883 245.242 70.4223 245.153C70.9615 245.063 71.4109 245.108 71.4559 245.197Z" fill="#263238"/>
<path d="M71.9043 249.243C71.8593 249.333 71.4099 249.198 70.8257 248.974C70.2865 248.749 69.8371 248.479 69.882 248.389C69.9269 248.3 70.3763 248.434 70.9605 248.659C71.4998 248.884 71.9492 249.153 71.9043 249.243Z" fill="#263238"/>
<path d="M71.4988 252.748C71.4538 252.837 70.8696 252.703 70.2405 252.253C69.6113 251.849 69.2518 251.354 69.2967 251.309C69.3866 251.265 69.836 251.624 70.4202 251.984C71.0044 252.343 71.5437 252.658 71.4988 252.748Z" fill="#263238"/>
<path d="M69.7014 255.893C69.6565 255.983 69.1622 255.668 68.7128 255.174C68.2634 254.679 67.9937 254.185 68.0836 254.14C68.1735 254.095 68.533 254.5 68.9824 254.949C69.3869 255.443 69.7464 255.803 69.7014 255.893Z" fill="#263238"/>
<path d="M52.4901 256.252C52.535 256.342 52.0407 256.701 51.3666 257.016C50.6925 257.375 50.1083 257.555 50.1083 257.51C50.0634 257.42 50.5577 257.061 51.2318 256.746C51.8609 256.387 52.4451 256.207 52.4901 256.252Z" fill="#263238"/>
<path d="M50.9163 253.421C50.9612 253.511 50.5567 253.78 50.0175 254.005C49.4782 254.23 49.0288 254.364 48.9839 254.275C48.9389 254.185 49.3434 253.915 49.8827 253.69C50.377 253.466 50.8713 253.331 50.9163 253.421Z" fill="#263238"/>
<path d="M49.7489 250.86C49.7489 250.95 49.2546 251.085 48.6254 251.175C47.9963 251.265 47.502 251.265 47.457 251.175C47.457 251.085 47.9514 250.95 48.5805 250.86C49.2097 250.77 49.7489 250.77 49.7489 250.86Z" fill="#263238"/>
<path d="M53.5224 249.466C53.5673 249.556 53.073 249.781 52.3989 249.871C51.7697 249.961 51.2305 249.826 51.2305 249.736C51.2305 249.646 51.7248 249.601 52.3539 249.511C52.9831 249.466 53.5224 249.376 53.5224 249.466Z" fill="#263238"/>
<path d="M56.6706 246.321C56.7156 246.411 56.3111 246.591 55.7718 246.636C55.2326 246.681 54.8281 246.591 54.8281 246.501C54.8281 246.411 55.2326 246.366 55.7269 246.321C56.2662 246.276 56.6706 246.232 56.6706 246.321Z" fill="#263238"/>
<path d="M57.2994 243.805C57.2544 243.895 56.85 243.85 56.3557 243.67C55.8613 243.49 55.5018 243.311 55.5468 243.221C55.5917 243.131 55.9962 243.176 56.4905 243.356C56.9399 243.535 57.2994 243.715 57.2994 243.805Z" fill="#263238"/>
<path d="M58.4216 241.288C58.3767 241.333 58.0621 241.153 57.8824 240.793C57.6577 240.434 57.6577 240.074 57.7476 240.074C57.8374 240.029 57.9723 240.299 58.1969 240.614C58.3318 240.928 58.5115 241.198 58.4216 241.288Z" fill="#263238"/>
<path d="M57.0279 251.668C57.0279 251.758 56.6684 251.938 56.219 252.028C55.9494 252.073 55.6798 252.118 55.5449 252.118L55.5 251.938C55.6348 251.938 55.6798 251.938 55.7247 251.938C55.7247 251.983 55.6798 252.028 55.5899 252.118L55.5449 251.938C55.6798 251.848 55.9045 251.758 56.1741 251.713C56.6235 251.623 57.0279 251.578 57.0279 251.668Z" fill="#263238"/>
<path d="M57.7049 256.118C57.7498 256.208 57.2555 256.478 56.6713 256.702C56.087 256.927 55.5478 257.062 55.5028 256.972C55.4579 256.882 55.9522 256.612 56.5364 256.388C57.1656 256.163 57.6599 256.028 57.7049 256.118Z" fill="#263238"/>
<path d="M54.1513 254.141C54.1963 254.23 53.8817 254.41 53.4772 254.545C53.0728 254.68 52.7133 254.725 52.6683 254.635C52.6234 254.545 52.938 254.365 53.3424 254.23C53.7469 254.096 54.1064 254.051 54.1513 254.141Z" fill="#263238"/>
<path d="M54.4239 245.108C54.4239 245.198 53.8846 245.153 53.2554 244.928C52.6263 244.704 52.1769 244.434 52.2218 244.344C52.2668 244.254 52.7611 244.434 53.3453 244.614C53.9295 244.794 54.4239 245.018 54.4239 245.108Z" fill="#263238"/>
<path d="M63.0049 244.119C63.0498 244.209 62.7352 244.479 62.3308 244.748C61.9263 245.018 61.5219 245.198 61.4769 245.108C61.432 245.018 61.7466 244.748 62.151 244.479C62.6004 244.209 62.9599 244.029 63.0049 244.119Z" fill="#263238"/>
<path d="M63.4986 248.568C63.4986 248.658 63.184 248.793 62.7796 248.883C62.3751 248.973 62.0156 248.973 62.0156 248.883C62.0156 248.793 62.3302 248.658 62.7346 248.568C63.1391 248.479 63.4537 248.479 63.4986 248.568Z" fill="#263238"/>
<path d="M64.0418 253.601C63.9968 253.691 63.5474 253.556 63.0082 253.331C62.4689 253.106 62.1094 252.837 62.1094 252.747C62.1543 252.657 62.6037 252.792 63.143 253.017C63.6822 253.241 64.0867 253.511 64.0418 253.601Z" fill="#263238"/>
<path d="M62.8712 258.499C62.7813 258.544 62.5117 258.32 62.1971 257.96C61.8825 257.601 61.7028 257.286 61.7927 257.196C61.8825 257.151 62.1522 257.376 62.4668 257.735C62.7813 258.095 62.9611 258.454 62.8712 258.499Z" fill="#263238"/>
<path d="M62.646 240.793C62.6909 240.883 62.5112 241.108 62.1517 241.287C61.8371 241.467 61.5225 241.467 61.4776 241.377C61.4326 241.287 61.7023 241.152 62.0168 240.973C62.3314 240.838 62.601 240.748 62.646 240.793Z" fill="#263238"/>
<path d="M66.8729 245.332C66.9179 245.422 66.5134 245.647 65.9742 245.692C65.4349 245.782 64.9855 245.647 65.0304 245.557C65.0304 245.467 65.4349 245.422 65.9292 245.332C66.4236 245.287 66.828 245.242 66.8729 245.332Z" fill="#263238"/>
<path d="M66.0183 241.288C66.0633 241.378 65.6588 241.648 65.1195 241.828C64.5803 242.007 64.0859 242.007 64.0859 241.918C64.0859 241.828 64.4904 241.693 65.0297 241.513C65.5689 241.333 65.9734 241.198 66.0183 241.288Z" fill="#263238"/>
<path d="M67.7711 251.579C67.7711 251.669 67.097 251.714 66.2881 251.579C65.4792 251.444 64.895 251.13 64.9399 251.085C64.9849 250.995 65.614 251.13 66.378 251.265C67.1419 251.399 67.7711 251.489 67.7711 251.579Z" fill="#263238"/>
<path d="M66.195 257.466C66.15 257.556 65.6557 257.242 65.1614 256.747C64.667 256.253 64.3974 255.759 64.4423 255.714C64.5322 255.669 64.8917 256.028 65.3861 256.523C65.8804 257.017 66.2848 257.377 66.195 257.466Z" fill="#263238"/>
<path d="M59.3211 236.479C59.366 236.568 57.9729 237.108 56.4001 238.815C54.7823 240.478 53.1195 243.399 52.7151 246.904C52.5353 248.657 52.6701 250.365 52.9398 251.848C53.2094 253.376 53.5689 254.724 53.8835 255.847C54.198 256.971 54.5126 257.869 54.6924 258.499C54.8721 259.128 55.0069 259.487 54.962 259.487C54.962 259.487 54.7823 259.173 54.5576 258.544C54.3329 257.914 53.9733 257.061 53.6588 255.937C53.2993 254.814 52.9398 253.465 52.6701 251.938C52.4005 250.41 52.2207 248.702 52.4005 246.859C52.8049 243.264 54.5576 240.253 56.2203 238.636C57.0741 237.782 57.8381 237.242 58.4223 236.928C58.6919 236.748 58.9616 236.658 59.0964 236.568C59.2312 236.523 59.3211 236.479 59.3211 236.479Z" fill="#263238"/>
<path d="M63.9061 259.714C63.8163 259.669 64.6701 258.411 65.4341 256.119C66.198 253.872 66.8721 250.501 66.3328 246.861C66.1081 245.064 65.5689 243.356 64.8948 241.918C64.2207 240.48 63.3219 239.312 62.4681 238.503C61.5693 237.694 60.6705 237.244 60.0863 236.975C59.4572 236.705 59.0977 236.66 59.0977 236.615C59.0977 236.615 59.1875 236.615 59.3673 236.615C59.547 236.66 59.8167 236.705 60.1313 236.84C60.7604 237.065 61.7041 237.514 62.6478 238.278C63.5466 239.087 64.4903 240.255 65.2094 241.738C65.8835 243.221 66.4677 244.929 66.6924 246.771C67.2316 250.501 66.5126 253.917 65.7037 256.164C65.5239 256.748 65.2543 257.242 65.0745 257.692C64.8499 258.141 64.6701 258.501 64.5353 258.815C64.1308 259.399 63.9061 259.714 63.9061 259.714Z" fill="#263238"/>
<path d="M50.918 258.903H69.3879L69.5227 262.633H50.918V258.903Z" fill="#663AA3"/>
<path d="M52.4922 260.747L53.5258 272.072H67.0524L68.131 260.882L52.4922 260.747Z" fill="#663AA3"/>
<path d="M69.5227 262.679C69.5227 262.769 65.3434 262.859 60.2204 262.859C55.0973 262.859 50.918 262.769 50.918 262.679C50.918 262.589 55.0973 262.499 60.2204 262.499C65.3434 262.499 69.5227 262.589 69.5227 262.679Z" fill="#263238"/>
<path d="M67.6344 266.094C67.6344 266.094 67.5445 266.364 67.2299 266.813C66.9603 267.263 66.466 267.847 65.7919 268.521L65.702 268.611L65.6121 268.521C64.7133 267.577 63.5 266.454 61.972 265.33H62.1967C61.7024 265.78 61.1631 266.274 60.5789 266.723C59.9049 267.308 59.2757 267.847 58.6915 268.386L58.6016 268.476L58.5117 268.386C57.3433 267.397 56.3097 266.544 55.4109 265.78H55.5907C54.9616 266.544 54.4223 267.218 53.9729 267.712C53.5684 268.161 53.3438 268.431 53.3438 268.386C53.3438 268.386 53.5235 268.116 53.8381 267.622C54.2425 267.083 54.7369 266.409 55.366 265.6L55.4559 265.51L55.5458 265.6C56.4445 266.319 57.5231 267.173 58.6915 268.161H58.4668C59.051 267.622 59.7251 267.083 60.3542 266.499C60.8935 266.004 61.4328 265.555 61.972 265.106L62.0619 265.016L62.1518 265.106C63.6797 266.229 64.8931 267.397 65.7469 268.386H65.5672C67.0052 267.083 67.5894 266.049 67.6344 266.094Z" fill="#263238"/>
<path d="M289.993 268.974H94.1041C90.5089 268.974 87.543 266.053 87.543 262.413V137.302C87.543 133.707 90.464 130.741 94.1041 130.741H289.993C293.588 130.741 296.554 133.662 296.554 137.302V262.413C296.554 266.053 293.633 268.974 289.993 268.974Z" fill="#455A64"/>
<path d="M299.16 272.119H88.7101C84.3061 272.119 80.7109 268.524 80.7109 264.12V260.03H307.159V264.12C307.159 268.569 303.564 272.119 299.16 272.119Z" fill="#455A64"/>
<path d="M171.445 258.728L174.276 263.221H213.778L216.429 258.728H171.445Z" fill="#263238"/>
<path d="M294.759 258.727C294.759 258.816 248.382 258.861 191.174 258.861C133.967 258.861 87.5898 258.816 87.5898 258.727C87.5898 258.637 133.967 258.592 191.174 258.592C248.382 258.592 294.759 258.682 294.759 258.727Z" fill="#263238"/>
<path d="M288.285 255.084H95.0025C94.1936 255.084 93.5195 254.409 93.5195 253.601V140.174C93.5195 139.365 94.1936 138.691 95.0025 138.691H288.285C289.094 138.691 289.768 139.365 289.768 140.174V253.601C289.723 254.454 289.094 255.084 288.285 255.084Z" fill="#EBEBEB"/>
<path d="M289.544 255.262H93.3398L93.5196 147.408H289.544V255.262Z" fill="white"/>
<path d="M109.654 143.187C109.654 144.041 108.935 144.76 108.081 144.76C107.227 144.76 106.508 144.041 106.508 143.187C106.508 142.333 107.227 141.614 108.081 141.614C108.935 141.614 109.654 142.333 109.654 143.187Z" fill="#263238"/>
<path d="M100.126 143.187C100.126 144.041 99.4072 144.76 98.5533 144.76C97.6995 144.76 96.9805 144.041 96.9805 143.187C96.9805 142.333 97.6995 141.614 98.5533 141.614C99.4521 141.659 100.126 142.333 100.126 143.187Z" fill="#263238"/>
<path d="M104.708 143.187C104.708 144.041 103.989 144.76 103.135 144.76C102.282 144.76 101.562 144.041 101.562 143.187C101.562 142.333 102.282 141.614 103.135 141.614C103.989 141.659 104.708 142.333 104.708 143.187Z" fill="#263238"/>
<path d="M289.768 244.839H93.3398V255.265H289.768V244.839Z" fill="#263238"/>
<path d="M100.757 251.265V251.58H99.1836V251.31L100.037 250.501C100.262 250.322 100.262 250.187 100.262 250.052C100.262 249.872 100.127 249.737 99.8577 249.737C99.633 249.737 99.4982 249.827 99.3634 249.962L99.0938 249.737C99.2735 249.513 99.5431 249.378 99.9027 249.378C100.352 249.378 100.667 249.603 100.667 250.007C100.667 250.232 100.622 250.412 100.307 250.681L99.7229 251.22H100.757V251.265Z" fill="white"/>
<path d="M100.98 250.232C100.98 250.097 101.07 249.962 101.25 249.962C101.385 249.962 101.52 250.052 101.52 250.232C101.52 250.366 101.43 250.501 101.25 250.501C101.07 250.456 100.98 250.366 100.98 250.232ZM100.98 251.355C100.98 251.22 101.07 251.085 101.25 251.085C101.385 251.085 101.52 251.175 101.52 251.355C101.52 251.49 101.43 251.625 101.25 251.625C101.07 251.625 100.98 251.49 100.98 251.355Z" fill="white"/>
<path d="M102.463 249.468V251.58H102.059V249.782H101.609V249.468H102.463Z" fill="white"/>
<path d="M104.755 251.131H104.395V251.625H104.036V251.131H102.867V250.861L103.901 249.513H104.305L103.317 250.816H103.991V250.367H104.35V250.816H104.71V251.131H104.755Z" fill="white"/>
<path d="M269.186 250.276H108.215V250.995H269.186V250.276Z" fill="white"/>
<path d="M158.412 249.468H108.125V251.445H158.412V249.468Z" fill="#FF725E"/>
<path d="M160.029 250.636C160.029 251.984 158.951 253.107 157.558 253.107C156.209 253.107 155.086 252.029 155.086 250.636C155.086 249.288 156.164 248.164 157.558 248.164C158.951 248.164 160.029 249.288 160.029 250.636Z" fill="#FF725E"/>
<path d="M273.276 250.591C273.276 250.996 272.917 251.265 272.512 251.265C271.928 251.265 271.613 250.906 271.613 250.232C271.613 249.513 272.018 249.108 272.647 249.108C272.872 249.108 273.051 249.153 273.186 249.243L273.051 249.558C272.917 249.468 272.782 249.468 272.647 249.468C272.242 249.468 271.973 249.738 271.973 250.187C272.108 250.052 272.287 249.962 272.557 249.962C272.961 249.962 273.276 250.232 273.276 250.591ZM272.872 250.636C272.872 250.412 272.692 250.277 272.467 250.277C272.197 250.277 272.018 250.412 272.018 250.636C272.018 250.816 272.197 250.996 272.467 250.996C272.737 250.996 272.872 250.861 272.872 250.636Z" fill="white"/>
<path d="M273.457 249.872C273.457 249.737 273.547 249.603 273.727 249.603C273.861 249.603 273.996 249.692 273.996 249.872C273.996 250.007 273.906 250.142 273.727 250.142C273.592 250.142 273.457 250.007 273.457 249.872ZM273.457 251.041C273.457 250.906 273.547 250.771 273.727 250.771C273.861 250.771 273.996 250.861 273.996 251.041C273.996 251.175 273.906 251.31 273.727 251.31C273.592 251.265 273.457 251.175 273.457 251.041Z" fill="white"/>
<path d="M274.219 250.187C274.219 249.468 274.578 249.108 275.118 249.108C275.612 249.108 276.016 249.513 276.016 250.187C276.016 250.906 275.657 251.265 275.118 251.265C274.578 251.31 274.219 250.906 274.219 250.187ZM275.567 250.187C275.567 249.693 275.387 249.423 275.073 249.423C274.803 249.423 274.578 249.648 274.578 250.187C274.578 250.681 274.758 250.951 275.073 250.951C275.387 250.951 275.567 250.726 275.567 250.187Z" fill="white"/>
<path d="M276.242 250.187C276.242 249.468 276.602 249.108 277.141 249.108C277.635 249.108 278.04 249.513 278.04 250.187C278.04 250.906 277.68 251.265 277.141 251.265C276.647 251.31 276.242 250.906 276.242 250.187ZM277.635 250.187C277.635 249.693 277.456 249.423 277.141 249.423C276.871 249.423 276.647 249.648 276.647 250.187C276.647 250.681 276.826 250.951 277.141 250.951C277.411 250.951 277.635 250.726 277.635 250.187Z" fill="white"/>
<path d="M281.457 250.052H280.738V247.939H282.85V248.703H281.457V250.052Z" fill="white"/>
<path d="M282.85 252.838H280.738V250.726H281.457V252.119H282.85V252.838Z" fill="white"/>
<path d="M286.222 252.838H284.109V252.119H285.458V250.726H286.222V252.838Z" fill="white"/>
<path d="M286.222 250.052H285.458V248.703H284.109V247.939H286.222V250.052Z" fill="white"/>
<path d="M120.261 153.836H108.666L102.914 163.857L108.666 173.834H120.261L126.013 163.857L120.261 153.836Z" fill="#EBEBEB"/>
<path d="M109.61 165.79C109.116 165.205 108.577 164.621 108.217 163.947C107.858 163.273 107.633 162.509 107.723 161.745C107.813 161.296 107.993 160.891 107.993 160.442C108.038 159.813 107.768 159.184 107.993 158.599C108.352 157.701 109.565 157.566 110.284 156.937C110.869 156.442 111.138 155.678 111.767 155.229C112.307 154.869 113.026 154.869 113.7 154.959C114.374 155.049 115.003 155.229 115.677 155.139C116.127 155.094 116.576 154.869 117.025 154.78C117.475 154.645 117.969 154.645 118.418 154.869C118.823 155.094 119.048 155.678 118.778 156.083C119.542 155.723 120.486 156.307 120.71 157.116C120.935 157.925 120.486 158.779 119.856 159.318C119.227 159.858 118.373 160.082 117.565 160.262C115.228 160.711 112.711 160.442 110.734 159.184" fill="#263238"/>
<path d="M120.352 168.26C120.262 166.822 119.858 163.901 119.499 161.249C119.094 158.373 116.533 156.351 113.656 156.531H113.387C110.331 156.935 108.938 159.766 109.387 162.822L110.286 173.832H117.791L117.611 171.9C117.566 171.9 120.487 171.226 120.352 168.26Z" fill="#FFBE9D"/>
<path d="M117.564 171.856C117.564 171.856 115.722 172.125 113.609 171.002C113.609 171.002 114.688 173.069 117.609 172.62L117.564 171.856Z" fill="#EB996E"/>
<path d="M118.511 163.767C118.556 163.991 118.376 164.171 118.152 164.216C117.927 164.261 117.702 164.081 117.702 163.857C117.657 163.632 117.837 163.452 118.062 163.407C118.286 163.407 118.511 163.542 118.511 163.767Z" fill="#263238"/>
<path d="M118.917 162.736C118.872 162.78 118.513 162.556 118.063 162.601C117.614 162.646 117.299 162.87 117.254 162.825C117.21 162.78 117.254 162.691 117.434 162.601C117.569 162.466 117.794 162.376 118.108 162.331C118.378 162.331 118.648 162.421 118.782 162.511C118.917 162.601 118.962 162.691 118.917 162.736Z" fill="#263238"/>
<path d="M114.195 164.078C114.24 164.303 114.06 164.483 113.835 164.528C113.611 164.573 113.386 164.393 113.386 164.168C113.341 163.943 113.521 163.764 113.745 163.719C113.97 163.719 114.195 163.854 114.195 164.078Z" fill="#263238"/>
<path d="M114.468 163.14C114.423 163.185 114.064 163.005 113.614 163.005C113.165 163.05 112.85 163.275 112.805 163.23C112.76 163.185 112.805 163.095 112.985 163.005C113.12 162.87 113.345 162.78 113.659 162.735C113.929 162.735 114.198 162.825 114.333 162.915C114.423 163.005 114.468 163.095 114.468 163.14Z" fill="#263238"/>
<path d="M116.353 166.37C116.353 166.325 116.623 166.28 117.072 166.19C117.207 166.19 117.297 166.145 117.297 166.055C117.297 165.965 117.252 165.83 117.207 165.696C117.072 165.426 116.937 165.111 116.803 164.842C116.218 163.628 115.814 162.595 115.859 162.595C115.904 162.595 116.398 163.538 116.982 164.797C117.117 165.111 117.252 165.381 117.387 165.651C117.432 165.785 117.522 165.92 117.477 166.1C117.432 166.19 117.387 166.28 117.297 166.28C117.207 166.325 117.162 166.325 117.117 166.325C116.623 166.37 116.353 166.415 116.353 166.37Z" fill="#263238"/>
<path d="M114.462 161.339C114.417 161.474 113.967 161.429 113.428 161.519C112.889 161.609 112.484 161.789 112.395 161.699C112.35 161.654 112.439 161.519 112.574 161.384C112.754 161.249 113.024 161.114 113.338 161.07C113.653 161.025 113.967 161.025 114.147 161.114C114.372 161.159 114.462 161.249 114.462 161.339Z" fill="#263238"/>
<path d="M118.689 161.426C118.599 161.516 118.285 161.426 117.925 161.471C117.566 161.471 117.251 161.606 117.161 161.471C117.116 161.426 117.161 161.291 117.296 161.201C117.431 161.111 117.656 161.022 117.925 160.977C118.195 160.977 118.42 161.066 118.554 161.156C118.644 161.246 118.689 161.381 118.689 161.426Z" fill="#263238"/>
<path d="M109.743 164.978C109.698 164.978 107.675 164.529 107.855 166.551C108.035 168.573 110.237 167.899 110.237 167.854C110.237 167.809 109.743 164.978 109.743 164.978Z" fill="#FFBE9D"/>
<path d="M109.343 167.184C109.343 167.184 109.298 167.229 109.253 167.229C109.208 167.274 109.119 167.274 108.984 167.274C108.759 167.229 108.534 166.915 108.489 166.51C108.444 166.33 108.489 166.151 108.534 166.016C108.579 165.881 108.669 165.746 108.759 165.701C108.849 165.656 108.939 165.701 108.984 165.791C109.029 165.836 109.029 165.881 109.029 165.881C109.029 165.881 109.074 165.836 109.029 165.746C109.029 165.701 108.984 165.656 108.939 165.611C108.894 165.566 108.804 165.566 108.759 165.566C108.624 165.611 108.489 165.746 108.399 165.926C108.355 166.106 108.31 166.285 108.355 166.51C108.399 166.915 108.669 167.274 108.939 167.319C109.074 167.364 109.208 167.274 109.253 167.229C109.343 167.229 109.343 167.184 109.343 167.184Z" fill="#EB996E"/>
<path d="M119.318 158.464C119.183 159.273 117.566 159.992 116.172 159.947C114.914 159.902 114.285 159.273 113.386 158.869C112.802 158.599 112.802 158.599 112.038 158.734C111.409 158.824 111.094 159.588 110.735 160.127C111.409 161.61 111.139 163.318 110.87 164.891C110.825 165.07 110.78 165.25 110.645 165.385C110.42 165.565 110.061 165.475 109.836 165.25C109.477 164.936 109.297 164.441 109.207 163.947C108.937 162.868 108.847 161.745 109.027 160.666C109.207 159.588 109.656 158.509 110.375 157.7C111.319 156.667 112.667 156.083 114.06 156.038C115.453 155.948 116.847 156.397 117.97 157.161C118.509 157.476 119.004 157.925 119.318 158.464Z" fill="#263238"/>
<path d="M116.62 167.407C116.26 167.228 115.946 167.093 115.586 166.913C115.541 166.868 115.451 166.868 115.406 166.868C115.316 166.868 115.271 166.913 115.227 167.003C115.002 167.273 114.912 167.722 115.092 168.037C115.271 168.351 115.721 168.531 116.08 168.396C116.44 168.261 116.62 167.857 116.62 167.407Z" fill="#EB996E"/>
<path d="M116.127 168.486C116.127 168.486 115.903 168.665 115.543 168.53C115.363 168.486 115.139 168.351 115.004 168.081C114.869 167.856 114.824 167.542 114.914 167.227C114.959 167.092 115.049 166.958 115.184 166.868C115.229 166.823 115.273 166.778 115.363 166.733C115.408 166.688 115.588 166.688 115.633 166.733C115.858 166.868 116.037 166.958 116.172 167.092C116.487 167.272 116.667 167.452 116.622 167.452C116.622 167.497 116.397 167.407 116.082 167.227C115.903 167.137 115.723 167.047 115.543 166.958C115.498 166.958 115.498 166.958 115.453 166.958C115.408 167.003 115.363 167.003 115.318 167.047C115.229 167.137 115.184 167.227 115.139 167.362C115.049 167.587 115.094 167.811 115.184 168.036C115.273 168.216 115.453 168.351 115.588 168.441C115.903 168.53 116.127 168.441 116.127 168.486Z" fill="#263238"/>
<path d="M115.812 163.857C115.767 163.857 115.812 163.677 115.722 163.362C115.632 163.048 115.408 162.598 114.958 162.239C114.509 161.879 113.745 161.7 113.026 161.969C112.307 162.194 111.723 162.958 111.723 163.857C111.723 164.756 112.307 165.475 113.026 165.744C113.745 166.014 114.464 165.834 114.958 165.475C115.408 165.115 115.632 164.666 115.722 164.351C115.767 164.037 115.767 163.857 115.812 163.857C115.812 163.857 115.812 163.902 115.812 163.992C115.812 164.081 115.812 164.216 115.767 164.396C115.722 164.711 115.498 165.205 115.003 165.609C114.509 166.014 113.7 166.239 112.936 165.969C112.127 165.699 111.453 164.89 111.453 163.902C111.453 162.913 112.127 162.059 112.936 161.834C113.745 161.565 114.554 161.79 115.003 162.194C115.498 162.598 115.722 163.093 115.767 163.407C115.812 163.587 115.812 163.722 115.812 163.812C115.812 163.767 115.812 163.857 115.812 163.857Z" fill="#263238"/>
<path d="M120.847 163.632C120.802 163.632 120.847 163.453 120.757 163.138C120.668 162.824 120.443 162.374 119.993 162.06C119.544 161.7 118.825 161.52 118.151 161.79C117.477 162.015 116.848 162.779 116.893 163.632C116.893 164.486 117.477 165.205 118.151 165.475C118.825 165.745 119.589 165.565 119.993 165.205C120.443 164.891 120.668 164.441 120.757 164.127C120.802 163.812 120.802 163.632 120.847 163.632C120.847 163.632 120.847 163.677 120.847 163.767C120.847 163.857 120.847 163.992 120.802 164.127C120.757 164.441 120.533 164.936 120.038 165.295C119.589 165.7 118.78 165.924 118.016 165.61C117.252 165.34 116.578 164.531 116.578 163.588C116.578 162.644 117.252 161.79 118.016 161.565C118.78 161.296 119.589 161.52 120.038 161.88C120.533 162.284 120.713 162.734 120.802 163.048C120.847 163.228 120.847 163.363 120.847 163.408C120.847 163.588 120.847 163.632 120.847 163.632Z" fill="#263238"/>
<path d="M116.71 163.183C116.665 163.228 116.486 163.093 116.216 163.093C115.946 163.093 115.767 163.228 115.722 163.183C115.677 163.138 115.856 162.868 116.216 162.868C116.575 162.868 116.8 163.138 116.71 163.183Z" fill="#263238"/>
<path d="M111.678 163.542C111.723 163.587 111.318 163.946 110.779 164.351C110.24 164.755 109.791 165.025 109.746 164.98C109.701 164.935 110.105 164.576 110.644 164.171C111.184 163.767 111.678 163.497 111.678 163.542Z" fill="#263238"/>
<path d="M153.427 163.723C153.427 163.768 148.214 163.858 141.833 163.858C135.406 163.858 130.238 163.813 130.238 163.723C130.238 163.633 135.451 163.588 141.833 163.588C148.214 163.633 153.427 163.678 153.427 163.723Z" fill="#263238"/>
<path d="M142.684 166.149C142.684 166.194 139.943 166.284 136.528 166.284C133.112 166.284 130.371 166.239 130.371 166.149C130.371 166.06 133.112 166.015 136.528 166.015C139.898 166.06 142.684 166.105 142.684 166.149Z" fill="#263238"/>
<path d="M223.498 181.701C223.498 181.701 229.655 184.712 231.857 192.487C234.059 200.261 240.665 220.484 240.665 220.484C240.665 220.484 244.44 224.933 244.844 228.258C245.249 231.584 244.44 239.538 243.226 241.066C242.013 242.549 240.26 242.324 240.26 242.324L224.307 240.796L218.016 198.688L223.498 181.701Z" fill="#663AA3"/>
<path d="M170.695 180.938C170.695 180.938 159.28 184.533 156.449 187.634L165.797 231.135L165.662 244.841H219.768C219.768 244.167 220.263 199.273 220.263 199.273L223.498 181.657L204.264 178.286L200.489 175.32L179.098 176.399L175.863 179.634L170.695 180.938Z" fill="#663AA3"/>
<g opacity="0.3">
<path opacity="0.3" d="M175.011 218.686C174.832 218.326 174.607 217.922 174.202 217.832C173.528 217.697 173.124 218.461 172.899 219.09C171.147 224.079 168.81 228.662 165.799 232.977L165.664 239.672C168.81 237.021 171.911 234.19 173.933 230.595C175.955 226.955 176.719 222.461 175.011 218.686Z" fill="black"/>
</g>
<path d="M156.406 187.633C156.406 187.633 152.631 192.756 151.103 196.126C149.53 199.452 136.588 227.584 135.824 230.505C135.06 233.426 133.037 242.548 138.969 244.66H151.103L163.326 219.989L163.956 191.318L156.406 187.633Z" fill="#663AA3"/>
<path d="M151.865 226.82C151.865 226.82 151.595 226.595 151.056 226.28C150.517 225.966 149.618 225.606 148.495 225.337C147.955 225.202 147.326 225.112 146.652 225.067C145.978 225.022 145.259 225.022 144.54 225.202C143.057 225.516 141.619 226.46 140.45 227.763C139.282 229.067 138.563 230.595 138.114 232.078C137.664 233.561 137.485 234.909 137.395 236.077C137.26 237.246 137.26 238.144 137.215 238.818C137.215 239.133 137.17 239.358 137.17 239.582C137.17 239.762 137.125 239.852 137.125 239.852C137.125 239.852 137.125 239.762 137.125 239.582C137.125 239.403 137.125 239.133 137.125 238.818C137.125 238.189 137.17 237.246 137.26 236.077C137.35 234.909 137.529 233.516 137.934 232.033C138.338 230.55 139.102 228.977 140.271 227.629C141.439 226.28 142.967 225.337 144.495 225.022C145.259 224.842 146.023 224.842 146.697 224.887C147.371 224.932 148 225.067 148.584 225.202C149.708 225.471 150.607 225.876 151.146 226.191C151.416 226.37 151.64 226.505 151.73 226.64C151.82 226.775 151.865 226.82 151.865 226.82Z" fill="#263238"/>
<path d="M146.113 221.921C146.113 221.921 146.248 221.876 146.518 221.876C146.787 221.832 147.192 221.832 147.641 221.876C148.136 221.876 148.675 221.966 149.304 222.101C149.933 222.236 150.562 222.461 151.236 222.775C151.91 223.09 152.495 223.449 152.989 223.854C153.483 224.258 153.888 224.618 154.202 224.977C154.517 225.337 154.742 225.651 154.921 225.876C155.056 226.101 155.146 226.236 155.146 226.236C155.101 226.281 154.787 225.786 154.112 225.112C153.798 224.753 153.348 224.393 152.854 224.034C152.36 223.674 151.776 223.315 151.146 223C150.517 222.685 149.843 222.461 149.259 222.326C148.675 222.191 148.091 222.056 147.641 222.056C146.697 221.921 146.113 221.966 146.113 221.921Z" fill="#263238"/>
<path d="M157.126 220.573C157.126 220.573 156.902 220.573 156.542 220.529C156.183 220.484 155.643 220.439 155.014 220.394C153.711 220.304 151.958 220.259 149.981 220.484C148.004 220.708 146.296 221.158 145.083 221.562C144.454 221.742 143.959 221.922 143.645 222.056C143.285 222.191 143.105 222.236 143.105 222.236C143.105 222.236 143.285 222.146 143.6 221.967C143.914 221.832 144.409 221.607 145.038 221.382C146.251 220.933 148.004 220.484 149.981 220.214C151.958 219.989 153.756 220.034 155.059 220.169C155.688 220.259 156.228 220.304 156.587 220.394C156.902 220.484 157.126 220.529 157.126 220.573Z" fill="#263238"/>
<path d="M191.729 196.531C191.729 196.531 191.684 196.486 191.594 196.396C191.504 196.261 191.414 196.126 191.279 195.947C190.965 195.542 190.56 194.958 190.066 194.239C189.032 192.756 187.549 190.689 185.842 188.262L186.022 188.217C185.347 190.15 184.628 192.262 183.864 194.509L183.819 194.643L183.685 194.554C183.595 194.509 183.505 194.464 183.415 194.374C182.426 193.745 181.528 192.981 180.764 192.127C180 191.273 179.371 190.419 178.876 189.52C177.843 187.723 177.213 185.97 176.809 184.487C176.405 183.004 176.18 181.746 176 180.892C175.91 180.488 175.865 180.173 175.82 179.903C175.82 179.814 175.775 179.724 175.775 179.634C175.775 179.589 175.73 179.544 175.73 179.544C175.775 179.544 175.91 179.993 176.09 180.847C176.27 181.701 176.494 182.914 176.944 184.397C177.393 185.88 178.022 187.588 179.056 189.386C179.55 190.239 180.179 191.138 180.943 191.947C181.707 192.756 182.561 193.52 183.55 194.149C183.64 194.194 183.73 194.239 183.819 194.329L183.64 194.374C184.404 192.127 185.123 190.015 185.797 188.082L185.887 187.903L186.022 188.082C187.729 190.554 189.167 192.621 190.201 194.104C190.695 194.823 191.1 195.407 191.369 195.812C191.504 195.992 191.594 196.171 191.684 196.261C191.729 196.486 191.774 196.531 191.729 196.531Z" fill="#263238"/>
<g opacity="0.3">
<path opacity="0.3" d="M205.837 217.293C205.342 222.326 206.466 227.494 208.982 231.898C211.499 236.257 215.184 240.167 219.768 242.279C219.903 237.83 219.723 232.572 219.858 228.078L205.837 217.293Z" fill="black"/>
</g>
<path d="M205.343 211.406C205.343 211.406 203.365 211.945 204.848 215.99C206.331 220.034 206.826 219.765 207.814 223.54C208.803 227.314 209.927 230.73 211.679 232.887C213.387 234.999 219.768 239.358 219.768 239.358L225.52 233.965C225.52 233.965 224.577 229.921 224.801 227.18C225.026 224.438 225.61 217.742 225.52 216.574C225.43 215.406 224.217 212.664 224.217 212.664V210.777L221.251 201.699C221.251 201.699 219.633 200.98 219.049 203.587L218.06 200.8C218.06 200.8 216.488 200.531 216.083 203.766C215.679 206.957 216.398 211.406 216.398 211.406L215.589 216.978L214.375 220.753L213.297 220.933C213.297 220.933 211.679 220.484 210.825 217.473C209.927 214.372 207.545 210.777 205.343 211.406Z" fill="#FFBE9D"/>
<path d="M223.543 225.697C223.543 225.697 223.543 225.607 223.498 225.473C223.498 225.338 223.453 225.113 223.453 224.888C223.408 224.349 223.363 223.585 223.318 222.641C223.228 220.664 223.093 217.968 222.959 214.777L223.003 214.822C222.734 214.507 222.284 214.418 221.835 214.507C221.386 214.597 221.026 214.867 220.757 215.271C220.262 216.08 220.217 217.114 220.082 218.147C219.768 220.439 219.453 222.641 219.184 224.619C219.049 225.607 218.914 226.551 218.689 227.45C218.51 228.349 218.24 229.113 217.97 229.832C217.701 230.551 217.476 231.18 217.341 231.764C217.206 232.348 217.161 232.843 217.161 233.292C217.161 234.146 217.431 234.55 217.386 234.595C217.386 234.595 217.341 234.505 217.251 234.281C217.206 234.056 217.072 233.741 217.072 233.292C217.027 232.843 217.072 232.348 217.206 231.764C217.341 231.18 217.566 230.506 217.791 229.787C218.06 229.068 218.285 228.304 218.465 227.405C218.644 226.551 218.779 225.607 218.914 224.619C219.184 222.641 219.453 220.439 219.768 218.147C219.858 217.653 219.903 217.114 219.993 216.62C220.082 216.125 220.217 215.631 220.487 215.181C220.757 214.732 221.206 214.418 221.7 214.328C222.195 214.193 222.734 214.328 223.093 214.687L223.138 214.732V214.777C223.228 217.968 223.363 220.664 223.408 222.641C223.453 223.585 223.453 224.349 223.453 224.888C223.453 225.113 223.453 225.338 223.453 225.473C223.588 225.607 223.543 225.697 223.543 225.697Z" fill="#EB996E"/>
<path d="M220.441 215.361C220.441 215.361 220.351 215.182 220.216 214.867C220.081 214.508 219.902 214.013 219.722 213.384C219.542 212.755 219.407 211.991 219.317 211.137C219.273 210.688 219.228 210.238 219.273 209.789C219.317 209.295 219.452 208.8 219.767 208.396C220.036 208.036 220.396 207.722 220.8 207.587L220.89 207.542L220.935 207.632C221.744 209.115 222.508 210.373 223.002 211.317C223.227 211.766 223.452 212.126 223.587 212.395C223.721 212.665 223.766 212.8 223.766 212.8C223.766 212.8 223.677 212.665 223.497 212.44C223.317 212.171 223.092 211.811 222.868 211.362C222.328 210.463 221.564 209.16 220.756 207.722L220.89 207.767C220.531 207.857 220.216 208.126 219.947 208.486C219.677 208.89 219.542 209.34 219.497 209.789C219.452 210.238 219.452 210.688 219.497 211.092C219.587 211.946 219.722 212.71 219.857 213.339C219.992 213.968 220.171 214.463 220.261 214.822C220.396 215.137 220.441 215.361 220.441 215.361Z" fill="#EB996E"/>
<path d="M219.05 216.079C219.05 216.079 219.005 215.9 219.005 215.54C219.005 215.136 218.96 214.686 218.96 214.102C218.915 212.889 218.87 211.226 218.87 209.383C218.87 207.541 218.78 205.878 218.96 204.665C219.05 204.081 219.14 203.586 219.275 203.272C219.364 202.957 219.454 202.777 219.499 202.777C219.544 202.777 219.23 203.496 219.14 204.665C219.005 205.833 219.14 207.541 219.14 209.338C219.185 211.181 219.185 212.844 219.185 214.057C219.185 214.641 219.185 215.091 219.185 215.495C219.095 215.9 219.05 216.079 219.05 216.079Z" fill="#EB996E"/>
<path d="M214.195 231.179C214.15 231.134 214.51 230.73 214.959 229.966C215.184 229.606 215.409 229.112 215.633 228.573C215.858 228.034 216.038 227.404 216.128 226.73C216.262 226.056 216.307 225.427 216.307 224.843C216.307 224.259 216.262 223.719 216.173 223.315C216.038 222.461 215.858 221.922 215.858 221.922C215.858 221.922 215.948 222.057 216.038 222.281C216.128 222.506 216.217 222.866 216.352 223.315C216.442 223.764 216.532 224.304 216.532 224.888C216.532 225.472 216.487 226.146 216.397 226.82C216.262 227.494 216.083 228.123 215.858 228.663C215.633 229.202 215.364 229.696 215.139 230.056C214.914 230.415 214.69 230.73 214.51 230.91C214.33 231.089 214.195 231.224 214.195 231.179Z" fill="#EB996E"/>
<path d="M224.261 228.393L229.25 230.1C229.25 230.1 234.013 227.629 237.294 230.1C240.574 232.572 243.406 239.043 242.507 241.65C242.507 241.65 240.26 244.436 238.507 244.84C236.799 245.245 230.104 243.627 227.317 243.043C224.531 242.459 219.723 239.358 219.723 239.358L224.261 228.393Z" fill="#FFBE9D"/>
<path d="M224.892 235.718C224.892 235.718 224.847 235.583 224.847 235.269C224.847 234.954 224.802 234.55 224.757 234.055C224.712 233.022 224.622 231.629 224.622 230.101C224.577 228.528 224.622 227.135 224.757 226.101C224.802 225.607 224.847 225.202 224.892 224.888C224.937 224.618 224.982 224.438 224.982 224.438C225.027 224.438 224.937 225.068 224.892 226.101C224.847 227.135 224.802 228.528 224.847 230.056C224.892 231.584 224.892 232.932 224.937 234.01C224.937 234.505 224.937 234.909 224.937 235.224C224.892 235.538 224.892 235.718 224.892 235.718Z" fill="#EB996E"/>
<path d="M241.296 229.921C241.251 229.966 240.757 229.247 239.633 228.438C238.555 227.629 236.757 226.73 234.69 226.641C232.578 226.506 230.736 227.18 229.567 227.899C228.354 228.573 227.77 229.247 227.77 229.202C227.77 229.202 227.904 229.022 228.174 228.753C228.444 228.483 228.893 228.124 229.477 227.764C230.646 227.045 232.533 226.326 234.69 226.416C236.847 226.551 238.645 227.449 239.723 228.303C240.263 228.753 240.667 229.157 240.937 229.427C241.161 229.741 241.296 229.921 241.296 229.921Z" fill="#263238"/>
<path d="M240.666 225.741C240.621 225.786 239.992 225.112 238.598 224.618C237.25 224.079 235.138 223.854 232.981 224.438C231.903 224.753 230.914 225.157 230.105 225.652C229.251 226.146 228.577 226.64 227.993 227.135C227.454 227.629 227.004 228.033 226.735 228.303C226.42 228.573 226.285 228.752 226.285 228.752C226.285 228.752 226.42 228.573 226.69 228.258C226.959 227.943 227.364 227.494 227.903 227C228.442 226.505 229.161 225.966 230.015 225.472C230.869 224.977 231.858 224.528 232.936 224.214C235.138 223.584 237.295 223.854 238.643 224.438C239.317 224.708 239.857 225.067 240.171 225.292C240.351 225.427 240.441 225.517 240.531 225.607C240.621 225.696 240.666 225.741 240.666 225.741Z" fill="#263238"/>
<path d="M240.711 222.147C240.711 222.192 239.812 221.922 238.374 221.742C237.655 221.652 236.801 221.563 235.813 221.563C234.869 221.563 233.79 221.652 232.712 221.832C231.633 222.012 230.6 222.327 229.701 222.641C228.802 222.956 227.993 223.315 227.364 223.675C226.061 224.349 225.342 224.888 225.297 224.843C225.297 224.843 225.477 224.708 225.791 224.439C225.971 224.304 226.151 224.169 226.42 224.034C226.69 223.899 226.96 223.675 227.274 223.54C227.903 223.18 228.712 222.821 229.611 222.461C230.51 222.147 231.543 221.832 232.667 221.652C233.79 221.473 234.869 221.383 235.813 221.383C236.801 221.383 237.655 221.473 238.374 221.608C238.734 221.652 239.048 221.742 239.363 221.787C239.632 221.832 239.902 221.922 240.082 221.967C240.486 222.057 240.711 222.147 240.711 222.147Z" fill="#263238"/>
<path d="M202.558 178.151C202.558 178.151 202.782 178.601 202.917 179.455C203.052 180.353 203.007 181.657 202.737 183.319C202.603 184.128 202.378 185.027 202.108 186.016C201.794 186.959 201.344 187.948 200.805 189.027C199.726 191.094 198.378 193.341 196.805 195.767L196.626 196.037V195.723C196.626 194.15 196.626 192.487 196.626 190.734L196.805 190.824C195.457 191.903 194.064 193.026 192.626 194.195L192.671 194.15C191.682 197.25 191.053 200.666 190.784 204.216C190.379 209.699 190.694 214.912 190.963 219.675C191.188 224.439 191.323 228.708 191.458 232.303C191.592 235.898 191.727 238.819 191.817 240.796C191.862 241.785 191.907 242.549 191.952 243.088C191.952 243.358 191.997 243.538 191.997 243.672C191.997 243.807 191.997 243.897 191.997 243.897C191.997 243.897 191.997 243.807 191.952 243.672C191.952 243.538 191.907 243.313 191.907 243.088C191.862 242.549 191.772 241.785 191.727 240.796C191.593 238.774 191.458 235.898 191.278 232.303C191.098 228.708 190.918 224.439 190.694 219.675C190.424 214.912 190.065 209.699 190.514 204.216C190.784 200.621 191.413 197.161 192.401 194.06V194.015H192.446C193.884 192.846 195.322 191.723 196.671 190.644L196.85 190.51V190.734C196.85 192.487 196.85 194.15 196.85 195.723L196.671 195.678C199.771 190.869 202.288 186.735 202.648 183.364C202.962 181.746 203.007 180.398 202.872 179.544C202.827 179.095 202.737 178.781 202.692 178.556C202.603 178.286 202.558 178.151 202.558 178.151Z" fill="#263238"/>
<path d="M194.514 236.123H194.334C193.705 236.123 193.121 236.752 193.121 237.381C193.121 238.01 193.705 238.64 194.334 238.64C194.964 238.685 195.593 238.1 195.638 237.471C195.683 236.842 195.143 236.213 194.514 236.123Z" fill="white"/>
<path d="M194.514 218.821H194.334C193.705 218.821 193.121 219.45 193.121 220.08C193.121 220.709 193.705 221.338 194.334 221.338C194.964 221.383 195.593 220.799 195.638 220.169C195.683 219.495 195.143 218.866 194.514 218.821Z" fill="white"/>
<path d="M194.334 203.317C194.964 203.362 195.593 202.778 195.638 202.149C195.683 201.52 195.143 200.846 194.514 200.801H194.334C193.705 200.801 193.121 201.43 193.121 202.059C193.121 202.688 193.705 203.272 194.334 203.317Z" fill="white"/>
<path d="M174.921 157.884C173.348 156.131 171.775 154.379 170.607 152.312C169.438 150.244 168.764 147.863 169.169 145.526C169.393 144.178 169.978 142.874 170.067 141.526C170.202 139.639 169.393 137.661 170.067 135.909C171.101 133.123 174.831 132.718 177.078 130.786C178.831 129.303 179.684 126.876 181.617 125.618C183.325 124.539 185.482 124.539 187.459 124.809C189.436 125.078 191.458 125.573 193.436 125.303C194.874 125.123 196.177 124.539 197.57 124.18C198.963 123.82 200.536 123.73 201.75 124.449C203.008 125.168 203.682 126.921 202.873 128.089C205.165 127.011 208.131 128.808 208.76 131.28C209.389 133.752 208.131 136.403 206.154 138.021C204.176 139.639 201.66 140.403 199.143 140.852C192.088 142.2 184.403 141.436 178.291 137.616" fill="#263238"/>
<path d="M199.82 181.654C199.46 178.958 199.191 176.756 199.191 176.441C199.191 176.441 208.134 174.419 207.639 165.386C207.415 161.027 206.156 152.04 204.988 143.951C203.685 135.232 195.91 128.986 187.147 129.57L186.293 129.615C176.901 130.783 172.677 139.412 174.115 148.759L179.193 180.082C179.193 180.082 181.35 187.002 185.979 188.215L191.821 196.529L192.764 192.934L197.124 189.159C197.124 189.159 198.112 188.081 199.281 185.969C200.134 184.261 199.955 182.508 199.82 181.654Z" fill="#FFBE9D"/>
<path d="M199.19 176.351C199.19 176.351 193.483 177.204 187.191 173.789C187.191 173.789 190.427 180.125 199.37 178.687L199.19 176.351Z" fill="#EB996E"/>
<path d="M202.064 151.725C202.153 152.399 201.614 153.028 200.895 153.118C200.176 153.208 199.547 152.714 199.502 152.039C199.412 151.365 199.951 150.736 200.67 150.646C201.344 150.556 201.974 151.051 202.064 151.725Z" fill="#263238"/>
<path d="M203.323 148.535C203.188 148.714 202.155 148.04 200.762 148.13C199.369 148.22 198.38 148.984 198.245 148.849C198.155 148.759 198.29 148.445 198.739 148.13C199.144 147.771 199.863 147.411 200.762 147.366C201.615 147.321 202.379 147.591 202.829 147.861C203.233 148.13 203.413 148.445 203.323 148.535Z" fill="#263238"/>
<path d="M188.942 152.671C189.032 153.345 188.493 153.974 187.774 154.064C187.055 154.154 186.426 153.66 186.381 152.986C186.291 152.312 186.83 151.682 187.549 151.593C188.223 151.503 188.853 151.997 188.942 152.671Z" fill="#263238"/>
<path d="M189.659 149.705C189.524 149.884 188.491 149.21 187.098 149.3C185.704 149.39 184.716 150.154 184.581 150.019C184.491 149.929 184.626 149.615 185.075 149.3C185.48 148.941 186.199 148.581 187.098 148.536C187.951 148.491 188.715 148.761 189.165 149.031C189.569 149.3 189.749 149.615 189.659 149.705Z" fill="#263238"/>
<path d="M195.415 159.682C195.415 159.592 196.269 159.413 197.662 159.143C198.021 159.098 198.336 159.008 198.381 158.738C198.426 158.469 198.291 158.109 198.066 157.705C197.662 156.851 197.257 155.997 196.853 155.053C195.145 151.323 193.887 148.223 194.022 148.133C194.156 148.043 195.684 151.054 197.392 154.784C197.796 155.728 198.201 156.581 198.56 157.435C198.74 157.84 198.965 158.289 198.83 158.828C198.74 159.098 198.516 159.323 198.291 159.368C198.066 159.457 197.886 159.457 197.707 159.502C196.314 159.682 195.415 159.727 195.415 159.682Z" fill="#263238"/>
<path d="M189.661 144.225C189.572 144.629 188.133 144.539 186.516 144.809C184.898 145.079 183.595 145.663 183.37 145.303C183.28 145.169 183.46 144.764 183.954 144.36C184.448 143.955 185.257 143.551 186.246 143.371C187.235 143.191 188.133 143.281 188.718 143.506C189.392 143.775 189.706 144.045 189.661 144.225Z" fill="#263238"/>
<path d="M202.564 144.541C202.339 144.855 201.35 144.63 200.227 144.675C199.058 144.675 198.115 145.035 197.89 144.72C197.8 144.586 197.935 144.226 198.339 143.911C198.744 143.597 199.418 143.282 200.227 143.282C201.036 143.237 201.71 143.507 202.159 143.777C202.474 144.046 202.653 144.361 202.564 144.541Z" fill="#263238"/>
<path d="M175.284 155.459C175.104 155.414 168.947 154.021 169.576 160.223C170.206 166.379 176.856 164.402 176.856 164.222C176.856 163.998 175.284 155.459 175.284 155.459Z" fill="#FFBE9D"/>
<path d="M174.114 162.152C174.069 162.152 174.024 162.242 173.845 162.332C173.665 162.422 173.395 162.512 173.036 162.422C172.362 162.242 171.687 161.253 171.553 160.175C171.463 159.636 171.553 159.051 171.687 158.602C171.822 158.153 172.092 157.793 172.406 157.703C172.721 157.613 172.991 157.748 173.081 157.928C173.17 158.108 173.17 158.198 173.17 158.243C173.17 158.243 173.305 158.108 173.215 157.883C173.17 157.748 173.081 157.613 172.946 157.524C172.766 157.434 172.541 157.389 172.317 157.434C171.822 157.524 171.463 157.973 171.283 158.512C171.103 159.007 171.013 159.636 171.058 160.265C171.238 161.523 171.957 162.602 172.901 162.781C173.35 162.871 173.71 162.692 173.889 162.512C174.114 162.287 174.114 162.152 174.114 162.152Z" fill="#EB996E"/>
<path d="M204.491 135.504C204.086 137.976 199.098 140.223 194.964 140.088C191.144 139.998 189.256 138.066 186.515 136.763C184.762 135.909 184.762 135.909 182.381 136.313C180.448 136.628 179.46 138.875 178.381 140.493C180.448 144.987 179.594 150.199 178.741 155.053C178.651 155.592 178.516 156.176 178.111 156.536C177.437 157.165 176.314 156.761 175.595 156.176C174.516 155.188 174.022 153.705 173.662 152.267C172.854 148.986 172.539 145.571 173.033 142.245C173.573 138.92 174.921 135.684 177.213 133.168C180.044 130.067 184.223 128.269 188.447 128.045C192.672 127.82 196.896 129.123 200.401 131.46C202.064 132.493 203.592 133.797 204.491 135.504Z" fill="#263238"/>
<path d="M196.313 162.782C195.28 162.288 194.201 161.793 193.168 161.299C192.988 161.209 192.808 161.119 192.583 161.164C192.359 161.209 192.179 161.344 192.044 161.524C191.325 162.423 191.145 163.726 191.685 164.759C192.269 165.748 193.572 166.287 194.651 165.838C195.774 165.389 196.313 164.085 196.403 162.872L196.313 162.782Z" fill="#EB996E"/>
<path d="M194.739 166.063C194.739 166.108 194.604 166.197 194.29 166.242C193.975 166.287 193.481 166.332 192.942 166.152C192.402 165.973 191.773 165.523 191.369 164.849C190.964 164.175 190.829 163.231 191.189 162.378C191.369 161.973 191.593 161.569 191.908 161.299C192.088 161.164 192.223 161.029 192.402 160.895C192.492 160.85 192.627 160.805 192.762 160.76C192.897 160.76 193.031 160.805 193.121 160.85C193.346 160.94 193.481 161.029 193.616 161.119C193.751 161.209 193.885 161.299 194.065 161.389C194.335 161.569 194.604 161.703 194.829 161.883C195.773 162.467 196.312 162.872 196.312 162.917C196.267 162.962 195.638 162.692 194.694 162.153C194.425 162.018 194.2 161.883 193.885 161.703C193.751 161.614 193.616 161.524 193.436 161.479C193.301 161.389 193.121 161.299 192.987 161.254C192.852 161.209 192.762 161.209 192.627 161.299C192.492 161.389 192.357 161.479 192.223 161.614C191.953 161.883 191.728 162.198 191.593 162.557C191.324 163.276 191.414 164.085 191.728 164.669C192.043 165.254 192.537 165.658 193.031 165.883C193.526 166.063 193.93 166.108 194.245 166.108C194.559 166.063 194.739 166.018 194.739 166.063Z" fill="#263238"/>
<path d="M193.751 151.907C193.706 151.907 193.751 151.323 193.526 150.334C193.257 149.345 192.628 147.952 191.19 146.829C190.471 146.289 189.572 145.84 188.493 145.66C187.46 145.48 186.291 145.525 185.168 145.93C184.584 146.11 184.044 146.424 183.55 146.784C183.056 147.143 182.606 147.593 182.202 148.132C181.438 149.165 180.988 150.514 180.988 151.862C180.988 153.255 181.438 154.558 182.202 155.592C182.561 156.131 183.056 156.58 183.55 156.94C184.044 157.299 184.584 157.614 185.168 157.794C186.291 158.198 187.46 158.243 188.493 158.063C189.527 157.884 190.471 157.434 191.19 156.895C192.628 155.772 193.302 154.378 193.526 153.39C193.751 152.446 193.751 151.862 193.751 151.907C193.751 151.907 193.751 151.952 193.751 151.997C193.751 152.087 193.751 152.176 193.751 152.311C193.751 152.446 193.751 152.626 193.706 152.806C193.661 152.985 193.661 153.21 193.571 153.48C193.481 153.974 193.257 154.603 192.852 155.232C192.493 155.861 191.954 156.535 191.234 157.075C190.515 157.614 189.572 158.108 188.493 158.333C187.415 158.513 186.201 158.513 185.033 158.063C184.449 157.884 183.909 157.569 183.37 157.165C182.831 156.805 182.382 156.311 181.977 155.772C181.168 154.693 180.719 153.3 180.719 151.907C180.719 150.469 181.168 149.121 181.977 148.042C182.382 147.503 182.831 147.008 183.37 146.649C183.864 146.244 184.449 145.975 185.033 145.75C186.201 145.301 187.415 145.301 188.493 145.48C189.572 145.66 190.515 146.155 191.234 146.739C191.954 147.323 192.493 147.952 192.897 148.581C193.257 149.21 193.481 149.795 193.616 150.334C193.706 150.604 193.706 150.828 193.751 151.008C193.796 151.188 193.796 151.367 193.796 151.502C193.796 151.637 193.796 151.727 193.796 151.817C193.751 151.862 193.751 151.907 193.751 151.907Z" fill="#263238"/>
<path d="M209.163 151.278C209.118 151.278 209.163 150.738 208.938 149.75C208.714 148.806 208.085 147.413 206.646 146.334C205.927 145.795 205.074 145.346 204.04 145.166C203.006 144.986 201.883 145.031 200.804 145.436C200.265 145.615 199.726 145.93 199.232 146.289C198.737 146.649 198.288 147.098 197.928 147.593C197.164 148.581 196.76 149.885 196.715 151.233C196.715 152.581 197.164 153.884 197.928 154.873C198.288 155.367 198.737 155.817 199.232 156.176C199.726 156.536 200.265 156.805 200.804 157.03C201.883 157.434 203.051 157.479 204.04 157.299C205.074 157.12 205.927 156.67 206.646 156.131C208.085 155.053 208.714 153.659 208.938 152.716C209.163 151.862 209.118 151.278 209.163 151.278C209.163 151.278 209.163 151.412 209.163 151.682C209.163 151.817 209.163 151.997 209.118 152.176C209.073 152.356 209.073 152.581 208.983 152.851C208.759 153.794 208.129 155.232 206.691 156.356C205.972 156.895 205.074 157.389 204.04 157.569C203.006 157.749 201.793 157.749 200.67 157.299C200.085 157.12 199.546 156.805 199.052 156.446C198.557 156.086 198.063 155.637 197.704 155.097C196.895 154.064 196.49 152.716 196.445 151.323C196.445 149.929 196.895 148.581 197.704 147.548C198.108 147.008 198.557 146.559 199.052 146.2C199.546 145.84 200.085 145.525 200.67 145.346C201.793 144.941 202.961 144.896 204.04 145.076C205.074 145.256 206.017 145.75 206.691 146.289C208.129 147.413 208.759 148.851 208.983 149.795C209.073 150.019 209.073 150.244 209.118 150.469C209.163 150.649 209.163 150.828 209.163 150.963C209.163 151.143 209.163 151.278 209.163 151.278Z" fill="#263238"/>
<path d="M196.583 149.839C196.538 149.884 196.403 149.749 196.134 149.614C195.864 149.48 195.46 149.345 195.01 149.345C194.561 149.345 194.157 149.48 193.887 149.614C193.617 149.749 193.482 149.884 193.438 149.839C193.438 149.839 193.527 149.659 193.797 149.435C194.067 149.255 194.516 149.075 195.01 149.075C195.505 149.075 195.954 149.255 196.224 149.435C196.493 149.659 196.628 149.839 196.583 149.839Z" fill="#263238"/>
<path d="M181.255 150.963C181.3 151.008 180.042 152.042 178.424 153.21C176.851 154.379 175.503 155.323 175.458 155.278C175.413 155.233 176.672 154.199 178.289 153.031C179.907 151.862 181.21 150.919 181.255 150.963Z" fill="#263238"/>
<g opacity="0.3">
<path opacity="0.3" d="M175.952 180.219C175.323 186.33 177.66 192.757 182.558 196.442C182.963 196.711 183.412 197.026 183.861 196.846C184.176 196.711 184.356 196.442 184.536 196.127C185.929 193.7 186.378 191.049 185.974 188.308C185.21 190.33 184.536 192.352 183.772 194.464C179.502 191.903 176.851 186.42 175.952 180.219Z" fill="black"/>
</g>
<path opacity="0.3" d="M192.492 194.105L196.087 192.802L196.672 198.869C196.672 198.869 200.536 191.813 202.154 188.578C203.772 185.342 202.918 179.68 202.918 179.68C202.918 179.68 203.502 184.623 199.593 190.959L196.672 195.723V190.735L192.492 194.105Z" fill="black"/>
<g opacity="0.3">
<path opacity="0.3" d="M150.743 224.932C149.125 224.169 147.282 224.079 145.53 224.258C143.687 224.483 141.8 225.022 140.362 226.236C138.924 227.404 137.935 229.247 138.115 231.134L138.295 231.179C139.553 227.809 142.025 225.337 145.26 225.022C148.451 224.708 151.597 226.146 153.799 228.528C153.574 226.73 152.361 225.696 150.743 224.932Z" fill="black"/>
</g>
<g opacity="0.3">
<path opacity="0.3" d="M241.519 228.393C240.305 227.09 238.643 226.326 236.89 226.011C233.834 225.472 230.554 226.416 228.262 228.528L228.936 227.989C230.688 226.955 232.666 226.371 234.688 226.416C236.71 226.461 238.733 227.225 240.171 228.618C241.519 229.876 242.328 231.629 243.092 233.291C243.406 231.539 242.732 229.696 241.519 228.393Z" fill="black"/>
</g>
<path d="M218.375 200.217C218.375 200.217 218.42 200.037 218.555 199.722C218.69 199.363 218.869 198.913 219.049 198.419C219.498 197.296 220.083 195.813 220.712 194.105C221.341 192.397 221.88 190.869 222.285 189.746C222.464 189.207 222.644 188.802 222.734 188.443C222.869 188.128 222.914 187.948 222.914 187.948C222.914 187.948 222.869 188.128 222.824 188.443C222.734 188.757 222.599 189.207 222.42 189.791C222.06 190.914 221.566 192.487 220.937 194.195C220.307 195.902 219.678 197.385 219.229 198.509C219.004 199.048 218.779 199.498 218.645 199.767C218.465 200.037 218.42 200.217 218.375 200.217Z" fill="#263238"/>
<path d="M161.707 200.666C161.662 200.666 161.167 198.554 160.628 195.902C160.089 193.251 159.684 191.094 159.774 191.094C159.819 191.094 160.314 193.206 160.853 195.857C161.392 198.464 161.797 200.621 161.707 200.666Z" fill="#263238"/>
<path d="M160.901 227.404C161.036 227.494 159.238 213.383 159.238 213.383C159.238 213.383 160.362 202.687 160.991 202.193V198.418C160.991 198.418 162.744 197.339 163.193 199.047C163.193 199.047 164.721 197.699 164.99 200.89C165.26 204.08 165.305 207.361 165.305 207.361L168.765 215.989L169.35 216.259C169.35 216.259 170.069 209.518 170.518 208.529C170.967 207.541 171.237 205.114 172.9 205.473C174.518 205.833 174.652 207.181 174.383 209.383C174.068 211.585 173.709 213.877 173.843 215.27C173.978 216.708 174.607 219.809 174.428 222.326C174.248 224.797 172.855 227.449 171.417 229.291C169.979 231.134 167.237 234.953 165.754 236.077C165.305 236.571 160.901 227.404 160.901 227.404Z" fill="#FFBE9D"/>
<path d="M162.608 215.944C162.608 215.944 162.608 215.719 162.608 215.36C162.653 214.91 162.698 214.371 162.743 213.742C162.833 212.349 163.012 210.461 163.192 208.349C163.282 207.316 163.372 206.282 163.462 205.383C163.507 204.934 163.552 204.484 163.462 204.125C163.417 203.721 163.237 203.406 163.012 203.136C162.563 202.642 161.979 202.507 161.619 202.507C161.26 202.507 161.035 202.597 161.035 202.597C161.035 202.597 161.08 202.552 161.17 202.507C161.26 202.462 161.395 202.417 161.619 202.417C162.024 202.372 162.653 202.507 163.147 203.001C163.417 203.271 163.597 203.631 163.642 204.035C163.731 204.44 163.687 204.889 163.642 205.338C163.552 206.237 163.462 207.271 163.372 208.304C163.192 210.416 163.012 212.304 162.833 213.697C162.743 214.371 162.698 214.91 162.653 215.315C162.653 215.719 162.653 215.944 162.608 215.944Z" fill="#EB996E"/>
<path d="M164.494 210.192C164.539 210.237 164.135 210.552 163.865 211.316C163.595 212.035 163.506 213.158 163.281 214.371C163.101 215.585 162.921 216.663 162.786 217.427C162.652 218.191 162.562 218.686 162.517 218.686C162.472 218.686 162.517 218.191 162.652 217.382C162.742 216.573 162.921 215.495 163.101 214.282C163.281 213.068 163.416 211.99 163.73 211.226C163.865 210.866 164.09 210.552 164.225 210.417C164.359 210.237 164.449 210.147 164.494 210.192Z" fill="#EB996E"/>
<path d="M163.191 198.912C163.191 198.912 163.236 199.047 163.326 199.361C163.371 199.631 163.461 200.081 163.551 200.575C163.731 201.608 163.91 203.047 164.045 204.664C164.18 206.282 164.18 207.72 164.18 208.754C164.18 209.293 164.135 209.697 164.135 210.012C164.135 210.327 164.09 210.461 164.09 210.461C164.045 210.461 164.045 209.832 164 208.754C163.955 207.72 163.91 206.237 163.821 204.664C163.686 203.047 163.551 201.608 163.416 200.575C163.281 199.541 163.191 198.912 163.191 198.912Z" fill="#EB996E"/>
<path d="M173.168 212.08C173.213 212.125 172.674 212.395 172 212.17C171.326 211.99 171.011 211.451 171.101 211.451C171.146 211.406 171.505 211.766 172.09 211.945C172.629 212.17 173.123 212.035 173.168 212.08Z" fill="#EB996E"/>
<path d="M161.08 225.651L151.958 229.471H146.52C146.52 229.471 141.172 231.134 140.319 236.167C139.51 241.2 139.375 243.807 141.757 244.391C144.138 245.02 150.789 245.065 154.07 243.987C157.395 242.908 166.024 235.897 166.024 235.897L166.878 230.864L161.08 225.651Z" fill="#FFBE9D"/>
<path d="M163.192 231.179C163.192 231.179 163.102 231.089 162.922 230.954C162.743 230.774 162.563 230.55 162.338 230.19C161.889 229.516 161.394 228.483 161.08 227.314C160.72 226.146 160.585 225.022 160.541 224.213C160.451 223.404 160.496 222.91 160.496 222.91C160.541 222.91 160.585 223.404 160.675 224.213C160.81 225.022 160.945 226.101 161.305 227.269C161.619 228.438 162.068 229.426 162.473 230.145C162.922 230.774 163.237 231.179 163.192 231.179Z" fill="#EB996E"/>
<path d="M167.191 232.797C167.147 232.797 167.551 232.078 167.731 230.864C167.821 230.235 167.821 229.516 167.641 228.707C167.461 227.898 167.102 227.089 166.517 226.325C165.978 225.562 165.349 224.887 164.81 224.213C164.27 223.584 163.866 222.91 163.596 222.371C163.327 221.787 163.192 221.292 163.147 220.933C163.102 220.573 163.102 220.394 163.147 220.394C163.192 220.394 163.192 221.202 163.776 222.326C164.046 222.865 164.495 223.494 165.034 224.123C165.574 224.753 166.203 225.427 166.742 226.236C167.326 227.045 167.731 227.898 167.866 228.707C168.045 229.561 168.045 230.325 167.911 230.954C167.821 231.583 167.641 232.078 167.506 232.392C167.416 232.572 167.371 232.662 167.326 232.752C167.192 232.752 167.191 232.797 167.191 232.797Z" fill="#EB996E"/>
<path d="M153.124 210.867C153.079 210.912 152.091 209.07 150.922 206.823C149.754 204.576 148.855 202.688 148.9 202.688C148.945 202.643 149.934 204.486 151.102 206.733C152.27 208.98 153.169 210.822 153.124 210.867Z" fill="white"/>
<path d="M167.862 194.463C167.817 194.419 168.401 192.936 169.255 191.093C170.064 189.251 170.783 187.812 170.828 187.812C170.873 187.857 170.289 189.34 169.435 191.183C168.626 193.025 167.907 194.508 167.862 194.463Z" fill="white"/>
<path d="M182.288 205.115C182.243 205.159 181.3 204.126 180.221 202.823C179.143 201.519 178.289 200.396 178.334 200.351C178.379 200.306 179.322 201.34 180.401 202.643C181.479 203.946 182.333 205.07 182.288 205.115Z" fill="white"/>
<path d="M178.963 219.72C178.918 219.675 179.592 218.641 180.536 217.383C181.435 216.125 182.244 215.136 182.289 215.181C182.333 215.226 181.659 216.26 180.716 217.518C179.817 218.776 179.008 219.765 178.963 219.72Z" fill="white"/>
<path d="M174.516 240.437C174.471 240.437 174.292 240.122 173.977 239.538C173.662 238.954 173.303 238.145 172.898 237.246C172.494 236.348 172.179 235.494 172 234.91C171.775 234.28 171.685 233.921 171.73 233.921C171.775 233.921 171.91 234.28 172.179 234.865C172.449 235.539 172.809 236.303 173.168 237.201C173.528 238.055 173.887 238.819 174.157 239.493C174.381 240.033 174.516 240.392 174.516 240.437Z" fill="white"/>
<path d="M187.188 231.629C187.188 231.674 185.974 231.495 184.446 231.225C182.963 230.955 181.75 230.641 181.75 230.596C181.75 230.551 182.963 230.731 184.491 231C186.019 231.27 187.188 231.584 187.188 231.629Z" fill="white"/>
<path d="M197.029 212.305C196.984 212.26 198.152 210.912 199.635 209.339C201.118 207.721 202.376 206.463 202.421 206.508C202.466 206.553 201.298 207.901 199.815 209.474C198.332 211.092 197.074 212.35 197.029 212.305Z" fill="white"/>
<path d="M206.918 238.055C206.873 238.1 205.435 236.392 203.682 234.28C201.929 232.168 200.581 230.415 200.626 230.37C200.671 230.325 202.109 232.033 203.862 234.145C205.614 236.302 207.007 238.055 206.918 238.055Z" fill="white"/>
<path d="M145.484 227.089C145.529 227.134 144.181 227.809 142.743 228.932C141.305 230.055 140.272 231.134 140.227 231.089C140.227 231.089 140.406 230.774 140.856 230.325C141.26 229.876 141.889 229.291 142.608 228.752C143.327 228.213 144.046 227.764 144.586 227.494C145.125 227.179 145.439 227.045 145.484 227.089Z" fill="white"/>
<path d="M149.17 217.158C149.215 217.203 148.766 218.012 148.136 218.956C147.507 219.899 146.923 220.663 146.878 220.618C146.833 220.574 147.283 219.765 147.912 218.821C148.541 217.877 149.125 217.113 149.17 217.158Z" fill="white"/>
<path d="M157.53 226.91C157.485 226.955 156.99 226.146 156.766 225.068C156.496 223.989 156.586 223.045 156.676 223.09C156.766 223.09 156.766 223.989 157.035 225.023C157.215 226.056 157.575 226.865 157.53 226.91Z" fill="white"/>
<path d="M158.74 195.947C158.74 195.992 157.976 196.172 156.987 196.307C156.043 196.442 155.234 196.487 155.234 196.442C155.234 196.397 155.998 196.217 156.987 196.082C157.931 195.947 158.74 195.857 158.74 195.947Z" fill="white"/>
<path d="M165.035 184.847C165.08 184.892 164.405 185.341 163.507 185.835C162.653 186.33 161.889 186.644 161.889 186.599C161.844 186.555 162.518 186.105 163.417 185.611C164.271 185.116 164.99 184.757 165.035 184.847Z" fill="white"/>
<path d="M182.648 189.521C182.603 189.566 181.839 188.622 180.895 187.454C179.996 186.285 179.277 185.252 179.367 185.207C179.412 185.162 180.176 186.105 181.12 187.274C181.973 188.487 182.692 189.476 182.648 189.521Z" fill="white"/>
<path d="M204.982 200.711C204.937 200.756 204.128 199.902 203.364 198.689C202.6 197.475 202.196 196.352 202.286 196.352C202.331 196.307 202.825 197.386 203.589 198.554C204.308 199.767 205.072 200.666 204.982 200.711Z" fill="white"/>
<path d="M213.524 203.497C213.569 203.542 213.164 204.576 212.58 205.834C211.996 207.092 211.501 208.081 211.457 208.081C211.412 208.036 211.816 207.002 212.4 205.744C212.984 204.486 213.479 203.497 213.524 203.497Z" fill="white"/>
<path d="M214.738 191.858C214.693 191.903 213.659 190.779 212.446 189.296C211.232 187.858 210.289 186.645 210.334 186.6C210.379 186.555 211.412 187.678 212.625 189.161C213.839 190.6 214.783 191.813 214.738 191.858Z" fill="white"/>
<path d="M201.703 182.376C201.658 182.376 201.569 181.387 201.479 180.219C201.434 179.005 201.434 178.017 201.524 178.017C201.569 178.017 201.658 179.005 201.748 180.174C201.793 181.432 201.748 182.376 201.703 182.376Z" fill="white"/>
<path d="M212.307 181.792C212.307 181.836 211.093 182.061 209.521 182.286C207.993 182.511 206.734 182.6 206.734 182.555C206.734 182.511 207.948 182.286 209.521 182.061C211.049 181.836 212.307 181.747 212.307 181.792Z" fill="white"/>
<path d="M229.07 194.105C229.025 194.15 228.261 192.712 227.407 190.914C226.553 189.117 225.879 187.679 225.969 187.634C226.014 187.589 226.778 189.027 227.632 190.825C228.486 192.622 229.115 194.06 229.07 194.105Z" fill="white"/>
<path d="M226.239 204.711C226.194 204.711 226.329 203.543 226.643 202.149C226.913 200.756 227.183 199.633 227.272 199.633C227.317 199.633 227.183 200.801 226.868 202.194C226.598 203.632 226.329 204.756 226.239 204.711Z" fill="white"/>
<path d="M234.014 213.114C233.969 213.114 233.339 211.586 232.665 209.654C231.991 207.721 231.497 206.148 231.542 206.104C231.587 206.104 232.216 207.631 232.89 209.564C233.564 211.496 234.058 213.069 234.014 213.114Z" fill="white"/>
<path d="M232.937 218.012C232.937 218.057 231.858 217.832 230.645 217.203C229.477 216.574 228.668 215.765 228.713 215.765C228.758 215.72 229.567 216.394 230.735 217.023C231.948 217.607 232.937 217.922 232.937 218.012Z" fill="white"/>
<path d="M242.868 229.202C242.823 229.247 242.463 228.528 242.059 227.674C241.654 226.821 241.429 226.102 241.474 226.057C241.519 226.012 241.879 226.731 242.283 227.585C242.688 228.438 242.957 229.157 242.868 229.202Z" fill="white"/>
<path d="M184.132 244.752C184.087 244.752 183.908 243.853 183.773 242.774C183.638 241.651 183.593 240.752 183.638 240.752C183.683 240.752 183.863 241.651 183.997 242.729C184.132 243.853 184.177 244.752 184.132 244.752Z" fill="white"/>
<path d="M214.645 243.988C214.6 243.988 214.735 243.089 214.96 242.055C215.185 240.977 215.409 240.123 215.499 240.168C215.544 240.168 215.409 241.066 215.185 242.1C214.96 243.179 214.69 244.032 214.645 243.988Z" fill="white"/>
<path d="M219.984 154.87L223.939 147.904C222.186 145.073 221.198 141.748 221.198 138.153C221.198 127.862 229.511 119.548 239.802 119.548C250.094 119.548 258.407 127.862 258.407 138.153C258.407 148.444 250.094 156.757 239.802 156.757C235.533 156.757 231.579 155.319 228.433 152.848L219.984 154.87Z" fill="#FAFAFA"/>
<path d="M219.984 154.869C220.389 154.779 223.04 154.15 228.433 152.937H228.523L228.478 152.847L228.388 152.937C229.467 153.746 230.725 154.555 232.208 155.229C233.691 155.903 235.398 156.442 237.331 156.667C238.275 156.802 239.263 156.846 240.297 156.802C240.791 156.757 241.33 156.757 241.825 156.712C242.364 156.622 242.858 156.532 243.398 156.487C245.51 156.082 247.667 155.274 249.689 154.015C251.711 152.757 253.554 151.094 255.037 149.027C256.52 146.96 257.643 144.488 258.183 141.837C258.722 139.185 258.677 136.309 257.958 133.568C257.239 130.827 255.936 128.13 253.958 125.928L253.194 125.075C252.925 124.805 252.655 124.58 252.385 124.311C252.116 124.086 251.846 123.771 251.532 123.592L250.633 122.917C250.363 122.693 250.004 122.513 249.689 122.288C249.375 122.109 249.06 121.884 248.745 121.704C248.431 121.524 248.071 121.39 247.757 121.21C247.442 121.075 247.128 120.895 246.768 120.76C244.072 119.682 241.196 119.277 238.409 119.457C235.668 119.637 233.017 120.446 230.77 121.704C228.478 122.962 226.59 124.67 225.107 126.558C223.624 128.445 222.591 130.512 221.917 132.579C221.288 134.647 221.108 136.714 221.108 138.646C221.153 140.579 221.512 142.331 222.007 143.859C222.501 145.387 223.175 146.735 223.894 147.859V147.814C221.422 152.353 220.209 154.555 219.984 154.869C220.164 154.51 221.422 152.353 223.984 147.949V147.904V147.859C223.31 146.735 222.636 145.432 222.141 143.859C221.647 142.331 221.288 140.579 221.243 138.691C221.243 136.804 221.422 134.736 222.052 132.714C222.681 130.647 223.759 128.625 225.197 126.737C226.68 124.895 228.568 123.232 230.815 121.974C233.062 120.715 235.668 119.952 238.409 119.727C241.151 119.547 243.982 119.952 246.633 120.985C246.993 121.075 247.307 121.255 247.622 121.434C247.936 121.614 248.251 121.749 248.611 121.929C248.925 122.109 249.24 122.288 249.554 122.513C249.869 122.693 250.183 122.873 250.453 123.097L251.352 123.771C251.666 123.996 251.891 124.266 252.206 124.49C252.475 124.76 252.79 124.985 253.015 125.254L253.779 126.063C255.711 128.265 257.014 130.917 257.733 133.613C258.407 136.354 258.452 139.14 257.958 141.792C257.419 144.443 256.34 146.87 254.857 148.892C253.374 150.959 251.532 152.622 249.554 153.836C247.577 155.094 245.42 155.858 243.353 156.307C242.813 156.397 242.319 156.487 241.78 156.532C241.285 156.577 240.746 156.577 240.252 156.622C239.263 156.667 238.275 156.622 237.331 156.487C235.443 156.262 233.736 155.723 232.253 155.049C230.77 154.375 229.511 153.611 228.433 152.757L228.073 152.487L228.343 152.847L228.388 152.757C223.04 154.15 220.389 154.779 219.984 154.869Z" fill="#263238"/>
<path d="M244.836 137.387C244.836 138.376 245.645 139.185 246.633 139.185C247.622 139.185 248.431 138.376 248.431 137.387C248.431 136.399 247.622 135.59 246.633 135.59C245.645 135.59 244.836 136.399 244.836 137.387Z" fill="#263238"/>
<path d="M237.555 137.387C237.555 138.376 238.364 139.185 239.352 139.185C240.341 139.185 241.15 138.376 241.15 137.387C241.15 136.399 240.341 135.59 239.352 135.59C238.364 135.59 237.555 136.399 237.555 137.387Z" fill="#263238"/>
<path d="M230.272 136.49C229.778 137.344 230.047 138.467 230.946 138.962C231.8 139.456 232.923 139.186 233.418 138.288C233.912 137.434 233.642 136.31 232.744 135.816C231.89 135.322 230.766 135.636 230.272 136.49Z" fill="#263238"/>
</g>
</g>
</g>
<defs>
<filter id="filter0_d_2234_39113" x="0" y="0" width="420" height="469" filterUnits="userSpaceOnUse" color-interpolation-filters="sRGB">
<feFlood flood-opacity="0" result="BackgroundImageFix"/>
<feColorMatrix in="SourceAlpha" type="matrix" values="0 0 0 0 0 0 0 0 0 0 0 0 0 0 0 0 0 0 127 0" result="hardAlpha"/>
<feOffset dx="16" dy="16"/>
<feGaussianBlur stdDeviation="20"/>
<feComposite in2="hardAlpha" operator="out"/>
<feColorMatrix type="matrix" values="0 0 0 0 0.133333 0 0 0 0 0.133333 0 0 0 0 0.133333 0 0 0 0.07 0"/>
<feBlend mode="normal" in2="BackgroundImageFix" result="effect1_dropShadow_2234_39113"/>
<feBlend mode="normal" in="SourceGraphic" in2="effect1_dropShadow_2234_39113" result="shape"/>
</filter>
<clipPath id="clip0_2234_39113">
<rect width="317" height="180.25" fill="white" transform="translate(36 92)"/>
</clipPath>
</defs>
</svg>
