<svg width="340" height="389" viewBox="0 0 340 389" fill="none" xmlns="http://www.w3.org/2000/svg">
<rect width="340" height="389" fill="white"/>
<rect x="0.5" y="0.5" width="339" height="388" stroke="white" stroke-opacity="0.3"/>
<mask id="mask0_2234_44063" style="mask-type:alpha" maskUnits="userSpaceOnUse" x="0" y="0" width="340" height="389">
<rect width="340" height="389" fill="white"/>
<rect x="0.5" y="0.5" width="339" height="388" stroke="white" stroke-opacity="0.3"/>
</mask>
<g mask="url(#mask0_2234_44063)">
<path d="M170.499 299C245.54 299 306.373 263.876 306.373 220.549C306.373 177.221 245.54 142.098 170.499 142.098C95.4579 142.098 34.625 177.221 34.625 220.549C34.625 263.876 95.4579 299 170.499 299Z" fill="#F5F5F5"/>
<path d="M169.114 264.35C191.266 264.35 209.224 254.698 209.224 242.793C209.224 230.888 191.266 221.236 169.114 221.236C146.962 221.236 129.004 230.888 129.004 242.793C129.004 254.698 146.962 264.35 169.114 264.35Z" fill="#E6E6E6"/>
<path d="M243.288 222.961L248.785 226.142C248.785 226.142 246.011 217.292 247.551 208.384C247.921 206.285 248.68 204.274 249.79 202.454C250.217 201.557 253.532 196.002 250.618 193.438C247.703 190.874 240.851 195.983 241.163 209.688C241.306 214.185 242.02 218.644 243.288 222.961Z" fill="#663AA3"/>
<path opacity="0.5" d="M243.288 222.961L248.785 226.142C248.785 226.142 246.011 217.292 247.551 208.384C247.921 206.285 248.68 204.274 249.79 202.454C250.217 201.557 253.532 196.002 250.618 193.438C247.703 190.874 240.851 195.983 241.163 209.688C241.306 214.185 242.02 218.644 243.288 222.961Z" fill="black"/>
<path d="M245.846 224.723C245.789 224.723 245.734 224.705 245.687 224.672C245.64 224.639 245.605 224.592 245.585 224.539C245.585 224.481 243.486 218.711 243.594 209.447C243.702 200.183 248.608 195.15 248.684 195.105C248.709 195.08 248.74 195.059 248.773 195.045C248.806 195.032 248.842 195.024 248.878 195.024C248.914 195.024 248.95 195.032 248.983 195.045C249.016 195.059 249.047 195.08 249.072 195.105C249.122 195.157 249.15 195.227 249.15 195.299C249.15 195.372 249.122 195.441 249.072 195.493C249.021 195.538 244.281 200.367 244.173 209.453C244.065 218.539 246.082 224.297 246.126 224.354C246.139 224.388 246.146 224.423 246.145 224.459C246.144 224.495 246.136 224.53 246.121 224.563C246.106 224.596 246.085 224.625 246.058 224.649C246.032 224.673 246.001 224.692 245.967 224.704C245.929 224.72 245.888 224.727 245.846 224.723Z" fill="white"/>
<path d="M247.552 225.441L256.632 230.786C256.632 230.786 260.793 230.149 260.45 226.255C260.106 222.362 258.445 221.42 260.551 219.702C262.657 217.984 263.198 217.87 263.096 216.183C262.995 214.497 261.862 213.759 261.328 213.091C260.793 212.423 259.311 211.023 260.354 208.994C261.398 206.964 262.816 204.998 260.717 204.063C259.444 203.509 257.345 204.203 255.945 205.691C254.545 207.18 253.4 208.236 252.057 208.593C250.715 208.949 247.966 208.968 248.055 211.252C248.144 213.537 248.742 214.332 248.189 215.344C247.171 217.271 242.704 218.302 247.552 225.441Z" fill="#663AA3"/>
<path opacity="0.2" d="M247.552 225.441L256.632 230.786C256.632 230.786 260.793 230.149 260.45 226.255C260.106 222.362 258.445 221.42 260.551 219.702C262.657 217.984 263.198 217.87 263.096 216.183C262.995 214.497 261.862 213.759 261.328 213.091C260.793 212.423 259.311 211.023 260.354 208.994C261.398 206.964 262.816 204.998 260.717 204.063C259.444 203.509 257.345 204.203 255.945 205.691C254.545 207.18 253.4 208.236 252.057 208.593C250.715 208.949 247.966 208.968 248.055 211.252C248.144 213.537 248.742 214.332 248.189 215.344C247.171 217.271 242.704 218.302 247.552 225.441Z" fill="black"/>
<path d="M251.246 227.904C251.177 227.904 251.111 227.879 251.061 227.833C251.01 227.787 250.978 227.724 250.972 227.656C250.972 227.516 249.973 213.963 259.39 205.068C259.415 205.04 259.445 205.016 259.48 205C259.515 204.984 259.552 204.975 259.59 204.974C259.628 204.973 259.666 204.98 259.702 204.994C259.737 205.009 259.769 205.031 259.795 205.059C259.821 205.086 259.842 205.119 259.855 205.155C259.867 205.191 259.873 205.229 259.87 205.267C259.867 205.306 259.856 205.343 259.838 205.376C259.82 205.41 259.795 205.439 259.765 205.463C250.539 214.186 251.494 227.478 251.526 227.611C251.529 227.683 251.505 227.754 251.457 227.809C251.41 227.863 251.343 227.897 251.271 227.904H251.246Z" fill="white"/>
<path d="M252.875 216.306C252.806 216.305 252.74 216.278 252.69 216.231C252.639 216.184 252.608 216.12 252.602 216.052C252.531 215.015 252.251 214.004 251.779 213.078C251.307 212.153 250.651 211.333 249.853 210.669C249.824 210.648 249.799 210.621 249.78 210.591C249.761 210.56 249.748 210.527 249.742 210.491C249.736 210.456 249.737 210.419 249.745 210.384C249.753 210.349 249.768 210.316 249.789 210.287C249.833 210.228 249.898 210.187 249.97 210.176C250.043 210.164 250.117 210.181 250.177 210.223C251.045 210.93 251.758 211.808 252.269 212.804C252.78 213.799 253.08 214.89 253.149 216.007C253.152 216.043 253.149 216.079 253.138 216.113C253.127 216.147 253.11 216.179 253.087 216.206C253.063 216.233 253.035 216.256 253.003 216.272C252.971 216.288 252.936 216.297 252.901 216.3L252.875 216.306Z" fill="white"/>
<path d="M252.207 218.615C252.139 218.614 252.074 218.589 252.022 218.545C251.997 218.52 251.976 218.489 251.962 218.456C251.949 218.423 251.941 218.387 251.941 218.351C251.941 218.315 251.949 218.279 251.962 218.246C251.976 218.213 251.997 218.182 252.022 218.157C252.118 218.049 254.504 215.478 259.982 216.248C260.018 216.252 260.053 216.263 260.085 216.281C260.117 216.299 260.145 216.324 260.167 216.353C260.189 216.382 260.205 216.416 260.214 216.451C260.222 216.487 260.224 216.524 260.217 216.56C260.208 216.632 260.17 216.696 260.113 216.741C260.056 216.785 259.983 216.804 259.912 216.795C254.733 216.083 252.455 218.52 252.429 218.539C252.401 218.568 252.365 218.589 252.327 218.603C252.288 218.616 252.247 218.62 252.207 218.615Z" fill="white"/>
<path d="M203.67 237.067L202.633 228.338H198.325C196.899 227.078 195.346 225.967 193.693 225.023C180.116 217.184 158.101 217.184 144.523 225.023C142.87 225.967 141.318 227.078 139.891 228.338H135.584L134.413 237.983C133.827 243.525 137.187 249.182 144.523 253.413C158.101 261.251 180.116 261.251 193.693 253.413C201.43 248.946 204.752 242.895 203.67 237.067Z" fill="#663AA3"/>
<path opacity="0.3" d="M203.67 237.067L202.633 228.338H198.325C196.899 227.078 195.346 225.967 193.693 225.023C180.116 217.184 158.101 217.184 144.523 225.023C142.87 225.967 141.318 227.078 139.891 228.338H135.584L134.413 237.983C133.827 243.525 137.187 249.182 144.523 253.413C158.101 261.251 180.116 261.251 193.693 253.413C201.43 248.946 204.752 242.895 203.67 237.067Z" fill="white"/>
<path d="M169.111 248.087C187.626 248.087 202.635 239.422 202.635 228.732C202.635 218.043 187.626 209.377 169.111 209.377C150.595 209.377 135.586 218.043 135.586 228.732C135.586 239.422 150.595 248.087 169.111 248.087Z" fill="#663AA3"/>
<path opacity="0.5" d="M169.111 248.087C187.626 248.087 202.635 239.422 202.635 228.732C202.635 218.043 187.626 209.377 169.111 209.377C150.595 209.377 135.586 218.043 135.586 228.732C135.586 239.422 150.595 248.087 169.111 248.087Z" fill="white"/>
<path d="M191.734 216.178C204.23 222.897 204.23 233.784 191.734 240.496C179.238 247.209 158.979 247.209 146.483 240.496C133.987 233.784 133.993 222.897 146.483 216.178C158.973 209.459 179.238 209.466 191.734 216.178Z" fill="#F0F0F0"/>
<path d="M200.897 226.422C200.852 226.206 200.808 225.99 200.744 225.786H171.285L190.532 215.72C190.573 215.698 190.61 215.667 190.64 215.631L189.87 215.275L170.191 225.57V211.158H169.504V225.379L149.34 214.836L148.615 215.154C148.646 215.223 148.697 215.28 148.761 215.319L168.759 225.78H137.474C137.41 226.009 137.359 226.244 137.309 226.473H168.447L144.664 238.912C144.592 238.949 144.536 239.01 144.506 239.085C144.475 239.16 144.473 239.243 144.498 239.319C144.619 239.402 144.747 239.478 144.874 239.555C144.91 239.561 144.946 239.561 144.982 239.555L169.491 226.715V245.536H170.191V226.524L194.133 239.052C194.343 238.912 194.547 238.772 194.77 238.626C194.739 238.58 194.697 238.543 194.649 238.518L171.616 226.467H200.757C200.806 226.461 200.853 226.446 200.897 226.422Z" fill="#E6E6E6"/>
<path d="M146.483 216.573C158.979 209.861 179.238 209.861 191.734 216.573C197.886 219.882 201.004 224.209 201.093 228.535C201.189 224.081 198.071 219.589 191.734 216.179C179.238 209.466 158.979 209.466 146.483 216.179C140.12 219.589 137.028 224.069 137.123 228.535C137.212 224.202 140.33 219.882 146.483 216.573Z" fill="#663AA3"/>
<path opacity="0.3" d="M146.483 216.573C158.979 209.861 179.238 209.861 191.734 216.573C197.886 219.882 201.004 224.209 201.093 228.535C201.189 224.081 198.071 219.589 191.734 216.179C179.238 209.466 158.979 209.466 146.483 216.179C140.12 219.589 137.028 224.069 137.123 228.535C137.212 224.202 140.33 219.882 146.483 216.573Z" fill="white"/>
<path opacity="0.2" d="M169.111 240.49C181.604 240.49 191.731 235.049 191.731 228.337C191.731 221.625 181.604 216.185 169.111 216.185C156.619 216.185 146.492 221.625 146.492 228.337C146.492 235.049 156.619 240.49 169.111 240.49Z" fill="black"/>
<path d="M203.744 102.3C203.744 102.3 202.923 101.13 203.744 98.68C203.979 97.9738 203.432 95.9187 203.788 95.626C204.145 95.3333 205.608 95.4033 205.92 98.171C206.67 97.17 207.215 96.0304 207.523 94.8179C207.962 92.9091 208.357 90.4213 210.393 91.9547C212.429 93.4881 214.885 96.7776 212.842 99.9017C211.658 101.715 210.277 103.392 208.726 104.903L203.744 102.3Z" fill="#FFA8A7"/>
<path d="M200.492 106.545L203.743 102.301L208.719 104.929L206.257 110.082C206.257 110.082 201.472 112.048 200.492 106.545Z" fill="#FFA8A7"/>
<path d="M177.631 215.899C177.631 215.899 175.754 215.492 175.843 217.687C175.938 220.016 174.233 223.108 178.42 224.228C180.688 224.868 182.784 226.01 184.553 227.568C186.08 228.764 190.19 229.935 193.295 228.548C199.022 226.003 191.24 222.911 191.24 222.911L177.631 215.899Z" fill="#263238"/>
<path d="M155.556 215.93C155.556 215.93 154.373 215.02 153.781 219.748C153.19 224.475 148.055 236.424 156.129 236.424C160.271 236.424 160.634 229.979 160.615 225.608C160.596 221.236 160.774 217.005 160.201 216.274C159.629 215.542 155.556 215.93 155.556 215.93Z" fill="#263238"/>
<path d="M173.387 176.54C173.727 178.277 173.921 180.039 173.966 181.808C173.966 184.035 173.571 190.08 173.966 193.973C174.36 197.867 176.562 212.89 176.721 213.895C176.778 214.683 176.739 215.476 176.606 216.255C176.579 216.443 176.602 216.635 176.674 216.81C176.745 216.986 176.863 217.139 177.013 217.254C178.241 218.171 181.346 220.493 182.377 221.339C183.681 222.402 187.467 227.377 191.24 222.911C191.24 222.911 182.969 217.337 182.574 214.907C182.18 212.476 183.847 191.416 184.311 188.941C184.776 186.466 184.948 171.443 184.948 171.443L173.387 176.54Z" fill="#FFA8A7"/>
<path d="M156.638 174.458V179.077C156.639 179.563 156.598 180.049 156.517 180.528C156.11 182.99 154.78 191.427 154.64 198.165C154.475 206.157 154.589 213.27 154.927 216.254C155.264 219.238 153.489 224.996 153.336 225.868C152.986 227.847 153.279 229.113 156.199 229.138C158.044 229.138 159.279 228.795 159.438 225.957C159.597 223.119 159.915 217.609 159.915 217.609C159.915 217.609 163.911 198.852 164.604 195.728C165.298 192.604 168.873 177.608 169.109 176.087L156.638 174.458Z" fill="#FFA8A7"/>
<path d="M159.234 142.575C159.234 142.575 157.847 145.61 157.039 152.043C156.231 158.475 156.638 174.458 156.638 174.458C161.379 176.492 166.482 177.551 171.641 177.57C176.62 177.608 181.467 175.964 185.397 172.906C185.397 172.906 185.244 173.58 185.244 161.994C185.244 150.408 182.756 143.504 182.756 143.504L159.234 142.575Z" fill="#663AA3"/>
<path d="M158.407 137.854C156.892 141.474 155.882 145.285 155.404 149.18C154.227 158.877 155.474 174.459 155.474 174.459C160.638 176.407 166.097 177.46 171.616 177.57C176.596 177.608 181.442 175.965 185.372 172.906C185.372 172.906 185.665 169.649 185.219 160.073C184.94 153.383 184.168 146.722 182.91 140.145L158.407 137.854Z" fill="#663AA3"/>
<path opacity="0.5" d="M158.407 137.854C156.892 141.474 155.882 145.285 155.404 149.18C154.227 158.877 155.474 174.459 155.474 174.459C160.638 176.407 166.097 177.46 171.616 177.57C176.596 177.608 181.442 175.965 185.372 172.906C185.372 172.906 185.665 169.649 185.219 160.073C184.94 153.383 184.168 146.722 182.91 140.145L158.407 137.854Z" fill="black"/>
<path d="M183.857 85.6169C183.857 85.6169 185.766 86.5777 184.22 91.0379C182.674 95.4981 186.16 97.725 187.064 95.9689C187.064 95.9689 187.007 98.8003 183.571 98.8003C180.135 98.8003 179.524 95.9562 179.524 95.9562C179.524 95.9562 178.29 97.3115 178.29 101.116C178.29 104.921 181.948 119.218 169.223 119.218C156.498 119.218 156.746 108.402 156.746 108.402C156.746 108.402 153.488 108.465 153.488 103.591C153.488 103.591 158.438 106.665 158.438 99.7738C158.438 92.8831 157.325 84.1917 162.568 84.1917C162.568 84.1917 160.767 80.4632 164.356 78.0709C167.944 75.6785 178.716 78.9362 178.716 78.9362C178.716 78.9362 181.955 76.9892 184.271 79.2861C187.089 82.0984 183.857 85.6169 183.857 85.6169Z" fill="#263238"/>
<path d="M177.688 105.589C177.688 105.589 180.385 105.5 185.692 108.382C188.988 110.161 192.402 111.713 195.91 113.027L200.491 106.544C200.91 107.699 201.708 108.678 202.755 109.32C203.802 109.963 205.036 110.231 206.256 110.081C206.256 110.081 201.605 120.363 198.264 121.744C194.924 123.125 181.721 115.782 181.721 115.782L177.688 105.589Z" fill="#663AA3"/>
<path opacity="0.3" d="M177.688 105.589C177.688 105.589 180.385 105.5 185.692 108.382C188.988 110.161 192.402 111.713 195.91 113.027L200.491 106.544C200.91 107.699 201.708 108.678 202.755 109.32C203.802 109.963 205.036 110.231 206.256 110.081C206.256 110.081 201.605 120.363 198.264 121.744C194.924 123.125 181.721 115.782 181.721 115.782L177.688 105.589Z" fill="white"/>
<path d="M166.374 105.971L160.279 107.988V120.363L161.481 126.471C161.723 127.688 161.622 128.948 161.189 130.111C160.616 131.669 159.681 134.253 158.434 137.854C162.441 140.97 167.387 142.634 172.463 142.575C177.375 142.575 182.936 140.144 182.936 140.144C182.024 134.693 181.64 129.165 181.791 123.64C181.791 123.64 184.775 122.068 184.839 117.812C184.902 113.555 180.97 107.733 177.687 105.589L174.226 105.538L166.374 105.971Z" fill="#663AA3"/>
<path d="M166.375 105.971L176.383 112.454C176.469 112.508 176.57 112.534 176.671 112.526C176.772 112.518 176.868 112.478 176.944 112.412C177.02 112.345 177.073 112.256 177.095 112.157C177.117 112.058 177.106 111.955 177.064 111.863L174.226 105.538V95.1289H166.375V105.971Z" fill="#FFA8A7"/>
<path d="M174.227 104.635C172.623 104.04 171.156 103.125 169.915 101.946C168.675 100.767 167.687 99.348 167.012 97.7758V95.1289H174.227V104.635Z" fill="#F28F8F"/>
<path d="M176.052 82.2833C176.052 82.2833 183.235 82.7096 182.344 95.0085C181.937 100.69 180.607 103.63 176.236 103.414C171.28 103.165 164.249 99.7614 164.713 90.052C165.178 80.3427 176.052 82.2833 176.052 82.2833Z" fill="#FFA8A7"/>
<path d="M166.374 95.1295C166.374 95.1295 168.34 95.6513 168.34 92.8326C168.34 92.8326 177.089 92.2409 179.023 83.5559C179.023 83.5559 178.158 80.96 172.699 80.96C167.24 80.96 162.646 85.7892 164.071 92.4127L166.374 95.1295Z" fill="#263238"/>
<path d="M177.082 92.4951V96.7199L179.557 95.9564L177.082 92.4951Z" fill="#F28F8F"/>
<path d="M173.367 92.9464C173.368 93.116 173.42 93.2814 173.515 93.4218C173.61 93.5623 173.745 93.6714 173.902 93.7354C174.059 93.7994 174.231 93.8155 174.398 93.7817C174.564 93.7478 174.716 93.6655 174.836 93.5451C174.955 93.4248 175.036 93.2717 175.069 93.1053C175.102 92.9388 175.084 92.7664 175.019 92.6099C174.954 92.4533 174.844 92.3195 174.703 92.2254C174.562 92.1313 174.396 92.0811 174.226 92.0811C174.113 92.0811 174.001 92.1035 173.896 92.147C173.791 92.1906 173.696 92.2544 173.617 92.3349C173.537 92.4153 173.474 92.5108 173.431 92.6157C173.388 92.7207 173.366 92.833 173.367 92.9464Z" fill="#263238"/>
<path d="M179.882 93.2013C180.357 93.2013 180.741 92.8167 180.741 92.3423C180.741 91.868 180.357 91.4834 179.882 91.4834C179.408 91.4834 179.023 91.868 179.023 92.3423C179.023 92.8167 179.408 93.2013 179.882 93.2013Z" fill="#263238"/>
<path d="M180.926 90.5544L179.246 89.5555C179.246 89.5555 179.882 88.8874 180.519 89.2882C180.707 89.433 180.847 89.6317 180.919 89.8579C180.992 90.084 180.994 90.327 180.926 90.5544Z" fill="#263238"/>
<path d="M176.86 98.114C175.88 98.1859 174.905 97.9259 174.092 97.376C174.092 97.376 173.907 98.833 175.129 99.113C175.489 99.173 175.858 99.1062 176.174 98.924C176.489 98.7417 176.732 98.4554 176.86 98.114Z" fill="#F28F8F"/>
<path d="M167.067 95.4524C167.096 94.7365 166.963 94.0232 166.679 93.3655C166.542 92.9568 166.288 92.5972 165.949 92.3314C165.61 92.0656 165.2 91.9053 164.77 91.8703C162.562 91.813 162.263 93.9318 162.295 94.6889C162.371 96.6741 163.981 98.8183 166.972 98.901L167.067 95.4524Z" fill="#FFA8A7"/>
<path d="M160.279 107.989C160.279 107.989 164.141 108.053 163.46 113.493C162.78 118.933 154.419 129.629 151.677 131.372C148.266 133.529 142.241 128.827 137.984 125.149C137.984 125.149 141.802 122.674 141.261 119.219L148.597 123.444C148.597 123.444 156.977 109.084 160.279 107.989Z" fill="#663AA3"/>
<path opacity="0.3" d="M160.279 107.989C160.279 107.989 164.141 108.053 163.46 113.493C162.78 118.933 154.419 129.629 151.677 131.372C148.266 133.529 142.241 128.827 137.984 125.149C137.984 125.149 141.802 122.674 141.261 119.219L148.597 123.444C148.597 123.444 156.977 109.084 160.279 107.989Z" fill="white"/>
<path d="M148.621 123.443L151.173 125.148L149.41 122.113L148.621 123.443Z" fill="#663AA3"/>
<path opacity="0.2" d="M148.621 123.443L151.173 125.148L149.41 122.113L148.621 123.443Z" fill="white"/>
<path d="M135.503 115.852C135.503 115.852 135.503 114.42 133.403 112.899C132.799 112.46 132.054 110.469 131.59 110.437C131.125 110.405 129.98 111.315 131.348 113.771C130.156 113.391 129.051 112.779 128.097 111.97C126.64 110.698 124.864 108.878 124.094 111.334C123.325 113.79 123.242 117.875 126.722 119.23C128.737 120.018 130.832 120.581 132.97 120.91L135.503 115.852Z" fill="#FFA8A7"/>
<path d="M135.503 115.853L141.312 119.218C141.312 119.218 142.947 123.119 138.035 125.148L132.945 120.879L135.503 115.853Z" fill="#FFA8A7"/>
<path d="M195.91 113.027L195.446 116.501L194.129 112.34L195.91 113.027Z" fill="#663AA3"/>
<path opacity="0.2" d="M195.91 113.027L195.446 116.501L194.129 112.34L195.91 113.027Z" fill="white"/>
<path opacity="0.2" d="M165.676 120.396C165.676 120.396 166.719 125.212 173.648 124.054C173.68 124.054 166.312 127.274 165.676 120.396Z" fill="black"/>
<path d="M91.0938 190.116V218.544C91.0938 219.893 91.5519 220.835 92.2708 221.217L97.7936 224.455L97.7491 224.423C98.0922 224.631 98.489 224.733 98.8897 224.716C99.2904 224.699 99.6771 224.564 100.001 224.328L125.566 209.567C127.373 208.523 128.837 205.749 128.837 203.325V174.89C128.837 173.567 128.392 172.644 127.692 172.244H127.73L122.143 169.005C122.079 168.961 122.011 168.922 121.94 168.89C121.609 168.754 121.249 168.702 120.893 168.741C120.537 168.78 120.197 168.908 119.904 169.113L94.3323 183.874C92.5572 184.918 91.0938 187.711 91.0938 190.116Z" fill="#663AA3"/>
<path d="M92.0117 186.572C92.5265 185.471 93.3399 184.536 94.3595 183.874L119.931 169.113C120.224 168.908 120.565 168.78 120.92 168.741C121.276 168.702 121.636 168.754 121.967 168.89C122.038 168.922 122.106 168.961 122.171 169.005L127.732 172.263C127.391 172.089 127.009 172.012 126.628 172.04C126.246 172.068 125.88 172.2 125.568 172.422L100.003 187.183C98.9468 187.873 98.1101 188.851 97.5918 190.002L92.0117 186.572Z" fill="#663AA3"/>
<path d="M96.731 221.858C96.731 223.131 97.1446 224.034 97.7936 224.454L92.2708 221.216C91.5519 220.834 91.0938 219.892 91.0938 218.544V190.115C91.122 188.879 91.4356 187.666 92.01 186.571L97.59 190.001C97.0505 191.063 96.757 192.233 96.731 193.424V221.858Z" fill="#663AA3"/>
<path opacity="0.3" d="M92.0117 186.572C92.5265 185.471 93.3399 184.536 94.3595 183.874L119.931 169.113C120.224 168.908 120.565 168.78 120.92 168.741C121.276 168.702 121.636 168.754 121.967 168.89C122.038 168.922 122.106 168.961 122.171 169.005L127.732 172.263C127.391 172.089 127.009 172.012 126.628 172.04C126.246 172.068 125.88 172.2 125.568 172.422L100.003 187.183C98.9468 187.873 98.1101 188.851 97.5918 190.002L92.0117 186.572Z" fill="black"/>
<path opacity="0.6" d="M96.731 221.858C96.731 223.131 97.1446 224.034 97.7936 224.454L92.2708 221.216C91.5519 220.834 91.0938 219.892 91.0938 218.544V190.115C91.122 188.879 91.4356 187.666 92.01 186.571L97.59 190.001C97.0505 191.063 96.757 192.233 96.731 193.424V221.858Z" fill="black"/>
<path d="M133.468 189.435C133.233 189.438 133.002 189.377 132.8 189.257C132.549 189.089 132.348 188.857 132.218 188.585C132.088 188.313 132.034 188.011 132.062 187.711C132.097 186.969 132.308 186.247 132.679 185.604C133.05 184.961 133.569 184.416 134.193 184.014C134.432 183.82 134.723 183.704 135.029 183.679C135.335 183.655 135.642 183.725 135.907 183.879C136.173 184.033 136.386 184.264 136.517 184.541C136.648 184.819 136.692 185.13 136.643 185.433C136.608 186.173 136.396 186.895 136.025 187.537C135.655 188.179 135.135 188.723 134.511 189.123C134.197 189.317 133.837 189.424 133.468 189.435ZM135.23 184.345C134.975 184.356 134.727 184.435 134.511 184.574C133.986 184.922 133.549 185.386 133.235 185.932C132.92 186.477 132.736 187.088 132.698 187.717C132.651 187.906 132.668 188.105 132.744 188.284C132.821 188.463 132.953 188.612 133.122 188.709C133.291 188.806 133.487 188.846 133.68 188.822C133.873 188.798 134.053 188.711 134.193 188.576C134.717 188.228 135.153 187.764 135.467 187.22C135.782 186.676 135.966 186.066 136.007 185.439C136.029 185.25 136.002 185.057 135.929 184.881C135.855 184.705 135.737 184.551 135.587 184.434C135.478 184.372 135.355 184.339 135.23 184.338V184.345Z" fill="#663AA3"/>
<path d="M116.264 205.006C116.301 205.184 116.293 205.37 116.24 205.544C116.186 205.719 116.089 205.877 115.958 206.004C114.835 207.241 113.523 208.291 112.071 209.116C108.043 211.438 104.633 210.007 104.633 204.56C104.633 198.719 108.145 191.65 113.598 188.501C117.867 186.032 120.743 187.833 120.743 192.567C120.743 196.823 118.675 200.507 116.372 201.843C115.386 202.41 114.463 202.168 114.552 200.393L114.457 200.45C113.598 202.62 112.465 204.096 110.995 204.942C109.526 205.788 108.342 205.145 108.342 202.906C108.342 199.387 110.747 194.793 114.158 192.821H114.189C115.589 192.013 116.645 192.872 116.385 194.615L115.952 197.529C115.583 199.896 115.882 200.711 116.69 200.278C117.963 199.585 119.343 196.849 119.343 193.559C119.343 189.449 117.205 187.731 113.401 189.932C109.398 192.242 106.033 197.841 106.033 203.599C106.033 208.333 108.711 209.708 112.344 207.608C113.524 206.921 114.597 206.063 115.526 205.063C115.825 204.745 116.162 204.719 116.27 204.999L116.264 205.006ZM114.896 195.347C115.01 194.539 114.533 194.113 113.884 194.488C111.651 195.761 109.863 199.33 109.984 202.123C110.028 203.084 110.696 203.555 111.555 203.084C113 202.301 114.323 199.413 114.597 197.479L114.896 195.347Z" fill="#FAFAFA"/>
<path d="M136.326 185.751C136.27 185.751 136.216 185.736 136.168 185.708C136.12 185.68 136.08 185.64 136.052 185.592C136.01 185.519 135.997 185.433 136.017 185.351C136.037 185.269 136.089 185.198 136.16 185.153L141.505 182.036C142.338 181.547 143.029 180.851 143.51 180.014C143.99 179.177 144.245 178.229 144.247 177.264V153.544C144.247 153.459 144.281 153.378 144.34 153.319C144.4 153.259 144.481 153.226 144.565 153.226C144.65 153.226 144.731 153.259 144.79 153.319C144.85 153.378 144.884 153.459 144.884 153.544V177.257C144.882 178.334 144.598 179.391 144.061 180.324C143.524 181.257 142.753 182.034 141.823 182.576L136.485 185.7C136.436 185.729 136.382 185.747 136.326 185.751Z" fill="#663AA3"/>
<path d="M79.6914 137.556V165.984C79.6914 167.333 80.1495 168.274 80.8685 168.656L86.3913 171.895H86.3467C86.6898 172.102 87.0866 172.204 87.4873 172.187C87.888 172.17 88.2748 172.035 88.5991 171.799L114.164 157.038C115.971 155.995 117.435 153.22 117.435 150.796V122.33C117.435 121.006 116.989 120.084 116.289 119.689H116.327L110.767 116.432C110.702 116.387 110.634 116.349 110.563 116.317C110.232 116.18 109.872 116.129 109.516 116.168C109.161 116.207 108.82 116.335 108.527 116.54L82.9554 131.301C81.1548 132.357 79.6914 135.151 79.6914 137.556Z" fill="#663AA3"/>
<path d="M80.6094 134.012C81.1242 132.91 81.9376 131.976 82.9572 131.314L108.529 116.553C108.822 116.347 109.162 116.22 109.518 116.181C109.874 116.142 110.234 116.193 110.565 116.33C110.636 116.362 110.704 116.4 110.768 116.444L116.329 119.702C115.988 119.528 115.607 119.451 115.225 119.48C114.844 119.508 114.478 119.64 114.166 119.861L88.6008 134.622C87.5431 135.311 86.7059 136.289 86.1894 137.441L80.6094 134.012Z" fill="#663AA3"/>
<path d="M85.3287 169.298C85.3287 170.57 85.7423 171.474 86.3913 171.894L80.8685 168.655C80.1495 168.274 79.6914 167.332 79.6914 165.983V137.555C79.7197 136.319 80.0332 135.106 80.6076 134.011L86.1877 137.44C85.6482 138.502 85.3546 139.672 85.3287 140.863V169.298Z" fill="#663AA3"/>
<path opacity="0.3" d="M80.6094 134.012C81.1242 132.91 81.9376 131.976 82.9572 131.314L108.529 116.553C108.822 116.347 109.162 116.22 109.518 116.181C109.874 116.142 110.234 116.193 110.565 116.33C110.636 116.362 110.704 116.4 110.768 116.444L116.329 119.702C115.988 119.528 115.607 119.451 115.225 119.48C114.844 119.508 114.478 119.64 114.166 119.861L88.6008 134.622C87.5431 135.311 86.7059 136.289 86.1894 137.441L80.6094 134.012Z" fill="black"/>
<path opacity="0.6" d="M85.3287 169.298C85.3287 170.57 85.7423 171.474 86.3913 171.894L80.8685 168.655C80.1495 168.274 79.6914 167.332 79.6914 165.983V137.555C79.7197 136.319 80.0332 135.106 80.6076 134.011L86.1877 137.44C85.6482 138.502 85.3546 139.672 85.3287 140.863V169.298Z" fill="black"/>
<path d="M122.779 137.327C122.542 137.33 122.309 137.268 122.105 137.149C121.854 136.982 121.653 136.75 121.523 136.477C121.393 136.205 121.339 135.903 121.366 135.603C121.4 134.864 121.61 134.144 121.977 133.502C122.344 132.861 122.859 132.316 123.479 131.912C123.717 131.719 124.009 131.602 124.315 131.578C124.621 131.554 124.927 131.623 125.193 131.777C125.459 131.931 125.671 132.162 125.803 132.44C125.934 132.717 125.978 133.028 125.928 133.331C125.892 134.072 125.68 134.793 125.31 135.435C124.939 136.076 124.42 136.62 123.797 137.022C123.49 137.21 123.139 137.316 122.779 137.327ZM124.535 132.237C124.28 132.249 124.032 132.328 123.816 132.466C123.292 132.814 122.855 133.279 122.541 133.825C122.226 134.37 122.042 134.981 122.003 135.609C121.956 135.798 121.972 135.997 122.049 136.176C122.125 136.355 122.258 136.504 122.427 136.601C122.596 136.698 122.792 136.738 122.985 136.714C123.178 136.69 123.358 136.603 123.498 136.468C124.022 136.121 124.459 135.658 124.774 135.113C125.089 134.569 125.273 133.959 125.311 133.331C125.335 133.142 125.309 132.949 125.235 132.773C125.162 132.596 125.043 132.442 124.891 132.326C124.777 132.26 124.647 132.227 124.516 132.231L124.535 132.237Z" fill="#663AA3"/>
<path d="M125.611 133.642C125.556 133.641 125.503 133.627 125.455 133.6C125.407 133.574 125.367 133.536 125.337 133.49C125.295 133.417 125.282 133.33 125.302 133.248C125.323 133.166 125.374 133.095 125.446 133.051L133.176 128.355C133.249 128.312 133.336 128.3 133.418 128.32C133.5 128.34 133.57 128.392 133.615 128.463C133.637 128.499 133.652 128.539 133.658 128.58C133.665 128.622 133.663 128.664 133.653 128.705C133.643 128.746 133.625 128.784 133.6 128.818C133.575 128.852 133.543 128.881 133.507 128.902L125.776 133.591C125.727 133.623 125.67 133.641 125.611 133.642Z" fill="#663AA3"/>
<path d="M99.385 138.11C99.4383 138.067 99.5026 138.041 99.5703 138.035C99.6379 138.028 99.7061 138.041 99.7667 138.071C99.824 138.109 99.8698 138.161 99.899 138.223C99.9282 138.285 99.9397 138.353 99.9321 138.421V144.784C99.9221 145.225 99.818 145.659 99.6267 146.056C99.4368 146.485 99.1669 146.874 98.8314 147.202V154.881C98.8203 155.264 98.7084 155.637 98.5069 155.963C98.3279 156.3 98.0622 156.584 97.737 156.784L96.6427 157.42C96.5337 157.503 96.4038 157.553 96.2677 157.565C96.1317 157.577 95.9949 157.551 95.8728 157.49C95.7572 157.417 95.6647 157.312 95.6062 157.188C95.5476 157.064 95.5254 156.926 95.5419 156.79V149.091C95.4013 149.124 95.2546 149.119 95.1163 149.078C94.978 149.037 94.8528 148.96 94.753 148.856C94.5331 148.601 94.4233 148.269 94.4476 147.933V141.603C94.4547 141.411 94.5117 141.225 94.613 141.062C94.7024 140.895 94.8341 140.755 94.9947 140.655C95.0464 140.607 95.1117 140.578 95.1812 140.57C95.2508 140.562 95.321 140.577 95.3819 140.611C95.4427 140.646 95.4909 140.699 95.5197 140.763C95.5485 140.827 95.5562 140.898 95.5419 140.966V145.083C95.5336 145.151 95.5448 145.22 95.5741 145.282C95.6033 145.344 95.6495 145.396 95.7074 145.433C95.7659 145.468 95.833 145.487 95.9014 145.487C95.9698 145.487 96.0369 145.468 96.0955 145.433C96.2564 145.33 96.388 145.188 96.4772 145.019C96.5791 144.859 96.6363 144.675 96.6427 144.485V140.368C96.6518 140.178 96.7063 139.993 96.8015 139.828C96.8966 139.663 97.0298 139.523 97.1899 139.42C97.2415 139.373 97.3068 139.343 97.3764 139.336C97.4459 139.328 97.5161 139.342 97.577 139.377C97.6378 139.412 97.686 139.465 97.7148 139.528C97.7436 139.592 97.7514 139.663 97.737 139.732V143.849C97.7251 143.917 97.7343 143.987 97.7634 144.049C97.7924 144.112 97.84 144.164 97.8997 144.199C97.9593 144.233 98.0282 144.249 98.0969 144.243C98.1657 144.237 98.2311 144.211 98.2842 144.167C98.4487 144.067 98.5828 143.924 98.6723 143.753C98.7726 143.593 98.8275 143.408 98.8314 143.219V139.102C98.8385 138.91 98.8955 138.724 98.9968 138.561C99.0865 138.393 99.2207 138.252 99.385 138.154V138.11ZM99.385 136.85C98.9338 137.127 98.5562 137.509 98.2842 137.963C98.1027 137.9 97.9089 137.881 97.7187 137.908C97.5285 137.935 97.3472 138.006 97.1899 138.116C96.7421 138.395 96.367 138.777 96.0955 139.229C95.9124 139.17 95.7182 139.153 95.5276 139.179C95.3369 139.206 95.1547 139.275 94.9947 139.382C94.5082 139.701 94.1033 140.13 93.8126 140.634C93.522 141.137 93.3537 141.703 93.3214 142.283V148.646C93.283 149.213 93.468 149.773 93.8367 150.205C93.9967 150.372 94.1956 150.497 94.4157 150.568V157.509C94.3664 157.786 94.4039 158.071 94.5229 158.325C94.6419 158.58 94.8368 158.791 95.0807 158.93C95.3246 159.07 95.6056 159.13 95.8852 159.104C96.1649 159.077 96.4294 158.965 96.6427 158.782L97.737 158.145C98.3826 157.722 98.9199 157.154 99.3055 156.485C99.6912 155.817 99.9146 155.067 99.9576 154.296V147.291C100.185 146.962 100.381 146.613 100.543 146.247C100.868 145.578 101.044 144.847 101.058 144.103V137.772C101.098 137.564 101.071 137.348 100.983 137.156C100.894 136.963 100.748 136.802 100.564 136.696C100.381 136.59 100.168 136.543 99.9572 136.563C99.746 136.582 99.546 136.667 99.385 136.805V136.85Z" fill="#FAFAFA"/>
<path d="M107.753 133.275C107.806 133.228 107.872 133.199 107.942 133.192C108.012 133.185 108.082 133.2 108.143 133.236C108.204 133.271 108.253 133.324 108.282 133.388C108.311 133.452 108.32 133.524 108.306 133.593V149.417C108.281 149.798 108.169 150.168 107.978 150.499C107.787 150.83 107.523 151.113 107.206 151.325L106.111 151.962C106.006 152.054 105.875 152.11 105.735 152.124C105.596 152.137 105.457 152.107 105.336 152.036C105.215 151.966 105.119 151.86 105.062 151.732C105.005 151.605 104.989 151.462 105.017 151.325V146.235L103.108 147.342C103.08 147.36 103.046 147.37 103.013 147.37C102.979 147.37 102.946 147.36 102.917 147.342C102.889 147.323 102.866 147.296 102.851 147.265C102.837 147.233 102.831 147.199 102.834 147.164V139.287C102.886 138.336 103.161 137.411 103.638 136.586C104.114 135.761 104.779 135.061 105.577 134.541L107.765 133.268L107.753 133.275ZM107.765 131.996L105.577 133.268C104.45 134 103.513 134.988 102.84 136.151C102.168 137.315 101.78 138.62 101.708 139.962V147.877C101.673 148.052 101.693 148.234 101.767 148.396C101.84 148.559 101.963 148.695 102.118 148.784C102.272 148.873 102.451 148.912 102.629 148.894C102.807 148.876 102.974 148.803 103.108 148.685L103.903 148.227V151.993C103.852 152.27 103.887 152.556 104.005 152.811C104.123 153.066 104.318 153.279 104.562 153.418C104.806 153.558 105.087 153.619 105.367 153.591C105.647 153.564 105.912 153.45 106.124 153.266L107.218 152.63C107.862 152.205 108.399 151.636 108.784 150.968C109.17 150.3 109.394 149.551 109.439 148.78V132.944C109.46 132.737 109.426 132.528 109.341 132.338C109.256 132.149 109.123 131.984 108.955 131.862C108.765 131.777 108.555 131.744 108.347 131.765C108.14 131.786 107.941 131.861 107.772 131.983L107.765 131.996Z" fill="#FAFAFA"/>
<path d="M95.207 68.5829V97.0175C95.207 98.3601 95.6651 99.3017 96.3841 99.6835L101.907 102.928L101.862 102.89C102.205 103.098 102.602 103.2 103.003 103.183C103.404 103.166 103.79 103.031 104.115 102.795L129.686 88.008C131.487 86.9646 132.95 84.1905 132.95 81.7663V53.3571C132.95 52.0401 132.505 51.1111 131.811 50.7166H131.843L126.282 47.459C126.22 47.4147 126.154 47.3764 126.085 47.3444C125.753 47.2076 125.392 47.1563 125.035 47.1953C124.678 47.2342 124.337 47.362 124.042 47.5671L98.4774 62.3285C96.6895 63.3846 95.207 66.1778 95.207 68.5829Z" fill="#663AA3"/>
<path d="M96.125 65.0389C96.6418 63.9371 97.4575 63.0024 98.4792 62.3411L124.051 47.5798C124.345 47.3747 124.687 47.2469 125.043 47.2079C125.4 47.169 125.761 47.2203 126.093 47.3571C126.162 47.3891 126.228 47.4274 126.29 47.4717L131.851 50.7293C131.512 50.5556 131.131 50.4785 130.75 50.5066C130.37 50.5346 130.005 50.6667 129.694 50.8884L104.123 65.6561C103.065 66.3449 102.228 67.3233 101.711 68.4747L96.125 65.0389Z" fill="#663AA3"/>
<path d="M100.851 100.325C100.851 101.598 101.258 102.508 101.907 102.928L96.3841 99.6826C95.6651 99.3009 95.207 98.3592 95.207 97.0167V68.5821C95.2353 67.3459 95.5488 66.133 96.1233 65.0381L101.703 68.4739C101.168 69.535 100.877 70.7024 100.851 71.8906V100.325Z" fill="#663AA3"/>
<path opacity="0.3" d="M96.125 65.0389C96.6418 63.9371 97.4575 63.0024 98.4792 62.3411L124.051 47.5798C124.345 47.3747 124.687 47.2469 125.043 47.2079C125.4 47.169 125.761 47.2203 126.093 47.3571C126.162 47.3891 126.228 47.4274 126.29 47.4717L131.851 50.7293C131.512 50.5556 131.131 50.4785 130.75 50.5066C130.37 50.5346 130.005 50.6667 129.694 50.8884L104.123 65.6561C103.065 66.3449 102.228 67.3233 101.711 68.4747L96.125 65.0389Z" fill="black"/>
<path opacity="0.6" d="M100.851 100.325C100.851 101.598 101.258 102.508 101.907 102.928L96.3841 99.6826C95.6651 99.3009 95.207 98.3592 95.207 97.0167V68.5821C95.2353 67.3459 95.5488 66.133 96.1233 65.0381L101.703 68.4739C101.168 69.535 100.877 70.7024 100.851 71.8906V100.325Z" fill="black"/>
<path d="M138.342 67.9012C138.106 67.9039 137.873 67.8447 137.667 67.7294C137.416 67.5611 137.214 67.328 137.085 67.0548C136.955 66.7815 136.901 66.4782 136.929 66.177C136.964 65.4363 137.175 64.7146 137.546 64.0725C137.917 63.4304 138.436 62.8866 139.061 62.4866C139.299 62.2937 139.589 62.1774 139.895 62.1532C140.2 62.129 140.506 62.1979 140.771 62.3509C141.036 62.5039 141.249 62.7338 141.381 63.0102C141.513 63.2866 141.558 63.5966 141.51 63.8991C141.476 64.6398 141.264 65.3615 140.893 66.0036C140.523 66.6457 140.003 67.1895 139.379 67.5895C139.067 67.7831 138.709 67.8907 138.342 67.9012ZM140.098 62.8111C139.842 62.8236 139.594 62.9026 139.379 63.0402C138.854 63.3886 138.418 63.8537 138.103 64.399C137.789 64.9443 137.605 65.555 137.565 66.1833C137.519 66.3724 137.535 66.5714 137.612 66.7504C137.688 66.9295 137.821 67.0787 137.99 67.1757C138.159 67.2727 138.354 67.3121 138.547 67.2881C138.741 67.264 138.921 67.1777 139.061 67.0423C139.585 66.6956 140.022 66.2318 140.337 65.6874C140.651 65.1431 140.835 64.5331 140.874 63.9055C140.898 63.7158 140.872 63.5233 140.798 63.3469C140.724 63.1705 140.606 63.0165 140.454 62.9002C140.346 62.8379 140.223 62.805 140.098 62.8048V62.8111Z" fill="#663AA3"/>
<path d="M152.006 83.0825C151.922 83.0825 151.841 83.049 151.781 82.9894C151.722 82.9297 151.688 82.8488 151.688 82.7644V61.2842C151.691 60.9713 151.61 60.6634 151.453 60.3926C151.296 60.1218 151.07 59.898 150.798 59.7444C150.528 59.588 150.222 59.5056 149.91 59.5056C149.598 59.5056 149.292 59.588 149.022 59.7444L141.349 64.1982C141.313 64.2244 141.272 64.2428 141.228 64.2521C141.185 64.2614 141.14 64.2614 141.096 64.2523C141.053 64.2431 141.012 64.2249 140.976 64.1988C140.939 64.1727 140.909 64.1393 140.887 64.1009C140.864 64.0624 140.85 64.0196 140.846 63.9754C140.841 63.9311 140.845 63.8864 140.859 63.844C140.872 63.8016 140.895 63.7625 140.924 63.7293C140.954 63.696 140.99 63.6694 141.031 63.6511L148.711 59.1972C149.077 58.9862 149.493 58.8754 149.917 58.876C150.34 58.8766 150.756 58.9886 151.122 59.2007C151.488 59.4129 151.792 59.7177 152.003 60.0845C152.214 60.4513 152.325 60.8673 152.325 61.2905V82.7644C152.325 82.8488 152.291 82.9297 152.231 82.9894C152.172 83.049 152.091 83.0825 152.006 83.0825Z" fill="#663AA3"/>
<path d="M121.025 66.0753C122.196 65.4009 123.36 65.2418 124.251 65.7572C126.033 66.7816 126.033 70.1156 124.251 73.2015L121.585 77.8271L117.768 84.387C117.517 84.8262 117.16 85.1959 116.731 85.4623C116.578 85.5719 116.4 85.6396 116.214 85.6586C116.027 85.6776 115.839 85.6472 115.668 85.5705L109.21 81.861C107.428 80.8367 107.435 77.5026 109.21 74.4168C109.976 73.0265 111.087 71.8566 112.436 71.0191C113.6 70.3447 114.771 70.1856 115.655 70.6946L116.202 71.0064C116.287 71.0473 116.38 71.0642 116.474 71.0552C116.567 71.0462 116.656 71.0117 116.731 70.9555C116.952 70.8179 117.134 70.6249 117.259 70.3956L117.806 69.4603C118.57 68.0688 119.679 66.8968 121.025 66.0563V66.0753ZM121.025 64.7837C119.345 65.8273 117.962 67.2869 117.01 69.0212L116.731 69.5048L116.451 69.3457C115.382 68.7095 113.956 68.8685 112.436 69.7402C110.754 70.7876 109.37 72.2488 108.415 73.9841C106.2 77.8017 106.2 81.9883 108.415 83.2672L114.879 86.9766C115.177 87.1113 115.504 87.1652 115.83 87.1328C116.155 87.1004 116.465 86.9829 116.731 86.7921C117.503 86.308 118.14 85.636 118.582 84.8388L122.4 78.2725L125.066 73.666C127.28 69.8484 127.28 65.6618 125.066 64.3829C123.99 63.7466 122.565 63.9057 121.044 64.7837H121.025Z" fill="#FAFAFA"/>
<path d="M117.688 80.3731C117.49 80.4749 117.306 80.4494 117.217 80.2967L114.703 76.2564L111.662 83.5544C111.564 83.7886 111.398 83.9881 111.185 84.127L107.876 86.0358C107.571 86.214 107.316 86.0676 107.316 85.7113C107.329 85.517 107.386 85.3282 107.483 85.1595C107.58 84.9907 107.715 84.8465 107.876 84.7378L110.873 83.0072L114.271 74.863C114.37 74.6201 114.544 74.4151 114.767 74.2777C114.971 74.1695 115.149 74.195 115.244 74.3477L117.789 78.4007L119.412 74.5831C119.506 74.3497 119.67 74.1517 119.883 74.0168C119.947 73.9582 120.031 73.9258 120.118 73.9258C120.205 73.9258 120.289 73.9582 120.353 74.0168L122.262 76.4155L125.615 74.5067C125.927 74.3286 126.175 74.4685 126.175 74.8312C126.163 75.0255 126.106 75.2143 126.008 75.3831C125.911 75.5518 125.777 75.6961 125.615 75.8047L121.95 77.9171C121.886 77.9775 121.8 78.011 121.712 78.011C121.623 78.011 121.538 77.9775 121.473 77.9171L119.876 75.9001L118.209 79.8132C118.099 80.0504 117.916 80.2464 117.688 80.3731Z" fill="#FAFAFA"/>
<path d="M214.398 136.689V165.118C214.398 166.467 214.857 167.402 215.576 167.784L221.098 171.029L221.054 170.99C221.395 171.199 221.791 171.302 222.191 171.285C222.591 171.268 222.977 171.132 223.3 170.895L248.871 156.134C250.678 155.097 252.142 152.316 252.142 149.892V121.464C252.142 120.14 251.696 119.211 250.996 118.817H251.028L245.467 115.553L245.27 115.438C244.939 115.301 244.579 115.25 244.223 115.289C243.868 115.328 243.527 115.456 243.234 115.661L217.662 130.448C215.855 131.485 214.398 134.278 214.398 136.689Z" fill="#663AA3"/>
<path d="M215.309 133.14C215.828 132.041 216.643 131.109 217.663 130.448L243.234 115.68C243.528 115.475 243.868 115.347 244.224 115.309C244.58 115.27 244.939 115.321 245.27 115.458L245.467 115.572L251.028 118.836C250.689 118.663 250.308 118.586 249.928 118.614C249.547 118.642 249.182 118.774 248.871 118.995L223.306 133.757C222.25 134.447 221.414 135.425 220.895 136.575L215.309 133.14Z" fill="#663AA3"/>
<path d="M220.036 168.427C220.036 169.699 220.443 170.609 221.098 171.029L215.576 167.784C214.857 167.402 214.398 166.467 214.398 165.118V136.69C214.424 135.452 214.735 134.237 215.308 133.14L220.888 136.575C220.352 137.639 220.061 138.808 220.036 139.999V168.427Z" fill="#663AA3"/>
<path opacity="0.3" d="M215.309 133.14C215.828 132.041 216.643 131.109 217.663 130.448L243.234 115.68C243.528 115.475 243.868 115.347 244.224 115.309C244.58 115.27 244.939 115.321 245.27 115.458L245.467 115.572L251.028 118.836C250.689 118.663 250.308 118.586 249.928 118.614C249.547 118.642 249.182 118.774 248.871 118.995L223.306 133.757C222.25 134.447 221.414 135.425 220.895 136.575L215.309 133.14Z" fill="black"/>
<path opacity="0.6" d="M220.036 168.427C220.036 169.699 220.443 170.609 221.098 171.029L215.576 167.784C214.857 167.402 214.398 166.467 214.398 165.118V136.69C214.424 135.452 214.735 134.237 215.308 133.14L220.888 136.575C220.352 137.639 220.061 138.808 220.036 139.999V168.427Z" fill="black"/>
<path d="M208.492 156.961C208.257 156.962 208.027 156.9 207.824 156.783C207.572 156.615 207.371 156.382 207.241 156.108C207.111 155.835 207.057 155.532 207.085 155.231C207.12 154.49 207.331 153.768 207.702 153.126C208.073 152.484 208.593 151.94 209.217 151.54C209.455 151.347 209.746 151.231 210.051 151.207C210.356 151.183 210.662 151.252 210.927 151.405C211.193 151.558 211.405 151.788 211.537 152.064C211.669 152.34 211.714 152.65 211.667 152.953C211.632 153.694 211.421 154.415 211.05 155.057C210.679 155.699 210.159 156.243 209.535 156.643C209.221 156.838 208.861 156.948 208.492 156.961ZM210.254 151.871C209.999 151.883 209.752 151.96 209.535 152.094C209.011 152.443 208.575 152.908 208.26 153.453C207.946 153.998 207.761 154.609 207.722 155.237C207.697 155.426 207.723 155.618 207.797 155.793C207.87 155.969 207.989 156.122 208.142 156.236C208.317 156.31 208.508 156.336 208.697 156.313C208.886 156.289 209.065 156.217 209.217 156.102C209.741 155.753 210.177 155.288 210.491 154.743C210.806 154.198 210.99 153.587 211.03 152.959C211.054 152.771 211.027 152.579 210.954 152.404C210.88 152.228 210.761 152.076 210.61 151.96C210.504 151.894 210.38 151.861 210.254 151.865V151.871Z" fill="#663AA3"/>
<path d="M244.787 141.926C244.623 142.046 244.43 142.121 244.228 142.144C244.026 142.166 243.821 142.135 243.635 142.053L235.809 139.266L227.983 151.094C227.347 152.188 226.297 152.774 225.661 152.411C225.025 152.049 225.025 150.821 225.661 149.701L225.699 149.631L234.651 135.945C234.923 135.45 235.321 135.036 235.803 134.742C235.968 134.627 236.16 134.555 236.36 134.534C236.56 134.513 236.763 134.543 236.948 134.621L245.894 137.974H245.939C246.575 138.35 246.575 139.565 245.939 140.685C245.667 141.19 245.27 141.617 244.787 141.926ZM235.809 137.783C235.861 137.749 235.919 137.725 235.981 137.714C236.042 137.703 236.105 137.705 236.165 137.72L244.367 140.647H244.411C244.472 140.674 244.538 140.685 244.604 140.678C244.67 140.671 244.733 140.647 244.787 140.609C244.946 140.511 245.075 140.372 245.162 140.208C245.366 139.858 245.372 139.476 245.162 139.349L236.216 135.989H236.178C236.116 135.962 236.048 135.951 235.981 135.959C235.914 135.967 235.85 135.993 235.796 136.034C235.633 136.132 235.498 136.27 235.402 136.435L235.364 136.505L226.418 150.184C226.227 150.541 226.233 150.91 226.418 151.031C226.602 151.151 226.965 150.954 227.175 150.591L227.22 150.521L235.415 138.133C235.516 137.986 235.651 137.866 235.809 137.783Z" fill="#FAFAFA"/>
<path d="M243.666 142.053L242.82 141.754V147.442C242.786 148.056 242.608 148.653 242.3 149.186C241.993 149.718 241.565 150.172 241.051 150.509L230.629 156.522C229.656 157.088 228.861 156.63 228.861 155.504V149.815L228.014 151.088C227.932 151.231 227.838 151.367 227.734 151.495V156.146C227.734 157.991 229.007 158.742 230.629 157.82L241.051 151.801C241.894 151.251 242.595 150.511 243.098 149.64C243.601 148.769 243.892 147.791 243.946 146.787V142.136C243.848 142.127 243.753 142.099 243.666 142.053Z" fill="#FAFAFA"/>
<path d="M236.666 147.047C237.111 146.793 237.467 147.003 237.467 147.512V152.558L234.146 154.466V149.421C234.162 149.143 234.243 148.873 234.382 148.632C234.522 148.391 234.715 148.186 234.948 148.034L236.666 147.041V147.047ZM236.666 145.769L234.948 146.761C234.391 147.129 233.928 147.622 233.597 148.201C233.265 148.78 233.074 149.429 233.039 150.095V155.141C233.039 155.86 233.548 156.152 234.165 155.777L237.487 153.868C237.815 153.656 238.088 153.368 238.284 153.03C238.479 152.692 238.592 152.312 238.613 151.921V146.863C238.613 145.635 237.747 145.139 236.704 145.75L236.666 145.769Z" fill="#FAFAFA"/>
<path d="M200.789 159.035C200.323 159.036 199.866 158.913 199.465 158.678C199.058 158.448 198.719 158.113 198.485 157.708C198.25 157.303 198.127 156.843 198.129 156.375V137.853C198.129 137.769 198.162 137.688 198.222 137.628C198.282 137.569 198.363 137.535 198.447 137.535C198.531 137.535 198.612 137.569 198.672 137.628C198.732 137.688 198.765 137.769 198.765 137.853V156.375C198.766 156.73 198.861 157.079 199.039 157.386C199.218 157.694 199.474 157.948 199.782 158.125C200.091 158.302 200.44 158.394 200.795 158.393C201.151 158.392 201.499 158.297 201.807 158.118L207.247 154.937C207.318 154.905 207.4 154.9 207.475 154.924C207.55 154.948 207.613 154.999 207.653 155.067C207.692 155.135 207.705 155.215 207.689 155.292C207.673 155.37 207.628 155.438 207.565 155.484L202.125 158.665C201.719 158.904 201.259 159.031 200.789 159.035Z" fill="#663AA3"/>
<path d="M223.977 71.3076V99.7358C223.977 101.085 224.435 102.02 225.154 102.408L230.676 105.647C230.664 105.633 230.649 105.622 230.632 105.615C230.976 105.821 231.372 105.922 231.772 105.905C232.173 105.888 232.559 105.754 232.884 105.519L258.456 90.7518C260.256 89.7147 261.72 86.9342 261.72 84.51V56.0818C261.72 54.7583 261.274 53.8294 260.581 53.4349H260.613L255.052 50.1773L254.854 50.0564C254.523 49.9196 254.162 49.8683 253.805 49.9072C253.448 49.9461 253.107 50.0739 252.812 50.2791L227.241 65.0467C225.44 66.1029 223.977 68.9216 223.977 71.3076Z" fill="#663AA3"/>
<path d="M224.895 67.7577C225.411 66.6593 226.224 65.7272 227.242 65.0663L252.814 50.2986C253.108 50.0935 253.45 49.9656 253.807 49.9267C254.163 49.8878 254.524 49.9391 254.856 50.0759L255.053 50.1968L260.614 53.4545C260.275 53.2807 259.894 53.2036 259.514 53.2317C259.133 53.2597 258.768 53.3918 258.457 53.6135L232.886 68.3748C231.83 69.0653 230.993 70.0432 230.475 71.1935L224.895 67.7577Z" fill="#663AA3"/>
<path d="M229.62 103.044C229.62 104.317 230.027 105.226 230.676 105.646L225.154 102.408C224.435 102.02 223.977 101.084 223.977 99.7354V71.3072C224.005 70.069 224.318 68.854 224.893 67.7568L230.473 71.1927C229.938 72.2561 229.646 73.4255 229.62 74.6158V103.044Z" fill="#663AA3"/>
<path opacity="0.3" d="M224.895 67.7577C225.411 66.6593 226.224 65.7272 227.242 65.0663L252.814 50.2986C253.108 50.0935 253.45 49.9656 253.807 49.9267C254.163 49.8878 254.524 49.9391 254.856 50.0759L255.053 50.1968L260.614 53.4545C260.275 53.2807 259.894 53.2036 259.514 53.2317C259.133 53.2597 258.768 53.3918 258.457 53.6135L232.886 68.3748C231.83 69.0653 230.993 70.0432 230.475 71.1935L224.895 67.7577Z" fill="black"/>
<path opacity="0.6" d="M229.62 103.044C229.62 104.317 230.027 105.226 230.676 105.646L225.154 102.408C224.435 102.02 223.977 101.084 223.977 99.7354V71.3072C224.005 70.069 224.318 68.854 224.893 67.7568L230.473 71.1927C229.938 72.2561 229.646 73.4255 229.62 74.6158V103.044Z" fill="black"/>
<path d="M217.509 83.9632C217.273 83.9653 217.04 83.9061 216.834 83.7914C216.584 83.6217 216.384 83.3883 216.254 83.1154C216.125 82.8425 216.07 82.54 216.096 82.2389C216.132 81.4985 216.344 80.7772 216.714 80.1353C217.085 79.4934 217.604 78.9494 218.228 78.5486C218.465 78.352 218.756 78.2327 219.063 78.2066C219.37 78.1805 219.677 78.249 219.944 78.4028C220.211 78.5566 220.424 78.7884 220.555 79.0669C220.686 79.3455 220.729 79.6576 220.677 79.9611C220.643 80.7018 220.431 81.4235 220.06 82.0656C219.69 82.7077 219.17 83.2515 218.546 83.6514C218.234 83.8457 217.876 83.9533 217.509 83.9632ZM219.271 78.8731C219.015 78.8851 218.765 78.9617 218.546 79.0958C218.023 79.4457 217.587 79.9111 217.273 80.4561C216.958 81.0011 216.774 81.6111 216.732 82.2389C216.684 82.4285 216.699 82.6287 216.774 82.8092C216.85 82.9896 216.983 83.1403 217.152 83.2383C217.321 83.3363 217.518 83.3763 217.712 83.3521C217.907 83.3279 218.088 83.2409 218.228 83.1043C218.752 82.7555 219.188 82.2903 219.503 81.7451C219.817 81.1999 220.001 80.5893 220.041 79.9611C220.065 79.773 220.04 79.5819 219.967 79.4066C219.895 79.2314 219.777 79.0782 219.627 78.9622C219.519 78.9007 219.396 78.8699 219.271 78.8731Z" fill="#663AA3"/>
<path d="M249.341 80.6994L241.521 85.2105C240.529 85.7831 239.663 85.5541 239.358 84.6442L237.449 78.8097L238.518 77.7917L240.459 83.6262C240.611 84.0843 241.044 84.1988 241.547 83.9125L249.366 79.395C249.928 79.0304 250.324 78.4588 250.467 77.8044L252.121 70.1183L253.203 69.8447L251.549 77.5371C251.25 78.8375 250.459 79.9713 249.341 80.6994Z" fill="#FAFAFA"/>
<path d="M242.107 86.4772C241.795 86.6617 241.547 86.5154 241.547 86.1527V82.9205C241.56 82.7262 241.617 82.5374 241.714 82.3686C241.811 82.1999 241.945 82.0556 242.107 81.947C242.419 81.7689 242.673 81.9152 242.673 82.2715V85.5101C242.662 85.7045 242.604 85.8935 242.506 86.0616C242.408 86.2297 242.271 86.3721 242.107 86.4772Z" fill="#FAFAFA"/>
<path d="M248.486 82.7916C248.174 82.9698 247.926 82.8298 247.926 82.4671V79.2286C247.938 79.0343 247.995 78.8455 248.093 78.6767C248.19 78.508 248.324 78.3637 248.486 78.2551C248.797 78.0769 249.052 78.2551 249.052 78.5796V81.8182C249.042 82.0137 248.985 82.204 248.886 82.3732C248.788 82.5425 248.651 82.6859 248.486 82.7916Z" fill="#FAFAFA"/>
<path d="M251.491 70.6528C252.503 70.0738 253.324 70.5447 253.324 71.7154V81.4375C253.29 82.0746 253.107 82.6947 252.789 83.2475C252.47 83.8003 252.026 84.2702 251.491 84.6188L239.218 91.6813C238.213 92.2667 237.392 91.7895 237.392 90.6251V80.8967C237.424 80.2599 237.606 79.6397 237.923 79.0868C238.24 78.5339 238.684 78.0639 239.218 77.7154L251.466 70.6401L251.491 70.6528ZM251.466 69.3676L239.218 76.4237C238.359 76.9861 237.644 77.7427 237.131 78.6325C236.618 79.5223 236.322 80.5202 236.266 81.5457V91.2741C236.266 93.1829 237.589 93.921 239.218 92.9793L251.466 85.9104C252.322 85.3515 253.035 84.6001 253.549 83.7163C254.063 82.8325 254.363 81.8407 254.425 80.8203V71.0664C254.425 69.1576 253.095 68.4132 251.466 69.3548V69.3676Z" fill="#FAFAFA"/>
<path d="M242.453 74.5712V74.0113C242.48 73.5166 242.622 73.0351 242.87 72.6061C243.118 72.1771 243.463 71.8127 243.879 71.5426L246.856 69.8247C247.645 69.3666 248.281 69.7356 248.281 70.6455V71.2245L249.408 70.5882V70.0092C249.408 68.3867 248.262 67.725 246.863 68.5331L243.885 70.2574C243.144 70.7418 242.527 71.394 242.085 72.1611C241.643 72.9283 241.387 73.7888 241.34 74.673V75.252L242.453 74.5712Z" fill="#FAFAFA"/>
<path d="M195.525 95.0082C195.469 95.0079 195.415 94.993 195.367 94.9651C195.319 94.9372 195.279 94.8972 195.251 94.8491C195.209 94.7772 195.196 94.6916 195.217 94.6107C195.237 94.5298 195.288 94.46 195.359 94.4165L216.254 81.9457C216.289 81.9239 216.329 81.9094 216.37 81.9031C216.411 81.8967 216.453 81.8987 216.493 81.9087C216.533 81.9188 216.571 81.9368 216.605 81.9618C216.638 81.9867 216.666 82.018 216.687 82.0539C216.709 82.0898 216.723 82.1296 216.73 82.1712C216.736 82.2127 216.734 82.2551 216.724 82.296C216.714 82.3368 216.696 82.3752 216.671 82.409C216.646 82.4428 216.615 82.4713 216.579 82.4929L195.69 95.0082C195.636 95.0205 195.579 95.0205 195.525 95.0082Z" fill="#663AA3"/>
<path d="M188.258 31.3813V59.8159C188.258 61.1584 188.716 62.1001 189.435 62.4818L194.958 65.7204H194.913C195.256 65.9281 195.653 66.0299 196.054 66.0129C196.454 65.9959 196.841 65.8609 197.165 65.625L222.737 50.8509C224.538 49.8075 226.001 47.0333 226.001 44.6092V16.1746C226.001 14.8511 225.556 13.9286 224.856 13.5341H224.894L219.333 10.2764C219.27 10.2335 219.204 10.1952 219.136 10.1619C218.805 10.025 218.445 9.97372 218.089 10.0126C217.733 10.0516 217.393 10.1795 217.1 10.3846L191.496 25.1586C189.721 26.2021 188.258 28.9953 188.258 31.3813Z" fill="#663AA3"/>
<path d="M189.172 27.8564C189.68 26.7584 190.484 25.8241 191.494 25.1586L217.091 10.3846C217.384 10.1795 217.725 10.0516 218.081 10.0126C218.436 9.97372 218.796 10.025 219.127 10.1619C219.196 10.1952 219.261 10.2335 219.324 10.2764L224.892 13.5659C224.552 13.3921 224.171 13.3151 223.791 13.3431C223.411 13.3712 223.045 13.5033 222.735 13.7249L197.163 28.4863C196.107 29.1764 195.27 30.1545 194.752 31.3049L189.172 27.8564Z" fill="#663AA3"/>
<path d="M193.895 63.1432C193.895 64.4157 194.309 65.3192 194.958 65.7391L189.435 62.5005C188.716 62.1188 188.258 61.1771 188.258 59.8346V31.3809C188.286 30.1448 188.6 28.9319 189.174 27.8369L194.754 31.2664C194.218 32.3297 193.924 33.4989 193.895 34.6895V63.1432Z" fill="#663AA3"/>
<path opacity="0.3" d="M189.172 27.8564C189.68 26.7584 190.484 25.8241 191.494 25.1586L217.091 10.3846C217.384 10.1795 217.725 10.0516 218.081 10.0126C218.436 9.97372 218.796 10.025 219.127 10.1619C219.196 10.1952 219.261 10.2335 219.324 10.2764L224.892 13.5659C224.552 13.3921 224.171 13.3151 223.791 13.3431C223.411 13.3712 223.045 13.5033 222.735 13.7249L197.163 28.4863C196.107 29.1764 195.27 30.1545 194.752 31.3049L189.172 27.8564Z" fill="black"/>
<path opacity="0.6" d="M193.895 63.1432C193.895 64.4157 194.309 65.3192 194.958 65.7391L189.435 62.5005C188.716 62.1188 188.258 61.1771 188.258 59.8346V31.3809C188.286 30.1448 188.6 28.9319 189.174 27.8369L194.754 31.2664C194.218 32.3297 193.924 33.4989 193.895 34.6895V63.1432Z" fill="black"/>
<path d="M180.843 45.3793C180.608 45.3827 180.377 45.321 180.175 45.2011C179.924 45.0328 179.722 44.7997 179.592 44.5264C179.462 44.2532 179.409 43.9499 179.437 43.6486C179.472 42.9081 179.684 42.1866 180.055 41.5446C180.425 40.9026 180.944 40.3587 181.568 39.9583C181.806 39.7654 182.097 39.6491 182.403 39.6249C182.708 39.6006 183.013 39.6696 183.279 39.8226C183.544 39.9756 183.757 40.2055 183.889 40.4819C184.021 40.7583 184.066 41.0683 184.018 41.3708C183.983 42.1113 183.771 42.8325 183.4 43.4745C183.029 44.1164 182.51 44.6604 181.887 45.0611C181.573 45.2564 181.213 45.3661 180.843 45.3793ZM182.587 40.2892C182.331 40.3008 182.083 40.3798 181.868 40.5182C181.343 40.8649 180.906 41.3287 180.591 41.8731C180.277 42.4174 180.093 43.0274 180.054 43.655C180.03 43.8446 180.056 44.0372 180.13 44.2136C180.204 44.39 180.322 44.544 180.474 44.6603C180.65 44.7311 180.842 44.7555 181.03 44.731C181.218 44.7065 181.397 44.6339 181.549 44.5203C182.074 44.1719 182.51 43.7068 182.825 43.1615C183.139 42.6162 183.324 42.0055 183.363 41.3772C183.386 41.1885 183.36 40.997 183.286 40.8217C183.212 40.6464 183.094 40.4935 182.943 40.3782C182.834 40.3182 182.711 40.2875 182.587 40.2892Z" fill="#663AA3"/>
<path d="M211.645 34.932C211.862 34.7719 212.12 34.6767 212.389 34.6575C212.659 34.6384 212.928 34.6961 213.165 34.8239L215.558 36.4718C215.643 36.5424 215.709 36.6342 215.748 36.738C215.787 36.8418 215.798 36.954 215.781 37.0635C215.76 37.3706 215.664 37.6678 215.501 37.9288C215.358 38.1737 215.157 38.3793 214.915 38.5269H214.871C214.781 38.5863 214.676 38.6179 214.568 38.6179C214.461 38.6179 214.356 38.5863 214.266 38.5269L212.936 37.6552L212.987 46.283C212.959 46.6886 212.838 47.0822 212.632 47.4331C212.427 47.7841 212.144 48.0829 211.804 48.3063C211.168 48.6817 210.64 48.3826 210.64 47.6382V43.9352L209.545 44.5714V48.2872C209.523 48.6912 209.406 49.0843 209.204 49.4347C209.002 49.7851 208.72 50.083 208.381 50.3041C207.745 50.6795 207.21 50.3741 207.21 49.6297V40.9702L205.88 43.3752C205.742 43.6512 205.533 43.886 205.276 44.056H205.231C205.147 44.1151 205.05 44.1529 204.948 44.1662C204.846 44.1795 204.742 44.1679 204.646 44.1324C204.553 44.0799 204.476 44.0015 204.427 43.9067C204.377 43.8118 204.356 43.7045 204.366 43.5979C204.361 43.2967 204.438 42.9999 204.589 42.739L206.987 38.3806C207.34 37.7084 207.865 37.142 208.508 36.739L211.645 34.9257V34.932ZM211.645 33.6531L208.508 35.4665C207.514 36.0919 206.704 36.9702 206.16 38.0115L203.768 42.389C203.421 42.9857 203.241 43.6648 203.246 44.3551C203.227 44.5987 203.277 44.8428 203.389 45.0598C203.502 45.2768 203.672 45.4581 203.882 45.5831C204.108 45.6634 204.349 45.6869 204.586 45.6514C204.822 45.6159 205.046 45.5225 205.238 45.3795L205.339 45.3222C205.618 45.1458 205.871 44.9317 206.09 44.6859V50.2851C206.09 51.7485 207.121 52.3402 208.387 51.6085C209.123 51.142 209.715 50.4815 210.099 49.6997C210.362 49.8536 210.664 49.9266 210.969 49.9096C211.273 49.8926 211.566 49.7864 211.81 49.6043C212.475 49.1716 213.029 48.5896 213.429 47.9047C213.829 47.2198 214.063 46.4509 214.114 45.6594C214.117 45.6448 214.117 45.6295 214.114 45.6149L214.075 40.0539C214.334 40.0318 214.586 39.9559 214.813 39.8312L214.915 39.774C215.47 39.4344 215.931 38.962 216.258 38.3997C216.632 37.806 216.851 37.1277 216.894 36.4272C216.933 36.1745 216.905 35.916 216.814 35.6772C216.722 35.4384 216.57 35.2276 216.372 35.0656L213.98 33.4432C213.613 33.2472 213.197 33.1588 212.782 33.1881C212.367 33.2174 211.968 33.3631 211.632 33.6086L211.645 33.6531Z" fill="#FAFAFA"/>
<path d="M210.074 28.5874C210.244 28.4353 210.457 28.3406 210.684 28.3168C210.91 28.293 211.138 28.3413 211.336 28.4548C211.533 28.5684 211.69 28.7413 211.783 28.9491C211.877 29.1568 211.902 29.3888 211.856 29.6118C211.842 30.2293 211.662 30.8315 211.334 31.3552C211.035 31.9015 210.596 32.3583 210.062 32.6786C209.892 32.8255 209.68 32.9158 209.456 32.9368C209.232 32.9578 209.007 32.9086 208.813 32.7959C208.618 32.6832 208.464 32.5127 208.37 32.3081C208.277 32.1035 208.25 31.8749 208.293 31.6542C208.307 31.0368 208.487 30.4345 208.815 29.9108C209.113 29.3641 209.553 28.9072 210.087 28.5874H210.074ZM210.087 27.3149C209.247 27.8669 208.548 28.6079 208.045 29.4784C207.542 30.349 207.25 31.3251 207.192 32.3286C207.118 32.691 207.159 33.0675 207.311 33.4048C207.463 33.7422 207.716 34.0234 208.037 34.2084C208.357 34.3935 208.727 34.4732 209.095 34.4361C209.463 34.3991 209.81 34.2472 210.087 34.002C210.929 33.4518 211.631 32.7114 212.135 31.8406C212.639 30.9698 212.931 29.9928 212.989 28.9883C213.06 28.6259 213.017 28.2501 212.864 27.9137C212.711 27.5773 212.457 27.2971 212.137 27.1126C211.817 26.928 211.447 26.8482 211.08 26.8845C210.712 26.9208 210.365 27.0713 210.087 27.3149Z" fill="#FAFAFA"/>
<path d="M169.779 71.0516C169.695 71.05 169.615 71.0159 169.556 70.9566C169.497 70.8973 169.463 70.8174 169.461 70.7335V52.3773C169.46 51.4706 169.694 50.579 170.14 49.7896C170.586 49.0001 171.229 48.3397 172.006 47.8725L179.565 43.4187C179.638 43.3766 179.726 43.3651 179.808 43.3865C179.89 43.4079 179.96 43.4606 180.004 43.5332C180.025 43.569 180.039 43.6087 180.045 43.65C180.051 43.6914 180.049 43.7334 180.038 43.7738C180.027 43.8141 180.009 43.8519 179.983 43.8849C179.958 43.9179 179.926 43.9455 179.889 43.9659L172.33 48.4197C171.643 48.8269 171.074 49.4058 170.678 50.0997C170.282 50.7935 170.073 51.5784 170.072 52.3773V70.7462C170.069 70.8241 170.037 70.8983 169.984 70.9546C169.93 71.0109 169.857 71.0454 169.779 71.0516Z" fill="#663AA3"/>
<path d="M119.293 23.8419L114.457 26.5969V24.8854C114.457 24.7645 114.457 24.6373 114.457 24.5227C114.457 24.4082 114.457 24.2873 114.457 24.1728V24.1346C114.279 21.8695 112.549 20.9978 110.468 22.2258C109.517 22.8066 108.705 23.5884 108.088 24.5164C107.611 21.4305 105.098 20.3234 102.063 22.0731C98.6844 24.0264 95.9485 28.7602 95.9485 32.6605V36.3254C95.9475 36.6163 95.8707 36.9019 95.7257 37.1541C95.5806 37.4063 95.3723 37.6163 95.1214 37.7634L92.2773 39.4304C91.6616 39.7933 91.1511 40.3104 90.7963 40.9308C90.4415 41.5511 90.2545 42.2533 90.254 42.968C90.2517 43.2666 90.3289 43.5604 90.4774 43.8194C90.626 44.0785 90.8407 44.2934 91.0995 44.4422C91.3584 44.5911 91.6521 44.6685 91.9507 44.6666C92.2493 44.6647 92.5421 44.5835 92.799 44.4314L119.236 29.1611C119.933 28.7501 120.511 28.1627 120.909 27.458C121.308 26.7532 121.514 25.956 121.507 25.1463C121.506 24.8872 121.438 24.6328 121.309 24.4081C121.179 24.1834 120.994 23.9961 120.771 23.8646C120.548 23.7331 120.294 23.6619 120.035 23.6579C119.776 23.6539 119.52 23.7173 119.293 23.8419Z" fill="#E6E6E6"/>
<path d="M75.3924 29.5301L71.8166 31.5661V30.2936C71.8166 30.2045 71.8166 30.1154 71.8166 30.0264C71.8166 29.9373 71.8166 29.8546 71.8166 29.7719C71.683 28.0921 70.4168 27.4495 68.8644 28.3466C68.1628 28.7785 67.5619 29.3556 67.1019 30.0391C66.752 27.7358 64.8813 26.9278 62.6481 28.2003C61.3314 29.0583 60.2356 30.2146 59.4495 31.5755C58.6635 32.9364 58.2095 34.4634 58.1242 36.0327V38.7432C58.1218 38.9608 58.0617 39.1738 57.9499 39.3605C57.8381 39.5472 57.6787 39.7009 57.488 39.8057L55.3819 41.0401C54.9262 41.3091 54.5485 41.6925 54.2863 42.1522C54.024 42.612 53.8863 43.1322 53.8867 43.6615C53.8915 43.8813 53.9531 44.0961 54.0655 44.285C54.178 44.4739 54.3374 44.6304 54.5284 44.7393C54.7193 44.8483 54.9353 44.9059 55.1551 44.9065C55.3749 44.9072 55.5912 44.8509 55.7828 44.7431L75.3415 33.4431C75.8612 33.1438 76.2925 32.7126 76.5919 32.1931C76.8914 31.6735 77.0483 31.0841 77.0467 30.4845C77.0453 30.2914 76.9935 30.1021 76.8963 29.9353C76.7992 29.7685 76.6601 29.63 76.4929 29.5335C76.3257 29.4371 76.1361 29.386 75.9431 29.3854C75.7501 29.3848 75.5602 29.4347 75.3924 29.5301Z" fill="#E6E6E6"/>
</g>
</svg>
