<svg width="340" height="389" viewBox="0 0 340 389" fill="none" xmlns="http://www.w3.org/2000/svg">
<rect width="340" height="389" fill="white"/>
<rect x="0.5" y="0.5" width="339" height="388" stroke="white" stroke-opacity="0.3"/>
<mask id="mask0_2234_44192" style="mask-type:alpha" maskUnits="userSpaceOnUse" x="0" y="0" width="340" height="389">
<rect width="340" height="389" fill="white"/>
<rect x="0.5" y="0.5" width="339" height="388" stroke="white" stroke-opacity="0.3"/>
</mask>
<g mask="url(#mask0_2234_44192)">
<path d="M216.289 48.29H259.133C259.133 48.29 255.347 41.3959 244.315 42.4255C233.785 43.3833 233.238 39.0305 227.894 38.5157C222.551 38.001 218.075 42.041 216.289 48.29Z" fill="#E0E0E0"/>
<path d="M104.306 161.555C104.306 161.555 100.012 163.874 106.261 172.841C112.51 181.807 116.576 186.108 116.576 186.108C116.576 186.108 117.762 188.226 115.924 188.832C114.087 189.438 109.845 189.353 109.323 191.77C108.783 194.286 110.835 196.332 114.628 197.798C118.42 199.264 126.617 202.867 127.354 203.193C128.09 203.519 128.898 204.464 127.712 205.076C126.526 205.689 117.332 207.95 118.661 212.244C119.99 216.538 131.25 218.969 132.475 219.256C133.7 219.542 134.046 219.998 134.039 220.65C134.033 221.302 130.872 221.771 128.279 222.52C125.686 223.27 122.818 224.599 123.796 227.016C124.773 229.434 131.85 233.819 147.476 233.2L154.696 232.444L157.771 225.83C163.486 211.28 161.681 203.154 159.726 201.434C157.771 199.714 155.569 201.994 154.011 204.197C152.454 206.399 150.968 209.227 150.349 209.019C149.73 208.81 149.418 208.334 149.548 207.064C149.678 205.793 151.092 194.383 147.469 191.712C143.846 189.04 138.685 196.977 137.695 197.896C136.704 198.814 136.098 197.733 136.033 196.938C135.968 196.143 135.284 187.222 135.121 183.143C134.958 179.064 133.727 176.47 131.179 176.158C128.631 175.845 127.412 179.885 126.233 181.423C125.053 182.96 123.444 181.142 123.444 181.142C123.444 181.142 120.714 175.89 114.321 167.041C107.929 158.192 104.221 161.62 104.221 161.62" fill="#EBEBEB"/>
<path d="M155.298 234.093C150.613 227.576 142.487 215.847 135.456 205.819C128.425 195.79 122.059 186.72 117.406 180.178C115.08 176.92 113.203 174.274 111.894 172.443L110.395 170.332L110.011 169.784C109.926 169.661 109.887 169.589 109.887 169.589C109.887 169.589 109.939 169.648 110.03 169.771L110.434 170.306L111.965 172.391C113.269 174.196 115.223 176.828 117.537 180.086C122.222 186.603 128.614 195.66 135.639 205.689C142.663 215.717 150.776 227.459 155.428 233.995" fill="#E0E0E0"/>
<path d="M115.25 192.136C115.426 192.143 115.6 192.167 115.771 192.207C116.104 192.266 116.579 192.364 117.172 192.494C118.352 192.748 119.968 193.146 121.734 193.615L126.295 194.833L127.676 195.198C127.849 195.228 128.018 195.278 128.178 195.348C128.002 195.346 127.828 195.324 127.657 195.283C127.325 195.224 126.849 195.127 126.256 194.99C125.083 194.723 123.467 194.338 121.695 193.836L117.133 192.651L115.752 192.292C115.578 192.263 115.409 192.21 115.25 192.136Z" fill="#E0E0E0"/>
<path d="M128.61 194.853C128.545 194.853 129.216 191.464 130.102 187.32C130.988 183.176 131.764 179.82 131.822 179.833C131.881 179.846 131.216 183.215 130.324 187.366C129.431 191.517 128.668 194.853 128.61 194.853Z" fill="#E0E0E0"/>
<path d="M138.707 210.706C138.763 210.537 138.84 210.375 138.935 210.224L139.626 208.921C140.206 207.839 141.007 206.314 141.822 204.646C142.636 202.978 143.34 201.388 143.829 200.287L144.415 198.951C144.472 198.779 144.553 198.617 144.656 198.469C144.62 198.645 144.568 198.817 144.5 198.984C144.383 199.309 144.207 199.772 143.979 200.345C143.523 201.492 142.851 203.056 142.024 204.75C141.196 206.445 140.375 207.93 139.763 208.999C139.45 209.527 139.189 209.957 139.007 210.244C138.922 210.407 138.821 210.562 138.707 210.706Z" fill="#E0E0E0"/>
<path d="M126.094 210.94C126.253 210.896 126.418 210.877 126.582 210.882L127.931 210.804C129.065 210.745 130.636 210.686 132.369 210.628C134.102 210.569 135.673 210.536 136.813 210.523H138.162C138.327 210.509 138.492 210.509 138.657 210.523C138.496 210.568 138.329 210.59 138.162 210.589L136.819 210.667C135.679 210.719 134.109 210.784 132.375 210.836C130.642 210.888 129.072 210.927 127.931 210.94H126.589C126.424 210.96 126.258 210.96 126.094 210.94Z" fill="#E0E0E0"/>
<path d="M133.23 226.13C133.444 226.082 133.663 226.058 133.882 226.058L135.609 225.954C137.062 225.876 139.075 225.778 141.298 225.687C143.52 225.596 145.533 225.531 146.986 225.492L148.713 225.452C148.93 225.435 149.148 225.435 149.365 225.452C149.15 225.494 148.932 225.518 148.713 225.524L146.986 225.628C145.533 225.707 143.52 225.804 141.298 225.896C139.075 225.987 137.062 226.052 135.609 226.091L133.882 226.13C133.665 226.148 133.447 226.148 133.23 226.13Z" fill="#E0E0E0"/>
<path d="M148.934 225.348C149.007 225.134 149.099 224.927 149.207 224.729L150.028 223.067C150.719 221.666 151.657 219.731 152.635 217.561C153.612 215.391 154.459 213.41 155.059 211.963L155.769 210.256C155.847 210.045 155.941 209.84 156.049 209.644C156.004 209.867 155.936 210.085 155.847 210.295C155.704 210.712 155.489 211.305 155.196 212.028C154.635 213.488 153.814 215.489 152.83 217.658C151.846 219.828 150.875 221.764 150.152 223.145C149.787 223.836 149.501 224.396 149.266 224.774C149.17 224.973 149.059 225.165 148.934 225.348Z" fill="#E0E0E0"/>
<path d="M209.526 129.182C201.771 120.483 202.514 107.927 205.453 97.1814C205.942 95.3829 206.196 93.4281 207.408 92.0466C208.62 90.6652 210.913 90.0527 212.354 91.1995C213.546 92.1509 213.761 93.8516 214.204 95.3243C214.793 97.2826 215.922 99.0352 217.462 100.381C218.472 101.254 219.808 101.951 221.098 101.599C222.864 101.104 223.555 98.9929 223.972 97.1879C224.741 93.8299 225.514 90.4719 226.292 87.1139C226.614 85.2917 227.223 83.5322 228.097 81.9009C229.061 80.324 230.703 79.0338 232.502 78.9621C234.3 78.8904 236.209 80.3761 236.151 82.2202C236.043 82.9816 235.884 83.7348 235.675 84.4748C235.577 84.8444 235.59 85.2347 235.711 85.5972C235.833 85.9597 236.058 86.2786 236.359 86.5144C237.011 86.8989 237.864 86.56 238.529 86.156C240.816 84.7811 242.634 82.7415 244.361 80.6889C246.088 78.6363 247.795 76.5316 249.952 74.9482C252.109 73.3647 254.807 72.3417 257.42 72.8108C260.033 73.28 262.398 75.5216 262.45 78.1997C262.502 80.8779 260.417 83.1195 258.319 84.7876C255.218 87.2643 251.777 89.2812 248.101 90.776C247.407 90.9697 246.793 91.3807 246.349 91.9489C245.697 93.0567 246.524 94.5163 247.613 95.207C248.851 95.9694 250.336 96.1779 251.705 96.6731C253.073 97.1684 254.442 98.1523 254.657 99.5989C254.956 101.612 252.962 103.176 251.151 104.082C247.523 105.885 243.613 107.053 239.591 107.536C238.151 107.705 236.659 107.803 235.369 108.474C234.079 109.145 233.056 110.618 233.414 112.038C233.772 113.459 235.317 114.26 236.763 114.326C238.21 114.391 239.63 113.941 241.07 113.759C243.762 113.407 246.935 114.332 247.991 116.847C248.304 117.702 248.415 118.618 248.313 119.523C248.211 120.428 247.9 121.296 247.404 122.06C246.412 123.567 245.127 124.859 243.625 125.859C238.591 129.636 232.646 132.011 226.396 132.74C220.193 133.392 214.745 132.649 209.539 129.215" fill="#F5F5F5"/>
<path d="M211.105 130.224C212.513 126.028 211.04 128.132 213.94 123.056C217.137 117.577 220.647 112.286 224.451 107.209C225.45 105.853 226.438 104.518 227.416 103.201C228.393 101.898 229.37 100.595 230.387 99.3633C232.364 97.0345 234.468 94.8157 236.688 92.7168C238.793 90.6968 240.865 88.8592 242.82 87.1519C244.775 85.4447 246.625 83.8938 248.372 82.558C251.121 80.4271 254.034 78.5163 257.084 76.8433C258.159 76.2503 259.039 75.8203 259.592 75.5401L260.244 75.2208L260.472 75.123C260.405 75.1736 260.333 75.2172 260.257 75.2534L259.606 75.6052C259.032 75.9115 258.192 76.3611 257.129 76.9671C254.116 78.6831 251.236 80.624 248.515 82.7731C246.782 84.1219 244.944 85.6793 243.002 87.3865C241.06 89.0938 239.001 90.9444 236.903 92.9644C234.699 95.0626 232.609 97.2769 230.641 99.5979C229.625 100.81 228.686 102.107 227.689 103.423L224.724 107.43C220.933 112.49 217.426 117.757 214.22 123.206C211.314 128.269 212.774 126.132 211.34 130.302" fill="#E0E0E0"/>
<path d="M230.512 99.3762C230.486 99.1075 230.486 98.8369 230.512 98.5682C230.512 98.0469 230.597 97.2649 230.682 96.3722C230.851 94.5151 231.177 91.9673 231.542 89.1588C231.907 86.3503 232.193 83.8025 232.33 81.9519C232.402 81.0266 232.454 80.2837 232.487 79.7624C232.484 79.4929 232.513 79.224 232.571 78.9609C232.614 79.228 232.629 79.4988 232.617 79.7689C232.617 80.2837 232.617 81.0722 232.571 81.9649C232.493 83.8285 232.246 86.3894 231.874 89.2044C231.503 92.0194 231.177 94.4825 230.923 96.3722C230.812 97.2389 230.721 97.9687 230.649 98.5551C230.634 98.833 230.588 99.1084 230.512 99.3762Z" fill="#E0E0E0"/>
<path d="M254.618 100.53C254.3 100.528 253.983 100.493 253.673 100.426C253.067 100.334 252.187 100.204 251.099 100.074C248.929 99.8001 245.886 99.533 242.576 99.3766C239.266 99.2202 236.21 99.2202 234.014 99.2788C232.919 99.2788 232.059 99.344 231.407 99.3701C231.088 99.3968 230.768 99.3968 230.449 99.3701C230.761 99.2928 231.08 99.2448 231.401 99.2267C232.013 99.1615 232.899 99.0833 234.007 99.0312C236.203 98.9074 239.22 98.8748 242.595 99.0312C245.455 99.155 248.306 99.4225 251.138 99.8327C252.22 99.9956 253.093 100.165 253.699 100.289C254.012 100.34 254.32 100.42 254.618 100.53Z" fill="#E0E0E0"/>
<path d="M214.322 122.691C214.274 122.591 214.243 122.483 214.23 122.372C214.178 122.118 214.113 121.812 214.028 121.44C213.866 120.632 213.651 119.485 213.409 118C212.921 115.087 212.373 111.04 211.826 106.564C211.279 102.087 210.77 98.0406 210.347 95.1214C210.138 93.7008 209.962 92.5149 209.832 91.6678C209.78 91.2899 209.734 90.9771 209.695 90.7229C209.685 90.6124 209.685 90.5012 209.695 90.3906C209.742 90.4921 209.775 90.5995 209.793 90.7099L209.988 91.6417C210.158 92.4497 210.366 93.5966 210.607 95.0823C211.096 97.995 211.644 102.042 212.191 106.518C212.738 110.995 213.246 115.041 213.67 117.961C213.885 119.381 214.055 120.567 214.185 121.421C214.243 121.792 214.283 122.105 214.322 122.359C214.336 122.469 214.336 122.581 214.322 122.691Z" fill="#E0E0E0"/>
<path d="M247.406 120.066C247.298 120.1 247.186 120.118 247.073 120.118L246.109 120.209L242.564 120.496C239.573 120.737 235.442 121.148 230.881 121.552C226.319 121.956 222.175 122.327 219.151 122.509C217.653 122.601 216.441 122.659 215.6 122.685H214.636C214.523 122.702 214.409 122.702 214.297 122.685C214.405 122.654 214.517 122.637 214.629 122.633L215.594 122.542L219.138 122.255C222.129 122.014 226.261 121.604 230.822 121.2C235.383 120.796 239.521 120.424 242.551 120.248C244.056 120.157 245.268 120.092 246.109 120.066H247.073C247.184 120.052 247.295 120.052 247.406 120.066Z" fill="#E0E0E0"/>
<path d="M273.07 186.382C273.047 186.488 273.012 186.59 272.965 186.688L272.607 187.555C272.275 188.337 271.805 189.438 271.219 190.813L266.195 202.431L266.162 202.496H266.091L250.309 205.103L245.017 205.97L244.776 206.009L244.835 205.774C246.138 200.698 247.305 196 248.315 192.057L248.386 192.207L239.114 188.063L236.553 186.897L235.901 186.584C235.823 186.551 235.749 186.509 235.68 186.46L235.914 186.545L236.598 186.825L239.205 187.926L248.523 191.966L248.627 192.012V192.116C247.637 196.091 246.471 200.77 245.206 205.852L245.024 205.657L250.315 204.784L266.104 202.216L265.993 202.301L271.121 190.735C271.74 189.353 272.236 188.258 272.587 187.477L272.978 186.623C273.004 186.541 273.034 186.46 273.07 186.382Z" fill="#E0E0E0"/>
<path d="M246.867 204.137L246.431 205.271L247.122 206.274L245.91 206.216L245.173 207.18L244.854 206.007L243.707 205.603L244.724 204.939L244.756 203.727L245.701 204.489L246.867 204.137Z" fill="#E0E0E0"/>
<path d="M236.027 185.729L235.812 186.296L236.151 186.791L235.552 186.759L235.187 187.241L235.024 186.661L234.457 186.459L234.959 186.127L234.978 185.521L235.447 185.898L236.027 185.729Z" fill="#E0E0E0"/>
<path d="M266.637 201.733L266.422 202.3L266.761 202.795L266.161 202.769L265.796 203.252L265.633 202.665L265.066 202.47L265.568 202.137L265.581 201.531L266.057 201.909L266.637 201.733Z" fill="#E0E0E0"/>
<path d="M248.969 191.575L248.754 192.135L249.099 192.637L248.493 192.604L248.128 193.086L247.972 192.5L247.398 192.305L247.907 191.972L247.92 191.366L248.389 191.744L248.969 191.575Z" fill="#E0E0E0"/>
<path d="M273.801 185.814L273.586 186.381L273.931 186.876L273.325 186.85L272.96 187.333L272.804 186.746L272.23 186.544L272.739 186.218L272.752 185.612L273.221 185.99L273.801 185.814Z" fill="#E0E0E0"/>
<path d="M76.2969 233.239H110.416C110.416 233.239 107.399 227.746 98.6148 228.547C90.2285 229.31 89.805 225.843 85.5368 225.42C81.2687 224.996 77.7239 228.261 76.2969 233.239Z" fill="#E0E0E0"/>
<path d="M83.0742 98.9279H117.187C117.187 98.9279 114.17 93.4413 105.386 94.2362C97.0058 95.0052 96.5758 91.5385 92.3142 91.115C88.0526 90.6914 84.4947 93.956 83.0742 98.9279Z" fill="#F5F5F5"/>
<path d="M256.328 122.653H284.348C284.348 122.653 281.872 118.144 274.658 118.795C267.764 119.447 267.412 116.58 263.913 116.228C260.414 115.876 257.495 118.567 256.328 122.653Z" fill="#F5F5F5"/>
<path d="M200.363 177.968C201.758 167.471 194.375 158.804 185.148 153.598C175.921 148.391 165.215 146.632 155.024 143.752C145.412 141.021 135.853 137.034 128.737 130.022C121.622 123.011 117.347 112.474 119.901 102.817C120.553 100.393 121.693 97.9559 123.778 96.555C125.864 95.154 129.037 95.1931 130.594 97.161C133.905 101.357 127.454 108.89 131.494 112.37C132.419 113.178 133.696 113.471 134.654 114.233C137.202 116.273 136.381 120.228 136.739 123.473C137.449 129.892 143.47 134.349 149.381 136.949C157.298 140.429 165.873 142.064 174.266 144.117C182.659 146.169 191.136 148.782 198.128 153.891C205.12 159 211.2 166.923 211.161 175.583C211.161 178.001 210.841 180.972 209.323 182.849C207.805 184.726 205.876 185.123 203.687 184.094C201.497 183.064 199.972 181.487 200.376 177.981" fill="#663AA3"/>
<g opacity="0.8">
<path opacity="0.8" d="M200.359 177.968C201.754 167.471 194.371 158.804 185.144 153.598C175.917 148.391 165.211 146.632 155.02 143.752C145.408 141.021 135.849 137.034 128.733 130.022C121.618 123.011 117.343 112.474 119.897 102.817C120.549 100.393 121.689 97.9559 123.775 96.555C125.86 95.154 129.033 95.1931 130.59 97.161C133.901 101.357 127.45 108.89 131.49 112.37C132.415 113.178 133.692 113.471 134.65 114.233C137.198 116.273 136.377 120.228 136.735 123.473C137.446 129.892 143.467 134.349 149.377 136.949C157.294 140.429 165.869 142.064 174.262 144.117C182.655 146.169 191.132 148.782 198.124 153.891C205.116 159 211.196 166.923 211.157 175.583C211.157 178.001 210.837 180.972 209.319 182.849C207.801 184.726 205.872 185.123 203.683 184.094C201.493 183.064 199.968 181.487 200.372 177.981" fill="white"/>
</g>
<path d="M155.725 94.5031C155.393 90.5934 158.293 87.2245 161.59 85.413C164.887 83.6015 168.666 82.8586 172.061 81.2491C180.5 77.2482 185.863 67.8323 186.26 58.1818C186.658 48.5313 182.468 38.8743 175.925 31.7847C173.26 28.9045 169.989 25.881 169.95 21.9517C169.911 17.8465 173.86 14.6145 177.861 14.6666C181.862 14.7188 185.498 17.3839 187.876 20.7267C190.255 24.0695 191.564 28.0379 192.848 31.9476C191.936 30.3055 193.806 28.279 195.617 28.4549C197.429 28.6308 198.875 30.1361 199.964 31.6348C204.785 38.1802 207.097 46.2381 206.48 54.3438C205.827 62.2983 202.225 69.7215 196.38 75.1565C189.948 81.0211 181.445 83.7644 173.195 86.3709L155.986 91.7989" fill="#663AA3"/>
<g opacity="0.8">
<path opacity="0.8" d="M155.729 94.5021C155.397 90.5924 158.297 87.2235 161.594 85.412C164.891 83.6005 168.67 82.8577 172.065 81.2482C180.504 77.2472 185.867 67.8313 186.264 58.1808C186.662 48.5303 182.472 38.8733 175.929 31.7837C173.264 28.9035 169.993 25.88 169.954 21.9508C169.915 17.8456 173.864 14.6135 177.865 14.6657C181.866 14.7178 185.502 17.3829 187.88 20.7257C190.258 24.0685 191.568 28.0369 192.852 31.9466C191.94 30.3045 193.81 28.278 195.621 28.4539C197.433 28.6299 198.879 30.1351 199.968 31.6338C204.788 38.1792 207.101 46.2371 206.484 54.3428C205.831 62.2973 202.228 69.7205 196.384 75.1555C189.952 81.0201 181.449 83.7634 173.199 86.3699L155.99 91.7979" fill="white"/>
</g>
<path d="M150.937 12.7368C150.065 13.0968 149.365 13.7799 148.984 14.6436C148.602 15.5072 148.57 16.4847 148.892 17.372C149.214 18.2594 149.866 18.988 150.713 19.4059C151.559 19.8237 152.535 19.8986 153.435 19.6148C154.335 19.331 155.091 18.7104 155.545 17.8827C155.999 17.0549 156.116 16.0839 155.871 15.1721C155.626 14.2604 155.038 13.4785 154.231 12.9895C153.423 12.5006 152.458 12.3423 151.537 12.5478" fill="#663AA3"/>
<g opacity="0.8">
<path opacity="0.8" d="M150.941 12.7377C150.069 13.0978 149.369 13.7809 148.988 14.6445C148.606 15.5082 148.573 16.4857 148.896 17.373C149.218 18.2603 149.87 18.989 150.717 19.4068C151.563 19.8247 152.538 19.8995 153.439 19.6157C154.339 19.3319 155.095 18.7114 155.549 17.8836C156.003 17.0559 156.12 16.0848 155.875 15.1731C155.63 14.2614 155.042 13.4795 154.235 12.9905C153.427 12.5015 152.462 12.3433 151.541 12.5488" fill="white"/>
</g>
<path d="M172.162 263.818C170.051 259.446 171.895 253.992 175.258 250.486C178.62 246.981 183.207 244.98 187.638 243.025C197.452 238.698 207.839 233.551 212.824 224.063C214.505 220.864 215.463 217.345 216.407 213.852C218.238 207.101 219.959 199.432 216.277 193.483C215.215 191.769 213.625 190.224 211.644 189.899C209.383 189.495 207.083 190.739 205.675 192.557C204.37 194.457 203.586 196.665 203.401 198.963C202.854 203.283 203.31 207.681 202.854 211.995C202.398 216.309 200.827 220.916 197.282 223.379C192.936 226.409 186.739 225.731 182.523 228.931C179.115 231.537 177.819 235.994 175.16 239.357C172.918 242.165 169.784 244.081 166.917 246.244C164.05 248.408 161.274 251.04 160.296 254.5C159.784 256.309 159.803 258.227 160.353 260.025C160.903 261.823 161.959 263.424 163.396 264.636C164.833 265.849 166.589 266.621 168.453 266.861C170.318 267.101 172.212 266.798 173.909 265.988" fill="#663AA3"/>
<g opacity="0.8">
<path opacity="0.8" d="M172.159 263.82C170.047 259.448 171.891 253.994 175.254 250.488C178.616 246.982 183.204 244.982 187.635 243.027C197.448 238.7 207.835 233.553 212.82 224.065C214.501 220.866 215.459 217.347 216.404 213.854C218.235 207.103 219.955 199.434 216.273 193.484C215.211 191.771 213.621 190.226 211.64 189.901C209.379 189.497 207.079 190.741 205.671 192.559C204.366 194.459 203.582 196.667 203.397 198.965C202.85 203.285 203.306 207.683 202.85 211.997C202.394 216.311 200.823 220.918 197.278 223.381C192.932 226.411 186.735 225.733 182.519 228.933C179.111 231.539 177.815 235.996 175.156 239.359C172.914 242.167 169.78 244.083 166.913 246.246C164.046 248.41 161.27 251.042 160.293 254.502C159.78 256.311 159.799 258.229 160.349 260.027C160.899 261.825 161.955 263.426 163.392 264.638C164.829 265.851 166.585 266.623 168.449 266.863C170.314 267.103 172.208 266.8 173.905 265.99" fill="white"/>
</g>
<path d="M106.921 42.9333C105.186 41.6451 103.783 39.9617 102.829 38.0227C101.875 36.0837 101.397 33.9452 101.436 31.7846C101.474 29.624 102.027 27.5037 103.049 25.5997C104.071 23.6956 105.532 22.0629 107.312 20.8369C109.319 19.462 111.691 18.6149 113.476 16.9272C115.06 15.4545 116.083 13.4149 117.862 12.1769C118.972 11.3896 120.304 10.9776 121.665 11.0009C123.026 11.0243 124.344 11.4819 125.426 12.3068C126.509 13.1318 127.299 14.281 127.683 15.5869C128.066 16.8928 128.022 18.287 127.558 19.5662C126.743 21.8534 124.691 23.5281 123.83 25.7957C122.905 28.2458 123.505 31.0087 123.179 33.576C122.965 35.1745 122.395 36.7044 121.51 38.0524C120.625 39.4005 119.448 40.532 118.066 41.3631C116.684 42.1943 115.133 42.7037 113.527 42.8537C111.922 43.0037 110.303 42.7904 108.791 42.2295" fill="#663AA3"/>
<g opacity="0.8">
<path opacity="0.8" d="M106.921 42.9333C105.186 41.6451 103.783 39.9617 102.829 38.0227C101.875 36.0837 101.397 33.9452 101.436 31.7846C101.474 29.624 102.027 27.5037 103.049 25.5997C104.071 23.6956 105.532 22.0629 107.312 20.8369C109.319 19.462 111.691 18.6149 113.476 16.9272C115.06 15.4545 116.083 13.4149 117.862 12.1769C118.972 11.3896 120.304 10.9776 121.665 11.0009C123.026 11.0243 124.344 11.4819 125.426 12.3068C126.509 13.1318 127.299 14.281 127.683 15.5869C128.066 16.8928 128.022 18.287 127.558 19.5662C126.743 21.8534 124.691 23.5281 123.83 25.7957C122.905 28.2458 123.505 31.0087 123.179 33.576C122.965 35.1745 122.395 36.7044 121.51 38.0524C120.625 39.4005 119.448 40.532 118.066 41.3631C116.684 42.1943 115.133 42.7037 113.527 42.8537C111.922 43.0037 110.303 42.7904 108.791 42.2295" fill="white"/>
</g>
<path d="M107.168 28.9629H115.176V45.4684C115.176 45.9314 115.085 46.3898 114.908 46.8175C114.731 47.2452 114.471 47.6338 114.144 47.9612C113.816 48.2885 113.428 48.5482 113 48.7253C112.572 48.9025 112.114 48.9937 111.651 48.9937H110.7C109.765 48.9937 108.868 48.6223 108.207 47.9612C107.546 47.3 107.174 46.4034 107.174 45.4684V28.9629H107.168Z" fill="#663AA3"/>
<path d="M107.168 28.9629L111.169 21.6191L115.176 28.9629H107.168Z" fill="#FFBE9D"/>
<path d="M109.586 24.5254C109.586 24.5254 110.804 26.3564 112.759 24.5254L111.176 21.6191L109.586 24.5254Z" fill="#663AA3"/>
<path d="M115.287 44.667C113.936 44.8302 112.574 44.8847 111.215 44.8299C109.857 44.8848 108.497 44.8303 107.148 44.667C108.497 44.5037 109.857 44.4492 111.215 44.5041C112.574 44.4492 113.936 44.5037 115.287 44.667Z" fill="#263238"/>
<path d="M115.175 43.435C113.852 43.5982 112.519 43.6527 111.187 43.5979C109.856 43.6527 108.522 43.5982 107.199 43.435C108.522 43.28 109.856 43.2277 111.187 43.2786C112.518 43.2277 113.852 43.28 115.175 43.435Z" fill="#263238"/>
<path d="M109.518 29.0801C109.603 29.0801 109.681 32.273 109.681 36.2153C109.681 40.1576 109.603 43.3831 109.518 43.3831C109.434 43.3831 109.355 40.1837 109.355 36.2153C109.355 32.247 109.427 29.0801 109.518 29.0801Z" fill="#FAFAFA"/>
<path d="M112.761 29.0801C112.852 29.0801 112.923 32.273 112.923 36.2153C112.923 40.1576 112.852 43.3831 112.761 43.3831C112.669 43.3831 112.598 40.1837 112.598 36.2153C112.598 32.247 112.669 29.0801 112.761 29.0801Z" fill="#FAFAFA"/>
<path d="M176.749 254.618L213.129 256.176L214.009 258.293L190.159 297L147.113 295.742L176.749 254.618Z" fill="#263238"/>
<path d="M145.48 291.969L188.781 294.446L211.405 259.343L195.518 260.633L155.32 274.786L145.48 291.969Z" fill="#E0E0E0"/>
<path d="M139.396 289.369L179.145 290.02C177.497 284.931 181.387 277.77 186.737 275.359C190.281 273.762 196.947 271.69 200.388 269.924C206.904 266.569 212.834 260.222 212.319 254.768L195.977 254.227L175.125 253.419C173.378 258.593 169.651 261.975 163.982 264.014C158.912 265.839 153.139 265.832 148.187 267.924C140.224 271.26 136.399 282.071 139.364 289.388" fill="#EBEBEB"/>
<path d="M139.395 289.37C139.395 289.37 139.356 289.285 139.298 289.109L139.024 288.347C138.879 287.921 138.766 287.485 138.685 287.043C138.552 286.447 138.461 285.841 138.411 285.232C138.285 283.54 138.39 281.839 138.724 280.175C139.187 277.935 140.052 275.798 141.278 273.868C141.624 273.309 142.005 272.774 142.419 272.265C142.634 272.01 142.842 271.73 143.07 271.483L143.807 270.733C144.053 270.476 144.319 270.239 144.602 270.023C144.882 269.795 145.156 269.554 145.455 269.339C146.076 268.902 146.729 268.514 147.41 268.179C150.167 266.791 153.457 266.224 156.885 265.572C158.605 265.26 160.377 264.921 162.15 264.445C163.974 263.945 165.734 263.237 167.395 262.334C168.254 261.869 169.071 261.333 169.839 260.731C170.63 260.122 171.357 259.435 172.009 258.678C173.358 257.118 174.386 255.307 175.032 253.348L175.071 253.237H175.182L192.548 253.889C198.575 254.124 204.811 254.286 211.197 254.501L212.357 254.541H212.501V254.684C212.588 255.932 212.41 257.184 211.979 258.359C211.774 258.939 211.53 259.505 211.249 260.053C210.962 260.592 210.644 261.114 210.298 261.617C208.924 263.59 207.264 265.347 205.372 266.83C203.543 268.287 201.545 269.518 199.423 270.499C197.324 271.444 195.2 272.212 193.121 272.981C191.043 273.75 188.984 274.48 187.035 275.327C186.076 275.752 185.176 276.3 184.357 276.956C183.934 277.256 183.582 277.64 183.197 277.973C182.813 278.305 182.48 278.709 182.174 279.12C180.905 280.652 179.958 282.425 179.392 284.333C178.817 286.138 178.783 288.073 179.294 289.897L179.353 290.073H179.17L150.245 289.565L142.223 289.402L140.125 289.344H139.402C139.402 289.344 139.649 289.344 140.125 289.344H142.23L150.251 289.435L179.17 289.839L179.046 290.008C178.511 288.134 178.541 286.144 179.131 284.287C179.698 282.336 180.658 280.522 181.953 278.957C182.259 278.54 182.643 278.181 182.989 277.79C183.334 277.399 183.745 277.054 184.175 276.741C185.009 276.068 185.929 275.509 186.911 275.08C188.866 274.219 190.938 273.483 193.017 272.714C195.096 271.945 197.214 271.17 199.292 270.232C201.387 269.261 203.356 268.04 205.157 266.596C207.024 265.135 208.662 263.405 210.018 261.461C210.358 260.973 210.674 260.469 210.963 259.949C211.235 259.416 211.473 258.865 211.673 258.3C212.088 257.17 212.261 255.964 212.181 254.762L212.338 254.905L211.171 254.873C204.785 254.658 198.549 254.488 192.528 254.221L175.156 253.57L175.306 253.465C174.641 255.459 173.592 257.303 172.217 258.893C171.552 259.662 170.81 260.361 170.002 260.979C169.221 261.591 168.388 262.134 167.513 262.601C165.834 263.514 164.053 264.227 162.209 264.725C160.417 265.214 158.638 265.54 156.917 265.846C153.49 266.459 150.212 267.032 147.495 268.387C146.83 268.715 146.191 269.094 145.586 269.521C145.286 269.73 145.019 269.971 144.739 270.173C144.458 270.387 144.194 270.622 143.95 270.877L143.194 271.626C142.96 271.874 142.758 272.147 142.543 272.401C142.127 272.901 141.746 273.428 141.402 273.978C140.176 275.886 139.308 278.002 138.841 280.221C138.491 281.869 138.371 283.557 138.483 285.238C138.522 285.845 138.605 286.448 138.731 287.043C138.803 287.485 138.908 287.92 139.043 288.347C139.154 288.685 139.232 288.94 139.291 289.122C139.35 289.304 139.395 289.37 139.395 289.37Z" fill="#263238"/>
<path d="M186.325 254.064C186.325 254.064 186.377 253.81 186.417 253.354C186.464 252.713 186.357 252.069 186.104 251.478C185.749 250.596 185.081 249.876 184.227 249.458C183.704 249.214 183.137 249.078 182.561 249.058C181.984 249.038 181.409 249.134 180.871 249.341C180.332 249.548 179.84 249.861 179.425 250.261C179.01 250.662 178.68 251.142 178.454 251.673C178.055 252.538 177.921 253.502 178.069 254.442C178.164 255.075 178.386 255.683 178.721 256.228C178.969 256.619 179.151 256.801 179.131 256.821C178.93 256.682 178.757 256.505 178.623 256.3C178.22 255.763 177.945 255.141 177.822 254.482C177.628 253.493 177.744 252.469 178.154 251.549C178.392 250.978 178.744 250.462 179.188 250.031C179.632 249.601 180.159 249.265 180.737 249.044C181.314 248.824 181.931 248.723 182.549 248.748C183.167 248.773 183.773 248.924 184.331 249.19C185.239 249.65 185.937 250.438 186.286 251.393C186.53 252.014 186.606 252.688 186.508 253.348C186.482 253.527 186.438 253.704 186.377 253.876C186.364 254.012 186.338 254.064 186.325 254.064Z" fill="#263238"/>
<path d="M192.562 254.065C192.529 254.065 192.614 253.811 192.653 253.355C192.698 252.713 192.591 252.07 192.34 251.478C191.982 250.596 191.312 249.877 190.457 249.458C189.934 249.215 189.367 249.08 188.791 249.061C188.215 249.041 187.64 249.137 187.102 249.344C186.563 249.551 186.072 249.863 185.656 250.263C185.241 250.664 184.91 251.143 184.684 251.673C184.286 252.539 184.155 253.503 184.306 254.443C184.398 255.077 184.619 255.684 184.957 256.228C185.205 256.619 185.388 256.802 185.368 256.821C185.161 256.686 184.986 256.508 184.853 256.3C184.452 255.762 184.178 255.141 184.052 254.482C183.864 253.493 183.982 252.47 184.391 251.55C184.629 250.98 184.98 250.464 185.424 250.034C185.867 249.604 186.393 249.268 186.97 249.048C187.547 248.827 188.163 248.726 188.781 248.751C189.398 248.775 190.004 248.925 190.561 249.191C191.469 249.651 192.167 250.438 192.516 251.393C192.758 252.015 192.836 252.688 192.744 253.348C192.72 253.529 192.674 253.706 192.607 253.876C192.606 253.941 192.59 254.006 192.562 254.065Z" fill="#263238"/>
<path d="M197.277 254.39C197.277 254.39 197.316 254.13 197.329 253.674C197.339 253.03 197.196 252.394 196.912 251.816C196.504 250.958 195.794 250.281 194.918 249.914C194.383 249.702 193.812 249.599 193.237 249.61C192.662 249.621 192.095 249.747 191.569 249.979C190.51 250.464 189.687 251.35 189.281 252.442C188.933 253.329 188.853 254.299 189.053 255.231C189.191 255.861 189.457 256.455 189.835 256.977C190.102 257.349 190.298 257.525 190.278 257.544C190.066 257.421 189.881 257.255 189.738 257.055C189.304 256.542 188.995 255.935 188.832 255.283C188.587 254.307 188.646 253.279 189.001 252.338C189.207 251.754 189.529 251.219 189.948 250.764C190.366 250.309 190.874 249.944 191.438 249.691C192.002 249.438 192.612 249.302 193.231 249.293C193.849 249.283 194.463 249.399 195.035 249.634C195.967 250.04 196.71 250.785 197.114 251.719C197.397 252.329 197.514 253.003 197.453 253.674C197.439 253.855 197.404 254.034 197.348 254.208C197.329 254.332 197.277 254.39 197.277 254.39Z" fill="#263238"/>
<path d="M202.367 254.677C202.367 254.677 202.367 254.416 202.367 253.96C202.346 253.317 202.169 252.689 201.852 252.129C201.401 251.291 200.656 250.65 199.76 250.33C199.214 250.146 198.637 250.073 198.062 250.116C197.488 250.159 196.927 250.317 196.415 250.581C195.902 250.845 195.448 251.209 195.079 251.652C194.71 252.094 194.434 252.607 194.267 253.158C193.964 254.062 193.937 255.035 194.189 255.954C194.361 256.576 194.658 257.157 195.062 257.661C195.349 258.013 195.551 258.176 195.531 258.202C195.313 258.088 195.12 257.93 194.965 257.739C194.506 257.249 194.165 256.66 193.968 256.019C193.667 255.058 193.667 254.028 193.968 253.067C194.143 252.475 194.437 251.924 194.829 251.447C195.222 250.97 195.707 250.577 196.255 250.291C196.806 250.009 197.41 249.842 198.028 249.8C198.647 249.759 199.267 249.844 199.852 250.05C200.801 250.404 201.582 251.102 202.041 252.005C202.357 252.607 202.507 253.281 202.478 253.96C202.472 254.14 202.448 254.319 202.406 254.494C202.399 254.618 202.38 254.677 202.367 254.677Z" fill="#263238"/>
<path d="M207.449 254.56C207.449 254.56 207.449 254.3 207.449 253.844C207.409 253.201 207.215 252.577 206.882 252.025C206.408 251.203 205.647 250.583 204.745 250.286C204.194 250.115 203.613 250.057 203.039 250.116C202.465 250.175 201.909 250.349 201.403 250.627C200.898 250.906 200.454 251.283 200.097 251.738C199.741 252.192 199.48 252.713 199.33 253.27C199.096 254.033 199.057 254.844 199.217 255.626C199.378 256.408 199.733 257.137 200.249 257.747C200.548 258.092 200.757 258.248 200.737 258.268C200.514 258.167 200.316 258.018 200.158 257.831C199.688 257.351 199.332 256.773 199.115 256.137C198.79 255.184 198.765 254.154 199.043 253.185C199.203 252.588 199.481 252.03 199.861 251.542C200.24 251.054 200.713 250.647 201.252 250.344C201.795 250.048 202.393 249.865 203.009 249.806C203.625 249.748 204.247 249.816 204.836 250.005C205.798 250.335 206.6 251.014 207.084 251.908C207.417 252.505 207.586 253.18 207.573 253.863C207.573 254.045 207.553 254.226 207.514 254.404C207.482 254.495 207.462 254.56 207.449 254.56Z" fill="#263238"/>
<path d="M211.741 255.127C211.741 255.127 211.741 254.866 211.741 254.41C211.726 253.767 211.556 253.136 211.245 252.573C210.803 251.734 210.068 251.087 209.18 250.755C208.636 250.563 208.059 250.482 207.484 250.518C206.908 250.554 206.346 250.705 205.83 250.963C205.315 251.221 204.856 251.58 204.482 252.019C204.108 252.458 203.827 252.967 203.654 253.517C203.391 254.271 203.321 255.078 203.45 255.866C203.578 256.653 203.902 257.396 204.39 258.027C204.677 258.385 204.872 258.548 204.859 258.574C204.642 258.458 204.451 258.298 204.299 258.105C203.844 257.61 203.509 257.017 203.322 256.372C203.034 255.406 203.05 254.376 203.367 253.42C203.55 252.829 203.85 252.282 204.248 251.809C204.647 251.337 205.136 250.95 205.687 250.67C206.242 250.395 206.847 250.236 207.465 250.202C208.084 250.168 208.703 250.261 209.284 250.474C210.232 250.84 211.006 251.553 211.447 252.468C211.757 253.072 211.901 253.746 211.864 254.423C211.857 254.604 211.831 254.783 211.786 254.958C211.773 255.068 211.754 255.133 211.741 255.127Z" fill="#263238"/>
<path d="M230.512 121.643C228.712 121.589 226.911 121.672 225.123 121.891C219.7 122.589 214.719 125.245 211.118 129.361C207.518 133.476 205.546 138.766 205.575 144.235C205.556 147.832 206.022 151.416 206.963 154.889C210.097 166.005 211.061 175.799 210.703 180.575L221.194 186.212C221.194 186.212 226.049 179.233 230.74 176.223C235.432 173.212 251.045 165.145 257.229 156.902C261.21 151.572 261.979 140.612 252.478 131.059C246.635 125.219 238.771 121.848 230.512 121.643Z" fill="#663AA3"/>
<path d="M205.686 192.708L215.161 197.83L208.996 205.662L202.676 202.795L205.686 192.708Z" fill="#455A64"/>
<path d="M206.146 193.028C206.061 192.995 207 190.18 208.244 186.746C209.489 183.312 210.564 180.543 210.649 180.575C210.733 180.608 209.795 183.417 208.55 186.857C207.306 190.298 206.231 193.054 206.146 193.028Z" fill="#263238"/>
<path d="M214.565 197.459C214.487 197.413 215.973 194.754 217.876 191.522C219.778 188.29 221.388 185.729 221.473 185.729C221.557 185.729 220.065 188.434 218.156 191.666C216.247 194.898 214.637 197.491 214.565 197.459Z" fill="#263238"/>
<g opacity="0.4">
<path opacity="0.4" d="M233.637 121.942C233.214 121.942 228.001 128.067 225.694 132.198C217.933 146.097 217.582 159.619 215.431 175.388C215.125 177.642 214.004 182.497 214.024 182.386C215.171 183.285 219.028 185.077 219.028 185.077C219.028 185.077 222.671 180.685 224.117 178.476C229.904 169.634 236.192 162.733 241.151 153.396C246.109 144.058 250.879 135.802 246.292 126.249C246.292 126.249 238.329 121.675 233.637 121.942Z" fill="black"/>
</g>
<path d="M257.228 158.296C257.173 158.201 257.128 158.1 257.092 157.996C257.007 157.801 256.903 157.495 256.727 157.117C256.236 156.023 255.621 154.989 254.896 154.035C253.782 152.561 252.422 151.291 250.875 150.281C248.893 148.968 246.634 148.131 244.274 147.838H244.196L244.157 147.785C242.89 146.046 241.475 144.419 239.928 142.924C238.234 141.29 236.281 139.946 234.148 138.95C232.005 137.98 229.662 137.533 227.313 137.646C225.172 137.73 223.099 138.422 221.337 139.64L221.239 139.705L221.155 139.627C219.363 138.056 217.136 137.067 214.769 136.793C212.93 136.583 211.068 136.82 209.341 137.483C208.222 137.911 207.173 138.502 206.226 139.236C205.9 139.497 205.653 139.705 205.496 139.849C205.419 139.927 205.334 139.996 205.242 140.057C205.311 139.973 205.385 139.892 205.464 139.816C205.614 139.66 205.848 139.438 206.167 139.165C207.101 138.388 208.153 137.766 209.282 137.32C211.032 136.619 212.927 136.355 214.801 136.552C217.226 136.813 219.511 137.811 221.35 139.412H221.168C222.973 138.153 225.1 137.436 227.3 137.347C229.696 137.224 232.088 137.67 234.278 138.65C236.445 139.663 238.427 141.031 240.143 142.696C241.703 144.206 243.125 145.853 244.391 147.616L244.294 147.557C246.694 147.862 248.989 148.728 250.992 150.086C252.551 151.125 253.916 152.428 255.026 153.937C255.743 154.912 256.339 155.971 256.798 157.091C256.961 157.475 257.052 157.788 257.124 157.99C257.165 158.09 257.2 158.192 257.228 158.296Z" fill="#263238"/>
<path d="M237.719 172.144C237.558 171.337 237.251 170.566 236.813 169.87C236.3 169.072 235.612 168.404 234.8 167.915C233.761 167.272 232.543 166.984 231.327 167.094H231.196V166.963C230.942 165.403 230.293 163.934 229.311 162.696C228.329 161.457 227.047 160.49 225.586 159.887C224.291 159.381 222.9 159.169 221.513 159.268C220.239 159.36 218.999 159.718 217.871 160.317L217.773 160.369L217.695 160.284C216.719 159.262 215.443 158.577 214.052 158.329C212.972 158.12 211.858 158.155 210.794 158.434C209.85 158.697 208.965 159.139 208.188 159.737C208.188 159.737 208.227 159.678 208.324 159.594C208.422 159.509 208.565 159.372 208.767 159.222C209.362 158.801 210.023 158.482 210.722 158.277C211.813 157.963 212.961 157.905 214.078 158.108C215.533 158.348 216.871 159.055 217.89 160.121L217.714 160.089C218.873 159.473 220.146 159.105 221.454 159.007C222.889 158.907 224.327 159.129 225.664 159.659C227.272 160.308 228.665 161.397 229.684 162.8C230.601 164.032 231.201 165.471 231.431 166.989L231.281 166.872C232.553 166.773 233.823 167.091 234.897 167.778C235.724 168.291 236.42 168.989 236.93 169.817C237.257 170.347 237.491 170.929 237.621 171.538C237.654 171.697 237.678 171.858 237.693 172.02C237.705 172.06 237.714 172.102 237.719 172.144Z" fill="#263238"/>
<path d="M213.331 200.3C213.331 200.3 213.227 200.17 212.986 200.065C212.622 199.955 212.233 199.969 211.878 200.105C211.605 200.19 211.323 200.241 211.038 200.254C210.861 200.253 210.688 200.216 210.526 200.145C210.365 200.075 210.22 199.972 210.099 199.844C209.597 199.316 209.408 198.541 208.933 198.039C208.824 197.915 208.69 197.818 208.539 197.754C208.387 197.689 208.224 197.66 208.06 197.667C207.724 197.704 207.392 197.772 207.069 197.869C206.747 197.961 206.409 197.979 206.079 197.922C205.732 197.836 205.417 197.654 205.169 197.397C204.921 197.14 204.751 196.818 204.678 196.469C204.633 196.324 204.633 196.17 204.678 196.025C204.678 196.025 204.678 196.182 204.788 196.442C204.911 196.802 205.138 197.118 205.44 197.348C205.639 197.507 205.874 197.612 206.124 197.654C206.415 197.694 206.712 197.667 206.991 197.576C207.332 197.467 207.684 197.392 208.04 197.355C208.25 197.342 208.459 197.378 208.653 197.458C208.847 197.538 209.021 197.661 209.161 197.817C209.715 198.469 209.884 199.186 210.308 199.635C210.495 199.844 210.757 199.971 211.038 199.987C211.3 199.984 211.56 199.947 211.813 199.876C212.215 199.751 212.649 199.779 213.031 199.955C213.305 200.111 213.344 200.3 213.331 200.3Z" fill="#263238"/>
<path d="M214.417 198.762C212.83 198.102 211.286 197.34 209.797 196.481C208.254 195.718 206.759 194.86 205.32 193.914C206.908 194.578 208.453 195.34 209.947 196.195C211.487 196.959 212.98 197.817 214.417 198.762Z" fill="#263238"/>
<path d="M212.537 201.167C212.537 201.167 212.407 201.232 212.179 201.336C212.061 201.388 211.931 201.466 211.749 201.544C211.54 201.617 211.318 201.646 211.097 201.629C210.525 201.598 209.977 201.385 209.533 201.023C209.274 200.803 209.07 200.523 208.94 200.209C208.834 199.901 208.678 199.612 208.478 199.355C208.242 199.157 207.968 199.011 207.673 198.926C207.378 198.84 207.068 198.818 206.764 198.86C206.209 198.925 205.647 198.871 205.115 198.703C204.75 198.564 204.452 198.292 204.281 197.941C204.177 197.687 204.216 197.524 204.229 197.53C204.242 197.537 204.268 197.674 204.398 197.882C204.587 198.171 204.87 198.386 205.2 198.488C205.707 198.616 206.234 198.64 206.751 198.56C207.099 198.509 207.454 198.534 207.791 198.633C208.128 198.732 208.44 198.903 208.706 199.133C208.926 199.418 209.098 199.737 209.214 200.078C209.324 200.354 209.496 200.602 209.716 200.802C210.11 201.132 210.592 201.341 211.104 201.401C211.453 201.432 211.804 201.369 212.12 201.219C212.387 201.147 212.537 201.147 212.537 201.167Z" fill="#263238"/>
<path d="M140.992 140.313L157.381 137.882L149.561 126.805L145.365 127.052C143.978 127.132 142.641 127.596 141.503 128.392C140.365 129.189 139.47 130.286 138.92 131.562C138.325 132.945 138.159 134.475 138.445 135.953L140.992 140.313Z" fill="#663AA3"/>
<path opacity="0.4" d="M140.992 140.313L157.381 137.882L149.561 126.805L145.365 127.052C143.978 127.132 142.641 127.596 141.503 128.392C140.365 129.189 139.47 130.286 138.92 131.562C138.325 132.945 138.159 134.475 138.445 135.953L140.992 140.313Z" fill="black"/>
<path d="M211.38 158.466C211.549 158.935 211.732 159.489 211.921 160.154C212.077 160.727 212.136 161.321 212.096 161.913C212.071 162.648 211.946 163.376 211.725 164.077C211.458 164.728 212.083 165.328 212.611 165.015C213.139 164.702 213.915 163.008 213.915 160.832C213.915 158.655 216.091 161.262 216.918 162.2C217.746 163.138 220.444 165.921 220.932 165.895C221.649 165.856 221.74 165.08 220.893 164.161C220.046 163.243 217.694 160.317 218.209 159.9C218.723 159.483 222.868 164.324 222.868 164.324C222.868 164.324 223.585 165.504 224.171 165.048C225.279 164.22 220.489 159.405 220.02 158.962C219.701 158.649 220.242 158.18 220.574 158.531C220.906 158.883 224.601 163.451 225.735 162.617C226.602 161.966 221.825 158.623 221.591 157.254C221.356 155.886 224.953 160.167 225.754 159.528C226.061 159.287 226.25 159.066 223.8 156.922C222.627 155.866 218.157 152.739 218.157 152.739L204.707 114.234L194.32 120.184L211.38 158.466Z" fill="#FFBE9D"/>
<path d="M131.314 85.6419L116.288 67.7093C116.098 67.0905 115.852 66.4906 115.551 65.9174C115.203 65.202 114.707 64.5685 114.096 64.0586C113.485 63.5487 112.773 63.1739 112.007 62.959C111.055 62.7505 109.961 62.8548 109.211 62.2292C108.879 61.949 108.657 61.5776 108.305 61.2909C107.954 61.0042 107.374 60.9781 107.146 61.3495C107.087 61.4944 107.062 61.6508 107.074 61.8067C107.085 61.9626 107.132 62.1138 107.211 62.2488C107.775 63.5755 108.673 64.7338 109.817 65.6111C108.41 66.0412 106.396 66.6928 106.396 66.6928C106.396 66.6928 103.223 63.2457 101.594 63.2522C99.9647 63.2588 102.897 66.3344 102.897 66.3344C102.897 66.3344 100.291 63.9234 99.4825 64.6011C98.6745 65.2788 100.747 67.0707 100.747 67.0707C100.124 66.6476 99.3806 66.4394 98.6289 66.4778C97.8925 66.6016 97.2605 67.4682 97.658 68.1003C97.8275 68.3281 98.0516 68.5096 98.3096 68.6281L102.311 70.8566C102.951 71.2834 103.683 71.5515 104.448 71.6386C106.481 71.7038 108.025 70.4461 110.052 70.4983C110.052 70.4983 121.383 94.3541 122.53 95.5856C123.677 96.8172 148.595 98.4918 148.595 98.4918L163.002 86.0785L131.314 85.6419Z" fill="#FFBE9D"/>
<path d="M176.455 215.594L191.801 222.273L183.591 241.411C181.805 240.518 182.392 229.03 182.392 229.03L172.383 225.153L176.455 215.594Z" fill="#663AA3"/>
<g opacity="0.6">
<path opacity="0.6" d="M184.096 222.769C184.231 222.607 184.42 222.502 184.628 222.472C184.836 222.442 185.048 222.489 185.223 222.606C185.387 222.736 185.496 222.923 185.526 223.131C185.556 223.338 185.506 223.548 185.386 223.72C185.244 223.889 185.044 224 184.824 224.03C184.605 224.06 184.383 224.007 184.2 223.883C184.041 223.731 183.947 223.523 183.938 223.302C183.93 223.082 184.007 222.867 184.155 222.703" fill="white"/>
</g>
<path opacity="0.6" d="M191.803 222.274L190.227 221.661L182.941 240.239C182.941 240.239 182.941 241.255 183.593 241.412L191.803 222.274Z" fill="white"/>
<path d="M182.155 229.311C182.252 229.344 182.494 228.894 182.995 228.569C183.497 228.243 183.986 228.158 183.986 228.06C183.986 227.963 183.386 227.865 182.793 228.275C182.2 228.686 182.063 229.292 182.155 229.311Z" fill="#263238"/>
<path d="M182.12 231.669C182.205 231.734 182.537 231.395 183.072 231.246C183.606 231.096 184.056 231.187 184.095 231.096C184.134 231.004 183.626 230.711 182.968 230.907C182.309 231.102 182.036 231.63 182.12 231.669Z" fill="#263238"/>
<path d="M184.039 233.846C184.097 233.768 183.68 233.435 183.068 233.455C182.455 233.474 182.064 233.826 182.123 233.898C182.182 233.97 182.573 233.82 183.081 233.813C183.589 233.807 183.987 233.95 184.039 233.846Z" fill="#263238"/>
<path d="M179.969 228.171C180.074 228.171 180.126 227.682 180.393 227.174C180.66 226.666 180.999 226.32 180.94 226.236C180.882 226.151 180.373 226.405 180.074 227.011C179.774 227.617 179.878 228.184 179.969 228.171Z" fill="#263238"/>
<path d="M177.898 226.737C177.937 226.737 178.152 226.411 178.302 225.779C178.392 225.408 178.433 225.027 178.426 224.646C178.423 224.427 178.406 224.21 178.374 223.994C178.36 223.861 178.324 223.731 178.27 223.609C178.23 223.52 178.162 223.446 178.076 223.4C177.989 223.354 177.89 223.338 177.794 223.355C177.708 223.372 177.628 223.409 177.56 223.464C177.492 223.518 177.438 223.588 177.403 223.668C177.35 223.791 177.315 223.92 177.299 224.053C177.194 224.661 177.246 225.287 177.449 225.871C177.664 226.49 177.95 226.789 177.983 226.763C178.016 226.737 177.833 226.392 177.683 225.799C177.603 225.451 177.565 225.094 177.572 224.737C177.577 224.518 177.599 224.3 177.638 224.085C177.67 223.864 177.742 223.688 177.859 223.675C177.976 223.662 177.911 223.675 177.957 223.74C177.992 223.832 178.016 223.928 178.029 224.026C178.066 224.242 178.09 224.46 178.1 224.678C178.12 225.037 178.105 225.397 178.055 225.753C177.98 226.077 177.928 226.406 177.898 226.737Z" fill="#263238"/>
<path d="M178.079 226.678C178.079 226.678 177.858 226.32 177.265 226.027C176.917 225.856 176.542 225.748 176.157 225.707C175.941 225.684 175.722 225.684 175.506 225.707C175.357 225.706 175.21 225.742 175.079 225.813C174.948 225.883 174.837 225.986 174.756 226.111C174.723 226.198 174.714 226.292 174.731 226.383C174.749 226.474 174.791 226.558 174.854 226.626C174.947 226.722 175.052 226.806 175.167 226.874C175.368 227 175.588 227.094 175.818 227.154C176.199 227.248 176.597 227.248 176.978 227.154C177.63 226.991 177.916 226.652 177.89 226.633C177.577 226.742 177.257 226.833 176.933 226.906C176.588 226.956 176.236 226.929 175.903 226.828C175.709 226.767 175.525 226.679 175.356 226.567C175.167 226.45 175.036 226.307 175.088 226.242C175.145 226.176 175.215 226.124 175.294 226.089C175.373 226.054 175.458 226.037 175.545 226.04C175.761 226.019 175.98 226.019 176.196 226.04C176.55 226.064 176.899 226.139 177.232 226.261C177.728 226.47 178.047 226.717 178.079 226.678Z" fill="#263238"/>
<path d="M164.641 241.88L170.987 255.18L172.975 267.183C173.009 267.387 173.084 267.582 173.196 267.756C173.309 267.929 173.456 268.078 173.628 268.192C173.801 268.307 173.995 268.384 174.199 268.42C174.402 268.456 174.611 268.45 174.812 268.401C175.047 268.347 175.265 268.237 175.447 268.08C175.63 267.924 175.772 267.725 175.862 267.502C177.028 264.615 181.27 253.961 180.749 253.016C180.149 251.922 174.982 238.544 174.982 238.544L164.641 241.88Z" fill="#663AA3"/>
<path opacity="0.6" d="M174.809 268.37L180.334 252.079L180.595 252.646C180.816 253.138 180.855 253.692 180.706 254.21C180.302 255.598 179.109 259.423 175.897 267.451C175.806 267.682 175.659 267.887 175.469 268.048C175.279 268.208 175.052 268.319 174.809 268.37Z" fill="white"/>
<g opacity="0.6">
<path opacity="0.6" d="M175.627 248.983C175.516 249.178 175.481 249.407 175.529 249.626C175.577 249.846 175.705 250.039 175.887 250.169C176.079 250.288 176.309 250.328 176.53 250.282C176.75 250.236 176.945 250.107 177.073 249.922C177.188 249.713 177.222 249.47 177.169 249.238C177.116 249.007 176.98 248.802 176.787 248.664C176.574 248.561 176.33 248.545 176.106 248.619C175.883 248.693 175.696 248.852 175.588 249.061" fill="white"/>
</g>
<path d="M175.236 261.116C174.743 260.799 174.173 260.62 173.587 260.6C173.001 260.579 172.42 260.717 171.906 260.999C171.906 260.999 172.004 260.79 172.297 260.608C172.69 260.372 173.143 260.256 173.6 260.276C174.055 260.289 174.496 260.434 174.871 260.693C175.158 260.901 175.262 261.09 175.236 261.116Z" fill="#263238"/>
<path d="M175.126 263.346C174.645 263.302 174.162 263.289 173.68 263.307C173.209 263.419 172.746 263.558 172.292 263.724C172.22 263.672 172.741 263.072 173.634 262.981C173.894 262.918 174.165 262.918 174.425 262.981C174.684 263.045 174.925 263.17 175.126 263.346Z" fill="#263238"/>
<path d="M175.986 258.008C175.249 257.88 174.504 257.808 173.757 257.793C173.013 257.877 172.276 258.02 171.555 258.223C172.195 257.767 172.953 257.505 173.739 257.467C174.524 257.429 175.304 257.617 175.986 258.008Z" fill="#263238"/>
<path d="M174.395 253.806C174.395 253.903 173.515 253.923 172.531 254.327C171.548 254.731 170.889 255.298 170.824 255.226C171.197 254.651 171.76 254.224 172.414 254.021C173.028 253.717 173.73 253.641 174.395 253.806Z" fill="#263238"/>
<path d="M172.626 249.851C171.955 249.927 171.297 250.094 170.671 250.346C170.09 250.686 169.559 251.104 169.094 251.591C169.061 251.591 169.126 251.337 169.361 251.024C169.668 250.61 170.07 250.277 170.534 250.053C170.993 249.824 171.5 249.707 172.013 249.714C172.404 249.727 172.632 249.818 172.626 249.851Z" fill="#263238"/>
<path d="M170.361 249.59C170.248 249.439 170.164 249.269 170.113 249.088C169.952 248.601 169.888 248.088 169.924 247.576C169.917 247.2 170.033 246.831 170.256 246.527C170.337 246.439 170.442 246.376 170.558 246.347C170.674 246.318 170.795 246.324 170.908 246.364C171.128 246.472 171.301 246.654 171.397 246.879C171.57 247.345 171.574 247.856 171.41 248.325C171.246 248.794 170.923 249.19 170.498 249.446C170.072 249.691 169.584 249.804 169.095 249.772C168.606 249.739 168.137 249.563 167.748 249.264C167.649 249.186 167.568 249.087 167.512 248.975C167.455 248.862 167.425 248.738 167.422 248.612C167.428 248.488 167.474 248.368 167.553 248.271C167.631 248.174 167.738 248.104 167.858 248.072C168.223 247.998 168.6 248.02 168.953 248.137C169.452 248.267 169.922 248.488 170.341 248.788C170.634 248.99 170.765 249.14 170.752 249.16C170.179 248.805 169.555 248.541 168.901 248.378C168.59 248.286 168.26 248.274 167.943 248.345C167.877 248.362 167.818 248.399 167.774 248.452C167.731 248.505 167.706 248.57 167.702 248.638C167.714 248.718 167.741 248.795 167.782 248.865C167.824 248.934 167.878 248.994 167.943 249.042C168.286 249.291 168.693 249.437 169.116 249.461C169.538 249.485 169.959 249.388 170.328 249.179C170.697 248.964 170.981 248.628 171.131 248.228C171.28 247.828 171.287 247.388 171.149 246.983C171.091 246.823 170.974 246.691 170.823 246.612C170.761 246.583 170.692 246.576 170.625 246.59C170.558 246.604 170.497 246.639 170.452 246.69C170.261 246.946 170.156 247.257 170.152 247.576C170.103 248.255 170.173 248.936 170.361 249.59Z" fill="#263238"/>
<path d="M186.023 217.217L168.619 205.488L174.379 148.934L157.893 139.309L142.821 135.816C142.821 135.816 136.526 148.914 133.698 157.32C127.743 175.155 123.566 181.547 124.524 194.462C124.823 198.554 139.928 208.798 149.468 214.473C149.575 215.609 149.744 216.738 149.976 217.855C153.234 232.595 163.191 252.196 163.191 252.196L178.308 245.165L173.434 228.451L178.517 231.416L186.023 217.217ZM148.614 180.726L150.647 171.662C150.217 177.429 149.826 183.443 149.546 189.21C148.563 186.504 148.243 183.601 148.614 180.746V180.726Z" fill="#263238"/>
<path d="M163.221 252.195C163.174 252.119 163.135 252.038 163.103 251.954L162.784 251.244L161.618 248.488C160.614 246.083 159.174 242.623 157.447 238.29C155.721 233.956 153.674 228.822 151.583 223.022C151.068 221.569 150.566 220.077 150.091 218.533C149.882 217.751 149.615 216.982 149.478 216.154C149.439 215.952 149.393 215.744 149.361 215.542L149.289 214.923L149.152 213.685C148.97 212.016 148.824 210.318 148.716 208.589C148.663 207.729 148.618 206.856 148.579 205.982C148.54 205.109 148.514 204.217 148.579 203.324C148.839 196.221 149.432 189.483 149.928 183.352C150.423 177.22 150.899 171.707 151.289 167.061C151.68 162.415 151.941 158.675 152.071 156.075C152.156 154.772 152.202 153.768 152.228 153.09L152.273 152.309C152.262 152.222 152.262 152.134 152.273 152.048C152.281 152.135 152.281 152.222 152.273 152.309C152.273 152.504 152.273 152.758 152.273 153.09C152.273 153.775 152.241 154.785 152.182 156.081C152.071 158.688 151.843 162.441 151.498 167.081C151.153 171.72 150.69 177.239 150.195 183.371C149.7 189.503 149.133 196.241 148.892 203.324C148.839 204.21 148.892 205.083 148.892 205.963C148.892 206.843 148.97 207.703 149.028 208.569C149.133 210.307 149.274 211.999 149.452 213.645L149.589 214.89L149.66 215.503C149.693 215.705 149.739 215.9 149.778 216.102C149.908 216.897 150.169 217.672 150.377 218.448C150.84 219.979 151.342 221.471 151.85 222.924C153.896 228.717 155.923 233.872 157.617 238.205C159.311 242.538 160.725 246.024 161.696 248.435C162.172 249.634 162.549 250.566 162.81 251.218C162.927 251.524 163.025 251.765 163.09 251.941C163.155 252.117 163.221 252.195 163.221 252.195Z" fill="#455A64"/>
<path d="M151.58 150.132C151.58 150.132 151.431 150.041 151.189 149.813C150.878 149.463 150.629 149.062 150.453 148.627C149.937 147.19 149.686 145.671 149.71 144.144C149.69 142.621 149.762 141.097 149.925 139.583C149.956 138.957 150.043 138.335 150.186 137.726C150.239 138.35 150.239 138.978 150.186 139.602C150.127 140.756 150.036 142.352 150.062 144.111C150.052 145.607 150.272 147.095 150.714 148.523C150.867 148.942 151.075 149.338 151.333 149.702C151.489 149.97 151.6 150.119 151.58 150.132Z" fill="#455A64"/>
<path d="M145.075 136.677C145.229 137.187 145.273 137.725 145.206 138.254C145.119 139.551 144.687 140.802 143.955 141.876C143.223 142.951 142.217 143.81 141.042 144.366C140.573 144.622 140.056 144.777 139.523 144.822C139.523 144.77 140.09 144.613 140.937 144.17C142.04 143.584 142.984 142.738 143.687 141.707C144.391 140.675 144.834 139.488 144.977 138.247C145.088 137.283 145.017 136.677 145.075 136.677Z" fill="#455A64"/>
<path d="M172.116 169.558C172.116 169.558 172.116 169.616 172.116 169.727C172.116 169.838 172.116 170.027 172.077 170.229C172.025 170.698 171.96 171.35 171.882 172.184C171.693 173.884 171.432 176.302 171.106 179.273C170.455 185.288 169.49 193.544 168.461 202.673C168.094 206.97 168.382 211.299 169.314 215.51C169.723 217.344 170.247 219.151 170.885 220.918C171.471 222.586 172.012 224.144 172.514 225.571C173.498 228.399 174.293 230.699 174.853 232.315C175.114 233.097 175.322 233.71 175.505 234.153L175.661 234.635C175.683 234.687 175.696 234.742 175.7 234.798C175.7 234.798 175.7 234.752 175.629 234.641C175.557 234.531 175.518 234.368 175.446 234.172C175.277 233.736 175.055 233.13 174.795 232.354L172.358 225.649C171.849 224.229 171.289 222.671 170.689 221.01C170.036 219.232 169.499 217.415 169.08 215.568C168.12 211.331 167.819 206.97 168.187 202.64C169.204 193.485 170.22 185.236 170.93 179.247C171.302 176.276 171.582 173.858 171.81 172.164C171.914 171.343 171.999 170.704 172.064 170.209C172.064 170.007 172.116 169.844 172.136 169.714C172.122 169.663 172.115 169.61 172.116 169.558Z" fill="#455A64"/>
<path d="M142.82 135.718L145.492 128.896L151.585 137.979L143.459 135.953" fill="#FFBE9D"/>
<path d="M206.564 115.212L199.338 99.0063C198.471 96.3998 196.849 95.9958 195.493 94.484L177.385 84.2732C164.183 78.8647 156.995 96.9928 156.995 96.9928L144.999 124.361C130.892 129.033 140.881 139.869 140.881 139.869C140.881 139.869 137.043 133.197 140.822 130.792C144.771 128.271 149.15 134.911 153.359 141.218C158.331 148.66 174.478 153.495 174.478 153.495C176.368 151.501 175.84 144.535 177.319 140.795C177.789 139.615 188.97 113.713 188.97 113.713L193.304 124.211C193.304 124.211 198.856 117.695 201.553 116.665C203.179 116.04 204.856 115.553 206.564 115.212Z" fill="#663AA3"/>
<path d="M174.472 126.733C174.306 126.884 174.122 127.013 173.925 127.118C173.398 127.423 172.847 127.683 172.276 127.893C170.378 128.608 168.328 128.821 166.323 128.512C164.319 128.202 162.428 127.381 160.834 126.127C160.352 125.755 159.905 125.341 159.498 124.889C159.336 124.736 159.2 124.557 159.094 124.361C159.139 124.316 159.745 125.052 160.97 125.945C162.563 127.119 164.416 127.891 166.371 128.192C168.326 128.494 170.326 128.318 172.198 127.678C173.644 127.196 174.472 126.681 174.472 126.733Z" fill="#263238"/>
<path d="M144.495 101.02L155.67 102.075L173.551 83.1784L163.034 82.8135L144.312 84.6641C145.297 90.0664 145.359 95.5967 144.495 101.02Z" fill="#663AA3"/>
<path d="M159.987 91.0762C159.96 91.1978 159.914 91.3144 159.85 91.4215L159.401 92.3859C158.997 93.2591 158.43 94.4646 157.746 95.9242C156.358 98.9217 154.488 103.092 152.533 107.719C150.578 112.345 148.714 116.535 147.32 119.539C146.636 121.044 146.069 122.25 145.665 123.084L145.189 124.035C145.139 124.151 145.076 124.26 145 124.361C145.033 124.24 145.077 124.122 145.13 124.009L145.547 123.032L147.111 119.448C148.414 116.379 150.233 112.202 152.213 107.588C154.194 102.975 156.123 98.8044 157.537 95.8265C158.26 94.3408 158.84 93.1483 159.29 92.3273C159.499 91.9493 159.661 91.6366 159.792 91.3889C159.846 91.278 159.911 91.1732 159.987 91.0762Z" fill="#263238"/>
<path d="M194.099 96.5693C194.132 96.628 193.448 96.9864 192.49 97.7944C191.941 98.2653 191.437 98.7867 190.985 99.3518C190.434 100.05 189.958 100.803 189.564 101.6C189.186 102.402 188.889 103.24 188.678 104.102C188.514 104.81 188.418 105.532 188.391 106.259C188.346 107.497 188.489 108.266 188.424 108.272C188.355 108.104 188.311 107.926 188.293 107.745C188.244 107.53 188.214 107.312 188.202 107.093C188.169 106.808 188.154 106.52 188.157 106.233C188.152 105.488 188.228 104.745 188.385 104.017C188.58 103.119 188.875 102.244 189.264 101.411C189.672 100.595 190.168 99.8255 190.744 99.1172C191.22 98.5476 191.755 98.03 192.34 97.5728C192.561 97.3918 192.794 97.2263 193.037 97.0776C193.213 96.952 193.398 96.8409 193.591 96.7453C193.75 96.6601 193.922 96.6008 194.099 96.5693Z" fill="#263238"/>
<path d="M197.22 70.6155L186.735 90.2163C185.909 91.7578 184.529 92.9293 182.874 93.4951C181.219 94.0608 179.411 93.9789 177.814 93.2658C176.954 92.8766 176.182 92.315 175.547 91.6159C174.911 90.9168 174.426 90.0949 174.121 89.201C173.816 88.3071 173.697 87.3601 173.772 86.4185C173.846 85.4769 174.114 84.5606 174.556 83.7261L176.361 80.3247C176.361 80.3247 171.8 77.3728 173.937 72.4466C175.84 68.0547 182.825 55.6478 184.304 53.0283L193.14 56.9837C194.317 57.5971 195.358 58.44 196.203 59.4628C197.048 60.4855 197.679 61.6672 198.059 62.9381C198.439 64.2089 198.561 65.5431 198.417 66.8618C198.273 68.1805 197.866 69.4569 197.22 70.6155Z" fill="#FFBE9D"/>
<path d="M176.361 80.2529C178.605 81.3064 181.111 81.6693 183.562 81.2955C183.562 81.2955 180.473 84.1431 175.781 81.5171L176.361 80.2529Z" fill="#EB996E"/>
<path d="M179.73 64.5818C179.647 64.7637 179.637 64.9709 179.704 65.1595C179.771 65.3481 179.909 65.5032 180.089 65.5918C180.174 65.6383 180.269 65.6673 180.366 65.6771C180.463 65.6869 180.561 65.6772 180.654 65.6487C180.748 65.6202 180.835 65.5734 180.91 65.5111C180.985 65.4487 181.047 65.3721 181.092 65.2855C181.176 65.1036 181.185 64.8964 181.118 64.7078C181.051 64.5192 180.913 64.3641 180.734 64.2755C180.648 64.229 180.554 64.2 180.456 64.1902C180.359 64.1804 180.261 64.1901 180.168 64.2186C180.074 64.2471 179.988 64.2939 179.913 64.3562C179.837 64.4186 179.775 64.4953 179.73 64.5818Z" fill="#263238"/>
<path d="M179.768 63.9628C179.814 64.0931 180.518 63.9628 181.274 64.2756C182.03 64.5883 182.407 65.2334 182.531 65.1813C182.655 65.1292 182.57 64.9532 182.414 64.673C182.188 64.302 181.853 64.0087 181.456 63.8325C181.064 63.6565 180.626 63.6087 180.205 63.6956C179.899 63.7673 179.742 63.8781 179.768 63.9628Z" fill="#263238"/>
<path d="M186.775 68.0481C186.69 68.2297 186.68 68.4376 186.747 68.6267C186.814 68.8157 186.953 68.9707 187.134 69.0581C187.22 69.1044 187.314 69.133 187.412 69.1423C187.509 69.1516 187.608 69.1414 187.701 69.1123C187.794 69.0832 187.881 69.0357 187.956 68.9727C188.031 68.9097 188.092 68.8324 188.137 68.7453C188.219 68.5641 188.227 68.3585 188.16 68.1714C188.093 67.9843 187.957 67.8304 187.779 67.7418C187.693 67.6944 187.599 67.6646 187.501 67.6544C187.404 67.6442 187.306 67.6536 187.212 67.6822C187.118 67.7107 187.031 67.7579 186.956 67.8207C186.881 67.8836 186.82 67.9609 186.775 68.0481Z" fill="#263238"/>
<path d="M187.108 67.4105C187.154 67.5408 187.858 67.4105 188.614 67.7233C189.369 68.0361 189.747 68.6877 189.871 68.6356C189.995 68.5834 189.917 68.4075 189.754 68.1208C189.527 67.7518 189.193 67.4609 188.796 67.2867C188.405 67.1077 187.966 67.0597 187.545 67.1499C187.239 67.2215 187.082 67.3519 187.108 67.4105Z" fill="#263238"/>
<path d="M181.875 71.7691C181.534 71.4711 181.157 71.2151 180.755 71.0067C180.572 70.8959 180.403 70.7786 180.429 70.6353C180.455 70.4919 180.624 70.303 180.813 70.1205L182.038 68.9085C183.12 67.9034 184.12 66.814 185.029 65.6504C183.863 66.5612 182.773 67.5658 181.771 68.6544L180.566 69.8859C180.341 70.064 180.186 70.3155 180.129 70.5962C180.128 70.6762 180.144 70.7556 180.177 70.8287C180.21 70.9018 180.258 70.967 180.318 71.0197C180.412 71.0947 180.515 71.1582 180.624 71.2087C181.013 71.4522 181.434 71.6407 181.875 71.7691Z" fill="#263238"/>
<path d="M183.856 73.2813C183.739 73.2227 183.374 74.0372 182.416 74.3044C181.458 74.5715 180.624 74.0959 180.565 74.2066C180.507 74.3174 180.689 74.4477 181.054 74.6237C181.529 74.8458 182.067 74.892 182.572 74.754C183.06 74.6248 183.477 74.3087 183.732 73.8743C183.915 73.5485 183.915 73.3074 183.856 73.2813Z" fill="#263238"/>
<path d="M188.234 64.3732C188.234 64.6143 189.01 64.8489 189.844 65.3507C190.678 65.8524 191.29 66.4128 191.486 66.2825C191.577 66.2173 191.538 65.9697 191.343 65.6308C191.065 65.2175 190.697 64.8721 190.267 64.6205C189.838 64.3689 189.356 64.2176 188.86 64.1777C188.482 64.1777 188.241 64.2624 188.234 64.3732Z" fill="#263238"/>
<path d="M181.02 61.9234C181.078 62.158 181.671 62.2101 182.323 62.4772C182.975 62.7444 183.424 63.1289 183.626 62.9855C183.828 62.8422 183.717 62.7118 183.555 62.4512C183.34 62.113 183.022 61.8526 182.649 61.7083C182.279 61.5487 181.869 61.5099 181.476 61.5976C181.15 61.6497 180.987 61.793 181.02 61.9234Z" fill="#263238"/>
<path d="M193.923 73.5547C194.027 73.5547 197.735 74.0629 196.132 77.3667C194.529 80.6704 191.57 78.3767 191.57 78.2789C191.57 78.1812 193.923 73.5547 193.923 73.5547Z" fill="#FFBE9D"/>
<path d="M193.199 77.5164C193.199 77.5164 193.238 77.5815 193.31 77.6793C193.421 77.8031 193.575 77.8801 193.74 77.8943C194.023 77.8658 194.293 77.7619 194.523 77.5934C194.752 77.425 194.932 77.1981 195.043 76.9364C195.189 76.658 195.271 76.351 195.284 76.0372C195.303 75.9188 195.292 75.7976 195.254 75.6842C195.215 75.5707 195.15 75.4682 195.063 75.3856C195.004 75.3368 194.93 75.3101 194.854 75.3101C194.778 75.3101 194.704 75.3368 194.646 75.3856C194.561 75.4572 194.548 75.5289 194.528 75.5289C194.509 75.5289 194.483 75.4377 194.574 75.3139C194.634 75.241 194.717 75.1904 194.809 75.1705C194.933 75.1472 195.061 75.1729 195.167 75.2422C195.289 75.3352 195.385 75.4575 195.446 75.5976C195.508 75.7378 195.533 75.8912 195.519 76.0437C195.52 76.3976 195.435 76.7465 195.271 77.0602C195.145 77.3622 194.932 77.6203 194.66 77.8022C194.387 77.9841 194.068 78.0819 193.74 78.0833C193.639 78.0631 193.543 78.022 193.459 77.9625C193.375 77.903 193.304 77.8265 193.251 77.7379C193.167 77.6011 193.186 77.5164 193.199 77.5164Z" fill="#EB996E"/>
<path d="M195.837 74.3042C195.531 74.1492 195.188 74.0778 194.845 74.0972C194.502 74.1167 194.17 74.2263 193.883 74.415C193.452 74.7929 193.159 75.3142 192.729 75.7182C192.531 75.9285 192.269 76.0669 191.983 76.1117C191.698 76.1566 191.405 76.1052 191.152 75.9659C191.004 75.8336 190.893 75.6644 190.832 75.4756C190.77 75.2868 190.759 75.085 190.8 74.8907C190.888 74.5008 191.049 74.1314 191.276 73.8025C192.169 72.3298 193.192 70.9223 193.961 69.378C194.797 67.8525 195.162 66.1131 195.01 64.3801C194.922 63.5181 194.603 62.696 194.087 61.9999C193.571 61.3039 192.877 60.7598 192.078 60.4247C191.002 60.0468 189.803 60.1576 188.702 59.8448C188.05 59.6491 187.451 59.3082 186.95 58.8477C186.449 58.3872 186.059 57.8192 185.809 57.1862C185.679 56.9309 185.536 56.6829 185.379 56.4433C185.418 56.3651 185.809 55.7005 186.193 55.5702C189.1 54.5862 193.029 55.7135 195.433 57.6097C196.661 58.5635 197.665 59.7736 198.376 61.1557C199.088 62.5378 199.489 64.0585 199.552 65.6116C199.584 68.6742 197.655 72.0496 195.863 74.3303" fill="#263238"/>
<path d="M195.872 73.9453C196.791 72.3814 198.276 71.2541 199.41 69.8466C200.544 68.4391 201.365 66.4517 200.518 64.8356C200.244 64.2818 199.801 63.8191 199.573 63.2457C199.392 62.6503 199.283 62.0357 199.247 61.4146C199.1 60.4655 198.74 59.5621 198.194 58.7721C197.647 57.9821 196.929 57.3261 196.093 56.8533C194.933 56.2017 193.598 55.941 192.418 55.322C190.561 54.3446 189.199 52.5331 187.205 51.7576C186.891 51.6044 186.548 51.5193 186.199 51.5081C185.85 51.4969 185.502 51.5597 185.179 51.6925C185.024 51.7677 184.887 51.8747 184.776 52.0064C184.666 52.1381 184.584 52.2916 184.537 52.457C184.49 52.6223 184.478 52.7958 184.502 52.9661C184.526 53.1364 184.586 53.2997 184.677 53.4453C184.638 53.2952 184.568 53.1554 184.469 53.0356C184.371 52.9158 184.248 52.819 184.108 52.7519C183.968 52.6849 183.815 52.6492 183.66 52.6474C183.506 52.6456 183.352 52.6778 183.211 52.7416C182.934 52.8927 182.707 53.1224 182.56 53.4018C182.413 53.6812 182.351 53.9978 182.383 54.312C182.46 54.9392 182.705 55.5338 183.094 56.0323C184.302 57.745 186.081 58.9716 188.111 59.4924L192.614 59.1405L196.302 61.8708L199.026 66.2171L194.08 72.642L195.872 73.9453Z" fill="#263238"/>
<path d="M167.728 48.3029C167.545 45.4637 166.603 42.7258 165 40.3752C163.398 38.0245 161.193 36.1475 158.617 34.9401C156.041 33.7326 153.187 33.2392 150.355 33.5113C147.523 33.7834 144.816 34.811 142.517 36.4868C140.218 38.1627 138.411 40.4252 137.285 43.038C136.159 45.6508 135.756 48.518 136.117 51.3401C136.477 54.1622 137.59 56.8356 139.337 59.081C141.084 61.3264 143.402 63.0614 146.049 64.1047C146.173 65.9814 146.31 68.1056 146.31 68.1056L160.202 67.2064C160.202 67.2064 160.143 64.9583 160.039 62.9513C162.544 61.4526 164.587 59.2923 165.943 56.708C167.3 54.1237 167.917 51.2155 167.728 48.3029Z" fill="#663AA3"/>
<path d="M155.173 67.4674C155.173 67.4674 155.173 67.3957 155.173 67.2719C155.173 67.1481 155.173 66.9396 155.173 66.692C155.173 66.1902 155.244 65.4409 155.323 64.483C155.401 63.5251 155.512 62.3457 155.727 60.9968C155.964 59.46 156.351 57.9499 156.88 56.4876C157.191 55.6364 157.577 54.8144 158.033 54.031C158.282 53.6033 158.633 53.2448 159.056 52.9884C159.285 52.8608 159.542 52.79 159.804 52.7821C160.065 52.7741 160.325 52.8293 160.562 52.9428C160.812 53.0632 161.006 53.2757 161.103 53.5358C161.21 53.799 161.21 54.0936 161.103 54.3568C160.87 54.8633 160.46 55.2668 159.949 55.4906C159.411 55.7013 158.837 55.803 158.259 55.79C157.682 55.7771 157.113 55.6496 156.585 55.415C156.057 55.1805 155.581 54.8435 155.184 54.4236C154.787 54.0037 154.478 53.5092 154.274 52.9689C154.033 52.3928 153.958 51.7607 154.059 51.1443C154.113 50.8166 154.28 50.5182 154.531 50.3005C154.782 50.0828 155.101 49.9595 155.433 49.9519C155.605 49.9574 155.773 50.0071 155.92 50.0961C156.067 50.1851 156.189 50.3105 156.274 50.4601C156.449 50.7491 156.516 51.0908 156.463 51.4245C156.31 52.0673 155.956 52.6446 155.453 53.0731C154.974 53.5337 154.403 53.888 153.777 54.1125C153.152 54.3371 152.486 54.427 151.823 54.3764C151.159 54.3139 150.52 54.0916 149.961 53.7285C149.402 53.3654 148.938 52.8723 148.611 52.2912C148.443 52.0049 148.336 51.6869 148.296 51.3572C148.257 51.0275 148.287 50.6932 148.383 50.3754C148.43 50.2124 148.513 50.0617 148.624 49.934C148.736 49.8063 148.875 49.7047 149.03 49.6363C149.185 49.568 149.354 49.5345 149.523 49.5384C149.693 49.5422 149.86 49.5833 150.012 49.6586C150.312 49.7974 150.562 50.0249 150.729 50.3103C150.884 50.5884 150.986 50.8935 151.029 51.2095C151.112 51.8198 151.07 52.4407 150.905 53.034C150.599 54.1972 149.86 55.1995 148.839 55.836C147.865 56.4334 146.71 56.6644 145.581 56.4876C145.032 56.4363 144.515 56.2075 144.108 55.836C143.909 55.6419 143.782 55.3859 143.748 55.11C143.713 54.8341 143.774 54.5547 143.919 54.3177C144.088 54.0995 144.336 53.9567 144.61 53.9202C144.87 53.8869 145.135 53.9206 145.379 54.018C145.828 54.2375 146.193 54.5995 146.415 55.0475C146.871 55.8816 147.243 56.6961 147.621 57.4716C149.093 60.5863 150.162 63.1602 150.879 64.9456C151.237 65.8384 151.53 66.5356 151.687 67.0048C151.771 67.2393 151.837 67.4218 151.889 67.5456C151.913 67.6072 151.932 67.6703 151.947 67.7346L151.869 67.5521L151.648 67.0243L150.807 64.9717C150.064 63.1993 148.976 60.6319 147.49 57.5302C147.112 56.7613 146.728 55.9337 146.278 55.1192C146.069 54.7038 145.731 54.3676 145.314 54.1613C145.103 54.0621 144.866 54.0327 144.638 54.0772C144.409 54.1217 144.201 54.2379 144.043 54.409C143.925 54.6157 143.879 54.8559 143.912 55.0917C143.945 55.3276 144.055 55.5459 144.226 55.7122C144.606 56.0587 145.088 56.2715 145.601 56.3182C146.69 56.4803 147.801 56.2493 148.735 55.6666C149.703 55.046 150.401 54.0824 150.69 52.9689C150.849 52.3989 150.889 51.8021 150.807 51.216C150.788 50.9247 150.695 50.6431 150.536 50.3979C150.378 50.1527 150.159 49.9521 149.901 49.815C149.771 49.7554 149.63 49.7245 149.487 49.7245C149.345 49.7245 149.203 49.7554 149.074 49.815C148.942 49.878 148.825 49.9689 148.732 50.0814C148.638 50.1939 148.57 50.3254 148.533 50.4667C148.445 50.7589 148.419 51.0661 148.456 51.3689C148.493 51.6717 148.592 51.9635 148.748 52.226C149.065 52.7729 149.509 53.2358 150.041 53.5759C150.574 53.916 151.181 54.1235 151.81 54.1809C152.445 54.2279 153.083 54.1402 153.681 53.9234C154.28 53.7067 154.826 53.3659 155.284 52.9233C155.75 52.5259 156.08 51.9928 156.228 51.3985C156.274 51.1078 156.216 50.8104 156.066 50.5579C155.996 50.4365 155.896 50.3347 155.777 50.2618C155.657 50.1889 155.521 50.1473 155.381 50.1408C155.094 50.1427 154.817 50.2519 154.606 50.4471C154.394 50.6412 154.252 50.9001 154.202 51.1834C154.106 51.7644 154.176 52.3608 154.404 52.9037C154.599 53.4264 154.896 53.905 155.278 54.3113C155.66 54.7176 156.12 55.0435 156.63 55.2699C157.139 55.4963 157.689 55.6186 158.247 55.6297C158.805 55.6407 159.359 55.5403 159.878 55.3343C160.349 55.1285 160.729 54.7577 160.946 54.2917C161.039 54.072 161.045 53.8252 160.963 53.6012C160.881 53.3773 160.716 53.1931 160.503 53.0862C160.29 52.9831 160.054 52.9328 159.817 52.9396C159.58 52.9464 159.348 53.0101 159.141 53.1253C158.747 53.3677 158.418 53.7034 158.183 54.1027C157.731 54.8758 157.348 55.6869 157.036 56.5267C156.501 57.9751 156.108 59.4722 155.864 60.9968C155.635 62.3457 155.512 63.5186 155.42 64.4765C155.329 65.4344 155.284 66.1707 155.238 66.6855C155.238 66.9266 155.199 67.1221 155.192 67.2589C155.186 67.3957 155.173 67.4674 155.173 67.4674Z" fill="#263238"/>
<path d="M159.294 69.8451L147.37 70.6205C147.131 70.6349 146.897 70.5546 146.718 70.3972C146.539 70.2398 146.429 70.018 146.412 69.7799C146.398 69.5424 146.478 69.3089 146.636 69.1306C146.793 68.9523 147.015 68.8437 147.252 68.8286L159.184 68.0597C159.301 68.0517 159.419 68.067 159.53 68.1046C159.641 68.1423 159.744 68.2016 159.832 68.2791C159.921 68.3566 159.993 68.4508 160.045 68.5562C160.097 68.6617 160.127 68.7764 160.135 68.8937C160.149 69.1313 160.069 69.3648 159.911 69.5431C159.754 69.7214 159.532 69.83 159.294 69.8451Z" fill="#263238"/>
<path d="M159.349 70.627L147.418 71.4024C147.181 71.418 146.96 71.527 146.804 71.7054C146.648 71.8838 146.568 72.117 146.584 72.3538C146.6 72.5906 146.708 72.8114 146.887 72.9679C147.065 73.1243 147.299 73.2034 147.535 73.1879L148.839 73.1032L150.793 76.3026C150.905 76.4811 151.062 76.6263 151.249 76.7226C151.436 76.819 151.646 76.863 151.856 76.85L156.117 76.5763C156.328 76.56 156.531 76.4872 156.704 76.3657C156.877 76.2442 157.014 76.0783 157.101 75.8856L158.574 72.4776L159.466 72.419C159.695 72.3914 159.904 72.2775 160.051 72.1005C160.198 71.9235 160.271 71.697 160.256 71.4675C160.241 71.238 160.139 71.0229 159.97 70.8666C159.801 70.7103 159.579 70.6245 159.349 70.627Z" fill="#263238"/>
<g opacity="0.2">
<path opacity="0.2" d="M141.039 39.8843C141.918 38.9495 142.946 38.1677 144.082 37.571C144.825 37.1645 145.625 36.8703 146.454 36.6979C147.053 36.6001 147.399 36.6327 147.438 36.7565C147.523 37.0432 146.35 37.545 144.831 38.7114C142.803 40.1872 141.243 42.2155 140.336 44.554C139.429 46.8926 139.214 49.4427 139.716 51.9002C140.062 53.8224 140.589 54.9823 140.368 55.1583C140.251 55.2299 139.977 55.0214 139.605 54.5457C139.095 53.8582 138.695 53.0953 138.42 52.2846C137.997 51.0778 137.777 49.8097 137.768 48.5313C137.737 46.9403 138.014 45.3585 138.582 43.8722" fill="white"/>
</g>
<g opacity="0.2">
<path opacity="0.2" d="M151.308 37.1999C150.304 37.252 149.398 37.037 149.261 36.5092C149.203 36.2485 149.372 35.9553 149.718 35.7142C150.165 35.4425 150.671 35.2838 151.194 35.252C151.716 35.2202 152.238 35.3163 152.715 35.5318C153.093 35.7338 153.288 36.0074 153.262 36.2746" fill="white"/>
</g>
<path d="M156.883 76.1792C156.598 76.1293 156.318 76.0619 156.042 75.9772C155.372 75.8356 154.685 75.7938 154.002 75.8533C153.33 75.9258 152.672 76.0948 152.048 76.3551C151.565 76.5636 151.279 76.733 151.266 76.707C151.476 76.5062 151.721 76.345 151.989 76.2313C152.623 75.9224 153.307 75.7304 154.009 75.6644C154.711 75.5965 155.42 75.6584 156.101 75.8468C156.378 75.9126 156.643 76.0249 156.883 76.1792Z" fill="#455A64"/>
<path d="M158.606 72.517C158.606 72.5691 156.456 72.7516 153.791 72.9275C151.126 73.1034 148.975 73.1947 148.969 73.136C148.962 73.0774 151.119 72.9014 153.778 72.732C156.436 72.5626 158.6 72.4648 158.606 72.517Z" fill="#455A64"/>
<path d="M157.945 73.9829C157.562 74.0778 157.172 74.1411 156.778 74.1718C156.055 74.2696 155.051 74.3738 153.937 74.4651C152.823 74.5563 151.819 74.6019 151.09 74.6215C150.697 74.6571 150.302 74.6571 149.91 74.6215C150.296 74.5429 150.689 74.4993 151.083 74.4911L153.924 74.2761L156.765 74.0415C157.156 73.9885 157.551 73.9689 157.945 73.9829Z" fill="#455A64"/>
<path d="M72.0391 153.8L74.6455 157.951C74.6455 157.951 85.7231 147.779 96.6638 150.653C96.6442 150.64 86.7917 142.286 72.0391 153.8Z" fill="#663AA3"/>
<path d="M96.6445 150.639C96.6445 150.639 104.757 141.829 116.656 143.836L119.914 144.325L118.884 142.455C118.884 142.455 98.1693 135.365 96.6445 150.639Z" fill="#663AA3"/>
<path d="M79.52 120.932C79.52 120.932 63.2686 118.137 52.6211 123.904L69.5632 155.755C69.5632 155.755 83.4166 142.403 96.6706 150.627L79.52 120.932Z" fill="#F5F5F5"/>
<path d="M79.5212 120.933C79.5546 120.974 79.5851 121.017 79.6124 121.063L79.8535 121.467L80.7918 123.05L84.3106 129.084L96.7695 150.588C96.7851 150.615 96.7912 150.647 96.787 150.678C96.7828 150.709 96.7685 150.738 96.7463 150.76C96.7241 150.782 96.6952 150.796 96.6641 150.801C96.633 150.805 96.6013 150.799 96.5741 150.783C94.6638 149.602 92.5483 148.791 90.3381 148.392C89.1771 148.204 88.0016 148.121 86.8258 148.144C85.6164 148.197 84.4133 148.35 83.2289 148.6C78.222 149.831 73.6028 152.295 69.7925 155.768L69.6491 155.898C69.6345 155.914 69.6168 155.926 69.5972 155.935C69.5776 155.943 69.5565 155.948 69.5351 155.948C69.5137 155.948 69.4926 155.943 69.473 155.935C69.4534 155.926 69.4357 155.914 69.4211 155.898V155.866L52.4985 123.969C52.4895 123.954 52.4837 123.938 52.4815 123.921C52.4793 123.904 52.4807 123.886 52.4856 123.87C52.4905 123.853 52.4988 123.838 52.51 123.824C52.5212 123.811 52.5351 123.801 52.5506 123.793C55.9466 122.099 59.611 121.008 63.3806 120.568C66.2571 120.214 69.1571 120.087 72.0536 120.19C74.4516 120.274 76.3217 120.463 77.5859 120.62C78.2375 120.698 78.7066 120.77 79.0325 120.828L79.4039 120.893H79.5212H79.3974L79.0259 120.848C78.7001 120.809 78.2179 120.744 77.5793 120.678C76.2761 120.548 74.4385 120.385 72.0471 120.327C69.1621 120.247 66.2753 120.393 63.4131 120.763C59.6748 121.223 56.0439 122.325 52.681 124.021L52.7331 123.845L69.6752 155.696L69.4211 155.651L69.5644 155.52C71.5401 153.755 73.7136 152.224 76.0415 150.959C78.2744 149.729 80.67 148.821 83.1572 148.261C84.3603 148.004 85.5834 147.852 86.8128 147.805C88.0084 147.778 89.204 147.863 90.3837 148.059C92.6286 148.472 94.7767 149.301 96.7174 150.503L96.5154 150.698L84.1933 129.195L80.7267 123.109L79.8209 121.493C79.7232 121.31 79.645 121.174 79.5928 121.069C79.5658 121.025 79.5418 120.98 79.5212 120.933Z" fill="#263238"/>
<path d="M105.062 114.397C105.062 114.397 92.772 106.578 79.7266 120.913L96.8511 150.621C96.8511 150.621 100.344 138.566 120.792 142.756L105.062 114.397Z" fill="#F5F5F5"/>
<path d="M105.061 114.396C105.094 114.433 105.123 114.475 105.146 114.52C105.198 114.618 105.276 114.741 105.367 114.904L106.234 116.416L109.492 122.176L120.915 142.722C120.924 142.738 120.93 142.755 120.932 142.773C120.935 142.791 120.934 142.81 120.929 142.827C120.924 142.845 120.915 142.861 120.904 142.876C120.893 142.89 120.879 142.902 120.863 142.911C120.831 142.923 120.796 142.923 120.765 142.911L117.722 142.409C117.202 142.321 116.678 142.262 116.152 142.233L114.549 142.103C114.005 142.057 113.458 142.044 112.913 142.064L111.264 142.07C110.704 142.07 110.15 142.181 109.59 142.233C109.024 142.28 108.462 142.364 107.909 142.487L106.234 142.865L104.585 143.445C104.043 143.664 103.513 143.91 102.995 144.182C102.727 144.304 102.469 144.45 102.226 144.618L101.477 145.1C100.982 145.433 100.539 145.837 100.076 146.208C99.6396 146.617 99.2283 147.052 98.8445 147.511C98.0558 148.437 97.438 149.497 97.02 150.639C97.0053 150.68 96.975 150.713 96.9359 150.731C96.8968 150.749 96.8521 150.751 96.8115 150.737C96.7754 150.724 96.7453 150.699 96.7267 150.665L96.036 149.473C89.9825 138.949 84.3069 129.142 79.6217 120.951C79.606 120.927 79.5977 120.899 79.5977 120.87C79.5977 120.841 79.606 120.813 79.6217 120.788C82.2081 117.86 85.3629 115.488 88.8943 113.816C91.6344 112.565 94.6383 112.001 97.6455 112.174C99.5663 112.289 101.456 112.711 103.243 113.425C103.711 113.617 104.167 113.835 104.611 114.077L104.95 114.272L105.054 114.35L104.937 114.292L104.592 114.116C104.286 113.966 103.829 113.744 103.217 113.51C100.931 112.64 98.4935 112.237 96.049 112.325C93.6046 112.414 91.2027 112.992 88.9855 114.025C85.4941 115.701 82.3777 118.066 79.8237 120.977V120.821L96.2771 149.362L96.9939 150.541L96.6942 150.58C97.125 149.392 97.7625 148.289 98.5773 147.322C98.9749 146.851 99.3969 146.401 99.8415 145.973C100.324 145.589 100.773 145.172 101.282 144.84L102.044 144.344C102.293 144.174 102.557 144.026 102.832 143.901C103.38 143.647 103.895 143.341 104.455 143.145L106.13 142.565L107.837 142.181C108.399 142.055 108.97 141.97 109.544 141.927C110.111 141.875 110.671 141.771 111.232 141.764H112.906C113.456 141.738 114.007 141.751 114.555 141.803L116.171 141.94C116.702 141.965 117.231 142.024 117.755 142.116L120.817 142.631L120.667 142.839C115.995 134.368 112.092 127.272 109.342 122.274C107.98 119.791 106.905 117.823 106.169 116.468L105.335 114.93C105.25 114.761 105.178 114.631 105.126 114.533C105.074 114.435 105.061 114.396 105.061 114.396Z" fill="#263238"/>
<path d="M57.1836 108.59L75.5137 143.875C75.5137 143.875 90.4032 143.223 96.7108 150.482L79.7296 120.932C79.7296 120.932 69.7729 108.59 57.1836 108.59Z" fill="#F5F5F5"/>
<path d="M57.1862 108.591H57.6554L59.0629 108.649C59.2193 108.649 59.3887 108.649 59.5581 108.649L60.0989 108.74L61.324 108.942C61.7986 109.021 62.2669 109.134 62.725 109.281C63.256 109.409 63.7802 109.563 64.2954 109.744C68.6743 111.204 74.5519 114.735 79.83 120.821L96.8373 150.353C96.8586 150.39 96.8645 150.434 96.8535 150.476C96.8425 150.517 96.8156 150.553 96.7786 150.574C96.7509 150.597 96.7164 150.609 96.6809 150.609C96.6453 150.609 96.6109 150.597 96.5831 150.574L95.8663 149.858C94.5036 148.549 92.9137 147.5 91.1747 146.762C89.4903 146.009 87.7324 145.433 85.9291 145.042C82.5076 144.283 79.0072 143.937 75.5032 144.013C75.4755 144.013 75.4483 144.006 75.4242 143.992C75.4002 143.978 75.3802 143.958 75.3664 143.934C70.0231 133.574 65.4618 124.718 62.2232 118.45C60.6463 115.354 59.3822 112.878 58.4894 111.171C58.0659 110.343 57.7336 109.698 57.5055 109.216L57.2579 108.727L57.1797 108.564C57.2186 108.619 57.2514 108.678 57.2774 108.74L57.5511 109.242L58.5807 111.197L62.3992 118.508L75.627 143.804L75.4902 143.726C79.0176 143.64 82.5423 143.982 85.9878 144.742C87.8102 145.138 89.5875 145.719 91.292 146.476C93.0652 147.232 94.6858 148.306 96.0749 149.643L96.8177 150.372L96.5505 150.561C90.2494 139.582 84.4174 129.403 79.6084 121.004C77.2528 118.254 74.5574 115.815 71.587 113.745C69.3201 112.143 66.8477 110.855 64.2367 109.913C63.7238 109.728 63.2019 109.57 62.6728 109.438C62.2196 109.286 61.7556 109.168 61.2849 109.086L60.0664 108.864L59.5386 108.766L59.0564 108.727L57.1862 108.591Z" fill="#263238"/>
<path d="M114.394 208.666L114.785 209.318C115.227 210.051 115.869 210.644 116.636 211.025L117.288 211.364L116.636 211.755C115.904 212.199 115.313 212.84 114.929 213.605L114.59 214.289L114.199 213.638C113.757 212.904 113.115 212.312 112.348 211.931L111.664 211.592L112.316 211.201C113.051 210.761 113.644 210.119 114.023 209.35L114.394 208.666Z" fill="#663AA3"/>
<path d="M78.2681 74.2559L78.659 74.9075C79.1011 75.6392 79.7432 76.2293 80.5096 76.6082L81.1612 76.9471L80.5096 77.3445C79.7731 77.7828 79.1799 78.4257 78.8024 79.1951L78.4635 79.8468L78.0726 79.1951C77.6303 78.4596 76.9856 77.8669 76.2154 77.4879L75.5312 77.1491L76.1829 76.7581C76.9152 76.3118 77.5069 75.6682 77.8901 74.901L78.2681 74.2559Z" fill="#663AA3"/>
<path d="M245.459 97.4473L245.85 98.0989C246.293 98.8345 246.937 99.4271 247.708 99.8061L248.392 100.145L247.74 100.536C247.008 100.98 246.418 101.625 246.039 102.393L245.701 103.045L245.303 102.393C244.863 101.66 244.22 101.069 243.452 100.692L242.762 100.367L243.413 99.969C244.15 99.5308 244.743 98.8878 245.121 98.1184L245.459 97.4473Z" fill="#663AA3"/>
<path d="M225.719 217.104L226.109 217.756C226.554 218.488 227.198 219.078 227.967 219.457L228.651 219.796L227.999 220.193C227.266 220.635 226.673 221.277 226.292 222.044L225.96 222.728L225.562 222.076C225.122 221.341 224.48 220.748 223.712 220.369L223.027 220.03L223.679 219.639C224.415 219.197 225.007 218.552 225.386 217.782L225.719 217.104Z" fill="#663AA3"/>
<path d="M229.475 242.249L229.664 242.327C229.872 242.408 230.097 242.431 230.316 242.392L230.518 242.353L230.44 242.542C230.359 242.749 230.336 242.975 230.375 243.194L230.414 243.396L230.225 243.318C230.017 243.237 229.792 243.215 229.573 243.253L229.371 243.292L229.449 243.103C229.53 242.895 229.553 242.67 229.514 242.451L229.475 242.249Z" fill="#663AA3"/>
<path d="M240.846 72.2236L241.029 72.3018C241.236 72.3816 241.461 72.4041 241.681 72.367L241.876 72.3279L241.804 72.5169C241.72 72.7233 241.698 72.9495 241.739 73.1685L241.778 73.3705L241.589 73.2923C241.382 73.2125 241.157 73.19 240.938 73.2271L240.742 73.2662L240.814 73.0773C240.898 72.8708 240.92 72.6446 240.879 72.4256L240.846 72.2236Z" fill="#663AA3"/>
<path d="M85.6121 56.708L85.801 56.7797C86.0075 56.8635 86.2337 56.8862 86.4527 56.8448H86.6547L86.5765 57.0273C86.4967 57.2347 86.4741 57.4598 86.5113 57.6789L86.5504 57.8744L86.3614 57.8027C86.155 57.7189 85.9288 57.6962 85.7098 57.7376H85.5078L85.586 57.5551C85.6658 57.3477 85.6883 57.1226 85.6512 56.9035L85.6121 56.708Z" fill="#663AA3"/>
<path d="M104.749 189.091L104.938 189.162C105.143 189.249 105.371 189.272 105.589 189.228L105.791 189.195L105.713 189.384C105.632 189.591 105.61 189.817 105.648 190.036L105.687 190.231L105.498 190.159C105.292 190.076 105.065 190.053 104.847 190.094L104.645 190.133L104.723 189.944C104.803 189.737 104.825 189.512 104.788 189.293L104.749 189.091Z" fill="#663AA3"/>
<path d="M125.546 240.263L125.363 240.452L124.823 240.993L122.718 243.071L114.898 250.61V250.532C115.309 258.71 115.83 269.788 116.378 282.168V282.442L116.143 282.292L113.321 280.402L95.441 268.432H95.4019V268.393C92.7303 260.424 90.4822 253.699 88.8857 248.955C88.1038 246.596 87.4913 244.733 87.0612 243.443L86.592 241.976C86.5399 241.82 86.5008 241.696 86.4747 241.605C86.4747 241.514 86.4356 241.475 86.4421 241.475L86.4943 241.592L86.6311 241.963C86.7484 242.309 86.9178 242.791 87.1394 243.417L89.0291 248.91C90.6451 253.647 92.9388 260.352 95.6365 268.308L95.5844 268.243L113.484 280.194L116.306 282.077L116.084 282.201C115.557 269.82 115.081 258.743 114.729 250.552V250.506H114.762L122.633 243.039L124.777 241.025L125.337 240.51C125.474 240.315 125.546 240.263 125.546 240.263Z" fill="#663AA3"/>
<path d="M117.216 278.422L117.157 280.266L118.649 281.361L116.877 281.875L116.297 283.628L115.254 282.104L113.41 282.097L114.544 280.637L113.977 278.878L115.717 279.504L117.216 278.422Z" fill="#663AA3"/>
<path d="M95.6726 265.904L95.7117 267.097L96.7152 267.748L95.5879 268.146L95.2817 269.306L94.5518 268.361L93.3594 268.426L94.0305 267.436L93.6005 266.321L94.7473 266.66L95.6726 265.904Z" fill="#663AA3"/>
<path d="M86.3948 239.233L87.294 240.393L88.7602 240.302L87.9391 241.521L88.4735 242.882L87.066 242.478L85.9321 243.41L85.88 241.944L84.6484 241.156L86.0234 240.654L86.3948 239.233Z" fill="#663AA3"/>
<path d="M124.633 238.08L125.539 239.233L126.998 239.149L126.177 240.361L126.712 241.729L125.304 241.319L124.17 242.25L124.125 240.784L122.887 239.996L124.268 239.494L124.633 238.08Z" fill="#663AA3"/>
<path d="M114.601 249.248L115.175 249.991L116.106 249.932L115.585 250.708L115.924 251.581L115.025 251.32L114.302 251.913L114.269 250.981L113.48 250.473L114.36 250.154L114.601 249.248Z" fill="#663AA3"/>
<path d="M80.1144 199.968C87.2904 199.968 93.1077 194.151 93.1077 186.975C93.1077 179.799 87.2904 173.981 80.1144 173.981C72.9384 173.981 67.1211 179.799 67.1211 186.975C67.1211 194.151 72.9384 199.968 80.1144 199.968Z" fill="#663AA3"/>
<g opacity="0.3">
<path opacity="0.3" d="M78.4243 191.028C78.4256 191.449 78.302 191.86 78.069 192.211C77.8361 192.561 77.5044 192.834 77.116 192.996C76.7276 193.157 76.2999 193.2 75.8872 193.118C75.4746 193.036 75.0954 192.834 74.798 192.537C74.5005 192.239 74.298 191.86 74.2163 191.447C74.1345 191.035 74.1771 190.607 74.3387 190.218C74.5003 189.83 74.7736 189.498 75.1239 189.265C75.4743 189.033 75.8859 188.909 76.3066 188.91C76.8677 188.912 77.4054 189.136 77.8022 189.532C78.1989 189.929 78.4226 190.467 78.4243 191.028Z" fill="white"/>
</g>
<g opacity="0.3">
<path opacity="0.3" d="M75.4254 184.916C75.4266 185.161 75.3551 185.401 75.2199 185.606C75.0846 185.81 74.8917 185.97 74.6656 186.065C74.4395 186.159 74.1904 186.185 73.9498 186.138C73.7092 186.091 73.488 185.973 73.3142 185.8C73.1404 185.628 73.0218 185.407 72.9735 185.167C72.9252 184.926 72.9493 184.677 73.0428 184.45C73.1363 184.224 73.295 184.03 73.4988 183.894C73.7025 183.757 73.9421 183.685 74.1873 183.685C74.5145 183.685 74.8284 183.814 75.0604 184.045C75.2924 184.276 75.4236 184.589 75.4254 184.916Z" fill="white"/>
</g>
<path d="M67.5057 190.135C67.5643 190.363 56.3825 201.088 59.2692 203.375C62.1559 205.663 74.2565 199.798 84.6107 191.451C94.9649 183.104 104.387 172.964 101.8 170.28C99.2135 167.595 86.2984 175.538 86.2984 175.538L87.8427 176.529C87.8427 176.529 95.6622 171.518 98.1253 173.46C100.588 175.401 93.5639 182.999 83.6137 190.258C73.6635 197.517 64.0651 202.6 62.586 200.613C61.1068 198.625 68.1247 191.998 68.1247 191.998L67.5057 190.135Z" fill="#663AA3"/>
<g opacity="0.3">
<path opacity="0.3" d="M67.5057 190.135C67.5643 190.363 56.3825 201.088 59.2692 203.375C62.1559 205.663 74.2565 199.798 84.6107 191.451C94.9649 183.104 104.387 172.964 101.8 170.28C99.2135 167.595 86.2984 175.538 86.2984 175.538L87.8427 176.529C87.8427 176.529 95.6622 171.518 98.1253 173.46C100.588 175.401 93.5639 182.999 83.6137 190.258C73.6635 197.517 64.0651 202.6 62.586 200.613C61.1068 198.625 68.1247 191.998 68.1247 191.998L67.5057 190.135Z" fill="black"/>
</g>
<g opacity="0.3">
<path opacity="0.3" d="M72.9543 177.82C73.0586 177.944 72.1789 178.693 71.1819 180.192C69.8593 182.118 69.1297 184.389 69.0834 186.724C69.0371 189.06 69.676 191.358 70.9213 193.335C71.8596 194.879 72.7067 195.661 72.596 195.779C72.4852 195.896 71.4882 195.27 70.3283 193.733C69.6584 192.833 69.1269 191.838 68.7514 190.781C67.8006 188.149 67.8586 185.259 68.9143 182.668C69.33 181.624 69.9012 180.648 70.6085 179.775C71.827 178.289 72.8957 177.729 72.9543 177.82Z" fill="white"/>
</g>
<path d="M230.751 72.9621C235.02 68.8601 235.155 62.0745 231.053 57.8059C226.951 53.5374 220.165 53.4024 215.897 57.5044C211.628 61.6063 211.493 68.392 215.595 72.6605C219.697 76.9291 226.483 77.0641 230.751 72.9621Z" fill="#663AA3"/>
<g opacity="0.4">
<path opacity="0.4" d="M226.821 61.1414C226.829 60.7961 226.939 60.4609 227.137 60.1782C227.335 59.8954 227.613 59.6778 227.935 59.5529C228.257 59.4279 228.609 59.4012 228.946 59.4762C229.283 59.5512 229.59 59.7244 229.829 59.974C230.068 60.2236 230.227 60.5384 230.287 60.8785C230.347 61.2187 230.304 61.5689 230.165 61.8849C230.026 62.201 229.796 62.4687 229.505 62.6541C229.213 62.8396 228.873 62.9345 228.528 62.9268C228.299 62.9226 228.072 62.873 227.862 62.7808C227.651 62.6886 227.461 62.5557 227.303 62.3897C227.144 62.2237 227.02 62.028 226.937 61.8137C226.854 61.5995 226.815 61.371 226.821 61.1414Z" fill="black"/>
</g>
<g opacity="0.4">
<path opacity="0.4" d="M230.313 65.219C230.317 65.0164 230.381 64.8196 230.497 64.6535C230.613 64.4873 230.775 64.3593 230.964 64.2857C231.153 64.2121 231.359 64.1962 231.557 64.24C231.755 64.2838 231.935 64.3854 232.075 64.5318C232.215 64.6782 232.308 64.8629 232.343 65.0625C232.378 65.2621 232.353 65.4675 232.271 65.6528C232.189 65.838 232.054 65.9948 231.883 66.1032C231.712 66.2116 231.512 66.2667 231.31 66.2616C231.176 66.259 231.044 66.23 230.921 66.1762C230.798 66.1223 230.687 66.0447 230.594 65.9478C230.502 65.8509 230.429 65.7366 230.381 65.6115C230.332 65.4864 230.309 65.353 230.313 65.219Z" fill="black"/>
</g>
<g opacity="0.4">
<path opacity="0.4" d="M228.947 68.3489C228.996 68.3488 229.045 68.3587 229.09 68.3778C229.135 68.397 229.176 68.425 229.21 68.4603C229.244 68.4956 229.27 68.5374 229.288 68.5832C229.306 68.6289 229.314 68.6778 229.312 68.7268C229.309 68.8265 229.267 68.921 229.195 68.9903C229.123 69.0596 229.027 69.0983 228.927 69.0982C228.828 69.0948 228.735 69.0526 228.666 68.9807C228.598 68.9088 228.561 68.8129 228.563 68.7138C228.563 68.6644 228.574 68.6157 228.594 68.5706C228.614 68.5254 228.642 68.4846 228.678 68.4507C228.714 68.4167 228.756 68.3902 228.802 68.3727C228.849 68.3552 228.898 68.3471 228.947 68.3489Z" fill="black"/>
</g>
</g>
</svg>
