<svg width="340" height="389" viewBox="0 0 340 389" fill="none" xmlns="http://www.w3.org/2000/svg">
<rect width="340" height="389" fill="white"/>
<rect x="0.5" y="0.5" width="339" height="388" stroke="white" stroke-opacity="0.3"/>
<g clip-path="url(#clip0_2234_40107)">
<path d="M212.12 265.384C232.683 260.859 251.34 249.772 261.368 232.572C277.486 204.94 261.943 191.7 268.851 166.947C272.708 153.131 284.486 146.735 292.384 135.803C326.187 89.0255 273.157 16.0033 219.23 23.2105C212.1 24.0865 205.235 26.4539 199.081 30.1587C192.093 34.4416 185.611 40.9005 177.04 41.6719C167.777 42.4893 158.429 37.6423 150.294 33.8545C129.813 24.3388 102.014 19.3248 80.1621 27.5222C63.8422 33.6012 56.8249 48.2229 55.8578 64.8248C54.8907 81.4268 61.8504 99.4852 58.7361 115.713C55.5469 132.303 42.8594 145.814 38.755 162.399C36.0408 173.438 36.5036 185.019 40.0901 195.806C43.6765 206.592 50.2404 216.145 59.0239 223.361C79.1029 239.819 104.564 235.099 127.625 243.578C140.865 248.448 150.041 259.581 163.978 263.836C179.469 268.579 196.318 268.838 212.12 265.384Z" fill="#F0F0F0"/>
<path opacity="0.7" d="M212.12 265.384C232.683 260.859 251.34 249.772 261.368 232.572C277.486 204.94 261.943 191.7 268.851 166.947C272.708 153.131 284.486 146.735 292.384 135.803C326.187 89.0255 273.157 16.0033 219.23 23.2105C212.1 24.0865 205.235 26.4539 199.081 30.1587C192.093 34.4416 185.611 40.9005 177.04 41.6719C167.777 42.4893 158.429 37.6423 150.294 33.8545C129.813 24.3388 102.014 19.3248 80.1621 27.5222C63.8422 33.6012 56.8249 48.2229 55.8578 64.8248C54.8907 81.4268 61.8504 99.4852 58.7361 115.713C55.5469 132.303 42.8594 145.814 38.755 162.399C36.0408 173.438 36.5036 185.019 40.0901 195.806C43.6765 206.592 50.2404 216.145 59.0239 223.361C79.1029 239.819 104.564 235.099 127.625 243.578C140.865 248.448 150.041 259.581 163.978 263.836C179.469 268.579 196.318 268.838 212.12 265.384Z" fill="#F0F0F0"/>
<path d="M169.551 287.834C213.266 287.834 248.704 285.515 248.704 282.654C248.704 279.792 213.266 277.473 169.551 277.473C125.836 277.473 90.3984 279.792 90.3984 282.654C90.3984 285.515 125.836 287.834 169.551 287.834Z" fill="#263238"/>
<path d="M90.9746 246.67C92.0798 247.148 94.7797 247.09 94.7797 247.09C94.7797 247.09 94.204 245.323 94.1522 245.214C93.5765 243.976 91.6884 241.932 90.1629 242.14C89.9081 242.18 89.6648 242.274 89.4492 242.416C89.2336 242.557 89.0506 242.743 88.9124 242.961C88.7741 243.179 88.6837 243.424 88.6472 243.679C88.6107 243.934 88.6289 244.194 88.7007 244.442C88.9482 245.473 90.0305 246.256 90.9746 246.67Z" fill="#263238"/>
<path d="M91.9025 254.482C93.0538 254.648 95.4543 253.952 95.65 253.906C96.0453 255.28 96.5319 256.626 97.1064 257.935C97.4403 258.701 97.7972 259.467 98.1656 260.238C97.9469 259.922 97.7454 259.662 97.7109 259.593C96.8128 258.557 94.4699 257.078 93.0538 257.682C92.8216 257.788 92.6143 257.942 92.4455 258.134C92.2768 258.326 92.1503 258.551 92.0742 258.795C91.9982 259.039 91.9744 259.296 92.0043 259.549C92.0342 259.803 92.1172 260.047 92.2479 260.267C92.7717 261.217 94.0209 261.689 95.0398 261.833C96.0587 261.977 98.1311 261.43 98.678 261.257C98.8219 261.551 98.96 261.833 99.1039 262.126C99.8063 263.519 100.503 264.901 101.153 266.277C101.378 266.76 101.585 267.25 101.798 267.733C101.602 267.445 101.435 267.209 101.407 267.158C100.509 266.121 98.1599 264.642 96.7438 265.241C96.5121 265.348 96.3055 265.502 96.1373 265.694C95.969 265.886 95.8429 266.11 95.7669 266.354C95.691 266.598 95.667 266.854 95.6964 267.108C95.7258 267.361 95.8081 267.606 95.9378 267.825C96.4617 268.781 97.7166 269.247 98.7298 269.397C99.7429 269.547 101.608 269.046 102.27 268.867C102.466 269.368 102.667 269.875 102.846 270.37C102.949 270.715 103.082 271.032 103.168 271.383C103.254 271.734 103.358 272.068 103.456 272.408C103.611 273.064 103.778 273.743 103.916 274.382C104.014 274.831 104.101 275.263 104.193 275.695C103.968 275.205 103.513 274.267 103.467 274.192C102.736 273.041 100.641 271.21 99.1558 271.59C98.91 271.66 98.6818 271.781 98.4859 271.945C98.2899 272.11 98.1306 272.313 98.0183 272.543C97.9059 272.772 97.8431 273.023 97.8337 273.278C97.8244 273.533 97.8688 273.788 97.9641 274.025C98.3383 275.044 99.5012 275.7 100.486 276C101.562 276.328 103.939 276 104.25 276C104.394 276.713 104.527 277.41 104.642 278.066C104.901 279.517 105.091 280.824 105.217 281.923H106.225C106.046 280.772 105.816 279.425 105.517 277.894C105.373 277.168 105.206 276.397 105.027 275.591C105.747 275.303 106.449 274.973 107.129 274.601C107.917 275.453 109.932 276.454 110.191 276.581C109.915 277.255 109.644 277.905 109.374 278.521C108.798 279.805 108.291 280.939 107.819 281.906H108.913C109.31 281.014 109.754 280 110.214 278.872C110.496 278.193 110.79 277.456 111.072 276.696C111.36 276.754 113.726 277.237 114.831 276.99C115.827 276.759 117.041 276.195 117.485 275.205C117.598 274.977 117.662 274.727 117.673 274.472C117.683 274.217 117.639 273.963 117.545 273.726C117.45 273.49 117.307 273.275 117.124 273.098C116.941 272.92 116.723 272.783 116.483 272.695C115.027 272.206 112.805 273.847 111.987 274.963C111.941 275.027 111.498 275.792 111.227 276.282C111.342 275.971 111.458 275.672 111.573 275.349C111.803 274.716 112.016 274.077 112.252 273.386C112.35 273.052 112.453 272.713 112.557 272.373C112.661 272.033 112.736 271.665 112.828 271.308C113.029 270.473 113.185 269.621 113.328 268.758C113.904 268.959 115.867 269.65 116.898 269.581C117.928 269.512 119.2 269.132 119.776 268.222C119.922 268.013 120.023 267.776 120.072 267.525C120.121 267.275 120.116 267.017 120.058 266.768C120.001 266.52 119.892 266.286 119.738 266.082C119.584 265.878 119.389 265.709 119.166 265.586C117.796 264.878 115.349 266.162 114.376 267.146C114.313 267.209 113.697 267.981 113.363 268.412C113.444 267.894 113.53 267.376 113.593 266.847C113.783 265.321 113.927 263.773 114.077 262.241C114.123 261.769 114.175 261.297 114.226 260.825C114.422 260.9 116.759 261.769 117.911 261.689C118.935 261.62 120.213 261.246 120.789 260.336C120.935 260.127 121.036 259.889 121.084 259.638C121.132 259.387 121.127 259.129 121.069 258.88C121.011 258.632 120.901 258.398 120.747 258.194C120.592 257.991 120.397 257.822 120.173 257.699C118.809 256.991 116.362 258.275 115.389 259.259C115.314 259.334 114.422 260.445 114.238 260.739C114.347 259.703 114.468 258.667 114.629 257.653C114.836 256.292 115.132 254.946 115.516 253.624C115.602 253.658 118.043 254.579 119.223 254.499C120.242 254.424 121.526 254.05 122.101 253.14C122.248 252.931 122.349 252.694 122.398 252.443C122.446 252.193 122.442 251.935 122.384 251.686C122.327 251.437 122.217 251.204 122.064 251C121.91 250.796 121.715 250.627 121.491 250.504C120.121 249.796 117.675 251.079 116.702 252.064C116.627 252.139 115.666 253.342 115.51 253.572C115.51 253.491 115.55 253.411 115.574 253.33C115.994 252.005 116.531 250.72 117.18 249.491C117.531 248.806 117.899 248.172 118.279 247.562C118.717 247.781 120.72 248.754 121.791 248.8C122.861 248.846 124.128 248.61 124.819 247.769C124.987 247.578 125.114 247.353 125.19 247.109C125.266 246.865 125.29 246.608 125.26 246.355C125.23 246.101 125.147 245.857 125.016 245.637C124.886 245.418 124.711 245.228 124.502 245.081C123.218 244.229 120.639 245.254 119.569 246.106C119.511 246.152 118.993 246.681 118.578 247.09C118.757 246.82 118.93 246.514 119.102 246.278C119.747 245.311 120.392 244.459 120.973 243.717C121.307 243.296 121.618 242.922 121.912 242.565C122.447 242.565 124.623 242.491 125.573 242.047C126.523 241.604 127.564 240.798 127.789 239.745C127.849 239.497 127.857 239.239 127.812 238.988C127.767 238.737 127.669 238.499 127.526 238.288C127.383 238.077 127.197 237.898 126.981 237.763C126.764 237.629 126.522 237.541 126.269 237.505C124.738 237.344 122.925 239.44 122.366 240.689C122.314 240.798 121.756 242.583 121.791 242.583H121.825C121.532 242.911 121.25 243.262 120.904 243.659C120.328 244.396 119.632 245.231 118.97 246.186C118.24 247.211 117.571 248.278 116.967 249.381C116.276 250.61 115.698 251.899 115.24 253.232C115.24 253.232 115.24 253.267 115.24 253.284C115.24 252.835 115.24 251.557 115.211 251.477C115.038 250.112 113.898 247.591 112.384 247.309C112.131 247.269 111.872 247.283 111.624 247.35C111.376 247.418 111.146 247.537 110.948 247.701C110.75 247.864 110.589 248.067 110.475 248.297C110.361 248.528 110.298 248.779 110.289 249.036C110.197 250.118 110.98 251.2 111.745 251.914C112.609 252.685 115.004 253.428 115.199 253.486C114.771 254.855 114.433 256.251 114.186 257.665C114.042 258.488 113.921 259.317 113.806 260.158C113.806 259.766 113.806 259.415 113.806 259.369C113.628 258.005 112.488 255.483 110.974 255.201C110.72 255.161 110.461 255.175 110.214 255.243C109.966 255.31 109.736 255.43 109.538 255.593C109.339 255.756 109.178 255.96 109.065 256.19C108.951 256.42 108.888 256.672 108.879 256.928C108.787 258.01 109.575 259.093 110.335 259.778C111.095 260.463 113.138 261.148 113.68 261.32L113.559 262.282C113.375 263.824 113.196 265.361 112.983 266.887C112.908 267.417 112.81 267.935 112.718 268.459C112.718 268.113 112.718 267.82 112.718 267.773C112.546 266.415 111.406 263.888 109.892 263.606C109.639 263.568 109.38 263.583 109.133 263.651C108.886 263.72 108.657 263.839 108.459 264.002C108.261 264.165 108.1 264.368 107.986 264.597C107.872 264.826 107.807 265.077 107.796 265.333C107.704 266.409 108.487 267.497 109.253 268.176C110.018 268.856 111.861 269.483 112.5 269.69C112.39 270.22 112.275 270.75 112.143 271.256C112.045 271.602 111.976 271.941 111.855 272.281C111.734 272.621 111.636 272.96 111.532 273.294C111.302 273.927 111.066 274.584 110.824 275.199C110.663 275.625 110.496 276.028 110.329 276.437C110.416 275.913 110.554 274.877 110.56 274.785C110.544 273.571 110.217 272.382 109.61 271.331C109.621 271.197 109.621 271.062 109.61 270.928C109.578 270.674 109.493 270.43 109.36 270.212C109.228 269.993 109.051 269.805 108.84 269.659C108.63 269.513 108.392 269.414 108.14 269.367C107.889 269.32 107.631 269.326 107.382 269.385C105.897 269.777 104.958 272.385 104.889 273.755C104.889 273.835 104.935 274.722 104.976 275.274C104.901 274.952 104.832 274.641 104.751 274.307C104.596 273.651 104.423 273 104.239 272.298L103.928 271.279C103.836 270.94 103.692 270.588 103.571 270.243C103.277 269.437 102.938 268.637 102.581 267.843C103.157 267.704 105.194 267.186 106.035 266.559C106.875 265.931 107.67 264.809 107.67 263.738C107.677 263.483 107.63 263.229 107.533 262.993C107.436 262.757 107.29 262.544 107.104 262.368C106.919 262.192 106.699 262.057 106.458 261.971C106.217 261.886 105.961 261.853 105.707 261.873C104.181 262.04 102.828 264.475 102.575 265.816C102.575 265.903 102.466 266.887 102.431 267.434C102.213 266.956 101.994 266.478 101.758 266C101.073 264.625 100.342 263.255 99.6163 261.885C99.3918 261.464 99.173 261.038 98.9543 260.618C99.1615 260.572 101.591 260.008 102.506 259.306C103.324 258.684 104.187 257.665 104.175 256.577C104.182 256.322 104.135 256.069 104.037 255.833C103.939 255.598 103.793 255.386 103.608 255.21C103.423 255.035 103.203 254.9 102.963 254.816C102.722 254.731 102.467 254.697 102.213 254.718C100.687 254.879 99.3342 257.314 99.0809 258.661C99.0809 258.759 98.9313 260.181 98.914 260.543C98.4362 259.616 97.9641 258.69 97.5382 257.757C96.9553 256.499 96.4534 255.205 96.0357 253.883C96.1336 253.883 98.6722 253.307 99.6105 252.565C100.422 251.937 101.286 250.918 101.28 249.836C101.286 249.58 101.239 249.326 101.141 249.09C101.043 248.854 100.896 248.641 100.711 248.465C100.525 248.289 100.305 248.154 100.063 248.069C99.8224 247.984 99.5661 247.951 99.3112 247.971C97.7857 248.138 96.4329 250.573 96.1854 251.914C96.1854 252.023 96.0242 253.549 96.0184 253.825C96.0184 253.75 95.9609 253.676 95.9378 253.595C95.5578 252.258 95.2977 250.891 95.1607 249.508C95.0743 248.742 95.034 248.011 95.0168 247.292C95.5003 247.234 97.7109 246.94 98.6262 246.388C99.5414 245.835 100.468 244.937 100.583 243.855C100.618 243.604 100.6 243.348 100.53 243.104C100.46 242.86 100.34 242.634 100.177 242.439C100.015 242.245 99.8132 242.086 99.5857 241.974C99.3582 241.862 99.1098 241.799 98.8564 241.788C97.3194 241.788 95.7364 244.062 95.3104 245.363C95.3104 245.438 95.1319 246.186 95.0283 246.733C95.0283 246.405 95.0283 246.077 95.0283 245.766C95.0283 244.615 95.1031 243.538 95.1722 242.594C95.2183 242.059 95.2701 241.575 95.3276 241.126C95.7709 240.821 97.5497 239.566 98.0965 238.668C98.6434 237.77 99.0637 236.533 98.6722 235.519C98.5862 235.279 98.4506 235.06 98.2742 234.875C98.0979 234.691 97.8847 234.546 97.6485 234.449C97.4123 234.352 97.1585 234.306 96.9034 234.314C96.6484 234.322 96.3978 234.384 96.1681 234.495C94.8038 235.197 94.4411 237.949 94.6714 239.301C94.6714 239.417 95.2067 241.213 95.247 241.195C95.1895 241.627 95.1319 242.093 95.0743 242.606C94.9822 243.544 94.8844 244.609 94.8556 245.778C94.8134 247.035 94.8442 248.294 94.9477 249.548C95.0571 250.951 95.2902 252.342 95.6442 253.704V253.756C95.4025 253.376 94.6887 252.334 94.6253 252.26C93.7273 251.223 91.3844 249.744 89.9683 250.348C89.736 250.455 89.5288 250.609 89.36 250.8C89.1912 250.992 89.0647 251.217 88.9887 251.461C88.9127 251.705 88.8889 251.962 88.9188 252.215C88.9487 252.469 89.0317 252.714 89.1623 252.933C89.6401 253.871 90.8893 254.332 91.9025 254.482Z" fill="#263238"/>
<path d="M118.261 247.263C118.261 247.263 118.75 245.467 118.767 245.351C118.957 243.993 118.525 241.253 117.138 240.585C116.905 240.48 116.653 240.426 116.398 240.425C116.143 240.424 115.89 240.477 115.657 240.58C115.423 240.683 115.214 240.834 115.043 241.024C114.871 241.213 114.742 241.436 114.663 241.679C114.294 242.698 114.761 243.953 115.319 244.81C115.975 245.812 118.261 247.257 118.261 247.263Z" fill="#263238"/>
<path d="M224.937 251.355C225.898 251.776 228.235 251.718 228.235 251.718C228.235 251.718 227.734 250.187 227.688 250.095C227.176 249.024 225.553 247.251 224.234 247.429C224.016 247.464 223.807 247.545 223.621 247.666C223.436 247.788 223.278 247.947 223.159 248.133C223.039 248.319 222.96 248.529 222.928 248.748C222.895 248.967 222.908 249.191 222.968 249.404C223.187 250.319 224.125 250.993 224.937 251.355Z" fill="#263238"/>
<path d="M225.748 258.131C226.738 258.275 228.828 257.67 228.989 257.619C229.335 258.813 229.758 259.984 230.255 261.124C230.543 261.792 230.831 262.448 231.176 263.11C230.981 262.828 230.814 262.581 230.785 262.535C230.002 261.631 227.97 260.353 226.755 260.871C226.554 260.964 226.375 261.097 226.229 261.263C226.083 261.43 225.974 261.624 225.908 261.836C225.843 262.047 225.822 262.269 225.848 262.489C225.874 262.709 225.946 262.92 226.059 263.11C226.508 263.939 227.596 264.348 228.477 264.475C229.357 264.601 231.159 264.124 231.631 263.991L232.005 264.745C232.581 265.948 233.214 267.146 233.778 268.343C233.974 268.763 234.153 269.184 234.354 269.604L234.014 269.12C233.232 268.222 231.199 266.939 229.985 267.457C229.783 267.549 229.603 267.683 229.457 267.849C229.31 268.016 229.201 268.212 229.135 268.424C229.069 268.635 229.049 268.859 229.075 269.079C229.102 269.299 229.174 269.511 229.288 269.702C229.737 270.525 230.825 270.934 231.706 271.06C232.587 271.187 234.21 270.755 234.774 270.6C234.947 271.037 235.12 271.475 235.264 271.906C235.361 272.2 235.471 272.482 235.551 272.782C235.632 273.081 235.713 273.357 235.799 273.668C235.931 274.244 236.075 274.819 236.196 275.395C236.283 275.786 236.357 276.155 236.432 276.546C236.242 276.126 235.857 275.309 235.811 275.245C235.177 274.238 233.358 272.666 232.069 272.994C231.856 273.054 231.657 273.159 231.487 273.3C231.317 273.442 231.179 273.618 231.082 273.817C230.984 274.016 230.93 274.233 230.923 274.455C230.915 274.676 230.955 274.896 231.038 275.101C231.361 275.988 232.368 276.552 233.22 276.828C234.158 277.116 236.231 276.857 236.49 276.828C236.611 277.444 236.726 278.049 236.824 278.619C237.048 279.879 237.215 281.008 237.342 281.963H238.217C238.061 280.979 237.866 279.799 237.601 278.475C237.48 277.847 237.336 277.174 237.181 276.489C237.803 276.238 238.41 275.951 239 275.631C239.803 276.326 240.698 276.907 241.659 277.358C241.417 277.934 241.181 278.509 240.951 279.039C240.468 280.15 240.007 281.14 239.604 281.975H240.548C240.894 281.203 241.279 280.323 241.699 279.344C241.947 278.768 242.195 278.112 242.442 277.456C242.695 277.508 244.745 277.928 245.7 277.709C246.57 277.513 247.617 277.024 248.003 276.166C248.1 275.967 248.155 275.75 248.163 275.529C248.171 275.307 248.133 275.087 248.05 274.881C247.968 274.675 247.843 274.489 247.684 274.335C247.525 274.18 247.336 274.061 247.128 273.985C245.867 273.564 243.939 274.998 243.231 275.953C243.19 276.011 242.805 276.673 242.569 277.105C242.672 276.834 242.77 276.575 242.874 276.293C243.075 275.746 243.26 275.194 243.449 274.595C243.536 274.301 243.622 274.019 243.714 273.714C243.806 273.409 243.87 273.098 243.95 272.787C244.123 272.068 244.261 271.331 244.382 270.582C244.866 270.755 246.587 271.354 247.473 271.291C248.36 271.227 249.477 270.905 249.989 270.139C250.119 269.957 250.209 269.75 250.252 269.531C250.296 269.312 250.293 269.086 250.243 268.869C250.193 268.651 250.097 268.446 249.962 268.268C249.827 268.091 249.656 267.943 249.459 267.837C248.274 267.226 246.149 268.349 245.309 269.189C245.251 269.241 244.733 269.915 244.428 270.289C244.497 269.834 244.572 269.385 244.63 268.93C244.791 267.606 244.917 266.265 245.05 264.901C245.09 264.492 245.13 264.083 245.176 263.675C245.349 263.738 247.375 264.498 248.371 264.423C249.258 264.365 250.369 264.037 250.887 263.272C251.017 263.09 251.106 262.882 251.149 262.663C251.193 262.443 251.189 262.217 251.138 262C251.088 261.782 250.991 261.577 250.856 261.4C250.72 261.222 250.548 261.075 250.352 260.969C249.2 260.359 247.047 261.481 246.201 262.322C246.138 262.385 245.366 263.352 245.182 263.606C245.28 262.707 245.384 261.809 245.522 260.934C245.699 259.745 245.955 258.568 246.287 257.411C246.368 257.44 248.481 258.24 249.5 258.166C250.386 258.108 251.503 257.78 252.015 257.014C252.145 256.832 252.235 256.625 252.279 256.406C252.322 256.187 252.319 255.961 252.269 255.744C252.219 255.526 252.123 255.321 251.988 255.143C251.853 254.966 251.682 254.818 251.486 254.712C250.3 254.101 248.176 255.224 247.335 256.064C247.266 256.133 246.437 257.17 246.299 257.371C246.299 257.302 246.334 257.233 246.351 257.164C246.718 256.016 247.186 254.902 247.75 253.837C248.049 253.261 248.371 252.685 248.699 252.161C249.079 252.351 250.818 253.198 251.745 253.232C252.672 253.267 253.771 253.071 254.37 252.34C254.515 252.173 254.624 251.978 254.689 251.767C254.755 251.555 254.775 251.333 254.749 251.113C254.723 250.893 254.651 250.681 254.538 250.491C254.425 250.301 254.274 250.137 254.093 250.008C252.982 249.272 250.749 250.158 249.816 250.901C249.77 250.941 249.298 251.407 248.964 251.753C249.114 251.517 249.264 251.269 249.413 251.05C249.989 250.21 250.565 249.473 251.037 248.828C251.324 248.46 251.612 248.138 251.848 247.838C252.315 247.838 254.203 247.769 255.026 247.383C255.849 246.998 256.753 246.301 256.949 245.38C257.001 245.165 257.007 244.941 256.967 244.724C256.927 244.506 256.842 244.299 256.717 244.116C256.593 243.933 256.431 243.779 256.243 243.662C256.054 243.546 255.844 243.47 255.625 243.44C254.301 243.296 252.746 245.11 252.246 246.198C252.199 246.295 251.716 247.838 251.739 247.838H251.768C251.52 248.12 251.25 248.414 250.968 248.771C250.449 249.41 249.874 250.135 249.292 250.964C248.663 251.852 248.086 252.777 247.565 253.733C246.974 254.802 246.477 255.921 246.08 257.078C246.082 257.091 246.082 257.104 246.08 257.118C246.08 256.726 246.08 255.633 246.08 255.552C245.925 254.401 244.929 252.179 243.622 251.937C243.404 251.904 243.181 251.917 242.968 251.975C242.754 252.033 242.556 252.136 242.385 252.276C242.214 252.416 242.074 252.59 241.975 252.788C241.876 252.985 241.819 253.201 241.809 253.422C241.728 254.36 242.385 255.299 243.07 255.892C243.818 256.559 245.896 257.204 246.063 257.256C245.688 258.442 245.394 259.652 245.182 260.877C245.056 261.591 244.952 262.31 244.854 263.036C244.854 262.696 244.854 262.397 244.854 262.356C244.699 261.176 243.703 258.983 242.402 258.741C242.183 258.707 241.959 258.719 241.745 258.777C241.532 258.835 241.332 258.938 241.161 259.078C240.989 259.218 240.849 259.393 240.749 259.591C240.65 259.788 240.593 260.005 240.583 260.226C240.502 261.165 241.187 262.103 241.849 262.69C242.511 263.277 244.278 263.882 244.727 264.031L244.624 264.866C244.463 266.202 244.307 267.537 244.117 268.844C244.054 269.305 243.968 269.754 243.887 270.203C243.887 269.903 243.887 269.627 243.887 269.627C243.737 268.476 242.736 266.254 241.435 266.012C241.216 265.978 240.992 265.99 240.778 266.048C240.564 266.106 240.365 266.208 240.194 266.348C240.022 266.488 239.882 266.663 239.782 266.861C239.683 267.059 239.626 267.276 239.616 267.497C239.541 268.435 240.22 269.374 240.882 269.961C241.747 270.542 242.696 270.984 243.697 271.273C243.599 271.734 243.501 272.194 243.386 272.632C243.306 272.931 243.242 273.207 243.139 273.524C243.035 273.841 242.949 274.1 242.857 274.399C242.655 274.946 242.454 275.516 242.246 276.051C242.102 276.42 241.959 276.771 241.815 277.128C241.889 276.667 242.01 275.769 242.016 275.694C242.001 274.648 241.717 273.624 241.193 272.718C241.202 272.601 241.202 272.484 241.193 272.367C241.165 272.148 241.091 271.936 240.976 271.747C240.861 271.558 240.708 271.396 240.526 271.27C240.344 271.144 240.138 271.057 239.921 271.016C239.703 270.975 239.48 270.98 239.264 271.031C237.975 271.371 237.158 273.633 237.1 274.819C237.1 274.888 237.14 275.654 237.181 276.138C237.112 275.856 237.054 275.562 236.985 275.297C236.847 274.721 236.697 274.146 236.536 273.57C236.449 273.282 236.357 272.994 236.271 272.689C236.185 272.384 236.064 272.114 235.96 271.791C235.701 271.095 235.413 270.398 235.102 269.707C235.603 269.592 237.365 269.132 238.073 268.596C238.781 268.061 239.524 267.169 239.518 266.231C239.524 266.007 239.484 265.784 239.398 265.578C239.312 265.371 239.183 265.185 239.019 265.032C238.856 264.879 238.662 264.762 238.45 264.69C238.238 264.618 238.014 264.592 237.791 264.613C236.467 264.757 235.315 266.869 235.079 268.032C235.079 268.107 234.982 268.965 234.953 269.431C234.763 269.022 234.573 268.602 234.377 268.194C233.801 267.002 233.145 265.81 232.518 264.624C232.322 264.256 232.138 263.893 231.942 263.531C232.115 263.485 234.245 263.001 235.022 262.379C235.724 261.838 236.473 260.952 236.467 260.013C236.473 259.79 236.433 259.567 236.347 259.36C236.261 259.154 236.132 258.968 235.968 258.815C235.805 258.662 235.611 258.545 235.399 258.473C235.187 258.401 234.963 258.374 234.74 258.396C233.416 258.54 232.264 260.652 232.023 261.815C232.023 261.902 231.896 263.133 231.885 263.45C231.464 262.644 231.056 261.844 230.687 261.032C230.181 259.943 229.747 258.822 229.386 257.676C229.467 257.676 231.689 257.152 232.483 256.525C233.191 255.984 233.934 255.097 233.928 254.159C233.935 253.935 233.894 253.713 233.808 253.506C233.722 253.299 233.593 253.113 233.43 252.96C233.266 252.807 233.072 252.691 232.861 252.619C232.649 252.546 232.424 252.52 232.201 252.541C230.877 252.685 229.726 254.798 229.49 255.961C229.49 256.053 229.352 257.383 229.346 257.619C229.346 257.555 229.294 257.486 229.277 257.423C228.948 256.263 228.722 255.077 228.603 253.877C228.528 253.215 228.494 252.576 228.477 251.954C228.897 251.902 230.814 251.649 231.602 251.171C232.391 250.694 233.209 249.911 233.301 248.972C233.332 248.753 233.316 248.53 233.254 248.317C233.193 248.105 233.087 247.907 232.944 247.738C232.802 247.569 232.624 247.432 232.425 247.336C232.225 247.241 232.008 247.188 231.787 247.182C230.451 247.182 229.081 249.151 228.713 250.285C228.713 250.348 228.557 250.993 228.471 251.465C228.471 251.189 228.471 250.889 228.471 250.63C228.471 249.623 228.54 248.702 228.603 247.884C228.638 247.418 228.684 246.998 228.73 246.606C229.116 246.342 230.658 245.254 231.13 244.476C231.602 243.699 231.977 242.623 231.631 241.748C231.556 241.539 231.439 241.348 231.285 241.188C231.132 241.028 230.947 240.902 230.742 240.818C230.537 240.733 230.316 240.693 230.094 240.7C229.873 240.706 229.655 240.759 229.455 240.856C228.275 241.466 227.964 243.849 228.16 245.023C228.16 245.127 228.621 246.681 228.644 246.67C228.592 247.044 228.54 247.447 228.494 247.89C228.413 248.707 228.327 249.617 228.304 250.642C228.264 251.732 228.289 252.824 228.379 253.911C228.473 255.131 228.677 256.339 228.989 257.521C228.987 257.534 228.987 257.548 228.989 257.561C228.776 257.233 228.16 256.329 228.108 256.266C227.325 255.368 225.293 254.084 224.079 254.602C223.878 254.695 223.698 254.829 223.552 254.996C223.406 255.163 223.297 255.358 223.231 255.57C223.166 255.782 223.145 256.005 223.171 256.225C223.197 256.445 223.269 256.657 223.382 256.847C223.779 257.596 224.867 258.004 225.748 258.131Z" fill="#263238"/>
<path d="M248.602 251.868C248.602 251.868 249.022 250.313 249.04 250.216C249.201 249.064 248.827 246.658 247.629 246.082C247.427 245.991 247.208 245.944 246.987 245.943C246.765 245.943 246.546 245.989 246.344 246.078C246.141 246.168 245.96 246.299 245.811 246.463C245.663 246.628 245.551 246.822 245.482 247.032C245.16 247.913 245.568 249.001 246.058 249.744C246.616 250.624 248.596 251.868 248.602 251.868Z" fill="#263238"/>
<path d="M198.731 257.216C199.517 257.422 200.33 257.512 201.143 257.481C201.143 257.481 200.774 256.358 200.745 256.295C200.371 255.506 199.18 254.211 198.213 254.338C198.052 254.363 197.899 254.423 197.762 254.512C197.626 254.601 197.511 254.718 197.423 254.855C197.336 254.992 197.278 255.146 197.254 255.307C197.231 255.468 197.241 255.632 197.286 255.788C197.41 256.116 197.603 256.413 197.853 256.66C198.102 256.906 198.401 257.096 198.731 257.216Z" fill="#263238"/>
<path d="M199.325 262.173C200.13 262.167 200.93 262.041 201.697 261.799C201.949 262.674 202.258 263.532 202.624 264.366C202.839 264.85 203.063 265.333 203.297 265.817C203.159 265.61 203.033 265.431 203.01 265.408C202.434 264.746 200.955 263.808 200.057 264.193C199.909 264.261 199.778 264.358 199.671 264.479C199.564 264.6 199.484 264.742 199.436 264.897C199.387 265.051 199.372 265.214 199.391 265.374C199.409 265.535 199.462 265.689 199.544 265.828C199.748 266.114 200.012 266.351 200.317 266.523C200.623 266.695 200.962 266.798 201.311 266.824C202.093 266.827 202.869 266.709 203.614 266.473L203.89 267.049C204.334 267.93 204.777 268.776 205.186 269.679C205.33 269.985 205.462 270.295 205.594 270.606C205.473 270.422 205.364 270.272 205.347 270.249C204.771 269.593 203.286 268.655 202.394 269.035C202.246 269.102 202.114 269.199 202.006 269.321C201.899 269.442 201.818 269.585 201.77 269.74C201.721 269.895 201.706 270.059 201.726 270.22C201.745 270.381 201.798 270.536 201.881 270.675C202.086 270.96 202.35 271.196 202.655 271.368C202.96 271.54 203.299 271.644 203.649 271.671C204.41 271.676 205.168 271.562 205.894 271.332C206.02 271.654 206.147 271.971 206.256 272.287C206.325 272.506 206.406 272.707 206.464 272.932C206.521 273.156 206.584 273.364 206.642 273.582C206.746 273.997 206.849 274.429 206.936 274.837C206.999 275.119 207.057 275.413 207.108 275.666C206.97 275.355 206.682 274.757 206.654 274.711C206.187 273.974 204.857 272.823 203.913 273.064C203.757 273.108 203.612 273.185 203.488 273.289C203.363 273.392 203.262 273.521 203.191 273.667C203.12 273.813 203.08 273.972 203.075 274.134C203.069 274.296 203.098 274.457 203.159 274.607C203.32 274.919 203.546 275.192 203.822 275.408C204.098 275.624 204.418 275.777 204.76 275.856C205.551 275.978 206.357 275.978 207.149 275.856C207.241 276.311 207.327 276.754 207.396 277.169C207.557 278.09 207.684 278.896 207.776 279.621H208.409C208.3 278.896 208.15 278.032 207.96 277.065C207.868 276.605 207.765 276.115 207.649 275.609C208.107 275.426 208.553 275.217 208.985 274.981C209.571 275.486 210.224 275.909 210.925 276.236C210.752 276.662 210.58 277.082 210.413 277.468C210.056 278.28 209.722 279.005 209.422 279.621H210.136C210.395 279.045 210.672 278.406 210.965 277.693C211.144 277.261 211.328 276.795 211.506 276.311C212.288 276.495 213.094 276.557 213.895 276.495C214.243 276.438 214.575 276.305 214.866 276.106C215.157 275.907 215.402 275.647 215.582 275.344C215.654 275.199 215.695 275.04 215.701 274.878C215.708 274.716 215.68 274.554 215.62 274.404C215.559 274.253 215.468 274.117 215.351 274.004C215.235 273.891 215.096 273.805 214.943 273.749C214.016 273.439 212.606 274.486 212.065 275.189C212.036 275.229 211.754 275.712 211.581 276.023C211.656 275.828 211.731 275.638 211.806 275.448C211.95 275.05 212.088 274.642 212.232 274.204C212.295 273.991 212.364 273.778 212.427 273.559C212.491 273.341 212.543 273.11 212.6 272.886C212.727 272.356 212.83 271.815 212.917 271.268C213.64 271.555 214.403 271.729 215.179 271.786C215.53 271.786 215.877 271.71 216.195 271.562C216.513 271.413 216.795 271.197 217.021 270.929C217.115 270.796 217.179 270.645 217.21 270.485C217.241 270.326 217.238 270.161 217.201 270.003C217.164 269.845 217.094 269.696 216.996 269.567C216.897 269.438 216.772 269.331 216.63 269.254C215.766 268.81 214.212 269.633 213.596 270.244C213.556 270.284 213.164 270.773 212.951 271.05C213.003 270.721 213.055 270.393 213.095 270.054C213.216 269.087 213.308 268.108 213.406 267.129C213.435 266.824 213.464 266.525 213.498 266.231C214.246 266.529 215.033 266.714 215.835 266.778C216.186 266.776 216.533 266.697 216.851 266.548C217.169 266.399 217.451 266.183 217.677 265.915C217.77 265.782 217.834 265.631 217.864 265.473C217.895 265.314 217.891 265.15 217.854 264.993C217.818 264.835 217.748 264.687 217.65 264.558C217.552 264.43 217.428 264.323 217.286 264.245C216.422 263.796 214.868 264.619 214.252 265.235C214.2 265.281 213.636 265.99 213.504 266.174C213.573 265.517 213.648 264.861 213.751 264.217C213.888 263.345 214.08 262.484 214.327 261.638C215.079 261.946 215.872 262.14 216.682 262.213C217.032 262.211 217.378 262.133 217.695 261.984C218.012 261.835 218.293 261.618 218.518 261.35C218.612 261.217 218.677 261.066 218.708 260.907C218.739 260.748 218.737 260.584 218.7 260.426C218.664 260.268 218.595 260.119 218.497 259.989C218.399 259.86 218.275 259.753 218.132 259.675C217.263 259.231 215.709 260.054 215.093 260.67C215.047 260.717 214.436 261.476 214.339 261.62C214.339 261.574 214.339 261.522 214.379 261.471C214.644 260.63 214.985 259.815 215.398 259.036C215.617 258.604 215.853 258.201 216.094 257.815C216.793 258.188 217.544 258.452 218.322 258.598C218.671 258.634 219.023 258.593 219.355 258.48C219.687 258.367 219.99 258.183 220.245 257.942C220.356 257.82 220.44 257.676 220.49 257.519C220.541 257.362 220.557 257.196 220.538 257.032C220.519 256.869 220.465 256.711 220.379 256.57C220.294 256.429 220.18 256.308 220.043 256.215C219.226 255.674 217.591 256.324 216.912 256.865C216.877 256.894 216.532 257.234 216.284 257.487C216.394 257.314 216.509 257.136 216.618 256.975C217.027 256.359 217.436 255.823 217.804 255.346L218.38 254.62C219.159 254.628 219.936 254.517 220.682 254.292C221.01 254.165 221.305 253.968 221.548 253.715C221.791 253.461 221.975 253.157 222.087 252.824C222.126 252.667 222.132 252.503 222.104 252.344C222.076 252.184 222.015 252.033 221.924 251.898C221.833 251.764 221.715 251.651 221.578 251.565C221.44 251.48 221.286 251.424 221.126 251.402C220.153 251.299 219.001 252.629 218.645 253.423C218.645 253.492 218.259 254.626 218.282 254.626C218.098 254.839 217.902 255.064 217.706 255.311C217.332 255.777 216.906 256.307 216.48 256.917C216.02 257.569 215.595 258.246 215.208 258.943C214.792 259.716 214.444 260.523 214.166 261.355V261.384C214.166 261.102 214.166 260.302 214.166 260.233C214.051 259.369 213.325 257.769 212.37 257.591C212.21 257.565 212.046 257.573 211.889 257.614C211.732 257.656 211.586 257.73 211.459 257.832C211.333 257.935 211.23 258.062 211.157 258.207C211.084 258.352 211.042 258.511 211.034 258.673C211.049 259.023 211.139 259.366 211.299 259.678C211.459 259.991 211.685 260.264 211.961 260.48C212.637 260.921 213.374 261.259 214.149 261.482C213.876 262.349 213.663 263.234 213.51 264.13C213.418 264.654 213.337 265.178 213.268 265.713C213.268 265.466 213.268 265.241 213.268 265.212C213.153 264.349 212.427 262.743 211.472 262.57C211.311 262.544 211.147 262.552 210.989 262.594C210.832 262.636 210.686 262.711 210.559 262.814C210.433 262.917 210.33 263.045 210.257 263.191C210.184 263.336 210.143 263.495 210.136 263.658C210.149 264.009 210.238 264.353 210.399 264.665C210.559 264.977 210.786 265.251 211.063 265.466C211.715 265.898 212.43 266.227 213.182 266.444C213.182 266.646 213.13 266.853 213.107 267.054C212.986 268.033 212.876 269.012 212.733 269.967C212.686 270.301 212.623 270.635 212.566 270.963C212.566 270.744 212.566 270.56 212.566 270.531C212.456 269.668 211.731 268.062 210.77 267.883C210.609 267.858 210.445 267.867 210.289 267.909C210.132 267.952 209.986 268.027 209.861 268.13C209.735 268.232 209.633 268.36 209.56 268.506C209.488 268.651 209.447 268.809 209.44 268.971C209.454 269.322 209.544 269.665 209.704 269.977C209.864 270.289 210.09 270.563 210.367 270.779C211 271.202 211.695 271.525 212.427 271.735C212.353 272.074 212.283 272.408 212.197 272.73C212.14 272.949 212.094 273.168 212.019 273.381L211.811 274.026C211.662 274.429 211.518 274.843 211.362 275.235C211.259 275.505 211.155 275.758 211.052 276.017C211.103 275.684 211.19 275.027 211.195 274.97C211.191 274.207 210.993 273.459 210.62 272.794C210.631 272.708 210.631 272.621 210.62 272.535C210.6 272.374 210.546 272.219 210.463 272.08C210.379 271.942 210.267 271.822 210.134 271.73C210 271.638 209.849 271.574 209.69 271.544C209.531 271.514 209.367 271.518 209.209 271.556C208.271 271.809 207.672 273.462 207.626 274.331C207.626 274.383 207.655 274.941 207.684 275.298C207.638 275.091 207.592 274.889 207.54 274.682C207.442 274.267 207.333 273.853 207.212 273.404C207.149 273.197 207.085 272.978 207.016 272.759C206.947 272.541 206.867 272.322 206.792 272.103C206.607 271.591 206.389 271.084 206.164 270.578C206.927 270.42 207.661 270.147 208.34 269.766C208.63 269.571 208.875 269.315 209.057 269.017C209.24 268.72 209.357 268.386 209.399 268.039C209.404 267.877 209.374 267.715 209.312 267.565C209.25 267.415 209.157 267.28 209.039 267.169C208.921 267.058 208.781 266.972 208.628 266.919C208.475 266.865 208.312 266.845 208.15 266.859C207.183 266.962 206.337 268.505 206.164 269.357C206.164 269.415 206.095 270.036 206.072 270.382C205.934 270.082 205.796 269.777 205.646 269.472C205.214 268.603 204.748 267.745 204.288 266.865L203.867 266.064C204.655 265.898 205.413 265.617 206.118 265.23C206.409 265.036 206.655 264.781 206.838 264.483C207.021 264.185 207.137 263.85 207.177 263.503C207.182 263.341 207.152 263.18 207.091 263.031C207.029 262.881 206.936 262.746 206.819 262.635C206.702 262.524 206.562 262.438 206.41 262.385C206.257 262.331 206.095 262.31 205.934 262.323C204.961 262.426 204.121 263.969 203.948 264.821C203.948 264.89 203.85 265.788 203.844 266.018C203.539 265.443 203.24 264.867 202.969 264.251C202.596 263.454 202.277 262.633 202.014 261.793C202.807 261.628 203.572 261.344 204.282 260.953C204.574 260.76 204.82 260.505 205.003 260.207C205.186 259.908 205.301 259.573 205.341 259.226C205.347 259.063 205.317 258.901 205.256 258.75C205.194 258.6 205.101 258.464 204.983 258.352C204.865 258.24 204.725 258.154 204.571 258.1C204.417 258.046 204.254 258.026 204.092 258.04C203.125 258.149 202.284 259.692 202.106 260.544C202.106 260.613 202.008 261.58 202.002 261.758C201.988 261.708 201.97 261.658 201.95 261.609C201.711 260.76 201.547 259.891 201.461 259.013C201.404 258.529 201.381 258.063 201.363 257.614C202.156 257.54 202.932 257.346 203.666 257.038C203.977 256.877 204.25 256.65 204.465 256.372C204.68 256.095 204.831 255.774 204.909 255.432C204.932 255.271 204.921 255.107 204.876 254.951C204.831 254.795 204.753 254.651 204.648 254.527C204.543 254.403 204.413 254.302 204.267 254.232C204.12 254.162 203.961 254.124 203.798 254.119C202.825 254.119 201.818 255.559 201.553 256.388C201.553 256.434 201.438 256.906 201.375 257.257C201.375 257.05 201.375 256.837 201.375 256.641C201.375 255.904 201.421 255.23 201.467 254.632C201.496 254.292 201.53 253.981 201.565 253.699C202.193 253.266 202.754 252.742 203.228 252.145C203.43 251.858 203.567 251.531 203.63 251.186C203.693 250.841 203.679 250.487 203.591 250.147C203.537 249.994 203.452 249.854 203.341 249.736C203.229 249.618 203.094 249.525 202.944 249.463C202.794 249.401 202.632 249.372 202.47 249.376C202.308 249.381 202.148 249.42 202.002 249.491C201.139 249.94 200.908 251.684 201.052 252.542C201.052 252.617 201.392 253.757 201.409 253.745C201.375 254.022 201.334 254.321 201.3 254.643C201.242 255.219 201.179 255.916 201.162 256.658C201.136 257.455 201.155 258.252 201.219 259.047C201.29 259.939 201.438 260.823 201.663 261.689C201.663 261.689 201.663 261.689 201.663 261.718C201.507 261.476 201.058 260.814 201.018 260.768C200.442 260.112 198.957 259.174 198.059 259.554C197.911 259.621 197.779 259.718 197.672 259.84C197.564 259.961 197.484 260.104 197.435 260.259C197.387 260.414 197.372 260.578 197.391 260.739C197.41 260.9 197.463 261.055 197.547 261.194C197.754 261.477 198.021 261.711 198.328 261.88C198.635 262.049 198.976 262.149 199.325 262.173Z" fill="#263238"/>
<path d="M216.049 257.591C216.049 257.591 216.36 256.44 216.371 256.377C216.492 255.519 216.216 253.78 215.335 253.354C215.187 253.288 215.028 253.254 214.866 253.254C214.704 253.254 214.544 253.288 214.397 253.353C214.249 253.419 214.117 253.515 214.009 253.635C213.901 253.755 213.819 253.897 213.769 254.051C213.69 254.392 213.686 254.747 213.758 255.09C213.83 255.432 213.975 255.756 214.184 256.037C214.726 256.643 215.354 257.167 216.049 257.591Z" fill="#263238"/>
<path d="M247.788 56.2703C247.308 58.1645 247.43 60.1609 248.137 61.9825C248.844 63.8041 250.099 65.3607 251.731 66.4364C253.362 67.512 255.287 68.0533 257.24 67.9852C259.193 67.9172 261.076 67.2431 262.628 66.0565L266.272 69.545C266.178 69.925 266.185 70.323 266.292 70.6995C266.399 71.0761 266.602 71.4182 266.882 71.6922L274.797 79.4463C275.01 79.6523 275.261 79.8144 275.536 79.9234C275.811 80.0325 276.105 80.0862 276.401 80.0817C276.697 80.0772 276.989 80.0144 277.26 79.897C277.532 79.7795 277.778 79.6098 277.984 79.3973C278.19 79.1849 278.352 78.934 278.461 78.6589C278.57 78.3838 278.624 78.0899 278.619 77.7941C278.615 77.4982 278.552 77.2061 278.434 76.9345C278.317 76.6629 278.147 76.4171 277.935 76.2111L270.002 68.4512C269.716 68.1762 269.363 67.9814 268.978 67.8864C268.593 67.7914 268.19 67.7996 267.809 67.9101L264.246 64.4792C265.106 63.4254 265.723 62.195 266.053 60.8755C266.356 59.6762 266.419 58.4291 266.239 57.2053C266.06 55.9815 265.641 54.8051 265.006 53.7433C264.372 52.6814 263.535 51.7548 262.543 51.0165C261.55 50.2781 260.422 49.7425 259.223 49.4401C258.024 49.1377 256.776 49.0745 255.553 49.2541C254.329 49.4337 253.153 49.8526 252.091 50.4868C251.029 51.1211 250.102 51.9583 249.364 52.9506C248.626 53.9429 248.09 55.0709 247.788 56.2703V56.2703ZM264.418 60.4496C264.045 61.9325 263.24 63.2715 262.106 64.2972C260.972 65.3228 259.559 65.989 258.046 66.2115C256.533 66.4341 254.988 66.2029 253.607 65.5473C252.225 64.8917 251.069 63.8411 250.284 62.5284C249.5 61.2157 249.123 59.6998 249.2 58.1725C249.277 56.6453 249.805 55.1752 250.718 53.9482C251.631 52.7213 252.887 51.7926 254.328 51.2796C255.768 50.7666 257.329 50.6924 258.811 51.0663C260.798 51.5689 262.504 52.8392 263.555 54.5983C264.607 56.3575 264.917 58.4619 264.418 60.4496Z" stroke="#263238" stroke-width="0.575658" stroke-miterlimit="10"/>
<path d="M73.7029 170.348C72.2751 170.69 70.9888 171.467 70.0224 172.572C69.0559 173.677 68.4572 175.055 68.3092 176.516C68.1611 177.976 68.4712 179.447 69.1962 180.723C69.9213 182 71.0256 183.019 72.3559 183.64L71.2967 187.284C71.0105 187.353 70.7473 187.495 70.5332 187.697C70.3191 187.899 70.1616 188.154 70.0763 188.435L67.6298 196.42C67.5092 196.853 67.562 197.315 67.777 197.71C67.9919 198.104 68.3521 198.399 68.7811 198.532C69.2138 198.653 69.6765 198.6 70.0709 198.385C70.4653 198.17 70.7605 197.81 70.8937 197.381L73.323 189.397C73.4094 189.11 73.4176 188.806 73.3468 188.516C73.2759 188.225 73.1286 187.959 72.92 187.745L73.9677 184.164C75.0074 184.378 76.0819 184.356 77.1117 184.099C78.1416 183.841 79.1004 183.356 79.9173 182.678C80.7342 182 81.3883 181.148 81.8311 180.183C82.274 179.218 82.4943 178.166 82.4757 177.105C82.4571 176.044 82.2002 175 81.7238 174.052C81.2475 173.103 80.564 172.274 79.7239 171.625C78.8838 170.976 77.9085 170.525 76.8703 170.304C75.8321 170.083 74.7575 170.098 73.726 170.348H73.7029ZM76.6849 182.898C75.5661 183.164 74.3935 183.092 73.3154 182.692C72.2374 182.291 71.3023 181.58 70.6284 180.648C69.9546 179.716 69.5722 178.606 69.5296 177.456C69.487 176.307 69.7862 175.171 70.3894 174.192C70.9925 173.213 71.8724 172.434 72.9179 171.955C73.9634 171.476 75.1274 171.318 76.2628 171.501C77.3982 171.683 78.454 172.199 79.2966 172.981C80.1392 173.764 80.7308 174.779 80.9965 175.898C81.3519 177.394 81.1003 178.971 80.2967 180.283C79.493 181.594 78.2027 182.534 76.7079 182.898H76.6849Z" stroke="#263238" stroke-width="0.575658" stroke-miterlimit="10"/>
<path d="M265.629 117.296H248.935C247.851 117.296 246.811 117.727 246.045 118.493C245.278 119.259 244.848 120.299 244.848 121.383V130.622C244.848 131.706 245.278 132.746 246.045 133.512C246.811 134.279 247.851 134.71 248.935 134.71H260.563L259.987 140.466L265.399 134.71H265.629C266.166 134.71 266.697 134.604 267.193 134.398C267.689 134.193 268.139 133.892 268.519 133.512C268.899 133.133 269.2 132.682 269.405 132.186C269.61 131.691 269.716 131.159 269.716 130.622V121.383C269.716 120.846 269.61 120.315 269.405 119.819C269.2 119.323 268.899 118.873 268.519 118.493C268.139 118.113 267.689 117.812 267.193 117.607C266.697 117.402 266.166 117.296 265.629 117.296V117.296Z" stroke="#263238" stroke-width="0.575658" stroke-miterlimit="10"/>
<path d="M74.9134 139.171H86.2251C86.5887 139.171 86.9488 139.243 87.2847 139.382C87.6207 139.521 87.9259 139.725 88.183 139.982C88.4402 140.239 88.6441 140.544 88.7833 140.88C88.9224 141.216 88.994 141.576 88.994 141.94V148.197C88.994 148.561 88.9224 148.921 88.7833 149.257C88.6441 149.593 88.4402 149.898 88.183 150.155C87.9259 150.412 87.6207 150.616 87.2847 150.755C86.9488 150.895 86.5887 150.966 86.2251 150.966H78.3501L78.7588 154.858L75.0689 150.966H74.9134C74.1791 150.966 73.4748 150.674 72.9555 150.155C72.4363 149.636 72.1445 148.932 72.1445 148.197V141.94C72.1445 141.205 72.4363 140.501 72.9555 139.982C73.4748 139.463 74.1791 139.171 74.9134 139.171Z" stroke="#263238" stroke-width="0.575658" stroke-miterlimit="10"/>
<path d="M158.527 33.6875H169.838C170.573 33.6875 171.277 33.9792 171.796 34.4985C172.316 35.0178 172.607 35.7221 172.607 36.4564V42.7138C172.607 43.4482 172.316 44.1525 171.796 44.6717C171.277 45.191 170.573 45.4827 169.838 45.4827H161.963L162.372 49.3742L158.682 45.4827H158.527C157.792 45.4827 157.088 45.191 156.569 44.6717C156.05 44.1525 155.758 43.4482 155.758 42.7138V36.4564C155.758 35.7221 156.05 35.0178 156.569 34.4985C157.088 33.9792 157.792 33.6875 158.527 33.6875V33.6875Z" stroke="#263238" stroke-width="0.575658" stroke-miterlimit="10"/>
<path d="M143.156 46.3975L170.834 123.743L230.271 47.6179" stroke="#263238" stroke-width="0.575658" stroke-miterlimit="10"/>
<path d="M253.876 96.877L170.832 123.743L226.602 186.432" stroke="#263238" stroke-width="0.575658" stroke-miterlimit="10"/>
<path d="M106.924 183.992L170.833 123.743L83.7188 109.087" stroke="#263238" stroke-width="0.575658" stroke-miterlimit="10"/>
<path d="M260.984 101.022C263.139 96.9036 261.548 91.8178 257.43 89.6622C253.312 87.5066 248.227 89.0975 246.071 93.2155C243.915 97.3336 245.506 102.419 249.624 104.575C253.742 106.731 258.828 105.14 260.984 101.022Z" fill="#263238" stroke="#263238" stroke-width="0.287829" stroke-miterlimit="10"/>
<path d="M256.313 96.5371H250.827C250.312 96.5371 249.819 96.7415 249.455 97.1053C249.091 97.4691 248.887 97.9626 248.887 98.4771V103.082C250.227 104.128 251.882 104.69 253.583 104.677C255.283 104.663 256.929 104.075 258.253 103.007V98.4771C258.253 97.9626 258.048 97.4691 257.684 97.1053C257.321 96.7415 256.827 96.5371 256.313 96.5371Z" fill="white" stroke="#263238" stroke-width="0.575658" stroke-miterlimit="10"/>
<path d="M253.476 95.6913C254.028 95.6913 254.568 95.5276 255.027 95.2208C255.486 94.914 255.844 94.478 256.055 93.9678C256.266 93.4576 256.322 92.8963 256.214 92.3547C256.106 91.8131 255.84 91.3156 255.45 90.9252C255.059 90.5347 254.562 90.2688 254.02 90.1611C253.479 90.0533 252.917 90.1086 252.407 90.32C251.897 90.5313 251.461 90.8891 251.154 91.3482C250.847 91.8074 250.684 92.3472 250.684 92.8994C250.684 93.6398 250.978 94.35 251.501 94.8736C252.025 95.3972 252.735 95.6913 253.476 95.6913Z" fill="white" stroke="#263238" stroke-width="0.575658" stroke-miterlimit="10"/>
<path d="M235.222 186.692C237.016 182.404 234.995 177.473 230.707 175.679C226.42 173.884 221.489 175.906 219.694 180.193C217.9 184.481 219.921 189.412 224.209 191.206C228.497 193.001 233.427 190.98 235.222 186.692Z" fill="#263238" stroke="#263238" stroke-width="0.287829" stroke-miterlimit="10"/>
<path d="M230.281 182.887H224.795C224.541 182.886 224.289 182.935 224.053 183.032C223.818 183.129 223.604 183.272 223.424 183.451C223.244 183.631 223.101 183.844 223.003 184.079C222.906 184.314 222.855 184.566 222.855 184.821V189.426C224.196 190.472 225.851 191.034 227.551 191.021C229.252 191.007 230.898 190.419 232.221 189.351V184.821C232.221 184.566 232.171 184.314 232.074 184.079C231.976 183.844 231.833 183.631 231.653 183.451C231.473 183.272 231.259 183.129 231.023 183.032C230.788 182.935 230.536 182.886 230.281 182.887Z" fill="white" stroke="#263238" stroke-width="0.575658" stroke-miterlimit="10"/>
<path d="M227.401 182.034C227.954 182.034 228.493 181.87 228.952 181.564C229.412 181.257 229.769 180.821 229.981 180.311C230.192 179.8 230.247 179.239 230.14 178.697C230.032 178.156 229.766 177.658 229.376 177.268C228.985 176.877 228.488 176.612 227.946 176.504C227.404 176.396 226.843 176.451 226.333 176.663C225.823 176.874 225.387 177.232 225.08 177.691C224.773 178.15 224.609 178.69 224.609 179.242C224.609 179.609 224.682 179.972 224.822 180.311C224.962 180.649 225.168 180.957 225.427 181.216C225.686 181.476 225.994 181.681 226.333 181.822C226.672 181.962 227.035 182.034 227.401 182.034Z" fill="white" stroke="#263238" stroke-width="0.575658" stroke-miterlimit="10"/>
<path d="M142.792 51.8315C146.092 51.8315 148.767 49.1563 148.767 45.8562C148.767 42.5561 146.092 39.8809 142.792 39.8809C139.492 39.8809 136.816 42.5561 136.816 45.8562C136.816 49.1563 139.492 51.8315 142.792 51.8315Z" fill="#263238" stroke="#263238" stroke-width="0.287829" stroke-miterlimit="10"/>
<path d="M144.775 45.4824H140.884C140.519 45.4824 140.169 45.6274 139.911 45.8854C139.653 46.1434 139.508 46.4934 139.508 46.8582V50.0877C140.46 50.8274 141.633 51.2246 142.838 51.2152C144.044 51.2058 145.211 50.7903 146.151 50.0359V46.8295C146.143 46.4696 145.995 46.127 145.738 45.8752C145.481 45.6233 145.135 45.4823 144.775 45.4824Z" fill="white" stroke="#263238" stroke-width="0.575658" stroke-miterlimit="10"/>
<path d="M142.781 44.8492C143.173 44.8492 143.556 44.7331 143.881 44.5155C144.207 44.2979 144.461 43.9886 144.611 43.6268C144.76 43.2649 144.8 42.8667 144.723 42.4826C144.647 42.0985 144.458 41.7456 144.181 41.4687C143.904 41.1917 143.552 41.0031 143.167 40.9267C142.783 40.8503 142.385 40.8895 142.023 41.0394C141.661 41.1893 141.352 41.4431 141.135 41.7688C140.917 42.0944 140.801 42.4773 140.801 42.8689C140.801 43.3941 141.009 43.8978 141.381 44.2692C141.752 44.6406 142.256 44.8492 142.781 44.8492Z" fill="white" stroke="#263238" stroke-width="0.575658" stroke-miterlimit="10"/>
<path d="M111.521 185.315C112.792 182.27 111.354 178.771 108.308 177.5C105.263 176.229 101.763 177.668 100.493 180.713C99.2216 183.759 100.66 187.258 103.706 188.529C106.751 189.8 110.251 188.361 111.521 185.315Z" fill="#263238" stroke="#263238" stroke-width="0.287829" stroke-miterlimit="10"/>
<path d="M107.988 182.61H104.096C103.915 182.61 103.735 182.645 103.567 182.714C103.399 182.783 103.246 182.885 103.118 183.013C102.989 183.142 102.888 183.294 102.818 183.462C102.749 183.63 102.714 183.81 102.715 183.992V187.256C103.666 188 104.841 188.4 106.048 188.391C107.256 188.381 108.424 187.963 109.364 187.204V183.992C109.364 183.811 109.329 183.631 109.261 183.464C109.192 183.296 109.091 183.144 108.963 183.015C108.835 182.887 108.683 182.785 108.516 182.716C108.348 182.646 108.169 182.61 107.988 182.61Z" fill="white" stroke="#263238" stroke-width="0.575658" stroke-miterlimit="10"/>
<path d="M105.972 182.005C106.364 182.005 106.747 181.889 107.073 181.672C107.398 181.454 107.652 181.145 107.802 180.783C107.952 180.421 107.991 180.023 107.915 179.639C107.838 179.255 107.65 178.902 107.373 178.625C107.096 178.348 106.743 178.159 106.359 178.083C105.975 178.007 105.576 178.046 105.215 178.196C104.853 178.346 104.544 178.599 104.326 178.925C104.108 179.251 103.992 179.634 103.992 180.025C103.992 180.55 104.201 181.054 104.572 181.425C104.944 181.797 105.447 182.005 105.972 182.005Z" fill="white" stroke="#263238" stroke-width="0.575658" stroke-miterlimit="10"/>
<path d="M235.72 47.5945C236.922 44.5211 235.405 41.0552 232.332 39.8533C229.258 38.6513 225.792 40.1684 224.59 43.2418C223.388 46.3152 224.906 49.781 227.979 50.983C231.052 52.185 234.518 50.6679 235.72 47.5945Z" fill="#263238" stroke="#263238" stroke-width="0.287829" stroke-miterlimit="10"/>
<path d="M232.152 45.0166H228.255C228.074 45.0166 227.895 45.0522 227.728 45.1213C227.561 45.1905 227.41 45.2918 227.282 45.4196C227.154 45.5473 227.053 45.699 226.984 45.8659C226.915 46.0328 226.879 46.2118 226.879 46.3924V49.6622C227.832 50.4023 229.006 50.7998 230.212 50.7904C231.419 50.781 232.587 50.3653 233.528 49.6104V46.3924C233.528 46.2118 233.492 46.0328 233.423 45.8659C233.354 45.699 233.253 45.5473 233.125 45.4196C232.997 45.2918 232.845 45.1905 232.678 45.1213C232.512 45.0522 232.333 45.0166 232.152 45.0166Z" fill="white" stroke="#263238" stroke-width="0.575658" stroke-miterlimit="10"/>
<path d="M230.137 44.4117C230.528 44.4117 230.911 44.2956 231.237 44.078C231.562 43.8604 231.816 43.5511 231.966 43.1892C232.116 42.8274 232.155 42.4292 232.079 42.0451C232.002 41.661 231.814 41.3081 231.537 41.0312C231.26 40.7542 230.907 40.5656 230.523 40.4892C230.139 40.4128 229.741 40.452 229.379 40.6019C229.017 40.7518 228.708 41.0056 228.49 41.3313C228.272 41.6569 228.156 42.0398 228.156 42.4314C228.156 42.9566 228.365 43.4603 228.736 43.8317C229.108 44.2031 229.611 44.4117 230.137 44.4117Z" fill="white" stroke="#263238" stroke-width="0.575658" stroke-miterlimit="10"/>
<path d="M93.0336 111.9C95.376 106.349 92.7752 99.9507 87.2245 97.6082C81.6738 95.2658 75.2752 97.8666 72.9327 103.417C70.5903 108.968 73.1911 115.367 78.7418 117.709C84.2925 120.052 90.6912 117.451 93.0336 111.9Z" fill="#263238" stroke="#263238" stroke-width="0.287829" stroke-miterlimit="10"/>
<path d="M86.6016 106.922H79.4922C78.826 106.922 78.187 107.186 77.7154 107.657C77.2438 108.127 76.9781 108.766 76.9766 109.432V115.396C78.7146 116.748 80.8579 117.474 83.06 117.458C85.262 117.441 87.3941 116.682 89.1114 115.303V109.432C89.1114 108.766 88.847 108.128 88.3763 107.657C87.9056 107.186 87.2672 106.922 86.6016 106.922Z" fill="white" stroke="#263238" stroke-width="0.575658" stroke-miterlimit="10"/>
<path d="M82.912 105.817C83.627 105.817 84.326 105.605 84.9205 105.208C85.515 104.811 85.9783 104.246 86.252 103.586C86.5256 102.925 86.5972 102.198 86.4577 101.497C86.3182 100.796 85.9739 100.151 85.4683 99.6458C84.9627 99.1402 84.3185 98.7959 83.6173 98.6564C82.916 98.5169 82.1891 98.5885 81.5286 98.8621C80.868 99.1357 80.3034 99.5991 79.9061 100.194C79.5089 100.788 79.2969 101.487 79.2969 102.202C79.2969 103.161 79.6778 104.08 80.3557 104.758C81.0337 105.436 81.9532 105.817 82.912 105.817Z" fill="white" stroke="#263238" stroke-width="0.575658" stroke-miterlimit="10"/>
<path d="M118.475 64.2713C118.475 64.2367 118.475 64.2022 118.475 64.1676C118.312 62.6738 117.723 61.2581 116.78 60.0887C115.836 58.9193 114.576 58.0454 113.15 57.5706C111.703 57.0795 110.141 57.0413 108.672 57.4612C108.997 56.3565 109.108 55.1998 109 54.0533C108.786 51.7606 107.708 49.635 105.986 48.1073C104.263 46.5797 102.023 45.7643 99.7215 45.8266C97.4196 45.8888 95.2276 46.824 93.5898 48.4425C91.9519 50.061 90.9907 52.2417 90.9011 54.5426C90.7687 54.5426 90.6363 54.5426 90.5039 54.5426C88.0963 54.5426 85.7872 55.4991 84.0847 57.2016C82.3823 58.904 81.4258 61.2131 81.4258 63.6208C81.4236 64.4338 81.532 65.2433 81.7482 66.027C82.0528 67.0796 82.6928 68.0039 83.5707 68.6596C84.4487 69.3152 85.5167 69.6663 86.6125 69.6594H113.427C114.12 69.6627 114.806 69.5229 115.443 69.2488C116.079 68.9747 116.652 68.5722 117.126 68.0664C117.6 67.5607 117.964 66.9626 118.196 66.3096C118.429 65.6565 118.523 64.9626 118.475 64.2713V64.2713Z" stroke="#263238" stroke-width="0.575658" stroke-miterlimit="10"/>
<path d="M256.19 156.417C256.187 156.398 256.187 156.379 256.19 156.359C256.102 155.551 255.784 154.785 255.274 154.153C254.764 153.52 254.083 153.047 253.311 152.79C252.53 152.524 251.686 152.504 250.894 152.733C251.072 152.136 251.134 151.511 251.078 150.891C250.993 149.628 250.423 148.448 249.487 147.597C248.551 146.745 247.322 146.289 246.057 146.323C244.793 146.357 243.59 146.879 242.702 147.78C241.814 148.681 241.308 149.891 241.292 151.156H241.079C239.779 151.157 238.533 151.674 237.614 152.594C236.696 153.514 236.18 154.76 236.18 156.06C236.181 156.498 236.239 156.933 236.352 157.355C236.516 157.925 236.86 158.425 237.334 158.781C237.808 159.136 238.385 159.327 238.977 159.324H253.449C253.825 159.328 254.197 159.255 254.542 159.108C254.888 158.961 255.199 158.744 255.456 158.471C255.714 158.198 255.912 157.874 256.038 157.521C256.164 157.167 256.216 156.791 256.19 156.417V156.417Z" stroke="#263238" stroke-width="0.575658" stroke-miterlimit="10"/>
<path d="M128.91 200.778C128.91 200.778 128.91 200.743 128.91 200.726C128.824 199.918 128.506 199.151 127.996 198.518C127.485 197.886 126.804 197.413 126.032 197.157C125.251 196.891 124.407 196.87 123.614 197.099C123.791 196.502 123.851 195.877 123.793 195.257C123.67 194.067 123.12 192.962 122.244 192.146C121.369 191.33 120.228 190.858 119.032 190.819C117.747 190.788 116.501 191.264 115.564 192.144C114.627 193.024 114.073 194.237 114.024 195.522H113.811C113.167 195.521 112.528 195.648 111.933 195.894C111.338 196.14 110.797 196.501 110.341 196.957C109.886 197.412 109.524 197.953 109.278 198.549C109.032 199.144 108.905 199.782 108.906 200.427C108.907 200.864 108.967 201.3 109.085 201.722C109.246 202.292 109.59 202.794 110.065 203.149C110.539 203.505 111.117 203.695 111.71 203.691H126.176C126.551 203.694 126.923 203.619 127.268 203.472C127.614 203.324 127.924 203.107 128.181 202.833C128.438 202.56 128.636 202.236 128.761 201.882C128.887 201.528 128.937 201.152 128.91 200.778V200.778Z" stroke="#263238" stroke-width="0.575658" stroke-miterlimit="10"/>
<path d="M211.289 50.8302C211.291 50.8131 211.291 50.7956 211.289 50.7784C211.203 49.9696 210.886 49.2026 210.376 48.5695C209.865 47.9364 209.183 47.4641 208.41 47.2094C207.63 46.9412 206.786 46.9191 205.993 47.146C206.172 46.5515 206.233 45.9276 206.171 45.3097C206.086 44.0474 205.516 42.867 204.58 42.0156C203.644 41.1642 202.416 40.7078 201.151 40.742C199.886 40.7762 198.684 41.2984 197.795 42.1992C196.907 43.0999 196.402 44.3095 196.385 45.5745H196.172C195.418 45.5763 194.675 45.7517 194 46.0869C193.325 46.4222 192.736 46.9085 192.279 47.508C191.822 48.1074 191.509 48.8041 191.364 49.544C191.22 50.2838 191.248 51.047 191.446 51.7743C191.609 52.3438 191.954 52.8443 192.428 53.1997C192.901 53.5551 193.478 53.7459 194.071 53.7431H208.543C208.919 53.7489 209.293 53.6762 209.64 53.5297C209.987 53.3831 210.299 53.1659 210.558 52.8919C210.816 52.6179 211.015 52.293 211.14 51.938C211.266 51.5831 211.317 51.2058 211.289 50.8302V50.8302Z" stroke="#263238" stroke-width="0.575658" stroke-miterlimit="10"/>
<path d="M214.679 166.404C239.109 141.974 239.109 102.366 214.679 77.9356C190.25 53.5057 150.641 53.5057 126.211 77.9356C101.781 102.366 101.781 141.974 126.211 166.404C150.641 190.834 190.25 190.834 214.679 166.404Z" fill="white" stroke="#263238" stroke-width="0.575658" stroke-miterlimit="10"/>
<path d="M168.192 93.2102L174.132 95.8813L175.762 98.5523L178.438 99.5942L178.732 102.415L177.696 104.044L175.618 104.493L171.162 102.709V102.133L173.683 101.091L172.797 97.9767L168.767 96.4915L166.988 94.114L168.192 93.2102ZM205.609 161.8L200.86 159.871L195.069 157.793H190.464L186.158 156.901L181.403 157.937L178.732 158.087H177.103L173.983 159.871L170.989 161.057L166.96 158.536L167.996 154.374L165.475 153.338H162.504L162.061 152.002L162.354 149.325L161.318 147.846L159.24 148.139L158.664 149.625L156.143 149.774L153.915 147.103L153.023 143.54L155.251 139.378L159.557 139.677L160.748 140.719H162.527L164.755 139.378L166.683 139.954L169.354 144.559L170.396 144.409L170.097 140.996L169.262 139.234L169.556 136.413L175.048 134.036L175.79 128.544L178.168 126.61L180.096 123.196L181.581 122.903L184.995 120.675L185.145 119.489L182.773 119.633L182.324 118.447H180.695L178.168 119.023L179.354 117.094L184.535 115.609L185.72 114.274L187.799 117.537L189.14 118.873L191.218 118.297L190.326 116.369L187.206 114.141L183.642 110.112L179.935 107.584L176.372 107.009L174.587 105.23L172.21 104.654L171.916 105.23L171.617 109.536L172.192 111.015L170.857 115.77L167.898 113.41L168.341 111.332L165.233 109.835L163.886 108.229L164.628 104.522L168.934 101.402L169.234 97.8385L167.599 97.9882L166.557 96.6526L166.113 94.4248L165.072 94.2752L164.496 96.6526L162.867 96.9462L162.124 91.7653L160.915 90.9594L158.837 90.0671L156.465 91.253L159.43 94.0737L160.006 96.6008L154.658 92.5712L150.945 88.5416L150.651 84.512L146.812 83.4067L143.841 85.341C143.125 85.7743 142.388 86.1701 141.631 86.5268C140.459 86.8062 139.268 86.9986 138.067 87.1025L137.492 89.6296L134.078 89.7735L134.377 91.4084L139.869 92.3007L142.69 95.415V100.596L141.055 105.201L141.354 110.1L137.198 117.371L136.306 128.21L137.601 134.479L139.53 139.234L141.757 139.528L141.015 137.156L139.829 135.371L139.086 132.107L140.422 131.808L142.5 137.156L143.985 141.905V145.762L146.806 149.181L151.854 152.889L159.574 154.973L161.951 157.195L163.73 159.572L166.407 161.207L169.671 162.093L172.935 161.95C172.935 161.95 172.791 163.435 172.791 164.177C172.791 164.92 170.713 167.441 170.713 167.441L169.084 170.4L170.27 173.664L173.539 175L178.145 179.755L180.223 180.641V182.869L180.482 183.905C192.029 182.039 202.818 176.96 211.613 169.249L211.694 168.172L215.724 160.896L213.795 159.561L205.609 161.8ZM221.072 103.158L219.437 100.331L217.359 97.0671L216.783 92.6115L219.454 93.0605L219.604 91.5753L217.669 91.4257L219.304 90.6831L221.089 89.6469V88.1617L219.304 85.7842L218.924 82.5893C210.297 72.0306 198.456 64.579 185.204 61.3681C171.952 58.1572 158.014 59.3628 145.511 64.8015L148.93 67.225L146.812 69.8961L143.991 70.4717L143.697 74.5013L142.506 74.9446L141.021 76.5679L141.17 79.239L143.697 79.5383L142.655 82.0597H145.183L149.483 76.5679L149.932 74.1905L154.088 73.8969L155.124 72.1123L159.43 71.6691L159.879 69.1419L162.993 68.998C162.993 68.998 165.221 67.8064 165.67 67.8064C166.528 67.9927 167.37 68.2409 168.192 68.549L170.419 70.3336H173.539L176.211 68.6987L179.624 68.998C180.115 69.3174 180.676 69.5148 181.259 69.5737C182.002 69.5737 184.229 68.5317 184.229 68.5317L188.53 71.2028L190.314 72.5441V74.7661L192.542 75.0655L193.285 73.7299L195.213 74.6222L195.063 75.8081L190.613 76.9939L193.135 80.2637L198.477 83.234L200.705 86.1987L203.974 86.498L204.717 85.0128L205.903 84.7135L202.04 81.7488L199.669 81.4495L201.597 80.8739L199.818 78.3467L202.34 78.2028L205.604 79.9816L206.346 83.5449L207.981 85.4734L209.317 89.7793L212.586 92.1567V97.0556L216 99.2834L215.85 100.918L215.407 102.847L216.294 105.518L216.593 106.853L219.114 107.302L220.306 104.775L221.072 103.158ZM223 88.1905V89.0424L222.223 91.4257L222.666 93.5038L224.301 94.0794V96.9002L222.522 96.1576L222.085 104.2L220.306 107.463L221.492 111.625L223.42 113.404V121.423L225.354 127.658L227.433 132.407L230.846 133.299L232.032 130.329L232.516 129.949C232.837 127.369 232.999 124.771 232.999 122.172C233.017 110.115 229.536 98.3125 222.977 88.1962L223 88.1905ZM188.702 87.2637L178.916 82.9577L174.61 83.1074L173.574 85.9281L171.789 83.9939L168.525 84.7365L168.226 89.6411L170.897 91.5696L172.831 88.7489L175.019 90.9594L179.624 94.989L180.516 99.2949L184.373 104.194L190.613 103.158L190.464 100.93L189.128 98.4026L188.835 92.4676L190.32 89.9405L188.702 87.2637ZM196.721 90.5276L194.493 89.952L192.565 91.5868L193.601 95.8928H195.535L196.721 90.5276ZM210.537 93.3484L205.488 90.6773L204.447 88.8985L203.261 89.3418L204.297 92.3122L205.189 96.1691L207.417 97.0614L207.86 96.4857L206.525 94.2579L210.387 95.7431L210.537 93.3484ZM167.184 146.948L166.609 147.524L171.064 148.859L172.849 150.937L175.669 151.237L176.706 149.602L173.292 149.026L167.184 146.948ZM180.424 149.769L177.304 150.661L177.753 151.847H181.61L182.353 150.661L181.017 150.805L180.424 149.769Z" fill="#9F78D6" stroke="#663AA3" stroke-width="0.287829" stroke-miterlimit="10"/>
<path d="M214.743 199.758C214.69 201.376 214.884 202.993 215.318 204.553C216.003 206.74 216.683 208.796 217.368 209.619C218.053 210.442 219.152 209.072 218.191 207.426C217.23 205.779 217.782 204.006 218.329 204.006C218.876 204.006 223.257 206.74 223.942 207.702C224.627 208.663 226.682 211.127 226.682 209.481C226.682 207.834 223.533 204.415 222.986 203.453C222.439 202.492 219.423 198.388 219.423 198.388L214.743 199.758Z" fill="#FFBE9D"/>
<g filter="url(#filter0_d_2234_40107)">
<path d="M216.682 194.688L219.422 198.389L214.218 201.262L211.754 198.251L216.682 194.688Z" fill="#5B28A1"/>
</g>
<path d="M187.652 271.376C187.652 271.376 185.596 275.895 184.773 277.133C183.95 278.37 183.265 278.911 181.895 279.188C180.525 279.464 178.199 279.734 178.199 280.828C178.215 281.507 178.414 282.17 178.775 282.745C178.775 282.745 185.211 284.115 187.41 283.568C189.609 283.021 191.791 280.005 191.791 280.005L193.161 280.828L197.133 276.994C196.883 275.647 196.414 274.35 195.745 273.155C194.513 270.691 193.828 268.912 193.828 268.912C193.828 268.912 190.8 271.376 187.652 271.376Z" fill="#616161" stroke="#263238" stroke-width="0.575658" stroke-linejoin="round"/>
<path d="M196.258 274.29C194.819 275.643 191.492 278.895 190.582 279.695C189.431 280.714 187.071 282.752 185.263 282.752C183.962 282.752 180.33 282.228 178.355 281.929C178.444 282.214 178.568 282.487 178.724 282.741C178.724 282.741 185.16 284.111 187.359 283.564C189.558 283.017 191.74 280.001 191.74 280.001L193.11 280.824L197.082 276.99C196.931 276.057 196.654 275.149 196.258 274.29Z" fill="#555555" stroke="#263238" stroke-width="0.575658" stroke-linejoin="round"/>
<path d="M176.973 253.163C176.973 253.163 179.575 258.638 182.154 261.925C184.733 265.212 187.628 272.609 187.628 272.609C187.628 272.609 189.959 273.432 191.6 272.194C192.643 271.345 193.407 270.202 193.793 268.913C193.793 268.913 190.506 258.776 189.274 254.395C188.043 250.014 185.026 240.424 183.656 238.098C182.618 236.385 181.484 234.732 180.26 233.147C180.26 233.147 178.751 242.185 178.066 245.605C177.381 249.024 176.973 253.163 176.973 253.163Z" fill="#263238" stroke="#263238" stroke-width="0.575658" stroke-linejoin="round"/>
<path d="M164.78 190.168L164.918 198.929C164.918 198.929 162.615 215.094 164.509 223.308C166.403 231.523 169.437 240.578 169.437 240.578C169.437 240.578 167.934 255.643 167.382 259.339C166.829 263.035 164.503 270.023 164.503 270.023C164.503 270.023 168.475 272.078 169.16 272.078H170.531C170.531 272.078 174.635 260.985 175.458 259.339C176.281 257.692 179.154 254.549 180.115 247.699C181.077 240.849 181.353 233.722 181.353 233.722C181.353 233.722 188.197 224.955 189.844 222.209C191.49 219.463 194.086 213.85 194.086 213.85C194.086 213.85 197.103 206.044 196.688 198.515C196.274 190.985 193.954 187.151 193.954 187.151C193.954 187.151 180.53 190.3 174.232 190.3C167.934 190.3 164.78 190.168 164.78 190.168Z" fill="#263238" stroke="#263238" stroke-width="0.575658" stroke-linejoin="round"/>
<path d="M168.277 140.984C168.277 140.984 170.936 143.643 170.533 144.57C170.13 145.497 163.234 145.9 161.772 147.627C160.309 149.354 154.069 171.263 154.069 171.263C154.069 171.263 146.632 169.133 145.97 168.604C145.308 168.074 144.508 168.471 144.11 170.066C143.713 171.66 139.73 175.247 140.259 176.174C140.789 177.1 148.094 180.687 151.68 181.619C153.864 182.181 156.086 182.58 158.329 182.811L157.8 189.586C157.8 189.586 164.569 193.438 177.717 191.711C190.865 189.984 196.323 187.197 196.323 187.197L194.734 173.52C194.734 173.52 203.369 189.719 204.825 192.517C206.282 195.314 208.141 199.424 209.735 199.954C211.33 200.484 217.041 196.765 217.173 195.176C217.305 193.587 212.395 185.879 208.538 179.242C204.681 172.604 199.374 153.878 198.579 149.883C197.785 145.888 195.655 142.578 193.398 142.049C191.142 141.519 185.034 141.513 182.374 140.984C179.715 140.454 176.002 136.073 174.275 130.495L168.277 140.984Z" fill="#663AA3"/>
<path d="M163.508 153.343C164.181 151.915 164.699 150.942 164.699 150.942" stroke="#263238" stroke-width="0.280986" stroke-miterlimit="10"/>
<path d="M158.328 182.812C158.328 182.812 159.923 165.686 160.585 161.57C161.004 159.534 161.643 157.55 162.49 155.652" stroke="#263238" stroke-width="0.280986" stroke-miterlimit="10"/>
<path d="M190.315 157.823C190.119 156.879 189.935 155.952 189.785 155.06" stroke="#263238" stroke-width="0.280986" stroke-miterlimit="10"/>
<path d="M194.702 173.52C194.702 173.52 192.497 166.987 190.902 160.39" stroke="#263238" stroke-width="0.280986" stroke-miterlimit="10"/>
<path d="M166.961 145.71C167.6 147.08 169.649 149.849 175.861 149.739C183.189 149.618 186.412 144.558 187.598 141.478C185.846 141.407 184.099 141.238 182.366 140.972C179.712 140.442 175.993 136.062 174.266 130.483L168.273 140.983C168.273 140.983 170.933 143.643 170.53 144.57C170.346 145.001 168.745 145.324 166.961 145.71Z" fill="#FFBE9D"/>
<path d="M173.241 134.278L171.434 135.43L168.273 140.967C169.026 141.724 169.694 142.559 170.265 143.46C173.241 139.92 173.241 134.278 173.241 134.278Z" fill="#EB996E"/>
<path d="M152.875 128.377C152.875 128.377 155.396 132.757 156.058 134.749C157.029 137.19 158.877 139.18 161.239 140.327C163.628 141.387 164.826 142.319 166.95 142.452C169.995 142.642 172.257 138.336 173.455 135.014C174.652 131.693 174.652 131.163 174.652 131.163C174.652 131.163 176.506 128.377 176.506 125.452C176.506 122.528 173.19 119.212 169.471 117.485C165.752 115.758 163.231 113.237 159.38 116.691C155.529 120.145 152.875 128.377 152.875 128.377Z" fill="#FEBC9A"/>
<path d="M159.512 132.619C159.794 133.388 159.972 134.192 160.041 135.008C160.041 135.941 161.239 136.338 162.298 134.346" stroke="#263238" stroke-width="0.575658" stroke-miterlimit="10"/>
<path d="M162.562 137.012C162.562 137.012 165.884 137.541 166.546 133.558" stroke="#263238" stroke-width="0.575658" stroke-miterlimit="10"/>
<path d="M163.243 128.014C163.554 128.544 163.565 129.114 163.243 129.292C162.921 129.471 162.449 129.177 162.138 128.647C161.827 128.118 161.821 127.542 162.138 127.369C162.454 127.197 162.932 127.485 163.243 128.014Z" fill="#263238"/>
<path d="M157.886 130.68C158.196 131.21 158.208 131.786 157.886 131.958C157.563 132.131 157.091 131.843 156.786 131.314C156.481 130.784 156.464 130.208 156.786 130.036C157.108 129.863 157.581 130.139 157.886 130.68Z" fill="#263238"/>
<path d="M159.438 126.241C159.438 126.241 160.013 124.157 163.749 124.433" stroke="#263238" stroke-width="0.575658" stroke-miterlimit="10"/>
<path d="M156.652 128.331C156.652 128.331 154.568 128.331 154.706 130" stroke="#263238" stroke-width="0.575658" stroke-miterlimit="10"/>
<path d="M162.433 118.81C162.433 118.81 160.706 120.801 158.714 122.793C156.722 124.785 153.406 127.709 153.406 131.29C153.406 134.871 153.539 135.273 153.539 135.273C153.539 135.273 147.828 132.355 146.234 128.366C144.639 124.376 148.225 115.218 152.606 111.096C156.987 106.974 162.168 106.185 167.878 106.583C173.589 106.98 179.299 112.69 180.761 118.401C182.224 124.111 179.299 130.352 178.367 131.411C177.434 132.47 174.516 132.608 174.516 132.608C175.139 130.589 175.277 128.451 174.919 126.368C174.251 123.311 172.391 123.979 172.127 125.303C171.862 126.627 171.729 127.162 171.729 127.162C171.729 127.162 169.076 125.303 166.284 123.311C164.641 122.159 163.317 120.611 162.433 118.81Z" fill="#263238" stroke="#263238" stroke-width="0.575658" stroke-linejoin="round"/>
<path d="M137.207 172.462L140.788 167.148L142.515 168.875L137.207 172.462Z" fill="#39126D"/>
<path d="M149.865 164.626L141.524 164.661L133.574 149.348L141.916 149.313L149.865 164.626Z" fill="#263238" stroke="#263238" stroke-width="0.575658" stroke-linejoin="round"/>
<path d="M134.949 156.785C134.949 156.785 137.073 158.777 137.206 159.71C137.338 160.642 138.397 164.223 138.933 165.95C139.468 167.677 141.454 169.536 141.454 169.536L143.181 167.809L142.513 164.885C143.15 164.32 143.815 163.788 144.505 163.29C145.305 162.761 146.232 161.298 145.703 161.298C145.3 161.311 144.9 161.357 144.505 161.437C144.505 161.437 145.703 159.577 144.908 159.445C144.381 159.359 143.848 159.313 143.314 159.307C143.314 159.307 144.638 157.718 143.578 157.58C142.519 157.442 138.795 159.439 138.795 159.439L137.206 157.044C136.867 156.85 136.492 156.727 136.104 156.683C135.716 156.638 135.323 156.673 134.949 156.785Z" fill="#FFBE9D" stroke="#263238" stroke-width="0.575658" stroke-linejoin="round"/>
<path d="M135.388 155.911C135.275 156.01 135.191 156.138 135.146 156.281C135.101 156.425 135.097 156.578 135.135 156.723C135.173 156.869 135.251 157.001 135.359 157.105C135.468 157.208 135.604 157.28 135.751 157.31C135.996 157.396 136.258 157.418 136.513 157.372C136.769 157.327 137.008 157.216 137.207 157.051C137.869 156.257 140.523 154.133 140.523 153.068C140.523 152.003 139.332 153.2 138.796 153.471C137.599 154.195 136.46 155.011 135.388 155.911Z" fill="#FFBE9D" stroke="#263238" stroke-width="0.575658" stroke-linejoin="round"/>
<path d="M139.094 159.7L136.753 156.422L135.348 156.89L136.753 158.295L138.626 160.168L139.094 159.7Z" fill="#FFBE9D"/>
<path d="M143.315 159.308C143.315 159.308 139.332 161.299 138.664 162.1" stroke="#263238" stroke-width="0.575658" stroke-linejoin="round"/>
<path d="M144.51 161.437C144.51 161.437 141.327 162.893 140.262 164.09" stroke="#263238" stroke-width="0.575658" stroke-linejoin="round"/>
<path d="M144.771 168.472L142.918 166.877L137.207 172.455L141.058 175.379C141.058 175.379 144.639 171.925 144.771 168.472Z" fill="#5B28A2"/>
<path d="M144.713 168.598C144.713 169.378 144.244 171.501 142.371 173.749" stroke="#263238" stroke-width="0.280986"/>
<path d="M181.492 199.344C181.492 199.344 175.326 213.856 173.956 219.906C172.586 225.956 169.984 237.435 169.984 238.12" stroke="#757575" stroke-width="0.575658" stroke-linejoin="round"/>
<path d="M172.586 203.454L176.149 207.559" stroke="#757575" stroke-width="0.575658" stroke-linejoin="round"/>
<path d="M164.51 269.598C164.51 269.598 163.687 271.376 159.715 272.194C155.743 273.011 152.047 271.515 151.362 271.647C150.677 271.779 149.992 273.017 149.992 274.117C149.992 275.216 154.787 278.221 156.704 279.182C158.232 279.832 159.848 280.247 161.5 280.414H162.179L162.046 281.784C163.16 282.228 164.302 282.593 165.466 282.878C166.512 283.033 167.575 283.033 168.62 282.878C169.037 281.127 169.266 279.336 169.306 277.536C169.398 275.654 169.815 273.802 170.537 272.061L164.51 269.598Z" fill="#616161" stroke="#263238" stroke-width="0.575658" stroke-linejoin="round"/>
<path d="M169.035 280.736C166.335 280.385 161.356 279.585 158.333 278.433C155.133 277.225 151.546 274.761 150.027 273.667C150.004 273.81 149.992 273.954 149.992 274.099C149.992 275.192 154.787 278.203 156.704 279.165C158.232 279.814 159.848 280.229 161.5 280.396H162.179L162.046 281.766C163.16 282.21 164.302 282.575 165.466 282.86C166.512 283.015 167.575 283.015 168.62 282.86C168.62 282.86 168.839 281.985 169.035 280.736Z" fill="#555555" stroke="#263238" stroke-width="0.575658" stroke-linejoin="round"/>
<path d="M144.713 168.593L142.84 166.72" stroke="#263238" stroke-width="0.280986"/>
</g>
<defs>
<filter id="filter0_d_2234_40107" x="210.817" y="194.688" width="9.54121" height="8.44746" filterUnits="userSpaceOnUse" color-interpolation-filters="sRGB">
<feFlood flood-opacity="0" result="BackgroundImageFix"/>
<feColorMatrix in="SourceAlpha" type="matrix" values="0 0 0 0 0 0 0 0 0 0 0 0 0 0 0 0 0 0 127 0" result="hardAlpha"/>
<feOffset dy="0.93662"/>
<feGaussianBlur stdDeviation="0.46831"/>
<feComposite in2="hardAlpha" operator="out"/>
<feColorMatrix type="matrix" values="0 0 0 0 0.4 0 0 0 0 0.227451 0 0 0 0 0.639216 0 0 0 0.12 0"/>
<feBlend mode="normal" in2="BackgroundImageFix" result="effect1_dropShadow_2234_40107"/>
<feBlend mode="normal" in="SourceGraphic" in2="effect1_dropShadow_2234_40107" result="shape"/>
</filter>
<clipPath id="clip0_2234_40107">
<rect width="266" height="265.119" fill="white" transform="translate(37 22.7148)"/>
</clipPath>
</defs>
</svg>
