<svg width="340" height="389" viewBox="0 0 340 389" fill="none" xmlns="http://www.w3.org/2000/svg">
<rect width="340" height="389" fill="white"/>
<rect x="0.5" y="0.5" width="339" height="388" stroke="white" stroke-opacity="0.3"/>
<mask id="mask0_2234_44376" style="mask-type:alpha" maskUnits="userSpaceOnUse" x="0" y="0" width="340" height="389">
<rect width="340" height="389" fill="white"/>
<rect x="0.5" y="0.5" width="339" height="388" stroke="white" stroke-opacity="0.3"/>
</mask>
<g mask="url(#mask0_2234_44376)">
<g clip-path="url(#clip0_2234_44376)">
<path d="M412.913 187.686V188.806C412.913 192.234 412.813 195.897 412.629 199.793C412.479 203.021 412.261 206.399 411.977 209.844C411.375 217.537 410.439 225.715 409.218 233.926C409.017 235.348 408.783 236.786 408.549 238.191C408.315 239.679 408.047 241.151 407.763 242.639C406.459 249.947 404.904 257.138 403.065 263.945C402.546 265.784 402.028 267.607 401.51 269.38C400.389 273.076 399.202 276.604 397.898 279.932V279.966C396.242 284.197 394.437 288.094 392.497 291.555C392.313 291.89 392.112 292.258 391.895 292.592C391.276 293.679 390.624 294.699 389.972 295.653C389.504 296.321 389.036 296.974 388.568 297.609C388.2 298.077 387.832 298.512 387.481 298.964C387.013 299.516 386.578 300.034 386.11 300.519C385.926 300.72 385.742 300.904 385.558 301.088C385.19 301.456 384.822 301.823 384.471 302.158C383.284 303.195 382.046 304.115 380.776 304.834C380.742 304.867 380.725 304.867 380.692 304.884C380.642 304.934 380.558 304.967 380.508 304.984C380.374 305.068 380.241 305.135 380.14 305.185C379.873 305.319 379.622 305.452 379.354 305.57L349.324 305.77L297.723 306.105L193.635 305.72L156.531 305.586L119.411 305.452H119.327L116.802 305.419L47.929 305.185L42.5448 305.151H41.1403L19.3195 305.068L8.35056 305.018L-38.5182 304.834H-39.0533C-39.0533 304.834 -39.0867 304.8 -39.1034 304.784C-39.371 304.583 -40.6585 303.462 -42.6148 301.506C-42.9827 301.138 -43.3673 300.753 -43.7518 300.335C-44.1699 299.917 -44.5879 299.482 -45.0226 298.98C-54.587 288.562 -72.2276 264.53 -71.6256 229.678C-71.2912 208.807 -67.9303 172.149 -42.782 146.195C-42.364 145.777 -41.946 145.342 -41.528 144.924C-41.4276 144.84 -41.3273 144.74 -41.1935 144.606C-41.1601 144.572 -41.1434 144.556 -41.1099 144.522C-40.9762 144.388 -40.8424 144.288 -40.6919 144.138C-40.6417 144.087 -40.5916 144.037 -40.5414 143.987C-40.4411 143.887 -40.3408 143.786 -40.207 143.669C-40.1067 143.569 -39.9729 143.435 -39.8391 143.301C-39.6552 143.168 -39.5047 143.017 -39.3208 142.833C-39.3208 142.8 -39.3208 142.8 -39.2873 142.8C-39.187 142.716 -39.0867 142.616 -38.9697 142.515V142.482C-38.7857 142.331 -38.6018 142.164 -38.4513 142.014C-38.3008 141.913 -38.167 141.746 -38.0166 141.629C-37.9831 141.629 -37.9831 141.629 -37.9831 141.596C-37.749 141.395 -37.5149 141.178 -37.2474 140.994C-37.1136 140.86 -36.9631 140.726 -36.8127 140.609C-36.7123 140.509 -36.5786 140.408 -36.4782 140.291C-36.3779 140.241 -36.3277 140.157 -36.2107 140.107C-36.0769 139.973 -35.9264 139.84 -35.776 139.723C-35.6923 139.639 -35.6255 139.589 -35.5419 139.539C-35.3579 139.388 -35.174 139.254 -34.9901 139.104C-34.9566 139.07 -34.9399 139.054 -34.9065 139.02C-34.6222 138.82 -34.3547 138.585 -34.0704 138.368C-33.8363 138.184 -33.6022 138 -33.3681 137.816C-33.3347 137.783 -33.2845 137.766 -33.2678 137.733C-33.0672 137.582 -32.8498 137.415 -32.6157 137.264C-32.4318 137.114 -32.2311 136.947 -32.0472 136.829C-31.9636 136.779 -31.9134 136.729 -31.8465 136.679C-31.579 136.495 -31.3282 136.311 -31.0607 136.11C-30.8767 135.977 -30.6761 135.843 -30.4921 135.726C-30.258 135.575 -30.0574 135.408 -29.8233 135.257C-29.6728 135.157 -29.5056 135.057 -29.3551 134.923C-29.121 134.772 -28.8869 134.639 -28.6528 134.488C-28.4689 134.354 -28.2683 134.221 -28.0843 134.104C-28.0007 134.053 -27.9506 134.003 -27.8837 133.97C-27.683 133.836 -27.4991 133.702 -27.2817 133.585C-27.0476 133.435 -26.8135 133.301 -26.5794 133.15C-26.5794 133.15 -26.546 133.15 -26.546 133.117C-26.3119 132.983 -26.0778 132.833 -25.8772 132.699C-25.6096 132.565 -25.3755 132.414 -25.1414 132.264C-25.108 132.264 -25.0578 132.23 -25.0411 132.214C-24.8405 132.08 -24.6231 131.946 -24.4225 131.846C-24.1884 131.695 -23.9208 131.562 -23.6867 131.428C-23.4526 131.277 -23.1851 131.143 -22.951 131.01C-22.951 131.01 -22.951 130.976 -22.9176 130.976C-22.6835 130.842 -22.4159 130.709 -22.1818 130.558C-21.9143 130.424 -21.6802 130.291 -21.4461 130.174C-21.396 130.14 -21.3625 130.14 -21.3458 130.123C-21.1117 129.99 -20.8776 129.889 -20.6435 129.755C-20.4094 129.622 -20.1753 129.521 -19.9412 129.387C-19.7573 129.287 -19.5567 129.187 -19.3727 129.103C-18.52 128.668 -17.6338 128.217 -16.7475 127.799C-15.1925 127.063 -13.604 126.377 -11.9654 125.725C-11.7313 125.625 -11.4637 125.524 -11.2296 125.441C-10.9956 125.34 -10.7615 125.257 -10.5274 125.156C-10.2933 125.056 -10.0592 124.972 -9.79165 124.872C-9.40706 124.722 -9.00576 124.588 -8.62118 124.437C-8.35365 124.354 -8.10283 124.253 -7.83529 124.17C-7.6012 124.069 -7.36711 123.986 -7.13302 123.902C-6.84876 123.802 -6.56451 123.701 -6.2468 123.584C-6.2468 123.584 -6.24681 123.584 -6.21337 123.584C-6.17992 123.551 -6.16321 123.551 -6.12976 123.551C-5.89567 123.467 -5.66158 123.367 -5.39404 123.283C-5.05962 123.183 -4.69176 123.049 -4.3239 122.949C-4.0062 122.849 -3.70523 122.748 -3.38754 122.631C-3.3541 122.631 -3.35409 122.631 -3.33736 122.631C-3.06983 122.531 -2.78558 122.447 -2.50132 122.364C-2.36755 122.313 -2.23379 122.28 -2.11674 122.23C-1.83249 122.146 -1.54823 122.079 -1.28069 121.996C-1.18037 121.962 -1.09676 121.946 -1.01316 121.912C-0.678741 121.812 -0.344322 121.728 -0.0266266 121.628C0.307793 121.544 0.642212 121.444 0.993347 121.343C1.12711 121.31 1.26088 121.293 1.37793 121.26C1.64546 121.176 1.89628 121.109 2.16381 121.059C2.21397 121.026 2.26414 121.009 2.3143 121.009C2.68216 120.909 3.06674 120.825 3.43461 120.725C3.76902 120.641 4.10344 120.574 4.45458 120.491C4.53819 120.457 4.63851 120.44 4.73884 120.407C5.1067 120.323 5.44111 120.256 5.80898 120.139C6.227 120.056 6.61158 119.989 6.99616 119.872H7.0296C7.44762 119.788 7.83221 119.688 8.21679 119.604C8.65154 119.521 9.06955 119.42 9.48757 119.337C9.68822 119.286 9.9056 119.236 10.0895 119.186C10.2902 119.136 10.5076 119.086 10.7082 119.036C10.8921 119.002 11.0761 118.952 11.26 118.902C11.4439 118.852 11.6279 118.818 11.8285 118.768C11.979 118.718 12.1629 118.668 12.3469 118.618C12.5308 118.567 12.7147 118.534 12.8986 118.484C13.0826 118.434 13.2331 118.383 13.4003 118.333C13.7681 118.233 14.1527 118.133 14.5206 118.016C14.7045 117.965 14.855 117.915 15.0389 117.865C15.3733 117.765 15.7078 117.631 16.0589 117.531C16.0923 117.531 16.0924 117.531 16.1091 117.531C16.4435 117.43 16.7779 117.296 17.0956 117.196C17.4635 117.062 17.7644 116.962 18.1156 116.828C18.45 116.694 18.7844 116.594 19.1356 116.46C19.169 116.427 19.1857 116.427 19.2359 116.41C19.7041 116.226 20.2057 116.042 20.6572 115.858V115.975C20.8076 115.925 20.9749 115.875 21.0919 115.791C21.2926 115.708 21.4765 115.641 21.6604 115.557C21.9447 115.423 22.2289 115.323 22.5132 115.189C22.6637 115.106 22.8476 115.039 23.0148 114.955C23.5164 114.754 23.9679 114.52 24.4695 114.286C24.7371 114.152 25.0213 114.019 25.2721 113.902C25.5397 113.768 25.7905 113.634 26.058 113.517C26.0915 113.483 26.1082 113.483 26.1082 113.467C26.3924 113.333 26.66 113.182 26.9442 113.049C26.9777 113.015 26.9944 112.998 27.0445 112.998C27.2452 112.865 27.4626 112.764 27.6632 112.631C27.7635 112.58 27.8639 112.497 27.9976 112.447C28.1481 112.363 28.3153 112.263 28.4658 112.179C28.5996 112.095 28.6999 112.028 28.8337 111.978C29.1012 111.828 29.352 111.661 29.6196 111.51C29.8537 111.36 30.1212 111.226 30.3553 111.075C30.6228 110.891 30.9071 110.741 31.1579 110.557C31.4254 110.406 31.6762 110.222 31.9438 110.055L31.9772 110.022C32.1779 109.888 32.3618 109.754 32.5457 109.637C32.6795 109.553 32.7798 109.487 32.8801 109.403C33.0306 109.319 33.1644 109.219 33.2982 109.119C33.4487 109.035 33.5824 108.935 33.7162 108.834C33.8667 108.734 34.0005 108.65 34.1342 108.55C34.2847 108.45 34.4185 108.349 34.569 108.232C34.6693 108.149 34.7696 108.082 34.8867 107.998C35.1208 107.848 35.3214 107.664 35.5555 107.48C35.5889 107.446 35.6391 107.43 35.6558 107.396C35.8899 107.246 36.124 107.062 36.3247 106.878C36.6424 106.644 36.9768 106.376 37.2778 106.125C37.5118 105.941 37.7459 105.757 37.98 105.557C38.0135 105.523 38.0636 105.473 38.0804 105.456C38.2643 105.322 38.4482 105.172 38.5987 105.021C38.6489 104.988 38.6823 104.971 38.7325 104.938C38.8161 104.854 38.9164 104.754 39.0167 104.67C39.0669 104.62 39.1171 104.587 39.1672 104.536C39.2508 104.453 39.3177 104.403 39.4013 104.336C39.4515 104.286 39.4849 104.252 39.5351 104.235C39.5685 104.202 39.5852 104.185 39.5852 104.185C39.6187 104.152 39.6354 104.135 39.6354 104.135C39.7692 104.035 39.9029 103.901 40.02 103.801C40.2039 103.65 40.3544 103.483 40.5383 103.332C40.5885 103.282 40.6721 103.232 40.7223 103.148C40.8727 103.015 41.04 102.864 41.2239 102.714C41.2573 102.68 41.3075 102.63 41.3577 102.58C41.4078 102.546 41.4413 102.496 41.4914 102.479C41.6754 102.295 41.8593 102.145 42.0098 101.961C42.0599 101.928 42.0934 101.911 42.1101 101.877C42.2104 101.777 42.294 101.693 42.3943 101.593C42.478 101.543 42.5281 101.493 42.5783 101.409C42.6284 101.376 42.6786 101.325 42.7121 101.309C42.7622 101.225 42.8124 101.208 42.8625 101.158C42.9127 101.075 42.9963 101.024 43.0465 100.974C43.0799 100.941 43.1301 100.891 43.1802 100.84C43.2304 100.79 43.2638 100.74 43.314 100.707C43.3976 100.623 43.4645 100.556 43.5481 100.473C43.732 100.289 43.8825 100.138 44.0664 99.9541C44.3841 99.6197 44.7186 99.2852 45.053 98.934C45.053 98.9006 45.0864 98.8838 45.1031 98.8838C45.2536 98.6999 45.4208 98.5494 45.5713 98.3654L45.7051 98.2316C45.9392 97.964 46.2067 97.6797 46.4408 97.4289C46.4743 97.3954 46.491 97.3787 46.5244 97.3453C46.5579 97.2951 46.608 97.2616 46.6247 97.2115C46.8923 96.9272 47.1431 96.6596 47.3772 96.3753C47.4274 96.3251 47.4608 96.2917 47.4775 96.275L47.511 96.2248C47.7952 95.907 48.0628 95.606 48.347 95.2883C48.3804 95.2548 48.3972 95.2381 48.4306 95.2047C48.4641 95.1545 48.4808 95.121 48.5142 95.1043C48.7985 94.7698 49.0827 94.4354 49.3503 94.1176C49.6345 93.7497 49.9188 93.4152 50.203 93.0808C50.4873 92.7463 50.7715 92.3784 51.0558 92.0439C51.0892 92.0105 51.106 91.9937 51.106 91.9603C51.3066 91.6927 51.524 91.4419 51.7246 91.1576C51.7748 91.1074 51.825 91.0572 51.8751 91.0071C52.0089 90.8565 52.1427 90.6726 52.243 90.5054C52.3433 90.3716 52.4436 90.2712 52.5272 90.1374C52.8617 89.7193 53.1793 89.2845 53.5138 88.8664C54.3164 87.7961 55.1023 86.7091 55.9049 85.6221C55.9383 85.5886 55.955 85.5385 56.0052 85.4883C56.1891 85.2207 56.3396 84.9866 56.5235 84.7357C56.6239 84.602 56.7242 84.4682 56.8078 84.3511C57.0419 84.0334 57.2425 83.7491 57.4599 83.448C57.5435 83.3477 57.6104 83.2474 57.6606 83.1303C57.8111 82.9296 57.995 82.6955 58.1622 82.4613C58.3127 82.2607 58.4799 82.0265 58.6304 81.7924C59.249 80.8893 59.9012 79.9528 60.5198 79.0163C60.6034 78.9327 60.6536 78.8323 60.7205 78.7487C60.7539 78.7153 60.7539 78.7153 60.7539 78.6986C60.8041 78.6149 60.8542 78.548 60.9044 78.4644C61.172 78.0798 61.4562 77.6784 61.707 77.2938C62.0247 76.8255 62.3257 76.3573 62.6434 75.9225C63.9643 73.9491 65.2686 71.9924 66.5895 70.0525C66.8236 69.6846 67.0577 69.3501 67.3253 69.0157C67.3253 68.9822 67.3587 68.9655 67.3754 68.932C67.4256 68.8317 67.4757 68.7481 67.5593 68.6645C67.7433 68.3802 67.9439 68.0959 68.1279 67.7781C68.2783 67.5774 68.4455 67.3433 68.596 67.1092C68.6964 66.9754 68.7967 66.8249 68.9137 66.6744C69.0977 66.4402 69.2482 66.2061 69.4321 65.9385C69.4822 65.8549 69.5324 65.788 69.5826 65.7044C69.616 65.6542 69.6662 65.6041 69.6829 65.5706C69.8835 65.2529 70.1009 64.9686 70.3016 64.6843C70.3517 64.6007 70.4019 64.5338 70.4521 64.4501C70.7196 64.0822 70.9704 63.6976 71.2379 63.3297C71.5055 62.9617 71.7897 62.5938 72.0406 62.2426C72.0406 62.2092 72.0406 62.2092 72.0406 62.2092C72.0907 62.159 72.1409 62.0754 72.1743 62.0252L72.2579 61.9416C72.3415 61.8413 72.4084 61.7409 72.492 61.6071C72.5422 61.557 72.5756 61.4734 72.6258 61.4232C72.7261 61.2894 72.8097 61.1891 72.8933 61.0553C73.0271 60.8713 73.1776 60.6874 73.3113 60.5034C73.6959 59.985 74.0972 59.4665 74.4818 58.9481C74.8497 58.4798 75.1841 58.0116 75.5519 57.5433C75.7526 57.259 75.9867 56.9747 76.2041 56.7072C76.3545 56.5232 76.4883 56.3225 76.6388 56.1386C76.8227 55.9379 77.0067 55.7037 77.1906 55.4696C77.3745 55.2355 77.5584 55.0014 77.7591 54.8007C77.943 54.5665 78.127 54.3324 78.3109 54.0983C79.4479 52.727 80.6184 51.3724 81.8223 50.0512C82.0229 49.8505 82.2403 49.6164 82.4409 49.3823C82.8088 48.9976 83.1934 48.5795 83.578 48.1949C83.7619 47.9942 83.9458 47.8103 84.1298 47.5929L85.5845 46.1379C85.7684 45.9539 85.9691 45.77 86.153 45.586C86.2868 45.4522 86.4205 45.3185 86.5376 45.2181C86.6881 45.0676 86.8553 44.9004 87.0058 44.7833C87.1897 44.5993 87.3904 44.4154 87.6077 44.2147C87.6412 44.1813 87.6913 44.1645 87.708 44.1144C87.9087 43.9304 88.1261 43.7464 88.3267 43.5625C88.5608 43.3618 88.7949 43.1444 89.029 42.9437C89.2297 42.7598 89.447 42.5591 89.6811 42.3751C89.7146 42.3417 89.7647 42.2915 89.7814 42.2748C90.0155 42.0908 90.2162 41.9069 90.4336 41.7229C90.6342 41.5389 90.8683 41.355 91.0857 41.2045C91.1358 41.1543 91.186 41.1209 91.2194 41.0707C91.4535 40.8867 91.6542 40.7362 91.8883 40.5523C92.1224 40.3516 92.3899 40.1676 92.6073 39.9502C92.8748 39.7663 93.1256 39.5656 93.3597 39.3816C93.4935 39.2813 93.6273 39.1977 93.7443 39.0973C93.8781 39.0137 94.0118 38.9134 94.1122 38.813C94.2459 38.7294 94.3463 38.6625 94.48 38.5454C94.8646 38.2611 95.2659 37.9768 95.6672 37.7093C95.801 37.6089 95.9013 37.5253 96.0351 37.4417C96.1688 37.3413 96.3193 37.241 96.4531 37.1574C96.5869 37.057 96.7206 36.9734 96.8711 36.8898C97.1387 36.7058 97.3895 36.5219 97.657 36.3379C97.9413 36.1874 98.2088 36.0035 98.493 35.8195C98.6937 35.6857 98.9278 35.5352 99.1619 35.4014C99.2455 35.3512 99.3124 35.3011 99.396 35.2676C99.396 35.2342 99.4294 35.2342 99.4294 35.2342C99.6635 35.1004 99.8641 34.9499 100.098 34.8161C100.382 34.6321 100.7 34.4816 100.984 34.2977C101.135 34.214 101.269 34.1472 101.419 34.0635C101.57 33.9632 101.737 33.8796 101.887 33.796C102.021 33.7123 102.155 33.6454 102.272 33.5953C103.86 32.7089 105.516 31.8728 107.238 31.1202C107.338 31.07 107.439 31.0199 107.556 30.9864C107.79 30.8861 108.024 30.7857 108.258 30.6687C108.492 30.5683 108.693 30.468 108.927 30.3844C109.01 30.3509 109.077 30.3342 109.128 30.284C109.311 30.2339 109.462 30.1502 109.629 30.1001C109.863 29.9997 110.097 29.8994 110.331 29.8158C110.532 29.7322 110.716 29.6653 110.9 29.5816C111 29.5482 111.084 29.5315 111.184 29.4813C111.468 29.381 111.736 29.2806 112.02 29.197C112.973 28.8291 113.993 28.4946 115.013 28.1601C115.331 28.0598 115.615 27.9762 115.916 27.8758C116.301 27.7755 116.669 27.6417 117.053 27.5414C117.321 27.4578 117.572 27.4076 117.806 27.3407C117.906 27.3072 117.99 27.2905 118.09 27.2571C118.408 27.1735 118.742 27.0731 119.076 26.9895C119.411 26.8892 119.779 26.8055 120.147 26.7219C120.481 26.6216 120.849 26.538 121.217 26.4543C121.551 26.3707 121.919 26.3038 122.253 26.2202C122.287 26.1868 122.304 26.1868 122.337 26.1868C122.671 26.1032 123.073 26.0363 123.424 25.9526C133.139 23.9793 144.526 23.3605 158.053 24.5479C160.16 24.7318 162.216 25.0161 164.206 25.384C183.101 28.712 196.812 39.0471 209.905 46.556C220.138 52.4092 229.986 56.5566 241.658 54.3324C242.928 54.0983 244.199 53.7805 245.503 53.3959C245.871 53.2956 246.239 53.1952 246.573 53.0782C246.941 52.9778 247.276 52.8775 247.644 52.7604C249.065 52.3256 250.503 51.9242 251.924 51.5061C252.576 51.3222 253.228 51.1382 253.881 50.9877C253.964 50.9543 254.014 50.9376 254.064 50.9376C254.399 50.8372 254.717 50.7536 255.018 50.67C255.352 50.5696 255.686 50.486 256.004 50.4024C257.141 50.0847 258.261 49.8004 259.382 49.5495C259.766 49.4492 260.184 49.3488 260.602 49.2318C262.659 48.73 264.699 48.2785 266.739 47.827C267.073 47.7434 267.441 47.6765 267.776 47.5929C268.194 47.5092 268.578 47.4423 268.963 47.3253C269.331 47.2751 269.699 47.1915 270.05 47.1246C270.384 47.041 270.702 46.9908 271.036 46.9239C271.22 46.8905 271.404 46.8403 271.588 46.8236C271.872 46.7734 272.157 46.7232 272.441 46.6731C272.675 46.6229 272.876 46.5727 273.11 46.5393C273.377 46.4891 273.628 46.4389 273.896 46.3888C274.548 46.2884 275.166 46.1546 275.785 46.0543C275.986 46.0208 276.203 45.9707 276.404 45.9539C277.022 45.8536 277.658 45.7533 278.243 45.6362C278.327 45.6362 278.377 45.6028 278.444 45.6028C278.711 45.5526 278.962 45.5191 279.229 45.469C279.597 45.4188 279.965 45.3686 280.316 45.285C281.119 45.1847 281.905 45.0509 282.674 44.9505C282.992 44.9004 283.293 44.8669 283.61 44.8167C284.079 44.7666 284.513 44.7164 284.981 44.6328H285.065C287.556 44.2983 290.031 44.0307 292.439 43.8468C292.807 43.8133 293.108 43.7966 293.459 43.7632C294.295 43.6796 295.114 43.6294 295.95 43.5792C296.034 43.5458 296.134 43.5458 296.184 43.5458C296.619 43.5123 297.071 43.4956 297.505 43.4621C297.974 43.4287 298.408 43.4287 298.86 43.412C299.428 43.3785 299.997 43.3618 300.549 43.3618C300.866 43.3284 301.167 43.3116 301.485 43.3116C301.92 43.3116 302.371 43.2782 302.789 43.2782C303.441 43.2447 304.06 43.2447 304.679 43.2447C306.602 43.2447 308.441 43.2782 310.297 43.3451C310.949 43.3785 311.568 43.3953 312.186 43.4287C313.022 43.4621 313.842 43.5123 314.661 43.5792C315.698 43.6628 316.718 43.7297 317.704 43.8468C318.607 43.9304 319.527 44.0307 320.413 44.1311C320.781 44.1645 321.115 44.2147 321.483 44.2649C321.851 44.315 322.219 44.3652 322.57 44.4154C322.938 44.4656 323.306 44.5157 323.64 44.5659C325.145 44.8 326.633 45.0676 328.105 45.3519C329.877 45.6864 331.616 46.0877 333.305 46.4891C334.091 46.6898 334.843 46.8737 335.596 47.1079C336.114 47.2417 336.632 47.3922 337.151 47.5427C338.321 47.8771 339.441 48.2451 340.579 48.6297C341.13 48.8137 341.649 48.9976 342.167 49.1816C343.806 49.7836 345.411 50.4358 346.999 51.1048L347.284 51.2386C347.568 51.3724 347.886 51.5061 348.17 51.6232C349.19 52.0915 350.193 52.5597 351.18 53.0447C351.564 53.2287 351.966 53.4294 352.35 53.6468C353.337 54.1652 354.273 54.6669 355.209 55.202C355.945 55.6201 356.664 56.0382 357.366 56.473C357.885 56.7908 358.403 57.1252 358.921 57.4597C359.724 57.9781 360.527 58.53 361.346 59.0652C361.814 59.3996 362.299 59.7341 362.767 60.102C363.62 60.7041 364.456 61.3563 365.292 61.9918C366.178 62.6942 367.064 63.4133 367.884 64.1491C368.737 64.8849 369.606 65.6375 370.409 66.4068C371.78 67.6778 373.117 68.9822 374.388 70.3535C374.856 70.8218 375.274 71.2901 375.709 71.775C377.448 73.6982 379.12 75.7051 380.692 77.7788C381.026 78.1969 381.311 78.5815 381.595 78.9661C381.779 79.2337 381.963 79.4678 382.113 79.7187C382.665 80.4211 383.133 81.09 383.568 81.7422L384.137 82.545C400.891 107.329 408.248 140.81 412.328 173.855C412.646 177.685 412.88 182.334 412.913 187.686Z" fill="#C2B0DA"/>
<path d="M323.489 44.683V284.632H37.1094V106.125C37.3435 105.941 37.5776 105.757 37.8117 105.556C37.8451 105.523 37.8953 105.473 37.912 105.456C38.0959 105.322 38.2798 105.172 38.4303 105.021C38.4805 104.988 38.5139 104.971 38.5641 104.938C38.6477 104.854 38.748 104.754 38.8484 104.67C38.8985 104.62 38.9487 104.587 38.9988 104.536C39.0824 104.453 39.1493 104.403 39.2329 104.336C39.2831 104.285 39.3165 104.252 39.3667 104.235C39.4001 104.202 39.4169 104.185 39.4169 104.185C39.4503 104.152 39.467 104.135 39.467 104.135C39.6008 104.035 39.7346 103.901 39.8516 103.801C40.0355 103.65 40.186 103.483 40.37 103.332C40.4201 103.282 40.5037 103.232 40.5539 103.148C40.7044 103.015 40.8716 102.864 41.0555 102.713C41.0889 102.68 41.1391 102.63 41.1893 102.58C41.2394 102.546 41.2729 102.496 41.323 102.479C41.507 102.295 41.6909 102.145 41.8414 101.961C41.8916 101.927 41.925 101.911 41.9417 101.877C42.0421 101.777 42.1256 101.693 42.226 101.593C42.3096 101.543 42.3597 101.493 42.4099 101.409C42.4601 101.376 42.5102 101.325 42.5437 101.309C42.5938 101.225 42.644 101.208 42.6942 101.158C42.7443 101.075 42.8279 101.024 42.8781 100.974C42.9115 100.941 42.9617 100.891 43.0119 100.84C43.062 100.79 43.0955 100.74 43.1456 100.707C43.2292 100.623 43.2961 100.556 43.3797 100.473C43.5636 100.289 43.7141 100.138 43.8981 99.9541C44.2158 99.6196 44.5502 99.2852 44.8846 98.934C44.8846 98.9005 44.918 98.8838 44.9348 98.8838C45.0853 98.6999 45.2525 98.5493 45.4029 98.3654L45.5367 98.2316C45.7708 97.964 46.0383 97.6797 46.2724 97.4289C46.3059 97.3954 46.3226 97.3787 46.356 97.3453C46.3895 97.2951 46.4397 97.2616 46.4564 97.2115C46.7239 96.9272 46.9747 96.6596 47.2088 96.3753C47.259 96.3251 47.2924 96.2917 47.3091 96.2749L47.3426 96.2248C47.6268 95.907 47.8944 95.606 48.1786 95.2883C48.2121 95.2548 48.2288 95.2381 48.2622 95.2046C48.2957 95.1545 48.3124 95.121 48.3458 95.1043C48.6301 94.7698 48.9143 94.4354 49.1819 94.1176C49.4661 93.7497 49.7504 93.4152 50.0346 93.0808C50.3189 92.7463 50.6032 92.3784 50.8874 92.0439C50.9209 92.0105 50.9376 91.9937 50.9376 91.9603C51.1382 91.6927 51.3556 91.4419 51.5563 91.1576C51.7402 90.9569 51.9241 90.7227 52.0746 90.5053C52.1749 90.3716 52.2753 90.2712 52.3589 90.1374C52.6933 89.7193 53.011 89.2845 53.3454 88.8664C54.148 87.7961 54.9339 86.7091 55.7365 85.6221C55.7699 85.5886 55.7866 85.5385 55.8368 85.4883C56.0207 85.2207 56.1712 84.9866 56.3551 84.7357C56.4555 84.6019 56.5558 84.4682 56.6394 84.3511C56.8735 84.0333 57.0742 83.749 57.2915 83.448C57.3751 83.3477 57.442 83.2473 57.4922 83.1303C57.6427 82.9296 57.8266 82.6955 57.9938 82.4613C58.1443 82.2607 58.3115 82.0265 58.462 81.7924C59.0807 80.8893 59.7328 79.9528 60.3515 79.0163C60.4351 78.9327 60.4852 78.8323 60.5521 78.7487C60.5855 78.7153 60.5856 78.7153 60.5856 78.6986C60.6357 78.6149 60.6859 78.548 60.736 78.4644C61.0036 78.0798 61.2878 77.6784 61.5386 77.2938C61.8563 76.8255 62.1573 76.3573 62.475 75.9225C63.796 73.9491 65.1002 71.9924 66.4211 70.0525C66.6552 69.6846 66.8893 69.3501 67.1569 69.0156C67.1569 68.9822 67.1903 68.9655 67.207 68.932C67.2572 68.8317 67.3074 68.7481 67.391 68.6645C67.5749 68.3802 67.7755 68.0959 67.9595 67.7781C68.11 67.5774 68.2772 67.3433 68.4277 67.1092C68.528 66.9754 68.6283 66.8249 68.7454 66.6744C68.9293 66.4402 69.0798 66.2061 69.2637 65.9385C69.3139 65.8549 69.364 65.788 69.4142 65.7044C69.4476 65.6542 69.4978 65.6041 69.5145 65.5706C69.7152 65.2529 69.9325 64.9686 70.1332 64.6843C70.1834 64.6006 70.2335 64.5337 70.2837 64.4501C70.5512 64.0822 70.802 63.6976 71.0696 63.3297C71.3371 62.9617 71.6214 62.5938 71.8722 62.2426C71.8722 62.2092 71.8722 62.2092 71.8722 62.2092C71.9223 62.159 71.9725 62.0754 72.0059 62.0252L72.0895 61.9416C72.1731 61.8413 72.24 61.7409 72.3236 61.6071C72.3738 61.557 72.4072 61.4734 72.4574 61.4232C72.5577 61.2894 72.6413 61.189 72.7249 61.0553C72.8587 60.8713 73.0092 60.6873 73.143 60.5034C73.5275 59.985 73.9288 59.4665 74.3134 58.9481C74.6813 58.4798 75.0157 58.0116 75.3836 57.5433C75.5842 57.259 75.8183 56.9747 76.0357 56.7072C76.1862 56.5232 76.3199 56.3225 76.4704 56.1386C76.6544 55.9379 76.8383 55.7037 77.0222 55.4696C77.2061 55.2355 77.3901 55.0014 77.5907 54.8007C77.7746 54.5665 77.9586 54.3324 78.1425 54.0983C79.2795 52.727 80.45 51.3724 81.6539 50.0512C81.8546 49.8505 82.0719 49.6164 82.2726 49.3823C82.6404 48.9976 83.025 48.5795 83.4096 48.1949C83.5935 47.9942 83.7775 47.8103 83.9614 47.5928L85.4161 46.1379C85.6 45.9539 85.8007 45.77 85.9846 45.586C86.1184 45.4522 86.2522 45.3184 86.3692 45.2181C86.5197 45.0676 86.6869 44.9004 86.8374 44.7833C87.0213 44.5993 87.222 44.4154 87.4393 44.2147C87.4728 44.1813 87.5229 44.1645 87.5397 44.1144C87.7403 43.9304 87.9577 43.7464 88.1583 43.5625C88.3924 43.3618 88.6265 43.1444 88.8606 42.9437C89.0613 42.7598 89.2786 42.5591 89.5127 42.3751C89.5462 42.3417 89.5963 42.2915 89.6131 42.2748C89.8472 42.0908 90.0478 41.9069 90.2652 41.7229C90.4658 41.5389 90.6999 41.355 90.9173 41.2045C90.9675 41.1543 91.0176 41.1209 91.0511 41.0707C91.2851 40.8867 91.4858 40.7362 91.7199 40.5523C91.954 40.3516 92.2215 40.1676 92.4389 39.9502C92.7064 39.7662 92.9572 39.5656 93.1913 39.3816C93.3251 39.2813 93.4589 39.1976 93.5759 39.0973C93.7097 39.0137 93.8435 38.9133 93.9438 38.813C94.0776 38.7294 94.1779 38.6625 94.3116 38.5454C94.6962 38.2611 95.0975 37.9768 95.4988 37.7093C95.6326 37.6089 95.7329 37.5253 95.8667 37.4417C96.0005 37.3413 96.1509 37.241 96.2847 37.1574C96.4185 37.057 96.5522 36.9734 96.7027 36.8898C96.9703 36.7058 97.2211 36.5219 97.4886 36.3379C97.7729 36.1874 98.0404 36.0035 98.3247 35.8195C98.5253 35.6857 98.7594 35.5352 98.9935 35.4014C99.0771 35.3512 99.144 35.3011 99.2276 35.2676C99.2276 35.2342 99.261 35.2342 99.261 35.2342C99.4951 35.1004 99.6958 34.9499 99.9299 34.8161C100.214 34.6321 100.532 34.4816 100.816 34.2977C100.967 34.214 101.1 34.1472 101.251 34.0635C101.401 33.9632 101.569 33.8796 101.719 33.796C101.853 33.7123 101.987 33.6454 102.104 33.5953C103.692 32.7089 105.347 31.8728 107.07 31.1202C107.17 31.07 107.27 31.0199 107.387 30.9864C107.621 30.8861 107.856 30.7857 108.09 30.6687C108.324 30.5683 108.524 30.468 108.759 30.3844C108.842 30.3509 108.909 30.3342 108.959 30.284C109.143 30.2339 109.294 30.1502 109.461 30.1001C109.695 29.9997 109.929 29.8994 110.163 29.8158C110.364 29.7321 110.548 29.6653 110.732 29.5816C110.832 29.5482 110.916 29.5315 111.016 29.4813C111.3 29.381 111.568 29.2806 111.852 29.197C112.805 28.8291 113.825 28.4946 114.845 28.1601C115.163 28.0598 115.447 27.9762 115.748 27.8758C116.132 27.7755 116.5 27.6417 116.885 27.5414C117.152 27.4578 117.403 27.4076 117.637 27.3407C117.738 27.3072 117.821 27.2905 117.922 27.2571C118.239 27.1735 118.574 27.0731 118.908 26.9895C119.243 26.8892 119.61 26.8055 119.978 26.7219C120.313 26.6216 120.681 26.538 121.048 26.4543C121.383 26.3707 121.751 26.3038 122.085 26.2202C122.119 26.1868 122.135 26.1868 122.169 26.1868C122.503 26.1032 122.904 26.0363 123.256 25.9526C132.97 23.9793 144.357 23.3605 157.885 24.5479C159.991 24.7318 162.048 25.0161 164.038 25.384C182.933 28.712 196.644 39.0471 209.736 46.556C219.969 52.4092 229.818 56.5566 241.489 54.3324C242.76 54.0983 244.031 53.7805 245.335 53.3959C245.703 53.2956 246.071 53.1952 246.405 53.0782C246.773 52.9778 247.107 52.8775 247.475 52.7604C248.897 52.3256 250.335 51.9242 251.756 51.5061C252.408 51.3222 253.06 51.1382 253.712 50.9877C253.796 50.9543 253.846 50.9375 253.896 50.9375C254.231 50.8372 254.548 50.7536 254.849 50.67C255.184 50.5696 255.518 50.486 255.836 50.4024C256.973 50.0846 258.093 49.8003 259.213 49.5495C259.598 49.4492 260.016 49.3488 260.434 49.2317C262.491 48.73 264.531 48.2785 266.571 47.827C266.905 47.7434 267.273 47.6765 267.607 47.5928C268.025 47.5092 268.41 47.4423 268.794 47.3253C269.162 47.2751 269.53 47.1915 269.881 47.1246C270.216 47.041 270.533 46.9908 270.868 46.9239C271.052 46.8905 271.236 46.8403 271.42 46.8236C271.704 46.7734 271.988 46.7232 272.272 46.6731C272.506 46.6229 272.707 46.5727 272.941 46.5393C273.209 46.4891 273.46 46.4389 273.727 46.3888C274.379 46.2884 274.998 46.1546 275.617 46.0543C275.817 46.0208 276.035 45.9707 276.235 45.9539C276.854 45.8536 277.489 45.7533 278.075 45.6362C278.158 45.6362 278.208 45.6027 278.275 45.6027C278.543 45.5526 278.794 45.5191 279.061 45.469C279.429 45.4188 279.797 45.3686 280.148 45.285C280.951 45.1847 281.736 45.0509 282.506 44.9505C282.823 44.9004 283.124 44.8669 283.442 44.8167C283.91 44.7666 284.345 44.7164 284.813 44.6328H284.897C287.388 44.2983 289.863 44.0307 292.271 43.8468C292.638 43.8133 292.939 43.7966 293.291 43.7632C294.127 43.6795 294.946 43.6294 295.782 43.5792C295.866 43.5458 295.966 43.5458 296.016 43.5458C296.451 43.5123 296.902 43.4956 297.337 43.4621C297.805 43.4287 298.24 43.4287 298.691 43.412C299.26 43.3785 299.828 43.3618 300.38 43.3618C300.698 43.3284 300.999 43.3116 301.317 43.3116C301.751 43.3116 302.203 43.2782 302.621 43.2782C303.273 43.2447 303.892 43.2447 304.51 43.2447C306.433 43.2447 308.273 43.2782 310.129 43.3451C310.781 43.3785 311.399 43.3952 312.018 43.4287C312.854 43.4621 313.673 43.5123 314.493 43.5792C315.529 43.6628 316.549 43.7297 317.536 43.8468C318.439 43.9304 319.358 44.0307 320.245 44.1311C320.613 44.1645 320.947 44.2147 321.315 44.2649C321.683 44.315 322.051 44.3652 322.402 44.4154C322.786 44.5826 323.154 44.6328 323.489 44.683Z" fill="#C2B0DA"/>
<path d="M412.914 188.807C412.881 213.959 408.115 253.627 397.899 279.966C395.558 286.004 392.916 291.338 389.99 295.653C387.181 299.784 384.087 302.961 380.71 304.884C380.643 304.918 380.576 304.968 380.509 305.002C380.392 305.068 380.275 305.135 380.141 305.202C379.89 305.336 379.623 305.47 379.355 305.587L349.325 305.788V174.575C295.701 149.941 285.367 68.6985 283.461 44.9009C293.059 43.6132 301.921 43.1617 310.131 43.4627C314.796 43.6299 319.227 44.048 323.474 44.6835C332.069 45.9712 339.827 48.2122 346.833 51.2391C349.692 52.4767 352.418 53.848 355.026 55.3364C358.605 57.3766 361.966 59.6678 365.109 62.1596C372.199 67.7619 378.235 74.4346 383.402 81.9268L383.887 82.6291L383.954 82.7462C400.708 107.53 408.082 140.994 412.162 174.057C412.613 177.769 412.864 182.468 412.881 187.887C412.914 188.171 412.914 188.489 412.914 188.807Z" fill="#EEEEEE"/>
<path d="M74.2993 58.9482C71.4233 74.3339 65.4038 99.5696 53.8998 123.668C52.9801 125.575 52.0437 127.481 51.0572 129.388C47.0275 137.131 42.4125 144.673 37.0952 151.63C31.8616 158.487 25.9758 164.775 19.3376 170.109V305.118L8.35196 305.085L-38.5001 304.918H-39.0853C-39.0853 304.918 -41.5266 302.911 -45.0547 299.064C-54.619 288.629 -72.2429 264.614 -71.6577 229.762C-71.3065 208.908 -67.9623 172.233 -42.8141 146.278C-42.396 145.844 -41.978 145.425 -41.5433 145.007C-41.4429 144.924 -41.3426 144.807 -41.2256 144.706C-41.0918 144.589 -40.9748 144.456 -40.841 144.338C-40.7908 144.288 -40.7407 144.238 -40.6905 144.188C-40.4564 143.971 -40.2223 143.736 -39.9882 143.519C-39.7876 143.318 -39.5702 143.134 -39.3528 142.934C-39.3361 142.917 -39.3361 142.917 -39.3194 142.9C-39.2023 142.8 -39.102 142.7 -38.985 142.599C-38.8178 142.449 -38.6338 142.281 -38.4666 142.131C-38.3161 141.997 -38.1656 141.863 -38.0152 141.73L-37.9984 141.713C-37.7643 141.495 -37.5303 141.295 -37.2794 141.094C-37.1289 140.96 -36.9785 140.843 -36.828 140.709C-36.7109 140.609 -36.5939 140.509 -36.4768 140.408C-36.3932 140.342 -36.3263 140.275 -36.2427 140.208C-36.0923 140.074 -35.9418 139.957 -35.7746 139.823C-35.7077 139.756 -35.6241 139.706 -35.5572 139.639C-35.3733 139.489 -35.206 139.338 -35.0221 139.204C-34.9887 139.171 -34.9552 139.154 -34.9385 139.137C-34.671 138.92 -34.3867 138.703 -34.1192 138.485C-33.8851 138.301 -33.651 138.117 -33.4169 137.95C-33.3835 137.917 -33.35 137.9 -33.3166 137.866C-33.0992 137.699 -32.8986 137.549 -32.6812 137.381C-32.4805 137.231 -32.2799 137.08 -32.0792 136.947C-32.0123 136.896 -31.9455 136.846 -31.8786 136.796C-31.6278 136.612 -31.3602 136.411 -31.0927 136.228C-30.9088 136.094 -30.7081 135.96 -30.5242 135.826C-30.3068 135.676 -30.0727 135.508 -29.8553 135.358C-29.6881 135.241 -29.5377 135.141 -29.3704 135.023C-29.1363 134.873 -28.919 134.722 -28.6849 134.555C-28.501 134.421 -28.3003 134.304 -28.0997 134.171C-28.0328 134.12 -27.9492 134.07 -27.8823 134.037C-27.6816 133.903 -27.481 133.786 -27.2971 133.652C-27.063 133.502 -26.8289 133.351 -26.5948 133.217L-26.578 133.201C-26.344 133.05 -26.1266 132.916 -25.8925 132.783C-25.6584 132.632 -25.4076 132.498 -25.1735 132.348C-25.14 132.331 -25.1066 132.298 -25.0564 132.281C-24.8558 132.164 -24.6384 132.03 -24.4378 131.913C-24.2037 131.762 -23.9529 131.629 -23.7021 131.495C-23.468 131.361 -23.2171 131.227 -22.983 131.077C-22.983 131.077 -22.9663 131.077 -22.9663 131.06C-22.7155 130.926 -22.4647 130.776 -22.2139 130.642C-21.9798 130.508 -21.729 130.374 -21.4949 130.241C-21.4614 130.224 -21.428 130.207 -21.3946 130.19C-21.1605 130.073 -20.9264 129.94 -20.709 129.822C-20.4749 129.705 -20.2408 129.588 -20.0067 129.455C-19.8061 129.354 -19.6221 129.254 -19.4215 129.154C-18.5687 128.719 -17.6825 128.284 -16.7963 127.883C-15.2413 127.147 -13.6528 126.461 -11.9974 125.792C-11.7633 125.692 -11.5292 125.608 -11.2951 125.508C-11.061 125.407 -10.8269 125.324 -10.5761 125.223C-10.342 125.123 -10.0912 125.04 -9.85712 124.939C-9.47254 124.789 -9.07124 124.638 -8.66994 124.504C-8.41912 124.404 -8.16831 124.32 -7.90078 124.22C-7.66669 124.136 -7.41587 124.053 -7.18178 123.969C-6.89752 123.869 -6.61327 123.769 -6.31229 123.668C-6.29557 123.668 -6.29557 123.668 -6.27885 123.651C-6.26212 123.635 -6.22868 123.635 -6.21197 123.635C-5.97787 123.551 -5.72706 123.468 -5.47624 123.384C-5.12511 123.267 -4.77396 123.15 -4.4061 123.033C-4.0884 122.932 -3.77071 122.832 -3.45301 122.732C-3.43629 122.732 -3.41956 122.715 -3.40285 122.715C-3.13531 122.631 -2.85106 122.548 -2.58352 122.464C-2.44975 122.431 -2.31599 122.38 -2.1655 122.347C-1.89796 122.263 -1.61371 122.18 -1.34618 122.096C-1.26257 122.063 -1.17896 122.046 -1.09536 122.029C-0.760941 121.929 -0.426521 121.845 -0.108826 121.745C0.225594 121.645 0.560013 121.561 0.894432 121.461C1.01147 121.427 1.14525 121.394 1.26229 121.36C1.52982 121.293 1.78064 121.227 2.04817 121.16C2.09834 121.143 2.1485 121.126 2.19866 121.126C2.56652 121.026 2.9511 120.942 3.33569 120.842C3.6701 120.758 4.00452 120.675 4.33894 120.591C4.43926 120.574 4.52287 120.541 4.6232 120.524C4.99106 120.441 5.3422 120.357 5.71006 120.273C6.09464 120.19 6.49594 120.089 6.88052 120.006C6.89724 120.006 6.91396 120.006 6.91396 119.989C7.31526 119.905 7.71657 119.822 8.11787 119.738C8.5359 119.655 8.95392 119.554 9.37194 119.471C9.57259 119.42 9.78996 119.37 9.99061 119.32C10.1913 119.27 10.4086 119.22 10.6093 119.17C10.7932 119.119 10.9771 119.086 11.1611 119.036C11.345 118.986 11.5289 118.935 11.7129 118.902C11.8968 118.852 12.0807 118.802 12.2479 118.768C12.4319 118.718 12.6158 118.668 12.7997 118.618C12.9669 118.568 13.1341 118.517 13.2846 118.484C13.6525 118.384 14.0203 118.266 14.3882 118.166C14.5721 118.116 14.7394 118.066 14.9066 117.999C15.2577 117.899 15.5921 117.782 15.9265 117.681C15.9433 117.681 15.9433 117.681 15.96 117.664C16.2944 117.547 16.6455 117.447 16.9632 117.33C17.2977 117.213 17.6321 117.096 17.9665 116.979C18.3009 116.862 18.6353 116.728 18.953 116.611C18.9865 116.594 19.0199 116.577 19.0534 116.577C19.5383 116.393 20.0232 116.21 20.4913 116.009C20.4913 116.009 20.4914 116.009 20.5081 116.009C20.6586 115.959 20.7923 115.892 20.9428 115.825C21.1435 115.741 21.3274 115.658 21.528 115.574C21.8123 115.457 22.0798 115.34 22.3641 115.206C22.5313 115.122 22.7152 115.056 22.8824 114.972C23.3674 114.755 23.8355 114.52 24.3204 114.303C24.588 114.169 24.8722 114.035 25.1398 113.902C25.3906 113.768 25.6581 113.651 25.9089 113.517C25.9257 113.5 25.9591 113.5 25.9758 113.484C26.2434 113.35 26.5109 113.199 26.7784 113.049C26.8119 113.032 26.8453 113.015 26.8787 112.999C27.0961 112.882 27.3135 112.764 27.5141 112.647C27.6145 112.581 27.7315 112.53 27.8318 112.463C27.999 112.38 28.1495 112.279 28.3167 112.196C28.4338 112.129 28.5676 112.062 28.6846 111.978C28.9521 111.828 29.203 111.677 29.4538 111.51C29.6879 111.36 29.9387 111.226 30.1728 111.075C30.4403 110.908 30.7246 110.741 30.9921 110.557C31.2596 110.39 31.5104 110.222 31.7613 110.055C31.778 110.055 31.778 110.039 31.7947 110.039C31.9786 109.905 32.1793 109.788 32.3632 109.654C32.4802 109.587 32.5806 109.503 32.6976 109.42C32.8314 109.319 32.9819 109.236 33.1156 109.135C33.2494 109.035 33.3832 108.952 33.5337 108.851C33.6674 108.751 33.8179 108.65 33.9517 108.55C34.0855 108.45 34.2359 108.349 34.3697 108.249C34.47 108.166 34.5871 108.099 34.6874 108.015C34.9215 107.848 35.1389 107.681 35.3563 107.513C35.3897 107.48 35.4399 107.463 35.4733 107.43C35.6907 107.262 35.9248 107.095 36.1421 106.911C36.4598 106.66 36.7775 106.41 37.0952 106.159C37.3293 105.975 37.5634 105.774 37.7975 105.59C37.9146 105.49 38.0149 105.406 38.1319 105.306C38.2322 105.222 38.3326 105.139 38.4329 105.055C38.4663 105.021 38.4998 104.988 38.5499 104.955C38.6503 104.871 38.7506 104.787 38.8509 104.704C38.9011 104.67 38.9512 104.62 39.0014 104.57C39.085 104.503 39.1686 104.419 39.2522 104.353C39.2857 104.319 39.3358 104.286 39.3693 104.252C39.386 104.235 39.4194 104.219 39.4362 104.185C39.4529 104.169 39.4696 104.152 39.4863 104.135C39.6201 104.018 39.7371 103.918 39.8709 103.801C40.0381 103.65 40.222 103.483 40.3892 103.332C40.4561 103.282 40.5063 103.215 40.5732 103.165C40.7404 103.015 40.8909 102.864 41.0581 102.73C41.1082 102.68 41.1584 102.647 41.2086 102.597C41.2587 102.563 41.2922 102.513 41.3423 102.48C41.5263 102.312 41.6935 102.145 41.8774 101.978C41.9109 101.944 41.9276 101.928 41.961 101.894C42.0613 101.794 42.1617 101.71 42.262 101.61C42.3289 101.543 42.379 101.493 42.4459 101.426C42.4794 101.392 42.5295 101.342 42.5797 101.309C42.6299 101.259 42.68 101.209 42.7302 101.158C42.7803 101.108 42.8472 101.041 42.8974 100.991C42.9475 100.941 42.981 100.908 43.0312 100.857C43.0813 100.807 43.1315 100.757 43.1816 100.707C43.2653 100.623 43.3321 100.556 43.4157 100.473C43.5829 100.305 43.7502 100.138 43.9174 99.971C44.2518 99.6365 44.5862 99.2853 44.9039 98.9341C44.9206 98.9174 44.9373 98.9007 44.9541 98.884C45.1213 98.7167 45.2718 98.5495 45.439 98.3655C45.4724 98.3321 45.5226 98.2819 45.556 98.2485C45.8068 97.9809 46.0576 97.7133 46.3085 97.429C46.3252 97.4123 46.3586 97.3789 46.3753 97.3621C46.4088 97.3287 46.4422 97.2785 46.4924 97.2283C46.7432 96.944 46.994 96.6597 47.2448 96.3754C47.2783 96.342 47.295 96.3085 47.3284 96.2751L47.3619 96.2416C47.6461 95.9239 47.9137 95.6062 48.1812 95.2884C48.2146 95.255 48.2314 95.2215 48.2648 95.2048C48.2982 95.1713 48.315 95.1379 48.3484 95.1045C48.6327 94.77 48.9002 94.4522 49.1845 94.1178C49.4687 93.7833 49.753 93.4321 50.0372 93.0809C50.3215 92.7297 50.6057 92.3952 50.8733 92.0441C51.1575 91.6929 51.4251 91.3417 51.7093 90.9905C51.9267 90.7062 52.1441 90.4219 52.3782 90.1376C52.7126 89.7195 53.0303 89.3014 53.348 88.8666C54.1506 87.7963 54.9532 86.7093 55.7391 85.6222C55.7725 85.5721 55.8059 85.5219 55.8394 85.4717C56.0233 85.2209 56.1905 84.9867 56.3745 84.7359C56.4748 84.6021 56.5584 84.4683 56.6587 84.3345C56.8761 84.0335 57.0935 83.7325 57.3108 83.4314C57.3777 83.3311 57.4613 83.2308 57.5282 83.1304C57.6787 82.913 57.8459 82.6789 57.9964 82.4615C58.1636 82.2441 58.3141 82.01 58.4646 81.7758C59.1 80.856 59.7521 79.9195 60.3708 78.9997C60.4376 78.9161 60.5045 78.8158 60.5547 78.7321C60.5714 78.7154 60.5714 78.6987 60.5881 78.682C60.6383 78.5984 60.7052 78.5315 60.7553 78.4478C61.0229 78.0632 61.2904 77.6786 61.5412 77.2772C61.8589 76.8089 62.1599 76.3574 62.4776 75.8891C63.7986 73.9325 65.1195 71.9759 66.4405 70.0192C66.6745 69.668 66.9086 69.3335 67.1427 68.9823C67.1594 68.9489 67.1762 68.9322 67.2096 68.8987C67.2598 68.8151 67.3267 68.7315 67.3935 68.6479C67.5942 68.3636 67.7948 68.0793 67.9788 67.7782C68.1293 67.5441 68.2965 67.3267 68.447 67.0926C68.5473 66.9421 68.6476 66.7916 68.7479 66.6578C68.9151 66.4069 69.0824 66.1728 69.2663 65.9219C69.3165 65.8383 69.3833 65.7547 69.4335 65.6878C69.4669 65.6376 69.5004 65.5875 69.5338 65.5373C69.7345 65.253 69.9351 64.952 70.1525 64.6677C70.2027 64.5841 70.2695 64.5172 70.3197 64.4336C70.5872 64.0656 70.8381 63.6977 71.1056 63.3298C71.3731 62.9619 71.6407 62.594 71.8915 62.226C71.8915 62.2093 71.9082 62.2093 71.9082 62.2093C71.9584 62.1592 71.9918 62.0923 72.042 62.0421C72.0587 62.0086 72.0754 61.9919 72.0921 61.9585C72.1757 61.8414 72.2593 61.7411 72.3429 61.624C72.3931 61.5571 72.4265 61.4902 72.4767 61.44C72.5603 61.323 72.6606 61.1892 72.7442 61.0721C72.878 60.8882 73.0118 60.7209 73.1455 60.537C73.5134 60.0018 73.898 59.4667 74.2993 58.9482Z" fill="#EEEEEE"/>
<path d="M397.884 279.966C395.543 286.003 392.901 291.338 389.975 295.652C387.166 299.783 384.073 302.96 380.695 304.884C380.628 304.917 380.561 304.967 380.494 305.001L361.332 287.324V170.895C327.088 144.539 313.995 71.5574 310.133 43.4619C314.798 43.6291 319.229 44.0472 323.476 44.6827C332.071 45.9704 339.829 48.2114 346.835 51.2383L355.028 55.3356C339.913 100.221 376.113 169.323 376.113 169.323L385.159 215.329L397.884 279.966Z" fill="#DDDDDD"/>
<path opacity="0.3" d="M189.739 243.693H73.9297L75.1002 233.944L77.3073 215.832L99.2117 35.2852C99.2117 35.2518 99.2452 35.2518 99.2452 35.2518C99.4793 35.118 99.6799 34.9675 99.914 34.8337C100.198 34.6497 100.516 34.4992 100.8 34.3152C100.951 34.2316 101.084 34.1647 101.235 34.0811C101.385 33.9808 101.553 33.8972 101.703 33.8135C101.837 33.7299 101.971 33.663 102.088 33.6129C103.676 32.7265 105.332 31.8903 107.054 31.1378C107.154 31.0876 107.254 31.0374 107.372 31.004C107.606 30.9037 107.84 30.8033 108.074 30.6862C108.308 30.5859 108.509 30.4856 108.743 30.4019C108.826 30.3685 108.893 30.3518 108.943 30.3016C109.127 30.2514 109.278 30.1678 109.445 30.1176C109.679 30.0173 109.913 29.917 110.147 29.8333C110.348 29.7497 110.532 29.6828 110.716 29.5992C110.816 29.5658 110.9 29.549 111 29.4989C111.284 29.3985 111.552 29.2982 111.836 29.2146C112.789 28.8467 113.809 28.5122 114.829 28.1777C115.147 28.0774 115.431 27.9938 115.732 27.8934C116.117 27.7931 116.484 27.6593 116.869 27.559C117.137 27.4753 117.387 27.4252 117.621 27.3583C117.722 27.3248 117.805 27.3081 117.906 27.2747C118.223 27.191 118.558 27.0907 118.892 27.0071C119.227 26.9067 119.595 26.8231 119.962 26.7395C120.297 26.6392 120.665 26.5555 121.033 26.4719C121.367 26.3883 121.735 26.3214 122.069 26.2378C122.103 26.2043 122.119 26.2043 122.153 26.2043C122.487 26.1207 122.889 26.0538 123.24 25.9702C132.955 23.9968 144.342 23.3781 157.869 24.5654C159.976 24.7494 162.032 25.0337 164.022 25.4016L186.93 219.98L187.298 223.207L187.532 225.214L187.799 227.271V227.304L188.451 232.873L188.585 233.944L189.187 238.961L189.739 243.693Z" fill="white"/>
<path d="M60.5703 78.6807C53.4137 99.8861 45.3041 115.623 37.1108 127.446C37.0439 127.547 36.9771 127.63 36.9102 127.731C36.5925 128.182 36.2915 128.617 35.9738 129.069C15.7415 157.348 -4.82524 162.281 -13.0519 167.332L-38.4845 304.883H-39.0697C-39.0697 304.883 -41.5109 302.876 -45.039 299.03C-54.6034 288.594 -72.2273 264.579 -71.642 229.727C-71.2909 208.873 -67.9467 172.198 -42.7984 146.244C-42.3804 145.809 -41.9624 145.391 -41.5277 144.973C-41.4273 144.889 -41.327 144.772 -41.21 144.672C-41.1765 144.638 -41.1598 144.621 -41.1264 144.588C-40.4575 143.952 -39.4041 142.966 -38.0163 141.712L-37.9995 141.695C-37.7654 141.477 -37.5314 141.277 -37.2805 141.076C-37.1301 140.942 -36.9796 140.825 -36.8291 140.691C-36.712 140.591 -36.595 140.491 -36.4779 140.39C-36.3943 140.323 -36.3274 140.257 -36.2438 140.19C-36.0934 140.056 -35.9429 139.939 -35.7757 139.805C-35.7088 139.738 -35.6252 139.688 -35.5583 139.621C-35.3744 139.471 -35.2071 139.32 -35.0232 139.186C-34.9898 139.153 -34.9563 139.136 -34.9396 139.119C-34.6721 138.902 -34.3878 138.685 -34.1203 138.467C-33.8862 138.283 -33.6521 138.099 -33.418 137.932C-33.3846 137.899 -33.3511 137.882 -33.3177 137.848C-33.1003 137.681 -32.8997 137.531 -32.6823 137.363C-32.4816 137.213 -32.281 137.062 -32.0803 136.929C-32.0135 136.878 -31.9466 136.828 -31.8797 136.778C-31.6289 136.594 -31.3613 136.393 -31.0938 136.21C-30.9099 136.076 -30.7092 135.942 -30.5253 135.808C-30.3079 135.658 -30.0738 135.49 -29.8565 135.34C-29.6892 135.223 -29.5388 135.122 -29.3715 135.005C-29.1375 134.855 -28.9201 134.704 -28.686 134.537C-28.5021 134.403 -28.3014 134.286 -28.1008 134.153C-28.0339 134.102 -27.9503 134.052 -27.8834 134.019C-27.6827 133.885 -27.4821 133.768 -27.2982 133.634C-27.0641 133.484 -26.83 133.333 -26.5959 133.199L-26.5792 133.183C-26.3451 133.032 -26.1277 132.898 -25.8936 132.764C-25.6595 132.614 -25.4087 132.48 -25.1746 132.33C-25.1412 132.313 -25.1077 132.279 -25.0576 132.263C-24.8569 132.146 -24.6395 132.012 -24.4389 131.895C-24.2048 131.744 -23.954 131.611 -23.7032 131.477C-23.4691 131.343 -23.2183 131.209 -22.9842 131.059C-22.9842 131.059 -22.9674 131.059 -22.9674 131.042C-22.7166 130.908 -22.4658 130.758 -22.215 130.624C-21.9809 130.49 -21.7301 130.356 -21.496 130.222C-21.4626 130.206 -21.4291 130.189 -21.3957 130.172C-21.1616 130.055 -20.9275 129.921 -20.7101 129.804C-20.476 129.687 -20.2419 129.57 -20.0078 129.436C-19.8072 129.336 -19.6233 129.236 -19.4226 129.135C-18.5698 128.701 -17.6836 128.266 -16.7974 127.864C-15.2424 127.129 -13.6539 126.443 -11.9985 125.774C-11.7644 125.674 -11.5303 125.59 -11.2962 125.49C-11.0621 125.389 -10.8281 125.306 -10.5772 125.205C-10.3431 125.105 -10.0923 125.021 -9.85824 124.921C-9.47366 124.771 -9.07235 124.62 -8.67105 124.486C-8.42024 124.386 -8.16943 124.302 -7.90189 124.202C-7.6678 124.118 -7.41698 124.035 -7.18289 123.951C-6.89864 123.851 -6.61438 123.751 -6.31341 123.65C-6.29668 123.65 -6.29668 123.65 -6.27996 123.633C-6.26324 123.617 -6.2298 123.617 -6.21308 123.617C-5.97899 123.533 -5.72817 123.449 -5.47736 123.366C-5.12622 123.249 -4.77508 123.132 -4.40722 123.015C-4.08952 122.914 -3.77183 122.814 -3.45412 122.714C-3.43741 122.714 -3.42068 122.697 -3.40396 122.697C-3.13643 122.613 -2.85217 122.53 -2.58464 122.446C-2.45087 122.413 -2.3171 122.362 -2.16661 122.329C-1.89908 122.245 -1.61482 122.162 -1.34729 122.078C-1.26369 122.045 -1.18008 122.028 -1.09647 122.011C-0.762054 121.911 -0.427643 121.827 -0.10994 121.727C0.224472 121.627 0.558891 121.543 0.893311 121.443C1.01036 121.409 1.14413 121.376 1.26118 121.342C1.52871 121.275 1.77952 121.209 2.04706 121.142C2.09721 121.125 2.14738 121.108 2.19755 121.108C2.56541 121.008 2.94999 120.924 3.33456 120.824C3.66898 120.74 4.0034 120.657 4.33782 120.573C4.43815 120.556 4.52175 120.523 4.62208 120.506C4.98994 120.423 5.34108 120.339 5.70894 120.255C6.09352 120.172 6.49482 120.071 6.8794 119.988C6.89613 119.988 6.91284 119.988 6.91284 119.971C7.31415 119.887 7.71545 119.804 8.11675 119.72C8.53477 119.637 8.9528 119.536 9.37082 119.453C9.57147 119.402 9.78884 119.352 9.98949 119.302C10.1901 119.252 10.4075 119.202 10.6082 119.152C10.7921 119.101 10.976 119.068 11.16 119.018C11.3439 118.968 11.5278 118.917 11.7117 118.884C11.8957 118.834 12.0796 118.784 12.2468 118.75C12.4307 118.7 12.6147 118.65 12.7986 118.6C12.9658 118.549 13.133 118.499 13.2835 118.466C13.6514 118.366 14.0192 118.248 14.3871 118.148C14.571 118.098 14.7382 118.048 14.9054 117.981C15.2566 117.881 15.591 117.763 15.9254 117.663C15.9421 117.663 15.9421 117.663 15.9589 117.646C16.2933 117.529 16.6444 117.429 16.9621 117.312C17.2965 117.195 17.631 117.078 17.9654 116.961C18.2998 116.844 18.6342 116.71 18.9519 116.593C18.9854 116.576 19.0188 116.559 19.0522 116.559C19.5371 116.375 20.022 116.191 20.4902 115.991C20.4902 115.991 20.4902 115.991 20.507 115.991C20.6574 115.941 20.7912 115.874 20.9417 115.807C21.1423 115.723 21.3263 115.64 21.5269 115.556C21.8112 115.439 22.0787 115.322 22.363 115.188C22.5302 115.104 22.7141 115.038 22.8813 114.954C23.3662 114.737 23.8344 114.502 24.3193 114.285C24.5869 114.151 24.8711 114.017 25.1387 113.884C25.3895 113.75 25.657 113.633 25.9078 113.499C25.9245 113.482 25.958 113.482 25.9747 113.466C26.2422 113.332 26.5098 113.181 26.7773 113.031C26.8107 113.014 26.8442 112.997 26.8776 112.981C27.095 112.863 27.3124 112.746 27.513 112.629C27.6133 112.562 27.7304 112.512 27.8307 112.445C27.9979 112.362 28.1484 112.261 28.3156 112.178C28.4327 112.111 28.5664 112.044 28.6835 111.96C28.951 111.81 29.2018 111.659 29.4527 111.492C29.6867 111.342 29.9376 111.208 30.1716 111.057C30.4392 110.89 30.7234 110.723 30.991 110.539C31.2585 110.372 31.5093 110.204 31.7601 110.037C31.7769 110.037 31.7769 110.021 31.7936 110.021C31.9775 109.887 32.1782 109.77 32.3621 109.636C32.4791 109.569 32.5795 109.485 32.6965 109.402C32.8303 109.301 32.9808 109.218 33.1145 109.117C33.2483 109.017 33.3821 108.933 33.5325 108.833C33.6663 108.733 33.8168 108.632 33.9506 108.532C34.0843 108.432 34.2348 108.331 34.3686 108.231C34.4689 108.147 34.586 108.081 34.6863 107.997C34.9204 107.83 35.1378 107.662 35.3551 107.495C35.3886 107.462 35.4387 107.445 35.4722 107.412C35.6896 107.244 35.9236 107.077 36.141 106.893C36.4587 106.642 36.7764 106.392 37.0941 106.141C37.3282 105.957 37.5623 105.756 37.7964 105.572C37.8298 105.539 37.88 105.505 37.9134 105.472C38.0806 105.338 38.2646 105.187 38.4318 105.037C38.4652 105.003 38.4987 104.97 38.5488 104.937C38.6491 104.853 38.7495 104.769 38.8498 104.686C38.9 104.652 38.9501 104.602 39.0003 104.552C39.0839 104.485 39.1675 104.401 39.2511 104.335C39.2845 104.301 39.3347 104.268 39.3682 104.234C39.3849 104.217 39.4183 104.201 39.435 104.167C39.4518 104.151 39.4685 104.134 39.4852 104.117C39.619 104 39.736 103.9 39.8698 103.783C40.037 103.632 40.2209 103.465 40.3881 103.314C40.455 103.264 40.5052 103.197 40.5721 103.147C40.7393 102.997 40.8898 102.846 41.057 102.712C41.1071 102.662 41.1573 102.629 41.2075 102.579C41.2576 102.545 41.2911 102.495 41.3412 102.461C41.5252 102.294 41.6924 102.127 41.8763 101.96C41.9097 101.926 41.9265 101.91 41.9599 101.876C42.0602 101.776 42.1605 101.692 42.2609 101.592C42.3278 101.525 42.3779 101.475 42.4448 101.408C42.4782 101.374 42.5284 101.324 42.5786 101.291C42.6287 101.241 42.6789 101.19 42.7291 101.14C42.7792 101.09 42.8461 101.023 42.8963 100.973C42.9464 100.923 42.9799 100.889 43.03 100.839C43.0802 100.789 43.1304 100.739 43.1805 100.689C43.2641 100.605 43.331 100.538 43.4146 100.455C43.5818 100.287 43.749 100.12 43.9162 99.953C44.2507 99.6185 44.5851 99.2673 44.9028 98.9161C44.9195 98.8994 44.9362 98.8827 44.9529 98.8659C45.1202 98.6987 45.2706 98.5315 45.4378 98.3475C45.4713 98.3141 45.5215 98.2639 45.5549 98.2304C45.8057 97.9629 46.0565 97.6953 46.3073 97.411C46.3241 97.3943 46.3575 97.3608 46.3742 97.3441C46.4077 97.3106 46.4411 97.2605 46.4913 97.2103C46.7421 96.926 46.9929 96.6417 47.2437 96.3574C47.2771 96.324 47.2939 96.2905 47.3273 96.2571L47.3607 96.2236C47.645 95.9059 47.9125 95.5881 48.1801 95.2704C48.2135 95.2369 48.2302 95.2035 48.2637 95.1868C48.2971 95.1533 48.3139 95.1199 48.3473 95.0864C48.6315 94.7519 48.8991 94.4342 49.1833 94.0997C49.4676 93.7653 49.7518 93.4141 50.0361 93.0629C50.3204 92.7117 50.6046 92.3772 50.8721 92.026C51.1564 91.6748 51.4239 91.3236 51.7082 90.9724C51.9256 90.6881 52.1429 90.4038 52.377 90.1195C52.7114 89.7015 53.0291 89.2834 53.3468 88.8486C54.1494 87.7782 54.9521 86.6912 55.7379 85.6042C55.7714 85.554 55.8048 85.5039 55.8383 85.4537C56.0222 85.2028 56.1894 84.9687 56.3733 84.7178C56.4737 84.5841 56.5573 84.4503 56.6576 84.3165C56.875 84.0155 57.0923 83.7144 57.3097 83.4134C57.3766 83.3131 57.4602 83.2127 57.5271 83.1124C57.6776 82.895 57.8448 82.6609 57.9953 82.4435C58.1625 82.226 58.313 81.9919 58.4634 81.7578C59.0988 80.838 59.7509 79.9015 60.3696 78.9817C60.4365 78.8981 60.5034 78.7977 60.5536 78.7141C60.5536 78.7141 60.5703 78.6974 60.5703 78.6807Z" fill="#DDDDDD"/>
<path opacity="0.3" d="M301.601 243.693H185.809L185.942 242.706L187.012 233.943L187.397 230.532L187.815 227.287L188.25 223.575L188.283 223.391L189.186 215.798L190.741 202.988L192.012 192.536L199.185 133.519L199.737 128.97L209.736 46.59C219.969 52.4432 229.818 56.5906 241.489 54.3664C242.76 54.1323 244.031 53.8145 245.335 53.4299C245.703 53.3295 246.071 53.2292 246.405 53.1121C246.773 53.0118 247.108 52.9114 247.475 52.7944C248.897 52.3596 250.335 51.9582 251.756 51.5401C252.408 51.3562 253.06 51.1722 253.712 51.0217C253.796 50.9882 253.846 50.9715 253.896 50.9715C254.231 50.8712 254.548 50.7876 254.849 50.7039C255.184 50.6036 255.518 50.52 255.836 50.4364C256.973 50.1186 258.093 49.8343 259.213 49.5835C259.598 49.4831 260.016 49.3828 260.434 49.2657C262.491 48.764 264.531 48.3125 266.571 47.8609C266.905 47.7773 267.273 47.7104 267.607 47.6268C268.025 47.5432 268.41 47.4763 268.795 47.3592C269.162 47.3091 269.53 47.2255 269.881 47.1586C270.216 47.0749 270.534 47.0248 270.868 46.9579C271.052 46.9244 271.236 46.8743 271.42 46.8575C271.704 46.8074 271.988 46.7572 272.273 46.707C272.507 46.6569 272.707 46.6067 272.941 46.5732C273.209 46.5231 273.46 46.4729 273.727 46.4227C274.379 46.3224 274.998 46.1886 275.617 46.0883C275.817 46.0548 276.035 46.0046 276.235 45.9879C276.854 45.8876 277.489 45.7872 278.075 45.6702C278.158 45.6702 278.208 45.6367 278.275 45.6367L300.431 233.893L300.464 234.044L301.601 243.693Z" fill="white"/>
<path d="M195.113 129.773C195.113 129.773 193.357 128.436 192.571 128.185C191.785 127.934 190.247 126.746 190.046 127.231C189.846 127.716 191.083 128.469 191.016 129.038C190.949 129.589 187.103 130.492 187.137 131.078C187.154 131.663 188.04 133.101 189.511 132.934C190.983 132.767 194.695 131.881 195.447 132.265C196.2 132.65 195.113 129.773 195.113 129.773Z" fill="#FFB27D"/>
<path d="M234.439 121.529C232.265 124.439 229.724 126.747 227.115 128.553C218.822 134.323 209.826 135.176 209.826 135.176C206.231 135.326 201.047 133.771 197.135 133.135C195.429 132.868 194.677 132.65 194.677 132.65C194.677 132.65 194.025 132.048 194.208 130.393C194.242 130.042 194.727 129.456 194.727 129.456C194.727 129.456 208.622 128.185 210.996 127.082C214.742 123.854 218.053 119.656 220.21 116.378C222.032 113.602 223.136 111.897 223.671 111.696C228.52 109.89 241.178 112.482 234.439 121.529Z" fill="#663AA3"/>
<path d="M218.473 234.43H234.341C235.478 233.661 234.04 226.118 234.04 226.118C234.04 226.118 229.709 224.479 228.957 227.824C228.204 231.169 223.439 232.222 220.914 232.64C219.192 232.908 218.657 233.861 218.473 234.43Z" fill="#233862"/>
<path d="M242.016 234.43H257.884C259.021 233.661 257.583 226.118 257.583 226.118C257.583 226.118 253.252 224.479 252.5 227.824C251.747 231.169 246.982 232.222 244.457 232.64C242.735 232.908 242.183 233.861 242.016 234.43Z" fill="#233862"/>
<path d="M222.754 157.519C222.754 157.519 223.473 166.416 224.309 177.119C225.446 191.651 228.523 227.691 228.523 227.691C228.523 227.691 230.529 229.413 234.994 228.477C234.994 228.477 238.789 216.051 239.926 201.853C239.943 201.619 239.96 201.385 239.976 201.15C241.03 186.701 242.669 156.281 242.669 156.281L222.754 157.519Z" fill="#233862"/>
<path d="M227.066 154.441C227.066 154.441 238.403 182.654 242.015 193.357C244.59 200.983 251.88 227.707 251.88 227.707C251.88 227.707 255.041 228.677 257.699 226.804C257.699 226.804 260.408 199.494 254.94 191.802C252.031 187.721 254.221 149.341 242.45 149.006C230.678 148.672 227.066 154.441 227.066 154.441Z" fill="#2B478B"/>
<path d="M232.115 112.85C233.837 113.753 235.526 113.82 236.998 113.502C238.335 113.218 239.489 112.632 240.308 112.114C241.145 111.579 241.646 111.11 241.646 111.11C241.646 111.11 241.579 111.027 241.496 110.86C240.977 109.99 239.439 106.846 240.125 101.795C240.141 101.728 239.64 101.829 238.87 101.996C236.63 102.531 232.098 103.819 231.898 103.869C231.898 103.869 231.848 104.939 231.664 106.829C231.647 106.996 231.63 107.18 231.614 107.348C231.597 107.565 231.563 107.816 231.547 108.05C231.313 110.04 232.115 112.85 232.115 112.85Z" fill="#FFB27D"/>
<path d="M231.648 106.83C235.009 107.599 240.009 102.649 240.009 102.649C239.641 102.382 239.256 102.164 238.855 101.997C236.615 102.532 232.083 103.82 231.883 103.87C231.883 103.87 231.832 104.924 231.648 106.83Z" fill="#ED975D"/>
<path d="M230.511 103.584C230.511 103.584 231.899 104.086 233.655 104.32C236.23 104.671 239.608 104.471 240.678 101.343C242.467 96.1088 244.758 92.9648 239.491 90.8242C236.665 89.6703 234.859 89.6201 233.638 90.0549C232.568 90.4396 231.949 91.1921 231.465 91.928C230.445 93.5334 228.388 102.664 230.511 103.584Z" fill="#FFB27D"/>
<path d="M227.316 92.3467C230.36 94.5375 234.59 92.3801 235.894 92.9655C237.198 93.5508 237.433 95.7416 237.466 96.4439C237.483 97.1463 237.583 97.7317 239.355 97.3136C239.64 97.2467 239.857 97.2634 240.008 97.347C240.743 97.7818 239.807 99.9057 239.523 100.374C239.523 100.374 239.121 101.896 240.024 102.632C240.141 102.715 241.914 103.501 246.228 96.9122C246.897 95.8753 247.549 93.5508 246.512 91.3098C245.475 89.0689 241.111 86.8948 237.416 85.7576C236.028 85.3228 235.008 85.3395 234.205 85.6406C232.868 86.1256 232.149 87.3965 231.446 88.6675C230.226 90.8081 227.316 92.3467 227.316 92.3467Z" fill="#163560"/>
<path d="M250.077 153.238C250.311 155.061 248.555 156.048 246.95 156.416C246.95 156.416 245.478 156.734 243.606 157.051C241.783 157.352 239.576 157.653 238.021 157.653C230.062 157.586 223.407 155.245 223.407 155.245C221.902 155.245 221.233 152.921 220.982 149.693C220.815 147.502 220.848 144.893 220.966 142.301C220.999 141.465 221.049 140.612 221.099 139.793C221.2 138.154 221.333 136.582 221.434 135.194C221.534 133.889 221.634 132.752 221.685 131.866C221.685 131.866 222.855 124.491 222.939 119.039C223.005 115.125 223.808 112.751 224.36 112.165C225.948 110.476 230.563 109.406 231.5 109.272C231.567 109.255 231.6 109.255 231.6 109.255C235.396 111.379 240.512 108.503 240.512 108.503C240.629 108.52 240.746 108.553 240.847 108.57C240.947 108.553 241.532 108.587 242.352 108.704C244.358 108.988 247.803 109.757 249.257 111.262C249.993 112.015 250.144 114.39 250.06 116.881C249.96 120.36 249.424 124.106 249.424 124.106C249.542 126.916 249.575 130.243 249.592 133.672C249.608 139.241 249.592 145.077 249.759 149.292C249.859 150.847 249.943 152.201 250.077 153.238Z" fill="#F8F8F8"/>
<path d="M260.942 158.623C260.942 158.623 263.684 162.921 263.835 164.56C263.935 165.68 263.684 170.095 263.133 170.095C262.347 170.112 261.561 167.369 261.243 166.667C260.942 165.948 260.574 165.396 260.273 165.396C259.972 165.396 260.942 168.139 260.273 167.838C259.604 167.537 258.501 164.995 258.401 164.376C258.3 163.757 259.002 161.817 258.651 161.048C258.317 160.279 260.942 158.623 260.942 158.623Z" fill="#FFB27D"/>
<path d="M228.484 148.786C228.585 150.09 229.086 151.328 229.889 152.214L231.143 153.636C231.461 153.987 231.946 153.953 232.196 153.552L233.701 151.177C234.103 150.542 234.287 149.739 234.22 148.92C234.052 147.113 233.751 143.618 233.517 140.257C233.317 137.531 233.15 134.872 233.133 133.266C233.049 128.116 233.718 111.727 233.718 111.727L232.715 111.777C232.715 111.777 230.273 118.115 229.053 126.761C228.752 128.885 228.518 131.159 228.417 133.501C228.417 133.501 227.999 142.866 228.484 148.786Z" fill="#BA4C43"/>
<path d="M241.562 108.769C241.562 108.334 239.84 107.799 239.84 107.799C239.84 107.799 237.482 111.077 233.586 111.127C233.586 111.127 234.69 113.284 236.01 113.853C236.01 113.853 241.512 111.946 241.562 108.769Z" fill="#B39DD1"/>
<path d="M233.584 111.04C233.584 111.04 231.528 109.819 231.511 108.498C231.511 108.498 230.324 108.682 229.738 109.334C229.738 109.334 229.103 111.241 229.755 112.562C229.772 112.562 232.731 112.11 233.584 111.04Z" fill="#B39DD1"/>
<path d="M234.992 110.857L232.199 110.188C232.199 110.188 231.831 110.222 231.848 110.673C231.865 111.125 232.634 112.463 232.985 112.563C233.32 112.664 235.661 111.777 234.992 110.857Z" fill="#BA4C43"/>
<path d="M241.562 108.6C241.578 108.165 240.191 107.262 240.191 107.262C240.191 107.262 237.482 110.422 233.586 110.473C233.586 110.473 234.69 112.63 236.01 113.199C236.01 113.199 241.445 111.192 241.562 108.6Z" fill="#F8F8F8"/>
<path d="M233.585 110.49C233.585 110.49 231.495 109.387 231.495 108.065C231.495 108.065 230.241 108.617 229.656 109.27C229.656 109.27 229.121 110.708 229.773 112.029C229.773 112.012 232.732 111.561 233.585 110.49Z" fill="#F8F8F8"/>
<path d="M252.936 160.211C252.936 160.211 249.776 162.235 244.157 162.452C241.95 162.536 235.379 161.967 235.379 161.967L235.496 145.01L240.362 110.242L242.836 110.125C242.669 109.64 242.519 109.155 242.368 108.703C244.375 108.987 247.819 109.757 249.274 111.262C249.909 111.914 250.093 113.77 250.093 115.861L251.431 136.865L252.351 151.214L252.936 160.211Z" fill="#663AA3"/>
<path d="M227.067 142.735V160.646L220.228 159.693C220.228 159.693 219.793 132.266 219.793 125.727C219.776 119.188 223.689 111.73 223.689 111.73C223.689 111.73 225.578 110.442 228.956 109.288L227.067 142.735Z" fill="#663AA3"/>
<path d="M252.448 152.501C252.448 152.501 244.706 130.192 244.656 129.055L249.656 131.078L251.445 136.865L252.448 152.501Z" fill="#522E82"/>
<path d="M230.225 108.819C230.225 108.819 227.818 119.288 227.634 132.567C227.583 135.627 227.165 141.815 227.048 143.621C227.048 143.621 223.922 128.62 223.855 124.289C223.855 124.289 225.878 122.817 225.878 122.315C225.878 121.813 223.688 120.526 223.688 120.526C223.688 120.526 225.343 112.03 226.279 110.96C227.433 109.656 230.225 108.819 230.225 108.819Z" fill="#522E82"/>
<path d="M248.553 110.659C248.553 110.659 252.466 112.398 255.559 125.342C257.9 135.092 262.365 159.993 262.365 159.993L258.586 161.549C258.586 161.549 244.724 129.724 242.734 125.242C240.761 120.777 248.553 110.659 248.553 110.659Z" fill="#663AA3"/>
<path d="M240.93 107.8C240.93 107.8 234.476 134.842 235.496 145.026C235.496 145.026 237.87 134.139 243.572 125.226C243.572 125.226 241.482 123.386 241.599 122.717C241.599 122.717 243.154 122.266 244.642 122.567C244.642 122.567 244.157 110.308 243.505 108.904C243.121 108.051 240.93 107.8 240.93 107.8Z" fill="#522E82"/>
<path d="M232.066 100.758C231.983 101.193 231.665 101.477 231.347 101.427C231.046 101.36 230.862 100.959 230.946 100.541C231.03 100.106 231.347 99.8218 231.665 99.8719C231.983 99.9221 232.15 100.323 232.066 100.758Z" fill="white"/>
<path d="M128.242 107.38C128.242 107.38 137.773 107.296 140.064 110.524C142.355 113.735 145.415 134.154 144.762 136.813C143.258 142.968 137.221 134.439 134.496 130.91C131.787 127.365 128.242 107.38 128.242 107.38Z" fill="#663AA3"/>
<path d="M144.543 131.228L147.101 151.797H139.76L137.754 135.743L144.543 131.228Z" fill="#663AA3"/>
<path d="M121.853 234.561C121.853 234.561 121.502 231.818 120.683 230.196C119.863 228.574 114.68 229.611 114.68 229.611C114.68 229.611 113.643 230.497 113.426 234.644L121.853 234.561Z" fill="#233862"/>
<path d="M139.528 234.53C138.307 233.794 139.01 228.242 139.01 228.242C139.01 228.242 144.695 223.693 145.464 227.171C146.25 230.65 150.865 232.205 153.49 232.64C155.296 232.941 155.864 233.945 156.031 234.53H139.528Z" fill="#233862"/>
<path d="M127.755 194.159C127.989 195.43 128.14 196.483 128.173 197.219C128.708 207.521 136.834 231.067 138.289 231.619C140.547 232.472 144.091 230.666 145.947 230.064C146.717 229.813 147.235 229.044 147.068 228.258C143.038 209.728 141.55 183.038 141.015 167.234C140.747 159.273 139.376 153.771 139.376 153.771C139.376 153.771 119.528 148.47 119.411 155.176C119.311 161.113 125.983 184.375 127.755 194.159Z" fill="#233862"/>
<path d="M127.755 194.159L141.015 167.234C140.747 159.273 139.376 153.771 139.376 153.771C139.376 153.771 119.528 148.47 119.411 155.176C119.311 161.113 125.983 184.375 127.755 194.159Z" fill="#233862"/>
<path d="M132.171 155.208L121.67 231.283C121.67 231.283 117.055 232.387 113.477 231.501C113.477 231.501 110.4 191.03 110.668 181.263C110.919 171.48 108.461 155.091 111.236 153.285C113.995 151.479 132.171 155.208 132.171 155.208Z" fill="#233862"/>
<path d="M110.5 135.676L109.195 153.938C109.145 154.624 109.58 155.259 110.249 155.443C111.72 155.861 113.409 156.162 116.653 156.831C119.713 157.467 123.826 158.035 128.876 158.052C136.919 158.102 139.962 155.326 139.962 155.326C140.313 155.326 139.778 153.654 139.31 145.643C139.143 142.934 138.992 139.489 138.875 135.158C138.775 131.244 138.708 126.612 138.691 121.11C138.674 114.487 128.424 107.363 128.24 107.363C128.24 108.316 126.736 110.072 124.428 110.223C121.686 110.407 118.241 108.417 118.241 106.845C118.241 106.845 117.756 107.313 117.573 107.614C116.486 109.437 113.075 116.628 111.57 123.886C111.352 124.956 111.168 126.093 111.035 127.298C111.035 127.314 111.035 127.331 111.035 127.348C111.001 127.565 110.984 127.783 110.968 128C110.968 128.033 110.968 128.084 110.951 128.117C110.934 128.318 110.918 128.518 110.884 128.719C110.884 128.769 110.918 128.886 110.867 128.886C110.316 129.02 108.811 134.071 110.55 134.02C111.085 134.037 110.516 135.124 110.5 135.676C110.5 135.693 110.5 135.709 110.5 135.709V135.676Z" fill="#F8F8F8"/>
<path d="M128.34 105.924V106.911C128.34 106.911 128.608 109.988 124.812 110.44C121.017 110.891 118.141 109.236 118.241 106.861C118.575 105.021 118.96 103.75 118.977 102.228C118.993 101.66 118.943 101.058 118.843 100.389L126.2 100.238L128.374 100.589L128.34 105.924Z" fill="#FFB27D"/>
<path d="M122.759 143.218L122.876 159.825L108.195 158.119L109.232 118.116L116.656 115.825L119.984 124.99L122.759 143.218Z" fill="#663AA3"/>
<path d="M128.358 100.592L128.324 104.405C127.539 104.772 126.117 104.789 124.997 104.588C121.67 103.986 120.081 102.849 118.944 101.06C118.961 100.491 118.944 101.06 118.844 100.374L126.201 100.224L128.358 100.592Z" fill="#E2915A"/>
<path d="M118.276 99.2014C119.128 103.8 125.048 103.65 127.606 103.349C128.325 103.265 128.776 103.182 128.776 103.182C129.596 102.964 130.047 101.677 130.248 100.004C130.666 96.6929 130.131 91.8096 129.579 90.5721C128.743 88.699 127.154 86.6755 121.185 88.1304C115.232 89.6021 117.189 93.3147 118.276 99.2014Z" fill="#FFB27D"/>
<path d="M131.438 86.2081C131.438 86.2081 128.812 86.0074 125.719 84.6528C123.211 83.5657 120.034 84.7698 118.997 85.305C119.031 85.1378 119.098 84.9203 119.248 84.6862C119.248 84.6862 118.78 85.0207 118.713 85.4722C118.663 85.5057 118.646 85.5391 118.663 85.5391C118.663 85.5391 118.144 85.4388 117.81 85.5893C117.81 85.5893 118.044 85.5558 118.128 85.7064C118.144 85.7231 118.144 85.7398 118.161 85.7398C114.232 87.6296 113.881 93.834 115.135 95.2722C116.656 96.9947 118.663 100.523 118.663 100.523C118.663 100.523 119.131 99.9715 118.863 98.4497C118.579 96.9278 119.9 96.9278 121.556 96.2422C123.211 95.5565 121.84 93.6166 123.278 92.4459C124.733 91.2753 130.05 91.9609 129.966 91.0579C131.939 90.3555 131.438 86.4087 131.438 86.2081Z" fill="#233862"/>
<path d="M117.039 106.627C117.039 106.142 118.962 105.54 118.962 105.54C118.962 105.54 121.604 109.219 125.985 109.286C125.985 109.286 124.747 111.711 123.276 112.33C123.276 112.313 117.106 110.189 117.039 106.627Z" fill="#B39DD1"/>
<path d="M125.984 109.186C125.984 109.186 128.292 107.815 128.309 106.326C128.309 106.326 129.646 106.544 130.299 107.263C130.299 107.263 131.001 109.403 130.282 110.892C130.265 110.892 126.937 110.373 125.984 109.186Z" fill="#B39DD1"/>
<path d="M124.411 108.951L127.555 108.198C127.555 108.198 127.973 108.232 127.956 108.75C127.939 109.269 127.07 110.757 126.685 110.874C126.284 110.991 123.676 109.988 124.411 108.951Z" fill="#BA4C43"/>
<path d="M117.039 106.444C117.022 105.959 118.578 104.956 118.578 104.956C118.578 104.956 121.604 108.501 125.985 108.568C125.985 108.568 124.748 110.993 123.276 111.612C123.276 111.595 117.19 109.338 117.039 106.444Z" fill="#F8F8F8"/>
<path d="M125.984 108.551C125.984 108.551 128.325 107.314 128.325 105.825C128.325 105.825 129.73 106.444 130.382 107.163C130.382 107.163 130.984 108.769 130.265 110.257C130.265 110.257 126.937 109.755 125.984 108.551Z" fill="#F8F8F8"/>
<path d="M131.721 151.515C131.604 152.987 131.035 154.358 130.149 155.361L128.744 156.95C128.393 157.351 127.842 157.301 127.557 156.85L125.868 154.191C125.417 153.472 125.2 152.569 125.283 151.665C125.467 149.642 125.802 145.729 126.086 141.949C126.303 138.889 126.504 135.912 126.521 134.106C126.621 128.336 125.852 109.957 125.852 109.957L126.972 110.024C126.972 110.024 129.698 117.131 131.085 126.831C131.42 129.223 131.671 131.764 131.788 134.39C131.771 134.373 132.256 144.876 131.721 151.515Z" fill="#C65447"/>
<path d="M136.703 141.546L137.756 161.965H143.341L140.03 116.695L130.449 109.554L133.86 123.953L136.703 141.546Z" fill="#663AA3"/>
<path d="M129.766 106.695C129.766 106.695 133.494 123.151 135.451 134.239C135.986 137.249 136.588 139.758 136.705 141.564C136.705 141.564 136.053 126.496 136.12 122.148C136.12 122.148 133.444 120.726 133.444 120.225C133.444 119.723 136.303 118.385 136.303 118.385C136.303 118.385 134.498 109.103 133.511 108.083C132.525 107.063 129.766 106.695 129.766 106.695Z" fill="#522E82"/>
<path d="M110.954 128.15C110.954 128.15 113.329 136.228 120.067 138.402L106.389 136.83C106.389 136.83 105.821 128.769 106.389 128.652C106.958 128.518 110.954 128.15 110.954 128.15Z" fill="#522E82"/>
<path d="M116.755 107.379C116.755 107.379 109.932 106.861 107.157 109.737C103.378 113.65 99.114 137.08 100.769 141.679C101.773 144.489 113.895 142.532 120.651 142.733V138.251C120.651 138.251 109.916 135.776 109.916 132.481C109.916 130.257 116.755 107.379 116.755 107.379Z" fill="#663AA3"/>
<path d="M117.341 106.008C117.341 106.008 123.795 133.05 122.775 143.234C122.775 143.234 120.401 132.347 114.699 123.434C114.699 123.434 116.789 121.594 116.672 120.925C116.672 120.925 115.134 120.474 113.629 120.775C113.629 120.775 113.796 109.118 114.732 107.898C115.635 106.66 117.341 106.008 117.341 106.008Z" fill="#522E82"/>
<path d="M120.633 139.137C120.633 139.137 125.315 138.167 126.034 138.384C128.726 139.237 130.448 141.562 130.448 142.047C130.448 142.548 120.633 142.047 120.633 142.047V139.137Z" fill="#FFB27D"/>
<path d="M261.156 164.354H211.578V234.442H261.156V164.354Z" fill="#EEEEEE"/>
<path d="M265.419 141.676H207.297V166.226H265.419V141.676Z" fill="#EEEEEE"/>
<path d="M207.297 166.227L211.577 172.398H261.155L265.419 166.227H207.297Z" fill="#DDDDDD"/>
<path d="M209.086 234.424L210.49 230.076H262.225L263.379 234.424H209.086Z" fill="#DDDDDD"/>
<path d="M215.758 141.676H211.578C211.578 140.522 212.514 139.586 213.668 139.586C214.822 139.586 215.758 140.522 215.758 141.676Z" fill="#ED7D2B"/>
<path d="M213.853 140.186L213.469 140.17C213.469 140.103 213.92 133.698 219.221 127.878L219.505 128.129C214.288 133.848 213.87 140.136 213.853 140.186Z" fill="#ED7D2B"/>
<path d="M218.48 128.899C218.246 128.664 218.246 128.28 218.48 128.029L219.383 127.126C219.617 126.892 220.002 126.892 220.253 127.126C220.487 127.36 220.487 127.745 220.253 127.995L219.35 128.899C219.116 129.133 218.714 129.133 218.48 128.899Z" fill="#ED7D2B"/>
<path d="M323.56 233.943H47.9492V305.604H323.56V233.943Z" fill="#DDDDDD"/>
<path d="M158.89 164.355H109.312V234.444H158.89V164.355Z" fill="#EEEEEE"/>
<path d="M163.153 141.681H105.031V166.231H163.153V141.681Z" fill="#EEEEEE"/>
<path d="M105.031 166.229L109.312 172.4H158.889L163.153 166.229H105.031Z" fill="#DDDDDD"/>
<path d="M106.82 234.426L108.225 230.078H159.959L161.113 234.426H106.82Z" fill="#DDDDDD"/>
<path d="M157.219 141.68H161.399C161.399 140.526 160.463 139.59 159.309 139.59C158.155 139.59 157.219 140.526 157.219 141.68Z" fill="#2B478B"/>
<path d="M159.124 140.191C159.124 140.124 158.689 133.836 153.473 128.134L153.757 127.883C159.074 133.703 159.509 140.108 159.509 140.175L159.124 140.191Z" fill="#2B478B"/>
<path d="M154.491 128.902C154.725 128.668 154.725 128.284 154.491 128.033L153.588 127.13C153.354 126.896 152.969 126.896 152.719 127.13C152.484 127.364 152.484 127.748 152.719 127.999L153.622 128.902C153.856 129.137 154.257 129.137 154.491 128.902Z" fill="#2B478B"/>
<path d="M203.424 215.902L202.723 216.326L203.684 217.914L204.385 217.49L203.424 215.902Z" fill="#5C3493"/>
<path d="M116.789 305.601C116.789 305.601 127.022 277.707 129.112 268.977C130.902 261.485 133.995 253.675 139.53 251.451C142.656 250.196 146.017 249.31 149.428 248.725C149.846 248.24 150.766 247.37 152.455 246.651C152.505 245.413 152.488 244.159 152.338 243.089C150.632 241.784 148.977 239.794 148.024 236.734C147.121 235.747 146.352 234.192 146.586 233.506C146.669 233.289 146.77 233.138 146.87 233.055C146.736 232.837 146.602 232.587 146.485 232.336C145.516 231.55 145.666 229.593 145.081 228.74C144.379 227.703 143.526 225.011 144.228 224.158C144.93 223.305 145.248 222.201 145.432 219.86C145.616 217.519 147.305 218.589 148.709 218.271C150.131 217.97 149.846 217.519 150.549 215.813C151.251 214.107 152.806 214.258 155.214 214.743C157.622 215.244 157.12 213.672 159.611 213.321C162.086 212.97 163.073 215.311 165.263 215.328C167.437 215.345 167.821 217.786 169.811 219.057C171.801 220.328 169.811 224.559 169.811 224.559C169.911 225.513 169.811 224.559 170.798 226.215C171.784 227.87 170.095 228.857 170.697 230.981C171.299 233.105 169.075 232.888 169.075 232.888C169.075 232.921 169.059 232.938 169.059 232.971C169.427 232.821 169.911 232.787 170.162 233.473C170.513 234.493 168.557 237.553 167.353 237.553C166.517 240.33 165.347 242.052 164.059 243.156C163.992 243.875 163.909 244.962 163.925 246.199C165.497 246.718 166.634 247.387 167.37 247.939C171.115 246.25 181.315 240.982 184.526 232.737C188.472 222.569 192.786 213.271 192.786 213.271C192.786 213.271 191.147 207.267 192.117 204.892L189.609 201.314L188.505 201.983L187.803 200.812L188.656 200.293C188.271 199.976 187.937 199.608 187.669 199.173C186.415 197.083 187.067 194.373 189.157 193.119C191.247 191.865 193.956 192.517 195.21 194.607C195.478 195.042 195.662 195.527 195.745 195.996L196.598 195.477L197.3 196.648L196.197 197.317L198.136 200.979C198.839 200.712 199.374 200.645 199.625 200.946C201.33 203.153 201.547 205.143 201.213 206.799L205.36 214.659L200.862 217.385L198.37 213.823C198.22 214.458 198.136 214.91 198.136 214.91C198.136 214.91 202.919 233.54 194.725 245.848C191.164 251.217 185.746 258.291 180.763 264.579C181.181 280.098 179.626 304.815 179.626 304.815H136.336C136.336 304.815 136.386 299.815 136.536 292.875L131.136 304.815L116.789 305.601Z" fill="#5C3493"/>
<path d="M65.779 215.898L65.0781 216.322L66.0396 217.91L66.7404 217.486L65.779 215.898Z" fill="#5C3493"/>
<path d="M1.87035 251.47C4.99716 250.216 8.35806 249.33 11.7691 248.744C12.1871 248.259 13.1068 247.39 14.7956 246.671C14.8458 245.433 14.829 244.179 14.6786 243.108C12.973 241.804 11.3177 239.814 10.3646 236.754C9.46164 235.767 8.69248 234.212 8.92657 233.526C9.01017 233.308 9.1105 233.158 9.21083 233.074C9.07706 232.857 8.94329 232.606 8.82624 232.355C7.85643 231.569 8.00692 229.613 7.42169 228.76C6.71941 227.723 5.86664 225.03 6.56892 224.177C7.2712 223.325 7.5889 222.221 7.77283 219.879C7.95676 217.538 9.64557 218.609 11.0501 218.291C12.4714 217.99 12.1871 217.538 12.8894 215.832C13.5917 214.127 15.1467 214.277 17.5546 214.762C19.9624 215.264 19.4607 213.692 21.9522 213.341C24.4269 212.989 25.4134 215.331 27.6038 215.347C29.7775 215.364 30.1621 217.806 32.1519 219.077C34.1417 220.348 32.1519 224.579 32.1519 224.579C32.2522 225.532 32.1519 224.579 33.1385 226.234C34.125 227.89 32.4362 228.877 33.0381 231.001C33.6401 233.125 31.4162 232.907 31.4162 232.907C31.4162 232.941 31.3995 232.957 31.3995 232.991C31.7673 232.84 32.2522 232.807 32.5031 233.492C32.8542 234.513 30.8978 237.573 29.6939 237.573C28.8579 240.349 27.6874 242.072 26.3999 243.175C26.333 243.894 26.2494 244.981 26.2661 246.219C27.8379 246.737 28.9749 247.406 29.7107 247.958C33.4561 246.269 43.6559 241.001 46.8663 232.757C50.8124 222.589 55.1264 213.29 55.1264 213.29C55.1264 213.29 53.4878 207.287 54.4576 204.912L51.9495 201.333L50.8459 202.002L50.1436 200.831L50.9964 200.313C50.6118 199.995 50.2774 199.627 50.0098 199.193C48.7558 197.102 49.4079 194.393 51.498 193.139C53.5881 191.884 56.2969 192.537 57.551 194.627C57.8185 195.062 58.0024 195.547 58.086 196.015L58.9388 195.497L59.6411 196.667L58.5375 197.336L60.4771 200.999C61.1794 200.731 61.7145 200.664 61.9653 200.965C63.6708 203.173 63.8882 205.163 63.5538 206.818L67.7006 214.678L63.2026 217.404L60.7112 213.842C60.5607 214.478 60.4771 214.929 60.4771 214.929C60.4771 214.929 65.2593 233.559 57.0661 245.868C53.5045 251.236 48.0869 258.31 43.1041 264.598C43.5221 280.118 41.9671 304.835 41.9671 304.835H-1.28991C-1.28991 304.835 -1.23974 299.835 -1.08925 292.894C-1.08925 292.945 -3.66427 253.678 1.87035 251.47Z" fill="#5C3493"/>
<path d="M12.9542 248.192C12.9542 248.192 2.33642 238.626 2.28626 228.659C2.23609 218.692 1.6007 209.36 1.6007 209.36L-3.54935 209.025C-3.54935 209.025 -13.7157 223.357 -10.7393 236.536C-7.76302 249.714 0.547276 273.829 0.547276 273.829L12.9542 248.192Z" fill="#5C3493"/>
<path d="M1.6021 209.342C1.6021 209.342 6.0666 203.255 4.61188 201.516C3.15715 199.777 3.62534 193.489 1.20079 193.689C-1.1067 193.873 -3.39748 200.278 -3.18011 201.934C-2.96274 203.573 -3.53125 209.008 -3.53125 209.008L1.6021 209.342Z" fill="#5C3493"/>
<path d="M4.76286 203.472C4.76286 203.472 6.88642 197.97 6.23431 197.836C5.58219 197.702 4.91335 198.756 4.61238 199.341C4.16091 200.211 3.84321 200.311 3.74288 200.428C3.10749 201.063 4.76286 203.472 4.76286 203.472Z" fill="#5C3493"/>
<path d="M278.275 215.911L277.574 216.335L278.536 217.923L279.236 217.498L278.275 215.911Z" fill="#5C3493"/>
<path d="M214.384 251.47C217.511 250.216 220.872 249.33 224.283 248.744C224.701 248.259 225.621 247.39 227.309 246.671C227.36 245.433 227.343 244.179 227.192 243.108C225.487 241.804 223.831 239.814 222.878 236.754C221.975 235.767 221.206 234.212 221.44 233.526C221.524 233.308 221.624 233.158 221.725 233.074C221.591 232.857 221.457 232.606 221.34 232.355C220.37 231.569 220.521 229.613 219.935 228.76C219.233 227.723 218.38 225.03 219.083 224.177C219.785 223.325 220.103 222.221 220.287 219.879C220.471 217.538 222.159 218.609 223.564 218.291C224.985 217.99 224.701 217.538 225.403 215.832C226.106 214.127 227.661 214.277 230.068 214.762C232.476 215.264 231.975 213.692 234.466 213.341C236.941 212.989 237.927 215.331 240.118 215.347C242.291 215.364 242.676 217.806 244.666 219.077C246.656 220.348 244.666 224.579 244.666 224.579C244.766 225.532 244.666 224.579 245.652 226.234C246.639 227.89 244.95 228.877 245.552 231.001C246.154 233.125 243.93 232.907 243.93 232.907C243.93 232.941 243.913 232.957 243.913 232.991C244.281 232.84 244.766 232.807 245.017 233.492C245.368 234.513 243.412 237.573 242.208 237.573C241.372 240.349 240.201 242.072 238.914 243.175C238.847 243.894 238.763 244.981 238.78 246.219C240.352 246.737 241.489 247.406 242.224 247.958C245.97 246.269 256.17 241.001 259.38 232.757C263.326 222.589 267.64 213.29 267.64 213.29C267.64 213.29 266.002 207.287 266.971 204.912L264.463 201.333L263.36 202.002L262.657 200.831L263.51 200.313C263.126 199.995 262.791 199.627 262.524 199.193C261.27 197.102 261.922 194.393 264.012 193.139C266.102 191.884 268.811 192.537 270.065 194.627C270.332 195.062 270.516 195.547 270.6 196.015L271.453 195.497L272.155 196.667L271.051 197.336L272.991 200.999C273.693 200.731 274.228 200.664 274.479 200.965C276.185 203.173 276.402 205.163 276.068 206.818L280.214 214.678L275.716 217.404L273.225 213.842C273.075 214.478 272.991 214.929 272.991 214.929C272.991 214.929 277.773 233.559 269.58 245.868C266.018 251.236 260.601 258.31 255.618 264.598C256.036 280.118 254.481 304.835 254.481 304.835H211.19C211.19 304.835 211.241 299.835 211.391 292.894C211.441 292.945 208.85 253.678 214.384 251.47Z" fill="#5C3493"/>
<path d="M225.485 248.192C225.485 248.192 214.868 238.626 214.817 228.659C214.767 218.692 214.132 209.36 214.132 209.36L208.982 209.025C208.982 209.025 198.816 223.357 201.792 236.536C204.768 249.714 213.078 273.829 213.078 273.829L225.485 248.192Z" fill="#5C3493"/>
<path d="M214.114 209.342C214.114 209.342 218.578 203.255 217.124 201.516C215.669 199.777 216.137 193.489 213.712 193.689C211.405 193.873 209.114 200.278 209.332 201.934C209.549 203.573 208.98 209.008 208.98 209.008L214.114 209.342Z" fill="#5C3493"/>
<path d="M217.275 203.472C217.275 203.472 219.398 197.97 218.746 197.836C218.094 197.702 217.425 198.756 217.124 199.341C216.673 200.211 216.355 200.311 216.255 200.428C215.619 201.063 217.275 203.472 217.275 203.472Z" fill="#5C3493"/>
<path d="M336.049 252.908C338.24 247.623 328.324 242.037 326.819 237.923C325.298 233.809 335.447 227.187 327.204 215.581C325.064 212.571 320.566 212.721 317.807 213.139C316.386 213.357 314.964 213.423 313.526 213.256C306.086 212.453 301.604 219.41 300.601 224.578C300.033 227.538 300.166 230.632 303.444 232.572C303.644 232.856 303.895 233.057 304.179 233.224C305.149 245.148 309.246 243.442 309.246 243.442C309.497 245.114 309.396 247.238 309.229 249.044C306.069 249.379 302.925 249.931 299.999 250.7C299.999 250.7 272.66 244.613 265.554 237.656C258.431 230.682 251.358 224.561 251.358 224.561C251.358 224.561 250.455 218.942 248.75 217.337L249.485 213.423L250.656 213.557L250.806 212.32L249.903 212.219C250.104 211.818 250.238 211.383 250.288 210.915C250.555 208.707 248.984 206.701 246.776 206.433C244.569 206.165 242.563 207.737 242.295 209.945C242.245 210.413 242.262 210.865 242.362 211.316L241.459 211.216L241.309 212.453L242.479 212.587L242.245 216.367C241.56 216.4 241.075 216.551 241.008 216.902C240.423 219.377 240.991 221.116 241.894 222.37L241.392 230.481L246.175 231.05L246.91 227.153C247.278 227.622 247.512 227.973 247.512 227.973C247.512 227.973 250.555 245.282 262.009 252.439C271.206 258.192 287.843 266.437 294.03 269.464C293.896 270.635 293.695 271.671 293.444 272.508C290.819 281.154 301.905 304.817 303.979 304.934H341.851C341.835 304.951 339.828 255.834 336.049 252.908Z" fill="#5C3493"/>
<path d="M243.463 230.728L243.262 232.405L244.009 232.495L244.21 230.818L243.463 230.728Z" fill="#5C3493"/>
<path d="M137.304 258.743C133.257 251.25 126.586 250.699 126.586 250.699C123.66 249.929 120.533 249.377 117.356 249.043C117.189 247.237 117.088 245.113 117.339 243.441C117.339 243.441 121.419 245.146 122.405 233.223C122.69 233.072 122.941 232.871 123.141 232.57C126.418 230.63 126.552 227.537 125.984 224.576C124.98 219.409 120.483 212.452 113.058 213.255C111.637 213.405 110.199 213.355 108.778 213.138C106.019 212.703 101.521 212.569 99.3808 215.579C91.1374 227.185 101.287 233.808 99.7654 237.922C98.2438 242.036 88.345 247.621 90.5354 252.906C86.7565 255.833 84.75 304.95 84.75 304.95H142.705C142.688 304.95 141.584 266.686 137.304 258.743Z" fill="#472972"/>
<path d="M90.5191 252.905C90.5191 252.905 73.4637 274.044 75.3532 280.549C77.2259 287.055 89.6161 295.567 92.8767 294.062C96.1206 292.557 90.5191 252.905 90.5191 252.905Z" fill="#472972"/>
<path d="M96.2028 223.055C96.2028 223.055 94.8651 227.721 89.2302 228.724C83.5952 229.727 86.3542 234.226 85.4847 237.236C84.6152 240.246 79.9835 240.782 80.853 245.247C81.7225 249.712 74.8502 253.625 85.7355 262.522C96.6208 271.402 106.503 236.868 106.503 236.868L102.757 224.108L96.2028 223.055Z" fill="#472972"/>
<path d="M227.28 258.743C223.234 251.25 216.562 250.699 216.562 250.699C213.636 249.929 210.509 249.377 207.332 249.043C207.165 247.237 207.065 245.113 207.316 243.441C207.316 243.441 211.395 245.146 212.382 233.223C212.666 233.072 212.917 232.871 213.118 232.57C216.395 230.63 216.529 227.537 215.96 224.576C214.957 219.409 210.459 212.452 203.035 213.255C201.614 213.405 200.176 213.355 198.754 213.138C195.996 212.703 191.498 212.569 189.357 215.579C181.114 227.185 191.264 233.808 189.742 237.922C188.22 242.036 178.322 247.621 180.512 252.906C176.733 255.833 174.727 304.95 174.727 304.95H232.664C232.664 304.95 231.561 266.686 227.28 258.743Z" fill="#472972"/>
<path d="M180.496 252.905C180.496 252.905 163.44 274.044 165.33 280.549C167.202 287.055 179.593 295.567 182.853 294.062C186.097 292.557 180.496 252.905 180.496 252.905Z" fill="#472972"/>
<path d="M186.183 223.055C186.183 223.055 184.846 227.721 179.211 228.724C173.576 229.727 176.335 234.226 175.465 237.236C174.596 240.246 169.964 240.782 170.833 245.247C171.703 249.712 164.831 253.625 175.716 262.522C186.601 271.402 196.483 236.868 196.483 236.868L192.738 224.108L186.183 223.055Z" fill="#472972"/>
<path d="M47.1136 253.138C44.9231 247.853 54.8386 242.268 56.3435 238.154C57.8651 234.04 47.7155 227.417 55.9589 215.811C58.0992 212.801 62.5971 212.951 65.3561 213.37C66.7774 213.587 68.1986 213.654 69.6366 213.487C77.0774 212.684 81.5586 219.641 82.5619 224.808C83.1304 227.769 82.9966 230.862 79.7193 232.802C79.5187 233.087 79.2679 233.287 78.9836 233.454C78.0138 245.378 73.9172 243.673 73.9172 243.673C73.6664 245.345 73.7667 247.469 73.9339 249.275C77.0942 249.609 80.2377 250.161 83.1638 250.931C83.1638 250.931 110.503 244.843 117.609 237.886C124.732 230.913 131.805 224.792 131.805 224.792C131.805 224.792 132.708 219.173 134.413 217.567L133.678 213.654L132.507 213.788L132.357 212.55L133.26 212.45C133.059 212.048 132.925 211.614 132.875 211.145C132.608 208.938 134.179 206.931 136.386 206.663C138.594 206.396 140.6 207.968 140.868 210.175C140.918 210.644 140.901 211.095 140.801 211.547L141.704 211.446L141.854 212.684L140.684 212.818L140.918 216.597C141.603 216.631 142.088 216.781 142.155 217.132C142.74 219.607 142.172 221.347 141.269 222.601L141.771 230.712L136.988 231.28L136.253 227.384C135.885 227.852 135.651 228.203 135.651 228.203C135.651 228.203 132.608 245.512 121.154 252.67C111.957 258.423 88.4644 266.617 89.7184 272.755C91.5243 281.601 88.1467 305.182 88.1467 305.182H41.3281C41.3281 305.182 43.3346 256.065 47.1136 253.138Z" fill="#291741"/>
<path d="M139.731 230.972L138.984 231.062L139.185 232.739L139.932 232.649L139.731 230.972Z" fill="#291741"/>
<path d="M47.1128 253.138C47.1128 253.138 30.0575 274.276 31.9469 280.782C33.8197 287.287 46.2099 295.799 49.4704 294.294C52.7143 292.789 47.1128 253.138 47.1128 253.138Z" fill="#291741"/>
<path d="M52.7966 223.286C52.7966 223.286 51.4589 227.952 45.8239 228.955C40.189 229.959 42.9479 234.457 42.0785 237.468C41.209 240.478 36.5773 241.013 37.4468 245.478C38.3162 249.943 31.4439 253.857 42.3293 262.754C53.2146 271.634 63.0967 237.1 63.0967 237.1L59.3512 224.34L52.7966 223.286Z" fill="#291741"/>
<path d="M369.264 223.323C368.985 221.084 368.066 218.593 366.095 215.818C363.954 212.808 359.457 212.958 356.698 213.376C355.276 213.594 353.855 213.661 352.417 213.493C344.976 212.691 340.495 219.648 339.492 224.815C338.923 227.775 339.057 230.869 342.334 232.809C342.535 233.093 342.786 233.294 343.07 233.461C344.04 245.385 348.136 243.679 348.136 243.679C348.387 245.352 348.287 247.476 348.12 249.282C344.959 249.616 341.816 250.168 338.89 250.937C338.89 250.937 311.551 244.85 304.445 237.893C297.322 230.919 290.249 224.799 290.249 224.799C290.249 224.799 289.346 219.179 287.64 217.574L288.376 213.661L289.546 213.795L289.697 212.557L288.794 212.457C288.995 212.055 289.128 211.62 289.178 211.152C289.446 208.945 287.874 206.938 285.667 206.67C283.46 206.403 281.453 207.975 281.186 210.182C281.136 210.65 281.152 211.102 281.253 211.554L280.35 211.453L280.199 212.691L281.37 212.825L281.136 216.604C280.45 216.637 279.965 216.788 279.898 217.139C279.313 219.614 279.882 221.354 280.785 222.608L280.283 230.719L285.065 231.287L285.801 227.391C286.169 227.859 286.403 228.21 286.403 228.21C286.403 228.21 289.446 245.519 300.9 252.677C303.751 254.46 307.976 256.478 312.412 258.597C322.285 263.313 333.2 268.527 332.335 272.762C330.529 281.608 333.907 305.188 333.907 305.188H380.759C380.756 305.188 380.738 304.813 380.705 304.126L380.705 304.125C380.609 302.127 380.387 297.499 380.043 291.803C384.378 289.027 389.018 284.569 390.106 280.789C391.212 276.982 385.832 268.167 381.177 261.507C387.282 255.932 386.158 252.421 385.181 249.371C384.753 248.032 384.353 246.782 384.605 245.485C385.129 242.794 383.655 241.531 382.211 240.292C381.258 239.476 380.319 238.671 379.973 237.475C379.711 236.566 379.779 235.522 379.847 234.479C380.005 232.067 380.162 229.663 376.228 228.962C370.856 228.006 369.389 223.72 369.264 223.323Z" fill="#472972"/>
<path d="M282.13 232.659L282.331 230.982L283.078 231.071L282.877 232.748L282.13 232.659Z" fill="#472972"/>
<path d="M219.129 215.906L218.168 217.494L218.869 217.919L219.83 216.331L219.129 215.906Z" fill="#1F1131"/>
<path d="M305.786 305.601C305.786 305.601 296.723 277.222 294.633 268.492C292.844 261 288.58 253.675 283.045 251.451C279.918 250.196 276.557 249.31 273.146 248.725C272.728 248.24 271.809 247.37 270.12 246.651C270.07 245.413 270.086 244.159 270.237 243.089C271.942 241.784 273.598 239.794 274.551 236.734C275.454 235.747 276.223 234.192 275.989 233.506C275.905 233.289 275.805 233.138 275.705 233.055C275.838 232.837 275.972 232.587 276.089 232.336C277.059 231.55 276.909 229.593 277.494 228.74C278.196 227.703 279.049 225.011 278.347 224.158C277.644 223.305 277.327 222.201 277.143 219.86C276.959 217.519 275.27 218.589 273.865 218.271C272.444 217.97 272.728 217.519 272.026 215.813C271.324 214.107 269.769 214.258 267.361 214.743C264.953 215.244 265.455 213.672 262.963 213.321C260.489 212.97 259.502 215.311 257.312 215.328C255.138 215.345 254.753 217.786 252.764 219.057C250.774 220.328 252.764 224.559 252.764 224.559C252.663 225.513 252.764 224.559 251.777 226.215C250.79 227.87 252.479 228.857 251.877 230.981C251.275 233.105 253.499 232.888 253.499 232.888C253.499 232.921 253.516 232.938 253.516 232.971C253.148 232.821 252.663 232.787 252.412 233.473C252.061 234.493 254.018 237.553 255.222 237.553C256.058 240.33 257.228 242.052 258.516 243.156C258.582 243.875 258.666 244.962 258.649 246.199C257.078 246.718 255.941 247.387 255.205 247.939C251.459 246.25 241.26 240.982 238.049 232.737C234.103 222.569 229.789 213.271 229.789 213.271C229.789 213.271 231.428 207.267 230.458 204.892L232.966 201.314L234.07 201.983L234.772 200.812L233.919 200.293C234.304 199.976 234.638 199.608 234.906 199.173C236.16 197.083 235.508 194.373 233.417 193.119C231.327 191.865 228.619 192.517 227.364 194.607C227.097 195.042 226.913 195.527 226.829 195.996L225.977 195.477L225.274 196.648L226.378 197.317L224.438 200.979C223.736 200.712 223.201 200.645 222.95 200.946C221.245 203.153 221.027 205.143 221.362 206.799L217.215 214.659L221.713 217.385L224.204 213.823C224.355 214.458 224.438 214.91 224.438 214.91C224.438 214.91 219.656 233.54 227.849 245.848C231.411 251.217 236.828 258.291 241.811 264.579C241.393 280.098 242.948 304.815 242.948 304.815L305.786 305.601Z" fill="#1F1131"/>
<path d="M45.8747 224.543L46.3094 226.215L45.557 226.416L45.1223 224.743L43.1659 225.262L41.8617 221.399C41.5607 221.934 41.3601 222.319 41.3601 222.319C41.3601 222.319 40.8417 236.935 32.9661 246.35C32.0967 247.404 31.1268 248.374 30.0567 249.277C25.8263 252.822 21.2448 257.12 16.9977 261.033C10.0752 267.405 6.53038 276.653 7.38314 286.035C8.05198 293.377 8.62049 301.337 8.35295 304.899C8.35295 304.916 8.35295 304.933 8.35295 304.966C8.35295 305 8.35295 305.033 8.33624 305.083L-39.101 304.916C-39.101 304.916 -41.5423 302.909 -45.0704 299.063C-46.0904 285.868 -47.1438 267.857 -45.9399 261.97C-50.9394 262.455 -51.1233 258.224 -50.4043 256.585C-49.6686 254.946 -52.6951 252.605 -54.6347 248.391C-56.5744 244.176 -51.1233 242.838 -52.9459 238.29C-54.7685 233.741 -53.0797 225.981 -49.6853 222.452C-47.4615 220.144 -43.4484 219.927 -40.9403 220.044C-38.9004 217.502 -34.9041 217.118 -32.329 217.151C-30.8576 217.168 -29.3862 217.034 -27.9649 216.666C-20.5074 214.793 -14.956 221.248 -13.217 226.349C-12.2138 229.276 -11.9128 232.453 -14.9727 234.895C-15.1399 235.212 -15.374 235.463 -15.6416 235.664C-14.9393 247.939 -19.3536 246.785 -19.3536 246.785C-19.3703 248.524 -18.969 250.682 -18.5343 252.488C-16.8956 252.438 -15.257 252.438 -13.6518 252.504C-11.2774 252.588 -8.91975 252.337 -6.64571 251.752C-5.45852 251.451 -4.28806 251.066 -3.16776 250.598C0.360359 249.143 5.04222 247.086 9.62375 244.761C11.0617 244.042 12.483 243.29 13.8374 242.521C18.3688 239.979 22.3316 237.253 24.288 234.727C27.0637 231.132 29.8728 227.704 32.1134 224.994C34.9225 221.616 36.8788 219.392 36.8788 219.392C36.8788 219.392 36.9959 213.539 38.5175 211.666L37.2133 207.786L36.0428 208.104L35.7251 206.866L36.628 206.632C36.3103 206.18 36.093 205.645 35.9759 205.06C35.5913 203.02 36.812 200.979 38.785 200.344C41.0591 199.625 43.4502 200.946 44.0521 203.237C44.1692 203.705 44.2193 204.174 44.1692 204.642L45.0721 204.408L45.3898 205.645L44.2193 205.946L44.9885 209.759C45.6908 209.692 46.1924 209.776 46.3262 210.127C47.2625 212.552 46.9448 214.408 46.2091 215.813L47.8645 223.991L45.8747 224.543Z" fill="#472972"/>
<path d="M340 304.814V305.186C340 305.628 339.821 306 339.593 306H0.406741C0.179444 306 0 305.628 0 305.186V304.814C0 304.372 0.179444 304 0.406741 304H339.593C339.821 304.023 340 304.372 340 304.814Z" fill="#2E3552"/>
<path d="M49.6029 124.958L48.6832 126.313L46.3925 126.814L-42.7969 146.247C-42.3789 145.812 -41.9608 145.394 -41.5261 144.976L46.6266 125.627L49.6029 124.958Z" fill="#1F3B63"/>
<path d="M76.074 127.031L76.191 127.047L74.5858 135.392L74.4688 135.359C74.9871 135.727 75.5891 135.978 76.2412 136.112C78.766 136.597 81.1906 134.958 81.6755 132.432C82.1604 129.924 80.5217 127.482 77.9969 126.997C77.328 126.88 76.6759 126.897 76.074 127.031Z" fill="#22407A"/>
<path d="M76.1892 127.064L71.5742 126.362L70.5375 126.195L54.0005 123.686L47.1951 122.649L46.125 128.118L52.8134 129.824L69.0327 133.988L70.0526 134.239L74.5673 135.409L76.1892 127.064Z" fill="#22407A"/>
<path d="M54.0006 123.686L47.1951 122.649L46.125 128.118L52.8134 129.824L54.0006 123.686Z" fill="#1F3B63"/>
<path d="M71.5729 126.362L70.5362 126.194L69.0312 133.987L70.0512 134.238L71.5729 126.362Z" fill="#F99746"/>
<path d="M76.6081 125.977L75.2202 125.776L73.2305 136.078L74.5848 136.429L76.6081 125.977Z" fill="#233862"/>
<path d="M412.914 188.807L327.771 134.757L325.831 133.519L325.43 131.964L327.955 133.569L412.897 187.67C412.914 188.055 412.914 188.422 412.914 188.807Z" fill="#1F3B63"/>
<path d="M300.433 124.991L300.316 124.974L298.995 133.185L299.112 133.202C298.51 133.352 297.875 133.403 297.239 133.286C294.764 132.884 293.076 130.56 293.477 128.084C293.878 125.609 296.203 123.92 298.677 124.322C299.329 124.422 299.915 124.656 300.433 124.991Z" fill="#22407A"/>
<path d="M300.317 124.955L304.782 125.875L305.801 126.076L321.837 129.32L328.441 130.658L327.572 136.043L320.85 135.374L304.564 133.735L303.527 133.635L298.996 133.166L300.317 124.955Z" fill="#22407A"/>
<path d="M321.838 129.322L328.443 130.66L327.573 136.045L320.852 135.376L321.838 129.322Z" fill="#1F3B63"/>
<path d="M304.781 125.875L305.801 126.076L304.564 133.735L303.527 133.635L304.781 125.875Z" fill="#ED7D2B"/>
<path d="M300.301 123.835L301.639 124.103L300 134.254L298.629 134.12L300.301 123.835Z" fill="#233862"/>
<path d="M383.434 81.9316L332.469 84.39L329.961 84.5238L330.981 85.3934L332.904 85.2931L383.986 82.7344L383.434 81.9316Z" fill="#1F3B63"/>
<path d="M309.447 91.8467L309.363 91.8801L312.423 98.1514L312.506 98.1013C312.172 98.5026 311.754 98.8371 311.269 99.0712C309.38 99.991 307.106 99.2217 306.169 97.332C305.25 95.4422 306.019 93.1678 307.908 92.2313C308.41 91.9805 308.928 91.8634 309.447 91.8467Z" fill="#22407A"/>
<path d="M309.363 91.8785L312.858 90.3399L313.644 89.9887L326.201 84.4532L331.368 82.1621L333.391 86.2761L328.458 89.0689L316.503 95.8252L315.751 96.26L312.423 98.1498L309.363 91.8785Z" fill="#22407A"/>
<path d="M326.203 84.4532L331.37 82.1621L333.393 86.2761L328.46 89.0689L326.203 84.4532Z" fill="#1F3B63"/>
<path d="M312.855 90.3385L313.641 89.9873L316.501 95.8238L315.748 96.2586L312.855 90.3385Z" fill="#ED7D2B"/>
<path d="M308.793 91.1265L309.846 90.6582L313.642 98.4012L312.639 98.9698L308.793 91.1265Z" fill="#233862"/>
<path d="M151.667 148.986H118.242V156.278H151.667V148.986Z" fill="#EBF3FA"/>
<path d="M139.393 150.893H129.762V151.796H139.393V150.893Z" fill="#22407A"/>
<path d="M143.943 153.051H125.199V153.954H143.943V153.051Z" fill="#22407A"/>
<path d="M254.281 148.986H220.855V156.278H254.281V148.986Z" fill="#EBF3FA"/>
<path d="M242.022 150.893H232.391V151.796H242.022V150.893Z" fill="#22407A"/>
<path d="M246.572 153.051H227.828V153.954H246.572V153.051Z" fill="#22407A"/>
<path d="M335.516 98.1486C335.516 98.1486 361.784 156.831 367.018 148.988C372.235 141.145 335.934 86.3084 335.516 98.1486Z" fill="#EEEEEE"/>
<path d="M12.9487 141.513C12.9487 141.513 -6.33056 151.446 -17.9516 152.634C-29.5726 153.821 -21.4128 161.614 -15.2094 159.825C-9.00591 158.052 18.8679 144.673 12.9487 141.513Z" fill="#EEEEEE"/>
</g>
</g>
<defs>
<clipPath id="clip0_2234_44376">
<rect width="420.382" height="282.259" fill="white" transform="translate(-40.1914 24)"/>
</clipPath>
</defs>
</svg>
