<svg width="317" height="181" viewBox="0 0 317 181" fill="none" xmlns="http://www.w3.org/2000/svg">
<g clip-path="url(#clip0_1_19313)">
<path d="M252.962 70.5996H303.473H317L306.574 78.1494V92.9792C306.574 94.6869 305.181 96.08 303.473 96.08H252.962C251.254 96.08 249.861 94.6869 249.861 92.9792V73.7004C249.861 71.9927 251.254 70.5996 252.962 70.5996Z" fill="#F5F5F5"/>
<path d="M255.658 81.0713C255.658 81.1163 265.32 81.1612 277.229 81.1612C289.138 81.1612 298.8 81.1163 298.8 81.0713C298.8 81.0264 289.138 80.9814 277.229 80.9814C265.32 80.9814 255.658 81.0264 255.658 81.0713Z" fill="#E0E0E0"/>
<path d="M255.658 86.7774C255.658 86.8224 265.32 86.8673 277.229 86.8673C289.138 86.8673 298.8 86.8224 298.8 86.7774C298.8 86.7325 289.138 86.6876 277.229 86.6876C265.32 86.6426 255.658 86.6876 255.658 86.7774Z" fill="#E0E0E0"/>
<path d="M155.714 15.9541H152.703V25.9755H155.714V15.9541Z" fill="#E0E0E0"/>
<path d="M130.683 14.5166H127.672V26.021H130.683V14.5166Z" fill="#E0E0E0"/>
<path d="M136.974 12.1348H133.963V26.0209H136.974V12.1348Z" fill="#E0E0E0"/>
<path d="M143.221 12.8525H140.21V25.9747H143.221V12.8525Z" fill="#E0E0E0"/>
<path d="M149.467 8.44922H146.457V26.0204H149.467V8.44922Z" fill="#E0E0E0"/>
<path d="M162.006 8.53809H158.995V26.0194H162.006V8.53809Z" fill="#E0E0E0"/>
<path d="M168.252 14.2471H165.241V25.9762H168.252V14.2471Z" fill="#E0E0E0"/>
<path d="M174.498 9.30273H171.487V26.0201H174.498V9.30273Z" fill="#E0E0E0"/>
<path d="M180.745 5.52832H177.734V26.0205H180.745V5.52832Z" fill="#E0E0E0"/>
<path d="M187.037 9.21289H184.026V26.0201H187.037V9.21289Z" fill="#E0E0E0"/>
<path d="M265.949 25.0767L290.711 21.3018C292.778 34.9184 283.296 47.7709 269.724 49.8831C256.108 51.9503 243.255 42.4681 241.143 28.8965C239.121 15.28 248.558 2.3825 262.174 0.270369C264.332 -0.0442045 266.534 -0.0891435 268.736 0.135552L265.949 25.0767Z" fill="#EBEBEB"/>
<path d="M273.994 0.224609L270.983 19.4585L289.857 15.9083C289.857 15.9083 287.071 5.12296 273.994 0.224609Z" fill="#E0E0E0"/>
<path d="M12.8976 71.6778C12.8077 64.892 18.2004 59.2296 24.9862 59.1398C31.772 59.0499 37.3444 64.4875 37.4792 71.2733C37.5691 78.0591 32.1764 83.7214 25.3906 83.8113C18.6498 83.9461 13.0324 78.4636 12.8976 71.6778ZM31.0979 71.3632C31.053 68.1276 28.3566 65.5211 25.121 65.566C21.8854 65.611 19.2789 68.3073 19.3239 71.5429C19.3688 74.7786 22.0652 77.385 25.3008 77.3401C28.5364 77.3401 31.1428 74.6437 31.0979 71.3632Z" fill="#F5F5F5"/>
<path d="M12.8976 71.6776C12.8077 64.8918 18.2004 59.2295 24.9862 59.1396L25.0761 65.5659C21.8405 65.6109 19.234 68.3072 19.2789 71.5428C19.3239 74.7784 22.0202 77.3849 25.2558 77.34L25.3457 83.7662C18.6498 83.946 13.0324 78.4634 12.8976 71.6776Z" fill="#E0E0E0"/>
<path d="M23.9082 58.1506C31.8175 58.0158 38.1539 64.1724 38.2887 72.1267L30.7839 72.2615C30.7389 68.4417 27.8179 66.0599 24.043 66.1048L23.9082 58.1506Z" fill="#EBEBEB"/>
<path d="M92.7555 114.998H77.1167V133.558H92.7555V114.998Z" fill="#F5F5F5"/>
<path d="M77.7003 113.786H7.10107V134.728H77.7003V113.786Z" fill="#E0E0E0"/>
<path d="M93.2034 115.583H75.7671V113.83H93.2034C93.6978 113.83 94.1022 114.235 94.1022 114.729C94.1022 115.178 93.6978 115.583 93.2034 115.583Z" fill="#E0E0E0"/>
<path d="M93.2034 134.727H75.7671V132.975H93.2034C93.6978 132.975 94.1022 133.379 94.1022 133.873C94.1022 134.368 93.6978 134.727 93.2034 134.727Z" fill="#E0E0E0"/>
<path d="M72.1277 113.786H63.769V134.728H72.1277V113.786Z" fill="#EBEBEB"/>
<path d="M22.1555 114.011H13.7969V134.952H22.1555V114.011Z" fill="#EBEBEB"/>
<path d="M92.7543 118.101C92.7543 118.146 89.3839 118.19 85.2045 118.19C81.0252 118.19 77.6548 118.146 77.6548 118.101C77.6548 118.056 81.0252 118.011 85.2045 118.011C89.3839 118.011 92.7543 118.011 92.7543 118.101Z" fill="#E0E0E0"/>
<path d="M92.7543 120.886C92.7543 120.931 89.3839 120.976 85.2045 120.976C81.0252 120.976 77.6548 120.931 77.6548 120.886C77.6548 120.841 81.0252 120.796 85.2045 120.796C89.3839 120.751 92.7543 120.796 92.7543 120.886Z" fill="#E0E0E0"/>
<path d="M92.7543 124.302C92.7543 124.347 89.3839 124.392 85.2045 124.392C81.0252 124.392 77.6548 124.347 77.6548 124.302C77.6548 124.257 81.0252 124.212 85.2045 124.212C89.3839 124.212 92.7543 124.257 92.7543 124.302Z" fill="#E0E0E0"/>
<path d="M92.7543 127.716C92.7543 127.761 89.3839 127.806 85.2045 127.806C81.0252 127.806 77.6548 127.761 77.6548 127.716C77.6548 127.671 81.0252 127.626 85.2045 127.626C89.3839 127.626 92.7543 127.671 92.7543 127.716Z" fill="#E0E0E0"/>
<path d="M92.7543 131.134C92.7543 131.179 89.3839 131.224 85.2045 131.224C81.0252 131.224 77.6548 131.179 77.6548 131.134C77.6548 131.089 81.0252 131.044 85.2045 131.044C89.3839 131.044 92.7543 131.089 92.7543 131.134Z" fill="#E0E0E0"/>
<path d="M59.3202 122.414H27.5483V126.189H59.3202V122.414Z" fill="#EBEBEB"/>
<path d="M92.5749 135.176H76.7114V146.501H92.5749V135.176Z" fill="#FAFAFA"/>
<path d="M76.9369 134.728H9.43848V146.861H76.9369V134.728Z" fill="#F5F5F5"/>
<path d="M76.397 135.581H93.4738C93.6985 135.581 93.8783 135.401 93.8783 135.176C93.8783 134.952 93.6985 134.772 93.4738 134.772H76.397V135.581Z" fill="#F5F5F5"/>
<path d="M76.397 146.86H93.6536C93.7434 146.86 93.8333 146.77 93.8333 146.68V146.231C93.8333 146.141 93.7434 146.051 93.6536 146.051H76.397V146.86Z" fill="#F5F5F5"/>
<path d="M92.5738 137.29C92.5738 137.335 89.0686 137.379 84.7545 137.379C80.4403 137.379 76.9351 137.335 76.9351 137.29C76.9351 137.245 80.4403 137.2 84.7545 137.2C89.0686 137.2 92.5738 137.245 92.5738 137.29Z" fill="#E0E0E0"/>
<path d="M92.5738 139.446C92.5738 139.491 89.0686 139.536 84.7545 139.536C80.4403 139.536 76.9351 139.491 76.9351 139.446C76.9351 139.401 80.4403 139.356 84.7545 139.356C89.0686 139.356 92.5738 139.401 92.5738 139.446Z" fill="#E0E0E0"/>
<path d="M92.5738 141.603C92.5738 141.648 89.0686 141.693 84.7545 141.693C80.4403 141.693 76.9351 141.648 76.9351 141.603C76.9351 141.558 80.4403 141.513 84.7545 141.513C89.0686 141.513 92.5738 141.513 92.5738 141.603Z" fill="#E0E0E0"/>
<path d="M92.5738 143.715C92.5738 143.76 89.0686 143.805 84.7545 143.805C80.4403 143.805 76.9351 143.76 76.9351 143.715C76.9351 143.67 80.4403 143.625 84.7545 143.625C89.0686 143.625 92.5738 143.67 92.5738 143.715Z" fill="#E0E0E0"/>
<path d="M95.0023 147.94H78.8242V178.588H95.0023V147.94Z" fill="#EBEBEB"/>
<path d="M78.8235 146.86H2.83154V180.115H78.8235V146.86Z" fill="#E0E0E0"/>
<path d="M96.2594 180.115H76.7109V177.958H96.2594C96.8436 177.958 97.338 178.452 97.338 179.036C97.338 179.665 96.8436 180.115 96.2594 180.115Z" fill="#E0E0E0"/>
<path d="M96.8436 149.017H76.7109V146.86H96.8436C97.1133 146.86 97.338 147.085 97.338 147.354V148.523C97.338 148.837 97.1133 149.017 96.8436 149.017Z" fill="#E0E0E0"/>
<path d="M95.0018 152.073C95.0018 152.118 91.3617 152.163 86.9128 152.163C82.4638 152.163 78.8237 152.118 78.8237 152.073C78.8237 152.028 82.4638 151.983 86.9128 151.983C91.3617 151.983 95.0018 152.028 95.0018 152.073Z" fill="#E0E0E0"/>
<path d="M95.0018 155.983C95.0018 156.028 91.3617 156.073 86.9128 156.073C82.4638 156.073 78.8237 156.028 78.8237 155.983C78.8237 155.938 82.4638 155.894 86.9128 155.894C91.3617 155.894 95.0018 155.938 95.0018 155.983Z" fill="#E0E0E0"/>
<path d="M95.0023 159.938C95.0023 159.983 91.3622 160.028 86.9132 160.028C82.4643 160.028 78.8242 159.983 78.8242 159.938C78.8242 159.893 82.4643 159.848 86.9132 159.848C91.3622 159.848 95.0023 159.893 95.0023 159.938Z" fill="#E0E0E0"/>
<path d="M95.0023 163.892C95.0023 163.937 91.3622 163.982 86.9132 163.982C82.4643 163.982 78.8242 163.937 78.8242 163.892C78.8242 163.847 82.4643 163.802 86.9132 163.802C91.3622 163.757 95.0023 163.802 95.0023 163.892Z" fill="#E0E0E0"/>
<path d="M95.0018 167.803C95.0018 167.848 91.3617 167.893 86.9128 167.893C82.4638 167.893 78.8237 167.848 78.8237 167.803C78.8237 167.758 82.4638 167.713 86.9128 167.713C91.3617 167.713 95.0018 167.758 95.0018 167.803Z" fill="#E0E0E0"/>
<path d="M95.0023 171.758C95.0023 171.803 91.3622 171.848 86.9132 171.848C82.4643 171.848 78.8242 171.803 78.8242 171.758C78.8242 171.713 82.4643 171.668 86.9132 171.668C91.3622 171.668 95.0023 171.668 95.0023 171.758Z" fill="#E0E0E0"/>
<path d="M95.0023 175.668C95.0023 175.712 91.3622 175.757 86.9132 175.757C82.4643 175.757 78.8242 175.712 78.8242 175.668C78.8242 175.623 82.4643 175.578 86.9132 175.578C91.3622 175.578 95.0023 175.623 95.0023 175.668Z" fill="#E0E0E0"/>
<path d="M28.8502 165.332V167.174C28.8502 169.421 27.7267 170.679 25.5696 170.679C23.4125 170.679 22.2891 169.421 22.2891 167.174V159.939C22.2891 157.692 23.4125 156.434 25.5696 156.434C27.7267 156.434 28.8502 157.692 28.8502 159.939V161.287H26.783V159.804C26.783 158.815 26.3336 158.411 25.6595 158.411C24.9854 158.411 24.536 158.77 24.536 159.804V167.309C24.536 168.297 24.9854 168.657 25.6595 168.657C26.3336 168.657 26.783 168.297 26.783 167.309V165.332H28.8502Z" fill="#EBEBEB"/>
<path d="M29.9741 159.939C29.9741 157.692 31.1425 156.434 33.2996 156.434C35.4567 156.434 36.6251 157.692 36.6251 159.939V167.174C36.6251 169.421 35.4567 170.679 33.2996 170.679C31.1425 170.679 29.9741 169.421 29.9741 167.174V159.939ZM32.1761 167.309C32.1761 168.297 32.6255 168.702 33.2996 168.702C33.9737 168.702 34.4231 168.342 34.4231 167.309V159.804C34.4231 158.815 33.9737 158.411 33.2996 158.411C32.6255 158.411 32.1761 158.77 32.1761 159.804V167.309Z" fill="#EBEBEB"/>
<path d="M38.0181 156.613H40.2201V168.522H43.8152V170.499H38.0181V156.613Z" fill="#EBEBEB"/>
<path d="M44.5791 159.939C44.5791 157.692 45.7475 156.434 47.9046 156.434C50.0617 156.434 51.2301 157.692 51.2301 159.939V167.174C51.2301 169.421 50.0617 170.679 47.9046 170.679C45.7475 170.679 44.5791 169.421 44.5791 167.174V159.939ZM46.7811 167.309C46.7811 168.297 47.2305 168.702 47.9046 168.702C48.5787 168.702 49.0281 168.342 49.0281 167.309V159.804C49.0281 158.815 48.5787 158.411 47.9046 158.411C47.2305 158.411 46.7811 158.77 46.7811 159.804V167.309Z" fill="#EBEBEB"/>
<path d="M54.7352 156.613V167.354C54.7352 168.342 55.1846 168.702 55.8587 168.702C56.5328 168.702 56.9822 168.342 56.9822 167.354V156.613H59.0494V167.219C59.0494 169.466 57.9259 170.724 55.7688 170.724C53.6118 170.724 52.4883 169.466 52.4883 167.219V156.613H54.7352Z" fill="#EBEBEB"/>
<path d="M65.1609 170.499C65.0261 170.14 64.9812 169.915 64.9812 168.792V166.59C64.9812 165.287 64.5318 164.837 63.5431 164.837H62.7792V170.499H60.5771V156.568H63.8577C66.1047 156.568 67.0933 157.602 67.0933 159.759V160.838C67.0933 162.276 66.6439 163.219 65.6553 163.669C66.7338 164.118 67.0933 165.197 67.0933 166.635V168.792C67.0933 169.466 67.0933 169.96 67.318 170.499H65.1609ZM62.7792 158.591V162.86H63.633C64.4419 162.86 64.9362 162.5 64.9362 161.377V159.984C64.9362 158.995 64.5767 158.546 63.8128 158.546H62.7792V158.591Z" fill="#EBEBEB"/>
<path d="M28.3566 139.536H26.7388L26.8286 139.132H30.5136L30.4238 139.536H28.8509L28.042 143.626H27.5926L28.3566 139.536Z" fill="#E0E0E0"/>
<path d="M33.5701 140.255L31.0984 144.075C30.694 144.704 30.3794 144.929 29.8851 144.929C29.5705 144.929 29.2559 144.839 29.0762 144.614L29.3009 144.3C29.4357 144.435 29.6604 144.525 29.8851 144.525C30.1547 144.525 30.4243 144.39 30.649 143.985L30.8737 143.626L30.0199 140.255H30.4693L31.1883 143.131L33.0308 140.255H33.5701Z" fill="#E0E0E0"/>
<path d="M37.3443 141.648C37.3443 142.816 36.5354 143.67 35.412 143.67C34.7828 143.67 34.3334 143.401 34.1087 142.906L33.7043 144.884H33.2549L34.1986 140.21H34.648L34.5581 140.749C34.8727 140.39 35.3221 140.165 35.8613 140.165C36.7601 140.21 37.3443 140.749 37.3443 141.648ZM36.8949 141.693C36.8949 141.019 36.4905 140.614 35.7715 140.614C34.9176 140.614 34.2885 141.289 34.2885 142.187C34.2885 142.861 34.6929 143.221 35.412 143.221C36.2658 143.266 36.8949 142.592 36.8949 141.693Z" fill="#E0E0E0"/>
<path d="M37.8838 142.233C37.8838 141.064 38.6927 140.21 39.8611 140.21C40.8048 140.21 41.389 140.75 41.389 141.649C41.389 142.817 40.5801 143.671 39.4117 143.671C38.5129 143.671 37.8838 143.087 37.8838 142.233ZM40.9396 141.693C40.9396 141.019 40.5352 140.615 39.8162 140.615C38.9623 140.615 38.3332 141.289 38.3332 142.188C38.3332 142.862 38.7376 143.221 39.4567 143.221C40.3105 143.266 40.9396 142.592 40.9396 141.693Z" fill="#E0E0E0"/>
<path d="M45.7931 140.255L45.2089 143.221C44.9842 144.434 44.355 144.929 43.2315 144.929C42.6024 144.929 42.0631 144.749 41.7036 144.434L41.9732 144.075C42.2429 144.344 42.6923 144.524 43.2315 144.524C44.0854 144.524 44.5348 144.12 44.7145 143.311L44.8044 142.951C44.4898 143.311 44.0404 143.535 43.4562 143.535C42.5575 143.535 41.9732 142.996 41.9732 142.187C41.9732 141.109 42.7821 140.255 43.9056 140.255C44.5348 140.255 45.0291 140.525 45.2089 141.019L45.3437 140.255H45.7931ZM45.0291 141.603C45.0291 140.974 44.6246 140.614 43.9056 140.614C43.0518 140.614 42.4226 141.244 42.4226 142.097C42.4226 142.727 42.8271 143.086 43.5461 143.086C44.4 143.086 45.0291 142.457 45.0291 141.603Z" fill="#E0E0E0"/>
<path d="M48.8037 140.21L48.7138 140.66C48.6688 140.66 48.6239 140.66 48.579 140.66C47.8599 140.66 47.3656 141.064 47.1859 141.918L46.8263 143.626H46.377L47.051 140.21H47.5004L47.3656 140.84C47.6802 140.39 48.1296 140.21 48.8037 140.21Z" fill="#E0E0E0"/>
<path d="M52.6689 140.255L51.9949 143.67H51.5455L51.6353 143.131C51.3208 143.49 50.8714 143.715 50.3321 143.715C49.4783 143.715 48.8491 143.176 48.8491 142.277C48.8491 141.109 49.658 140.255 50.7815 140.255C51.4106 140.255 51.86 140.525 52.0847 140.974L52.2195 140.255H52.6689ZM51.905 141.693C51.905 141.019 51.5005 140.614 50.7815 140.614C49.9277 140.614 49.2985 141.288 49.2985 142.187C49.2985 142.861 49.703 143.221 50.422 143.221C51.3208 143.266 51.905 142.592 51.905 141.693Z" fill="#E0E0E0"/>
<path d="M57.1173 141.648C57.1173 142.816 56.3084 143.67 55.1849 143.67C54.5558 143.67 54.1064 143.401 53.8817 142.906L53.4772 144.884H53.0278L53.9716 140.21H54.4209L54.3311 140.749C54.6456 140.39 55.095 140.165 55.6343 140.165C56.4881 140.21 57.1173 140.749 57.1173 141.648ZM56.623 141.693C56.623 141.019 56.2185 140.614 55.4995 140.614C54.6456 140.614 54.0165 141.289 54.0165 142.187C54.0165 142.861 54.4209 143.221 55.14 143.221C55.9938 143.266 56.623 142.592 56.623 141.693Z" fill="#E0E0E0"/>
<path d="M61.2069 141.333C61.2069 141.468 61.2069 141.603 61.162 141.738L60.7575 143.67H60.3081L60.7126 141.738C60.7126 141.648 60.7575 141.513 60.7575 141.423C60.7575 140.929 60.4879 140.659 59.8587 140.659C59.1397 140.659 58.6454 141.064 58.4656 141.828L58.1061 143.67H57.6567L58.6005 138.862H59.0498L58.6903 140.749C59.0049 140.39 59.4543 140.21 59.9936 140.21C60.7575 140.21 61.2069 140.614 61.2069 141.333Z" fill="#E0E0E0"/>
<path d="M65.5212 140.255L63.0496 144.075C62.6451 144.704 62.3306 144.929 61.8362 144.929C61.5217 144.929 61.2071 144.839 61.0273 144.614L61.252 144.3C61.3869 144.435 61.6116 144.525 61.8362 144.525C62.1059 144.525 62.3306 144.39 62.6002 143.985L62.8249 143.626L61.9711 140.255H62.4204L63.1395 143.131L64.982 140.255H65.5212Z" fill="#E0E0E0"/>
<path d="M75.7216 0.584961H21.3454H6.83008L18.0648 8.67399V24.6273C18.0648 26.4698 19.5478 27.9528 21.3903 27.9528H75.7666C77.6091 27.9528 79.0921 26.4698 79.0921 24.6273V3.91045C79.0921 2.06795 77.5641 0.584961 75.7216 0.584961Z" fill="#F5F5F5"/>
<path d="M72.8459 11.8194C72.8459 11.8643 62.465 11.9542 49.6124 11.9542C36.8048 11.9542 26.3789 11.9093 26.3789 11.8194C26.3789 11.7744 36.7598 11.6846 49.6124 11.6846C62.465 11.7295 72.8459 11.7744 72.8459 11.8194Z" fill="#E0E0E0"/>
<path d="M72.8459 17.9747C72.8459 18.0196 62.465 18.1095 49.6124 18.1095C36.8048 18.1095 26.3789 18.0645 26.3789 17.9747C26.3789 17.9297 36.7598 17.8398 49.6124 17.8398C62.465 17.8398 72.8459 17.8848 72.8459 17.9747Z" fill="#E0E0E0"/>
<path d="M314.798 180.115C314.798 180.16 244.334 180.25 157.377 180.25C70.4644 180.25 0 180.205 0 180.115C0 180.025 70.4644 179.98 157.421 179.98C244.334 180.025 314.798 180.07 314.798 180.115Z" fill="#263238"/>
<path d="M285.227 157.197C285.227 157.197 273.318 143.49 268.824 129.784C264.331 116.078 266.443 117.651 266.443 117.651C266.443 117.651 272.509 130.952 277.138 137.424C281.767 143.805 289.946 153.242 289.946 153.242L285.227 157.197Z" fill="#455A64"/>
<path d="M287.609 119.763C287.205 119.089 286.216 119.448 286.306 120.212C287.025 125.021 288.598 136.345 288.553 143.67C288.463 153.198 288.553 156.883 288.553 156.883H293.496C293.496 156.883 292.598 137.199 291.474 131.177C290.71 126.953 289.047 122.324 287.609 119.763Z" fill="#455A64"/>
<path d="M290.306 155.265C290.306 155.265 293.406 148.704 294.395 140.48C294.8 136.974 294.081 132.256 293.002 125.919C292.463 122.864 292.373 120.527 292.373 118.909C292.373 117.696 293.991 117.291 294.575 118.37C295.159 119.448 296.912 123.088 297.361 125.38C298.574 131.627 299.923 134.728 298.889 140.659C297.855 146.591 293.991 155.714 293.991 155.714L290.306 155.265Z" fill="#455A64"/>
<path d="M294.8 155.67C294.8 155.67 307.877 127.583 308.776 123.404C309.675 119.224 312.775 109.608 313.135 110.147C313.494 110.686 314.034 115.764 311.697 121.561C309.36 127.358 299.294 156.524 299.294 156.524H294.8" fill="#455A64"/>
<path d="M288.868 154.41C288.868 154.41 288.733 154.321 288.508 154.141C288.283 153.961 287.924 153.736 287.474 153.377C286.621 152.703 285.362 151.669 283.969 150.276C281.093 147.535 277.543 143.31 274.487 138.098C271.386 132.885 269.319 127.806 268.016 124.077C267.342 122.189 266.892 120.661 266.578 119.628C266.398 119.088 266.308 118.684 266.218 118.414C266.128 118.145 266.128 117.965 266.128 117.965C266.128 117.965 266.173 118.1 266.263 118.369C266.353 118.684 266.488 119.088 266.668 119.583C267.027 120.616 267.522 122.144 268.196 123.987C269.544 127.672 271.656 132.75 274.712 137.963C277.768 143.131 281.273 147.355 284.104 150.141C285.497 151.534 286.711 152.613 287.564 153.287C287.969 153.646 288.328 153.916 288.553 154.096C288.778 154.321 288.868 154.41 288.868 154.41Z" fill="#263238"/>
<path d="M290.306 140.929C290.306 140.929 290.261 140.614 290.171 140.12C290.126 139.536 290.036 138.772 289.946 137.873C289.722 135.986 289.407 133.334 288.958 130.458C288.508 127.582 287.969 124.975 287.564 123.133C287.385 122.234 287.205 121.47 287.07 120.931C286.98 120.392 286.89 120.122 286.935 120.122C286.935 120.122 287.025 120.392 287.205 120.931C287.34 121.425 287.564 122.189 287.789 123.133C288.239 124.975 288.778 127.582 289.272 130.458C289.722 133.334 290.036 135.986 290.171 137.873C290.261 138.817 290.306 139.581 290.306 140.12C290.306 140.614 290.351 140.929 290.306 140.929Z" fill="#263238"/>
<path d="M293.361 118.1C293.361 118.1 293.406 118.234 293.496 118.459C293.586 118.729 293.721 119.088 293.901 119.493C294.08 119.942 294.26 120.526 294.44 121.155C294.62 121.83 294.889 122.549 295.069 123.402C295.159 123.807 295.294 124.256 295.384 124.706C295.473 125.155 295.563 125.649 295.653 126.144C295.878 127.132 296.013 128.211 296.148 129.379C296.417 131.671 296.552 134.188 296.462 136.839C296.372 139.491 296.058 142.007 295.608 144.254C295.384 145.378 295.159 146.456 294.889 147.445C294.754 147.939 294.62 148.433 294.485 148.883C294.35 149.332 294.215 149.782 294.08 150.186C293.811 150.995 293.541 151.759 293.271 152.388C293.047 153.017 292.777 153.557 292.597 154.006C292.418 154.41 292.238 154.77 292.148 155.04C292.058 155.264 291.968 155.399 291.968 155.399C291.968 155.399 292.013 155.264 292.103 155.04C292.193 154.77 292.328 154.455 292.508 154.006C292.687 153.557 292.912 153.017 293.137 152.343C293.361 151.714 293.676 150.95 293.901 150.141C294.035 149.737 294.17 149.287 294.305 148.838C294.44 148.389 294.53 147.894 294.665 147.4C294.934 146.411 295.159 145.378 295.384 144.254C295.788 142.007 296.103 139.536 296.193 136.884C296.282 134.233 296.148 131.761 295.923 129.469C295.788 128.346 295.653 127.267 295.429 126.279C295.339 125.784 295.249 125.29 295.159 124.84C295.069 124.391 294.934 123.942 294.844 123.537C294.665 122.683 294.44 121.964 294.26 121.29C294.08 120.616 293.901 120.077 293.766 119.628C293.631 119.178 293.496 118.819 293.406 118.549C293.406 118.234 293.361 118.1 293.361 118.1Z" fill="#263238"/>
<path d="M312.954 110.73C312.954 110.73 312.954 110.775 312.954 110.865C312.954 110.955 312.909 111.09 312.909 111.225C312.865 111.539 312.775 112.034 312.64 112.618C312.37 113.831 311.966 115.584 311.292 117.696C310.663 119.808 309.764 122.28 308.685 125.021C307.652 127.762 306.393 130.728 305.225 133.874C304.056 137.02 303.158 140.121 302.304 142.907C301.45 145.693 300.641 148.21 299.877 150.277C299.113 152.344 298.349 153.962 297.81 155.085C297.54 155.625 297.316 156.074 297.136 156.344C297.046 156.478 297.001 156.568 296.956 156.658C296.911 156.748 296.911 156.748 296.866 156.748C296.866 156.748 296.866 156.703 296.911 156.613C296.956 156.523 297.001 156.433 297.091 156.299C297.226 155.984 297.45 155.58 297.72 155.04C298.259 153.917 298.933 152.299 299.697 150.232C300.461 148.165 301.225 145.648 302.079 142.862C302.933 140.076 303.832 136.975 305 133.829C306.169 130.683 307.382 127.717 308.461 124.976C309.539 122.28 310.438 119.808 311.112 117.696C311.786 115.584 312.235 113.876 312.505 112.663C312.64 112.079 312.73 111.584 312.82 111.27C312.865 111.135 312.865 111 312.909 110.91C312.954 110.775 312.954 110.73 312.954 110.73Z" fill="#263238"/>
<path d="M272.644 104.529C271.835 103.72 270.442 104.574 270.802 105.697C271.161 106.821 271.656 108.259 272.465 109.922C274.262 113.742 279.565 127.448 282.037 134.998C284.508 142.547 288.013 156.568 288.013 156.568L293.271 155.715C293.271 155.715 288.463 132.616 283.699 124.302C279.879 117.606 276.06 107.944 272.644 104.529Z" fill="#455A64"/>
<path d="M283.43 139.671C283.43 139.671 283.565 139.896 283.7 140.301C283.835 140.705 284.059 141.334 284.329 142.053C284.823 143.581 285.408 145.648 285.992 147.985C286.576 150.322 287.07 152.434 287.43 154.007C287.61 154.726 287.699 155.355 287.834 155.849C287.924 156.299 287.969 156.524 287.924 156.524C287.924 156.524 287.834 156.299 287.699 155.849C287.565 155.355 287.43 154.771 287.205 154.052C286.801 152.479 286.261 150.367 285.677 148.075C285.093 145.738 284.509 143.626 284.059 142.098C283.835 141.379 283.655 140.795 283.52 140.301C283.475 139.896 283.385 139.671 283.43 139.671Z" fill="#263238"/>
<path d="M290.576 156.074C290.576 156.074 290.576 156.029 290.531 155.94C290.531 155.85 290.486 155.715 290.486 155.535C290.441 155.176 290.396 154.636 290.261 153.917C290.081 152.524 289.722 150.547 289.138 148.075C288.553 145.649 287.745 142.772 286.666 139.627C285.587 136.481 284.239 133.111 282.666 129.605C279.566 122.64 276.465 116.438 274.398 111.854C273.364 109.563 272.555 107.72 272.061 106.417C271.791 105.788 271.611 105.248 271.477 104.934C271.432 104.754 271.387 104.664 271.342 104.529C271.297 104.439 271.297 104.395 271.297 104.395C271.297 104.395 271.342 104.439 271.387 104.529C271.432 104.619 271.477 104.754 271.566 104.934C271.701 105.293 271.926 105.788 272.196 106.417C272.735 107.72 273.589 109.563 274.622 111.809C276.69 116.348 279.835 122.55 282.936 129.56C284.464 133.066 285.812 136.436 286.891 139.582C287.969 142.728 288.778 145.604 289.317 148.075C289.857 150.547 290.171 152.524 290.351 153.917C290.441 154.591 290.486 155.176 290.531 155.535C290.531 155.715 290.576 155.85 290.576 155.94C290.576 156.029 290.576 156.074 290.576 156.074Z" fill="#263238"/>
<path d="M293.227 155.669C293.227 155.669 293.137 155.355 293.047 154.77C292.957 154.141 292.822 153.332 292.643 152.344C292.283 150.276 291.744 147.49 290.935 144.434C290.126 141.379 289.272 138.637 288.553 136.66C288.238 135.716 287.924 134.952 287.744 134.323C287.564 133.784 287.43 133.469 287.475 133.469C287.475 133.469 287.609 133.739 287.879 134.278C288.104 134.817 288.418 135.581 288.778 136.57C289.497 138.502 290.44 141.244 291.249 144.344C292.058 147.4 292.598 150.276 292.912 152.299C293.047 153.332 293.182 154.141 293.227 154.725C293.227 155.355 293.227 155.669 293.227 155.669Z" fill="#263238"/>
<path d="M304.057 154.905H283.43V180.026H304.057V154.905Z" fill="#663AA3"/>
<g opacity="0.3">
<path opacity="0.3" d="M304.057 154.905H283.43V180.026H304.057V154.905Z" fill="black"/>
</g>
<path d="M297.496 154.905H279.206V180.026H297.496V154.905Z" fill="#663AA3"/>
<path d="M29.5691 146.187C26.0638 143.94 21.2104 143.895 17.7951 146.277C14.5594 148.524 12.8967 152.658 13.0315 156.613C13.1663 160.567 15.0987 165.421 18.6938 167.488L29.2096 167.443C32.58 164.971 34.827 161.017 35.0067 156.838C35.1415 152.658 33.0743 148.434 29.5691 146.187Z" fill="#455A64"/>
<path d="M24.4013 167.893C24.3563 167.893 24.3563 167.578 24.3563 166.994C24.3563 166.365 24.3114 165.511 24.2665 164.522C24.2215 162.455 24.1316 159.579 23.9968 156.388C23.862 153.198 23.6822 150.321 23.5474 148.254C23.5025 147.266 23.4575 146.457 23.4126 145.783C23.3677 145.198 23.3677 144.884 23.4126 144.884C23.4575 144.884 23.5025 145.198 23.5474 145.783C23.6373 146.367 23.7272 147.221 23.8171 148.254C23.9968 150.321 24.2215 153.198 24.3563 156.388C24.4911 159.579 24.5361 162.455 24.5361 164.522C24.5361 165.556 24.5361 166.41 24.4911 166.994C24.4462 167.533 24.4013 167.893 24.4013 167.893Z" fill="#263238"/>
<path d="M14.0654 155.715C14.0654 155.805 13.4812 155.849 12.8071 155.76C12.0881 155.715 11.5488 155.58 11.5488 155.49C11.5488 155.4 12.133 155.355 12.8071 155.445C13.5261 155.535 14.1104 155.625 14.0654 155.715Z" fill="#263238"/>
<path d="M14.2898 152.163C14.2449 152.253 13.7506 152.118 13.2113 151.849C12.6271 151.579 12.2226 151.31 12.2676 151.22C12.3125 151.13 12.8068 151.265 13.3461 151.534C13.8854 151.804 14.3348 152.118 14.2898 152.163Z" fill="#263238"/>
<path d="M16.0872 149.557C16.0423 149.647 15.503 149.377 14.9188 148.883C14.3346 148.389 13.9751 147.894 14.065 147.85C14.1549 147.805 14.6043 148.164 15.1435 148.613C15.6828 149.108 16.1771 149.467 16.0872 149.557Z" fill="#263238"/>
<path d="M17.9303 147.04C17.8405 147.085 17.5708 146.681 17.3461 146.097C17.1214 145.557 16.9866 145.063 17.0765 145.018C17.1664 144.973 17.436 145.378 17.6607 145.962C17.8854 146.546 18.0202 147.04 17.9303 147.04Z" fill="#263238"/>
<path d="M20.8069 145.289C20.717 145.334 20.4474 144.884 20.2676 144.255C20.0879 143.626 20.043 143.132 20.1328 143.087C20.2227 143.087 20.4025 143.536 20.5822 144.121C20.762 144.795 20.8968 145.244 20.8069 145.289Z" fill="#263238"/>
<path d="M25.6145 143.311C25.7044 143.356 25.6594 143.716 25.4797 144.165C25.3449 144.615 25.1202 144.929 25.0303 144.884C24.9404 144.839 24.9854 144.48 25.1651 144.03C25.3449 143.626 25.5246 143.266 25.6145 143.311Z" fill="#263238"/>
<path d="M29.2103 144.839C29.2552 144.929 29.0305 145.243 28.716 145.558C28.3565 145.872 28.0419 146.097 27.9969 146.007C27.952 145.917 28.1767 145.603 28.4913 145.288C28.8058 144.974 29.1204 144.794 29.2103 144.839Z" fill="#263238"/>
<path d="M32.355 146.862C32.4 146.952 32.1303 147.221 31.7259 147.491C31.3214 147.761 30.9619 147.895 30.917 147.85C30.8721 147.761 31.1417 147.491 31.5461 147.221C31.9056 146.952 32.2652 146.772 32.355 146.862Z" fill="#263238"/>
<path d="M34.5576 149.872C34.6026 149.962 34.1532 150.232 33.569 150.457C32.9848 150.681 32.4904 150.816 32.4455 150.771C32.4005 150.681 32.8499 150.412 33.4341 150.187C34.0184 149.917 34.5127 149.827 34.5576 149.872Z" fill="#263238"/>
<path d="M35.4568 153.197C35.4568 153.287 35.0074 153.422 34.4682 153.512C33.884 153.602 33.4346 153.557 33.4346 153.467C33.4346 153.377 33.884 153.242 34.4232 153.153C34.9625 153.063 35.4119 153.108 35.4568 153.197Z" fill="#263238"/>
<path d="M35.9052 157.243C35.8603 157.333 35.4109 157.198 34.8267 156.973C34.2874 156.748 33.838 156.479 33.883 156.389C33.9279 156.299 34.3773 156.434 34.9615 156.659C35.5008 156.883 35.9502 157.153 35.9052 157.243Z" fill="#263238"/>
<path d="M35.5017 160.747C35.4567 160.837 34.8725 160.702 34.2434 160.253C33.6142 159.848 33.2547 159.354 33.2997 159.309C33.3895 159.264 33.8389 159.624 34.4231 159.983C35.0074 160.343 35.5466 160.657 35.5017 160.747Z" fill="#263238"/>
<path d="M33.7034 163.893C33.6584 163.983 33.1641 163.669 32.7147 163.174C32.2653 162.68 31.9957 162.186 32.0856 162.141C32.1755 162.096 32.535 162.5 32.9844 162.95C33.3888 163.444 33.7483 163.803 33.7034 163.893Z" fill="#263238"/>
<path d="M16.492 164.252C16.537 164.342 16.0426 164.702 15.3686 165.016C14.6945 165.376 14.1103 165.556 14.1103 165.511C14.0653 165.421 14.5596 165.061 15.2337 164.747C15.8629 164.387 16.4471 164.207 16.492 164.252Z" fill="#263238"/>
<path d="M14.9187 161.421C14.9636 161.511 14.5592 161.78 14.0199 162.005C13.4807 162.23 13.0313 162.364 12.9863 162.275C12.9414 162.185 13.3458 161.915 13.8851 161.69C14.3794 161.466 14.8738 161.331 14.9187 161.421Z" fill="#263238"/>
<path d="M13.7504 158.86C13.7504 158.95 13.2561 159.085 12.6269 159.175C11.9978 159.265 11.5034 159.265 11.4585 159.175C11.4585 159.085 11.9528 158.95 12.582 158.86C13.2111 158.77 13.7504 158.77 13.7504 158.86Z" fill="#263238"/>
<path d="M17.5253 157.467C17.5702 157.557 17.0759 157.781 16.4018 157.871C15.7727 157.961 15.2334 157.826 15.2334 157.736C15.2334 157.646 15.7277 157.601 16.3569 157.512C16.986 157.467 17.5253 157.377 17.5253 157.467Z" fill="#263238"/>
<path d="M20.6721 154.321C20.717 154.411 20.3126 154.591 19.7733 154.636C19.234 154.68 18.8296 154.591 18.8296 154.501C18.8296 154.411 19.234 154.366 19.7284 154.321C20.2676 154.276 20.6721 154.231 20.6721 154.321Z" fill="#263238"/>
<path d="M21.3013 151.805C21.2564 151.895 20.8519 151.85 20.3576 151.67C19.8633 151.49 19.5038 151.311 19.5487 151.221C19.5937 151.131 19.9981 151.176 20.4924 151.356C20.9418 151.535 21.3013 151.715 21.3013 151.805Z" fill="#263238"/>
<path d="M22.4231 149.288C22.3782 149.333 22.0636 149.153 21.8838 148.793C21.6591 148.434 21.6591 148.074 21.749 148.074C21.8389 148.029 21.9737 148.299 22.1984 148.614C22.3332 148.928 22.513 149.198 22.4231 149.288Z" fill="#263238"/>
<path d="M21.0304 159.669C21.0304 159.758 20.6709 159.938 20.2215 160.028C19.9518 160.073 19.6822 160.118 19.5474 160.118L19.5024 159.938C19.6373 159.938 19.6822 159.938 19.7271 159.938C19.7271 159.983 19.6822 160.028 19.5923 160.118L19.5474 159.938C19.6822 159.848 19.9069 159.759 20.1765 159.714C20.6259 159.624 21.0304 159.579 21.0304 159.669Z" fill="#263238"/>
<path d="M21.7053 164.118C21.7503 164.208 21.256 164.478 20.6717 164.702C20.0875 164.927 19.5483 165.062 19.5033 164.972C19.4584 164.882 19.9527 164.612 20.5369 164.388C21.1661 164.163 21.6604 164.028 21.7053 164.118Z" fill="#263238"/>
<path d="M18.1543 162.141C18.1992 162.23 17.8846 162.41 17.4802 162.545C17.0757 162.68 16.7162 162.725 16.6713 162.635C16.6263 162.545 16.9409 162.365 17.3454 162.23C17.7498 162.096 18.1093 162.051 18.1543 162.141Z" fill="#263238"/>
<path d="M18.4243 153.108C18.4243 153.198 17.8851 153.153 17.2559 152.928C16.6268 152.704 16.1774 152.434 16.2223 152.344C16.2673 152.254 16.7616 152.434 17.3458 152.614C17.93 152.794 18.4243 153.018 18.4243 153.108Z" fill="#263238"/>
<path d="M27.0078 152.12C27.0527 152.209 26.7382 152.479 26.3337 152.749C25.9293 153.018 25.5248 153.198 25.4799 153.108C25.4349 153.018 25.7495 152.749 26.154 152.479C26.6033 152.209 26.9629 152.03 27.0078 152.12Z" fill="#263238"/>
<path d="M27.502 156.568C27.502 156.658 27.1875 156.793 26.783 156.882C26.3786 156.972 26.019 156.972 26.019 156.882C26.019 156.793 26.3336 156.658 26.7381 156.568C27.1425 156.478 27.4571 156.478 27.502 156.568Z" fill="#263238"/>
<path d="M28.0413 161.601C27.9963 161.691 27.5469 161.556 27.0077 161.331C26.4684 161.106 26.1089 160.837 26.1089 160.747C26.1538 160.657 26.6032 160.792 27.1425 161.017C27.6818 161.241 28.0862 161.511 28.0413 161.601Z" fill="#263238"/>
<path d="M26.8732 166.5C26.7833 166.545 26.5136 166.32 26.1991 165.961C25.8845 165.601 25.7047 165.286 25.7946 165.197C25.8845 165.152 26.1541 165.376 26.4687 165.736C26.7833 166.095 26.963 166.455 26.8732 166.5Z" fill="#263238"/>
<path d="M26.6479 148.793C26.6929 148.883 26.5131 149.108 26.1536 149.287C25.839 149.467 25.5245 149.467 25.4795 149.377C25.4346 149.287 25.7042 149.152 26.0188 148.973C26.3334 148.838 26.603 148.748 26.6479 148.793Z" fill="#263238"/>
<path d="M30.8734 153.332C30.9184 153.422 30.5139 153.647 29.9747 153.692C29.4354 153.782 28.986 153.647 29.0309 153.557C29.0309 153.467 29.4354 153.422 29.9297 153.332C30.424 153.287 30.8285 153.242 30.8734 153.332Z" fill="#263238"/>
<path d="M30.0188 149.288C30.0637 149.378 29.6593 149.648 29.12 149.828C28.5808 150.007 28.0864 150.007 28.0864 149.918C28.0864 149.828 28.4909 149.693 29.0301 149.513C29.5694 149.333 29.9739 149.198 30.0188 149.288Z" fill="#263238"/>
<path d="M31.7711 159.579C31.7711 159.669 31.097 159.714 30.2881 159.579C29.4792 159.444 28.895 159.13 28.9399 159.085C28.9849 158.995 29.614 159.13 30.378 159.265C31.1419 159.399 31.7711 159.489 31.7711 159.579Z" fill="#263238"/>
<path d="M30.1979 165.466C30.153 165.556 29.6586 165.242 29.1643 164.747C28.67 164.253 28.4003 163.759 28.4453 163.714C28.5352 163.669 28.8947 164.028 29.389 164.523C29.8833 165.017 30.2878 165.377 30.1979 165.466Z" fill="#263238"/>
<path d="M23.3226 144.479C23.3675 144.569 21.9744 145.108 20.4015 146.816C18.7837 148.479 17.121 151.4 16.7165 154.905C16.5368 156.657 16.6716 158.365 16.9412 159.848C17.2109 161.376 17.5704 162.724 17.8849 163.848C18.1995 164.971 18.5141 165.87 18.6938 166.499C18.8736 167.128 19.0084 167.488 18.9635 167.488C18.9635 167.488 18.7837 167.173 18.559 166.544C18.3343 165.915 17.9748 165.061 17.6602 163.938C17.3007 162.814 16.9412 161.466 16.6716 159.938C16.4019 158.41 16.2222 156.702 16.4019 154.86C16.8064 151.265 18.559 148.254 20.2218 146.636C21.0756 145.782 21.8396 145.243 22.4238 144.928C22.6934 144.749 22.963 144.659 23.0979 144.569C23.2327 144.524 23.3226 144.479 23.3226 144.479Z" fill="#263238"/>
<path d="M27.9076 167.713C27.8177 167.668 28.6716 166.41 29.4355 164.118C30.1995 161.871 30.8736 158.501 30.3343 154.861C30.1096 153.063 29.5703 151.356 28.8963 149.918C28.2222 148.48 27.3234 147.311 26.4695 146.502C25.5708 145.693 24.672 145.244 24.0878 144.974C23.4586 144.705 23.0991 144.66 23.0991 144.615C23.0991 144.615 23.189 144.615 23.3688 144.615C23.5485 144.66 23.8181 144.705 24.1327 144.839C24.7619 145.064 25.7056 145.514 26.6493 146.277C27.5481 147.086 28.4918 148.255 29.2108 149.738C29.8849 151.221 30.4691 152.928 30.6938 154.771C31.2331 158.501 30.5141 161.916 29.7052 164.163C29.5254 164.747 29.2558 165.242 29.076 165.691C28.8513 166.141 28.6716 166.5 28.5367 166.815C28.1323 167.399 27.9076 167.713 27.9076 167.713Z" fill="#263238"/>
<path d="M14.9199 166.904H33.3899L33.5247 170.634H14.9199V166.904Z" fill="#663AA3"/>
<path d="M16.4927 168.747L17.5263 180.071H31.0529L32.1315 168.881L16.4927 168.747Z" fill="#663AA3"/>
<path d="M33.5247 170.679C33.5247 170.769 29.3454 170.859 24.2223 170.859C19.0993 170.859 14.9199 170.769 14.9199 170.679C14.9199 170.589 19.0993 170.499 24.2223 170.499C29.3454 170.499 33.5247 170.589 33.5247 170.679Z" fill="#263238"/>
<path d="M31.6368 174.094C31.6368 174.094 31.5469 174.364 31.2324 174.813C30.9627 175.263 30.4684 175.847 29.7943 176.521L29.7044 176.611L29.6146 176.521C28.7158 175.577 27.5024 174.454 25.9745 173.33H26.1992C25.7049 173.78 25.1656 174.274 24.5814 174.723C23.9073 175.308 23.2781 175.847 22.6939 176.386L22.6041 176.476L22.5142 176.386C21.3458 175.397 20.3122 174.544 19.4134 173.78H19.5931C18.964 174.544 18.4247 175.218 17.9753 175.712C17.5709 176.161 17.3462 176.431 17.3462 176.386C17.3462 176.386 17.5259 176.116 17.8405 175.622C18.245 175.083 18.7393 174.409 19.3684 173.6L19.4583 173.51L19.5482 173.6C20.447 174.319 21.5255 175.173 22.6939 176.161H22.4692C23.0535 175.622 23.7275 175.083 24.3567 174.499C24.896 174.004 25.4352 173.555 25.9745 173.106L26.0644 173.016L26.1542 173.106C27.6822 174.229 28.8955 175.397 29.7494 176.386H29.5696C31.0077 175.083 31.5919 174.049 31.6368 174.094Z" fill="#263238"/>
<path d="M253.995 176.974H58.1055C54.5104 176.974 51.5444 174.053 51.5444 170.413V45.3023C51.5444 41.7072 54.4655 38.7412 58.1055 38.7412H253.995C257.59 38.7412 260.556 41.6623 260.556 45.3023V170.413C260.556 174.053 257.635 176.974 253.995 176.974Z" fill="#455A64"/>
<path d="M263.161 180.118H52.7116C48.3075 180.118 44.7124 176.523 44.7124 172.119V168.03H271.16V172.119C271.16 176.568 267.565 180.118 263.161 180.118Z" fill="#455A64"/>
<path d="M135.445 166.728L138.276 171.221H177.778L180.429 166.728H135.445Z" fill="#263238"/>
<path d="M258.758 166.727C258.758 166.816 212.381 166.861 155.174 166.861C97.9664 166.861 51.5894 166.816 51.5894 166.727C51.5894 166.637 97.9664 166.592 155.174 166.592C212.381 166.592 258.758 166.682 258.758 166.727Z" fill="#263238"/>
<path d="M252.287 163.084H59.004C58.1951 163.084 57.521 162.409 57.521 161.601V48.1744C57.521 47.3655 58.1951 46.6914 59.004 46.6914H252.287C253.096 46.6914 253.77 47.3655 253.77 48.1744V161.601C253.725 162.454 253.096 163.084 252.287 163.084Z" fill="#EBEBEB"/>
<path d="M253.544 163.262H57.3403L57.5201 55.4082H253.544V163.262Z" fill="white"/>
<path d="M73.654 51.1871C73.654 52.041 72.935 52.76 72.0812 52.76C71.2273 52.76 70.5083 52.041 70.5083 51.1871C70.5083 50.3333 71.2273 49.6143 72.0812 49.6143C72.935 49.6143 73.654 50.3333 73.654 51.1871Z" fill="#263238"/>
<path d="M64.1277 51.1871C64.1277 52.041 63.4086 52.76 62.5548 52.76C61.701 52.76 60.9819 52.041 60.9819 51.1871C60.9819 50.3333 61.701 49.6143 62.5548 49.6143C63.4536 49.6592 64.1277 50.3333 64.1277 51.1871Z" fill="#263238"/>
<path d="M68.7102 51.1871C68.7102 52.041 67.9912 52.76 67.1373 52.76C66.2835 52.76 65.5645 52.041 65.5645 51.1871C65.5645 50.3333 66.2835 49.6143 67.1373 49.6143C67.9912 49.6592 68.7102 50.3333 68.7102 51.1871Z" fill="#263238"/>
<path d="M253.77 152.838H57.3418V163.264H253.77V152.838Z" fill="#263238"/>
<path d="M64.757 159.265V159.579H63.1841V159.31L64.038 158.501C64.2627 158.321 64.2627 158.186 64.2627 158.052C64.2627 157.872 64.1278 157.737 63.8582 157.737C63.6335 157.737 63.4987 157.827 63.3639 157.962L63.0942 157.737C63.274 157.512 63.5436 157.377 63.9031 157.377C64.3525 157.377 64.6671 157.602 64.6671 158.007C64.6671 158.231 64.6222 158.411 64.3076 158.681L63.7234 159.22H64.757V159.265Z" fill="white"/>
<path d="M64.9814 158.231C64.9814 158.096 65.0713 157.961 65.2511 157.961C65.3859 157.961 65.5207 158.051 65.5207 158.231C65.5207 158.366 65.4308 158.501 65.2511 158.501C65.0713 158.456 64.9814 158.366 64.9814 158.231ZM64.9814 159.355C64.9814 159.22 65.0713 159.085 65.2511 159.085C65.3859 159.085 65.5207 159.175 65.5207 159.355C65.5207 159.489 65.4308 159.624 65.2511 159.624C65.0713 159.624 64.9814 159.489 64.9814 159.355Z" fill="white"/>
<path d="M66.4647 157.467V159.579H66.0602V157.782H65.6108V157.467H66.4647Z" fill="white"/>
<path d="M68.7566 159.13H68.3971V159.624H68.0376V159.13H66.8691V158.86L67.9027 157.512H68.3072L67.3185 158.815H67.9926V158.366H68.3521V158.815H68.7116V159.13H68.7566Z" fill="white"/>
<path d="M233.188 158.276H72.2163V158.995H233.188V158.276Z" fill="white"/>
<path d="M122.414 157.467H72.127V159.444H122.414V157.467Z" fill="#FF725E"/>
<path d="M124.031 158.636C124.031 159.984 122.953 161.107 121.56 161.107C120.211 161.107 119.088 160.029 119.088 158.636C119.088 157.288 120.166 156.164 121.56 156.164C122.953 156.164 124.031 157.288 124.031 158.636Z" fill="#FF725E"/>
<path d="M237.277 158.59C237.277 158.995 236.918 159.264 236.514 159.264C235.929 159.264 235.615 158.905 235.615 158.231C235.615 157.512 236.019 157.107 236.648 157.107C236.873 157.107 237.053 157.152 237.188 157.242L237.053 157.557C236.918 157.467 236.783 157.467 236.648 157.467C236.244 157.467 235.974 157.737 235.974 158.186C236.109 158.051 236.289 157.961 236.558 157.961C236.963 157.961 237.277 158.231 237.277 158.59ZM236.873 158.635C236.873 158.411 236.693 158.276 236.469 158.276C236.199 158.276 236.019 158.411 236.019 158.635C236.019 158.815 236.199 158.995 236.469 158.995C236.738 158.995 236.873 158.86 236.873 158.635Z" fill="white"/>
<path d="M237.458 157.871C237.458 157.736 237.547 157.602 237.727 157.602C237.862 157.602 237.997 157.691 237.997 157.871C237.997 158.006 237.907 158.141 237.727 158.141C237.592 158.141 237.458 158.006 237.458 157.871ZM237.458 159.04C237.458 158.905 237.547 158.77 237.727 158.77C237.862 158.77 237.997 158.86 237.997 159.04C237.997 159.174 237.907 159.309 237.727 159.309C237.592 159.264 237.458 159.174 237.458 159.04Z" fill="white"/>
<path d="M238.221 158.186C238.221 157.467 238.581 157.107 239.12 157.107C239.614 157.107 240.019 157.512 240.019 158.186C240.019 158.905 239.659 159.264 239.12 159.264C238.581 159.309 238.221 158.905 238.221 158.186ZM239.569 158.186C239.569 157.692 239.39 157.422 239.075 157.422C238.805 157.422 238.581 157.647 238.581 158.186C238.581 158.68 238.76 158.95 239.075 158.95C239.39 158.95 239.569 158.725 239.569 158.186Z" fill="white"/>
<path d="M240.244 158.186C240.244 157.467 240.603 157.107 241.142 157.107C241.637 157.107 242.041 157.512 242.041 158.186C242.041 158.905 241.682 159.264 241.142 159.264C240.648 159.309 240.244 158.905 240.244 158.186ZM241.637 158.186C241.637 157.692 241.457 157.422 241.142 157.422C240.873 157.422 240.648 157.647 240.648 158.186C240.648 158.68 240.828 158.95 241.142 158.95C241.412 158.95 241.637 158.725 241.637 158.186Z" fill="white"/>
<path d="M245.456 158.051H244.737V155.939H246.849V156.703H245.456V158.051Z" fill="white"/>
<path d="M246.849 160.837H244.737V158.725H245.456V160.118H246.849V160.837Z" fill="white"/>
<path d="M250.221 160.837H248.108V160.118H249.457V158.725H250.221V160.837Z" fill="white"/>
<path d="M250.221 158.051H249.457V156.703H248.108V155.939H250.221V158.051Z" fill="white"/>
<path d="M84.2605 61.8359H72.6663L66.9141 71.8573L72.6663 81.8338H84.2605L90.0127 71.8573L84.2605 61.8359Z" fill="#EBEBEB"/>
<path d="M73.6099 73.7896C73.1156 73.2054 72.5763 72.6212 72.2168 71.9471C71.8573 71.273 71.6326 70.509 71.7225 69.7451C71.8123 69.2957 71.9921 68.8912 71.9921 68.4418C72.037 67.8127 71.7674 67.1835 71.9921 66.5993C72.3516 65.7005 73.565 65.5657 74.284 64.9366C74.8682 64.4423 75.1378 63.6783 75.767 63.2289C76.3062 62.8694 77.0253 62.8694 77.6993 62.9593C78.3734 63.0491 79.0026 63.2289 79.6767 63.139C80.1261 63.0941 80.5754 62.8694 81.0248 62.7795C81.4742 62.6447 81.9686 62.6447 82.4179 62.8694C82.8224 63.0941 83.0471 63.6783 82.7775 64.0827C83.5414 63.7232 84.4851 64.3074 84.7098 65.1163C84.9345 65.9252 84.4851 66.7791 83.856 67.3184C83.2268 67.8576 82.373 68.0823 81.5641 68.2621C79.2273 68.7115 76.7107 68.4418 74.7334 67.1835" fill="#263238"/>
<path d="M84.3504 76.2597C84.2605 74.8217 83.8561 71.9006 83.4966 69.2492C83.0921 66.3731 80.5306 64.3509 77.6545 64.5306H77.3848C74.329 64.9351 72.9359 67.7662 73.3853 70.8221L74.284 81.8322H81.7889L81.6091 79.8998C81.5642 79.8998 84.4852 79.2257 84.3504 76.2597Z" fill="#FFBE9D"/>
<path d="M81.5625 79.8558C81.5625 79.8558 79.72 80.1254 77.6079 79.002C77.6079 79.002 78.6865 81.0691 81.6075 80.6198L81.5625 79.8558Z" fill="#EB996E"/>
<path d="M82.5092 71.7667C82.5541 71.9914 82.3744 72.1712 82.1497 72.2161C81.925 72.2611 81.7003 72.0813 81.7003 71.8566C81.6554 71.6319 81.8351 71.4522 82.0598 71.4072C82.2845 71.4072 82.5092 71.542 82.5092 71.7667Z" fill="#263238"/>
<path d="M82.9133 70.7355C82.8684 70.7804 82.5089 70.5558 82.0595 70.6007C81.6101 70.6456 81.2955 70.8703 81.2506 70.8254C81.2056 70.7804 81.2506 70.6906 81.4303 70.6007C81.5652 70.4659 81.7898 70.376 82.1044 70.3311C82.3741 70.3311 82.6437 70.4209 82.7785 70.5108C82.9133 70.6007 82.9583 70.6906 82.9133 70.7355Z" fill="#263238"/>
<path d="M78.1938 72.0783C78.2387 72.303 78.0589 72.4827 77.8343 72.5276C77.6096 72.5726 77.3849 72.3928 77.3849 72.1681C77.3399 71.9434 77.5197 71.7637 77.7444 71.7188C77.9691 71.7188 78.1938 71.8536 78.1938 72.0783Z" fill="#263238"/>
<path d="M78.4661 71.1398C78.4211 71.1847 78.0616 71.005 77.6122 71.005C77.1628 71.0499 76.8483 71.2746 76.8033 71.2297C76.7584 71.1847 76.8033 71.0949 76.9831 71.005C77.1179 70.8702 77.3426 70.7803 77.6572 70.7354C77.9268 70.7354 78.1964 70.8252 78.3312 70.9151C78.4211 71.005 78.4661 71.0949 78.4661 71.1398Z" fill="#263238"/>
<path d="M80.3527 74.3696C80.3527 74.3247 80.6223 74.2797 81.0717 74.1898C81.2066 74.1898 81.2964 74.1449 81.2964 74.055C81.2964 73.9652 81.2515 73.8303 81.2066 73.6955C81.0717 73.4259 80.9369 73.1113 80.8021 72.8417C80.2179 71.6283 79.8134 70.5947 79.8584 70.5947C79.9033 70.5947 80.3977 71.5384 80.9819 72.7967C81.1167 73.1113 81.2515 73.3809 81.3863 73.6506C81.4313 73.7854 81.5211 73.9202 81.4762 74.1C81.4313 74.1898 81.3863 74.2797 81.2964 74.2797C81.2066 74.3247 81.1616 74.3247 81.1167 74.3247C80.6224 74.3696 80.3527 74.4145 80.3527 74.3696Z" fill="#263238"/>
<path d="M78.4612 69.3392C78.4163 69.474 77.9669 69.4291 77.4276 69.5189C76.8883 69.6088 76.4839 69.7886 76.394 69.6987C76.3491 69.6538 76.439 69.5189 76.5738 69.3841C76.7535 69.2493 77.0232 69.1145 77.3377 69.0696C77.6523 69.0246 77.9669 69.0246 78.1466 69.1145C78.3713 69.1594 78.4612 69.2493 78.4612 69.3392Z" fill="#263238"/>
<path d="M82.6869 69.426C82.597 69.5158 82.2824 69.426 81.9229 69.4709C81.5634 69.4709 81.2488 69.6057 81.1589 69.4709C81.114 69.426 81.1589 69.2911 81.2938 69.2013C81.4286 69.1114 81.6533 69.0215 81.9229 68.9766C82.1925 68.9766 82.4172 69.0664 82.552 69.1563C82.6419 69.2462 82.6869 69.381 82.6869 69.426Z" fill="#263238"/>
<path d="M73.7425 72.9781C73.6976 72.9781 71.6753 72.5287 71.8551 74.551C72.0348 76.5732 74.2368 75.8991 74.2368 75.8542C74.2368 75.8093 73.7425 72.9781 73.7425 72.9781Z" fill="#FFBE9D"/>
<path d="M73.3417 75.1842C73.3417 75.1842 73.2968 75.2291 73.2519 75.2291C73.2069 75.2741 73.117 75.2741 72.9822 75.2741C72.7575 75.2292 72.5328 74.9146 72.4879 74.5101C72.443 74.3304 72.4879 74.1506 72.5328 74.0158C72.5778 73.881 72.6677 73.7462 72.7575 73.7012C72.8474 73.6563 72.9373 73.7012 72.9822 73.7911C73.0272 73.836 73.0272 73.881 73.0272 73.881C73.0272 73.881 73.0721 73.836 73.0272 73.7462C73.0272 73.7012 72.9822 73.6563 72.9373 73.6113C72.8924 73.5664 72.8025 73.5664 72.7575 73.5664C72.6227 73.6113 72.4879 73.7462 72.398 73.9259C72.3531 74.1057 72.3081 74.2854 72.3531 74.5101C72.398 74.9146 72.6677 75.2741 72.9373 75.319C73.0721 75.364 73.2069 75.2741 73.2519 75.2291C73.3417 75.2291 73.3417 75.1842 73.3417 75.1842Z" fill="#EB996E"/>
<path d="M83.3172 66.4644C83.1824 67.2733 81.5646 67.9924 80.1714 67.9474C78.9131 67.9025 78.284 67.2733 77.3852 66.8689C76.801 66.5993 76.801 66.5993 76.0371 66.7341C75.4079 66.824 75.0933 67.5879 74.7338 68.1272C75.4079 69.6102 75.1383 71.3179 74.8686 72.8907C74.8237 73.0705 74.7788 73.2502 74.6439 73.3851C74.4193 73.5648 74.0597 73.4749 73.835 73.2502C73.4755 72.9357 73.2958 72.4413 73.2059 71.947C72.9363 70.8685 72.8464 69.745 73.0261 68.6665C73.2059 67.5879 73.6553 66.5094 74.3743 65.7005C75.318 64.6669 76.6662 64.0827 78.0593 64.0377C79.4524 63.9479 80.8455 64.3972 81.969 65.1612C82.5083 65.4758 83.0026 65.9252 83.3172 66.4644Z" fill="#263238"/>
<path d="M80.6201 75.4074C80.2606 75.2277 79.9461 75.0929 79.5865 74.9131C79.5416 74.8682 79.4517 74.8682 79.4068 74.8682C79.3169 74.8682 79.272 74.9131 79.227 75.003C79.0023 75.2726 78.9125 75.722 79.0922 76.0366C79.272 76.3511 79.7214 76.5309 80.0809 76.3961C80.4404 76.2613 80.6201 75.8568 80.6201 75.4074Z" fill="#EB996E"/>
<path d="M80.1258 76.4855C80.1258 76.4855 79.9011 76.6653 79.5416 76.5305C79.3619 76.4855 79.1372 76.3507 79.0024 76.0811C78.8675 75.8564 78.8226 75.5418 78.9125 75.2272C78.9574 75.0924 79.0473 74.9576 79.1821 74.8677C79.2271 74.8228 79.272 74.7779 79.3619 74.7329C79.4068 74.688 79.5866 74.688 79.6315 74.7329C79.8562 74.8677 80.036 74.9576 80.1708 75.0924C80.4853 75.2722 80.6651 75.4519 80.6202 75.4519C80.6202 75.4969 80.3955 75.407 80.0809 75.2272C79.9011 75.1374 79.7214 75.0475 79.5416 74.9576C79.4967 74.9576 79.4967 74.9576 79.4518 74.9576C79.4068 75.0026 79.3619 75.0026 79.3169 75.0475C79.2271 75.1374 79.1821 75.2272 79.1372 75.3621C79.0473 75.5868 79.0922 75.8115 79.1821 76.0362C79.272 76.2159 79.4518 76.3507 79.5866 76.4406C79.9011 76.5305 80.1258 76.4406 80.1258 76.4855Z" fill="#263238"/>
<path d="M79.8117 71.8568C79.7668 71.8568 79.8117 71.677 79.7218 71.3624C79.632 71.0479 79.4073 70.5985 78.9579 70.239C78.5085 69.8794 77.7445 69.6997 77.0255 69.9693C76.3065 70.194 75.7223 70.958 75.7223 71.8568C75.7223 72.7555 76.3065 73.4746 77.0255 73.7442C77.7445 74.0138 78.4636 73.8341 78.9579 73.4746C79.4073 73.115 79.632 72.6657 79.7218 72.3511C79.7668 72.0365 79.7668 71.8568 79.8117 71.8568C79.8117 71.8568 79.8117 71.9017 79.8117 71.9916C79.8117 72.0814 79.8117 72.2163 79.7668 72.396C79.7218 72.7106 79.4972 73.2049 79.0028 73.6094C78.5085 74.0138 77.6996 74.2385 76.9356 73.9689C76.1267 73.6993 75.4526 72.8904 75.4526 71.9017C75.4526 70.913 76.1267 70.0592 76.9356 69.8345C77.7445 69.5649 78.5534 69.7896 79.0028 70.194C79.4972 70.5985 79.7218 71.0928 79.7668 71.4074C79.8117 71.5871 79.8117 71.7219 79.8117 71.8118C79.8117 71.7669 79.8117 71.8568 79.8117 71.8568Z" fill="#263238"/>
<path d="M84.8449 71.6324C84.8 71.6324 84.8449 71.4527 84.755 71.1381C84.6651 70.8235 84.4404 70.3742 83.991 70.0596C83.5417 69.7001 82.8226 69.5203 82.1486 69.7899C81.4745 70.0146 80.8453 70.7786 80.8903 71.6324C80.8903 72.4863 81.4745 73.2053 82.1486 73.4749C82.8226 73.7446 83.5866 73.5648 83.991 73.2053C84.4404 72.8907 84.6651 72.4414 84.755 72.1268C84.8 71.8122 84.8 71.6324 84.8449 71.6324C84.8449 71.6324 84.8449 71.6774 84.8449 71.7673C84.8449 71.8571 84.8449 71.992 84.8 72.1268C84.755 72.4414 84.5303 72.9357 84.036 73.2952C83.5866 73.6996 82.7777 73.9243 82.0137 73.6098C81.2498 73.3401 80.5757 72.5312 80.5757 71.5875C80.5757 70.6438 81.2498 69.7899 82.0137 69.5653C82.7777 69.2956 83.5866 69.5203 84.036 69.8798C84.5303 70.2843 84.7101 70.7337 84.8 71.0482C84.8449 71.228 84.8449 71.3628 84.8449 71.4078C84.8449 71.5875 84.8449 71.6324 84.8449 71.6324Z" fill="#263238"/>
<path d="M80.7103 71.1827C80.6654 71.2277 80.4856 71.0929 80.216 71.0929C79.9463 71.0929 79.7666 71.2277 79.7216 71.1827C79.6767 71.1378 79.8564 70.8682 80.216 70.8682C80.5755 70.8682 80.8002 71.1378 80.7103 71.1827Z" fill="#263238"/>
<path d="M75.6775 71.542C75.7224 71.5869 75.318 71.9464 74.7787 72.3509C74.2394 72.7553 73.79 73.025 73.7451 72.98C73.7002 72.9351 74.1046 72.5756 74.6439 72.1711C75.1832 71.7667 75.6775 71.4971 75.6775 71.542Z" fill="#263238"/>
<path d="M117.425 71.7227C117.425 71.7676 112.212 71.8575 105.831 71.8575C99.4048 71.8575 94.2368 71.8126 94.2368 71.7227C94.2368 71.6328 99.4497 71.5879 105.831 71.5879C112.212 71.6328 117.425 71.6778 117.425 71.7227Z" fill="#263238"/>
<path d="M106.685 74.1495C106.685 74.1944 103.944 74.2843 100.529 74.2843C97.1134 74.2843 94.3721 74.2393 94.3721 74.1495C94.3721 74.0596 97.1134 74.0146 100.529 74.0146C103.899 74.0596 106.685 74.1045 106.685 74.1495Z" fill="#263238"/>
<path d="M187.498 89.7012C187.498 89.7012 193.655 92.7121 195.857 100.487C198.059 108.261 204.665 128.484 204.665 128.484C204.665 128.484 208.44 132.933 208.844 136.258C209.249 139.584 208.44 147.538 207.226 149.066C206.013 150.549 204.26 150.324 204.26 150.324L188.307 148.796L182.016 106.688L187.498 89.7012Z" fill="#663AA3"/>
<path d="M134.695 88.9377C134.695 88.9377 123.28 92.5328 120.449 95.6336L129.797 139.135L129.662 152.841H183.768C183.768 152.167 184.263 107.273 184.263 107.273L187.498 89.6567L168.264 86.2863L164.489 83.3203L143.098 84.3989L139.863 87.6345L134.695 88.9377Z" fill="#663AA3"/>
<g opacity="0.3">
<path opacity="0.3" d="M139.009 126.686C138.829 126.326 138.604 125.922 138.2 125.832C137.526 125.697 137.122 126.461 136.897 127.09C135.144 132.079 132.807 136.662 129.796 140.977L129.662 147.672C132.807 145.021 135.908 142.19 137.93 138.595C139.953 134.955 140.717 130.461 139.009 126.686Z" fill="black"/>
</g>
<path d="M120.404 95.6328C120.404 95.6328 116.629 100.756 115.102 104.126C113.529 107.452 100.586 135.584 99.8222 138.505C99.0583 141.426 97.036 150.548 102.968 152.66H115.102L127.325 127.989L127.954 99.3178L120.404 95.6328Z" fill="#663AA3"/>
<path d="M115.865 134.82C115.865 134.82 115.595 134.595 115.056 134.281C114.517 133.966 113.618 133.607 112.495 133.337C111.955 133.202 111.326 133.112 110.652 133.068C109.978 133.023 109.259 133.023 108.54 133.202C107.057 133.517 105.619 134.461 104.45 135.764C103.282 137.067 102.563 138.595 102.114 140.078C101.664 141.561 101.485 142.909 101.395 144.078C101.26 145.246 101.26 146.145 101.215 146.819C101.215 147.133 101.17 147.358 101.17 147.583C101.17 147.763 101.125 147.852 101.125 147.852C101.125 147.852 101.125 147.763 101.125 147.583C101.125 147.403 101.125 147.133 101.125 146.819C101.125 146.19 101.17 145.246 101.26 144.078C101.35 142.909 101.529 141.516 101.934 140.033C102.338 138.55 103.102 136.977 104.271 135.629C105.439 134.281 106.967 133.337 108.495 133.023C109.259 132.843 110.023 132.843 110.697 132.888C111.371 132.933 112 133.068 112.584 133.202C113.708 133.472 114.607 133.876 115.146 134.191C115.416 134.371 115.64 134.506 115.73 134.64C115.82 134.775 115.865 134.82 115.865 134.82Z" fill="#263238"/>
<path d="M110.113 129.921C110.113 129.921 110.248 129.876 110.518 129.876C110.787 129.832 111.192 129.832 111.641 129.876C112.136 129.876 112.675 129.966 113.304 130.101C113.933 130.236 114.562 130.461 115.236 130.775C115.91 131.09 116.495 131.449 116.989 131.854C117.483 132.258 117.888 132.618 118.202 132.977C118.517 133.337 118.742 133.651 118.921 133.876C119.056 134.101 119.146 134.236 119.146 134.236C119.101 134.281 118.787 133.786 118.112 133.112C117.798 132.753 117.348 132.393 116.854 132.034C116.36 131.674 115.776 131.315 115.146 131C114.517 130.685 113.843 130.461 113.259 130.326C112.675 130.191 112.091 130.056 111.641 130.056C110.697 129.921 110.113 129.966 110.113 129.921Z" fill="#263238"/>
<path d="M121.123 128.573C121.123 128.573 120.898 128.573 120.539 128.529C120.179 128.484 119.64 128.439 119.011 128.394C117.708 128.304 115.955 128.259 113.978 128.484C112 128.708 110.293 129.158 109.079 129.562C108.45 129.742 107.956 129.922 107.641 130.056C107.282 130.191 107.102 130.236 107.102 130.236C107.102 130.236 107.282 130.146 107.596 129.967C107.911 129.832 108.405 129.607 109.034 129.382C110.248 128.933 112 128.484 113.978 128.214C115.955 127.989 117.753 128.034 119.056 128.169C119.685 128.259 120.224 128.304 120.584 128.394C120.898 128.484 121.123 128.529 121.123 128.573Z" fill="#263238"/>
<path d="M155.727 104.531C155.727 104.531 155.682 104.486 155.592 104.396C155.502 104.261 155.412 104.126 155.277 103.947C154.963 103.542 154.558 102.958 154.064 102.239C153.03 100.756 151.547 98.6888 149.84 96.2621L150.02 96.2172C149.345 98.1496 148.626 100.262 147.862 102.509L147.818 102.643L147.683 102.554C147.593 102.509 147.503 102.464 147.413 102.374C146.424 101.745 145.526 100.981 144.762 100.127C143.998 99.273 143.369 98.4192 142.874 97.5204C141.841 95.7228 141.212 93.9702 140.807 92.4872C140.403 91.0043 140.178 89.746 139.998 88.8921C139.908 88.4877 139.863 88.1731 139.818 87.9035C139.818 87.8136 139.773 87.7237 139.773 87.6338C139.773 87.5889 139.729 87.5439 139.729 87.5439C139.773 87.5439 139.908 87.9933 140.088 88.8472C140.268 89.701 140.492 90.9144 140.942 92.3974C141.391 93.8804 142.02 95.588 143.054 97.3856C143.548 98.2394 144.177 99.1382 144.941 99.9471C145.705 100.756 146.559 101.52 147.548 102.149C147.638 102.194 147.728 102.239 147.818 102.329L147.638 102.374C148.402 100.127 149.121 98.0147 149.795 96.0824L149.885 95.9026L150.02 96.0824C151.727 98.554 153.165 100.621 154.199 102.104C154.693 102.823 155.098 103.407 155.367 103.812C155.502 103.992 155.592 104.171 155.682 104.261C155.727 104.486 155.772 104.531 155.727 104.531Z" fill="#263238"/>
<g opacity="0.3">
<path opacity="0.3" d="M169.837 125.293C169.343 130.326 170.466 135.494 172.983 139.898C175.5 144.257 179.185 148.167 183.768 150.279C183.903 145.83 183.723 140.572 183.858 136.078L169.837 125.293Z" fill="black"/>
</g>
<path d="M169.343 119.406C169.343 119.406 167.365 119.945 168.848 123.99C170.331 128.034 170.826 127.765 171.814 131.54C172.803 135.314 173.927 138.73 175.679 140.887C177.387 142.999 183.768 147.358 183.768 147.358L189.52 141.965C189.52 141.965 188.577 137.921 188.801 135.18C189.026 132.438 189.61 125.742 189.52 124.574C189.43 123.406 188.217 120.664 188.217 120.664V118.777L185.251 109.699C185.251 109.699 183.633 108.98 183.049 111.587L182.06 108.8C182.06 108.8 180.488 108.531 180.083 111.766C179.679 114.957 180.398 119.406 180.398 119.406L179.589 124.978L178.375 128.753L177.297 128.933C177.297 128.933 175.679 128.484 174.825 125.473C173.927 122.372 171.545 118.777 169.343 119.406Z" fill="#FFBE9D"/>
<path d="M187.543 133.697C187.543 133.697 187.543 133.607 187.498 133.473C187.498 133.338 187.453 133.113 187.453 132.888C187.408 132.349 187.363 131.585 187.318 130.641C187.228 128.664 187.093 125.968 186.959 122.777L187.003 122.822C186.734 122.507 186.284 122.418 185.835 122.507C185.386 122.597 185.026 122.867 184.757 123.271C184.262 124.08 184.217 125.114 184.082 126.147C183.768 128.439 183.453 130.641 183.184 132.619C183.049 133.607 182.914 134.551 182.689 135.45C182.51 136.349 182.24 137.113 181.97 137.832C181.701 138.551 181.476 139.18 181.341 139.764C181.206 140.348 181.161 140.843 181.161 141.292C181.161 142.146 181.431 142.55 181.386 142.595C181.386 142.595 181.341 142.505 181.251 142.281C181.206 142.056 181.072 141.741 181.072 141.292C181.027 140.843 181.072 140.348 181.206 139.764C181.341 139.18 181.566 138.506 181.791 137.787C182.06 137.068 182.285 136.304 182.465 135.405C182.644 134.551 182.779 133.607 182.914 132.619C183.184 130.641 183.453 128.439 183.768 126.147C183.858 125.653 183.903 125.114 183.993 124.62C184.082 124.125 184.217 123.631 184.487 123.181C184.757 122.732 185.206 122.418 185.7 122.328C186.195 122.193 186.734 122.328 187.093 122.687L187.138 122.732V122.777C187.228 125.968 187.363 128.664 187.408 130.641C187.453 131.585 187.453 132.349 187.453 132.888C187.453 133.113 187.453 133.338 187.453 133.473C187.588 133.607 187.543 133.697 187.543 133.697Z" fill="#EB996E"/>
<path d="M184.442 123.361C184.442 123.361 184.353 123.182 184.218 122.867C184.083 122.508 183.903 122.013 183.723 121.384C183.544 120.755 183.409 119.991 183.319 119.137C183.274 118.688 183.229 118.238 183.274 117.789C183.319 117.295 183.454 116.8 183.768 116.396C184.038 116.036 184.397 115.722 184.802 115.587L184.892 115.542L184.937 115.632C185.746 117.115 186.51 118.373 187.004 119.317C187.229 119.766 187.453 120.126 187.588 120.395C187.723 120.665 187.768 120.8 187.768 120.8C187.768 120.8 187.678 120.665 187.498 120.44C187.318 120.171 187.094 119.811 186.869 119.362C186.33 118.463 185.566 117.16 184.757 115.722L184.892 115.767C184.532 115.857 184.218 116.126 183.948 116.486C183.678 116.89 183.544 117.34 183.499 117.789C183.454 118.238 183.454 118.688 183.499 119.092C183.589 119.946 183.723 120.71 183.858 121.339C183.993 121.968 184.173 122.463 184.263 122.822C184.397 123.137 184.442 123.361 184.442 123.361Z" fill="#EB996E"/>
<path d="M183.049 124.079C183.049 124.079 183.004 123.9 183.004 123.54C183.004 123.136 182.96 122.686 182.96 122.102C182.915 120.889 182.87 119.226 182.87 117.383C182.87 115.541 182.78 113.878 182.96 112.665C183.049 112.081 183.139 111.586 183.274 111.272C183.364 110.957 183.454 110.777 183.499 110.777C183.544 110.777 183.229 111.496 183.139 112.665C183.004 113.833 183.139 115.541 183.139 117.338C183.184 119.181 183.184 120.844 183.184 122.057C183.184 122.641 183.184 123.091 183.184 123.495C183.094 123.9 183.049 124.079 183.049 124.079Z" fill="#EB996E"/>
<path d="M178.196 139.179C178.151 139.134 178.51 138.73 178.96 137.966C179.184 137.606 179.409 137.112 179.634 136.573C179.858 136.034 180.038 135.404 180.128 134.73C180.263 134.056 180.308 133.427 180.308 132.843C180.308 132.259 180.263 131.719 180.173 131.315C180.038 130.461 179.858 129.922 179.858 129.922C179.858 129.922 179.948 130.057 180.038 130.281C180.128 130.506 180.218 130.866 180.353 131.315C180.443 131.764 180.533 132.304 180.533 132.888C180.533 133.472 180.488 134.146 180.398 134.82C180.263 135.494 180.083 136.123 179.858 136.663C179.634 137.202 179.364 137.696 179.139 138.056C178.915 138.415 178.69 138.73 178.51 138.91C178.331 139.089 178.196 139.224 178.196 139.179Z" fill="#EB996E"/>
<path d="M188.262 136.393L193.25 138.101C193.25 138.101 198.014 135.629 201.294 138.101C204.575 140.572 207.406 147.044 206.507 149.65C206.507 149.65 204.26 152.436 202.508 152.841C200.8 153.245 194.104 151.627 191.318 151.043C188.532 150.459 183.723 147.358 183.723 147.358L188.262 136.393Z" fill="#FFBE9D"/>
<path d="M188.891 143.718C188.891 143.718 188.847 143.583 188.847 143.269C188.847 142.954 188.802 142.55 188.757 142.055C188.712 141.022 188.622 139.629 188.622 138.101C188.577 136.528 188.622 135.135 188.757 134.101C188.802 133.607 188.847 133.202 188.891 132.888C188.936 132.618 188.981 132.438 188.981 132.438C189.026 132.438 188.936 133.068 188.891 134.101C188.847 135.135 188.802 136.528 188.847 138.056C188.891 139.584 188.891 140.932 188.936 142.01C188.936 142.505 188.936 142.909 188.936 143.224C188.891 143.538 188.891 143.718 188.891 143.718Z" fill="#EB996E"/>
<path d="M205.294 137.921C205.249 137.966 204.754 137.247 203.631 136.438C202.552 135.629 200.755 134.73 198.688 134.641C196.576 134.506 194.733 135.18 193.565 135.899C192.351 136.573 191.767 137.247 191.767 137.202C191.767 137.202 191.902 137.022 192.172 136.753C192.441 136.483 192.891 136.124 193.475 135.764C194.643 135.045 196.531 134.326 198.688 134.416C200.845 134.551 202.642 135.449 203.721 136.303C204.26 136.753 204.665 137.157 204.934 137.427C205.159 137.741 205.294 137.921 205.294 137.921Z" fill="#263238"/>
<path d="M204.665 133.741C204.62 133.786 203.991 133.112 202.598 132.618C201.25 132.079 199.138 131.854 196.981 132.438C195.902 132.753 194.913 133.157 194.104 133.652C193.251 134.146 192.577 134.64 191.992 135.135C191.453 135.629 191.004 136.033 190.734 136.303C190.419 136.573 190.285 136.752 190.285 136.752C190.285 136.752 190.419 136.573 190.689 136.258C190.959 135.943 191.363 135.494 191.902 135C192.442 134.505 193.161 133.966 194.015 133.472C194.868 132.977 195.857 132.528 196.936 132.214C199.138 131.584 201.295 131.854 202.643 132.438C203.317 132.708 203.856 133.067 204.171 133.292C204.351 133.427 204.44 133.517 204.53 133.607C204.62 133.696 204.665 133.741 204.665 133.741Z" fill="#263238"/>
<path d="M204.709 130.147C204.709 130.192 203.811 129.922 202.373 129.742C201.654 129.652 200.8 129.563 199.811 129.563C198.867 129.563 197.789 129.652 196.71 129.832C195.632 130.012 194.598 130.327 193.699 130.641C192.801 130.956 191.992 131.315 191.363 131.675C190.059 132.349 189.34 132.888 189.295 132.843C189.295 132.843 189.475 132.708 189.79 132.439C189.969 132.304 190.149 132.169 190.419 132.034C190.689 131.899 190.958 131.675 191.273 131.54C191.902 131.18 192.711 130.821 193.61 130.461C194.508 130.147 195.542 129.832 196.665 129.652C197.789 129.473 198.867 129.383 199.811 129.383C200.8 129.383 201.654 129.473 202.373 129.608C202.732 129.652 203.047 129.742 203.361 129.787C203.631 129.832 203.901 129.922 204.08 129.967C204.485 130.057 204.709 130.147 204.709 130.147Z" fill="#263238"/>
<path d="M166.557 86.1514C166.557 86.1514 166.781 86.6008 166.916 87.4546C167.051 88.3534 167.006 89.6566 166.736 91.3194C166.602 92.1283 166.377 93.027 166.107 94.0157C165.793 94.9594 165.343 95.9481 164.804 97.0266C163.725 99.0938 162.377 101.341 160.804 103.767L160.625 104.037V103.723C160.625 102.15 160.625 100.487 160.625 98.7343L160.804 98.8242C159.456 99.9027 158.063 101.026 156.625 102.195L156.67 102.15C155.681 105.25 155.052 108.666 154.783 112.216C154.378 117.699 154.693 122.912 154.962 127.675C155.187 132.439 155.322 136.708 155.457 140.303C155.592 143.898 155.726 146.819 155.816 148.796C155.861 149.785 155.906 150.549 155.951 151.088C155.951 151.358 155.996 151.538 155.996 151.672C155.996 151.807 155.996 151.897 155.996 151.897C155.996 151.897 155.996 151.807 155.951 151.672C155.951 151.538 155.906 151.313 155.906 151.088C155.861 150.549 155.771 149.785 155.726 148.796C155.592 146.774 155.457 143.898 155.277 140.303C155.097 136.708 154.917 132.439 154.693 127.675C154.423 122.912 154.064 117.699 154.513 112.216C154.783 108.621 155.412 105.161 156.4 102.06V102.015H156.445C157.883 100.846 159.321 99.723 160.67 98.6444L160.849 98.5096V98.7343C160.849 100.487 160.849 102.15 160.849 103.723L160.67 103.678C163.77 98.8691 166.287 94.7347 166.647 91.3643C166.961 89.7465 167.006 88.3983 166.871 87.5445C166.826 87.0951 166.736 86.7805 166.691 86.5558C166.602 86.2862 166.557 86.1514 166.557 86.1514Z" fill="#263238"/>
<path d="M158.512 144.123H158.333C157.703 144.123 157.119 144.752 157.119 145.381C157.119 146.01 157.703 146.639 158.333 146.639C158.962 146.684 159.591 146.1 159.636 145.471C159.681 144.842 159.141 144.212 158.512 144.123Z" fill="white"/>
<path d="M158.513 126.821H158.333C157.704 126.821 157.12 127.45 157.12 128.08C157.12 128.709 157.704 129.338 158.333 129.338C158.962 129.383 159.591 128.799 159.636 128.169C159.681 127.495 159.142 126.866 158.513 126.821Z" fill="white"/>
<path d="M158.333 111.317C158.962 111.362 159.591 110.778 159.636 110.149C159.681 109.52 159.142 108.846 158.513 108.801H158.333C157.704 108.801 157.12 109.43 157.12 110.059C157.12 110.688 157.704 111.272 158.333 111.317Z" fill="white"/>
<path d="M138.919 65.884C137.347 64.1314 135.774 62.3787 134.605 60.3115C133.437 58.2444 132.763 55.8626 133.167 53.5258C133.392 52.1776 133.976 50.8743 134.066 49.5262C134.201 47.6387 133.392 45.6614 134.066 43.9088C135.1 41.1226 138.83 40.7181 141.077 38.7858C142.829 37.3028 143.683 34.8761 145.615 33.6178C147.323 32.5392 149.48 32.5392 151.457 32.8089C153.435 33.0785 155.457 33.5728 157.434 33.3032C158.872 33.1234 160.176 32.5392 161.569 32.1797C162.962 31.8202 164.535 31.7303 165.748 32.4493C167.006 33.1684 167.68 34.921 166.872 36.0894C169.163 35.0109 172.129 36.8084 172.759 39.2801C173.388 41.7517 172.129 44.4031 170.152 46.0209C168.175 47.6387 165.658 48.4027 163.142 48.8521C156.086 50.2003 148.402 49.4363 142.29 45.6165" fill="#263238"/>
<path d="M163.816 89.6544C163.457 86.9581 163.187 84.756 163.187 84.4415C163.187 84.4415 172.13 82.4192 171.636 73.3865C171.411 69.0274 170.153 60.0396 168.984 51.9505C167.681 43.2324 159.907 36.9858 151.144 37.57L150.29 37.615C140.898 38.7834 136.673 47.4117 138.111 56.759L143.189 88.0815C143.189 88.0815 145.347 95.0021 149.975 96.2155L155.817 104.529L156.761 100.934L161.12 97.1592C161.12 97.1592 162.109 96.0807 163.277 93.9685C164.131 92.2609 163.951 90.5082 163.816 89.6544Z" fill="#FFBE9D"/>
<path d="M163.188 84.3506C163.188 84.3506 157.48 85.2044 151.189 81.7891C151.189 81.7891 154.425 88.1255 163.367 86.6874L163.188 84.3506Z" fill="#EB996E"/>
<path d="M166.059 59.7248C166.149 60.3989 165.609 61.0281 164.89 61.118C164.171 61.2078 163.542 60.7135 163.497 60.0394C163.407 59.3653 163.946 58.7362 164.666 58.6463C165.34 58.5564 165.969 59.0508 166.059 59.7248Z" fill="#263238"/>
<path d="M167.32 56.5347C167.185 56.7144 166.152 56.0404 164.759 56.1302C163.366 56.2201 162.377 56.9841 162.242 56.8493C162.152 56.7594 162.287 56.4448 162.736 56.1302C163.141 55.7707 163.86 55.4112 164.759 55.3663C165.613 55.3213 166.377 55.591 166.826 55.8606C167.23 56.1302 167.41 56.4448 167.32 56.5347Z" fill="#263238"/>
<path d="M152.94 60.6711C153.03 61.3452 152.491 61.9744 151.772 62.0642C151.053 62.1541 150.424 61.6598 150.379 60.9857C150.289 60.3116 150.828 59.6825 151.547 59.5926C152.221 59.5027 152.851 59.997 152.94 60.6711Z" fill="#263238"/>
<path d="M153.655 57.7046C153.52 57.8844 152.487 57.2103 151.094 57.3001C149.701 57.39 148.712 58.154 148.577 58.0192C148.487 57.9293 148.622 57.6147 149.071 57.3001C149.476 56.9406 150.195 56.5811 151.094 56.5362C151.947 56.4912 152.711 56.7609 153.161 57.0305C153.565 57.3001 153.745 57.6147 153.655 57.7046Z" fill="#263238"/>
<path d="M159.41 67.6822C159.41 67.5923 160.264 67.4125 161.657 67.1429C162.016 67.0979 162.331 67.0081 162.376 66.7384C162.421 66.4688 162.286 66.1093 162.061 65.7048C161.657 64.851 161.252 63.9972 160.848 63.0534C159.14 59.3235 157.882 56.2227 158.017 56.1328C158.152 56.0429 159.679 59.0539 161.387 62.7838C161.792 63.7275 162.196 64.5814 162.556 65.4352C162.735 65.8397 162.96 66.289 162.825 66.8283C162.735 67.0979 162.511 67.3226 162.286 67.3676C162.061 67.4575 161.881 67.4575 161.702 67.5024C160.309 67.6822 159.41 67.7271 159.41 67.6822Z" fill="#263238"/>
<path d="M153.657 52.2249C153.567 52.6293 152.129 52.5394 150.511 52.8091C148.893 53.0787 147.59 53.6629 147.366 53.3034C147.276 53.1686 147.455 52.7641 147.95 52.3597C148.444 51.9552 149.253 51.5508 150.242 51.371C151.23 51.1913 152.129 51.2811 152.713 51.5058C153.387 51.7755 153.702 52.0451 153.657 52.2249Z" fill="#263238"/>
<path d="M166.56 52.5406C166.335 52.8551 165.346 52.6305 164.223 52.6754C163.054 52.6754 162.111 53.0349 161.886 52.7203C161.796 52.5855 161.931 52.226 162.335 51.9114C162.74 51.5969 163.414 51.2823 164.223 51.2823C165.032 51.2373 165.706 51.507 166.155 51.7766C166.47 52.0462 166.65 52.3608 166.56 52.5406Z" fill="#263238"/>
<path d="M139.281 63.4592C139.101 63.4143 132.944 62.0212 133.573 68.2228C134.203 74.3794 140.854 72.4021 140.854 72.2223C140.854 71.9976 139.281 63.4592 139.281 63.4592Z" fill="#FFBE9D"/>
<path d="M138.11 70.1522C138.065 70.1522 138.02 70.2421 137.841 70.332C137.661 70.4219 137.391 70.5118 137.032 70.4219C136.358 70.2421 135.684 69.2535 135.549 68.1749C135.459 67.6357 135.549 67.0514 135.684 66.6021C135.818 66.1527 136.088 65.7932 136.403 65.7033C136.717 65.6134 136.987 65.7482 137.077 65.928C137.167 66.1077 137.167 66.1976 137.167 66.2425C137.167 66.2425 137.301 66.1077 137.212 65.883C137.167 65.7482 137.077 65.6134 136.942 65.5235C136.762 65.4336 136.537 65.3887 136.313 65.4336C135.818 65.5235 135.459 65.9729 135.279 66.5122C135.099 67.0065 135.009 67.6357 135.054 68.2648C135.234 69.5231 135.953 70.6016 136.897 70.7814C137.346 70.8713 137.706 70.6915 137.886 70.5118C138.11 70.2871 138.11 70.1522 138.11 70.1522Z" fill="#EB996E"/>
<path d="M168.489 43.5044C168.084 45.976 163.096 48.223 158.962 48.0882C155.142 47.9983 153.254 46.0659 150.513 44.7627C148.76 43.9088 148.76 43.9088 146.379 44.3133C144.446 44.6279 143.458 46.8748 142.379 48.4926C144.446 52.9865 143.592 58.1995 142.739 63.0529C142.649 63.5921 142.514 64.1764 142.109 64.5359C141.435 65.165 140.312 64.7606 139.593 64.1764C138.514 63.1877 138.02 61.7047 137.661 60.2667C136.852 56.9861 136.537 53.5707 137.031 50.2453C137.571 46.9198 138.919 43.6842 141.211 41.1676C144.042 38.0668 148.221 36.2692 152.445 36.0445C156.67 35.8198 160.894 37.1231 164.399 39.4599C166.062 40.4935 167.59 41.7967 168.489 43.5044Z" fill="#263238"/>
<path d="M160.31 70.7821C159.276 70.2878 158.198 69.7934 157.164 69.2991C156.984 69.2092 156.805 69.1194 156.58 69.1643C156.355 69.2092 156.176 69.3441 156.041 69.5238C155.322 70.4226 155.142 71.7258 155.681 72.7594C156.265 73.7481 157.569 74.2874 158.647 73.838C159.771 73.3886 160.31 72.0853 160.4 70.872L160.31 70.7821Z" fill="#EB996E"/>
<path d="M158.738 74.0626C158.738 74.1075 158.603 74.1974 158.288 74.2423C157.974 74.2873 157.479 74.3322 156.94 74.1525C156.401 73.9727 155.772 73.5233 155.367 72.8492C154.963 72.1751 154.828 71.2314 155.188 70.3776C155.367 69.9731 155.592 69.5687 155.907 69.299C156.086 69.1642 156.221 69.0294 156.401 68.8946C156.491 68.8496 156.626 68.8047 156.76 68.7598C156.895 68.7598 157.03 68.8047 157.12 68.8496C157.345 68.9395 157.479 69.0294 157.614 69.1193C157.749 69.2092 157.884 69.299 158.064 69.3889C158.333 69.5687 158.603 69.7035 158.828 69.8832C159.771 70.4674 160.311 70.8719 160.311 70.9168C160.266 70.9618 159.636 70.6921 158.693 70.1529C158.423 70.0181 158.198 69.8832 157.884 69.7035C157.749 69.6136 157.614 69.5237 157.434 69.4788C157.3 69.3889 157.12 69.299 156.985 69.2541C156.85 69.2092 156.76 69.2092 156.626 69.299C156.491 69.3889 156.356 69.4788 156.221 69.6136C155.951 69.8832 155.727 70.1978 155.592 70.5573C155.322 71.2764 155.412 72.0853 155.727 72.6695C156.041 73.2537 156.536 73.6581 157.03 73.8828C157.524 74.0626 157.929 74.1075 158.243 74.1075C158.558 74.0626 158.738 74.0176 158.738 74.0626Z" fill="#263238"/>
<path d="M157.749 59.9068C157.704 59.9068 157.749 59.3225 157.524 58.3339C157.254 57.3452 156.625 55.9521 155.187 54.8286C154.468 54.2894 153.569 53.84 152.491 53.6602C151.457 53.4805 150.289 53.5254 149.165 53.9299C148.581 54.1096 148.042 54.4242 147.547 54.7837C147.053 55.1432 146.604 55.5926 146.199 56.1319C145.435 57.1655 144.986 58.5136 144.986 59.8618C144.986 61.2549 145.435 62.5582 146.199 63.5918C146.559 64.131 147.053 64.5804 147.547 64.9399C148.042 65.2994 148.581 65.614 149.165 65.7938C150.289 66.1982 151.457 66.2432 152.491 66.0634C153.524 65.8836 154.468 65.4342 155.187 64.895C156.625 63.7715 157.299 62.3784 157.524 61.3897C157.749 60.446 157.749 59.8618 157.749 59.9068C157.749 59.9068 157.749 59.9517 157.749 59.9966C157.749 60.0865 157.749 60.1764 157.749 60.3112C157.749 60.446 157.749 60.6258 157.704 60.8055C157.659 60.9853 157.659 61.21 157.569 61.4796C157.479 61.9739 157.254 62.6031 156.85 63.2322C156.49 63.8614 155.951 64.5355 155.232 65.0747C154.513 65.614 153.569 66.1083 152.491 66.333C151.412 66.5128 150.199 66.5128 149.03 66.0634C148.446 65.8836 147.907 65.5691 147.368 65.1646C146.828 64.8051 146.379 64.3108 145.975 63.7715C145.166 62.693 144.716 61.2999 144.716 59.9068C144.716 58.4687 145.166 57.1205 145.975 56.042C146.379 55.5027 146.828 55.0084 147.368 54.6489C147.862 54.2444 148.446 53.9748 149.03 53.7501C150.199 53.3007 151.412 53.3007 152.491 53.4805C153.569 53.6602 154.513 54.1546 155.232 54.7388C155.951 55.323 156.49 55.9521 156.895 56.5813C157.254 57.2104 157.479 57.7946 157.614 58.3339C157.704 58.6035 157.704 58.8282 157.749 59.008C157.794 59.1877 157.794 59.3675 157.794 59.5023C157.794 59.6371 157.794 59.727 157.794 59.8169C157.749 59.8618 157.749 59.9068 157.749 59.9068Z" fill="#263238"/>
<path d="M173.163 59.2777C173.118 59.2777 173.163 58.7384 172.938 57.7497C172.714 56.806 172.085 55.4129 170.646 54.3344C169.927 53.7951 169.074 53.3457 168.04 53.166C167.006 52.9862 165.883 53.0311 164.804 53.4356C164.265 53.6153 163.726 53.9299 163.232 54.2894C162.737 54.6489 162.288 55.0983 161.928 55.5927C161.164 56.5813 160.76 57.8846 160.715 59.2327C160.715 60.5809 161.164 61.8841 161.928 62.8728C162.288 63.3671 162.737 63.8165 163.232 64.176C163.726 64.5355 164.265 64.8052 164.804 65.0299C165.883 65.4343 167.051 65.4792 168.04 65.2995C169.074 65.1197 169.927 64.6703 170.646 64.1311C172.085 63.0525 172.714 61.6594 172.938 60.7157C173.163 59.8619 173.118 59.2777 173.163 59.2777C173.163 59.2777 173.163 59.4125 173.163 59.6821C173.163 59.8169 173.163 59.9967 173.118 60.1764C173.073 60.3562 173.073 60.5809 172.983 60.8505C172.759 61.7942 172.129 63.2323 170.691 64.3558C169.972 64.895 169.074 65.3894 168.04 65.5691C167.006 65.7489 165.793 65.7489 164.67 65.2995C164.085 65.1197 163.546 64.8052 163.052 64.4456C162.557 64.0861 162.063 63.6367 161.704 63.0975C160.895 62.0639 160.49 60.7157 160.445 59.3226C160.445 57.9295 160.895 56.5813 161.704 55.5477C162.108 55.0085 162.557 54.5591 163.052 54.1995C163.546 53.84 164.085 53.5255 164.67 53.3457C165.793 52.9413 166.961 52.8963 168.04 53.0761C169.074 53.2558 170.017 53.7502 170.691 54.2894C172.129 55.4129 172.759 56.851 172.983 57.7947C173.073 58.0194 173.073 58.2441 173.118 58.4688C173.163 58.6485 173.163 58.8283 173.163 58.9631C173.163 59.1428 173.163 59.2777 173.163 59.2777Z" fill="#263238"/>
<path d="M160.58 57.8392C160.535 57.8841 160.4 57.7493 160.13 57.6145C159.861 57.4796 159.456 57.3448 159.007 57.3448C158.558 57.3448 158.153 57.4796 157.883 57.6145C157.614 57.7493 157.479 57.8841 157.434 57.8392C157.434 57.8392 157.524 57.6594 157.794 57.4347C158.063 57.255 158.513 57.0752 159.007 57.0752C159.501 57.0752 159.951 57.255 160.22 57.4347C160.49 57.6594 160.625 57.8392 160.58 57.8392Z" fill="#263238"/>
<path d="M145.255 58.9635C145.3 59.0084 144.042 60.042 142.424 61.2104C140.851 62.3788 139.503 63.3225 139.458 63.2776C139.413 63.2327 140.672 62.1991 142.289 61.0307C143.907 59.8622 145.21 58.9185 145.255 58.9635Z" fill="#263238"/>
<g opacity="0.3">
<path opacity="0.3" d="M139.953 88.2188C139.323 94.3305 141.66 100.757 146.559 104.442C146.963 104.711 147.413 105.026 147.862 104.846C148.176 104.711 148.356 104.442 148.536 104.127C149.929 101.7 150.378 99.0491 149.974 96.3078C149.21 98.33 148.536 100.352 147.772 102.464C143.503 99.9029 140.851 94.4203 139.953 88.2188Z" fill="black"/>
</g>
<path opacity="0.3" d="M156.49 102.105L160.085 100.802L160.67 106.869C160.67 106.869 164.534 99.8132 166.152 96.5776C167.77 93.342 166.916 87.6797 166.916 87.6797C166.916 87.6797 167.5 92.623 163.591 98.9594L160.67 103.723V98.7347L156.49 102.105Z" fill="black"/>
<g opacity="0.3">
<path opacity="0.3" d="M114.742 132.933C113.124 132.169 111.281 132.079 109.529 132.259C107.686 132.484 105.799 133.023 104.361 134.236C102.923 135.405 101.934 137.247 102.114 139.135L102.294 139.18C103.552 135.809 106.024 133.337 109.259 133.023C112.45 132.708 115.596 134.146 117.798 136.528C117.573 134.731 116.36 133.697 114.742 132.933Z" fill="black"/>
</g>
<g opacity="0.3">
<path opacity="0.3" d="M205.519 136.394C204.305 135.09 202.643 134.326 200.89 134.012C197.834 133.473 194.554 134.416 192.262 136.528L192.936 135.989C194.688 134.956 196.666 134.371 198.688 134.416C200.71 134.461 202.733 135.225 204.171 136.618C205.519 137.877 206.328 139.629 207.092 141.292C207.406 139.539 206.732 137.697 205.519 136.394Z" fill="black"/>
</g>
<path d="M182.375 108.217C182.375 108.217 182.42 108.037 182.555 107.722C182.69 107.363 182.87 106.913 183.05 106.419C183.499 105.296 184.083 103.813 184.712 102.105C185.341 100.397 185.881 98.8693 186.285 97.7458C186.465 97.2065 186.645 96.8021 186.735 96.4426C186.869 96.128 186.914 95.9482 186.914 95.9482C186.914 95.9482 186.869 96.128 186.824 96.4426C186.735 96.7571 186.6 97.2065 186.42 97.7907C186.06 98.9142 185.566 100.487 184.937 102.195C184.308 103.902 183.679 105.385 183.229 106.509C183.005 107.048 182.78 107.498 182.645 107.767C182.465 108.037 182.42 108.217 182.375 108.217Z" fill="#263238"/>
<path d="M125.707 108.666C125.662 108.666 125.168 106.554 124.629 103.902C124.089 101.251 123.685 99.0938 123.775 99.0938C123.82 99.0938 124.314 101.206 124.853 103.857C125.393 106.464 125.797 108.621 125.707 108.666Z" fill="#263238"/>
<path d="M124.899 135.404C125.033 135.494 123.236 121.383 123.236 121.383C123.236 121.383 124.359 110.687 124.988 110.193V106.418C124.988 106.418 126.741 105.339 127.19 107.047C127.19 107.047 128.718 105.699 128.988 108.89C129.258 112.08 129.303 115.361 129.303 115.361L132.763 123.989L133.347 124.259C133.347 124.259 134.066 117.518 134.516 116.529C134.965 115.541 135.235 113.114 136.897 113.473C138.515 113.833 138.65 115.181 138.38 117.383C138.066 119.585 137.706 121.877 137.841 123.27C137.976 124.708 138.605 127.809 138.425 130.326C138.245 132.797 136.852 135.449 135.414 137.291C133.976 139.134 131.235 142.953 129.752 144.077C129.303 144.571 124.899 135.404 124.899 135.404Z" fill="#FFBE9D"/>
<path d="M126.606 123.944C126.606 123.944 126.606 123.719 126.606 123.36C126.651 122.91 126.696 122.371 126.741 121.742C126.831 120.349 127.011 118.461 127.19 116.349C127.28 115.316 127.37 114.282 127.46 113.383C127.505 112.934 127.55 112.484 127.46 112.125C127.415 111.721 127.235 111.406 127.011 111.136C126.561 110.642 125.977 110.507 125.617 110.507C125.258 110.507 125.033 110.597 125.033 110.597C125.033 110.597 125.078 110.552 125.168 110.507C125.258 110.462 125.393 110.417 125.617 110.417C126.022 110.372 126.651 110.507 127.145 111.001C127.415 111.271 127.595 111.631 127.64 112.035C127.73 112.44 127.685 112.889 127.64 113.338C127.55 114.237 127.46 115.271 127.37 116.304C127.19 118.416 127.011 120.304 126.831 121.697C126.741 122.371 126.696 122.91 126.651 123.315C126.651 123.719 126.651 123.944 126.606 123.944Z" fill="#EB996E"/>
<path d="M128.494 118.192C128.539 118.237 128.135 118.552 127.865 119.316C127.595 120.035 127.506 121.158 127.281 122.371C127.101 123.585 126.921 124.663 126.786 125.427C126.652 126.191 126.562 126.686 126.517 126.686C126.472 126.686 126.517 126.191 126.652 125.382C126.742 124.573 126.921 123.495 127.101 122.282C127.281 121.068 127.416 119.99 127.73 119.226C127.865 118.866 128.09 118.552 128.225 118.417C128.359 118.237 128.449 118.147 128.494 118.192Z" fill="#EB996E"/>
<path d="M127.19 106.912C127.19 106.912 127.235 107.047 127.325 107.361C127.37 107.631 127.46 108.081 127.55 108.575C127.73 109.608 127.909 111.047 128.044 112.664C128.179 114.282 128.179 115.72 128.179 116.754C128.179 117.293 128.134 117.697 128.134 118.012C128.134 118.327 128.089 118.461 128.089 118.461C128.044 118.461 128.044 117.832 127.999 116.754C127.954 115.72 127.909 114.237 127.82 112.664C127.685 111.047 127.55 109.608 127.415 108.575C127.28 107.541 127.19 106.912 127.19 106.912Z" fill="#EB996E"/>
<path d="M137.167 120.08C137.212 120.125 136.672 120.395 135.998 120.17C135.324 119.99 135.01 119.451 135.1 119.451C135.144 119.406 135.504 119.766 136.088 119.945C136.627 120.17 137.122 120.035 137.167 120.08Z" fill="#EB996E"/>
<path d="M125.078 133.651L115.956 137.471H110.518C110.518 137.471 105.17 139.133 104.317 144.167C103.508 149.2 103.373 151.806 105.755 152.39C108.136 153.02 114.787 153.065 118.068 151.986C121.393 150.907 130.022 143.897 130.022 143.897L130.876 138.864L125.078 133.651Z" fill="#FFBE9D"/>
<path d="M127.19 139.179C127.19 139.179 127.101 139.089 126.921 138.954C126.741 138.774 126.561 138.55 126.337 138.19C125.887 137.516 125.393 136.483 125.078 135.314C124.719 134.146 124.584 133.022 124.539 132.213C124.449 131.404 124.494 130.91 124.494 130.91C124.539 130.91 124.584 131.404 124.674 132.213C124.809 133.022 124.944 134.101 125.303 135.269C125.618 136.438 126.067 137.426 126.471 138.145C126.921 138.774 127.235 139.179 127.19 139.179Z" fill="#EB996E"/>
<path d="M131.19 140.797C131.145 140.797 131.549 140.078 131.729 138.864C131.819 138.235 131.819 137.516 131.639 136.707C131.459 135.898 131.1 135.089 130.515 134.325C129.976 133.562 129.347 132.887 128.808 132.213C128.269 131.584 127.864 130.91 127.594 130.371C127.325 129.787 127.19 129.292 127.145 128.933C127.1 128.573 127.1 128.394 127.145 128.394C127.19 128.394 127.19 129.202 127.774 130.326C128.044 130.865 128.493 131.494 129.032 132.123C129.572 132.753 130.201 133.427 130.74 134.236C131.324 135.045 131.729 135.898 131.864 136.707C132.043 137.561 132.043 138.325 131.909 138.954C131.819 139.583 131.639 140.078 131.504 140.392C131.414 140.572 131.369 140.662 131.324 140.752C131.19 140.752 131.19 140.797 131.19 140.797Z" fill="#EB996E"/>
<path d="M117.124 118.867C117.079 118.912 116.09 117.07 114.922 114.823C113.753 112.576 112.855 110.688 112.9 110.688C112.945 110.643 113.933 112.486 115.102 114.733C116.27 116.98 117.169 118.822 117.124 118.867Z" fill="white"/>
<path d="M131.863 102.463C131.818 102.419 132.403 100.936 133.256 99.0931C134.065 97.2506 134.784 95.8125 134.829 95.8125C134.874 95.8574 134.29 97.3404 133.436 99.1829C132.627 101.025 131.908 102.508 131.863 102.463Z" fill="white"/>
<path d="M146.289 113.115C146.244 113.159 145.301 112.126 144.222 110.823C143.144 109.519 142.29 108.396 142.335 108.351C142.38 108.306 143.323 109.34 144.402 110.643C145.48 111.946 146.334 113.07 146.289 113.115Z" fill="white"/>
<path d="M142.964 127.72C142.919 127.675 143.593 126.641 144.537 125.383C145.436 124.125 146.245 123.136 146.29 123.181C146.334 123.226 145.66 124.26 144.717 125.518C143.818 126.776 143.009 127.765 142.964 127.72Z" fill="white"/>
<path d="M138.515 148.437C138.47 148.437 138.29 148.122 137.975 147.538C137.661 146.954 137.301 146.145 136.897 145.246C136.492 144.348 136.178 143.494 135.998 142.91C135.773 142.28 135.684 141.921 135.729 141.921C135.773 141.921 135.908 142.28 136.178 142.865C136.448 143.539 136.807 144.303 137.167 145.201C137.526 146.055 137.886 146.819 138.155 147.493C138.38 148.033 138.515 148.392 138.515 148.437Z" fill="white"/>
<path d="M151.188 139.629C151.188 139.674 149.974 139.494 148.446 139.224C146.963 138.955 145.75 138.64 145.75 138.595C145.75 138.55 146.963 138.73 148.491 139C150.019 139.269 151.188 139.584 151.188 139.629Z" fill="white"/>
<path d="M161.03 120.305C160.985 120.26 162.153 118.912 163.636 117.339C165.119 115.721 166.377 114.463 166.422 114.508C166.467 114.553 165.299 115.901 163.816 117.474C162.333 119.092 161.075 120.35 161.03 120.305Z" fill="white"/>
<path d="M170.916 146.055C170.871 146.1 169.433 144.392 167.68 142.28C165.928 140.168 164.58 138.415 164.625 138.37C164.67 138.326 166.108 140.033 167.86 142.145C169.613 144.302 171.006 146.055 170.916 146.055Z" fill="white"/>
<path d="M109.484 135.09C109.529 135.135 108.181 135.809 106.743 136.932C105.305 138.056 104.272 139.134 104.227 139.09C104.227 139.09 104.406 138.775 104.856 138.326C105.26 137.876 105.889 137.292 106.608 136.753C107.327 136.213 108.046 135.764 108.586 135.494C109.125 135.18 109.439 135.045 109.484 135.09Z" fill="white"/>
<path d="M113.169 125.158C113.214 125.203 112.765 126.012 112.135 126.956C111.506 127.899 110.922 128.663 110.877 128.618C110.832 128.574 111.282 127.765 111.911 126.821C112.54 125.877 113.124 125.113 113.169 125.158Z" fill="white"/>
<path d="M121.528 134.91C121.483 134.955 120.989 134.146 120.764 133.068C120.495 131.989 120.584 131.045 120.674 131.09C120.764 131.09 120.764 131.989 121.034 133.023C121.214 134.056 121.573 134.865 121.528 134.91Z" fill="white"/>
<path d="M122.741 103.947C122.741 103.992 121.977 104.172 120.988 104.307C120.045 104.442 119.236 104.487 119.236 104.442C119.236 104.397 120 104.217 120.988 104.082C121.932 103.947 122.741 103.857 122.741 103.947Z" fill="white"/>
<path d="M129.033 92.8468C129.078 92.8918 128.403 93.3411 127.505 93.8355C126.651 94.3298 125.887 94.6444 125.887 94.5994C125.842 94.5545 126.516 94.1051 127.415 93.6108C128.269 93.1165 128.988 92.7569 129.033 92.8468Z" fill="white"/>
<path d="M146.649 97.5208C146.604 97.5657 145.84 96.622 144.896 95.4536C143.998 94.2852 143.279 93.2516 143.368 93.2066C143.413 93.1617 144.177 94.1054 145.121 95.2738C145.975 96.4872 146.694 97.4758 146.649 97.5208Z" fill="white"/>
<path d="M168.984 108.711C168.939 108.756 168.13 107.902 167.366 106.689C166.602 105.475 166.197 104.352 166.287 104.352C166.332 104.307 166.827 105.386 167.59 106.554C168.31 107.767 169.073 108.666 168.984 108.711Z" fill="white"/>
<path d="M177.522 111.497C177.567 111.542 177.162 112.576 176.578 113.834C175.994 115.092 175.5 116.081 175.455 116.081C175.41 116.036 175.814 115.002 176.398 113.744C176.983 112.486 177.477 111.497 177.522 111.497Z" fill="white"/>
<path d="M178.736 99.8578C178.691 99.9027 177.657 98.7793 176.444 97.2963C175.23 95.8582 174.287 94.6449 174.332 94.5999C174.377 94.555 175.41 95.6785 176.624 97.1615C177.837 98.5995 178.781 99.8129 178.736 99.8578Z" fill="white"/>
<path d="M165.703 90.3757C165.658 90.3757 165.568 89.387 165.478 88.2186C165.433 87.0053 165.433 86.0166 165.523 86.0166C165.568 86.0166 165.658 87.0053 165.748 88.1737C165.793 89.432 165.748 90.3757 165.703 90.3757Z" fill="white"/>
<path d="M176.309 89.7915C176.309 89.8364 175.095 90.0611 173.523 90.2858C171.995 90.5105 170.736 90.6004 170.736 90.5555C170.736 90.5105 171.95 90.2858 173.523 90.0611C175.05 89.8364 176.309 89.7466 176.309 89.7915Z" fill="white"/>
<path d="M193.07 102.105C193.025 102.15 192.261 100.712 191.408 98.9144C190.554 97.1168 189.88 95.6788 189.969 95.6338C190.014 95.5889 190.778 97.0269 191.632 98.8245C192.486 100.622 193.115 102.06 193.07 102.105Z" fill="white"/>
<path d="M190.239 112.711C190.194 112.711 190.329 111.543 190.644 110.149C190.913 108.756 191.183 107.633 191.273 107.633C191.318 107.633 191.183 108.801 190.869 110.194C190.599 111.632 190.329 112.756 190.239 112.711Z" fill="white"/>
<path d="M198.014 121.114C197.969 121.114 197.34 119.586 196.666 117.654C195.992 115.721 195.497 114.148 195.542 114.104C195.587 114.104 196.216 115.631 196.891 117.564C197.565 119.496 198.059 121.069 198.014 121.114Z" fill="white"/>
<path d="M196.936 126.012C196.936 126.057 195.857 125.832 194.644 125.203C193.476 124.574 192.667 123.765 192.712 123.765C192.757 123.72 193.566 124.394 194.734 125.023C195.947 125.607 196.936 125.922 196.936 126.012Z" fill="white"/>
<path d="M206.867 137.202C206.822 137.247 206.463 136.528 206.058 135.674C205.654 134.82 205.429 134.101 205.474 134.056C205.519 134.011 205.878 134.73 206.283 135.584C206.687 136.438 206.957 137.157 206.867 137.202Z" fill="white"/>
<path d="M148.132 152.751C148.087 152.751 147.907 151.852 147.772 150.774C147.637 149.65 147.593 148.751 147.637 148.751C147.682 148.751 147.862 149.65 147.997 150.729C148.132 151.852 148.177 152.751 148.132 152.751Z" fill="white"/>
<path d="M178.645 151.987C178.6 151.987 178.735 151.088 178.96 150.055C179.185 148.976 179.409 148.122 179.499 148.167C179.544 148.167 179.409 149.066 179.185 150.1C178.96 151.178 178.69 152.032 178.645 151.987Z" fill="white"/>
<path d="M183.983 62.8699L187.938 55.9044C186.185 53.0732 185.197 49.7477 185.197 46.1526C185.197 35.8616 193.51 27.5479 203.802 27.5479C214.093 27.5479 222.406 35.8616 222.406 46.1526C222.406 56.4437 214.093 64.7574 203.802 64.7574C199.532 64.7574 195.578 63.3193 192.432 60.8477L183.983 62.8699Z" fill="#FAFAFA"/>
<path d="M183.983 62.8691C184.388 62.7793 187.039 62.1501 192.432 60.9368H192.522L192.477 60.8469L192.387 60.9368C193.466 61.7457 194.724 62.5546 196.207 63.2286C197.69 63.9027 199.397 64.442 201.33 64.6667C202.274 64.8015 203.262 64.8465 204.296 64.8015C204.79 64.7566 205.329 64.7566 205.824 64.7116C206.363 64.6218 206.857 64.5319 207.397 64.4869C209.509 64.0825 211.666 63.2736 213.688 62.0153C215.71 60.757 217.553 59.0943 219.036 57.0271C220.519 54.9599 221.642 52.4882 222.182 49.8368C222.721 47.1854 222.676 44.3093 221.957 41.568C221.238 38.8268 219.935 36.1304 217.957 33.9284L217.193 33.0746C216.924 32.8049 216.654 32.5802 216.384 32.3106C216.115 32.0859 215.845 31.7713 215.531 31.5916L214.632 30.9175C214.362 30.6928 214.003 30.513 213.688 30.2883C213.374 30.1086 213.059 29.8839 212.744 29.7041C212.43 29.5244 212.07 29.3896 211.756 29.2098C211.441 29.075 211.127 28.8952 210.767 28.7604C208.071 27.6819 205.195 27.2774 202.408 27.4572C199.667 27.6369 197.016 28.4458 194.769 29.7041C192.477 30.9624 190.589 32.6701 189.106 34.5575C187.623 36.445 186.59 38.5122 185.916 40.5794C185.287 42.6466 185.107 44.7138 185.107 46.6461C185.152 48.5785 185.511 50.3311 186.006 51.8591C186.5 53.387 187.174 54.7352 187.893 55.8587V55.8137C185.421 60.3526 184.208 62.5546 183.983 62.8691C184.163 62.5096 185.421 60.3526 187.983 55.9485V55.9036V55.8587C187.309 54.7352 186.635 53.4319 186.14 51.8591C185.646 50.3311 185.287 48.5785 185.242 46.6911C185.242 44.8036 185.421 42.7364 186.051 40.7142C186.68 38.647 187.758 36.6247 189.196 34.7373C190.679 32.8948 192.567 31.2321 194.814 29.9738C197.061 28.7155 199.667 27.9515 202.408 27.7268C205.15 27.5471 207.981 27.9515 210.632 28.9851C210.992 29.075 211.306 29.2547 211.621 29.4345C211.935 29.6143 212.25 29.7491 212.61 29.9288C212.924 30.1086 213.239 30.2883 213.553 30.513C213.868 30.6928 214.182 30.8725 214.452 31.0972L215.351 31.7713C215.665 31.996 215.89 32.2657 216.205 32.4904C216.474 32.76 216.789 32.9847 217.014 33.2543L217.778 34.0632C219.71 36.2652 221.013 38.9166 221.732 41.613C222.406 44.3543 222.451 47.1405 221.957 49.7919C221.418 52.4433 220.339 54.87 218.856 56.8922C217.373 58.9594 215.531 60.6222 213.553 61.8355C211.576 63.0938 209.419 63.8578 207.352 64.3072C206.812 64.3971 206.318 64.4869 205.779 64.5319C205.285 64.5768 204.745 64.5768 204.251 64.6218C203.262 64.6667 202.274 64.6218 201.33 64.4869C199.442 64.2622 197.735 63.723 196.252 63.0489C194.769 62.3748 193.51 61.6108 192.432 60.757L192.072 60.4874L192.342 60.8469L192.387 60.757C187.039 62.1501 184.388 62.7793 183.983 62.8691Z" fill="#263238"/>
<path d="M208.832 45.3874C208.832 46.3761 209.64 47.185 210.629 47.185C211.618 47.185 212.427 46.3761 212.427 45.3874C212.427 44.3987 211.618 43.5898 210.629 43.5898C209.64 43.5898 208.832 44.3987 208.832 45.3874Z" fill="#263238"/>
<path d="M201.552 45.3874C201.552 46.3761 202.361 47.185 203.349 47.185C204.338 47.185 205.147 46.3761 205.147 45.3874C205.147 44.3987 204.338 43.5898 203.349 43.5898C202.361 43.5898 201.552 44.3987 201.552 45.3874Z" fill="#263238"/>
<path d="M194.27 44.4901C193.775 45.3439 194.045 46.4674 194.944 46.9617C195.797 47.456 196.921 47.1864 197.415 46.2876C197.91 45.4338 197.64 44.3103 196.741 43.816C195.887 43.3216 194.764 43.6362 194.27 44.4901Z" fill="#263238"/>
</g>
<defs>
<clipPath id="clip0_1_19313">
<rect width="317" height="180.25" fill="white"/>
</clipPath>
</defs>
</svg>
