<svg width="424" height="215" viewBox="0 0 424 215" fill="none" xmlns="http://www.w3.org/2000/svg">
<path opacity="0.45" d="M24.8843 51.5205C30.9839 42.6867 38.8138 35.176 47.9019 29.441C56.99 23.706 67.1482 19.8654 77.7644 18.1508C88.3807 16.4361 99.2351 16.8829 109.674 19.4641C120.112 22.0453 129.918 26.7076 138.502 33.1699C172.817 58.7919 179.395 109.646 154.095 144.375L115.617 197.752C114.699 199.026 113.538 200.108 112.2 200.934C110.862 201.76 109.374 202.315 107.82 202.566C106.267 202.818 104.679 202.761 103.148 202.399C101.617 202.038 100.172 201.378 98.8967 200.459L45.3768 161.991C10.5786 136.988 0.596787 86.7536 24.8843 51.5205Z" fill="#663AA3"/>
<path opacity="0.45" d="M88.8701 17.0669C99.6209 16.8445 110.306 18.7943 120.281 22.799C130.256 26.8036 139.316 32.7803 146.914 40.369C154.512 47.9577 160.492 57.0015 164.493 66.9559C168.495 76.9103 170.434 87.5694 170.196 98.2912C169.276 141.094 131.695 176.029 88.7551 175.983H22.7925C21.2131 175.983 19.6492 175.672 18.1909 175.067C16.7326 174.462 15.4086 173.576 14.2949 172.458C13.1813 171.341 12.3001 170.016 11.702 168.558C11.1039 167.1 10.8007 165.539 10.8098 163.963V98.1536C10.9248 55.3967 45.999 17.9615 88.8701 17.0669Z" fill="#663AA3"/>
<path opacity="0.45" d="M53.7483 26.0589C63.2869 21.1009 73.7334 18.1206 84.458 17.2976C95.1826 16.4747 105.963 17.8262 116.15 21.2706C126.337 24.715 135.719 30.1811 143.73 37.3392C151.742 44.4974 158.217 53.1994 162.766 62.9207C180.935 101.709 162.766 149.627 124.242 168.551L65.064 197.66C63.6505 198.365 62.1108 198.784 60.534 198.892C58.9572 199 57.3744 198.796 55.8774 198.29C54.3803 197.785 52.9985 196.988 51.8119 195.947C50.6254 194.906 49.6575 193.64 48.9644 192.223L19.847 133.203C0.895464 94.8277 15.7071 45.8775 53.7483 26.0589Z" fill="#663AA3"/>
<path d="M151.796 146.393C144.085 155.586 134.46 162.994 123.589 168.104C112.719 173.214 100.863 175.902 88.8459 175.983H64.8115L45.3769 162.014C35.493 154.779 27.3433 145.446 21.5163 134.688C15.6894 123.93 12.3306 112.015 11.6826 99.8051C11.3111 93.668 11.6662 87.5086 12.7406 81.4545C14.5963 70.7569 18.7464 60.5851 24.9073 51.6348C30.9937 42.8119 38.8195 35.3191 47.9068 29.614C48.8268 29.0176 49.7698 28.4212 50.7128 27.8937C51.6557 27.3661 52.7597 26.7238 53.8177 26.1733C56.3745 24.827 59.0087 23.6321 61.7065 22.5949L64.3975 21.4709C65.1565 21.1957 65.9154 20.9434 66.6974 20.714L68.0544 20.3011C69.4344 19.8882 70.8373 19.5212 72.2403 19.2001L74.1033 18.7872C75.9662 18.3743 77.8522 18.0302 79.7381 17.7779L81.3711 17.5944H81.6471L82.7971 17.4338H83.4871L86.477 17.2274H87.121H87.489C87.941 17.2045 88.3939 17.2045 88.8459 17.2274H90.5019C91.0687 17.1924 91.6371 17.1924 92.2039 17.2274C93.3308 17.2274 94.5038 17.2274 95.5388 17.365C96.5738 17.5026 97.6547 17.5026 98.6897 17.6403H99.7017L102.002 17.9385H102.531C103.359 18.0761 104.164 18.1908 104.969 18.3513H105.222C106.234 18.5119 107.223 18.7413 108.235 18.9477H108.373C109.361 19.1542 110.327 19.4065 111.293 19.6818C111.822 19.8194 112.351 19.957 112.88 20.1405L113.869 20.4158L115.065 20.8057C115.203 20.8271 115.336 20.8738 115.456 20.9434C116.031 21.1039 116.583 21.2874 117.135 21.4939C117.687 21.7003 118.561 22.0215 119.251 22.3197C119.941 22.6179 120.125 22.6408 120.539 22.8014L121.804 23.3289L123.023 23.8795L123.46 24.04L124.196 24.407L124.955 24.7741L125.461 25.0034L125.691 25.1181L126.45 25.5081H126.68L127.577 25.9898L127.853 26.1503H128.106L128.474 26.3339L128.704 26.4715L129.923 27.1596L130.245 27.3431L130.544 27.5037L131.234 27.9166L131.947 28.3524L132.223 28.513C132.651 28.759 133.065 29.027 133.465 29.3158C134 29.6094 134.515 29.939 135.006 30.3022C135.581 30.6921 136.156 31.0591 136.708 31.472C137.95 32.3207 139.146 33.2612 140.342 34.2017L141.147 34.8669C141.288 34.9692 141.418 35.0844 141.538 35.211L142.895 36.3579L143.079 36.4955C164.675 55.9242 173.277 85.5834 167.895 113.04C166.779 118.75 165.036 124.319 162.697 129.648C159.776 135.66 156.114 141.285 151.796 146.393Z" fill="#663AA3"/>
<path d="M43.6997 122.536C43.7042 124.057 43.2562 125.545 42.4124 126.812C41.5685 128.078 40.3668 129.067 38.9593 129.652C37.5519 130.237 36.002 130.393 34.5058 130.099C33.0097 129.805 31.6347 129.075 30.5549 128.001C29.475 126.927 28.7389 125.558 28.4398 124.067C28.1406 122.576 28.2919 121.029 28.8743 119.624C29.4568 118.219 30.4443 117.017 31.7119 116.172C32.9794 115.326 34.47 114.875 35.9948 114.875C37.0056 114.872 38.007 115.068 38.9416 115.452C39.8763 115.835 40.7258 116.399 41.4416 117.111C42.1574 117.823 42.7252 118.668 43.1127 119.599C43.5002 120.53 43.6997 121.528 43.6997 122.536Z" fill="#FFE8D7"/>
<path d="M93.0098 166.234C93.0098 166.234 137.652 150.384 123.392 101.113C123.277 100.764 123.284 100.386 123.411 100.042C123.539 99.6974 123.779 99.4059 124.093 99.2147C124.407 99.0235 124.777 98.9437 125.143 98.9884C125.508 99.0332 125.847 99.1997 126.106 99.461C132.063 105.264 142.206 112.536 150.646 106.342C155.659 102.42 159.181 96.9098 160.628 90.7215C160.723 90.3316 160.958 89.9902 161.29 89.7627C161.621 89.5352 162.025 89.4377 162.424 89.4889C162.823 89.54 163.189 89.7363 163.452 90.0399C163.714 90.3436 163.856 90.7333 163.848 91.1344C164.193 114.807 156.005 158.275 93.0098 166.234Z" fill="#FFE8D7"/>
<path d="M143.286 106.274C148.303 106.274 152.371 102.217 152.371 97.213C152.371 92.2089 148.303 88.1523 143.286 88.1523C138.269 88.1523 134.201 92.2089 134.201 97.213C134.201 102.217 138.269 106.274 143.286 106.274Z" fill="#FFE8D7"/>
<path d="M106.464 121.711C109.546 131.299 109.891 139.649 107.453 146.53C103.451 157.77 92.7103 162.587 84.4535 164.72C80.5754 165.714 76.5898 166.23 72.5858 166.257C38.0865 166.257 19.687 127.262 19.687 126.918C18.721 124.762 20.1929 123.477 21.9869 124.991C23.2613 126.067 24.5893 127.077 25.9658 128.019C37.0746 135.612 45.2624 131.643 48.8043 119.738C48.9161 119.392 49.1426 119.093 49.4468 118.892C49.751 118.691 50.1148 118.599 50.4785 118.631C50.8421 118.663 51.1841 118.817 51.4482 119.068C51.7124 119.319 51.883 119.653 51.9322 120.014C53.7952 137.951 60.7411 164.514 85.9715 157.541C92.1124 155.522 98.8512 151.668 101.427 144.374C103.382 138.869 103.037 131.896 100.415 123.73C98.5437 118.425 96.2837 113.266 93.6533 108.292C91.1224 103.519 88.9097 98.5838 87.0295 93.52C82.8896 81.7068 82.8666 69.4807 87.0295 59.9155C90.5093 52.0394 96.9149 45.8153 104.9 42.5512C105.299 42.3826 105.727 42.2938 106.16 42.2902C106.593 42.2865 107.023 42.3679 107.424 42.5298C107.826 42.6917 108.191 42.9308 108.5 43.2336C108.809 43.5364 109.055 43.8969 109.224 44.2946C109.393 44.6922 109.482 45.1191 109.486 45.551C109.489 45.9829 109.408 46.4114 109.245 46.8118C109.083 47.2122 108.843 47.5769 108.54 47.8849C108.236 48.1929 107.875 48.4383 107.476 48.6069C101.063 51.2211 95.9062 56.1995 93.0783 62.5075C89.5824 70.5588 89.6744 81.0875 93.2853 91.3867C95.0711 96.1784 97.1606 100.852 99.5412 105.379C102.289 110.627 104.605 116.089 106.464 121.711Z" fill="#FFE8D7"/>
<path d="M111.479 28.4906C111.479 30.1556 110.984 31.7832 110.057 33.1676C109.129 34.552 107.811 35.631 106.269 36.2682C104.726 36.9053 103.029 37.072 101.392 36.7472C99.7544 36.4224 98.2504 35.6206 97.0699 34.4433C95.8894 33.266 95.0855 31.766 94.7598 30.133C94.4342 28.5 94.6013 26.8073 95.2402 25.2691C95.879 23.7308 96.9609 22.4161 98.349 21.491C99.7371 20.566 101.369 20.0723 103.038 20.0723C104.148 20.0693 105.247 20.285 106.272 20.7069C107.298 21.1289 108.229 21.7489 109.014 22.5312C109.798 23.3135 110.42 24.2428 110.843 25.2655C111.266 26.2882 111.482 27.3843 111.479 28.4906Z" fill="#FFE8D7"/>
<path d="M135.054 40.2572C135.054 41.9232 134.559 43.5517 133.63 44.9366C132.702 46.3214 131.382 47.4004 129.838 48.0369C128.295 48.6734 126.596 48.8388 124.958 48.5121C123.32 48.1854 121.817 47.3813 120.637 46.2017C119.457 45.0221 118.655 43.52 118.332 41.8854C118.009 40.2509 118.18 38.5576 118.822 37.0197C119.464 35.4819 120.55 34.1687 121.941 33.2465C123.332 32.3242 124.966 31.8344 126.637 31.8389C127.744 31.8389 128.841 32.0568 129.863 32.4801C130.886 32.9035 131.815 33.5239 132.597 34.306C133.379 35.088 133.999 36.0162 134.42 37.0374C134.842 38.0586 135.057 39.1528 135.054 40.2572Z" fill="#FFE8D7"/>
<path d="M84.0886 28.513C84.093 29.6974 83.7438 30.8563 83.0853 31.842C82.4268 32.8277 81.489 33.5955 80.3914 34.0476C79.2937 34.4997 78.086 34.6156 76.922 34.3805C75.7581 34.1455 74.6906 33.5701 73.8558 32.7277C73.021 31.8854 72.4565 30.8142 72.2344 29.6507C72.0123 28.4871 72.1426 27.284 72.6087 26.1946C73.0747 25.1053 73.8555 24.1789 74.8514 23.5338C75.8473 22.8886 77.0133 22.5538 78.2007 22.572C79.7686 22.5901 81.2661 23.224 82.3683 24.3362C83.4706 25.4484 84.0887 26.9492 84.0886 28.513Z" fill="#FFE8D7"/>
<path d="M150.579 54.5943C150.583 55.7749 150.237 56.9302 149.582 57.9139C148.928 58.8977 147.996 59.6657 146.903 60.1206C145.811 60.5755 144.608 60.6969 143.447 60.4694C142.285 60.2419 141.217 59.6757 140.379 58.8425C139.54 58.0094 138.968 56.9468 138.736 55.7892C138.503 54.6317 138.62 53.4314 139.072 52.3403C139.524 51.2492 140.29 50.3164 141.274 49.66C142.258 49.0037 143.415 48.6533 144.599 48.6533C146.179 48.6593 147.693 49.2864 148.813 50.3986C149.932 51.5109 150.567 53.0184 150.579 54.5943Z" fill="#FFE8D7"/>
<path d="M60.9935 36.3581C60.998 36.908 60.8387 37.4468 60.5357 37.9062C60.2327 38.3657 59.7997 38.725 59.2916 38.9386C58.7835 39.1522 58.2232 39.2104 57.6819 39.1059C57.1405 39.0015 56.6425 38.7389 56.251 38.3517C55.8595 37.9645 55.5922 37.47 55.4829 36.931C55.3737 36.3919 55.4274 35.8327 55.6374 35.3242C55.8473 34.8157 56.204 34.3809 56.6621 34.0749C57.1202 33.7689 57.6592 33.6055 58.2106 33.6055C58.9447 33.6054 59.649 33.8947 60.1703 34.4103C60.6915 34.9258 60.9874 35.6259 60.9935 36.3581Z" fill="#FFE8D7"/>
<path d="M157.889 68.9539C157.894 69.5047 157.734 70.0445 157.43 70.5044C157.126 70.9644 156.691 71.3237 156.182 71.5366C155.672 71.7495 155.111 71.8064 154.569 71.7C154.027 71.5937 153.529 71.3289 153.138 70.9393C152.748 70.5498 152.482 70.0531 152.376 69.5126C152.269 68.9721 152.326 68.4121 152.539 67.904C152.753 67.3959 153.113 66.9627 153.574 66.6595C154.036 66.3562 154.577 66.1967 155.129 66.2013C155.492 66.2013 155.85 66.2725 156.185 66.4108C156.52 66.5491 156.824 66.7519 157.081 67.0075C157.337 67.2631 157.54 67.5665 157.679 67.9005C157.818 68.2345 157.889 68.5924 157.889 68.9539Z" fill="#FFE8D7"/>
<path d="M218.935 61.708C218.935 62.543 218.258 63.2199 217.423 63.2199H213.191C212.683 63.2199 212.209 62.9651 211.93 62.5416L202.514 48.2945L195.423 37.5655C194.597 36.3149 192.65 36.9 192.65 38.3991V61.708C192.65 62.543 191.973 63.2199 191.138 63.2199H187.605C186.77 63.2199 186.093 62.543 186.093 61.708V24.7007C186.093 23.8657 186.77 23.1888 187.605 23.1888H191.838C192.345 23.1888 192.818 23.4431 193.098 23.866L209.605 48.7949C210.432 50.0442 212.378 49.4586 212.378 47.9602V24.7007C212.378 23.8657 213.055 23.1888 213.89 23.1888H217.423C218.258 23.1888 218.935 23.8657 218.935 24.7007V61.708Z" fill="#220A30"/>
<path d="M225.359 47.2305C225.359 44.0479 226.011 41.2296 227.315 38.7756C228.657 36.3216 230.459 34.4236 232.721 33.0816C235.022 31.7012 237.553 31.011 240.313 31.011C242.806 31.011 244.972 31.5094 246.813 32.5064C247.547 32.8809 248.222 33.2934 248.839 33.7439C249.737 34.3998 251.299 33.803 251.299 32.6909C251.299 32.049 251.819 31.5286 252.461 31.5286H256.401C257.236 31.5286 257.913 32.2055 257.913 33.0406V61.708C257.913 62.543 257.236 63.2199 256.401 63.2199H252.472C251.824 63.2199 251.299 62.6948 251.299 62.0469C251.299 60.9172 249.695 60.3117 248.786 60.9832C248.169 61.4396 247.492 61.8593 246.755 62.2422C244.838 63.2391 242.652 63.7376 240.198 63.7376C237.476 63.7376 234.984 63.0474 232.721 61.667C230.459 60.2483 228.657 58.2927 227.315 55.8004C226.011 53.2697 225.359 50.413 225.359 47.2305ZM251.299 47.3455C251.299 45.1599 250.839 43.2619 249.919 41.6514C249.037 40.041 247.867 38.814 246.41 37.9704C244.953 37.1268 243.381 36.7051 241.694 36.7051C240.007 36.7051 238.435 37.1268 236.978 37.9704C235.521 38.7756 234.332 39.9835 233.412 41.5939C232.53 43.166 232.089 45.0449 232.089 47.2305C232.089 49.4161 232.53 51.3333 233.412 52.9821C234.332 54.6309 235.521 55.8962 236.978 56.7781C238.473 57.6217 240.045 58.0435 241.694 58.0435C243.381 58.0435 244.953 57.6217 246.41 56.7781C247.867 55.9346 249.037 54.7076 249.919 53.0971C250.839 51.4483 251.299 49.5311 251.299 47.3455Z" fill="#220A30"/>
<path d="M275.687 36.8776C274.852 36.8776 274.175 37.5545 274.175 38.3896V54.42C274.175 55.6086 274.444 56.4714 274.98 57.0082C275.556 57.5067 276.514 57.7559 277.856 57.7559H280.37C281.205 57.7559 281.882 58.4328 281.882 59.2679V61.708C281.882 62.543 281.205 63.2199 280.37 63.2199H276.706C273.753 63.2199 271.491 62.5297 269.919 61.1494C268.347 59.769 267.561 57.5258 267.561 54.42V38.3896C267.561 37.5545 266.884 36.8776 266.049 36.8776H265.334C264.499 36.8776 263.822 36.2007 263.822 35.3657V33.0406C263.822 32.2055 264.499 31.5286 265.334 31.5286H266.049C266.884 31.5286 267.561 30.8517 267.561 30.0167V25.1609C267.561 24.3258 268.238 23.6489 269.073 23.6489H272.663C273.498 23.6489 274.175 24.3259 274.175 25.1609V30.0167C274.175 30.8517 274.852 31.5286 275.687 31.5286H280.37C281.205 31.5286 281.882 32.2055 281.882 33.0406V35.3657C281.882 36.2007 281.205 36.8776 280.37 36.8776H275.687Z" fill="#220A30"/>
<path d="M291.261 27.33C290.073 27.33 289.076 26.9273 288.271 26.1221C287.465 25.3169 287.063 24.3199 287.063 23.1313C287.063 21.9426 287.465 20.9457 288.271 20.1405C289.076 19.3352 290.073 18.9326 291.261 18.9326C292.412 18.9326 293.39 19.3352 294.195 20.1405C295 20.9457 295.403 21.9426 295.403 23.1313C295.403 24.3199 295 25.3169 294.195 26.1221C293.39 26.9273 292.412 27.33 291.261 27.33ZM292.97 31.5286C293.805 31.5286 294.482 32.2055 294.482 33.0406V61.708C294.482 62.543 293.805 63.2199 292.97 63.2199H289.437C288.602 63.2199 287.925 62.543 287.925 61.708V33.0406C287.925 32.2055 288.602 31.5286 289.437 31.5286H292.97Z" fill="#220A30"/>
<path d="M316.837 63.7376C313.846 63.7376 311.143 63.0666 308.727 61.7245C306.312 60.3441 304.414 58.4269 303.033 55.9729C301.653 53.4806 300.963 50.6048 300.963 47.3455C300.963 44.1246 301.672 41.268 303.091 38.7756C304.51 36.2833 306.446 34.3661 308.9 33.024C311.354 31.682 314.096 31.011 317.125 31.011C320.154 31.011 322.896 31.682 325.35 33.024C327.804 34.3661 329.74 36.2833 331.159 38.7756C332.577 41.268 333.287 44.1246 333.287 47.3455C333.287 50.5664 332.558 53.423 331.101 55.9154C329.644 58.4078 327.65 60.3441 325.119 61.7245C322.627 63.0666 319.866 63.7376 316.837 63.7376ZM316.837 58.0435C318.524 58.0435 320.096 57.6409 321.553 56.8357C323.049 56.0304 324.257 54.8226 325.177 53.2121C326.097 51.6017 326.557 49.6462 326.557 47.3455C326.557 45.0449 326.116 43.1085 325.234 41.5364C324.353 39.926 323.183 38.7181 321.726 37.9129C320.269 37.1077 318.697 36.7051 317.01 36.7051C315.323 36.7051 313.75 37.1077 312.293 37.9129C310.875 38.7181 309.744 39.926 308.9 41.5364C308.056 43.1085 307.635 45.0449 307.635 47.3455C307.635 50.7581 308.497 53.4039 310.223 55.2827C311.987 57.1232 314.191 58.0435 316.837 58.0435Z" fill="#220A30"/>
<path d="M355.758 31.011C358.25 31.011 360.474 31.5286 362.43 32.5639C364.424 33.5992 365.977 35.133 367.089 37.1652C368.201 39.1974 368.757 41.6514 368.757 44.5272V61.708C368.757 62.543 368.08 63.2199 367.245 63.2199H363.769C362.934 63.2199 362.257 62.543 362.257 61.708V45.505C362.257 42.6675 361.548 40.5011 360.129 39.0057C358.71 37.4719 356.774 36.7051 354.32 36.7051C351.866 36.7051 349.911 37.4719 348.453 39.0057C347.035 40.5011 346.325 42.6675 346.325 45.505V61.708C346.325 62.543 345.648 63.2199 344.813 63.2199H341.28C340.445 63.2199 339.769 62.543 339.769 61.708V33.0406C339.769 32.2055 340.445 31.5286 341.28 31.5286H345.369C345.897 31.5286 346.325 31.957 346.325 32.4854C346.325 33.383 347.537 33.8579 348.263 33.3302C348.914 32.8571 349.629 32.4483 350.409 32.1038C352.096 31.3752 353.879 31.011 355.758 31.011Z" fill="#220A30"/>
<path d="M374.935 47.2305C374.935 44.0479 375.586 41.2296 376.89 38.7756C378.232 36.3216 380.034 34.4236 382.297 33.0816C384.597 31.7012 387.128 31.011 389.889 31.011C392.381 31.011 394.548 31.5094 396.388 32.5064C397.122 32.8809 397.798 33.2934 398.414 33.7439C399.313 34.3998 400.874 33.803 400.874 32.6909C400.874 32.049 401.395 31.5286 402.037 31.5286H405.977C406.812 31.5286 407.489 32.2055 407.489 33.0406V61.708C407.489 62.543 406.812 63.2199 405.977 63.2199H402.047C401.399 63.2199 400.874 62.6948 400.874 62.0469C400.874 60.9172 399.27 60.3117 398.361 60.9832C397.744 61.4396 397.067 61.8593 396.331 62.2422C394.413 63.2391 392.228 63.7376 389.774 63.7376C387.051 63.7376 384.559 63.0474 382.297 61.667C380.034 60.2483 378.232 58.2927 376.89 55.8004C375.586 53.2697 374.935 50.413 374.935 47.2305ZM400.874 47.3455C400.874 45.1599 400.414 43.2619 399.494 41.6514C398.612 40.041 397.443 38.814 395.985 37.9704C394.528 37.1268 392.956 36.7051 391.269 36.7051C389.582 36.7051 388.01 37.1268 386.553 37.9704C385.096 38.7756 383.907 39.9835 382.987 41.5939C382.105 43.166 381.664 45.0449 381.664 47.2305C381.664 49.4161 382.105 51.3333 382.987 52.9821C383.907 54.6309 385.096 55.8962 386.553 56.7781C388.048 57.6217 389.62 58.0435 391.269 58.0435C392.956 58.0435 394.528 57.6217 395.985 56.7781C397.443 55.9346 398.612 54.7076 399.494 53.0971C400.414 51.4483 400.874 49.5311 400.874 47.3455Z" fill="#220A30"/>
<path d="M421.146 20.6581C421.981 20.6581 422.658 21.335 422.658 22.17V61.708C422.658 62.543 421.981 63.2199 421.146 63.2199H417.613C416.778 63.2199 416.101 62.543 416.101 61.708V22.17C416.101 21.335 416.778 20.6581 417.613 20.6581H421.146Z" fill="#220A30"/>
<path d="M199.264 118.657C196.58 118.657 194.164 118.197 192.017 117.277C189.87 116.318 188.183 114.976 186.956 113.251C186.005 111.913 185.422 110.403 185.208 108.72C185.103 107.891 185.792 107.211 186.627 107.211H190.749C191.532 107.211 192.165 107.817 192.378 108.571C192.696 109.697 193.285 110.663 194.145 111.468C195.372 112.579 197.079 113.135 199.264 113.135C201.526 113.135 203.29 112.599 204.556 111.525C205.821 110.413 206.454 108.994 206.454 107.269C206.454 105.927 206.051 104.834 205.246 103.99C204.479 103.147 203.501 102.495 202.313 102.035C201.162 101.575 199.552 101.076 197.481 100.539C194.874 99.8493 192.746 99.1591 191.097 98.4689C189.486 97.7404 188.106 96.6284 186.956 95.133C185.805 93.6376 185.23 91.6437 185.23 89.1513C185.23 86.8507 185.805 84.8376 186.956 83.1121C188.106 81.3867 189.717 80.0638 191.787 79.1435C193.858 78.2233 196.254 77.7631 198.977 77.7631C202.849 77.7631 206.013 78.7409 208.467 80.6965C210.545 82.2953 211.85 84.4008 212.382 87.013C212.558 87.8775 211.853 88.6337 210.971 88.6337H206.758C205.969 88.6337 205.339 88.0122 205.064 87.2729C204.733 86.3847 204.142 85.5921 203.29 84.8951C202.025 83.8598 200.357 83.3422 198.286 83.3422C196.408 83.3422 194.874 83.8215 193.685 84.7801C192.496 85.7387 191.902 87.1191 191.902 88.9212C191.902 90.1483 192.266 91.1644 192.995 91.9696C193.762 92.7365 194.72 93.35 195.871 93.8101C197.021 94.2702 198.593 94.7687 200.587 95.3055C203.233 96.0341 205.38 96.7626 207.029 97.4911C208.716 98.2197 210.135 99.3508 211.285 100.885C212.474 102.38 213.068 104.393 213.068 106.924C213.068 108.956 212.512 110.873 211.4 112.675C210.326 114.478 208.735 115.935 206.626 117.047C204.556 118.12 202.102 118.657 199.264 118.657Z" fill="#220A30"/>
<path d="M234.551 118.772C231.56 118.772 228.857 118.101 226.441 116.759C224.026 115.379 222.128 113.461 220.747 111.007C219.367 108.515 218.677 105.639 218.677 102.38C218.677 99.1591 219.386 96.3025 220.805 93.8101C222.224 91.3177 224.16 89.4005 226.614 88.0585C229.068 86.7165 231.81 86.0454 234.839 86.0454C237.868 86.0454 240.609 86.7165 243.063 88.0585C245.517 89.4005 247.454 91.3177 248.873 93.8101C250.291 96.3025 251.001 99.1591 251.001 102.38C251.001 105.601 250.272 108.458 248.815 110.95C247.358 113.442 245.364 115.379 242.833 116.759C240.341 118.101 237.58 118.772 234.551 118.772ZM234.551 113.078C236.238 113.078 237.81 112.675 239.267 111.87C240.763 111.065 241.971 109.857 242.891 108.247C243.811 106.636 244.271 104.681 244.271 102.38C244.271 100.079 243.83 98.143 242.948 96.5709C242.067 94.9604 240.897 93.7526 239.44 92.9474C237.983 92.1421 236.411 91.7395 234.724 91.7395C233.037 91.7395 231.464 92.1421 230.007 92.9474C228.589 93.7526 227.457 94.9604 226.614 96.5709C225.77 98.143 225.349 100.079 225.349 102.38C225.349 105.793 226.211 108.438 227.937 110.317C229.701 112.158 231.905 113.078 234.551 113.078Z" fill="#220A30"/>
<path d="M255.297 102.38C255.297 99.1207 255.949 96.2641 257.252 93.8101C258.594 91.3177 260.435 89.4005 262.774 88.0585C265.113 86.7165 267.797 86.0454 270.826 86.0454C274.661 86.0454 277.824 86.9657 280.316 88.8062C282.36 90.2613 283.865 92.2287 284.834 94.7086C285.194 95.631 284.468 96.5709 283.477 96.5709H279.418C278.783 96.5709 278.228 96.1676 277.94 95.6019C277.373 94.4856 276.592 93.5816 275.6 92.8898C274.335 92.0079 272.743 91.567 270.826 91.567C268.142 91.567 265.995 92.5256 264.384 94.4428C262.812 96.3216 262.026 98.9674 262.026 102.38C262.026 105.793 262.812 108.458 264.384 110.375C265.995 112.292 268.142 113.251 270.826 113.251C274.235 113.251 276.608 111.906 277.945 109.216C278.227 108.649 278.782 108.247 279.416 108.247H283.431C284.435 108.247 285.162 109.212 284.771 110.137C283.777 112.489 282.273 114.428 280.259 115.954C277.728 117.833 274.584 118.772 270.826 118.772C267.797 118.772 265.113 118.101 262.774 116.759C260.435 115.379 258.594 113.461 257.252 111.007C255.949 108.515 255.297 105.639 255.297 102.38Z" fill="#220A30"/>
<path d="M295.306 82.3644C294.117 82.3644 293.12 81.9618 292.315 81.1566C291.509 80.3514 291.107 79.3544 291.107 78.1658C291.107 76.9771 291.509 75.9801 292.315 75.1749C293.12 74.3697 294.117 73.9671 295.306 73.9671C296.456 73.9671 297.434 74.3697 298.239 75.1749C299.044 75.9801 299.447 76.9771 299.447 78.1658C299.447 79.3544 299.044 80.3514 298.239 81.1566C297.434 81.9618 296.456 82.3644 295.306 82.3644ZM297.014 86.5631C297.849 86.5631 298.526 87.24 298.526 88.075V116.742C298.526 117.577 297.849 118.254 297.014 118.254H293.482C292.647 118.254 291.97 117.577 291.97 116.742V88.075C291.97 87.24 292.647 86.5631 293.482 86.5631H297.014Z" fill="#220A30"/>
<path d="M304.949 102.265C304.949 99.0824 305.601 96.2641 306.905 93.8101C308.247 91.3561 310.049 89.4581 312.311 88.116C314.612 86.7356 317.143 86.0454 319.904 86.0454C322.396 86.0454 324.562 86.5439 326.403 87.5409C327.137 87.9153 327.812 88.3279 328.429 88.7784C329.327 89.4343 330.889 88.8375 330.889 87.7254C330.889 87.0835 331.409 86.5631 332.051 86.5631H335.991C336.826 86.5631 337.503 87.24 337.503 88.075V116.742C337.503 117.577 336.826 118.254 335.991 118.254H332.062C331.414 118.254 330.889 117.729 330.889 117.081C330.889 115.952 329.285 115.346 328.376 116.018C327.759 116.474 327.082 116.894 326.345 117.277C324.428 118.274 322.242 118.772 319.788 118.772C317.066 118.772 314.574 118.082 312.311 116.701C310.049 115.283 308.247 113.327 306.905 110.835C305.601 108.304 304.949 105.448 304.949 102.265ZM330.889 102.38C330.889 100.194 330.429 98.2964 329.509 96.6859C328.627 95.0755 327.457 93.8484 326 93.0049C324.543 92.1613 322.971 91.7395 321.284 91.7395C319.597 91.7395 318.025 92.1613 316.568 93.0049C315.11 93.8101 313.922 95.0179 313.002 96.6284C312.12 98.2005 311.679 100.079 311.679 102.265C311.679 104.451 312.12 106.368 313.002 108.017C313.922 109.665 315.11 110.931 316.568 111.813C318.063 112.656 319.635 113.078 321.284 113.078C322.971 113.078 324.543 112.656 326 111.813C327.457 110.969 328.627 109.742 329.509 108.132C330.429 106.483 330.889 104.566 330.889 102.38Z" fill="#220A30"/>
<path d="M351.16 75.6926C351.995 75.6926 352.672 76.3695 352.672 77.2045V116.742C352.672 117.577 351.995 118.254 351.16 118.254H347.627C346.792 118.254 346.115 117.577 346.115 116.742V77.2045C346.115 76.3695 346.792 75.6926 347.627 75.6926H351.16Z" fill="#220A30"/>
<path d="M199.264 173.063C196.58 173.063 194.164 172.603 192.017 171.683C189.87 170.724 188.183 169.382 186.956 167.657C186.005 166.319 185.422 164.809 185.208 163.126C185.103 162.298 185.792 161.618 186.627 161.618H190.749C191.532 161.618 192.165 162.224 192.378 162.977C192.696 164.104 193.285 165.069 194.145 165.874C195.372 166.986 197.079 167.542 199.264 167.542C201.526 167.542 203.29 167.005 204.556 165.931C205.821 164.819 206.454 163.401 206.454 161.675C206.454 160.333 206.051 159.24 205.246 158.397C204.479 157.553 203.501 156.901 202.313 156.441C201.162 155.981 199.552 155.483 197.481 154.946C194.874 154.256 192.746 153.565 191.097 152.875C189.486 152.147 188.106 151.035 186.956 149.539C185.805 148.044 185.23 146.05 185.23 143.558C185.23 141.257 185.805 139.244 186.956 137.519C188.106 135.793 189.717 134.47 191.787 133.55C193.858 132.63 196.254 132.17 198.977 132.17C202.849 132.17 206.013 133.147 208.467 135.103C210.545 136.702 211.85 138.807 212.382 141.419C212.558 142.284 211.853 143.04 210.971 143.04H206.758C205.969 143.04 205.339 142.419 205.064 141.679C204.733 140.791 204.142 139.999 203.29 139.302C202.025 138.266 200.357 137.749 198.286 137.749C196.408 137.749 194.874 138.228 193.685 139.187C192.496 140.145 191.902 141.525 191.902 143.328C191.902 144.555 192.266 145.571 192.995 146.376C193.762 147.143 194.72 147.756 195.871 148.217C197.021 148.677 198.593 149.175 200.587 149.712C203.233 150.44 205.38 151.169 207.029 151.898C208.716 152.626 210.135 153.757 211.285 155.291C212.474 156.786 213.068 158.799 213.068 161.33C213.068 163.362 212.512 165.28 211.4 167.082C210.326 168.884 208.735 170.341 206.626 171.453C204.556 172.527 202.102 173.063 199.264 173.063Z" fill="#220A30"/>
<path d="M247.993 140.97C248.828 140.97 249.505 141.646 249.505 142.481V171.149C249.505 171.984 248.828 172.661 247.993 172.661H243.915C243.381 172.661 242.948 172.228 242.948 171.694C242.948 170.779 241.689 170.291 240.947 170.828C240.319 171.282 239.625 171.682 238.865 172.028C237.216 172.757 235.452 173.121 233.573 173.121C231.081 173.121 228.838 172.603 226.844 171.568C224.888 170.533 223.336 168.999 222.185 166.967C221.073 164.935 220.517 162.48 220.517 159.605V142.481C220.517 141.646 221.194 140.97 222.029 140.97H225.505C226.34 140.97 227.017 141.646 227.017 142.481V158.627C227.017 161.464 227.726 163.65 229.145 165.184C230.563 166.679 232.5 167.427 234.954 167.427C237.408 167.427 239.344 166.679 240.763 165.184C242.22 163.65 242.948 161.464 242.948 158.627V142.481C242.948 141.646 243.625 140.97 244.46 140.97H247.993Z" fill="#220A30"/>
<path d="M296.52 140.452C299.012 140.452 301.236 140.97 303.192 142.005C305.185 143.04 306.738 144.574 307.85 146.606C309.001 148.638 309.576 151.092 309.576 153.968V171.149C309.576 171.984 308.899 172.661 308.064 172.661H304.588C303.753 172.661 303.076 171.984 303.076 171.149V154.946C303.076 152.108 302.367 149.942 300.948 148.447C299.53 146.913 297.593 146.146 295.139 146.146C292.685 146.146 290.73 146.913 289.273 148.447C287.854 149.942 287.145 152.108 287.145 154.946V171.149C287.145 171.984 286.468 172.661 285.633 172.661H282.157C281.322 172.661 280.645 171.984 280.645 171.149V154.946C280.645 152.108 279.936 149.942 278.517 148.447C277.098 146.913 275.162 146.146 272.708 146.146C270.254 146.146 268.298 146.913 266.841 148.447C265.423 149.942 264.713 152.108 264.713 154.946V171.149C264.713 171.984 264.036 172.661 263.201 172.661H259.668C258.833 172.661 258.156 171.984 258.156 171.149V142.481C258.156 141.646 258.833 140.97 259.668 140.97H263.757C264.285 140.97 264.713 141.398 264.713 141.926C264.713 142.824 265.925 143.299 266.651 142.771C267.302 142.298 268.017 141.889 268.797 141.545C270.446 140.816 272.21 140.452 274.088 140.452C276.619 140.452 278.881 140.989 280.875 142.062C281.993 142.664 282.965 143.416 283.794 144.319C284.626 145.225 286.309 145.213 287.153 144.317C287.935 143.488 288.871 142.775 289.963 142.177C291.995 141.027 294.181 140.452 296.52 140.452Z" fill="#220A30"/>
<path d="M356.282 140.452C358.775 140.452 360.999 140.97 362.954 142.005C364.948 143.04 366.501 144.574 367.613 146.606C368.763 148.638 369.338 151.092 369.338 153.968V171.149C369.338 171.984 368.662 172.661 367.827 172.661H364.351C363.516 172.661 362.839 171.984 362.839 171.149V154.946C362.839 152.108 362.13 149.942 360.711 148.447C359.292 146.913 357.356 146.146 354.902 146.146C352.448 146.146 350.492 146.913 349.035 148.447C347.617 149.942 346.907 152.108 346.907 154.946V171.149C346.907 171.984 346.23 172.661 345.395 172.661H341.92C341.085 172.661 340.408 171.984 340.408 171.149V154.946C340.408 152.108 339.699 149.942 338.28 148.447C336.861 146.913 334.925 146.146 332.471 146.146C330.017 146.146 328.061 146.913 326.604 148.447C325.185 149.942 324.476 152.108 324.476 154.946V171.149C324.476 171.984 323.799 172.661 322.964 172.661H319.431C318.596 172.661 317.919 171.984 317.919 171.149V142.481C317.919 141.646 318.596 140.97 319.431 140.97H323.519C324.048 140.97 324.476 141.398 324.476 141.926C324.476 142.824 325.687 143.299 326.414 142.771C327.065 142.298 327.78 141.889 328.56 141.545C330.208 140.816 331.972 140.452 333.851 140.452C336.382 140.452 338.644 140.989 340.638 142.062C341.755 142.664 342.728 143.416 343.557 144.319C344.388 145.225 346.072 145.213 346.916 144.317C347.697 143.488 348.634 142.775 349.726 142.177C351.758 141.027 353.943 140.452 356.282 140.452Z" fill="#220A30"/>
<path d="M381.018 136.771C379.829 136.771 378.832 136.368 378.027 135.563C377.222 134.758 376.819 133.761 376.819 132.572C376.819 131.384 377.222 130.387 378.027 129.581C378.832 128.776 379.829 128.373 381.018 128.373C382.168 128.373 383.146 128.776 383.951 129.581C384.756 130.387 385.159 131.384 385.159 132.572C385.159 133.761 384.756 134.758 383.951 135.563C383.146 136.368 382.168 136.771 381.018 136.771ZM382.727 140.97C383.562 140.97 384.239 141.646 384.239 142.481V171.149C384.239 171.984 383.562 172.661 382.727 172.661H379.194C378.359 172.661 377.682 171.984 377.682 171.149V142.481C377.682 141.646 378.359 140.97 379.194 140.97H382.727Z" fill="#220A30"/>
<path d="M402.009 146.318C401.174 146.318 400.497 146.995 400.497 147.83V163.861C400.497 165.05 400.765 165.912 401.302 166.449C401.877 166.948 402.836 167.197 404.178 167.197H406.692C407.527 167.197 408.204 167.874 408.204 168.709V171.149C408.204 171.984 407.527 172.661 406.692 172.661H403.028C400.075 172.661 397.813 171.971 396.241 170.59C394.669 169.21 393.883 166.967 393.883 163.861V147.83C393.883 146.995 393.206 146.318 392.371 146.318H391.656C390.821 146.318 390.144 145.642 390.144 144.807V142.481C390.144 141.646 390.821 140.97 391.656 140.97H392.371C393.206 140.97 393.883 140.293 393.883 139.458V134.602C393.883 133.767 394.559 133.09 395.394 133.09H398.985C399.82 133.09 400.497 133.767 400.497 134.602V139.458C400.497 140.293 401.174 140.97 402.009 140.97H406.692C407.527 140.97 408.204 141.646 408.204 142.481V144.807C408.204 145.642 407.527 146.318 406.692 146.318H402.009Z" fill="#220A30"/>
</svg>
