<svg width="40" height="39" viewBox="0 0 40 39" fill="none" xmlns="http://www.w3.org/2000/svg">
<path fill-rule="evenodd" clip-rule="evenodd" d="M20.1812 0C14.9702 0 14.3162 0.0228 12.2692 0.1159C10.2262 0.2095 8.83224 0.5328 7.61124 1.0075C6.34924 1.4976 5.27923 2.1531 4.21223 3.2203C3.14423 4.2868 2.48923 5.3575 1.99723 6.6192C1.52123 7.8397 1.19823 9.2346 1.10623 11.2767C1.01423 13.3236 0.990234 13.9781 0.990234 19.1898C0.990234 24.4014 1.01323 25.0534 1.10623 27.1004C1.20023 29.1433 1.52323 30.5377 1.99723 31.7579C2.48823 33.0199 3.14424 34.0906 4.21124 35.1573C5.27724 36.2247 6.34824 36.882 7.60924 37.372C8.83024 37.8465 10.2252 38.1701 12.2672 38.2636C14.3142 38.3567 14.9682 38.3795 20.1792 38.3795C25.3912 38.3795 26.0432 38.3567 28.0902 38.2636C30.1332 38.1701 31.5292 37.8465 32.7502 37.372C34.0122 36.882 35.0812 36.2247 36.1472 35.1573C37.2142 34.0906 37.8702 33.0199 38.3622 31.7582C38.8342 30.5377 39.1572 29.1429 39.2532 27.1007C39.3452 25.0538 39.3692 24.4014 39.3692 19.1898C39.3692 13.9781 39.3452 13.324 39.2532 11.2772C39.1572 9.2343 38.8342 7.8397 38.3622 6.6197C37.8702 5.3575 37.2142 4.2868 36.1472 3.2203C35.0792 2.1528 34.0122 1.4971 32.7492 1.0075C31.5252 0.5328 30.1302 0.2095 28.0872 0.1159C26.0402 0.0228 25.3892 0 20.1752 0H20.1812ZM19.5412 3.4576H19.5422L20.1812 3.4578C25.3052 3.4578 25.9122 3.4762 27.9362 3.5681C29.8072 3.6537 30.8222 3.9663 31.4992 4.2289C32.3942 4.5768 33.0332 4.9926 33.7042 5.6643C34.3752 6.3359 34.7912 6.9756 35.1402 7.8711C35.4022 8.5467 35.7162 9.5621 35.8012 11.4331C35.8932 13.4561 35.9132 14.0638 35.9132 19.1851C35.9132 24.3063 35.8932 24.914 35.8012 26.937C35.7152 28.808 35.4022 29.8234 35.1402 30.499C34.7922 31.3945 34.3752 32.0323 33.7042 32.7034C33.0322 33.3751 32.3952 33.7909 31.4992 34.1388C30.8232 34.4026 29.8072 34.7144 27.9362 34.7999C25.9132 34.8919 25.3052 34.9119 20.1812 34.9119C15.0572 34.9119 14.4502 34.8919 12.4272 34.7999C10.5562 34.7135 9.54123 34.401 8.86423 34.1383C7.96824 33.7905 7.32923 33.3746 6.65723 32.703C5.98523 32.0314 5.57024 31.3933 5.22124 30.4974C4.95824 29.8219 4.64523 28.8063 4.56023 26.9353C4.46823 24.9125 4.45023 24.3047 4.45023 19.1803C4.45023 14.0558 4.46823 13.4513 4.56023 11.4283C4.64623 9.5573 4.95824 8.542 5.22124 7.8655C5.56924 6.9699 5.98523 6.3304 6.65723 5.6587C7.32923 4.9871 7.96824 4.5712 8.86423 4.2226C9.54023 3.9588 10.5562 3.647 12.4272 3.5609C14.1972 3.481 14.8832 3.457 18.4602 3.453V3.4578C18.7942 3.4573 19.1542 3.4575 19.5412 3.4576ZM28.1222 8.9467C28.1222 7.6749 29.1532 6.6447 30.4252 6.6447V6.6439C31.6962 6.6439 32.7272 7.6753 32.7272 8.9467C32.7272 10.218 31.6962 11.2494 30.4252 11.2494C29.1532 11.2494 28.1222 10.218 28.1222 8.9467ZM20.1812 9.3348C14.7392 9.335 10.3272 13.7474 10.3272 19.1896C10.3272 24.6319 14.7392 29.0424 20.1812 29.0424C25.6242 29.0424 30.0352 24.6319 30.0352 19.1896C30.0352 13.7472 25.6232 9.3348 20.1812 9.3348ZM26.5782 19.1895C26.5782 15.6565 23.7142 12.7929 20.1812 12.7929C16.6482 12.7929 13.7852 15.6565 13.7852 19.1895C13.7852 22.722 16.6482 25.5861 20.1812 25.5861C23.7142 25.5861 26.5782 22.722 26.5782 19.1895Z" fill="#663AA3"/>
</svg>
