<svg width="37" height="36" viewBox="0 0 37 36" fill="none" xmlns="http://www.w3.org/2000/svg">
<path fill-rule="evenodd" clip-rule="evenodd" d="M0.343262 3.0076C0.343262 2.21 0.660274 1.445 1.22427 0.880903C1.78827 0.316903 2.55326 3.46622e-06 3.35126 3.46622e-06H33.3323C33.7273 -0.000596534 34.1193 0.0767036 34.4843 0.227604C34.8503 0.378404 35.1823 0.599903 35.4613 0.879303C35.7413 1.1587 35.9633 1.4904 36.1143 1.8557C36.2653 2.2209 36.3433 2.6123 36.3433 3.0076V32.9891C36.3433 33.3845 36.2663 33.7761 36.1153 34.1414C35.9643 34.5068 35.7423 34.8389 35.4633 35.1185C35.1833 35.3982 34.8513 35.62 34.4863 35.7712C34.1213 35.9225 33.7293 36.0002 33.3343 36H3.35126C2.95626 36 2.56425 35.9221 2.19925 35.7709C1.83425 35.6197 1.50327 35.398 1.22327 35.1185C0.944267 34.8391 0.723259 34.5073 0.571259 34.1422C0.420259 33.7771 0.343262 33.3858 0.343262 32.9907V3.0076ZM14.5923 13.7258H19.4673V16.1738C20.1713 14.7665 21.9713 13.5 24.6763 13.5C29.8613 13.5 31.0903 16.3031 31.0903 21.4462V30.9731H25.8423V22.6178C25.8423 19.6887 25.1393 18.036 23.3523 18.036C20.8733 18.036 19.8423 19.818 19.8423 22.6178V30.9731H14.5923V13.7258ZM5.59225 30.7489H10.8423V13.5H5.59225V30.7473V30.7489ZM11.5933 7.8742C11.6033 8.3236 11.5233 8.7706 11.3583 9.1887C11.1933 9.6068 10.9463 9.9878 10.6313 10.3091C10.3173 10.6305 9.94125 10.8859 9.52725 11.0602C9.11325 11.2345 8.66826 11.3243 8.21826 11.3243C7.76826 11.3243 7.32327 11.2345 6.90927 11.0602C6.49527 10.8859 6.11927 10.6305 5.80527 10.3091C5.49027 9.9878 5.24325 9.6068 5.07825 9.1887C4.91325 8.7706 4.83326 8.3236 4.84326 7.8742C4.86226 6.9919 5.22727 6.1524 5.85727 5.5353C6.48827 4.9182 7.33626 4.5727 8.21826 4.5727C9.10026 4.5727 9.94825 4.9182 10.5793 5.5353C11.2093 6.1524 11.5743 6.9919 11.5933 7.8742Z" fill="#663AA3"/>
</svg>
