<svg xmlns="http://www.w3.org/2000/svg" width="72" height="84" viewBox="0 0 72 84" fill="none">
  <path opacity="0.45" d="M6.35899 15.7043C9.11415 11.7141 12.6508 8.32162 16.7558 5.73117C20.8608 3.14072 25.4492 1.40598 30.2445 0.63149C35.0397 -0.143001 39.9425 0.0587909 44.6575 1.22471C49.3724 2.39062 53.8019 4.49652 57.679 7.4155C73.1788 18.9887 76.15 41.9591 64.7225 57.6457L47.3422 81.7557C46.9275 82.3315 46.403 82.8199 45.7986 83.1931C45.1943 83.5663 44.522 83.8168 43.8204 83.9304C43.1188 84.044 42.4016 84.0183 41.7099 83.855C41.0182 83.6916 40.3657 83.3937 39.7897 82.9783L15.6153 65.6029C-0.102758 54.3094 -4.61143 31.6188 6.35899 15.7043Z" fill="url(#paint0_linear_115_362)"/>
  <path opacity="0.45" d="M35.2592 0.142485C40.1152 0.0420372 44.9414 0.922761 49.4472 2.73162C53.9529 4.54049 58.045 7.24007 61.4771 10.6678C64.9091 14.0956 67.6101 18.1806 69.4175 22.6769C71.2248 27.1732 72.101 31.9878 71.9935 36.8308C71.5779 56.1644 54.6029 71.9443 35.2072 71.9235H5.41258C4.69917 71.9235 3.9928 71.7829 3.33408 71.5097C2.67537 71.2365 2.07732 70.836 1.57431 70.3315C1.0713 69.8269 0.673275 69.2282 0.403112 68.5697C0.132948 67.9111 -0.00401818 67.2059 8.97375e-05 66.4944V36.7686C0.052033 17.4557 15.8947 0.546565 35.2592 0.142485Z" fill="url(#paint1_linear_115_362)"/>
  <path opacity="0.45" d="M19.3946 4.20281C23.7031 1.96331 28.4217 0.617127 33.2659 0.24541C38.1101 -0.126306 42.9796 0.484145 47.5809 2.03996C52.1822 3.59578 56.4199 6.06475 60.0387 9.29802C63.6574 12.5313 66.5822 16.4619 68.6368 20.8529C76.8438 38.3734 68.6368 60.0175 51.2358 68.5654L24.5058 81.7135C23.8673 82.0321 23.1719 82.2213 22.4596 82.2702C21.7474 82.3191 21.0325 82.2267 20.3563 81.9983C19.68 81.77 19.0559 81.4102 18.5199 80.9399C17.984 80.4695 17.5468 79.8978 17.2337 79.2579L4.0817 52.5991C-4.47855 35.2651 2.21174 13.1547 19.3946 4.20281Z" fill="url(#paint2_linear_115_362)"/>
  <path opacity="0.45" d="M63.6802 58.5578C60.1972 62.7101 55.8497 66.0565 50.9396 68.3646C46.0295 70.6727 40.6745 71.8871 35.2464 71.9235H24.3903L15.6119 65.6136C11.1474 62.3459 7.46629 58.1301 4.83432 53.2708C2.20234 48.4115 0.685224 43.0299 0.392522 37.5146C0.224727 34.7425 0.385126 31.9604 0.8704 29.2258C1.7086 24.3938 3.58319 19.7993 6.366 15.7565C9.11514 11.7713 12.65 8.38685 16.7546 5.8099C17.1702 5.54051 17.5961 5.27113 18.0221 5.03282C18.448 4.79452 18.9467 4.50441 19.4245 4.25575C20.5794 3.64764 21.7693 3.10793 22.9878 2.63943L24.2033 2.13174C24.5461 2.00741 24.889 1.89344 25.2422 1.78983L25.8551 1.60333C26.4784 1.41683 27.1121 1.25106 27.7458 1.106L28.5873 0.919504C29.4288 0.733006 30.2807 0.577591 31.1325 0.46362L31.8701 0.380732H31.9948L32.5142 0.308205H32.8259L34.1764 0.214956H34.4673H34.6335C34.8377 0.204621 35.0423 0.204621 35.2464 0.214956H35.9944C36.2504 0.199181 36.5072 0.199181 36.7632 0.214956C37.2722 0.214956 37.8021 0.214956 38.2695 0.277122C38.737 0.339288 39.2253 0.339288 39.6928 0.401454H40.1499L41.1888 0.536148H41.4277C41.8017 0.598314 42.1653 0.650118 42.5289 0.722645H42.6432C43.1003 0.795173 43.547 0.898783 44.0041 0.992032H44.0664C44.5131 1.08528 44.9494 1.19925 45.3858 1.32358C45.6247 1.38575 45.8636 1.44792 46.1026 1.5308L46.5493 1.65514L47.0895 1.83127C47.1517 1.84092 47.2116 1.862 47.2661 1.89344C47.5258 1.96597 47.7752 2.04885 48.0245 2.1421C48.2738 2.23535 48.6686 2.38041 48.9802 2.5151C49.2919 2.64979 49.375 2.66015 49.562 2.73268L50.1334 2.97098L50.684 3.21965L50.8814 3.29217L51.2138 3.45795L51.5566 3.62373L51.7852 3.72734L51.8891 3.77914L52.2319 3.95528H52.3358L52.7409 4.17286L52.8656 4.24539H52.9799L53.1461 4.32828L53.25 4.39044L53.8006 4.70127L53.946 4.78416L54.0811 4.85669L54.3927 5.04319L54.7148 5.24004L54.8394 5.31257C55.0326 5.42372 55.2198 5.54475 55.4004 5.67521C55.6423 5.80783 55.8748 5.95668 56.0965 6.12073C56.3562 6.29687 56.6159 6.46264 56.8652 6.64914C57.4262 7.0325 57.9664 7.4573 58.5066 7.8821L58.8702 8.18257C58.9338 8.2288 58.9929 8.28083 59.0468 8.33799L59.6598 8.85604L59.7429 8.9182C69.4978 17.694 73.3832 31.0908 70.9522 43.4929C70.4483 46.0718 69.6609 48.5874 68.6044 50.9942C67.2849 53.7099 65.6307 56.2508 63.6802 58.5578Z" fill="url(#paint3_linear_115_362)"/>
  <path d="M14.8549 47.7819C14.857 48.4688 14.6546 49.1409 14.2735 49.713C13.8923 50.2852 13.3495 50.7317 12.7138 50.996C12.078 51.2603 11.3779 51.3305 10.7022 51.1977C10.0264 51.065 9.4053 50.7352 8.91754 50.2502C8.42979 49.7652 8.0973 49.1468 7.96217 48.4732C7.82704 47.7996 7.89535 47.1012 8.15845 46.4664C8.42155 45.8315 8.86761 45.2888 9.44015 44.907C10.0127 44.5251 10.686 44.3213 11.3747 44.3213C11.8313 44.3199 12.2836 44.4084 12.7058 44.5817C13.1279 44.755 13.5117 45.0097 13.835 45.3312C14.1583 45.6527 14.4148 46.0346 14.5898 46.4552C14.7648 46.8757 14.8549 47.3266 14.8549 47.7819Z" fill="#8FEFE9"/>
  <path d="M37.1289 67.5189C37.1289 67.5189 57.2933 60.3594 50.8523 38.104C50.8005 37.9464 50.8036 37.776 50.861 37.6204C50.9185 37.4648 51.027 37.3331 51.169 37.2467C51.3109 37.1603 51.478 37.1243 51.643 37.1445C51.808 37.1647 51.9614 37.2399 52.0782 37.358C54.7688 39.9793 59.3502 43.2638 63.1629 40.4663C65.4272 38.6947 67.0176 36.2056 67.6715 33.4104C67.7142 33.2343 67.8206 33.0801 67.9703 32.9773C68.1199 32.8746 68.3023 32.8306 68.4825 32.8537C68.6627 32.8768 68.8281 32.9654 68.9468 33.1026C69.0655 33.2397 69.1293 33.4158 69.1259 33.5969C69.2818 44.2895 65.5834 63.9236 37.1289 67.5189Z" fill="#8FEFE9"/>
  <path d="M59.8398 40.4362C62.1061 40.4362 63.9434 38.6039 63.9434 36.3436C63.9434 34.0833 62.1061 32.251 59.8398 32.251C57.5735 32.251 55.7363 34.0833 55.7363 36.3436C55.7363 38.6039 57.5735 40.4362 59.8398 40.4362Z" fill="#8FEFE9"/>
  <path d="M43.2077 47.409C44.5998 51.7399 44.7556 55.5113 43.6544 58.6196C41.8468 63.6965 36.9953 65.8723 33.2657 66.8358C31.514 67.2847 29.7138 67.5178 27.9052 67.53C12.3222 67.53 4.01131 49.9163 4.01131 49.7609C3.57498 48.787 4.23986 48.2068 5.05017 48.8906C5.62582 49.3763 6.22566 49.8328 6.84741 50.2582C11.8651 53.6877 15.5635 51.8953 17.1633 46.5179C17.2138 46.3614 17.3162 46.2266 17.4536 46.1356C17.591 46.0447 17.7553 46.0031 17.9195 46.0175C18.0838 46.032 18.2383 46.1017 18.3576 46.2152C18.4769 46.3287 18.554 46.4793 18.5762 46.6423C19.4177 54.7446 22.555 66.7426 33.9514 63.5929C36.7252 62.6811 39.769 60.9404 40.9326 57.6456C41.8156 55.159 41.6598 52.0093 40.4755 48.3207C39.6301 45.9249 38.6093 43.5943 37.4212 41.3478C36.278 39.1916 35.2786 36.9626 34.4293 34.6753C32.5593 29.3394 32.5489 23.817 34.4293 19.4964C36.0011 15.9389 38.8944 13.1275 42.5013 11.6531C42.6813 11.5769 42.8747 11.5369 43.0703 11.5352C43.2659 11.5335 43.4599 11.5703 43.6413 11.6434C43.8227 11.7166 43.9878 11.8246 44.1273 11.9614C44.2668 12.0981 44.3779 12.261 44.4543 12.4406C44.5307 12.6202 44.5709 12.813 44.5726 13.0081C44.5742 13.2032 44.5374 13.3967 44.464 13.5776C44.3907 13.7585 44.2824 13.9232 44.1453 14.0623C44.0081 14.2014 43.8449 14.3123 43.6648 14.3884C40.768 15.5692 38.4388 17.818 37.1615 20.6672C35.5824 24.3039 35.624 29.0596 37.255 33.7117C38.0616 35.8761 39.0054 37.9871 40.0807 40.0319C41.322 42.4022 42.3678 44.8694 43.2077 47.409Z" fill="#8FEFE9"/>
  <path d="M45.473 5.3025C45.473 6.05456 45.2493 6.78973 44.8304 7.41505C44.4115 8.04036 43.816 8.52773 43.1193 8.81554C42.4227 9.10334 41.6561 9.17864 40.9165 9.03192C40.1769 8.8852 39.4976 8.52305 38.9644 7.99126C38.4311 7.45948 38.068 6.78194 37.9209 6.04433C37.7738 5.30672 37.8493 4.54216 38.1379 3.84735C38.4264 3.15254 38.9151 2.55867 39.5421 2.14085C40.1691 1.72303 40.9062 1.50001 41.6603 1.50001C42.1614 1.49865 42.6578 1.59607 43.121 1.78668C43.5842 1.97728 44.005 2.25732 44.3593 2.61069C44.7136 2.96405 44.9944 3.38378 45.1855 3.84574C45.3766 4.30769 45.4743 4.80277 45.473 5.3025Z" fill="#8FEFE9"/>
  <path d="M56.1175 10.616C56.1175 11.3685 55.8936 12.1041 55.4742 12.7296C55.0548 13.3551 54.4587 13.8425 53.7614 14.13C53.0642 14.4175 52.297 14.4922 51.5572 14.3446C50.8173 14.1971 50.138 13.8339 49.6052 13.3011C49.0724 12.7682 48.7101 12.0897 48.5642 11.3514C48.4182 10.6131 48.4952 9.84827 48.7854 9.15364C49.0756 8.45901 49.5659 7.86586 50.1942 7.44928C50.8226 7.03271 51.5607 6.81144 52.3152 6.81349C52.8154 6.81349 53.3107 6.91192 53.7727 7.10314C54.2347 7.29436 54.6543 7.57461 55.0075 7.92784C55.3607 8.28107 55.6405 8.70033 55.831 9.16161C56.0215 9.62289 56.1188 10.1171 56.1175 10.616Z" fill="#8FEFE9"/>
  <path d="M33.1013 5.31272C33.1033 5.84771 32.9455 6.37117 32.6481 6.81639C32.3507 7.26162 31.9271 7.60844 31.4313 7.81265C30.9355 8.01686 30.39 8.06922 29.8642 7.96304C29.3385 7.85687 28.8563 7.59698 28.4792 7.21649C28.1022 6.836 27.8472 6.35214 27.7469 5.8266C27.6466 5.30105 27.7054 4.75761 27.9159 4.26554C28.1264 3.77348 28.4791 3.35507 28.9289 3.06365C29.3788 2.77223 29.9055 2.621 30.4418 2.62922C31.15 2.63741 31.8264 2.92374 32.3243 3.42611C32.8222 3.92848 33.1014 4.60637 33.1013 5.31272Z" fill="#8FEFE9"/>
  <path d="M63.1306 17.0927C63.1326 17.6259 62.976 18.1478 62.6804 18.5921C62.3849 19.0365 61.9638 19.3834 61.4704 19.5889C60.977 19.7943 60.4336 19.8492 59.909 19.7464C59.3844 19.6436 58.9021 19.3879 58.5233 19.0116C58.1445 18.6352 57.8862 18.1552 57.7812 17.6324C57.6761 17.1096 57.729 16.5674 57.9331 16.0746C58.1373 15.5817 58.4834 15.1604 58.9278 14.8639C59.3723 14.5674 59.8949 14.4092 60.4295 14.4092C61.1433 14.4119 61.8271 14.6952 62.3328 15.1975C62.8385 15.6999 63.1251 16.3809 63.1306 17.0927Z" fill="#8FEFE9"/>
  <path d="M22.6664 8.8566C22.6684 9.10499 22.5964 9.34838 22.4596 9.55591C22.3227 9.76343 22.1271 9.92573 21.8976 10.0222C21.6681 10.1187 21.415 10.145 21.1705 10.0978C20.926 10.0506 20.7011 9.93203 20.5242 9.75712C20.3474 9.58221 20.2266 9.35885 20.1773 9.11538C20.1279 8.87191 20.1522 8.61931 20.247 8.38962C20.3419 8.15994 20.503 7.96353 20.7099 7.82531C20.9168 7.68709 21.1603 7.61329 21.4093 7.61328C21.7409 7.61327 22.0591 7.74393 22.2945 7.97681C22.53 8.20968 22.6636 8.5259 22.6664 8.8566Z" fill="#8FEFE9"/>
  <path d="M66.434 23.5783C66.436 23.8271 66.3638 24.071 66.2264 24.2787C66.0891 24.4864 65.8929 24.6487 65.6628 24.7449C65.4327 24.8411 65.1791 24.8668 64.9343 24.8187C64.6895 24.7707 64.4645 24.6511 64.2881 24.4751C64.1117 24.2992 63.9917 24.0748 63.9436 23.8307C63.8954 23.5865 63.9212 23.3336 64.0176 23.1041C64.114 22.8746 64.2768 22.6789 64.4851 22.542C64.6934 22.405 64.9378 22.333 65.1873 22.335C65.351 22.335 65.5131 22.3672 65.6644 22.4296C65.8156 22.4921 65.9531 22.5837 66.0688 22.6992C66.1846 22.8146 66.2764 22.9517 66.3391 23.1025C66.4017 23.2534 66.434 23.415 66.434 23.5783Z" fill="#8FEFE9"/>
  <defs>
    <linearGradient id="paint0_linear_115_362" x1="35.9842" y1="0.169922" x2="35.9842" y2="84" gradientUnits="userSpaceOnUse">
      <stop stop-color="#75DEE5"/>
      <stop offset="1" stop-color="#0DB193" stop-opacity="0.42"/>
    </linearGradient>
    <linearGradient id="paint1_linear_115_362" x1="36.0011" y1="0.134766" x2="36.0011" y2="71.9235" gradientUnits="userSpaceOnUse">
      <stop stop-color="#75DEE5"/>
      <stop offset="1" stop-color="#0DB193" stop-opacity="0.42"/>
    </linearGradient>
    <linearGradient id="paint2_linear_115_362" x1="36.1015" y1="0.139648" x2="36.1015" y2="82.2829" gradientUnits="userSpaceOnUse">
      <stop stop-color="#75DEE5"/>
      <stop offset="1" stop-color="#0DB193" stop-opacity="0.42"/>
    </linearGradient>
    <linearGradient id="paint3_linear_115_362" x1="35.9926" y1="0.203125" x2="35.9926" y2="71.9235" gradientUnits="userSpaceOnUse">
      <stop stop-color="#75DEE5"/>
      <stop offset="1" stop-color="#0DB193" stop-opacity="0.42"/>
    </linearGradient>
  </defs>
</svg>
