<svg width="154" height="78" viewBox="0 0 154 78" fill="none" xmlns="http://www.w3.org/2000/svg">
<path opacity="0.45" d="M9.59639 18.6374C11.8029 15.4418 14.6354 12.7248 17.923 10.6502C21.2106 8.57553 24.8853 7.18622 28.7257 6.56595C32.5661 5.94568 36.4927 6.10729 40.2688 7.04104C44.0449 7.97479 47.5923 9.66136 50.6974 11.9991C63.1109 21.2678 65.4904 39.6642 56.3383 52.2272L42.4189 71.5364C42.0868 71.9975 41.6667 72.3886 41.1827 72.6875C40.6987 72.9864 40.1603 73.187 39.5984 73.278C39.0364 73.369 38.4621 73.3484 37.9081 73.2176C37.3542 73.0868 36.8316 72.8482 36.3703 72.5155L17.0095 58.6C4.42133 49.5553 0.810432 31.3829 9.59639 18.6374Z" fill="#663AA3"/>
<path opacity="0.45" d="M32.7422 6.17415C36.6313 6.0937 40.4965 6.79905 44.105 8.24773C47.7136 9.69641 50.9908 11.8584 53.7395 14.6036C56.4882 17.3489 58.6513 20.6204 60.0988 24.2214C61.5462 27.8224 62.248 31.6783 62.1618 35.5569C61.829 51.0408 48.2341 63.6784 32.7006 63.6618H8.83872C8.26736 63.6619 7.70165 63.5492 7.1741 63.3304C6.64655 63.1116 6.16758 62.7909 5.76474 62.3868C5.36189 61.9827 5.04312 61.5032 4.82675 60.9758C4.61038 60.4484 4.50069 59.8836 4.50398 59.3138V35.5071C4.54558 20.0399 17.2336 6.49777 32.7422 6.17415Z" fill="#663AA3"/>
<path opacity="0.45" d="M20.037 9.42694C23.4876 7.63338 27.2666 6.55525 31.1462 6.25755C35.0258 5.95986 38.9257 6.44875 42.6108 7.69477C46.2958 8.94078 49.6898 10.9181 52.5879 13.5076C55.4861 16.097 57.8285 19.245 59.474 22.7616C66.0468 36.7933 59.474 54.1276 45.5379 60.9733L24.1305 71.5033C23.6191 71.7584 23.0622 71.91 22.4917 71.9491C21.9213 71.9883 21.3488 71.9143 20.8072 71.7314C20.2657 71.5486 19.7658 71.2604 19.3366 70.8837C18.9073 70.507 18.5572 70.0492 18.3065 69.5367L7.7733 48.1863C0.917601 34.3039 6.2757 16.5963 20.037 9.42694Z" fill="#663AA3"/>
<path d="M55.5068 52.9575C52.7174 56.283 49.2355 58.963 45.3031 60.8115C41.3707 62.66 37.082 63.6326 32.7348 63.6618H24.0404L17.01 58.6083C13.4345 55.9913 10.4863 52.615 8.37844 48.7233C6.27055 44.8316 5.05552 40.5216 4.82111 36.1045C4.68672 33.8844 4.81518 31.6563 5.20383 29.4662C5.87512 25.5964 7.37644 21.9167 9.60513 18.679C11.8069 15.4873 14.6378 12.7768 17.9252 10.713C18.258 10.4972 18.5991 10.2815 18.9402 10.0906C19.2813 9.89979 19.6807 9.66745 20.0634 9.4683C20.9883 8.98128 21.9413 8.54905 22.9172 8.17384L23.8906 7.76724C24.1652 7.66766 24.4398 7.57639 24.7226 7.49341L25.2135 7.34405C25.7127 7.19469 26.2202 7.06192 26.7278 6.94575L27.4017 6.79639C28.0756 6.64703 28.7578 6.52256 29.4401 6.43128L30.0308 6.3649H30.1307L30.5467 6.30681H30.7963L31.8779 6.23213H32.1108H32.2439C32.4075 6.22385 32.5713 6.22385 32.7348 6.23213H33.3339C33.5389 6.2195 33.7445 6.2195 33.9496 6.23213C34.3572 6.23213 34.7816 6.23213 35.156 6.28192C35.5304 6.33171 35.9214 6.33171 36.2958 6.38149H36.6619L37.4939 6.48937H37.6852C37.9848 6.53915 38.276 6.58064 38.5672 6.63873H38.6587C39.0248 6.69681 39.3825 6.77979 39.7486 6.85447H39.7985C40.1563 6.92915 40.5057 7.02043 40.8552 7.12C41.0465 7.16979 41.2379 7.21958 41.4293 7.28596L41.787 7.38554L42.2197 7.5266C42.2695 7.53433 42.3175 7.55121 42.3611 7.57639C42.5691 7.63447 42.7688 7.70086 42.9685 7.77554C43.1682 7.85022 43.4843 7.96639 43.7339 8.07426C43.9835 8.18213 44.0501 8.19043 44.1998 8.24852L44.6574 8.43937L45.0984 8.63852L45.2565 8.6966L45.5227 8.82937L45.7973 8.96213L45.9803 9.04511L46.0635 9.0866L46.3381 9.22767H46.4213L46.7458 9.40192L46.8456 9.46001H46.9371L47.0703 9.52639L47.1535 9.57618L47.5944 9.82511L47.7109 9.8915L47.8191 9.94958L48.0687 10.0989L48.3266 10.2566L48.4264 10.3147C48.5811 10.4037 48.7311 10.5006 48.8757 10.6051C49.0694 10.7113 49.2556 10.8305 49.4331 10.9619C49.6411 11.103 49.8491 11.2358 50.0488 11.3851C50.4981 11.6921 50.9307 12.0323 51.3634 12.3726L51.6546 12.6132C51.7055 12.6502 51.7529 12.6919 51.796 12.7377L52.2869 13.1526L52.3535 13.2024C60.166 20.2307 63.2777 30.9598 61.3308 40.8924C60.9272 42.9577 60.2966 44.9724 59.4505 46.9C58.3937 49.075 57.0689 51.1099 55.5068 52.9575Z" fill="#663AA3"/>
<path d="M16.4025 44.3262C16.4042 44.8763 16.2421 45.4146 15.9369 45.8728C15.6316 46.331 15.1969 46.6886 14.6877 46.9003C14.1786 47.112 13.6179 47.1682 13.0767 47.0619C12.5355 46.9555 12.0381 46.6915 11.6474 46.303C11.2568 45.9146 10.9905 45.4193 10.8823 44.8799C10.7741 44.3404 10.8288 43.7811 11.0395 43.2726C11.2502 42.7642 11.6074 42.3296 12.066 42.0238C12.5245 41.7179 13.0637 41.5547 13.6153 41.5547C13.981 41.5536 14.3432 41.6245 14.6813 41.7633C15.0194 41.9021 15.3268 42.106 15.5857 42.3635C15.8446 42.621 16.05 42.9269 16.1902 43.2637C16.3304 43.6005 16.4025 43.9615 16.4025 44.3262Z" fill="#FFE8D7"/>
<path d="M34.2422 60.1345C34.2422 60.1345 50.3914 54.4007 45.2329 36.5768C45.1914 36.4507 45.1939 36.3142 45.2399 36.1895C45.286 36.0649 45.3729 35.9595 45.4866 35.8903C45.6002 35.8211 45.734 35.7923 45.8662 35.8084C45.9984 35.8246 46.1212 35.8849 46.2147 35.9794C48.3696 38.0788 52.0387 40.7092 55.0922 38.4688C56.9056 37.0499 58.1794 35.0565 58.7031 32.8179C58.7373 32.6768 58.8225 32.5533 58.9423 32.4711C59.0622 32.3888 59.2083 32.3535 59.3526 32.372C59.4969 32.3905 59.6293 32.4615 59.7244 32.5713C59.8195 32.6812 59.8706 32.8222 59.8679 32.9673C59.9927 41.5307 57.0307 57.2552 34.2422 60.1345Z" fill="#FFE8D7"/>
<path d="M52.427 38.444C54.2421 38.444 55.7134 36.9765 55.7134 35.1663C55.7134 33.3561 54.2421 31.8887 52.427 31.8887C50.612 31.8887 49.1406 33.3561 49.1406 35.1663C49.1406 36.9765 50.612 38.444 52.427 38.444Z" fill="#FFE8D7"/>
<path d="M39.1077 44.0283C40.2226 47.4968 40.3474 50.5172 39.4654 53.0066C38.0178 57.0725 34.1323 58.8151 31.1454 59.5868C29.7425 59.9462 28.3007 60.133 26.8523 60.1428C14.3722 60.1428 7.7162 46.0364 7.7162 45.9119C7.36676 45.1319 7.89924 44.6672 8.5482 45.2149C9.00922 45.6039 9.48962 45.9695 9.98757 46.3102C14.0061 49.0568 16.9681 47.6213 18.2494 43.3147C18.2898 43.1893 18.3718 43.0813 18.4818 43.0085C18.5918 42.9357 18.7234 42.9023 18.855 42.9139C18.9865 42.9255 19.1102 42.9813 19.2058 43.0722C19.3013 43.1631 19.3631 43.2837 19.3809 43.4143C20.0548 49.9032 22.5675 59.5121 31.6945 56.9896C33.916 56.2594 36.3537 54.8653 37.2856 52.2266C37.9928 50.2351 37.868 47.7125 36.9195 44.7585C36.2425 42.8397 35.4249 40.9732 34.4734 39.174C33.5579 37.4472 32.7574 35.662 32.0772 33.8302C30.5796 29.5568 30.5713 25.134 32.0772 21.6738C33.3361 18.8247 35.6533 16.5731 38.5419 15.3923C38.6861 15.3313 38.841 15.2992 38.9977 15.2979C39.1543 15.2966 39.3097 15.326 39.455 15.3846C39.6002 15.4431 39.7325 15.5297 39.8442 15.6392C39.9559 15.7487 40.0449 15.8791 40.1061 16.023C40.1673 16.1668 40.1994 16.3213 40.2008 16.4775C40.2021 16.6338 40.1726 16.7887 40.1139 16.9336C40.0551 17.0785 39.9684 17.2104 39.8586 17.3218C39.7487 17.4332 39.618 17.522 39.4738 17.583C37.1538 18.5286 35.2884 20.3296 34.2654 22.6115C33.0008 25.524 33.0341 29.3328 34.3403 33.0585C34.9863 34.7919 35.7422 36.4825 36.6033 38.1202C37.5975 40.0185 38.435 41.9944 39.1077 44.0283Z" fill="#FFE8D7"/>
<path d="M40.9233 10.3061C40.9233 10.9084 40.7442 11.4972 40.4087 11.998C40.0732 12.4988 39.5963 12.8891 39.0384 13.1196C38.4804 13.3501 37.8665 13.4104 37.2742 13.2929C36.6818 13.1754 36.1378 12.8853 35.7107 12.4594C35.2837 12.0335 34.9929 11.4909 34.8751 10.9002C34.7573 10.3095 34.8177 9.69714 35.0488 9.14068C35.2799 8.58422 35.6713 8.10861 36.1735 7.77398C36.6756 7.43936 37.2659 7.26075 37.8699 7.26075C38.2712 7.25966 38.6687 7.33768 39.0397 7.49033C39.4106 7.64299 39.7477 7.86726 40.0314 8.15027C40.3152 8.43327 40.5401 8.76942 40.6931 9.13938C40.8462 9.50935 40.9244 9.90585 40.9233 10.3061Z" fill="#FFE8D7"/>
<path d="M49.4506 14.5629C49.4506 15.1656 49.2713 15.7547 48.9355 16.2557C48.5996 16.7566 48.1222 17.1469 47.5638 17.3772C47.0053 17.6074 46.391 17.6673 45.7984 17.5491C45.2059 17.4309 44.6618 17.14 44.2351 16.7133C43.8084 16.2866 43.5183 15.7432 43.4014 15.1519C43.2845 14.5606 43.3462 13.9481 43.5786 13.3918C43.811 12.8354 44.2036 12.3604 44.7069 12.0268C45.2101 11.6932 45.8012 11.5159 46.4055 11.5176C46.8061 11.5176 47.2028 11.5964 47.5728 11.7496C47.9427 11.9027 48.2788 12.1272 48.5617 12.41C48.8446 12.6929 49.0687 13.0287 49.2212 13.3981C49.3738 13.7676 49.4517 14.1634 49.4506 14.5629Z" fill="#FFE8D7"/>
<path d="M31.0139 10.3144C31.0155 10.7429 30.8892 11.1621 30.651 11.5187C30.4128 11.8753 30.0735 12.153 29.6764 12.3166C29.2794 12.4801 28.8425 12.5221 28.4214 12.437C28.0003 12.352 27.6142 12.1438 27.3122 11.8391C27.0102 11.5344 26.806 11.1469 26.7257 10.726C26.6453 10.3051 26.6925 9.86987 26.8611 9.47578C27.0297 9.0817 27.3121 8.74661 27.6724 8.51322C28.0326 8.27983 28.4544 8.15871 28.884 8.16529C29.4512 8.17185 29.9929 8.40116 30.3916 8.8035C30.7903 9.20584 31.0139 9.74874 31.0139 10.3144Z" fill="#FFE8D7"/>
<path d="M55.0647 19.7488C55.0663 20.1758 54.9409 20.5937 54.7042 20.9496C54.4675 21.3055 54.1302 21.5833 53.7351 21.7479C53.3399 21.9125 52.9047 21.9564 52.4846 21.8741C52.0644 21.7918 51.6782 21.5869 51.3748 21.2855C51.0715 20.9842 50.8646 20.5997 50.7805 20.181C50.6963 19.7623 50.7387 19.3281 50.9021 18.9334C51.0656 18.5387 51.3429 18.2012 51.6988 17.9638C52.0547 17.7264 52.4733 17.5996 52.9015 17.5996C53.4731 17.6018 54.0208 17.8286 54.4257 18.231C54.8307 18.6333 55.0603 19.1787 55.0647 19.7488Z" fill="#FFE8D7"/>
<path d="M22.6579 13.152C22.6596 13.3509 22.6019 13.5458 22.4923 13.7121C22.3827 13.8783 22.2261 14.0082 22.0423 14.0855C21.8585 14.1628 21.6558 14.1838 21.46 14.146C21.2641 14.1082 21.084 14.0133 20.9424 13.8732C20.8007 13.7331 20.704 13.5542 20.6645 13.3592C20.625 13.1643 20.6444 12.962 20.7204 12.778C20.7963 12.5941 20.9253 12.4368 21.0911 12.3261C21.2568 12.2154 21.4517 12.1563 21.6512 12.1563C21.9168 12.1562 22.1716 12.2609 22.3601 12.4474C22.5487 12.6339 22.6557 12.8871 22.6579 13.152Z" fill="#FFE8D7"/>
<path d="M57.7126 24.945C57.7143 25.1443 57.6564 25.3395 57.5464 25.5059C57.4365 25.6723 57.2793 25.8023 57.095 25.8793C56.9107 25.9563 56.7076 25.9769 56.5116 25.9384C56.3155 25.8999 56.1354 25.8042 55.9941 25.6632C55.8528 25.5223 55.7567 25.3427 55.7182 25.1471C55.6796 24.9516 55.7002 24.749 55.7774 24.5652C55.8547 24.3814 55.985 24.2247 56.1518 24.115C56.3186 24.0053 56.5144 23.9476 56.7142 23.9493C56.8453 23.9493 56.9752 23.975 57.0963 24.025C57.2174 24.0751 57.3275 24.1484 57.4202 24.2409C57.5129 24.3334 57.5865 24.4431 57.6366 24.5639C57.6868 24.6848 57.7126 24.8142 57.7126 24.945Z" fill="#FFE8D7"/>
<path d="M79.7927 22.1398C79.7927 22.5428 79.466 22.8695 79.0631 22.8695H77.8132C77.5682 22.8695 77.3395 22.7465 77.2044 22.5421L73.8525 17.4703L71.6226 14.0962C71.2237 13.4926 70.2842 13.775 70.2842 14.4985V22.1398C70.2842 22.5428 69.9575 22.8695 69.5546 22.8695H68.642C68.239 22.8695 67.9123 22.5428 67.9123 22.1398V9.11796C67.9123 8.71498 68.239 8.3883 68.642 8.3883H69.8923C70.137 8.3883 70.3655 8.51103 70.5006 8.71512L76.0828 17.1453C76.482 17.7482 77.4208 17.4655 77.4208 16.7424V9.11796C77.4208 8.71498 77.7475 8.3883 78.1504 8.3883H79.0631C79.466 8.3883 79.7927 8.71498 79.7927 9.11796V22.1398Z" fill="#220A30"/>
<path d="M82.1168 17.0853C82.1168 15.9341 82.3526 14.9146 82.8243 14.0268C83.3097 13.1391 83.9617 12.4525 84.7801 11.967C85.6123 11.4676 86.5278 11.218 87.5265 11.218C88.4281 11.218 89.2118 11.3983 89.8776 11.7589C90.1431 11.8944 90.3875 12.0436 90.6106 12.2066C90.9355 12.4439 91.5005 12.228 91.5005 11.8257C91.5005 11.5935 91.6887 11.4052 91.921 11.4052H93.1636C93.5665 11.4052 93.8932 11.7319 93.8932 12.1349V22.1398C93.8932 22.5428 93.5665 22.8695 93.1636 22.8695H91.9248C91.6905 22.8695 91.5005 22.6795 91.5005 22.4452C91.5005 22.0365 90.9201 21.8175 90.5914 22.0604C90.368 22.2255 90.1232 22.3773 89.8568 22.5158C89.1632 22.8764 88.3726 23.0568 87.4849 23.0568C86.5 23.0568 85.5984 22.8071 84.7801 22.3077C83.9617 21.7945 83.3097 21.0871 82.8243 20.1855C82.3526 19.27 82.1168 18.2366 82.1168 17.0853ZM91.5005 17.127C91.5005 16.3363 91.334 15.6497 91.0011 15.0671C90.6821 14.4846 90.259 14.0407 89.732 13.7355C89.2049 13.4304 88.6362 13.2778 88.0258 13.2778C87.4155 13.2778 86.8468 13.4304 86.3197 13.7355C85.7926 14.0268 85.3626 14.4637 85.0297 15.0463C84.7107 15.615 84.5512 16.2947 84.5512 17.0853C84.5512 17.876 84.7107 18.5695 85.0297 19.166C85.3626 19.7624 85.7926 20.2202 86.3197 20.5392C86.8607 20.8444 87.4294 20.9969 88.0258 20.9969C88.6362 20.9969 89.2049 20.8444 89.732 20.5392C90.259 20.234 90.6821 19.7902 91.0011 19.2076C91.334 18.6111 91.5005 17.9176 91.5005 17.127Z" fill="#220A30"/>
<path d="M100.506 13.3402C100.103 13.3402 99.7759 13.6669 99.7759 14.0699V19.6861C99.7759 20.1161 99.873 20.4282 100.067 20.6224C100.275 20.8027 100.622 20.8929 101.107 20.8929H101.834C102.237 20.8929 102.564 21.2196 102.564 21.6226V22.1398C102.564 22.5428 102.237 22.8695 101.834 22.8695H100.691C99.6233 22.8695 98.8049 22.6198 98.2362 22.1205C97.6675 21.6211 97.3832 20.8097 97.3832 19.6861V14.0164C97.3832 13.643 97.0804 13.3402 96.7069 13.3402C96.3335 13.3402 96.0307 13.0375 96.0307 12.664V12.0814C96.0307 11.708 96.3335 11.4052 96.7069 11.4052C97.0804 11.4052 97.3832 11.1025 97.3832 10.729V9.28441C97.3832 8.88143 97.7098 8.55475 98.1128 8.55475H99.0462C99.4492 8.55475 99.7759 8.88143 99.7759 9.28441V10.6756C99.7759 11.0785 100.103 11.4052 100.506 11.4052H101.834C102.237 11.4052 102.564 11.7319 102.564 12.1349V12.6106C102.564 13.0135 102.237 13.3402 101.834 13.3402H100.506Z" fill="#220A30"/>
<path d="M105.957 9.88636C105.527 9.88636 105.166 9.74071 104.875 9.44942C104.584 9.15814 104.438 8.79749 104.438 8.36749C104.438 7.9375 104.584 7.57685 104.875 7.28557C105.166 6.99428 105.527 6.84863 105.957 6.84863C106.373 6.84863 106.727 6.99428 107.018 7.28557C107.309 7.57685 107.455 7.9375 107.455 8.36749C107.455 8.79749 107.309 9.15814 107.018 9.44942C106.727 9.74071 106.373 9.88636 105.957 9.88636ZM106.392 11.4052C106.795 11.4052 107.122 11.7319 107.122 12.1349V22.1398C107.122 22.5428 106.795 22.8695 106.392 22.8695H105.48C105.077 22.8695 104.75 22.5428 104.75 22.1398V12.1349C104.75 11.7319 105.077 11.4052 105.48 11.4052H106.392Z" fill="#220A30"/>
<path d="M115.209 23.0568C114.127 23.0568 113.149 22.814 112.275 22.3285C111.401 21.8292 110.715 21.1356 110.215 20.2479C109.716 19.3463 109.466 18.306 109.466 17.127C109.466 15.9618 109.723 14.9284 110.236 14.0268C110.749 13.1252 111.45 12.4317 112.338 11.9462C113.225 11.4607 114.217 11.218 115.313 11.218C116.409 11.218 117.4 11.4607 118.288 11.9462C119.176 12.4317 119.876 13.1252 120.39 14.0268C120.903 14.9284 121.159 15.9618 121.159 17.127C121.159 18.2921 120.896 19.3255 120.369 20.2271C119.842 21.1287 119.12 21.8292 118.205 22.3285C117.303 22.814 116.305 23.0568 115.209 23.0568ZM115.209 20.9969C115.819 20.9969 116.388 20.8513 116.915 20.56C117.456 20.2687 117.893 19.8318 118.226 19.2492C118.559 18.6666 118.725 17.9592 118.725 17.127C118.725 16.2947 118.566 15.5942 118.247 15.0255C117.927 14.4429 117.504 14.006 116.977 13.7147C116.45 13.4234 115.882 13.2778 115.271 13.2778C114.661 13.2778 114.092 13.4234 113.565 13.7147C113.052 14.006 112.643 14.4429 112.338 15.0255C112.032 15.5942 111.88 16.2947 111.88 17.127C111.88 18.3615 112.192 19.3186 112.816 19.9982C113.454 20.664 114.252 20.9969 115.209 20.9969Z" fill="#220A30"/>
<path d="M129.288 11.218C130.19 11.218 130.994 11.4052 131.702 11.7797C132.423 12.1542 132.985 12.7091 133.387 13.4442C133.789 14.1794 133.991 15.0671 133.991 16.1074V22.1398C133.991 22.5428 133.664 22.8695 133.261 22.8695H132.369C131.966 22.8695 131.639 22.5428 131.639 22.1398V16.4612C131.639 15.4347 131.383 14.651 130.87 14.11C130.356 13.5552 129.656 13.2778 128.768 13.2778C127.88 13.2778 127.173 13.5552 126.646 14.11C126.133 14.651 125.876 15.4347 125.876 16.4612V22.1398C125.876 22.5428 125.549 22.8695 125.146 22.8695H124.234C123.831 22.8695 123.504 22.5428 123.504 22.1398V12.1349C123.504 11.7319 123.831 11.4052 124.234 11.4052H125.53C125.721 11.4052 125.876 11.5602 125.876 11.7513C125.876 12.076 126.314 12.2478 126.577 12.0569C126.813 11.8858 127.071 11.7379 127.353 11.6133C127.964 11.3497 128.609 11.218 129.288 11.218Z" fill="#220A30"/>
<path d="M136.225 17.0853C136.225 15.9341 136.461 14.9146 136.933 14.0268C137.418 13.1391 138.07 12.4525 138.889 11.967C139.721 11.4676 140.636 11.218 141.635 11.218C142.537 11.218 143.32 11.3983 143.986 11.7589C144.252 11.8944 144.496 12.0436 144.719 12.2066C145.044 12.4439 145.609 12.228 145.609 11.8257C145.609 11.5935 145.797 11.4052 146.03 11.4052H147.272C147.675 11.4052 148.002 11.7319 148.002 12.1349V22.1398C148.002 22.5428 147.675 22.8695 147.272 22.8695H146.033C145.799 22.8695 145.609 22.6795 145.609 22.4452C145.609 22.0365 145.029 21.8175 144.7 22.0604C144.477 22.2255 144.232 22.3773 143.965 22.5158C143.272 22.8764 142.481 23.0568 141.593 23.0568C140.609 23.0568 139.707 22.8071 138.889 22.3077C138.07 21.7945 137.418 21.0871 136.933 20.1855C136.461 19.27 136.225 18.2366 136.225 17.0853ZM145.609 17.127C145.609 16.3363 145.443 15.6497 145.11 15.0671C144.791 14.4846 144.368 14.0407 143.841 13.7355C143.313 13.4304 142.745 13.2778 142.134 13.2778C141.524 13.2778 140.955 13.4304 140.428 13.7355C139.901 14.0268 139.471 14.4637 139.138 15.0463C138.819 15.615 138.66 16.2947 138.66 17.0853C138.66 17.876 138.819 18.5695 139.138 19.166C139.471 19.7624 139.901 20.2202 140.428 20.5392C140.969 20.8444 141.538 20.9969 142.134 20.9969C142.745 20.9969 143.313 20.8444 143.841 20.5392C144.368 20.234 144.791 19.7902 145.11 19.2076C145.443 18.6111 145.609 17.9176 145.609 17.127Z" fill="#220A30"/>
<path d="M152.76 7.47282C153.163 7.47282 153.489 7.7995 153.489 8.20248V22.1398C153.489 22.5428 153.163 22.8695 152.76 22.8695H151.847C151.444 22.8695 151.117 22.5428 151.117 22.1398V8.20248C151.117 7.7995 151.444 7.47282 151.847 7.47282H152.76Z" fill="#220A30"/>
<path d="M72.6769 42.9238C71.706 42.9238 70.8321 42.7573 70.0554 42.4244C69.2786 42.0777 68.6683 41.5922 68.2244 40.968C67.9147 40.5325 67.7131 40.0464 67.6194 39.5096C67.5502 39.1126 67.8853 38.7833 68.2882 38.7833H69.4293C69.8072 38.7833 70.1088 39.0787 70.2368 39.4343C70.3591 39.7743 70.5553 40.0705 70.8252 40.323C71.2691 40.7253 71.8863 40.9264 72.6769 40.9264C73.4953 40.9264 74.1334 40.7322 74.5911 40.3438C75.0489 39.9415 75.2777 39.4283 75.2777 38.8041C75.2777 38.3187 75.1321 37.9233 74.8408 37.6182C74.5634 37.313 74.2097 37.0772 73.7797 36.9108C73.3636 36.7443 72.781 36.564 72.032 36.3698C71.0887 36.1201 70.3189 35.8704 69.7225 35.6208C69.1399 35.3572 68.6405 34.955 68.2244 34.414C67.8083 33.873 67.6002 33.1518 67.6002 32.2501C67.6002 31.4179 67.8083 30.6897 68.2244 30.0655C68.6405 29.4413 69.2231 28.9627 69.9721 28.6298C70.7212 28.2969 71.5881 28.1305 72.5729 28.1305C73.9739 28.1305 75.1182 28.4842 76.006 29.1916C76.706 29.7301 77.1635 30.4275 77.3786 31.2838C77.4823 31.6967 77.1398 32.0629 76.714 32.0629H75.5567C75.176 32.0629 74.8749 31.7579 74.7086 31.4154C74.5828 31.1563 74.3911 30.9213 74.1334 30.7105C73.6757 30.336 73.0723 30.1487 72.3232 30.1487C71.6436 30.1487 71.0887 30.3221 70.6587 30.6689C70.2287 31.0156 70.0137 31.515 70.0137 32.1669C70.0137 32.6108 70.1455 32.9784 70.4091 33.2697C70.6865 33.5471 71.0332 33.769 71.4494 33.9355C71.8655 34.1019 72.4342 34.2822 73.1555 34.4764C74.1126 34.74 74.8894 35.0035 75.4858 35.2671C76.0961 35.5306 76.6093 35.9398 77.0255 36.4946C77.4555 37.0356 77.6705 37.7638 77.6705 38.6793C77.6705 39.4145 77.4693 40.108 77.0671 40.7599C76.6787 41.4119 76.1031 41.939 75.3402 42.3412C74.5911 42.7296 73.7034 42.9238 72.6769 42.9238Z" fill="#220A30"/>
<path d="M85.442 42.9654C84.36 42.9654 83.3821 42.7227 82.5083 42.2372C81.6344 41.7378 80.9478 41.0443 80.4484 40.1565C79.9491 39.2549 79.6994 38.2146 79.6994 37.0356C79.6994 35.8704 79.956 34.8371 80.4692 33.9355C80.9825 33.0338 81.6829 32.3403 82.5707 31.8548C83.4584 31.3693 84.4502 31.1266 85.546 31.1266C86.6418 31.1266 87.6336 31.3693 88.5213 31.8548C89.409 32.3403 90.1095 33.0338 90.6227 33.9355C91.1359 34.8371 91.3926 35.8704 91.3926 37.0356C91.3926 38.2007 91.129 39.2341 90.6019 40.1357C90.0748 41.0373 89.3535 41.7378 88.4381 42.2372C87.5365 42.7227 86.5378 42.9654 85.442 42.9654ZM85.442 40.9056C86.0523 40.9056 86.621 40.7599 87.1481 40.4686C87.689 40.1773 88.126 39.7404 88.4589 39.1578C88.7918 38.5753 88.9582 37.8678 88.9582 37.0356C88.9582 36.2033 88.7987 35.5029 88.4797 34.9342C88.1606 34.3516 87.7376 33.9146 87.2105 33.6234C86.6834 33.3321 86.1147 33.1864 85.5044 33.1864C84.8941 33.1864 84.3253 33.3321 83.7983 33.6234C83.285 33.9146 82.8758 34.3516 82.5707 34.9342C82.2655 35.5029 82.1129 36.2033 82.1129 37.0356C82.1129 38.2701 82.425 39.2272 83.0492 39.9069C83.6873 40.5727 84.4849 40.9056 85.442 40.9056Z" fill="#220A30"/>
<path d="M92.9467 37.0356C92.9467 35.8566 93.1825 34.8232 93.6541 33.9355C94.1396 33.0338 94.8054 32.3403 95.6515 31.8548C96.4976 31.3693 97.4686 31.1266 98.5644 31.1266C99.9515 31.1266 101.096 31.4595 101.997 32.1253C102.676 32.6082 103.19 33.2471 103.541 34.042C103.734 34.4792 103.382 34.9342 102.904 34.9342H101.8C101.494 34.9342 101.228 34.7378 101.078 34.4711C100.878 34.1186 100.616 33.8291 100.291 33.6026C99.8336 33.2835 99.2579 33.124 98.5644 33.124C97.5934 33.124 96.8167 33.4708 96.2341 34.1643C95.6654 34.844 95.381 35.8011 95.381 37.0356C95.381 38.2701 95.6654 39.2341 96.2341 39.9277C96.8167 40.6212 97.5934 40.968 98.5644 40.968C99.7487 40.968 100.587 40.5192 101.081 39.6215C101.228 39.3535 101.493 39.1578 101.799 39.1578H102.882C103.367 39.1578 103.718 39.6248 103.51 40.0626C103.152 40.8146 102.641 41.4424 101.977 41.9459C101.061 42.6256 99.9237 42.9654 98.5644 42.9654C97.4686 42.9654 96.4976 42.7227 95.6515 42.2372C94.8054 41.7378 94.1396 41.0443 93.6541 40.1565C93.1825 39.2549 92.9467 38.2146 92.9467 37.0356Z" fill="#220A30"/>
<path d="M107.42 29.795C106.99 29.795 106.629 29.6493 106.338 29.3581C106.047 29.0668 105.901 28.7061 105.901 28.2761C105.901 27.8461 106.047 27.4855 106.338 27.1942C106.629 26.9029 106.99 26.7573 107.42 26.7573C107.836 26.7573 108.19 26.9029 108.481 27.1942C108.772 27.4855 108.918 27.8461 108.918 28.2761C108.918 28.7061 108.772 29.0668 108.481 29.3581C108.19 29.6493 107.836 29.795 107.42 29.795ZM107.855 31.3139C108.258 31.3139 108.585 31.6405 108.585 32.0435V42.0485C108.585 42.4515 108.258 42.7781 107.855 42.7781H106.943C106.54 42.7781 106.213 42.4515 106.213 42.0485V32.0435C106.213 31.6405 106.54 31.3139 106.943 31.3139H107.855Z" fill="#220A30"/>
<path d="M110.908 36.994C110.908 35.8427 111.144 34.8232 111.616 33.9355C112.101 33.0477 112.753 32.3611 113.572 31.8756C114.404 31.3763 115.319 31.1266 116.318 31.1266C117.22 31.1266 118.003 31.3069 118.669 31.6676C118.935 31.803 119.179 31.9523 119.402 32.1152C119.727 32.3525 120.292 32.1366 120.292 31.7343C120.292 31.5021 120.48 31.3139 120.713 31.3139H121.955C122.358 31.3139 122.685 31.6405 122.685 32.0435V42.0485C122.685 42.4515 122.358 42.7781 121.955 42.7781H120.716C120.482 42.7781 120.292 42.5882 120.292 42.3538C120.292 41.9451 119.712 41.7261 119.383 41.969C119.16 42.1341 118.915 42.2859 118.648 42.4244C117.955 42.7851 117.164 42.9654 116.276 42.9654C115.292 42.9654 114.39 42.7157 113.572 42.2164C112.753 41.7031 112.101 40.9957 111.616 40.0941C111.144 39.1786 110.908 38.1453 110.908 36.994ZM120.292 37.0356C120.292 36.245 120.126 35.5583 119.793 34.9758C119.474 34.3932 119.051 33.9493 118.524 33.6442C117.996 33.339 117.428 33.1864 116.817 33.1864C116.207 33.1864 115.638 33.339 115.111 33.6442C114.584 33.9355 114.154 34.3724 113.821 34.955C113.502 35.5237 113.343 36.2033 113.343 36.994C113.343 37.7846 113.502 38.4782 113.821 39.0746C114.154 39.6711 114.584 40.1288 115.111 40.4478C115.652 40.753 116.221 40.9056 116.817 40.9056C117.428 40.9056 117.996 40.753 118.524 40.4478C119.051 40.1427 119.474 39.6988 119.793 39.1162C120.126 38.5198 120.292 37.8262 120.292 37.0356Z" fill="#220A30"/>
<path d="M127.442 27.3815C127.845 27.3815 128.172 27.7081 128.172 28.1111V42.0485C128.172 42.4515 127.845 42.7781 127.442 42.7781H126.53C126.127 42.7781 125.8 42.4515 125.8 42.0485V28.1111C125.8 27.7081 126.127 27.3815 126.53 27.3815H127.442Z" fill="#220A30"/>
<path d="M72.6769 62.6052C71.706 62.6052 70.8321 62.4388 70.0554 62.1059C69.2786 61.7591 68.6683 61.2736 68.2244 60.6494C67.9147 60.2139 67.7131 59.7278 67.6194 59.191C67.5502 58.794 67.8853 58.4648 68.2882 58.4648H69.4293C69.8072 58.4648 70.1088 58.7602 70.2368 59.1158C70.3591 59.4557 70.5553 59.7519 70.8252 60.0044C71.2691 60.4067 71.8863 60.6078 72.6769 60.6078C73.4953 60.6078 74.1334 60.4136 74.5911 60.0252C75.0489 59.623 75.2777 59.1098 75.2777 58.4856C75.2777 58.0001 75.1321 57.6048 74.8408 57.2996C74.5634 56.9945 74.2097 56.7586 73.7797 56.5922C73.3636 56.4257 72.781 56.2454 72.032 56.0512C71.0887 55.8016 70.3189 55.5519 69.7225 55.3022C69.1399 55.0387 68.6405 54.6364 68.2244 54.0954C67.8083 53.5545 67.6002 52.8332 67.6002 51.9316C67.6002 51.0993 67.8083 50.3711 68.2244 49.7469C68.6405 49.1227 69.2231 48.6442 69.9721 48.3113C70.7212 47.9784 71.5881 47.8119 72.5729 47.8119C73.9739 47.8119 75.1182 48.1656 76.006 48.873C76.706 49.4115 77.1635 50.1089 77.3786 50.9652C77.4823 51.3782 77.1398 51.7443 76.714 51.7443H75.5567C75.176 51.7443 74.8749 51.4394 74.7086 51.0969C74.5828 50.8377 74.3911 50.6027 74.1334 50.3919C73.6757 50.0174 73.0723 49.8301 72.3232 49.8301C71.6436 49.8301 71.0887 50.0035 70.6587 50.3503C70.2287 50.6971 70.0137 51.1964 70.0137 51.8484C70.0137 52.2922 70.1455 52.6598 70.4091 52.9511C70.6865 53.2285 71.0332 53.4504 71.4494 53.6169C71.8655 53.7833 72.4342 53.9637 73.1555 54.1579C74.1126 54.4214 74.8894 54.6849 75.4858 54.9485C76.0961 55.212 76.6093 55.6212 77.0255 56.1761C77.4555 56.717 77.6705 57.4453 77.6705 58.3607C77.6705 59.0959 77.4693 59.7894 77.0671 60.4414C76.6787 61.0933 76.1031 61.6204 75.3402 62.0226C74.5911 62.411 73.7034 62.6052 72.6769 62.6052Z" fill="#220A30"/>
<path d="M90.1219 50.9953C90.5249 50.9953 90.8516 51.322 90.8516 51.725V61.7299C90.8516 62.1329 90.5249 62.4596 90.1219 62.4596H88.8294C88.6362 62.4596 88.4797 62.303 88.4797 62.1099C88.4797 61.7787 88.0241 61.6022 87.7558 61.7964C87.5286 61.9609 87.2775 62.1057 87.0024 62.2307C86.406 62.4943 85.7679 62.626 85.0882 62.626C84.1866 62.626 83.3752 62.4388 82.6539 62.0643C81.9465 61.6897 81.3847 61.1349 80.9686 60.3998C80.5663 59.6646 80.3652 58.7769 80.3652 57.7365V51.725C80.3652 51.322 80.6919 50.9953 81.0949 50.9953H81.9867C82.3896 50.9953 82.7163 51.322 82.7163 51.725V57.3828C82.7163 58.4093 82.9729 59.1999 83.4862 59.7548C83.9994 60.2957 84.6999 60.5662 85.5876 60.5662C86.4753 60.5662 87.1758 60.2957 87.689 59.7548C88.2161 59.1999 88.4797 58.4093 88.4797 57.3828V51.725C88.4797 51.322 88.8064 50.9953 89.2093 50.9953H90.1219Z" fill="#220A30"/>
<path d="M107.859 50.808C108.761 50.808 109.565 50.9953 110.273 51.3698C110.994 51.7443 111.556 52.2992 111.958 53.0343C112.374 53.7695 112.582 54.6572 112.582 55.6975V61.7299C112.582 62.1329 112.255 62.4596 111.852 62.4596H110.961C110.558 62.4596 110.231 62.1329 110.231 61.7299V56.0512C110.231 55.0248 109.974 54.2411 109.461 53.7001C108.948 53.1453 108.247 52.8679 107.36 52.8679C106.472 52.8679 105.764 53.1453 105.237 53.7001C104.724 54.2411 104.468 55.0248 104.468 56.0512V61.7299C104.468 62.1329 104.141 62.4596 103.738 62.4596H102.846C102.443 62.4596 102.116 62.1329 102.116 61.7299V56.0512C102.116 55.0248 101.86 54.2411 101.347 53.7001C100.833 53.1453 100.133 52.8679 99.2452 52.8679C98.3574 52.8679 97.65 53.1453 97.1229 53.7001C96.6097 54.2411 96.3531 55.0248 96.3531 56.0512V61.7299C96.3531 62.1329 96.0264 62.4596 95.6234 62.4596H94.7108C94.3078 62.4596 93.9812 62.1329 93.9812 61.7299V51.7249C93.9812 51.322 94.3078 50.9953 94.7108 50.9953H96.007C96.1981 50.9953 96.3531 51.1502 96.3531 51.3414C96.3531 51.6661 96.7913 51.8379 97.054 51.647C97.2895 51.4759 97.5483 51.328 97.8303 51.2034C98.4268 50.9398 99.0648 50.808 99.7445 50.808C100.66 50.808 101.478 51.0022 102.2 51.3906C102.496 51.55 102.764 51.7386 103.004 51.9563C103.443 52.3554 104.28 52.3513 104.726 51.9598C104.951 51.7625 105.205 51.5866 105.487 51.4322C106.222 51.0161 107.013 50.808 107.859 50.808Z" fill="#220A30"/>
<path d="M129.478 50.808C130.38 50.808 131.184 50.9953 131.892 51.3698C132.613 51.7443 133.175 52.2992 133.577 53.0343C133.993 53.7695 134.201 54.6572 134.201 55.6975V61.7299C134.201 62.1329 133.874 62.4596 133.471 62.4596H132.58C132.177 62.4596 131.85 62.1329 131.85 61.7299V56.0512C131.85 55.0248 131.593 54.2411 131.08 53.7001C130.567 53.1453 129.866 52.8679 128.979 52.8679C128.091 52.8679 127.384 53.1453 126.856 53.7001C126.343 54.2411 126.087 55.0248 126.087 56.0512V61.7299C126.087 62.1329 125.76 62.4596 125.357 62.4596H124.465C124.062 62.4596 123.736 62.1329 123.736 61.7299V56.0512C123.736 55.0248 123.479 54.2411 122.966 53.7001C122.452 53.1453 121.752 52.8679 120.864 52.8679C119.976 52.8679 119.269 53.1453 118.742 53.7001C118.229 54.2411 117.972 55.0248 117.972 56.0512V61.7299C117.972 62.1329 117.645 62.4596 117.242 62.4596H116.33C115.927 62.4596 115.6 62.1329 115.6 61.7299V51.7249C115.6 51.322 115.927 50.9953 116.33 50.9953H117.626C117.817 50.9953 117.972 51.1502 117.972 51.3414C117.972 51.6661 118.41 51.8379 118.673 51.647C118.909 51.4759 119.167 51.328 119.449 51.2034C120.046 50.9398 120.684 50.808 121.364 50.808C122.279 50.808 123.097 51.0022 123.819 51.3906C124.115 51.55 124.383 51.7386 124.623 51.9563C125.062 52.3554 125.899 52.3513 126.345 51.9598C126.57 51.7625 126.824 51.5866 127.106 51.4322C127.841 51.0161 128.632 50.808 129.478 50.808Z" fill="#220A30"/>
<path d="M138.426 49.4764C137.996 49.4764 137.635 49.3308 137.344 49.0395C137.053 48.7482 136.907 48.3876 136.907 47.9576C136.907 47.5276 137.053 47.1669 137.344 46.8756C137.635 46.5844 137.996 46.4387 138.426 46.4387C138.842 46.4387 139.196 46.5844 139.487 46.8756C139.778 47.1669 139.924 47.5276 139.924 47.9576C139.924 48.3876 139.778 48.7482 139.487 49.0395C139.196 49.3308 138.842 49.4764 138.426 49.4764ZM138.862 50.9953C139.265 50.9953 139.591 51.322 139.591 51.725V61.7299C139.591 62.1329 139.265 62.4596 138.862 62.4596H137.949C137.546 62.4596 137.219 62.1329 137.219 61.7299V51.7249C137.219 51.322 137.546 50.9953 137.949 50.9953H138.862Z" fill="#220A30"/>
<path d="M146.202 52.9303C145.799 52.9303 145.473 53.257 145.473 53.6599V59.2762C145.473 59.7062 145.57 60.0183 145.764 60.2125C145.972 60.3928 146.319 60.483 146.804 60.483H147.531C147.934 60.483 148.261 60.8097 148.261 61.2126V61.7299C148.261 62.1329 147.934 62.4596 147.531 62.4596H146.388C145.32 62.4596 144.502 62.2099 143.933 61.7105C143.364 61.2112 143.08 60.3998 143.08 59.2762V53.6065C143.08 53.233 142.777 52.9303 142.404 52.9303C142.03 52.9303 141.727 52.6275 141.727 52.2541V51.6715C141.727 51.298 142.03 50.9953 142.404 50.9953C142.777 50.9953 143.08 50.6925 143.08 50.3191V48.8745C143.08 48.4715 143.407 48.1448 143.81 48.1448H144.743C145.146 48.1448 145.473 48.4715 145.473 48.8745V50.2656C145.473 50.6686 145.799 50.9953 146.202 50.9953H147.531C147.934 50.9953 148.261 51.322 148.261 51.725V52.2006C148.261 52.6036 147.934 52.9303 147.531 52.9303H146.202Z" fill="#220A30"/>
</svg>
