<svg width="49" height="39" viewBox="0 0 49 39" fill="none" xmlns="http://www.w3.org/2000/svg">
<path fill-rule="evenodd" clip-rule="evenodd" d="M48.3431 4.6141C46.5516 5.4097 44.6454 5.9322 42.6911 6.1635C44.7603 4.9183 46.2974 2.9852 47.0188 0.7211C45.0924 1.8646 42.9761 2.6715 40.7652 3.1056C38.9751 1.1937 36.4155 0 33.5821 0C28.15 0 23.7434 4.4056 23.7434 9.8402C23.7434 10.611 23.8284 11.3604 23.9973 12.0815C15.8167 11.6693 8.56569 7.7568 3.70833 1.796C2.83217 3.3064 2.37343 5.0129 2.37705 6.7482C2.37705 10.1608 4.11411 13.1729 6.75467 14.9386C5.18801 14.8881 3.65747 14.4667 2.29509 13.7108V13.8316C2.29509 18.6007 5.68825 22.5795 10.1938 23.4799C9.35015 23.7131 8.47712 23.8299 7.60022 23.8268C6.96656 23.8268 6.3469 23.7674 5.74722 23.6514C7.00054 27.559 10.6325 30.4064 14.9412 30.4824C11.573 33.1232 7.32736 34.697 2.71787 34.697C1.9233 34.697 1.13872 34.6512 0.369141 34.5616C4.72578 37.3486 9.90097 38.9788 15.4569 38.9788C33.5621 38.9788 43.4607 23.9866 43.4607 10.9823C43.4607 10.5545 43.4517 10.1267 43.4347 9.7077C45.3692 8.3087 47.0315 6.5837 48.3431 4.6141Z" fill="#663AA3"/>
</svg>
