<svg width="31" height="31" viewBox="0 0 31 31" fill="none" xmlns="http://www.w3.org/2000/svg">
<path fill-rule="evenodd" clip-rule="evenodd" d="M15.4093 0.0839844C11.2875 0.0839844 10.7702 0.102019 9.15104 0.17566C7.53505 0.249696 6.43242 0.505422 5.46662 0.880904C4.46839 1.26857 3.62204 1.78706 2.77805 2.6312C1.93328 3.47479 1.41518 4.3217 1.02601 5.31969C0.649503 6.28509 0.394015 7.38843 0.321245 9.00371C0.248474 10.6228 0.229492 11.1405 0.229492 15.2629C0.229492 19.3852 0.247683 19.9009 0.321245 21.5201C0.395597 23.136 0.651085 24.2389 1.02601 25.2041C1.41439 26.2023 1.93328 27.0492 2.77726 27.893C3.62045 28.7373 4.4676 29.2572 5.46504 29.6448C6.43083 30.0201 7.53426 30.276 9.14946 30.35C10.7686 30.4236 11.2859 30.4417 15.4077 30.4417C19.5304 30.4417 20.0461 30.4236 21.6653 30.35C23.2812 30.276 24.3854 30.0201 25.3512 29.6448C26.3495 29.2572 27.195 28.7373 28.0382 27.893C28.8822 27.0492 29.4011 26.2023 29.7903 25.2043C30.1636 24.2389 30.4191 23.1356 30.495 21.5203C30.5678 19.9012 30.5868 19.3852 30.5868 15.2629C30.5868 11.1405 30.5678 10.6231 30.495 9.0041C30.4191 7.3882 30.1636 6.28509 29.7903 5.32008C29.4011 4.3217 28.8822 3.47479 28.0382 2.6312C27.1935 1.78682 26.3495 1.26817 25.3505 0.880904C24.3823 0.505422 23.2789 0.249696 21.6629 0.17566C20.0437 0.102019 19.5288 0.0839844 15.4046 0.0839844H15.4093ZM14.9031 2.8189H14.9039L15.4093 2.81906C19.4623 2.81906 19.9425 2.83361 21.5434 2.90631C23.0234 2.97401 23.8262 3.22128 24.3617 3.42899C25.0697 3.70417 25.5751 4.03307 26.1059 4.56437C26.6366 5.0956 26.9656 5.60159 27.2417 6.30992C27.4489 6.84431 27.6973 7.64748 27.7646 9.12742C27.8373 10.7276 27.8531 11.2083 27.8531 15.2592C27.8531 19.31 27.8373 19.7906 27.7646 21.3908C27.6965 22.8707 27.4489 23.6739 27.2417 24.2083C26.9664 24.9166 26.6366 25.4211 26.1059 25.952C25.5743 26.4833 25.0704 26.8122 24.3617 27.0873C23.827 27.296 23.0234 27.5426 21.5434 27.6103C19.9433 27.683 19.4623 27.6989 15.4093 27.6989C11.3563 27.6989 10.8762 27.683 9.27601 27.6103C7.79607 27.5419 6.99322 27.2947 6.45773 27.0869C5.749 26.8118 5.24356 26.4829 4.71202 25.9516C4.18047 25.4204 3.85222 24.9157 3.57616 24.207C3.36813 23.6727 3.12055 22.8694 3.05332 21.3895C2.98055 19.7895 2.96631 19.3087 2.96631 15.2554C2.96631 11.2019 2.98055 10.7238 3.05332 9.12362C3.12134 7.64369 3.36813 6.8406 3.57616 6.30549C3.85142 5.59709 4.18047 5.09125 4.71202 4.55994C5.24356 4.02872 5.749 3.69974 6.45773 3.42401C6.99243 3.21534 7.79607 2.96871 9.27601 2.90061C10.6761 2.83741 11.2187 2.81843 14.048 2.81526V2.81906C14.3122 2.81866 14.597 2.81882 14.9031 2.8189ZM21.6906 7.16071C21.6906 6.15473 22.5061 5.33986 23.5122 5.33986V5.33922C24.5175 5.33922 25.3331 6.15505 25.3331 7.16071C25.3331 8.16629 24.5175 8.98211 23.5122 8.98211C22.5061 8.98211 21.6906 8.16629 21.6906 7.16071ZM15.4093 7.46769C11.1048 7.46785 7.61494 10.958 7.61494 15.2627C7.61494 19.5675 11.1048 23.0562 15.4093 23.0562C19.7147 23.0562 23.2037 19.5675 23.2037 15.2627C23.2037 10.9578 19.7139 7.46769 15.4093 7.46769ZM20.4693 15.2626C20.4693 12.4681 18.2039 10.203 15.4093 10.203C12.6148 10.203 10.3502 12.4681 10.3502 15.2626C10.3502 18.0568 12.6148 20.3223 15.4093 20.3223C18.2039 20.3223 20.4693 18.0568 20.4693 15.2626Z" fill="#663AA3"/>
</svg>
