<svg width="30" height="30" viewBox="0 0 30 30" fill="none" xmlns="http://www.w3.org/2000/svg">
<path fill-rule="evenodd" clip-rule="evenodd" d="M0.53418 3.04499C0.53418 2.4141 0.784932 1.80899 1.23105 1.3628C1.67717 0.916682 2.28226 0.666018 2.91347 0.666018H26.6281C26.9405 0.665544 27.2506 0.726687 27.5393 0.846047C27.8288 0.965328 28.0914 1.14053 28.3121 1.36153C28.5336 1.58253 28.7091 1.84491 28.8286 2.13385C28.948 2.42272 29.0097 2.73231 29.0097 3.04499V26.76C29.0097 27.0727 28.9488 27.3825 28.8294 27.6714C28.7099 27.9605 28.5343 28.2231 28.3136 28.4443C28.0922 28.6655 27.8296 28.841 27.5409 28.9606C27.2522 29.0803 26.9421 29.1417 26.6296 29.1416H2.91347C2.60103 29.1416 2.29095 29.0799 2.00224 28.9603C1.71353 28.8407 1.45173 28.6654 1.23025 28.4443C1.00957 28.2233 0.834752 27.9609 0.714522 27.6721C0.595083 27.3833 0.53418 27.0738 0.53418 26.7612V3.04499ZM11.805 11.523H15.661V13.4593C16.2179 12.3461 17.6417 11.3443 19.7813 11.3443C23.8825 11.3443 24.8547 13.5616 24.8547 17.6297V25.1653H20.7036V18.5564C20.7036 16.2395 20.1475 14.9323 18.734 14.9323C16.7731 14.9323 15.9576 16.3418 15.9576 18.5564V25.1653H11.805V11.523ZM4.68607 24.988H8.83875V11.3443H4.68607V24.9867V24.988ZM9.43279 6.89441C9.4407 7.24988 9.37743 7.60345 9.24692 7.93416C9.1164 8.26487 8.92101 8.56624 8.67185 8.82038C8.42348 9.07461 8.12607 9.27663 7.7986 9.4145C7.47113 9.55236 7.11915 9.6234 6.7632 9.6234C6.40726 9.6234 6.05528 9.55236 5.72781 9.4145C5.40034 9.27663 5.10293 9.07461 4.85456 8.82038C4.6054 8.56624 4.41001 8.26487 4.27949 7.93416C4.14898 7.60345 4.08571 7.24988 4.09362 6.89441C4.10865 6.19652 4.39737 5.53249 4.89569 5.04437C5.3948 4.55625 6.06555 4.28297 6.7632 4.28297C7.46086 4.28297 8.13161 4.55625 8.63072 5.04437C9.12904 5.53249 9.41776 6.19652 9.43279 6.89441Z" fill="#663AA3"/>
</svg>
