<svg width="28" height="35" viewBox="0 0 28 35" fill="none" xmlns="http://www.w3.org/2000/svg">
<path d="M14.1738 2V0.78836V2ZM2.20117 14.6011H0.989532H2.20117ZM4.44605 21.6892L3.48208 22.4232C3.49139 22.4354 3.50093 22.4475 3.51071 22.4594L4.44605 21.6892ZM14.1738 33.5026L13.2385 34.2728C13.4687 34.5524 13.8118 34.7143 14.1738 34.7143C14.5359 34.7143 14.879 34.5524 15.1092 34.2728L14.1738 33.5026ZM23.9016 21.6892L24.837 22.4594C24.8467 22.4475 24.8563 22.4354 24.8656 22.4232L23.9016 21.6892ZM26.1465 14.6011H27.3581H26.1465ZM17.452 14.6011C17.452 16.6008 15.9267 18.1148 14.1739 18.1148V20.5381C17.3803 20.5381 19.8753 17.8208 19.8753 14.6011H17.452ZM14.1739 18.1148C12.4211 18.1148 10.8958 16.6008 10.8958 14.6011H8.47251C8.47251 17.8208 10.9675 20.5381 14.1739 20.5381V18.1148ZM10.8958 14.6011C10.8958 12.6013 12.4211 11.0873 14.1739 11.0873V8.66402C10.9675 8.66402 8.47251 11.3813 8.47251 14.6011H10.8958ZM14.1739 11.0873C15.9267 11.0873 17.452 12.6013 17.452 14.6011H19.8753C19.8753 11.3813 17.3803 8.66402 14.1739 8.66402V11.0873ZM14.1738 0.78836C10.6566 0.78836 7.2967 2.2595 4.8295 4.85619L6.58626 6.52534C8.60969 4.39572 11.3404 3.21164 14.1738 3.21164V0.78836ZM4.8295 4.85619C2.36431 7.45077 0.989532 10.9571 0.989532 14.6011H3.41281C3.41281 11.561 4.56084 8.65707 6.58626 6.52534L4.8295 4.85619ZM0.989532 14.6011C0.989532 17.8108 1.65783 20.0276 3.48208 22.4232L5.41001 20.9551C3.94777 19.0349 3.41281 17.3517 3.41281 14.6011H0.989532ZM3.51071 22.4594L13.2385 34.2728L15.1092 32.7324L5.38138 20.919L3.51071 22.4594ZM15.1092 34.2728L24.837 22.4594L22.9663 20.919L13.2385 32.7324L15.1092 34.2728ZM24.8656 22.4232C26.6898 20.0276 27.3581 17.8108 27.3581 14.6011H24.9349C24.9349 17.3517 24.3999 19.0349 22.9376 20.9551L24.8656 22.4232ZM27.3581 14.6011C27.3581 10.9571 25.9834 7.45077 23.5182 4.85619L21.7614 6.52534C23.7868 8.65707 24.9349 11.561 24.9349 14.6011H27.3581ZM23.5182 4.85619C21.051 2.2595 17.6911 0.78836 14.1738 0.78836V3.21164C17.0072 3.21164 19.738 4.39572 21.7614 6.52534L23.5182 4.85619Z" fill="#444444"/>
</svg>
