<svg width="28" height="24" viewBox="0 0 28 24" fill="none" xmlns="http://www.w3.org/2000/svg">
<path d="M23.435 1.19043H4.77576C3.71531 1.19043 2.6983 1.62126 1.94845 2.38815C1.1986 3.15504 0.777344 4.19517 0.777344 5.27972V18.9107C0.777344 19.9952 1.1986 21.0353 1.94845 21.8022C2.6983 22.5691 3.71531 23 4.77576 23H23.435C24.4955 23 25.5125 22.5691 26.2623 21.8022C27.0122 21.0353 27.4334 19.9952 27.4334 18.9107V5.27972C27.4334 4.19517 27.0122 3.15504 26.2623 2.38815C25.5125 1.62126 24.4955 1.19043 23.435 1.19043ZM22.542 3.91662L14.1054 10.3913L5.66874 3.91662H22.542ZM23.435 20.2738H4.77576C4.42227 20.2738 4.08327 20.1302 3.83332 19.8745C3.58337 19.6189 3.44295 19.2722 3.44295 18.9107V5.62049L13.3057 13.1857C13.5364 13.3626 13.817 13.4583 14.1054 13.4583C14.3938 13.4583 14.6744 13.3626 14.9051 13.1857L24.7678 5.62049V18.9107C24.7678 19.2722 24.6274 19.6189 24.3775 19.8745C24.1275 20.1302 23.7885 20.2738 23.435 20.2738Z" fill="#444444" stroke="white" stroke-width="0.60582"/>
</svg>
