<svg width="27" height="26" viewBox="0 0 27 26" fill="none" xmlns="http://www.w3.org/2000/svg">
<path d="M14.5608 7.68121C15.5731 7.68121 16.5439 8.08332 17.2596 8.79909C17.9754 9.51485 18.3775 10.4856 18.3775 11.4979C18.3775 11.8353 18.5115 12.1589 18.7501 12.3975C18.9887 12.6361 19.3123 12.7701 19.6497 12.7701C19.9871 12.7701 20.3107 12.6361 20.5493 12.3975C20.7879 12.1589 20.9219 11.8353 20.9219 11.4979C20.9219 9.81081 20.2518 8.19283 19.0588 6.99989C17.8659 5.80695 16.2479 5.13677 14.5608 5.13677C14.2234 5.13677 13.8998 5.2708 13.6612 5.50939C13.4226 5.74798 13.2886 6.07157 13.2886 6.40899C13.2886 6.7464 13.4226 7.07 13.6612 7.30859C13.8998 7.54717 14.2234 7.68121 14.5608 7.68121Z" fill="#444444"/>
<path d="M14.5609 2.5923C16.9228 2.5923 19.1879 3.53056 20.858 5.20067C22.5281 6.87079 23.4664 9.13595 23.4664 11.4979C23.4664 11.8353 23.6004 12.1589 23.839 12.3974C24.0776 12.636 24.4012 12.7701 24.7386 12.7701C25.076 12.7701 25.3996 12.636 25.6382 12.3974C25.8768 12.1589 26.0108 11.8353 26.0108 11.4979C26.0108 8.46112 24.8045 5.54877 22.6572 3.40148C20.5099 1.25419 17.5976 0.0478516 14.5609 0.0478516C14.2234 0.0478516 13.8998 0.181889 13.6613 0.420477C13.4227 0.659065 13.2886 0.982659 13.2886 1.32007C13.2886 1.65749 13.4227 1.98108 13.6613 2.21967C13.8998 2.45826 14.2234 2.5923 14.5609 2.5923ZM25.6928 17.7445C25.6228 17.5402 25.502 17.3572 25.3418 17.2125C25.1815 17.0678 24.9871 16.9663 24.7768 16.9175L17.1435 15.1746C16.9363 15.1276 16.7206 15.1333 16.5161 15.191C16.3117 15.2488 16.125 15.3569 15.973 15.5054C15.7949 15.6707 15.7822 15.6835 14.9552 17.261C12.2113 15.9966 10.0126 13.7889 8.75952 11.0399C10.3752 10.2256 10.388 10.2256 10.5534 10.0348C10.7018 9.88284 10.8099 9.69611 10.8677 9.49166C10.9254 9.28721 10.9311 9.07155 10.8841 8.86435L9.14118 1.32007C9.09239 1.10977 8.99088 0.915343 8.84621 0.755095C8.70154 0.594846 8.51847 0.474049 8.31424 0.404074C8.01713 0.297957 7.71033 0.221256 7.39824 0.175074C7.07669 0.100515 6.74856 0.0579013 6.41863 0.0478516C4.86652 0.0478516 3.37799 0.664423 2.28048 1.76193C1.18298 2.85943 0.566406 4.34797 0.566406 5.90007C0.573139 11.0942 2.63947 16.0736 6.31227 19.7464C9.98507 23.4192 14.9645 25.4856 20.1586 25.4923C20.9272 25.4923 21.6882 25.3409 22.3982 25.0468C23.1082 24.7527 23.7533 24.3216 24.2968 23.7782C24.8402 23.2348 25.2713 22.5896 25.5654 21.8796C25.8595 21.1696 26.0108 20.4086 26.0108 19.6401C26.0112 19.3163 25.9857 18.9929 25.9345 18.6732C25.8811 18.3572 25.8002 18.0464 25.6928 17.7445ZM20.1586 22.9479C15.6383 22.9445 11.3041 21.1473 8.10775 17.951C4.9114 14.7546 3.11422 10.4204 3.11085 5.90007C3.1142 5.02383 3.46377 4.18443 4.08338 3.56482C4.70298 2.94522 5.54238 2.59565 6.41863 2.5923H6.83846L8.19974 8.49541L7.51274 8.85163C6.41863 9.42413 5.55352 9.88213 6.01152 10.8745C6.75732 12.9858 7.96409 14.9045 9.54414 16.4912C11.1242 18.0778 13.0378 19.2926 15.1461 20.0472C16.2147 20.4797 16.6346 19.6782 17.2071 18.5714L17.576 17.8717L23.4664 19.2202V19.6401C23.4631 20.5163 23.1135 21.3557 22.4939 21.9753C21.8743 22.5949 21.0349 22.9445 20.1586 22.9479Z" fill="#444444"/>
</svg>
