<svg width="39" height="31" viewBox="0 0 39 31" fill="none" xmlns="http://www.w3.org/2000/svg">
<path fill-rule="evenodd" clip-rule="evenodd" d="M38.5337 3.73368C37.1167 4.36299 35.6089 4.77628 34.0631 4.95923C35.6998 3.9743 36.9156 2.44524 37.4862 0.654365C35.9625 1.55886 34.2885 2.19711 32.5397 2.54047C31.1238 1.02819 29.0992 0.0839844 26.858 0.0839844C22.5613 0.0839844 19.0757 3.56876 19.0757 7.86746C19.0757 8.47715 19.1429 9.06991 19.2765 9.6403C12.8058 9.31425 7.07028 6.21951 3.22817 1.5046C2.53514 2.6993 2.17228 4.04912 2.17515 5.42172C2.17515 8.12105 3.54914 10.5036 5.63779 11.9002C4.39858 11.8603 3.18794 11.527 2.11032 10.9291V11.0246C2.11032 14.7969 4.79426 17.9441 8.3581 18.6563C7.69078 18.8407 7.00022 18.9331 6.30661 18.9307C5.80539 18.9307 5.31525 18.8837 4.84091 18.7919C5.83227 21.8828 8.70513 24.1351 12.1133 24.1952C9.44905 26.284 6.09078 27.5289 2.44473 27.5289C1.81623 27.5289 1.19564 27.4926 0.586914 27.4218C4.03296 29.6262 8.12647 30.9157 12.5212 30.9157C26.8422 30.9157 34.6718 19.0571 34.6718 8.77084C34.6718 8.43246 34.6647 8.09408 34.6513 7.76265C36.1814 6.65606 37.4963 5.29161 38.5337 3.73368Z" fill="#663AA3"/>
</svg>
