<svg width="408" height="444" viewBox="0 0 408 444" fill="none" xmlns="http://www.w3.org/2000/svg">
<rect x="0.980957" width="406.541" height="444" fill="url(#paint0_linear_2335_41501)"/>
<path opacity="0.2" d="M201.669 436.857C296.297 436.857 373.008 392.565 373.008 337.928C373.008 283.292 296.297 239 201.669 239C107.04 239 30.3291 283.292 30.3291 337.928C30.3291 392.565 107.04 436.857 201.669 436.857Z" fill="#663AA3"/>
<path d="M199.62 385.677C232.339 385.677 258.863 371.422 258.863 353.837C258.863 336.253 232.339 321.998 199.62 321.998C166.901 321.998 140.377 336.253 140.377 353.837C140.377 371.422 166.901 385.677 199.62 385.677Z" fill="#E6E6E6"/>
<path d="M309.177 324.545L317.297 329.244C317.297 329.244 313.199 316.172 315.473 303.015C316.02 299.915 317.142 296.944 318.781 294.256C319.411 292.931 324.307 284.727 320.003 280.94C315.699 277.153 305.578 284.699 306.038 304.942C306.25 311.583 307.305 318.17 309.177 324.545Z" fill="#663AA3"/>
<path opacity="0.5" d="M309.177 324.545L317.297 329.244C317.297 329.244 313.199 316.172 315.473 303.015C316.02 299.915 317.142 296.944 318.781 294.256C319.411 292.931 324.307 284.727 320.003 280.94C315.699 277.153 305.578 284.699 306.038 304.942C306.25 311.583 307.305 318.17 309.177 324.545Z" fill="black"/>
<path d="M312.954 327.149C312.87 327.148 312.788 327.121 312.719 327.073C312.65 327.024 312.598 326.955 312.569 326.876C312.569 326.792 309.468 318.268 309.628 304.585C309.787 290.902 317.033 283.468 317.146 283.402C317.183 283.365 317.228 283.335 317.277 283.314C317.326 283.294 317.379 283.283 317.432 283.283C317.486 283.283 317.538 283.294 317.588 283.314C317.637 283.335 317.681 283.365 317.719 283.402C317.793 283.479 317.834 283.582 317.834 283.689C317.834 283.796 317.793 283.899 317.719 283.976C317.644 284.041 310.643 291.174 310.483 304.594C310.323 318.014 313.302 326.519 313.368 326.604C313.387 326.653 313.397 326.706 313.395 326.759C313.394 326.811 313.382 326.864 313.36 326.912C313.338 326.96 313.307 327.003 313.268 327.039C313.229 327.075 313.183 327.103 313.133 327.12C313.077 327.144 313.015 327.154 312.954 327.149Z" fill="white"/>
<path d="M315.474 328.21L328.885 336.104C328.885 336.104 335.031 335.164 334.523 329.413C334.016 323.661 331.563 322.27 334.674 319.733C337.784 317.196 338.583 317.026 338.433 314.536C338.282 312.046 336.609 310.956 335.82 309.969C335.031 308.982 332.841 306.915 334.382 303.917C335.923 300.919 338.019 298.015 334.918 296.633C333.038 295.816 329.937 296.84 327.87 299.039C325.802 301.238 324.111 302.798 322.128 303.325C320.145 303.851 316.085 303.879 316.217 307.253C316.348 310.627 317.231 311.801 316.414 313.296C314.91 316.143 308.313 317.665 315.474 328.21Z" fill="#663AA3"/>
<path opacity="0.2" d="M315.474 328.21L328.885 336.104C328.885 336.104 335.031 335.164 334.523 329.413C334.016 323.661 331.563 322.27 334.674 319.733C337.784 317.196 338.583 317.026 338.433 314.536C338.282 312.046 336.609 310.956 335.82 309.969C335.031 308.982 332.841 306.915 334.382 303.917C335.923 300.919 338.019 298.015 334.918 296.633C333.038 295.816 329.937 296.84 327.87 299.039C325.802 301.238 324.111 302.798 322.128 303.325C320.145 303.851 316.085 303.879 316.217 307.253C316.348 310.627 317.231 311.801 316.414 313.296C314.91 316.143 308.313 317.665 315.474 328.21Z" fill="black"/>
<path d="M320.933 331.846C320.832 331.846 320.735 331.809 320.66 331.741C320.585 331.673 320.538 331.58 320.529 331.479C320.529 331.273 319.054 311.256 332.962 298.118C332.999 298.075 333.044 298.04 333.095 298.016C333.146 297.992 333.202 297.979 333.258 297.978C333.315 297.976 333.371 297.987 333.423 298.008C333.475 298.03 333.522 298.062 333.561 298.103C333.6 298.144 333.63 298.192 333.649 298.246C333.668 298.299 333.675 298.355 333.671 298.411C333.667 298.468 333.651 298.522 333.624 298.572C333.598 298.622 333.561 298.666 333.517 298.7C319.89 311.584 321.3 331.216 321.347 331.414C321.352 331.52 321.316 331.625 321.246 331.705C321.176 331.786 321.077 331.836 320.971 331.846H320.933Z" fill="white"/>
<path d="M323.338 314.716C323.236 314.714 323.139 314.674 323.064 314.605C322.99 314.536 322.943 314.441 322.934 314.34C322.83 312.809 322.417 311.315 321.719 309.948C321.021 308.582 320.054 307.371 318.874 306.389C318.831 306.358 318.794 306.319 318.766 306.274C318.738 306.229 318.719 306.179 318.711 306.127C318.702 306.074 318.704 306.021 318.716 305.969C318.727 305.917 318.75 305.869 318.78 305.825C318.844 305.737 318.94 305.678 319.048 305.661C319.155 305.643 319.265 305.668 319.354 305.731C320.636 306.775 321.688 308.073 322.443 309.543C323.198 311.013 323.641 312.624 323.742 314.274C323.748 314.326 323.742 314.38 323.726 314.43C323.711 314.48 323.685 314.527 323.651 314.568C323.616 314.608 323.575 314.641 323.527 314.665C323.48 314.689 323.429 314.703 323.376 314.706L323.338 314.716Z" fill="white"/>
<path d="M322.353 318.126C322.253 318.124 322.156 318.088 322.08 318.023C322.042 317.985 322.012 317.94 321.992 317.891C321.971 317.842 321.961 317.789 321.961 317.736C321.961 317.683 321.971 317.63 321.992 317.581C322.012 317.532 322.042 317.487 322.08 317.449C322.221 317.29 325.745 313.493 333.837 314.63C333.891 314.636 333.943 314.652 333.99 314.679C334.037 314.706 334.078 314.742 334.111 314.785C334.143 314.828 334.167 314.877 334.179 314.93C334.192 314.983 334.194 315.037 334.184 315.091C334.17 315.196 334.115 315.292 334.031 315.357C333.946 315.423 333.839 315.452 333.733 315.438C326.084 314.386 322.719 317.985 322.682 318.013C322.639 318.056 322.587 318.088 322.53 318.108C322.473 318.127 322.413 318.134 322.353 318.126Z" fill="white"/>
<path d="M250.667 345.38L249.135 332.486H242.773C240.665 330.625 238.373 328.984 235.931 327.59C215.877 316.012 183.361 316.012 163.306 327.59C160.864 328.984 158.572 330.625 156.464 332.486H150.102L148.373 346.733C147.508 354.918 152.47 363.273 163.306 369.522C183.361 381.1 215.877 381.1 235.931 369.522C247.359 362.925 252.264 353.988 250.667 345.38Z" fill="#663AA3"/>
<path opacity="0.3" d="M250.667 345.38L249.135 332.486H242.773C240.665 330.625 238.373 328.984 235.931 327.59C215.877 316.012 183.361 316.012 163.306 327.59C160.864 328.984 158.572 330.625 156.464 332.486H150.102L148.373 346.733C147.508 354.918 152.47 363.273 163.306 369.522C183.361 381.1 215.877 381.1 235.931 369.522C247.359 362.925 252.264 353.988 250.667 345.38Z" fill="white"/>
<path d="M199.62 361.658C226.968 361.658 249.137 348.859 249.137 333.07C249.137 317.282 226.968 304.482 199.62 304.482C172.273 304.482 150.104 317.282 150.104 333.07C150.104 348.859 172.273 361.658 199.62 361.658Z" fill="#663AA3"/>
<path opacity="0.5" d="M199.62 361.658C226.968 361.658 249.137 348.859 249.137 333.07C249.137 317.282 226.968 304.482 199.62 304.482C172.273 304.482 150.104 317.282 150.104 333.07C150.104 348.859 172.273 361.658 199.62 361.658Z" fill="white"/>
<path d="M233.037 314.527C251.494 324.451 251.494 340.531 233.037 350.445C214.58 360.36 184.658 360.36 166.201 350.445C147.744 340.531 147.753 324.451 166.201 314.527C184.649 304.603 214.58 304.613 233.037 314.527Z" fill="#F0F0F0"/>
<path d="M246.57 329.658C246.505 329.339 246.439 329.019 246.345 328.719H202.834L231.262 313.851C231.323 313.818 231.377 313.774 231.421 313.72L230.284 313.194L201.217 328.399V307.113H200.202V328.117L170.421 312.545L169.35 313.015C169.395 313.117 169.47 313.202 169.566 313.259L199.103 328.709H152.894C152.8 329.047 152.725 329.395 152.65 329.734H198.642L163.514 348.106C163.408 348.16 163.325 348.251 163.28 348.361C163.235 348.472 163.231 348.595 163.269 348.707C163.448 348.83 163.636 348.942 163.824 349.055C163.877 349.065 163.931 349.065 163.984 349.055L200.183 330.091V357.889H201.217V329.809L236.581 348.313C236.891 348.106 237.191 347.899 237.52 347.683C237.475 347.616 237.414 347.561 237.342 347.523L203.322 329.724H246.364C246.436 329.716 246.506 329.694 246.57 329.658Z" fill="#E6E6E6"/>
<path d="M166.2 315.11C184.657 305.196 214.579 305.196 233.037 315.11C242.124 319.997 246.729 326.388 246.86 332.778C247.001 326.2 242.397 319.565 233.037 314.528C214.579 304.613 184.657 304.613 166.2 314.528C156.803 319.565 152.235 326.181 152.376 332.778C152.508 326.378 157.113 319.997 166.2 315.11Z" fill="#663AA3"/>
<path opacity="0.3" d="M166.2 315.11C184.657 305.196 214.579 305.196 233.037 315.11C242.124 319.997 246.729 326.388 246.86 332.778C247.001 326.2 242.397 319.565 233.037 314.528C214.579 304.613 184.657 304.613 166.2 314.528C156.803 319.565 152.235 326.181 152.376 332.778C152.508 326.378 157.113 319.997 166.2 315.11Z" fill="white"/>
<path opacity="0.2" d="M199.62 350.435C218.071 350.435 233.028 342.399 233.028 332.486C233.028 322.572 218.071 314.536 199.62 314.536C181.169 314.536 166.211 322.572 166.211 332.486C166.211 342.399 181.169 350.435 199.62 350.435Z" fill="black"/>
<path d="M250.771 146.328C250.771 146.328 249.559 144.599 250.771 140.981C251.119 139.938 250.311 136.902 250.837 136.47C251.363 136.038 253.525 136.141 253.985 140.229C255.093 138.751 255.898 137.067 256.353 135.277C257.002 132.457 257.585 128.783 260.592 131.048C263.599 133.312 267.227 138.171 264.21 142.785C262.46 145.463 260.421 147.94 258.13 150.172L250.771 146.328Z" fill="#FFA8A7"/>
<path d="M245.968 152.596L250.77 146.328L258.119 150.209L254.483 157.821C254.483 157.821 247.416 160.725 245.968 152.596Z" fill="#FFA8A7"/>
<path d="M212.203 314.114C212.203 314.114 209.431 313.513 209.563 316.755C209.704 320.195 207.185 324.762 213.369 326.416C216.719 327.362 219.815 329.048 222.428 331.35C224.683 333.116 230.754 334.846 235.34 332.797C243.798 329.038 232.305 324.471 232.305 324.471L212.203 314.114Z" fill="#263238"/>
<path d="M179.602 314.162C179.602 314.162 177.854 312.818 176.98 319.8C176.106 326.783 168.522 344.432 180.448 344.432C186.566 344.432 187.102 334.912 187.073 328.456C187.045 321.999 187.308 315.75 186.463 314.669C185.617 313.588 179.602 314.162 179.602 314.162Z" fill="#263238"/>
<path d="M205.934 255.981C206.437 258.546 206.723 261.149 206.789 263.762C206.789 267.051 206.206 275.979 206.789 281.73C207.371 287.482 210.623 309.67 210.858 311.154C210.942 312.319 210.885 313.49 210.689 314.641C210.648 314.918 210.683 315.201 210.788 315.461C210.894 315.72 211.067 315.947 211.29 316.116C213.104 317.47 217.69 320.9 219.213 322.15C221.139 323.719 226.731 331.068 232.304 324.471C232.304 324.471 220.087 316.239 219.504 312.649C218.921 309.059 221.383 277.952 222.069 274.297C222.755 270.641 223.009 248.453 223.009 248.453L205.934 255.981Z" fill="#FFA8A7"/>
<path d="M181.2 252.907V259.73C181.201 260.448 181.141 261.165 181.021 261.873C180.42 265.51 178.456 277.971 178.249 287.923C178.005 299.726 178.174 310.233 178.672 314.641C179.17 319.048 176.548 327.553 176.322 328.841C175.806 331.763 176.238 333.633 180.551 333.671C183.277 333.671 185.1 333.163 185.335 328.972C185.57 324.781 186.04 316.642 186.04 316.642C186.04 316.642 191.941 288.938 192.966 284.324C193.99 279.709 199.272 257.559 199.619 255.313L181.2 252.907Z" fill="#FFA8A7"/>
<path d="M185.034 205.814C185.034 205.814 182.985 210.297 181.791 219.798C180.598 229.299 181.199 252.906 181.199 252.906C188.202 255.91 195.739 257.473 203.359 257.502C210.714 257.558 217.873 255.131 223.677 250.613C223.677 250.613 223.451 251.609 223.451 234.496C223.451 217.383 219.777 207.187 219.777 207.187L185.034 205.814Z" fill="#663AA3"/>
<path d="M183.813 198.842C181.576 204.188 180.083 209.817 179.377 215.57C177.639 229.892 179.481 252.907 179.481 252.907C187.108 255.785 195.171 257.339 203.322 257.502C210.677 257.558 217.836 255.131 223.64 250.614C223.64 250.614 224.073 245.802 223.415 231.659C223.002 221.777 221.862 211.939 220.003 202.225L183.813 198.842Z" fill="#663AA3"/>
<path opacity="0.5" d="M183.813 198.842C181.576 204.188 180.083 209.817 179.377 215.57C177.639 229.892 179.481 252.907 179.481 252.907C187.108 255.785 195.171 257.339 203.322 257.502C210.677 257.558 217.836 255.131 223.64 250.614C223.64 250.614 224.073 245.802 223.415 231.659C223.002 221.777 221.862 211.939 220.003 202.225L183.813 198.842Z" fill="black"/>
<path d="M221.403 121.687C221.403 121.687 224.222 123.106 221.939 129.694C219.655 136.281 224.805 139.571 226.139 136.977C226.139 136.977 226.055 141.159 220.98 141.159C215.905 141.159 215.003 136.958 215.003 136.958C215.003 136.958 213.18 138.96 213.18 144.58C213.18 150.199 218.584 171.316 199.788 171.316C180.993 171.316 181.359 155.34 181.359 155.34C181.359 155.34 176.548 155.434 176.548 148.235C176.548 148.235 183.859 152.774 183.859 142.597C183.859 132.419 182.215 119.582 189.958 119.582C189.958 119.582 187.299 114.075 192.599 110.541C197.899 107.008 213.81 111.819 213.81 111.819C213.81 111.819 218.593 108.944 222.014 112.336C226.177 116.49 221.403 121.687 221.403 121.687Z" fill="#263238"/>
<path d="M212.287 151.186C212.287 151.186 216.272 151.054 224.109 155.312C228.978 157.939 234.021 160.231 239.202 162.172L245.968 152.596C246.587 154.302 247.766 155.747 249.312 156.697C250.859 157.646 252.682 158.042 254.483 157.821C254.483 157.821 247.613 173.007 242.679 175.047C237.745 177.086 218.245 166.241 218.245 166.241L212.287 151.186Z" fill="#663AA3"/>
<path opacity="0.3" d="M212.287 151.186C212.287 151.186 216.272 151.054 224.109 155.312C228.978 157.939 234.021 160.231 239.202 162.172L245.968 152.596C246.587 154.302 247.766 155.747 249.312 156.697C250.859 157.646 252.682 158.042 254.483 157.821C254.483 157.821 247.613 173.007 242.679 175.047C237.745 177.086 218.245 166.241 218.245 166.241L212.287 151.186Z" fill="white"/>
<path d="M195.578 151.75L186.575 154.729V173.008L188.351 182.03C188.708 183.827 188.558 185.688 187.919 187.405C187.073 189.708 185.692 193.523 183.85 198.842C189.769 203.445 197.074 205.903 204.571 205.815C211.827 205.815 220.04 202.225 220.04 202.225C218.693 194.173 218.126 186.009 218.349 177.848C218.349 177.848 222.756 175.527 222.85 169.239C222.944 162.952 217.136 154.354 212.287 151.187L207.175 151.111L195.578 151.75Z" fill="#663AA3"/>
<path d="M195.578 151.749L210.361 161.325C210.487 161.405 210.636 161.442 210.785 161.431C210.934 161.42 211.076 161.361 211.189 161.262C211.302 161.164 211.38 161.032 211.412 160.886C211.444 160.74 211.428 160.588 211.366 160.451L207.175 151.11V135.735H195.578V151.749Z" fill="#FFA8A7"/>
<path d="M207.175 149.775C204.805 148.896 202.639 147.545 200.807 145.804C198.975 144.062 197.516 141.967 196.518 139.645V135.735H207.175V149.775Z" fill="#F28F8F"/>
<path d="M209.872 116.762C209.872 116.762 220.482 117.392 219.166 135.557C218.565 143.95 216.6 148.291 210.144 147.972C202.823 147.605 192.439 142.578 193.125 128.237C193.811 113.896 209.872 116.762 209.872 116.762Z" fill="#FFA8A7"/>
<path d="M195.577 135.736C195.577 135.736 198.481 136.507 198.481 132.344C198.481 132.344 211.403 131.47 214.26 118.642C214.26 118.642 212.982 114.808 204.918 114.808C196.855 114.808 190.07 121.94 192.175 131.723L195.577 135.736Z" fill="#263238"/>
<path d="M211.395 131.846V138.086L215.05 136.958L211.395 131.846Z" fill="#F28F8F"/>
<path d="M205.907 132.512C205.909 132.763 205.985 133.007 206.125 133.215C206.266 133.422 206.464 133.583 206.696 133.678C206.928 133.772 207.183 133.796 207.429 133.746C207.674 133.696 207.899 133.575 208.076 133.397C208.252 133.219 208.372 132.993 208.42 132.747C208.469 132.501 208.443 132.247 208.347 132.015C208.25 131.784 208.088 131.587 207.879 131.448C207.671 131.309 207.426 131.234 207.175 131.234C207.008 131.234 206.842 131.267 206.688 131.332C206.533 131.396 206.393 131.49 206.275 131.609C206.157 131.728 206.064 131.869 206.001 132.024C205.937 132.179 205.906 132.345 205.907 132.512Z" fill="#263238"/>
<path d="M215.528 132.889C216.229 132.889 216.797 132.321 216.797 131.62C216.797 130.92 216.229 130.352 215.528 130.352C214.828 130.352 214.26 130.92 214.26 131.62C214.26 132.321 214.828 132.889 215.528 132.889Z" fill="#263238"/>
<path d="M217.071 128.98L214.59 127.505C214.59 127.505 215.53 126.518 216.47 127.11C216.748 127.324 216.955 127.617 217.062 127.951C217.169 128.285 217.173 128.644 217.071 128.98Z" fill="#263238"/>
<path d="M211.067 140.145C209.62 140.251 208.18 139.867 206.979 139.055C206.979 139.055 206.706 141.207 208.51 141.62C209.041 141.709 209.587 141.61 210.053 141.341C210.519 141.072 210.878 140.649 211.067 140.145Z" fill="#F28F8F"/>
<path d="M196.602 136.214C196.645 135.157 196.449 134.104 196.029 133.132C195.827 132.528 195.452 131.997 194.951 131.605C194.45 131.212 193.844 130.975 193.21 130.924C189.949 130.839 189.507 133.968 189.554 135.087C189.667 138.019 192.044 141.186 196.461 141.308L196.602 136.214Z" fill="#FFA8A7"/>
<path d="M186.575 154.731C186.575 154.731 192.28 154.825 191.274 162.86C190.269 170.895 177.92 186.693 173.87 189.268C168.833 192.454 159.933 185.509 153.646 180.077C153.646 180.077 159.285 176.421 158.486 171.318L169.321 177.558C169.321 177.558 181.698 156.348 186.575 154.731Z" fill="#663AA3"/>
<path opacity="0.3" d="M186.575 154.731C186.575 154.731 192.28 154.825 191.274 162.86C190.269 170.895 177.92 186.693 173.87 189.268C168.833 192.454 159.933 185.509 153.646 180.077C153.646 180.077 159.285 176.421 158.486 171.318L169.321 177.558C169.321 177.558 181.698 156.348 186.575 154.731Z" fill="white"/>
<path d="M169.359 177.557L173.127 180.075L170.524 175.593L169.359 177.557Z" fill="#663AA3"/>
<path opacity="0.2" d="M169.359 177.557L173.127 180.075L170.524 175.593L169.359 177.557Z" fill="white"/>
<path d="M149.981 166.344C149.981 166.344 149.981 164.23 146.88 161.983C145.987 161.335 144.887 158.394 144.201 158.347C143.515 158.3 141.824 159.643 143.844 163.271C142.084 162.71 140.452 161.806 139.042 160.611C136.89 158.732 134.268 156.044 133.131 159.672C131.994 163.299 131.871 169.332 137.012 171.334C139.988 172.498 143.083 173.33 146.241 173.815L149.981 166.344Z" fill="#FFA8A7"/>
<path d="M149.98 166.345L158.56 171.316C158.56 171.316 160.975 177.077 153.72 180.075L146.202 173.769L149.98 166.345Z" fill="#FFA8A7"/>
<path d="M239.202 162.172L238.516 167.303L236.571 161.157L239.202 162.172Z" fill="#663AA3"/>
<path opacity="0.2" d="M239.202 162.172L238.516 167.303L236.571 161.157L239.202 162.172Z" fill="white"/>
<path opacity="0.2" d="M194.544 173.055C194.544 173.055 196.085 180.169 206.319 178.458C206.366 178.458 195.484 183.214 194.544 173.055Z" fill="black"/>
<path d="M84.3843 276.034V318.023C84.3843 320.015 85.0609 321.406 86.1229 321.97L94.28 326.753L94.2143 326.706C94.721 327.013 95.3071 327.163 95.8989 327.138C96.4908 327.113 97.062 326.914 97.541 326.565L135.301 304.763C137.97 303.222 140.131 299.124 140.131 295.544V253.545C140.131 251.591 139.473 250.228 138.44 249.636H138.496L130.245 244.853C130.15 244.787 130.049 244.73 129.944 244.683C129.456 244.481 128.924 244.406 128.399 244.463C127.873 244.52 127.37 244.709 126.937 245.012L89.1677 266.815C86.5457 268.356 84.3843 272.482 84.3843 276.034Z" fill="#663AA3"/>
<path d="M85.7378 270.8C86.4981 269.173 87.6996 267.793 89.2055 266.815L126.975 245.012C127.408 244.709 127.911 244.52 128.436 244.463C128.962 244.406 129.494 244.481 129.982 244.683C130.087 244.73 130.188 244.787 130.283 244.853L138.496 249.664C137.993 249.408 137.429 249.294 136.866 249.336C136.303 249.377 135.762 249.572 135.301 249.899L97.5413 271.702C95.9811 272.721 94.7452 274.166 93.9796 275.865L85.7378 270.8Z" fill="#663AA3"/>
<path d="M92.7106 322.918C92.7106 324.798 93.3215 326.132 94.28 326.753L86.1229 321.969C85.0609 321.405 84.3843 320.014 84.3843 318.022V276.033C84.426 274.208 84.8891 272.416 85.7375 270.799L93.9793 275.864C93.1825 277.433 92.7489 279.161 92.7106 280.92V322.918Z" fill="#663AA3"/>
<path opacity="0.3" d="M85.7378 270.8C86.4981 269.173 87.6996 267.793 89.2055 266.815L126.975 245.012C127.408 244.709 127.911 244.52 128.436 244.463C128.962 244.406 129.494 244.481 129.982 244.683C130.087 244.73 130.188 244.787 130.283 244.853L138.496 249.664C137.993 249.408 137.429 249.294 136.866 249.336C136.303 249.377 135.762 249.572 135.301 249.899L97.5413 271.702C95.9811 272.721 94.7452 274.166 93.9796 275.865L85.7378 270.8Z" fill="black"/>
<path opacity="0.6" d="M92.7106 322.918C92.7106 324.798 93.3215 326.132 94.28 326.753L86.1229 321.969C85.0609 321.405 84.3843 320.014 84.3843 318.022V276.033C84.426 274.208 84.8891 272.416 85.7375 270.799L93.9793 275.864C93.1825 277.433 92.7489 279.161 92.7106 280.92V322.918Z" fill="black"/>
<path d="M146.973 275.029C146.626 275.034 146.284 274.943 145.986 274.766C145.615 274.519 145.318 274.176 145.126 273.774C144.934 273.372 144.855 272.926 144.896 272.482C144.947 271.387 145.26 270.32 145.808 269.371C146.355 268.421 147.122 267.616 148.044 267.022C148.396 266.736 148.827 266.564 149.279 266.528C149.731 266.493 150.183 266.595 150.576 266.823C150.968 267.05 151.282 267.391 151.476 267.801C151.67 268.211 151.735 268.67 151.662 269.118C151.61 270.212 151.298 271.278 150.75 272.226C150.202 273.174 149.436 273.977 148.514 274.569C148.049 274.855 147.518 275.014 146.973 275.029ZM149.576 267.511C149.198 267.528 148.832 267.645 148.514 267.849C147.738 268.363 147.093 269.05 146.628 269.855C146.163 270.661 145.892 271.563 145.835 272.492C145.767 272.771 145.791 273.065 145.904 273.33C146.017 273.594 146.213 273.814 146.462 273.958C146.711 274.101 147.001 274.159 147.286 274.124C147.571 274.088 147.837 273.961 148.044 273.761C148.817 273.247 149.461 272.561 149.926 271.758C150.39 270.954 150.663 270.054 150.722 269.127C150.756 268.848 150.716 268.564 150.607 268.303C150.499 268.043 150.325 267.816 150.102 267.643C149.942 267.551 149.76 267.502 149.576 267.502V267.511Z" fill="#663AA3"/>
<path d="M121.562 298.026C121.617 298.29 121.605 298.564 121.526 298.822C121.447 299.08 121.304 299.313 121.111 299.501C119.452 301.327 117.514 302.878 115.369 304.097C109.42 307.527 104.383 305.412 104.383 297.368C104.383 288.741 109.57 278.3 117.624 273.648C123.93 270.002 128.178 272.661 128.178 279.653C128.178 285.94 125.123 291.382 121.722 293.355C120.265 294.192 118.902 293.834 119.034 291.212L118.893 291.297C117.624 294.502 115.951 296.682 113.78 297.932C111.61 299.182 109.862 298.233 109.862 294.925C109.862 289.728 113.414 282.943 118.451 280.029H118.498C120.566 278.836 122.126 280.104 121.74 282.679L121.101 286.984C120.556 290.479 120.998 291.682 122.191 291.043C124.071 290.019 126.11 285.978 126.11 281.119C126.11 275.048 122.953 272.511 117.333 275.763C111.422 279.174 106.45 287.444 106.45 295.949C106.45 302.941 110.407 304.971 115.773 301.869C117.516 300.855 119.099 299.588 120.472 298.11C120.913 297.641 121.411 297.603 121.571 298.016L121.562 298.026ZM119.541 283.76C119.71 282.567 119.006 281.937 118.047 282.491C114.748 284.371 112.108 289.643 112.286 293.769C112.352 295.188 113.339 295.883 114.607 295.188C116.741 294.032 118.695 289.765 119.1 286.908L119.541 283.76Z" fill="#FAFAFA"/>
<path d="M151.191 269.588C151.109 269.587 151.029 269.565 150.958 269.524C150.887 269.483 150.828 269.424 150.787 269.353C150.724 269.245 150.706 269.117 150.736 268.996C150.765 268.875 150.841 268.771 150.947 268.704L158.841 264.1C160.071 263.379 161.091 262.349 161.802 261.113C162.512 259.877 162.888 258.477 162.891 257.051V222.017C162.891 221.892 162.941 221.773 163.029 221.685C163.117 221.596 163.237 221.547 163.361 221.547C163.486 221.547 163.605 221.596 163.694 221.685C163.782 221.773 163.831 221.892 163.831 222.017V257.042C163.828 258.632 163.41 260.194 162.617 261.572C161.824 262.95 160.684 264.097 159.311 264.898L151.426 269.513C151.355 269.555 151.274 269.581 151.191 269.588Z" fill="#663AA3"/>
<path d="M67.5459 198.402V240.39C67.5459 242.383 68.2225 243.774 69.2845 244.337L77.4417 249.121H77.3759C77.8826 249.428 78.4687 249.578 79.0606 249.553C79.6524 249.528 80.2237 249.328 80.7027 248.98L118.463 227.177C121.131 225.636 123.293 221.539 123.293 217.958V175.913C123.293 173.958 122.635 172.595 121.601 172.013H121.658L113.444 167.201C113.349 167.136 113.249 167.079 113.143 167.032C112.655 166.83 112.123 166.754 111.598 166.812C111.072 166.869 110.57 167.058 110.136 167.361L72.3669 189.164C69.7074 190.724 67.5459 194.849 67.5459 198.402Z" fill="#663AA3"/>
<path d="M68.8994 193.167C69.6598 191.54 70.8612 190.16 72.3672 189.182L110.136 167.38C110.57 167.077 111.072 166.888 111.598 166.83C112.124 166.773 112.655 166.849 113.144 167.051C113.249 167.098 113.35 167.154 113.444 167.22L121.658 172.031C121.155 171.775 120.591 171.661 120.028 171.703C119.464 171.744 118.923 171.939 118.463 172.266L80.7029 194.069C79.1406 195.086 77.9041 196.531 77.1412 198.232L68.8994 193.167Z" fill="#663AA3"/>
<path d="M75.8722 245.286C75.8722 247.165 76.4831 248.5 77.4417 249.12L69.2845 244.336C68.2225 243.773 67.5459 242.382 67.5459 240.389V198.401C67.5876 196.575 68.0508 194.783 68.8992 193.166L77.1409 198.231C76.3441 199.8 75.9105 201.528 75.8722 203.287V245.286Z" fill="#663AA3"/>
<path opacity="0.3" d="M68.8994 193.167C69.6598 191.54 70.8612 190.16 72.3672 189.182L110.136 167.38C110.57 167.077 111.072 166.888 111.598 166.83C112.124 166.773 112.655 166.849 113.144 167.051C113.249 167.098 113.35 167.154 113.444 167.22L121.658 172.031C121.155 171.775 120.591 171.661 120.028 171.703C119.464 171.744 118.923 171.939 118.463 172.266L80.7029 194.069C79.1406 195.086 77.9041 196.531 77.1412 198.232L68.8994 193.167Z" fill="black"/>
<path opacity="0.6" d="M75.8722 245.286C75.8722 247.165 76.4831 248.5 77.4417 249.12L69.2845 244.336C68.2225 243.773 67.5459 242.382 67.5459 240.389V198.401C67.5876 196.575 68.0508 194.783 68.8992 193.166L77.1409 198.231C76.3441 199.8 75.9105 201.528 75.8722 203.287V245.286Z" fill="black"/>
<path d="M131.188 198.063C130.838 198.067 130.493 197.976 130.191 197.8C129.821 197.553 129.524 197.21 129.332 196.808C129.14 196.406 129.06 195.96 129.101 195.516C129.151 194.425 129.46 193.362 130.003 192.414C130.546 191.466 131.306 190.661 132.221 190.065C132.573 189.779 133.004 189.607 133.456 189.571C133.908 189.536 134.361 189.638 134.753 189.866C135.145 190.093 135.46 190.434 135.654 190.844C135.848 191.254 135.912 191.713 135.839 192.161C135.786 193.255 135.473 194.32 134.925 195.268C134.378 196.216 133.612 197.019 132.691 197.612C132.238 197.891 131.72 198.046 131.188 198.063ZM133.781 190.545C133.404 190.563 133.038 190.68 132.719 190.883C131.945 191.398 131.3 192.084 130.835 192.89C130.371 193.695 130.099 194.597 130.041 195.525C129.972 195.805 129.996 196.099 130.109 196.363C130.222 196.627 130.418 196.848 130.668 196.991C130.917 197.134 131.206 197.193 131.492 197.157C131.777 197.122 132.043 196.994 132.25 196.794C133.024 196.282 133.669 195.597 134.134 194.793C134.599 193.989 134.871 193.088 134.928 192.161C134.963 191.881 134.924 191.596 134.816 191.336C134.707 191.075 134.532 190.848 134.308 190.676C134.139 190.579 133.947 190.531 133.753 190.535L133.781 190.545Z" fill="#663AA3"/>
<path d="M135.369 192.622C135.288 192.621 135.209 192.6 135.139 192.56C135.068 192.521 135.008 192.465 134.965 192.397C134.902 192.289 134.884 192.161 134.913 192.04C134.943 191.919 135.019 191.814 135.125 191.748L146.543 184.813C146.651 184.75 146.778 184.731 146.9 184.761C147.021 184.791 147.125 184.867 147.191 184.972C147.224 185.025 147.245 185.084 147.255 185.146C147.264 185.207 147.262 185.27 147.247 185.33C147.232 185.39 147.205 185.447 147.168 185.497C147.131 185.547 147.085 185.589 147.032 185.621L135.613 192.547C135.54 192.594 135.456 192.62 135.369 192.622Z" fill="#663AA3"/>
<path d="M96.6318 199.219C96.7106 199.157 96.8056 199.119 96.9055 199.109C97.0054 199.099 97.1061 199.118 97.1956 199.163C97.2802 199.218 97.3479 199.296 97.391 199.387C97.4342 199.478 97.4511 199.58 97.44 199.68V209.078C97.4251 209.729 97.2714 210.37 96.9889 210.957C96.7084 211.591 96.3097 212.165 95.8142 212.649V223.992C95.7978 224.557 95.6325 225.108 95.3349 225.589C95.0706 226.087 94.678 226.506 94.1978 226.802L92.5814 227.741C92.4204 227.863 92.2286 227.937 92.0276 227.956C91.8266 227.974 91.6246 227.935 91.4443 227.845C91.2735 227.736 91.137 227.582 91.0505 227.399C90.964 227.216 90.9311 227.012 90.9556 226.811V215.44C90.7479 215.488 90.5313 215.481 90.327 215.42C90.1227 215.359 89.9378 215.246 89.7903 215.092C89.4656 214.715 89.3034 214.225 89.3392 213.729V204.379C89.3497 204.096 89.4339 203.82 89.5835 203.58C89.7156 203.334 89.91 203.126 90.1474 202.979C90.2237 202.909 90.3201 202.865 90.4228 202.853C90.5256 202.842 90.6293 202.863 90.7192 202.915C90.809 202.966 90.8802 203.044 90.9227 203.138C90.9652 203.233 90.9767 203.338 90.9556 203.439V209.519C90.9433 209.62 90.9598 209.722 91.003 209.813C91.0463 209.905 91.1145 209.982 91.1999 210.036C91.2864 210.088 91.3855 210.116 91.4866 210.116C91.5876 210.116 91.6867 210.088 91.7732 210.036C92.0109 209.885 92.2052 209.674 92.337 209.425C92.4875 209.189 92.5719 208.916 92.5814 208.636V202.556C92.5949 202.275 92.6754 202.001 92.8159 201.758C92.9565 201.514 93.1532 201.308 93.3896 201.155C93.4659 201.086 93.5623 201.042 93.665 201.03C93.7678 201.019 93.8715 201.04 93.9613 201.091C94.0512 201.143 94.1224 201.221 94.1649 201.315C94.2074 201.409 94.2189 201.515 94.1978 201.616V207.696C94.1801 207.797 94.1937 207.9 94.2367 207.992C94.2796 208.085 94.3499 208.162 94.438 208.213C94.5261 208.264 94.6278 208.287 94.7294 208.279C94.8309 208.27 94.9275 208.231 95.006 208.166C95.2489 208.018 95.447 207.807 95.5792 207.555C95.7273 207.318 95.8085 207.045 95.8142 206.766V200.686C95.8247 200.402 95.9089 200.127 96.0585 199.887C96.1909 199.638 96.3892 199.429 96.6318 199.285V199.219ZM96.6318 197.359C95.9654 197.768 95.4077 198.332 95.006 199.003C94.7379 198.91 94.4516 198.883 94.1707 198.922C93.8897 198.961 93.622 199.066 93.3896 199.229C92.7282 199.641 92.1742 200.205 91.7732 200.873C91.5028 200.786 91.216 200.76 90.9344 200.799C90.6528 200.838 90.3837 200.941 90.1474 201.099C89.4287 201.57 88.8307 202.203 88.4014 202.947C87.9721 203.692 87.7235 204.526 87.6758 205.384V214.782C87.6191 215.619 87.8924 216.446 88.437 217.084C88.6732 217.331 88.9671 217.515 89.2922 217.62V227.873C89.2194 228.281 89.2747 228.702 89.4505 229.078C89.6263 229.454 89.9141 229.766 90.2743 229.972C90.6345 230.178 91.0496 230.267 91.4627 230.228C91.8757 230.189 92.2664 230.023 92.5814 229.753L94.1978 228.813C95.1513 228.188 95.9448 227.348 96.5145 226.36C97.0841 225.373 97.414 224.265 97.4776 223.127V212.78C97.8135 212.295 98.103 211.779 98.3422 211.239C98.8226 210.251 99.0823 209.17 99.1034 208.072V198.721C99.1613 198.413 99.1222 198.095 98.9914 197.81C98.8607 197.526 98.6448 197.289 98.3735 197.132C98.1022 196.975 97.789 196.906 97.477 196.935C97.165 196.964 96.8697 197.089 96.6318 197.293V197.359Z" fill="#FAFAFA"/>
<path d="M108.991 192.078C109.069 192.009 109.167 191.967 109.27 191.956C109.374 191.946 109.478 191.968 109.568 192.02C109.658 192.072 109.73 192.151 109.773 192.245C109.816 192.34 109.829 192.446 109.809 192.548V215.92C109.772 216.483 109.606 217.03 109.324 217.519C109.042 218.007 108.652 218.425 108.183 218.739L106.567 219.679C106.411 219.815 106.217 219.898 106.012 219.918C105.806 219.938 105.6 219.893 105.421 219.789C105.243 219.685 105.101 219.528 105.017 219.34C104.932 219.151 104.909 218.941 104.95 218.739V211.221L102.131 212.856C102.089 212.883 102.04 212.897 101.99 212.897C101.94 212.897 101.891 212.883 101.849 212.856C101.807 212.827 101.773 212.788 101.752 212.741C101.73 212.695 101.721 212.644 101.727 212.593V200.959C101.803 199.554 102.21 198.187 102.914 196.969C103.617 195.751 104.598 194.716 105.777 193.948L109.01 192.068L108.991 192.078ZM109.01 190.189L105.777 192.068C104.113 193.149 102.728 194.609 101.735 196.327C100.742 198.045 100.17 199.973 100.063 201.955V213.645C100.011 213.904 100.042 214.172 100.15 214.413C100.259 214.653 100.44 214.853 100.668 214.985C100.897 215.117 101.161 215.174 101.423 215.148C101.686 215.121 101.933 215.013 102.131 214.839L103.306 214.162V219.726C103.229 220.134 103.282 220.556 103.456 220.933C103.63 221.31 103.918 221.624 104.278 221.83C104.638 222.037 105.054 222.126 105.468 222.086C105.881 222.046 106.272 221.878 106.585 221.605L108.202 220.665C109.153 220.038 109.945 219.198 110.515 218.211C111.084 217.224 111.415 216.117 111.482 214.98V191.589C111.513 191.284 111.463 190.975 111.338 190.695C111.212 190.415 111.016 190.172 110.767 189.991C110.486 189.866 110.176 189.817 109.87 189.848C109.563 189.879 109.27 189.99 109.019 190.17L109.01 190.189Z" fill="#FAFAFA"/>
<path d="M90.4644 96.5274V138.526C90.4644 140.509 91.141 141.899 92.2029 142.463L100.36 147.256L100.294 147.2C100.801 147.507 101.387 147.657 101.979 147.632C102.571 147.607 103.142 147.407 103.621 147.059L141.39 125.219C144.05 123.677 146.211 119.58 146.211 115.999V74.0388C146.211 72.0935 145.554 70.7214 144.529 70.1387H144.576L136.363 65.3271C136.271 65.2618 136.173 65.2051 136.071 65.158C135.581 64.9559 135.048 64.8801 134.521 64.9376C133.994 64.9951 133.49 65.1839 133.055 65.4869L95.2948 87.2895C92.654 88.8495 90.4644 92.9751 90.4644 96.5274Z" fill="#663AA3"/>
<path d="M91.8179 91.2927C92.5812 89.6653 93.7859 88.2847 95.295 87.3081L133.064 65.5054C133.499 65.2025 134.004 65.0136 134.531 64.9562C135.058 64.8987 135.591 64.9745 136.081 65.1765C136.183 65.2237 136.281 65.2803 136.372 65.3457L144.586 70.1573C144.084 69.9007 143.522 69.7868 142.96 69.8283C142.398 69.8697 141.859 70.0648 141.4 70.3922L103.631 92.2043C102.069 93.2216 100.832 94.6668 100.069 96.3674L91.8179 91.2927Z" fill="#663AA3"/>
<path d="M98.8001 143.412C98.8001 145.291 99.4016 146.635 100.36 147.255L92.2029 142.462C91.141 141.899 90.4644 140.508 90.4644 138.525V96.5265C90.5061 94.7007 90.9692 92.9092 91.8176 91.292L100.059 96.3667C99.2687 97.934 98.8384 99.6583 98.8001 101.413V143.412Z" fill="#663AA3"/>
<path opacity="0.3" d="M91.8179 91.2927C92.5812 89.6653 93.7859 88.2847 95.295 87.3081L133.064 65.5054C133.499 65.2025 134.004 65.0136 134.531 64.9562C135.058 64.8987 135.591 64.9745 136.081 65.1765C136.183 65.2237 136.281 65.2803 136.372 65.3457L144.586 70.1573C144.084 69.9007 143.522 69.7868 142.96 69.8283C142.398 69.8697 141.859 70.0648 141.4 70.3922L103.631 92.2043C102.069 93.2216 100.832 94.6668 100.069 96.3674L91.8179 91.2927Z" fill="black"/>
<path opacity="0.6" d="M98.8001 143.412C98.8001 145.291 99.4016 146.635 100.36 147.255L92.2029 142.462C91.141 141.899 90.4644 140.508 90.4644 138.525V96.5265C90.5061 94.7007 90.9692 92.9092 91.8176 91.292L100.059 96.3667C99.2687 97.934 98.8384 99.6583 98.8001 101.413V143.412Z" fill="black"/>
<path d="M154.173 95.5204C153.824 95.5244 153.481 95.4369 153.177 95.2666C152.805 95.018 152.508 94.6737 152.316 94.2701C152.124 93.8665 152.045 93.4186 152.086 92.9736C152.137 91.8796 152.45 90.8137 152.998 89.8653C153.545 88.9169 154.312 88.1137 155.235 87.5229C155.586 87.238 156.016 87.0662 156.467 87.0304C156.918 86.9947 157.369 87.0965 157.761 87.3225C158.153 87.5485 158.467 87.888 158.662 88.2963C158.857 88.7046 158.923 89.1624 158.853 89.6092C158.802 90.7033 158.49 91.7692 157.942 92.7175C157.394 93.6659 156.627 94.4691 155.705 95.0599C155.244 95.3459 154.715 95.5048 154.173 95.5204ZM156.767 88.0022C156.389 88.0207 156.023 88.1373 155.705 88.3405C154.93 88.8552 154.285 89.5421 153.821 90.3475C153.356 91.1529 153.084 92.055 153.026 92.983C152.958 93.2622 152.981 93.5562 153.094 93.8207C153.208 94.0851 153.403 94.3055 153.653 94.4488C153.902 94.592 154.191 94.6503 154.477 94.6147C154.762 94.5792 155.028 94.4517 155.235 94.2517C156.009 93.7396 156.655 93.0546 157.119 92.2506C157.584 91.4465 157.856 90.5456 157.913 89.6186C157.948 89.3385 157.91 89.0541 157.801 88.7935C157.692 88.533 157.517 88.3056 157.293 88.1338C157.133 88.0418 156.951 87.9933 156.767 87.9928V88.0022Z" fill="#663AA3"/>
<path d="M174.357 117.944C174.233 117.944 174.113 117.894 174.025 117.806C173.937 117.718 173.888 117.599 173.888 117.474V85.7473C173.892 85.2853 173.772 84.8305 173.54 84.4306C173.309 84.0306 172.975 83.6999 172.572 83.4731C172.174 83.2421 171.721 83.1204 171.261 83.1204C170.801 83.1204 170.348 83.2421 169.95 83.4731L158.616 90.0515C158.563 90.0902 158.503 90.1172 158.438 90.131C158.374 90.1447 158.307 90.1448 158.243 90.1313C158.179 90.1177 158.118 90.0908 158.065 90.0523C158.011 90.0138 157.967 89.9645 157.934 89.9076C157.901 89.8508 157.88 89.7877 157.873 89.7223C157.866 89.6569 157.872 89.5908 157.892 89.5282C157.913 89.4656 157.946 89.4079 157.989 89.3588C158.033 89.3097 158.087 89.2704 158.146 89.2433L169.489 82.6649C170.031 82.3532 170.646 82.1895 171.271 82.1904C171.896 82.1913 172.51 82.3568 173.051 82.6701C173.592 82.9835 174.041 83.4336 174.353 83.9754C174.664 84.5173 174.828 85.1316 174.827 85.7567V117.474C174.827 117.599 174.778 117.718 174.69 117.806C174.602 117.894 174.482 117.944 174.357 117.944Z" fill="#663AA3"/>
<path d="M128.6 92.823C130.329 91.8269 132.049 91.5919 133.365 92.3531C135.996 93.8662 135.996 98.7906 133.365 103.348L129.427 110.181L123.788 119.87C123.418 120.518 122.892 121.064 122.257 121.458C122.032 121.62 121.769 121.72 121.493 121.748C121.218 121.776 120.94 121.731 120.687 121.618L111.149 116.139C108.517 114.626 108.527 109.701 111.149 105.143C112.28 103.09 113.921 101.362 115.913 100.125C117.633 99.1289 119.362 98.8939 120.668 99.6457L121.477 100.106C121.601 100.167 121.74 100.192 121.877 100.178C122.015 100.165 122.146 100.114 122.257 100.031C122.584 99.8278 122.853 99.5428 123.037 99.2041L123.845 97.8226C124.974 95.7674 126.611 94.0363 128.6 92.7948V92.823ZM128.6 90.9153C126.118 92.4567 124.075 94.6125 122.67 97.1742L122.257 97.8884L121.843 97.6534C120.264 96.7137 118.159 96.9486 115.913 98.2361C113.43 99.7831 111.385 101.941 109.974 104.504C106.703 110.143 106.703 116.327 109.974 118.216L119.522 123.694C119.961 123.893 120.446 123.973 120.926 123.925C121.406 123.877 121.865 123.704 122.257 123.422C123.397 122.707 124.338 121.714 124.991 120.537L130.63 110.838L134.568 104.034C137.838 98.3959 137.838 92.2122 134.568 90.3232C132.979 89.3835 130.874 89.6184 128.628 90.9153H128.6Z" fill="#FAFAFA"/>
<path d="M123.666 113.943C123.375 114.093 123.102 114.055 122.97 113.83L119.258 107.862L114.766 118.641C114.621 118.987 114.376 119.282 114.061 119.487L109.175 122.307C108.724 122.57 108.348 122.354 108.348 121.827C108.366 121.54 108.451 121.261 108.594 121.012C108.737 120.763 108.936 120.55 109.175 120.389L113.601 117.833L118.619 105.804C118.766 105.445 119.022 105.143 119.352 104.94C119.653 104.78 119.916 104.817 120.057 105.043L123.816 111.029L126.213 105.391C126.351 105.046 126.595 104.754 126.908 104.554C127.003 104.468 127.127 104.42 127.256 104.42C127.384 104.42 127.508 104.468 127.604 104.554L130.423 108.097L135.375 105.278C135.836 105.015 136.202 105.222 136.202 105.757C136.184 106.044 136.099 106.323 135.956 106.572C135.813 106.822 135.614 107.035 135.375 107.195L129.962 110.315C129.867 110.404 129.741 110.454 129.61 110.454C129.479 110.454 129.353 110.404 129.257 110.315L126.899 107.336L124.436 113.116C124.274 113.466 124.004 113.756 123.666 113.943Z" fill="#FAFAFA"/>
<path d="M266.51 197.122V239.111C266.51 241.104 267.187 242.485 268.249 243.049L276.406 247.842L276.34 247.785C276.845 248.094 277.43 248.245 278.02 248.22C278.611 248.195 279.181 247.994 279.658 247.644L317.427 225.842C320.096 224.31 322.257 220.203 322.257 216.623V174.634C322.257 172.679 321.599 171.307 320.566 170.724H320.613L312.399 165.903L312.108 165.734C311.619 165.532 311.088 165.456 310.562 165.514C310.037 165.571 309.534 165.76 309.101 166.063L271.331 187.903C268.662 189.435 266.51 193.561 266.51 197.122Z" fill="#663AA3"/>
<path d="M267.854 191.879C268.621 190.256 269.825 188.879 271.331 187.903L309.1 166.091C309.534 165.789 310.036 165.6 310.562 165.542C311.088 165.485 311.619 165.56 312.108 165.763L312.399 165.932L320.613 170.753C320.111 170.496 319.549 170.382 318.987 170.424C318.425 170.465 317.885 170.66 317.427 170.988L279.667 192.79C278.107 193.81 276.871 195.255 276.105 196.953L267.854 191.879Z" fill="#663AA3"/>
<path d="M274.837 243.999C274.837 245.879 275.438 247.223 276.406 247.843L268.249 243.05C267.187 242.486 266.51 241.105 266.51 239.113V197.124C266.547 195.296 267.007 193.501 267.854 191.88L276.096 196.955C275.304 198.525 274.874 200.252 274.837 202.011V243.999Z" fill="#663AA3"/>
<path opacity="0.3" d="M267.854 191.879C268.621 190.256 269.825 188.879 271.331 187.903L309.1 166.091C309.534 165.789 310.036 165.6 310.562 165.542C311.088 165.485 311.619 165.56 312.108 165.763L312.399 165.932L320.613 170.753C320.111 170.496 319.549 170.382 318.987 170.424C318.425 170.465 317.885 170.66 317.427 170.988L279.667 192.79C278.107 193.81 276.871 195.255 276.105 196.953L267.854 191.879Z" fill="black"/>
<path opacity="0.6" d="M274.837 243.999C274.837 245.879 275.438 247.223 276.406 247.843L268.249 243.05C267.187 242.486 266.51 241.105 266.51 239.113V197.124C266.547 195.296 267.007 193.501 267.854 191.88L276.096 196.955C275.304 198.525 274.874 200.252 274.837 202.011V243.999Z" fill="black"/>
<path d="M257.789 227.065C257.443 227.066 257.103 226.975 256.803 226.802C256.431 226.553 256.134 226.209 255.942 225.805C255.75 225.402 255.671 224.954 255.712 224.509C255.763 223.415 256.076 222.349 256.624 221.4C257.171 220.452 257.938 219.649 258.861 219.058C259.212 218.773 259.642 218.601 260.093 218.566C260.544 218.53 260.995 218.632 261.387 218.858C261.779 219.084 262.093 219.423 262.288 219.831C262.483 220.24 262.549 220.698 262.479 221.144C262.428 222.238 262.115 223.304 261.568 224.253C261.02 225.201 260.253 226.004 259.331 226.595C258.867 226.884 258.335 227.045 257.789 227.065ZM260.392 219.547C260.016 219.564 259.651 219.678 259.331 219.876C258.557 220.391 257.912 221.078 257.448 221.883C256.983 222.689 256.711 223.59 256.652 224.518C256.616 224.797 256.654 225.08 256.763 225.34C256.872 225.599 257.048 225.825 257.272 225.994C257.531 226.102 257.814 226.141 258.093 226.107C258.372 226.072 258.636 225.965 258.861 225.796C259.634 225.281 260.278 224.593 260.743 223.788C261.207 222.983 261.48 222.081 261.539 221.154C261.574 220.875 261.534 220.592 261.426 220.333C261.317 220.074 261.142 219.849 260.919 219.678C260.761 219.58 260.578 219.531 260.392 219.537V219.547Z" fill="#663AA3"/>
<path d="M311.394 204.856C311.152 205.034 310.867 205.145 310.568 205.178C310.27 205.211 309.968 205.165 309.693 205.044L298.134 200.928L286.574 218.398C285.635 220.014 284.084 220.879 283.144 220.343C282.205 219.808 282.205 217.994 283.144 216.34L283.201 216.237L296.423 196.022C296.825 195.292 297.412 194.679 298.124 194.246C298.368 194.075 298.651 193.97 298.947 193.938C299.243 193.907 299.542 193.952 299.816 194.067L313.029 199.02H313.095C314.034 199.574 314.034 201.369 313.095 203.023C312.693 203.769 312.108 204.4 311.394 204.856ZM298.134 198.738C298.21 198.686 298.296 198.651 298.387 198.635C298.477 198.619 298.57 198.622 298.66 198.644L310.773 202.967H310.839C310.928 203.007 311.027 203.023 311.124 203.014C311.221 203.004 311.314 202.968 311.394 202.911C311.628 202.766 311.82 202.562 311.948 202.319C312.249 201.802 312.258 201.238 311.948 201.05L298.735 196.088H298.679C298.587 196.047 298.487 196.032 298.388 196.043C298.288 196.055 298.194 196.093 298.115 196.154C297.874 196.299 297.673 196.503 297.532 196.746L297.476 196.849L284.263 217.054C283.981 217.58 283.99 218.126 284.263 218.304C284.535 218.483 285.071 218.191 285.381 217.656L285.447 217.552L297.551 199.255C297.7 199.037 297.9 198.86 298.134 198.738Z" fill="#FAFAFA"/>
<path d="M309.739 205.045L308.489 204.604V213.005C308.438 213.912 308.176 214.794 307.722 215.581C307.268 216.367 306.636 217.037 305.877 217.535L290.483 226.416C289.046 227.252 287.871 226.575 287.871 224.912V216.51L286.621 218.39C286.5 218.601 286.361 218.802 286.208 218.991V225.861C286.208 228.586 288.087 229.695 290.483 228.333L305.877 219.442C307.121 218.631 308.157 217.537 308.9 216.251C309.643 214.964 310.072 213.521 310.153 212.037V205.167C310.008 205.155 309.867 205.114 309.739 205.045Z" fill="#FAFAFA"/>
<path d="M299.403 212.422C300.061 212.046 300.587 212.356 300.587 213.108V220.561L295.682 223.38V215.927C295.705 215.517 295.825 215.118 296.03 214.763C296.236 214.407 296.522 214.104 296.866 213.879L299.403 212.413V212.422ZM299.403 210.533L296.866 211.999C296.043 212.542 295.36 213.271 294.87 214.126C294.38 214.981 294.098 215.939 294.046 216.924V224.376C294.046 225.438 294.798 225.87 295.71 225.316L300.615 222.496C301.1 222.183 301.503 221.758 301.793 221.258C302.082 220.759 302.248 220.197 302.279 219.621V212.15C302.279 210.336 301.001 209.603 299.459 210.505L299.403 210.533Z" fill="#FAFAFA"/>
<path d="M246.409 230.127C245.722 230.129 245.047 229.948 244.455 229.601C243.853 229.26 243.353 228.765 243.006 228.167C242.659 227.569 242.478 226.89 242.481 226.199V198.842C242.481 198.717 242.531 198.598 242.619 198.51C242.707 198.422 242.826 198.372 242.951 198.372C243.075 198.372 243.195 198.422 243.283 198.51C243.371 198.598 243.421 198.717 243.421 198.842V226.199C243.422 226.723 243.562 227.239 243.825 227.693C244.089 228.146 244.468 228.523 244.923 228.784C245.378 229.045 245.894 229.181 246.419 229.179C246.944 229.178 247.459 229.038 247.913 228.774L255.948 224.075C256.054 224.027 256.174 224.02 256.285 224.055C256.395 224.091 256.489 224.166 256.548 224.267C256.606 224.367 256.625 224.486 256.601 224.6C256.577 224.714 256.512 224.815 256.418 224.883L248.383 229.582C247.784 229.934 247.104 230.122 246.409 230.127Z" fill="#663AA3"/>
<path d="M280.656 100.551V142.54C280.656 144.532 281.332 145.914 282.394 146.487L290.552 151.27C290.534 151.25 290.511 151.234 290.486 151.223C290.993 151.528 291.579 151.677 292.17 151.652C292.762 151.627 293.333 151.429 293.813 151.082L331.582 129.27C334.241 127.739 336.403 123.632 336.403 120.051V78.0625C336.403 76.1077 335.745 74.7357 334.721 74.153H334.768L326.554 69.3414L326.263 69.1629C325.773 68.9608 325.239 68.885 324.712 68.9425C324.185 69 323.681 69.1888 323.246 69.4918L285.477 91.3038C282.817 92.8638 280.656 97.027 280.656 100.551Z" fill="#663AA3"/>
<path d="M282.011 95.3073C282.774 93.6851 283.975 92.3083 285.478 91.3321L323.248 69.5201C323.683 69.2171 324.187 69.0283 324.714 68.9708C325.241 68.9133 325.774 68.9891 326.264 69.1912L326.556 69.3697L334.769 74.1813C334.268 73.9247 333.705 73.8109 333.144 73.8523C332.582 73.8938 332.042 74.0889 331.584 74.4163L293.814 96.2189C292.254 97.2387 291.019 98.6832 290.253 100.382L282.011 95.3073Z" fill="#663AA3"/>
<path d="M288.992 147.426C288.992 149.306 289.593 150.65 290.552 151.27L282.394 146.486C281.332 145.913 280.656 144.532 280.656 142.539V100.551C280.697 98.7217 281.16 96.9272 282.009 95.3066L290.251 100.381C289.46 101.952 289.03 103.679 288.992 105.437V147.426Z" fill="#663AA3"/>
<path opacity="0.3" d="M282.011 95.3073C282.774 93.6851 283.975 92.3083 285.478 91.3321L323.248 69.5201C323.683 69.2171 324.187 69.0283 324.714 68.9708C325.241 68.9133 325.774 68.9891 326.264 69.1912L326.556 69.3697L334.769 74.1813C334.268 73.9247 333.705 73.8109 333.144 73.8523C332.582 73.8938 332.042 74.0889 331.584 74.4163L293.814 96.2189C292.254 97.2387 291.019 98.6832 290.253 100.382L282.011 95.3073Z" fill="black"/>
<path opacity="0.6" d="M288.992 147.426C288.992 149.306 289.593 150.65 290.552 151.27L282.394 146.486C281.332 145.913 280.656 144.532 280.656 142.539V100.551C280.697 98.7217 281.16 96.9272 282.009 95.3066L290.251 100.381C289.46 101.952 289.03 103.679 288.992 105.437V147.426Z" fill="black"/>
<path d="M271.099 119.244C270.751 119.247 270.407 119.16 270.103 118.99C269.734 118.74 269.438 118.395 269.246 117.992C269.055 117.589 268.974 117.142 269.013 116.697C269.065 115.604 269.378 114.538 269.926 113.59C270.474 112.642 271.24 111.838 272.161 111.247C272.511 110.956 272.942 110.78 273.395 110.741C273.848 110.703 274.302 110.804 274.696 111.031C275.09 111.258 275.405 111.601 275.598 112.012C275.792 112.424 275.855 112.885 275.779 113.333C275.728 114.427 275.416 115.493 274.868 116.441C274.32 117.39 273.553 118.193 272.631 118.784C272.17 119.07 271.642 119.229 271.099 119.244ZM273.702 111.726C273.323 111.744 272.955 111.857 272.631 112.055C271.859 112.572 271.215 113.259 270.751 114.064C270.286 114.869 270.013 115.77 269.953 116.697C269.881 116.977 269.902 117.273 270.014 117.539C270.126 117.806 270.322 118.029 270.572 118.173C270.823 118.318 271.113 118.377 271.4 118.341C271.687 118.306 271.954 118.177 272.161 117.975C272.935 117.46 273.579 116.773 274.044 115.968C274.509 115.163 274.781 114.261 274.839 113.333C274.875 113.055 274.837 112.773 274.73 112.514C274.623 112.255 274.45 112.029 274.229 111.857C274.068 111.767 273.886 111.721 273.702 111.726Z" fill="#663AA3"/>
<path d="M318.115 114.422L306.565 121.085C305.099 121.931 303.821 121.593 303.37 120.249L300.551 111.631L302.13 110.127L304.996 118.745C305.221 119.422 305.86 119.591 306.603 119.168L318.153 112.496C318.983 111.957 319.567 111.113 319.778 110.146L322.222 98.7937L323.819 98.3896L321.376 109.751C320.935 111.672 319.766 113.347 318.115 114.422Z" fill="#FAFAFA"/>
<path d="M307.431 122.957C306.971 123.229 306.604 123.013 306.604 122.477V117.703C306.623 117.416 306.707 117.137 306.85 116.888C306.994 116.639 307.192 116.426 307.431 116.265C307.891 116.002 308.267 116.218 308.267 116.745V121.528C308.251 121.815 308.166 122.095 308.021 122.343C307.875 122.591 307.673 122.801 307.431 122.957Z" fill="#FAFAFA"/>
<path d="M316.856 117.514C316.396 117.777 316.029 117.57 316.029 117.034V112.251C316.048 111.964 316.132 111.685 316.276 111.436C316.419 111.187 316.618 110.974 316.856 110.813C317.317 110.55 317.693 110.813 317.693 111.292V116.076C317.677 116.365 317.593 116.646 317.448 116.896C317.303 117.146 317.1 117.358 316.856 117.514Z" fill="#FAFAFA"/>
<path d="M321.293 99.5841C322.787 98.7289 323.999 99.4243 323.999 101.154V115.513C323.95 116.454 323.679 117.37 323.209 118.187C322.738 119.003 322.082 119.697 321.293 120.212L303.165 130.643C301.68 131.508 300.468 130.803 300.468 129.083V114.714C300.515 113.774 300.783 112.858 301.252 112.041C301.721 111.225 302.376 110.53 303.165 110.016L321.255 99.5653L321.293 99.5841ZM321.255 97.6858L303.165 108.108C301.896 108.938 300.839 110.056 300.082 111.37C299.324 112.684 298.887 114.158 298.804 115.673V130.042C298.804 132.861 300.759 133.951 303.165 132.561L321.255 122.12C322.52 121.294 323.573 120.184 324.332 118.879C325.091 117.574 325.534 116.109 325.625 114.602V100.195C325.625 97.3756 323.661 96.2761 321.255 97.667V97.6858Z" fill="#FAFAFA"/>
<path d="M307.946 105.372V104.545C307.985 103.814 308.195 103.103 308.561 102.469C308.927 101.836 309.438 101.297 310.051 100.898L314.449 98.361C315.614 97.6844 316.554 98.2295 316.554 99.5734V100.429L318.218 99.4888V98.6336C318.218 96.2372 316.526 95.2598 314.458 96.4533L310.06 99.0001C308.966 99.7156 308.055 100.679 307.402 101.812C306.749 102.945 306.372 104.216 306.301 105.522V106.377L307.946 105.372Z" fill="#FAFAFA"/>
<path d="M238.63 135.557C238.548 135.557 238.468 135.535 238.397 135.493C238.326 135.452 238.267 135.393 238.226 135.322C238.164 135.216 238.145 135.09 238.175 134.97C238.205 134.85 238.281 134.747 238.386 134.683L269.248 116.264C269.3 116.232 269.358 116.21 269.419 116.201C269.479 116.191 269.541 116.194 269.601 116.209C269.66 116.224 269.716 116.251 269.766 116.287C269.815 116.324 269.856 116.37 269.887 116.423C269.919 116.476 269.941 116.535 269.95 116.597C269.96 116.658 269.957 116.721 269.942 116.781C269.927 116.841 269.901 116.898 269.864 116.948C269.827 116.998 269.78 117.04 269.727 117.072L238.874 135.557C238.794 135.575 238.711 135.575 238.63 135.557Z" fill="#663AA3"/>
<path d="M227.897 41.5804V83.5786C227.897 85.5615 228.574 86.9524 229.636 87.5162L237.793 92.2997H237.727C238.234 92.6064 238.82 92.7567 239.412 92.7316C240.004 92.7066 240.575 92.5072 241.054 92.1587L278.823 70.3373C281.483 68.7961 283.645 64.6987 283.645 61.1181V19.1199C283.645 17.1652 282.987 15.8025 281.953 15.2199H282.009L273.796 10.4082C273.703 10.3449 273.605 10.2884 273.504 10.2391C273.016 10.037 272.484 9.96118 271.959 10.0187C271.433 10.0761 270.93 10.2651 270.497 10.568L232.681 32.3894C230.059 33.9307 227.897 38.0562 227.897 41.5804Z" fill="#663AA3"/>
<path d="M229.25 36.374C230 34.7524 231.188 33.3724 232.68 32.3894L270.487 10.568C270.92 10.2651 271.423 10.0761 271.948 10.0187C272.474 9.96118 273.005 10.037 273.494 10.2391C273.595 10.2884 273.692 10.3449 273.785 10.4082L282.008 15.2668C281.507 15.0102 280.944 14.8964 280.382 14.9378C279.82 14.9793 279.281 15.1744 278.822 15.5018L241.053 37.3044C239.493 38.3238 238.257 39.7684 237.491 41.4676L229.25 36.374Z" fill="#663AA3"/>
<path d="M236.224 88.4925C236.224 90.372 236.835 91.7065 237.793 92.3267L229.636 87.5433C228.574 86.9794 227.897 85.5886 227.897 83.6057V41.5792C227.939 39.7534 228.402 37.962 229.251 36.3447L237.492 41.4101C236.7 42.9806 236.267 44.7075 236.224 46.466V88.4925Z" fill="#663AA3"/>
<path opacity="0.3" d="M229.25 36.374C230 34.7524 231.188 33.3724 232.68 32.3894L270.487 10.568C270.92 10.2651 271.423 10.0761 271.948 10.0187C272.474 9.96118 273.005 10.037 273.494 10.2391C273.595 10.2884 273.692 10.3449 273.785 10.4082L282.008 15.2668C281.507 15.0102 280.944 14.8964 280.382 14.9378C279.82 14.9793 279.281 15.1744 278.822 15.5018L241.053 37.3044C239.493 38.3238 238.257 39.7684 237.491 41.4676L229.25 36.374Z" fill="black"/>
<path opacity="0.6" d="M236.224 88.4925C236.224 90.372 236.835 91.7065 237.793 92.3267L229.636 87.5433C228.574 86.9794 227.897 85.5886 227.897 83.6057V41.5792C227.939 39.7534 228.402 37.962 229.251 36.3447L237.492 41.4101C236.7 42.9806 236.267 44.7075 236.224 46.466V88.4925Z" fill="black"/>
<path d="M216.95 62.2554C216.603 62.2604 216.262 62.1693 215.963 61.9922C215.592 61.7436 215.295 61.3993 215.103 60.9957C214.911 60.5921 214.831 60.1442 214.873 59.6992C214.925 58.6053 215.238 57.5397 215.785 56.5915C216.333 55.6432 217.1 54.8399 218.021 54.2485C218.373 53.9636 218.802 53.7918 219.253 53.756C219.704 53.7202 220.156 53.8221 220.547 54.0481C220.939 54.2741 221.254 54.6136 221.449 55.0219C221.644 55.4302 221.71 55.8879 221.639 56.3348C221.587 57.4285 221.274 58.4938 220.726 59.4419C220.179 60.3901 219.412 61.1936 218.491 61.7855C218.027 62.0739 217.496 62.2359 216.95 62.2554ZM219.525 54.7372C219.147 54.7543 218.781 54.8711 218.463 55.0755C217.688 55.5876 217.043 56.2727 216.578 57.0767C216.113 57.8807 215.842 58.7817 215.785 59.7086C215.749 59.9887 215.788 60.2732 215.897 60.5337C216.006 60.7942 216.181 61.0216 216.405 61.1934C216.665 61.2981 216.948 61.334 217.226 61.2978C217.504 61.2616 217.768 61.1545 217.993 60.9867C218.768 60.4721 219.412 59.7851 219.877 58.9797C220.342 58.1743 220.614 57.2723 220.671 56.3442C220.706 56.0655 220.667 55.7827 220.558 55.5238C220.449 55.2649 220.275 55.0391 220.051 54.8688C219.89 54.7801 219.709 54.7348 219.525 54.7372Z" fill="#663AA3"/>
<path d="M262.444 46.8241C262.765 46.5876 263.147 46.447 263.544 46.4187C263.942 46.3904 264.339 46.4756 264.691 46.6644L268.224 49.0984C268.35 49.2027 268.447 49.3383 268.505 49.4916C268.562 49.6449 268.579 49.8106 268.553 49.9723C268.522 50.4259 268.38 50.8649 268.139 51.2504C267.929 51.6121 267.632 51.9157 267.275 52.1338H267.209C267.077 52.2215 266.921 52.2683 266.763 52.2683C266.604 52.2683 266.449 52.2215 266.316 52.1338L264.352 50.8463L264.427 63.5896C264.386 64.1887 264.206 64.7701 263.903 65.2884C263.6 65.8068 263.181 66.2481 262.679 66.5781C261.74 67.1325 260.96 66.6908 260.96 65.5913V60.1218L259.343 61.0616V66.5499C259.311 67.1466 259.138 67.7272 258.839 68.2448C258.54 68.7623 258.124 69.2022 257.623 69.5289C256.684 70.0834 255.894 69.6323 255.894 68.5328V55.7425L253.93 59.2948C253.726 59.7024 253.418 60.0492 253.037 60.3004H252.972C252.847 60.3876 252.704 60.4435 252.553 60.4631C252.403 60.4828 252.25 60.4656 252.107 60.4132C251.969 60.3357 251.857 60.2199 251.783 60.0798C251.71 59.9396 251.679 59.7812 251.694 59.6238C251.687 59.1789 251.8 58.7405 252.022 58.3551L255.565 51.9177C256.086 50.9249 256.861 50.0883 257.811 49.4931L262.444 46.8147V46.8241ZM262.444 44.9352L257.811 47.6135C256.343 48.5373 255.146 49.8345 254.344 51.3726L250.81 57.8382C250.298 58.7196 250.031 59.7225 250.04 60.7421C250.012 61.102 250.085 61.4625 250.251 61.783C250.417 62.1035 250.669 62.3712 250.979 62.5558C251.312 62.6746 251.669 62.7092 252.018 62.6568C252.367 62.6043 252.698 62.4663 252.981 62.2551L253.131 62.1705C253.543 61.91 253.916 61.5937 254.24 61.2308V69.5007C254.24 71.6622 255.763 72.5362 257.633 71.4555C258.719 70.7665 259.594 69.7908 260.161 68.6361C260.549 68.8634 260.996 68.9713 261.446 68.9462C261.896 68.9211 262.328 68.7643 262.689 68.4952C263.671 67.8562 264.489 66.9966 265.08 65.985C265.671 64.9733 266.017 63.8377 266.091 62.6686C266.096 62.647 266.096 62.6245 266.091 62.6028L266.034 54.3893C266.417 54.3565 266.788 54.2445 267.125 54.0603L267.275 53.9758C268.094 53.4741 268.775 52.7765 269.258 51.9459C269.811 51.069 270.134 50.0672 270.198 49.0326C270.255 48.6593 270.214 48.2774 270.079 47.9247C269.944 47.572 269.719 47.2607 269.427 47.0215L265.893 44.6251C265.351 44.3357 264.738 44.2051 264.124 44.2483C263.511 44.2915 262.922 44.5068 262.426 44.8694L262.444 44.9352Z" fill="#FAFAFA"/>
<path d="M260.124 37.4546C260.375 37.2299 260.689 37.09 261.024 37.0548C261.359 37.0197 261.696 37.091 261.987 37.2587C262.279 37.4264 262.51 37.6819 262.648 37.9888C262.786 38.2956 262.824 38.6382 262.755 38.9676C262.735 39.8796 262.469 40.7691 261.985 41.5426C261.543 42.3495 260.894 43.0242 260.105 43.4973C259.854 43.7143 259.541 43.8476 259.211 43.8787C258.88 43.9097 258.548 43.837 258.261 43.6706C257.973 43.5041 257.745 43.2523 257.607 42.9501C257.47 42.6479 257.43 42.3103 257.493 41.9843C257.514 41.0723 257.78 40.1828 258.263 39.4093C258.704 38.6018 259.353 37.9269 260.143 37.4546H260.124ZM260.143 35.575C258.902 36.3904 257.869 37.4848 257.127 38.7706C256.384 40.0564 255.953 41.4981 255.867 42.9804C255.757 43.5156 255.819 44.0717 256.043 44.57C256.266 45.0683 256.641 45.4835 257.114 45.7569C257.587 46.0303 258.134 46.1479 258.678 46.0932C259.221 46.0385 259.734 45.8142 260.143 45.452C261.387 44.6393 262.423 43.5458 263.167 42.2596C263.912 40.9733 264.344 39.5303 264.428 38.0466C264.534 37.5114 264.47 36.9563 264.244 36.4595C264.019 35.9626 263.643 35.5488 263.171 35.2762C262.698 35.0036 262.152 34.8858 261.609 34.9394C261.066 34.993 260.553 35.2153 260.143 35.575Z" fill="#FAFAFA"/>
<path d="M200.607 100.173C200.483 100.171 200.365 100.12 200.277 100.033C200.189 99.9452 200.139 99.8271 200.137 99.7033V72.5909C200.135 71.2517 200.481 69.9349 201.14 68.7688C201.798 67.6028 202.748 66.6273 203.896 65.9374L215.06 59.359C215.169 59.2969 215.298 59.2798 215.419 59.3114C215.54 59.343 215.644 59.4208 215.709 59.5282C215.74 59.581 215.761 59.6397 215.77 59.7007C215.779 59.7617 215.775 59.8239 215.759 59.8835C215.744 59.9431 215.716 59.9989 215.678 60.0476C215.64 60.0964 215.593 60.137 215.54 60.1672L204.375 66.7456C203.36 67.347 202.519 68.2021 201.934 69.2269C201.349 70.2517 201.04 71.411 201.039 72.5909V99.722C201.035 99.8372 200.988 99.9467 200.909 100.03C200.829 100.113 200.721 100.164 200.607 100.173Z" fill="#663AA3"/>
<path d="M126.036 30.4434L118.894 34.5126V31.9846C118.894 31.806 118.894 31.6181 118.894 31.4489C118.894 31.2798 118.894 31.1012 118.894 30.932V30.8757C118.631 27.5301 116.075 26.2426 113.002 28.0564C111.597 28.9141 110.397 30.0689 109.487 31.4395C108.782 26.8816 105.07 25.2464 100.587 27.8308C95.597 30.7159 91.556 37.7078 91.556 43.4686V48.8816C91.5546 49.3113 91.4411 49.7331 91.2269 50.1056C91.0126 50.478 90.705 50.7882 90.3343 51.0055L86.1336 53.4677C85.2241 54.0037 84.4702 54.7675 83.9461 55.6838C83.4221 56.6001 83.146 57.6372 83.1451 58.6928C83.1418 59.1338 83.2557 59.5678 83.4752 59.9504C83.6946 60.333 84.0117 60.6504 84.394 60.8702C84.7764 61.0901 85.2102 61.2044 85.6512 61.2016C86.0923 61.1988 86.5247 61.079 86.9042 60.8543L125.952 38.2998C126.982 37.6928 127.835 36.8253 128.423 35.7843C129.012 34.7434 129.317 33.5658 129.307 32.3699C129.305 31.9872 129.204 31.6115 129.013 31.2796C128.822 30.9478 128.549 30.6711 128.219 30.4769C127.889 30.2826 127.515 30.1774 127.132 30.1715C126.749 30.1657 126.372 30.2593 126.036 30.4434Z" fill="#E6E6E6"/>
<path d="M61.1934 38.8449L55.9119 41.8522V39.9727C55.9119 39.8411 55.9119 39.7095 55.9119 39.578C55.9119 39.4464 55.9119 39.3242 55.9119 39.2021C55.7145 36.7211 53.8444 35.7719 51.5513 37.097C50.5151 37.7349 49.6275 38.5872 48.9482 39.5968C48.4313 36.1948 45.6684 35.0013 42.3698 36.8808C40.4251 38.1481 38.8065 39.8561 37.6456 41.8661C36.4846 43.8761 35.814 46.1316 35.6881 48.4494V52.4528C35.6845 52.7742 35.5956 53.0889 35.4305 53.3646C35.2654 53.6404 35.0299 53.8673 34.7483 54.0222L31.6377 55.8454C30.9645 56.2428 30.4066 56.809 30.0193 57.488C29.632 58.1671 29.4286 58.9355 29.4292 59.7172C29.4362 60.0418 29.5272 60.3591 29.6933 60.6381C29.8594 60.9171 30.0949 61.1483 30.377 61.3092C30.659 61.4701 30.9779 61.5552 31.3026 61.5561C31.6273 61.5571 31.9467 61.474 32.2297 61.3148L61.1182 44.6245C61.8857 44.1825 62.5228 43.5456 62.9651 42.7782C63.4073 42.0109 63.6391 41.1403 63.6368 40.2546C63.6347 39.9695 63.5581 39.6899 63.4146 39.4435C63.2711 39.1971 63.0657 38.9925 62.8188 38.8501C62.5718 38.7076 62.2919 38.6321 62.0067 38.6312C61.7216 38.6303 61.4412 38.704 61.1934 38.8449Z" fill="#E6E6E6"/>
<defs>
<linearGradient id="paint0_linear_2335_41501" x1="204.251" y1="0" x2="204.251" y2="444" gradientUnits="userSpaceOnUse">
<stop stop-color="#FFE8D7"/>
<stop offset="1" stop-color="white"/>
</linearGradient>
</defs>
</svg>
