<svg width="744" height="776" viewBox="0 0 744 776" fill="none" xmlns="http://www.w3.org/2000/svg">
<path d="M531.184 576.526C530.607 576.944 530.029 577.361 529.306 577.306C528.583 577.251 528.076 576.752 527.557 576.404C523.15 572.224 520.293 566.778 516.463 562.18C511.81 556.443 506.604 550.818 501.001 545.625C482.694 528.238 460.999 514.746 439.555 500.351C418.799 486.47 417.692 477.157 401.775 471.334C392.225 467.84 381.98 466.293 373.485 460.879C367.935 457.381 363.936 452.617 360.875 447.463C354.777 436.848 351.95 428.635 340.534 421C333.619 416.322 325.864 413.118 318.11 409.914C298.537 401.968 290.06 389.173 284.488 371.676C284.488 371.676 270.999 324.509 303.941 345.468C322.837 357.516 337.278 380.301 353.736 400.47C364.055 412.943 374.998 424.387 388.257 431.7C391.055 433.144 393.854 434.587 396.857 435.738C397.918 436.126 398.979 436.514 400.04 436.902C429.321 448.663 423.28 456.356 445.918 481.301C451.282 487.245 458.383 494.245 468.114 502.521C487.225 518.892 508.634 533.746 526.58 551.105C535.068 558.979 541.452 568.231 531.184 576.526Z" fill="#FF95C5"/>
<path d="M597.265 220.274C581.585 163.713 613.306 129.209 579.375 97.409C579.375 97.409 544.716 63.2463 488.227 107.865C486.099 109.549 483.971 111.233 481.831 113.07C476.577 117.593 471.119 122.408 465.469 127.362C453.965 137.562 441.837 148.791 429.47 160.772C417.475 172.626 405.604 185.259 394.408 198.559C370.612 226.897 350.605 257.984 342.37 289.658C337.728 307.608 336.7 325.833 340.78 343.83C346.125 366.692 350.158 385.301 353.917 400.352C364.236 412.825 375.179 424.268 388.437 431.581C391.235 433.024 394.034 434.467 397.036 435.618C398.098 436.006 399.159 436.395 400.22 436.783C407.922 428.755 419.065 418.527 462.993 405.099C509.701 390.96 567.12 381.786 600.297 361.543C615.935 351.965 626.122 339.973 627.359 323.763C631.368 273.62 612.944 276.834 597.265 220.274ZM589.026 294.859C589.003 295.164 588.968 295.623 588.933 296.082C588.898 296.541 588.874 296.846 588.659 297.291C588.408 298.195 588.145 299.252 587.895 300.156C587.679 300.601 587.644 301.06 587.428 301.505C586.997 302.395 586.746 303.298 586.122 304.328C585.906 304.773 585.69 305.218 585.475 305.663C585.043 306.553 584.431 307.429 583.807 308.458C583.603 308.75 583.399 309.043 583.183 309.488C582.979 309.78 582.775 310.072 582.559 310.517C581.334 312.269 579.929 314.008 578.343 315.734C577.947 316.165 577.55 316.596 577.165 316.875C576.565 317.598 575.783 318.308 575.183 319.031C574.594 319.602 574.005 320.172 573.416 320.742C573.02 321.174 572.635 321.452 572.238 321.883C571.072 322.872 569.894 324.012 568.728 325.001C568.536 325.14 568.524 325.293 568.343 325.279C567.947 325.71 567.381 325.975 566.985 326.406C564.46 328.521 561.766 330.47 558.892 332.405C558.314 332.823 557.737 333.24 557.16 333.658C555.813 334.632 554.285 335.593 552.758 336.553C551.037 337.653 549.317 338.753 547.597 339.853C547.02 340.27 546.455 340.535 545.877 340.952C544.734 341.635 543.399 342.456 542.256 343.138C541.114 343.82 539.778 344.642 538.455 345.31C524.572 353.33 509.255 361.088 493.792 368.372C492.095 369.166 490.398 369.96 488.702 370.754C485.308 372.342 481.734 373.916 478.341 375.504C477.21 376.033 476.078 376.563 474.947 377.092C472.685 378.151 470.423 379.209 468.172 380.115C467.787 380.393 467.233 380.505 466.848 380.783C464.213 381.967 461.578 383.151 458.942 384.336C458.942 384.336 458.761 384.322 458.75 384.475C457.438 384.99 456.114 385.659 454.802 386.174C453.298 386.829 451.601 387.623 450.097 388.278C449.158 388.668 448.22 389.058 447.269 389.601C446.33 389.991 445.38 390.534 444.261 390.911C443.322 391.301 442.383 391.691 441.444 392.081C440.313 392.61 439.001 393.126 437.87 393.655C436.174 394.449 434.296 395.229 432.599 396.023C430.337 397.082 428.075 398.14 426.005 399.06C425.247 399.464 424.489 399.867 423.562 400.105C421.865 400.899 420.157 401.845 418.46 402.639C417.702 403.043 416.956 403.294 416.378 403.712C416.186 403.851 416.005 403.837 415.813 403.976C414.874 404.367 414.105 404.923 413.166 405.313C410.892 406.525 408.81 407.597 407.09 408.697C406.717 408.822 406.332 409.101 406.14 409.24C405.574 409.505 404.997 409.922 404.431 410.187C403.866 410.452 403.469 410.883 402.904 411.148C402.519 411.426 401.942 411.843 401.557 412.122C401.364 412.261 401.172 412.4 400.98 412.539C400.787 412.679 400.402 412.957 400.21 413.096C400.018 413.235 399.813 413.527 399.44 413.653C399.044 414.084 398.478 414.349 398.262 414.794C398.262 414.794 362.151 382.982 367.555 326.484C367.601 325.873 367.648 325.261 367.695 324.649C367.718 324.344 367.742 324.038 367.765 323.732C367.812 323.12 367.858 322.509 368.086 321.911C368.097 321.758 368.109 321.605 368.109 321.605C368.144 321.146 368.191 320.534 368.407 320.089C368.442 319.631 368.488 319.019 368.704 318.574C368.966 317.517 369.036 316.6 369.299 315.543C369.346 314.931 369.561 314.486 369.608 313.875C369.655 313.263 369.871 312.818 369.917 312.206C370.18 311.15 370.442 310.093 370.705 309.036L370.716 308.883C370.979 307.827 371.241 306.77 371.492 305.866C371.754 304.809 372.005 303.906 372.268 302.849C372.769 301.041 373.271 299.234 373.953 297.44C373.976 297.134 374.169 296.995 374.192 296.689C374.455 295.632 374.898 294.589 375.341 293.546C375.58 292.796 375.819 292.045 376.239 291.308C376.717 289.806 377.388 288.165 378.047 286.677C378.706 285.189 379.172 283.84 379.831 282.352C380.07 281.601 380.49 280.864 380.729 280.113C381.377 278.778 381.832 277.582 382.479 276.247C383.126 274.912 383.773 273.577 384.409 272.395C385.704 269.725 387.167 267.221 388.654 264.412C389.29 263.23 389.925 262.048 390.742 260.879C391.354 260.003 391.786 259.113 392.409 258.084C393.442 256.47 394.485 254.704 395.71 252.951C396.742 251.338 397.774 249.724 398.987 248.124C399.611 247.095 400.416 246.08 401.232 244.911C401.652 244.174 402.241 243.604 402.661 242.866C403.273 241.99 404.078 240.975 404.69 240.098C405.314 239.069 406.107 238.206 406.719 237.33C410.97 231.655 415.594 225.854 420.772 219.941C422.369 218.063 423.967 216.185 425.734 214.473C426.719 213.472 427.524 212.456 428.521 211.301C429.903 209.868 431.104 208.421 432.486 206.988C433.483 205.834 434.469 204.832 435.454 203.83C435.839 203.552 436.055 203.107 436.439 202.828C437.04 202.105 437.629 201.534 438.41 200.825C445.343 193.354 452.037 186.633 458.323 180.497C463.046 175.78 467.746 171.369 472.06 167.237C473.227 166.249 474.404 165.108 475.39 164.106C475.979 163.535 476.748 162.979 477.337 162.408C478.503 161.42 479.681 160.279 480.655 159.43C480.655 159.43 480.655 159.43 480.847 159.291C482.014 158.303 482.999 157.301 483.973 156.452C485.139 155.464 486.317 154.323 487.471 153.488C488.049 153.071 488.637 152.5 489.034 152.069C491.174 150.232 493.302 148.548 495.25 146.85C495.827 146.433 496.223 146.001 496.801 145.584C499.314 143.621 501.634 141.798 503.943 140.128L505.29 139.154C506.637 138.179 507.984 137.205 509.319 136.383C509.704 136.105 510.27 135.84 510.654 135.562C511.039 135.284 511.424 135.005 511.99 134.741C512.375 134.462 512.759 134.184 513.325 133.919C514.083 133.515 514.66 133.098 515.418 132.694C515.995 132.276 516.753 131.873 517.319 131.608C518.269 131.065 519.027 130.661 519.978 130.118C520.928 129.575 521.879 129.032 522.817 128.642C523.202 128.364 523.756 128.252 524.141 127.973C525.464 127.305 526.584 126.929 527.715 126.399C528.088 126.274 528.281 126.135 528.654 126.009C529.027 125.884 529.4 125.758 529.773 125.633C530.146 125.507 530.52 125.382 530.893 125.256C531.639 125.005 532.385 124.755 533.12 124.657C534.047 124.419 534.782 124.321 535.528 124.07C535.901 123.945 536.263 123.972 536.817 123.861C537.19 123.735 537.551 123.763 537.924 123.637C538.105 123.651 538.286 123.665 538.467 123.678C539.201 123.58 539.924 123.635 540.466 123.677C540.647 123.69 540.828 123.704 541.009 123.718C543.72 123.924 546.034 124.561 547.953 125.629C548.652 125.99 549.34 126.504 550.016 127.17C553.928 130.697 556.388 136.575 557.466 143.886C557.746 144.984 557.845 146.068 557.933 147.305C558.055 148.083 557.997 148.848 558.131 149.473C558.218 150.71 558.305 151.947 558.381 153.337C558.398 155.492 558.416 157.647 558.421 159.954C558.316 161.33 558.38 162.873 558.264 164.402C558.088 166.696 558.094 169.004 557.907 171.45C553.822 224.972 587.316 241.051 589.837 291.383C589.405 292.273 589.312 293.496 589.026 294.859Z" fill="#664199"/>
<path d="M676.894 401.648C658.88 366.132 625.143 360.339 600.485 361.85C567.306 382.095 510.064 391.283 463.172 405.41C419.061 418.825 408.098 429.067 400.395 437.096C429.677 448.857 423.635 456.55 446.274 481.496C467.16 488.928 497.374 497.991 540.591 512.964C620.464 540.719 640.649 557.326 685.141 522.252C729.632 487.177 707.886 462.452 676.894 401.648ZM428.068 436.583L428.249 436.597C428.237 436.75 428.237 436.75 428.068 436.583C428.237 436.75 428.237 436.75 428.068 436.583ZM671.01 478.725C664.829 488.253 648.415 491.313 627.401 490.332C597.145 488.957 556.978 479.292 522.291 469.274C497.394 461.999 475.424 454.485 462.172 449.479C440.61 441.381 432.121 438.275 429.299 437.138C429.299 437.138 429.118 437.124 428.949 436.957L428.768 436.944L428.949 436.957C429.129 436.971 429.31 436.985 429.479 437.152C430.972 436.65 478.78 417.67 525.194 405.045C558.051 396.158 590.314 390.303 605.123 396.35C606.353 396.905 607.595 397.307 608.826 397.862C644.176 413.467 691.823 446.62 671.01 478.725Z" fill="url(#paint0_linear_2890_4569)"/>
<path d="M488.205 107.865C486.077 109.549 483.949 111.233 481.809 113.069C476.556 117.592 471.098 122.407 465.449 127.361C418.081 102.538 434.926 84.2848 410.658 52.1427C397.606 35.0022 379.489 74.6907 364.688 120.937C356.332 147.064 348.896 175.413 344.178 196.741C340.568 213.077 338.538 225.381 338.573 229.69C338.909 253.862 340.306 273.655 342.538 289.666C337.896 307.615 336.868 325.839 340.948 343.836C281.061 204.404 346.321 78.1695 374.682 40.0281C403.042 1.8866 451.221 13.6977 445.795 60.9638C442.149 92.0621 469.258 103.657 488.205 107.865Z" fill="#664199"/>
<path d="M239.654 270.298C225.615 258.926 214.626 233.79 231.668 246.312C248.033 258.168 247.712 269.525 239.654 270.298Z" fill="url(#paint1_linear_2890_4569)"/>
<path d="M285.837 341.633C281.689 305.482 281.987 230.142 240.828 197.793C199.669 165.444 197.914 236.06 219.776 259.253C227.856 267.71 235.067 270.873 239.656 270.299" stroke="#664199" stroke-width="1.10879" stroke-miterlimit="10"/>
<path d="M211.011 331.175C199.735 326.474 188.308 314.224 185.784 302.035C182.625 286.261 227.786 318.607 211.011 331.175Z" fill="url(#paint2_linear_2890_4569)"/>
<path d="M211.012 331.18C208.703 332.85 205.14 334.272 199.985 335.111C160.796 341.209 147.853 255.933 198.661 271.483C257.644 289.499 276.999 326.502 286.059 341.187" stroke="#664199" stroke-width="1.10879" stroke-miterlimit="10"/>
<path d="M568.394 324.665C568.202 324.804 568.19 324.957 568.009 324.943C567.613 325.375 567.047 325.639 566.651 326.071C564.126 328.186 561.432 330.135 558.557 332.07C557.98 332.487 557.403 332.905 556.826 333.322C555.479 334.297 553.951 335.257 552.423 336.218C550.703 337.318 548.983 338.417 547.263 339.517C546.686 339.935 546.12 340.199 545.543 340.617C544.4 341.299 543.065 342.121 541.922 342.803C540.779 343.485 539.444 344.306 538.12 344.975C524.237 352.995 508.92 360.752 493.457 368.037C491.76 368.831 490.063 369.625 488.367 370.419C484.973 372.007 481.399 373.581 478.005 375.169C476.874 375.698 475.743 376.228 474.612 376.757C472.35 377.815 470.087 378.874 467.837 379.78C456.765 370.018 459.449 353.918 463.752 349.939C469.437 344.526 479.877 307.79 422.179 292.026C399.744 285.861 390.946 274.888 388.703 263.797C389.338 262.615 389.974 261.433 390.79 260.265C391.402 259.388 391.834 258.498 392.458 257.469C393.49 255.855 394.534 254.089 395.758 252.336C396.791 250.723 397.823 249.109 399.036 247.51C399.659 246.48 400.464 245.465 401.281 244.296C401.7 243.559 402.289 242.989 402.709 242.252C403.321 241.375 404.126 240.36 404.738 239.484C405.362 238.454 406.155 237.592 406.768 236.715C411.019 231.04 415.643 225.239 420.821 219.326C422.418 217.448 424.016 215.57 425.783 213.858C426.768 212.857 427.573 211.841 428.57 210.686C429.952 209.253 431.153 207.806 432.535 206.373C433.532 205.219 434.518 204.217 435.503 203.215C435.888 202.937 436.104 202.492 436.488 202.213C437.089 201.49 437.678 200.919 438.459 200.21C445.392 192.738 452.086 186.018 458.372 179.882C477.712 176.583 503.565 176.085 503.219 197.284C502.458 231.064 487.67 258.087 521.993 272.845C546.778 283.956 565.97 304.025 568.394 324.665Z" fill="#836AAF"/>
<path d="M467.63 380.062C467.245 380.341 466.691 380.452 466.307 380.731C463.671 381.915 461.036 383.099 458.4 384.283C458.4 384.283 458.22 384.269 458.208 384.422C456.896 384.938 455.573 385.606 454.261 386.122C452.756 386.776 451.06 387.57 449.555 388.225C448.617 388.615 447.678 389.005 446.728 389.548C445.789 389.938 444.838 390.481 443.719 390.858C442.78 391.248 441.842 391.638 440.903 392.028C439.772 392.557 438.46 393.073 437.329 393.602C435.632 394.396 433.755 395.176 432.058 395.97C429.796 397.029 427.533 398.088 425.464 399.007C424.706 399.411 423.948 399.815 423.021 400.052C421.324 400.846 419.615 401.793 417.919 402.587C417.161 402.99 416.414 403.241 415.837 403.659C415.645 403.798 415.464 403.784 415.272 403.924C414.333 404.314 413.563 404.87 412.625 405.261C410.351 406.472 408.269 407.544 406.549 408.644C406.176 408.77 405.791 409.048 405.599 409.187C405.033 409.452 404.456 409.869 403.89 410.134C403.325 410.399 402.928 410.83 402.363 411.095C401.978 411.373 401.401 411.791 401.016 412.069C400.823 412.208 400.631 412.347 400.439 412.486C400.246 412.626 399.861 412.904 399.669 413.043C399.477 413.182 399.092 413.461 398.899 413.6C398.503 414.031 397.937 414.296 397.721 414.741C397.721 414.741 361.611 382.929 367.014 326.432C367.061 325.821 367.108 325.209 367.154 324.597C367.178 324.292 367.201 323.986 367.224 323.68C367.271 323.068 367.318 322.456 367.545 321.859C367.557 321.706 367.569 321.553 367.569 321.553C367.604 321.094 367.65 320.482 367.866 320.037C367.901 319.579 367.948 318.967 368.163 318.522C368.426 317.465 368.496 316.548 368.758 315.491C368.805 314.879 369.021 314.434 369.068 313.823C369.114 313.211 369.33 312.766 369.377 312.154C369.639 311.098 369.902 310.041 370.164 308.984L370.176 308.831C370.438 307.775 370.701 306.718 370.951 305.814C371.214 304.757 371.465 303.854 371.727 302.797C372.229 300.989 372.73 299.182 373.412 297.388C373.436 297.082 373.628 296.943 373.652 296.637C373.914 295.581 374.357 294.538 374.8 293.495C375.039 292.744 375.279 291.993 375.698 291.256C376.177 289.754 376.847 288.113 377.506 286.625C378.165 285.137 378.632 283.788 379.291 282.3C379.53 281.55 379.95 280.812 380.189 280.062C380.836 278.727 381.291 277.531 381.938 276.196C382.585 274.86 383.233 273.525 383.868 272.343C385.163 269.673 386.626 267.17 388.113 264.36C390.357 275.451 399.154 286.424 421.589 292.588C479.285 308.352 468.834 345.24 463.161 350.5C459.411 354.368 456.547 370.454 467.63 380.062Z" fill="url(#paint3_linear_2890_4569)"/>
<path d="M589.026 294.866C589.003 295.172 588.968 295.631 588.933 296.09C588.898 296.549 588.874 296.854 588.658 297.299C588.408 298.203 588.145 299.26 587.894 300.164C587.679 300.609 587.644 301.067 587.428 301.512C586.996 302.402 586.746 303.306 586.122 304.335C585.906 304.781 585.69 305.226 585.474 305.671C585.043 306.561 584.431 307.437 583.807 308.466C583.603 308.758 583.399 309.05 583.183 309.495C582.979 309.787 582.775 310.08 582.559 310.525C581.334 312.277 579.929 314.016 578.343 315.741C577.947 316.173 577.55 316.604 577.165 316.882C576.565 317.606 575.783 318.315 575.183 319.039C574.594 319.609 574.005 320.18 573.416 320.75C573.02 321.181 572.635 321.46 572.238 321.891C571.072 322.879 569.894 324.02 568.728 325.008C566.485 304.382 547.112 284.3 521.932 273.621C487.598 259.016 502.398 231.84 503.158 198.061C503.685 176.876 477.833 177.374 458.313 180.659C463.036 175.942 467.735 171.531 472.05 167.399C473.216 166.411 474.394 165.27 475.38 164.268C475.968 163.697 476.738 163.141 477.327 162.57C478.493 161.582 479.671 160.441 480.645 159.592C480.645 159.592 480.645 159.592 480.837 159.453C482.003 158.465 482.989 157.463 483.962 156.614C485.129 155.626 486.306 154.485 487.461 153.65C488.038 153.233 488.627 152.662 489.023 152.231C491.163 150.394 493.292 148.71 495.239 147.012C495.816 146.595 496.213 146.163 496.79 145.746C499.303 143.783 501.624 141.96 503.933 140.29L505.28 139.316C506.626 138.341 507.973 137.367 509.309 136.546C509.693 136.267 510.259 136.003 510.644 135.724C511.029 135.446 511.413 135.168 511.979 134.903C512.364 134.625 512.749 134.346 513.314 134.081C514.072 133.678 514.649 133.26 515.407 132.856C515.985 132.439 516.743 132.035 517.308 131.77C518.259 131.227 519.017 130.823 519.967 130.28C520.917 129.737 521.868 129.194 522.806 128.804C523.191 128.526 523.745 128.414 524.13 128.136C525.453 127.467 526.573 127.091 527.704 126.562C528.077 126.436 528.27 126.297 528.643 126.171C529.016 126.046 529.389 125.921 529.762 125.795C530.135 125.67 530.509 125.544 530.882 125.419C531.628 125.168 532.374 124.917 533.109 124.819C534.036 124.582 534.771 124.484 535.517 124.233C535.89 124.107 536.252 124.135 536.805 124.023C537.179 123.898 537.54 123.925 537.913 123.8C538.094 123.813 538.275 123.827 538.455 123.841C539.19 123.743 539.913 123.798 540.455 123.839C540.636 123.853 540.817 123.866 540.997 123.88C543.709 124.086 546.023 124.723 547.941 125.792C548.641 126.152 549.329 126.666 550.005 127.333C553.917 130.86 556.377 136.737 557.455 144.048C557.735 145.146 557.834 146.23 557.921 147.467C558.043 148.245 557.985 149.01 558.119 149.635C558.207 150.872 558.294 152.109 558.37 153.499C558.387 155.654 558.404 157.809 558.41 160.116C558.305 161.492 558.369 163.035 558.252 164.564C558.077 166.858 558.083 169.166 557.896 171.612C553.81 225.133 587.304 241.212 589.825 291.543C589.405 292.281 589.312 293.504 589.026 294.866Z" fill="url(#paint4_linear_2890_4569)"/>
<path d="M522.296 469.116C497.399 461.841 475.429 454.327 462.176 449.321C440.615 441.223 432.126 438.117 429.304 436.98C430.796 436.478 478.604 417.499 525.018 404.874C531.642 408.607 538.154 416.177 539.383 431.037C541.475 453.653 523.206 457.187 522.296 469.116Z" fill="url(#paint5_linear_2890_4569)"/>
<path d="M639.954 471.139C637.464 477.564 630.887 482.756 627.399 490.335C597.144 488.96 556.977 479.295 522.291 469.277C523.202 457.349 541.47 453.815 539.367 431.352C537.957 416.479 531.625 408.923 525.002 405.19C557.858 396.304 590.12 390.448 604.929 396.495C606.16 397.05 607.402 397.452 608.632 398.007C606.94 405.877 607.511 417.456 619.76 426.077C640.481 440.417 644.503 459.18 639.954 471.139Z" fill="#836AAF"/>
<path d="M671.011 478.731C664.83 488.258 648.418 491.318 627.405 490.337C631.061 482.925 637.469 477.567 639.959 471.143C644.508 459.184 640.486 440.422 619.766 426.082C607.336 417.448 606.947 405.883 608.638 398.013C644.179 413.479 691.823 446.628 671.011 478.731Z" fill="url(#paint6_linear_2890_4569)"/>
<path d="M465.446 127.367C453.942 137.567 441.814 148.797 429.446 160.777C422.771 155.348 415.314 145.861 405.374 130.802C392.351 110.895 376.503 113.69 364.317 120.916C379.13 74.5148 397.248 34.8248 410.29 52.1189C434.921 84.2897 418.076 102.544 465.446 127.367Z" fill="url(#paint7_linear_2890_4569)"/>
<path d="M429.45 160.769C417.455 172.624 405.583 185.258 394.388 198.557C377.224 180.489 355.236 189.893 343.988 196.729C348.707 175.4 356.143 147.049 364.501 120.922C376.687 113.695 392.546 110.747 405.558 130.808C415.306 146.006 422.762 155.493 429.45 160.769Z" fill="#836AAF"/>
<path d="M394.381 198.704C370.586 227.042 350.58 258.128 342.346 289.801C340.126 273.637 338.547 253.83 338.38 229.825C338.345 225.516 340.375 213.212 343.985 196.876C355.232 190.04 377.23 180.483 394.381 198.704Z" fill="url(#paint8_linear_2890_4569)"/>
<path d="M451.098 254.138C462.475 239.923 466.637 225.434 460.395 221.775C454.153 218.116 439.871 226.673 428.494 240.887C417.117 255.102 412.955 269.591 419.197 273.25C425.438 276.91 439.721 268.353 451.098 254.138Z" fill="url(#paint9_linear_2890_4569)"/>
<path d="M518.002 336.206C534.673 326.442 544.646 314.263 540.277 309.002C535.908 303.742 518.851 307.393 502.18 317.157C485.509 326.921 475.536 339.1 479.905 344.36C484.274 349.62 501.33 345.969 518.002 336.206Z" fill="url(#paint10_linear_2890_4569)"/>
<path d="M434.34 358.596C440.156 337.675 437.529 319.102 428.472 317.112C419.414 315.123 407.357 330.469 401.541 351.391C395.725 372.312 398.352 390.885 407.409 392.874C416.466 394.864 428.524 379.517 434.34 358.596Z" fill="url(#paint11_linear_2890_4569)"/>
<path d="M621.557 468.224C622.917 461.914 607.422 453.89 586.948 450.302C566.475 446.715 548.776 448.923 547.416 455.234C546.057 461.544 561.552 469.568 582.026 473.156C602.499 476.743 620.198 474.535 621.557 468.224Z" fill="url(#paint12_linear_2890_4569)"/>
<path d="M489.448 446.934C505.421 448.148 518.678 445.091 519.058 440.107C519.438 435.124 506.798 430.1 490.826 428.886C474.853 427.673 461.596 430.73 461.216 435.713C460.835 440.697 473.475 445.721 489.448 446.934Z" fill="url(#paint13_linear_2890_4569)"/>
<path d="M569.392 423.792C585.365 425.005 598.622 421.948 599.002 416.965C599.383 411.981 586.743 406.957 570.77 405.744C554.797 404.531 541.54 407.587 541.16 412.571C540.779 417.554 553.42 422.578 569.392 423.792Z" fill="url(#paint14_linear_2890_4569)"/>
<path d="M364.404 224.124C367.415 213.294 366.066 203.682 361.391 202.655C356.717 201.628 350.487 209.575 347.476 220.405C344.465 231.234 345.814 240.846 350.489 241.873C355.163 242.9 361.394 234.953 364.404 224.124Z" fill="url(#paint15_linear_2890_4569)"/>
<path d="M387.537 155.817C391.255 142.444 389.532 130.563 383.688 129.279C377.845 127.995 370.094 137.796 366.376 151.169C362.658 164.542 364.382 176.423 370.225 177.707C376.068 178.991 383.819 169.191 387.537 155.817Z" fill="url(#paint16_linear_2890_4569)"/>
<path d="M145.795 494.794L142.353 494.339L141.393 496.31L142.964 500.856L146.355 501.165L147.315 499.193L145.795 494.794Z" fill="#D565A6"/>
<path d="M207.942 487.315C207.061 487.618 206.231 488.068 205.497 488.321C205.249 488.078 205.001 487.835 204.606 487.643C205.577 486.652 206.599 485.807 207.475 485.013C207.864 484.715 208.254 484.417 208.644 484.118C211.174 481.933 213.901 479.845 216.73 478.05C219.119 476.406 221.705 474.859 224.195 473.509C264.282 452.149 313.231 464.507 321.656 467.022C303.002 467.702 254.562 470.599 215.62 484.342C214.299 484.797 212.978 485.252 211.707 485.854L211.414 485.955C210.826 486.157 210.386 486.309 209.799 486.511L209.652 486.561C209.116 486.91 208.529 487.113 207.942 487.315Z" fill="#CA63A3"/>
<path d="M267.789 573.023C267.344 572.684 266.949 572.492 266.356 572.203C265.961 572.011 265.764 571.915 265.516 571.672C265.318 571.576 265.268 571.43 265.121 571.48C264.726 571.288 264.331 571.096 263.886 570.757C262.503 570.084 261.071 569.265 259.542 568.643C258.949 568.355 258.408 568.213 257.962 567.874C257.765 567.778 257.42 567.732 257.172 567.49C256.58 567.201 255.841 566.964 255.102 566.726C254.509 566.438 253.77 566.2 253.031 565.962C252.489 565.82 252.095 565.628 251.553 565.487C251.158 565.294 250.814 565.249 250.272 565.107C249.73 564.966 249.189 564.824 248.647 564.682C247.908 564.445 247.22 564.353 246.627 564.065L246.481 564.116C245.544 563.782 244.511 563.645 243.575 563.311C243.231 563.266 242.886 563.22 242.491 563.028C241.95 562.886 241.408 562.745 240.72 562.654C237.718 562.047 234.767 561.586 231.522 561.227C230.98 561.085 230.49 561.09 229.801 560.999C229.457 560.953 229.113 560.908 228.769 560.862C228.227 560.721 227.589 560.776 227.098 560.781C226.607 560.786 225.919 560.695 225.428 560.7C225.93 543.625 243.99 533.63 252.43 519.565C255.854 513.791 257.652 507.592 255.897 499.663C255.176 496.629 254.365 494.283 253.215 492.382C243.752 475.457 219.213 494.739 215.515 497.817C212.633 494.707 209.159 491.309 205.346 488.356C206.227 488.052 206.91 487.653 207.791 487.35C208.378 487.148 208.965 486.945 209.501 486.596L209.648 486.546C210.235 486.344 210.675 486.192 211.262 485.99L211.556 485.889C212.876 485.434 214.147 484.832 215.467 484.378C254.404 470.639 302.983 467.693 321.487 467.063C322.373 467.25 322.768 467.442 322.768 467.442C322.768 467.442 313.055 477.352 310.946 509.257C304.847 549.101 283.719 565.895 267.789 573.023Z" fill="url(#paint17_linear_2890_4569)"/>
<path d="M195.818 627.665C185.592 626.592 168.006 617.056 158.843 605.276C161.976 604.361 165.154 603.102 168.084 601.601C188.235 616.654 219.558 625.069 244.657 607.396C262.642 594.8 277.968 590.67 286.694 589.306C286.942 589.549 286.993 589.695 286.993 589.695C286.993 589.695 271.077 598.296 255.038 613.669C238.999 629.041 217.941 629.893 195.818 627.665Z" fill="url(#paint18_linear_2890_4569)"/>
<path d="M168.289 601.703C178.548 596.693 188.035 588.501 194.528 575.925C194.72 575.531 194.912 575.136 195.104 574.742C195.488 573.953 195.822 573.018 196.206 572.229C196.398 571.834 196.591 571.44 196.732 570.899C196.732 570.899 196.732 570.899 196.681 570.752C221.72 574.766 237.475 569.503 246.695 563.866L246.842 563.815C247.581 564.053 248.27 564.144 248.862 564.432C249.404 564.574 249.946 564.716 250.487 564.857C250.882 565.05 251.226 565.095 251.768 565.237C252.31 565.379 252.852 565.52 253.247 565.712C253.986 565.95 254.578 566.239 255.317 566.476C256.056 566.714 256.649 567.002 257.388 567.24C257.586 567.336 257.93 567.382 258.178 567.625C258.77 567.913 259.312 568.055 259.758 568.394C261.287 569.016 262.72 569.835 264.102 570.508C264.497 570.7 264.892 570.892 265.337 571.231C265.535 571.327 265.732 571.423 265.732 571.423C266.127 571.616 266.325 571.712 266.573 571.955C267.019 572.293 267.414 572.486 268.006 572.774C279.622 579.77 285.746 587.508 287.043 589.359C278.463 590.673 262.991 594.853 245.007 607.448C219.711 625.023 188.388 616.609 168.289 601.703Z" fill="url(#paint19_linear_2890_4569)"/>
<path d="M196.54 570.827C195.998 570.685 195.508 570.69 194.966 570.548C194.622 570.503 194.425 570.407 194.081 570.361C193.883 570.265 193.539 570.22 193.342 570.124C189.845 569.031 186.043 567.059 181.594 564.162C180.359 563.439 179.22 562.518 177.934 561.649C176.846 560.875 175.758 560.101 174.765 559.131C174.072 558.549 173.429 558.114 172.933 557.629C172.042 556.952 171.298 556.223 170.554 555.495C170.108 555.157 169.86 554.914 169.415 554.575C168.918 554.09 168.276 553.655 167.729 553.023C167.233 552.538 166.686 551.906 166.19 551.42C165.942 551.177 165.744 551.081 165.643 550.788C160.828 545.884 157.537 541.111 155.277 536.475C155.075 535.889 154.725 535.353 154.522 534.766C154.421 534.473 154.32 534.18 154.218 533.887C154.016 533.3 153.813 532.714 153.61 532.127L153.56 531.981C153.408 531.541 153.256 531.101 153.104 530.661C152.901 530.075 152.749 529.635 152.693 528.998C152.541 528.558 152.535 528.068 152.383 527.628C152.378 527.137 152.226 526.698 152.074 526.258C151.759 524.397 151.591 522.486 151.621 520.671C151.704 514.736 153.411 509.226 156.106 504.196C157.309 501.977 158.709 499.854 160.358 497.974C161.932 498.252 163.455 498.384 164.487 498.52C164.831 498.566 165.175 498.611 165.519 498.657C166.061 498.799 166.405 498.844 166.749 498.89C166.947 498.986 167.093 498.935 167.291 499.031C167.488 499.127 167.832 499.173 167.832 499.173C172.903 509.567 187.517 539.972 196.54 570.827Z" fill="#F171AB"/>
<path d="M163.494 494.619C163.98 494.123 164.465 493.628 164.951 493.133C166.312 491.844 167.576 490.752 168.988 489.609C169.524 489.26 170.156 488.714 170.693 488.366C171.082 488.067 171.618 487.719 172.008 487.42C172.155 487.37 172.104 487.223 172.251 487.173C172.64 486.874 173.177 486.526 173.617 486.374L173.764 486.324C174.3 485.975 174.689 485.676 175.276 485.474C175.666 485.176 176.106 485.024 176.496 484.726C176.789 484.625 177.032 484.377 177.325 484.276C178.595 483.675 179.719 483.124 180.842 482.573C182.456 482.017 183.777 481.562 185.001 481.304C188.382 480.633 192.021 481.184 195.62 482.57C198.677 483.814 201.593 485.599 204.464 487.728C205.435 486.737 206.457 485.893 207.332 485.099C207.722 484.801 208.111 484.503 208.501 484.205C211.03 482.021 213.757 479.933 216.585 478.139C219.847 452.895 215.668 407.078 177.121 392.952C130.293 375.771 136.269 365.509 137.433 364.124C119.375 383.142 110.506 407.363 111.601 431.434C111.612 432.415 111.769 433.345 111.78 434.326C111.831 434.473 111.831 434.473 111.881 434.619C111.937 435.256 111.993 435.893 112.049 436.53C112.1 436.677 112.004 436.874 112.055 437.021L112.105 437.168C112.212 437.951 112.319 438.735 112.476 439.665C112.577 439.958 112.532 440.302 112.633 440.595C112.785 441.035 112.791 441.526 112.745 441.87C112.801 442.507 112.953 442.946 113.009 443.584C113.009 443.584 113.009 443.584 113.06 443.73C113.161 444.023 113.167 444.514 113.268 444.807C113.37 445.1 113.375 445.591 113.476 445.884C113.476 445.884 113.476 445.884 113.527 446.031C113.634 446.814 113.887 447.547 113.994 448.331C114.247 449.064 114.303 449.701 114.557 450.434L114.607 450.581C114.861 451.314 114.917 451.951 115.17 452.684C115.322 453.124 115.474 453.564 115.626 454.004C115.829 454.591 116.032 455.177 116.184 455.617C117.755 460.162 119.817 464.703 122.122 468.995C122.573 469.825 123.024 470.654 123.526 471.63C123.576 471.776 123.627 471.923 123.627 471.923C124.078 472.752 124.675 473.531 125.126 474.36C125.228 474.653 125.476 474.896 125.577 475.189C125.927 475.725 126.276 476.261 126.626 476.797C131.265 483.568 136.881 489.838 143.524 495.754C144.268 496.482 145.109 497.013 145.853 497.741C146.491 497.686 147.179 497.777 147.817 497.721C148.454 497.666 149.143 497.757 149.78 497.701C152.286 497.823 154.447 497.899 156.461 498.026C157.64 498.112 158.82 498.198 159.852 498.334C160.287 497.692 160.919 497.146 161.354 496.504C162.427 495.807 162.912 495.311 163.494 494.619ZM172.016 424.738C175.316 425.734 175.983 432.888 173.563 440.613C171.142 448.338 166.489 453.879 163.336 452.832C163.138 452.736 162.991 452.787 162.941 452.64C159.979 451.199 159.561 444.287 161.789 436.957C164.062 429.282 168.715 423.741 172.016 424.738ZM141.396 462.521C137.175 462.662 132.264 457.955 129.882 451.063C127.246 443.439 128.735 435.87 133.137 434.354C137.539 432.838 143.337 437.733 146.023 445.504C148.71 453.275 147.17 460.697 142.768 462.213C142.327 462.365 141.887 462.516 141.396 462.521Z" fill="url(#paint20_linear_2890_4569)"/>
<path d="M216.594 478.126C219.854 452.884 215.676 407.07 177.133 392.944C130.31 375.765 136.286 365.503 137.449 364.118C137.596 364.067 137.545 363.92 137.545 363.92C134.263 378.177 165.076 367.564 202.183 394.161C231.869 415.439 227.508 456.975 224.055 473.587C221.566 474.936 219.128 476.432 216.594 478.126Z" fill="#F171AB"/>
<path d="M80.7754 525.741C81.2103 525.099 81.696 524.603 82.131 523.961C84.1189 521.636 86.3043 519.406 88.3936 517.374C87.0622 516.848 85.8775 516.271 84.5914 515.401C79.2497 511.826 76.6857 506.309 78.8605 503.099C81.0352 499.888 87.0788 500.268 92.4206 503.844C94.9927 505.583 96.9324 507.869 98.037 510.114C98.2798 509.866 98.7201 509.715 98.9629 509.467C99.2058 509.219 99.646 509.068 99.8889 508.82C100.572 508.421 101.255 508.021 102.085 507.571C102.474 507.273 102.915 507.121 103.208 507.02C103.745 506.672 104.478 506.419 105.015 506.07C105.308 505.969 105.455 505.918 105.698 505.671C107.261 504.968 108.972 504.215 110.535 503.512C110.829 503.411 111.269 503.259 111.563 503.158C113.177 502.602 114.791 502.046 116.406 501.49C116.993 501.288 117.58 501.086 118.167 500.884C119.194 500.53 120.272 500.323 121.153 500.02C122.084 499.863 122.818 499.61 123.602 499.504C126.639 498.787 129.63 498.413 132.474 498.09C132.965 498.085 133.405 497.933 133.896 497.928C134.681 497.822 135.319 497.766 136.103 497.66C136.887 497.554 137.723 497.595 138.507 497.489C138.654 497.438 138.654 497.438 138.801 497.388C139.438 497.332 139.929 497.327 140.567 497.271C140.714 497.221 140.714 497.221 140.714 497.221C141.498 497.115 142.187 497.206 142.971 497.1C143.209 496.362 143.497 495.77 143.588 495.082C136.797 489.216 131.181 482.946 126.688 476.124C126.338 475.588 125.988 475.052 125.69 474.663C125.442 474.42 125.34 474.127 125.239 473.833C124.54 472.761 123.79 471.543 123.091 470.471C122.691 469.788 122.341 469.252 121.941 468.569C119.585 464.13 117.573 459.735 116.002 455.19C115.799 454.603 115.596 454.017 115.444 453.577C115.292 453.137 115.14 452.697 114.988 452.257C114.735 451.524 114.532 450.937 114.425 450.153L114.374 450.007C114.121 449.273 114.065 448.636 113.812 447.903C113.558 447.17 113.451 446.386 113.345 445.602C113.345 445.602 113.345 445.602 113.294 445.456C109.372 445.986 103.734 446.779 98.1008 448.063C101.249 448.62 105.401 451.128 109.174 454.916C113.939 459.674 116.599 464.994 115.993 467.992C115.903 468.68 115.614 469.271 115.276 469.716C112.847 472.194 106.139 469.417 100.382 463.687C94.8211 458.054 92.1504 451.753 94.037 449.134C88.5056 450.711 83.0303 452.925 78.937 455.812C65.7821 465.265 45.4233 462.431 45.4233 462.431C61.9926 478.057 48.0029 478.445 58.451 500.118C63.3709 510.074 70.6949 519.859 79.2677 527.081C79.8548 526.879 80.2897 526.236 80.7754 525.741ZM86.9459 488.006C79.6403 484.451 74.7736 479.399 76.1185 476.638C77.4634 473.878 84.4436 474.592 91.7492 478.147C99.0041 481.556 103.871 486.608 102.673 489.318C102.673 489.318 102.673 489.318 102.577 489.515C101.232 492.276 94.2515 491.562 86.9459 488.006Z" fill="url(#paint21_linear_2890_4569)"/>
<path d="M45.5799 462.89C67.9984 428.903 95.6383 428.082 111.586 431.453C111.597 432.434 111.755 433.365 111.765 434.346C111.816 434.493 111.816 434.493 111.867 434.639C111.923 435.277 111.979 435.914 112.035 436.551C112.085 436.698 111.989 436.895 112.04 437.042L112.091 437.189C112.197 437.973 112.304 438.757 112.461 439.687C102.053 439.99 77.2903 443.431 45.5799 462.89Z" fill="#D678A3"/>
<path d="M158.854 605.319C143.44 610.136 127.419 608.925 117.512 605.445C107.554 601.818 89.1536 598.474 74.2967 595.878C66.292 591.25 61.4653 585.364 58.4664 580.489C64.9428 566.444 69.3917 546.532 69.3917 546.532C72.111 539.196 75.6253 532.734 79.5452 527.446C79.9802 526.804 80.4659 526.308 80.9008 525.666C81.3358 525.024 81.8214 524.529 82.2563 523.887C84.2443 521.561 86.4297 519.331 88.5191 517.299C92.316 518.781 95.8488 518.549 97.7914 516.567C97.8875 516.37 98.1303 516.122 98.2264 515.925C99.2884 514.246 99.2164 512.138 98.1119 509.893C98.3547 509.645 98.795 509.493 99.0378 509.245C99.2806 508.998 99.7209 508.846 99.9637 508.598C100.647 508.199 101.33 507.8 102.16 507.35C102.549 507.051 102.99 506.9 103.283 506.799C103.819 506.45 104.553 506.197 105.09 505.848C105.383 505.747 105.53 505.697 105.773 505.449C107.336 504.746 109.047 503.993 110.61 503.291C110.904 503.189 111.344 503.038 111.638 502.937C113.252 502.381 114.866 501.825 116.481 501.269C117.068 501.067 117.655 500.864 118.242 500.662C119.269 500.308 120.347 500.101 121.228 499.798C122.159 499.641 122.893 499.389 123.677 499.282C126.714 498.565 129.705 498.191 132.549 497.868C133.04 497.863 133.48 497.711 133.971 497.706C134.756 497.6 135.394 497.545 136.178 497.439C136.963 497.332 137.798 497.373 138.582 497.267C138.729 497.216 138.729 497.216 138.876 497.166C139.514 497.11 140.004 497.105 140.642 497.05C140.789 496.999 140.789 496.999 140.789 496.999C141.573 496.893 142.262 496.984 143.046 496.878C144.028 496.868 145.01 496.858 145.992 496.848C149.92 496.808 153.605 497.016 156.652 497.279C157.831 497.365 159.011 497.452 160.043 497.588C159.558 498.084 159.219 498.529 158.784 499.171C157.671 500.703 156.705 502.184 155.79 503.812C153.044 508.696 151.336 514.207 151.304 520.29C135.147 520.111 103.504 522.64 100.088 542.688C99.6741 545.292 99.4072 547.846 99.5298 550.101C99.5163 553.388 100.039 556.325 101.098 558.914C106.056 572.304 122.532 574.835 137.734 568.45C151.027 562.723 170.18 563.019 181.579 563.688C185.832 566.49 189.781 568.412 193.33 569.651C193.528 569.747 193.872 569.792 194.069 569.889C194.413 569.934 194.611 570.03 194.955 570.076C195.497 570.217 196.038 570.359 196.58 570.501C196.388 570.895 196.196 571.289 196.054 571.83C195.67 572.619 195.336 573.555 194.952 574.343C194.76 574.738 194.568 575.132 194.376 575.526C187.833 587.954 178.544 596.24 168.14 601.3C165.165 603.146 162.134 604.354 158.854 605.319Z" fill="url(#paint22_linear_2890_4569)"/>
<path d="M79.096 456.264C65.9385 465.722 45.5758 462.886 45.5758 462.886C77.287 443.425 101.904 440.034 112.459 439.681C112.56 439.975 112.515 440.319 112.616 440.612C112.769 441.052 112.774 441.543 112.729 441.887C112.785 442.524 112.937 442.964 112.993 443.602C112.993 443.602 112.993 443.602 113.043 443.748C113.145 444.042 113.15 444.533 113.251 444.826C113.353 445.119 113.358 445.61 113.46 445.903C109.536 446.434 103.897 447.228 98.2634 448.512C96.6889 448.233 95.2664 448.395 94.4417 449.336C94.2949 449.386 94.3456 449.533 94.1989 449.584C88.6664 451.161 83.19 453.376 79.096 456.264Z" fill="#D678A3"/>
<path d="M225.414 560.71C222.761 560.639 219.962 560.618 217.016 560.648C216.379 560.704 215.543 560.663 214.906 560.719C213.817 559.945 212.779 559.318 211.69 558.544C210.22 554.291 209.964 548.8 212.097 541.665C213.426 537.433 214.365 533.499 214.864 529.717C225.41 524.115 240.993 521.21 252.27 519.623C243.976 533.639 225.916 543.634 225.414 560.71Z" fill="#F171AB"/>
<path d="M215.02 529.673C216.317 522.498 216.643 516.313 216.539 511.261C228.612 501.523 243.622 495.533 253.36 492.343C254.51 494.244 255.371 496.738 256.041 499.625C257.746 507.408 255.998 513.754 252.574 519.529C241.15 521.166 225.566 524.072 215.02 529.673Z" fill="#F171AB"/>
<path d="M216.595 511.413C216.505 503.074 215.176 498.279 215.176 498.279C215.176 498.279 215.323 498.229 215.712 497.93C219.315 495.048 243.805 475.616 253.417 492.494C243.628 495.537 228.617 501.528 216.595 511.413Z" fill="#EE73AC"/>
<path d="M211.841 558.496C209.219 556.61 206.744 554.673 204.364 552.54C206.488 540.159 207.161 529.755 207.014 520.782C206.412 501.465 201.376 489.746 195.751 482.496C198.808 483.74 201.723 485.525 204.593 487.653C204.842 487.896 205.236 488.088 205.484 488.331C209.296 491.284 212.769 494.681 215.65 497.791C215.407 498.039 215.114 498.14 215.114 498.14C215.114 498.14 216.295 502.983 216.533 511.269C216.586 516.172 216.311 522.502 215.014 529.675C214.318 533.361 213.429 537.44 212.247 541.621C210.116 548.754 210.371 554.244 211.841 558.496Z" fill="#CC61A5"/>
<path d="M204.212 552.6C201.438 550.274 198.855 547.554 196.617 544.879C194.472 537.25 190.956 529.928 186.96 523.593C184.413 519.548 181.82 515.847 179.379 512.586C173.155 504.557 167.945 499.46 167.945 499.46C167.945 499.46 167.945 499.46 167.798 499.511C167.651 499.561 167.454 499.465 167.257 499.369C167.059 499.273 166.912 499.323 166.715 499.227C166.371 499.182 166.027 499.136 165.485 498.995C165.141 498.949 164.797 498.903 164.453 498.858C163.274 498.772 161.846 498.443 160.323 498.311C167.879 488.818 178.417 482.727 185.03 481.434C188.411 480.762 192.049 481.313 195.648 482.699C201.077 489.853 206.311 501.669 206.913 520.987C207.156 529.764 206.336 540.219 204.212 552.6Z" fill="#CC61A5"/>
<path d="M214.898 560.723C214.261 560.778 213.426 560.738 212.788 560.793C208.274 561.035 203.42 561.722 198.42 562.46C198.994 556.519 198.242 550.543 196.706 544.673C198.944 547.348 201.476 549.922 204.301 552.394C206.681 554.528 209.157 556.465 211.779 558.351C212.772 559.322 213.81 559.949 214.898 560.723Z" fill="#CC61A5"/>
<path d="M165.541 551C150.042 552.727 118.053 555.211 99.5908 550.739C99.6149 548.433 99.7351 545.93 100.149 543.326C103.565 523.276 135.261 520.894 151.367 520.926C151.338 522.741 151.506 524.653 151.821 526.514C151.826 527.004 151.978 527.444 152.13 527.884C152.282 528.324 152.287 528.815 152.44 529.255C152.592 529.695 152.648 530.332 152.85 530.918C153.002 531.358 153.155 531.798 153.307 532.238L153.357 532.385C153.56 532.971 153.763 533.558 153.966 534.145C154.067 534.438 154.168 534.731 154.27 535.024C154.473 535.611 154.822 536.147 155.025 536.734C157.432 541.32 160.724 546.094 165.541 551Z" fill="#D460A4"/>
<path d="M174.76 559.145C165.082 558.703 144.454 558.423 132.272 562.618C120.824 566.562 109.048 562.904 101.104 559.403C100.242 556.91 99.5722 554.022 99.535 550.589C117.998 555.061 149.989 552.577 165.488 550.85C165.736 551.093 165.933 551.189 166.035 551.482C166.531 551.968 167.027 552.453 167.574 553.085C168.071 553.571 168.567 554.056 169.261 554.638C169.706 554.977 169.955 555.22 170.4 555.559C171.145 556.287 172.036 556.965 172.78 557.693C173.474 558.275 174.117 558.71 174.76 559.145Z" fill="#D460A4"/>
<path d="M137.74 568.934C122.587 575.466 106.109 572.935 101.101 559.397C109.045 562.897 120.821 566.555 132.269 562.612C144.305 558.467 165.08 558.697 174.758 559.138C175.7 559.962 176.789 560.736 177.929 561.657C179.215 562.527 180.354 563.447 181.59 564.171C170.19 563.502 151.035 563.206 137.74 568.934Z" fill="#D460A4"/>
<path d="M196.542 570.814C197.396 568.058 198.103 565.352 198.269 562.505C203.219 561.62 208.124 561.08 212.639 560.838C213.424 560.732 214.061 560.676 214.75 560.767C215.534 560.661 216.223 560.752 216.861 560.697C219.756 560.52 222.606 560.687 225.259 560.759C225.75 560.754 226.438 560.845 226.929 560.84C227.42 560.835 228.109 560.926 228.6 560.921C228.944 560.966 229.288 561.012 229.633 561.057C230.124 561.052 230.812 561.144 231.354 561.285C234.599 561.645 237.697 562.055 240.552 562.713C241.094 562.854 241.783 562.945 242.324 563.087C242.669 563.133 243.013 563.178 243.408 563.37C244.345 563.704 245.377 563.841 246.314 564.175C237.337 569.565 221.728 574.777 196.542 570.814Z" fill="#F7ADC5"/>
<path d="M173.115 504.907C170.566 469.036 156.351 470.652 163.02 451.949" stroke="black" stroke-width="1.10879" stroke-miterlimit="10"/>
<path d="M166.664 499.094C146.166 469.239 140.852 477.14 141.33 462.374" stroke="black" stroke-width="1.10879" stroke-miterlimit="10"/>
<path d="M159.592 499.075C139.742 479.658 116.051 468.127 116.051 468.127" stroke="black" stroke-width="1.10879" stroke-miterlimit="10"/>
<path d="M102.031 489.36C118.897 491.592 133.027 508.714 150.141 520.214C150.536 520.407 150.247 520.998 149.903 520.953C111.617 517.565 112.34 525.357 97.3178 516.582" stroke="black" stroke-width="1.10879" stroke-miterlimit="10"/>
<path d="M163.238 453.024C163.041 452.928 162.894 452.979 162.843 452.832C159.882 451.391 159.463 444.479 161.691 437.148C164.112 429.423 168.765 423.882 171.919 424.929C175.219 425.926 175.886 433.08 173.466 440.805C171.045 448.531 166.539 454.021 163.238 453.024Z" fill="#F4F197"/>
<path d="M142.756 462.216C142.316 462.368 141.875 462.519 141.385 462.524C137.164 462.665 132.253 457.958 129.87 451.066C127.235 443.442 128.724 435.874 133.126 434.358C137.528 432.842 143.325 437.736 146.011 445.507C148.697 453.278 147.305 460.649 142.756 462.216Z" fill="#E4AC72"/>
<path d="M100.543 464.126C94.9833 458.494 92.313 452.194 94.1993 449.575C94.2954 449.378 94.2954 449.378 94.4421 449.327C95.3172 448.534 96.5418 448.276 98.2626 448.504C101.411 449.06 105.562 451.569 109.334 455.356C114.099 460.114 116.759 465.433 116.153 468.431C116.062 469.118 115.774 469.71 115.435 470.155C112.957 472.485 106.3 469.855 100.543 464.126Z" fill="#E4AC72"/>
<path d="M86.9453 488.007C79.6399 484.452 74.7733 479.4 76.1181 476.639C77.463 473.879 84.443 474.593 91.7484 478.148C99.0031 481.557 103.87 486.609 102.672 489.319C102.672 489.319 102.672 489.319 102.575 489.516C101.231 492.276 94.2507 491.562 86.9453 488.007Z" fill="#F4F197"/>
<path d="M88.384 517.37C87.0526 516.844 85.868 516.268 84.582 515.398C79.2406 511.822 76.6767 506.306 78.8514 503.096C81.026 499.885 87.0693 500.265 92.4107 503.841C94.9827 505.58 96.9223 507.866 98.0269 510.111C99.1314 512.356 99.254 514.611 98.1414 516.143C98.0453 516.34 97.8025 516.588 97.7065 516.785C95.8601 518.569 92.3274 518.801 88.384 517.37Z" fill="#F4F197"/>
<path d="M196.545 570.819C187.524 539.967 172.913 509.564 167.747 499.367L167.894 499.316C167.894 499.316 173.249 504.362 179.324 512.441C181.764 515.702 184.357 519.403 186.903 523.447C190.752 529.832 194.413 537.102 196.557 544.73C198.24 550.549 198.845 556.574 198.271 562.514C198.106 565.36 197.596 568.161 196.545 570.819Z" fill="#E873AC"/>
<path d="M454.364 555.414C452.25 544.684 444.879 534.711 437.203 527.2C433.713 523.8 429.895 520.516 426.442 516.808C425.613 515.925 419.864 509.277 418.512 506.297C417.746 509.953 415.327 515.592 409.733 524.121C396.297 544.182 377.005 549.613 374.584 567.908C374.545 568.216 374.507 568.524 374.45 568.986C387.245 573.066 395.419 592.982 399.811 608.056C401.91 607.534 403.797 607.455 405.03 607.607C407.361 607.739 408.537 608.353 408.537 608.353C408.537 608.353 409.964 609.466 411.757 611.407C412.452 612.117 413.127 612.982 413.783 614.001C415.52 616.403 417.026 619.401 417.243 622.709C417.397 622.728 417.551 622.747 417.705 622.767C418.013 622.805 418.167 622.824 418.321 622.843C418.784 622.9 419.246 622.957 419.728 622.86C423.927 623.066 426.874 623.274 426.874 623.274C426.874 623.274 427.412 622.715 428.316 621.733C428.489 621.598 428.489 621.598 428.663 621.463C428.855 621.174 429.201 620.905 429.393 620.616C429.567 620.481 429.759 620.192 429.932 620.057C430.124 619.768 430.471 619.499 430.663 619.21C430.855 618.921 431.028 618.786 431.22 618.498C431.413 618.209 431.605 617.92 431.951 617.65C432.143 617.361 432.336 617.073 432.682 616.803C432.874 616.514 433.22 616.244 433.413 615.956C434.143 615.108 434.72 614.242 435.451 613.395C433.64 612.858 432.194 611.899 431.595 610.418C431.46 610.245 431.479 610.091 431.344 609.919C431.363 609.765 431.228 609.592 431.247 609.438C431.266 609.284 431.285 609.13 431.15 608.957C431.169 608.803 431.188 608.649 431.207 608.495C431.226 608.341 431.226 608.341 431.245 608.188C431.626 605.109 434.896 601.45 439.516 599.521C441.498 598.672 443.424 598.284 445.33 598.051C445.561 597.454 445.926 597.031 446.156 596.434C446.368 595.991 446.598 595.395 446.963 594.971C447.156 594.682 447.194 594.375 447.386 594.086C447.616 593.489 448.001 592.912 448.25 592.161C448.654 591.43 448.903 590.679 449.152 589.929C449.402 589.178 449.805 588.447 450.036 587.85C450.534 586.349 451.187 584.867 451.513 583.501C451.743 582.905 451.819 582.289 452.05 581.692C452.069 581.538 452.088 581.384 452.107 581.231C452.145 580.923 452.356 580.48 452.413 580.018L452.432 579.864C452.644 579.422 452.72 578.806 452.777 578.344C452.796 578.191 452.834 577.883 452.872 577.575C452.968 576.805 453.217 576.055 453.312 575.285C455.229 568.647 455.605 561.818 454.364 555.414ZM408.049 589.541C407.895 589.522 407.895 589.522 407.741 589.503C403.618 588.682 401.163 581.972 402.154 573.969C403.145 565.966 407.354 559.766 411.67 560.299C415.985 560.832 418.575 567.715 417.565 575.872C416.555 584.029 412.364 590.074 408.049 589.541ZM435.897 587.042C432.111 593.606 426.608 597.614 423.14 596.561C422.986 596.542 422.697 596.35 422.543 596.331C422.543 596.331 422.543 596.331 422.388 596.312C419.034 594.335 419.622 587.064 423.773 580.076C427.924 573.088 433.927 568.829 437.281 570.806C440.635 572.783 440.048 580.054 435.897 587.042Z" fill="url(#paint23_linear_2890_4569)"/>
<path d="M409.888 524.139C396.451 544.2 377.159 549.631 374.738 567.927C374.7 568.235 374.662 568.543 374.604 569.004C371.598 568.008 368.324 567.916 364.897 569.056C364.701 566.844 364.66 564.651 364.734 562.785C364.792 562.324 364.868 561.708 364.925 561.246C366.487 548.626 376.955 541.168 386.692 534.557C398.662 526.347 408.259 515.813 418.145 505.47C418.164 505.317 418.299 505.489 418.453 505.508C418.415 505.816 418.55 505.989 418.801 506.489C417.9 509.972 415.635 515.63 409.888 524.139Z" fill="#F172AC"/>
<path d="M364.917 568.902C363.299 569.327 361.798 570.079 360.123 570.966C358.276 571.988 356.736 573.048 355.505 574.146C330.507 561.215 315.497 571.237 303.464 574.908C295.011 577.458 288.113 575.044 283.891 572.491C303.654 573.369 301.507 566.697 329.321 553.099C348.319 543.726 359.599 553.713 364.81 560.919C364.752 561.381 364.695 561.843 364.619 562.458C364.66 564.651 364.721 566.69 364.917 568.902Z" fill="#CE3992"/>
<path d="M358.786 665.18C358.594 665.469 358.42 665.603 358.228 665.892C357.555 666.278 356.9 666.509 356.226 666.895C356.226 666.895 356.226 666.895 356.053 667.03C355.399 667.262 354.744 667.493 354.07 667.879C353.416 668.111 352.761 668.342 352.107 668.574C352.107 668.574 351.953 668.555 351.934 668.709C351.934 668.709 351.934 668.709 351.78 668.69C351.125 668.922 350.47 669.153 349.816 669.385C349.007 669.598 348.353 669.829 347.544 670.042C347.063 670.139 346.408 670.371 345.927 670.467C345.927 670.467 345.927 670.467 345.773 670.448C345.599 670.583 345.291 670.545 344.964 670.661C344.309 670.893 343.674 670.97 342.884 671.029C342.557 671.145 342.076 671.242 341.767 671.204C341.44 671.32 340.978 671.263 340.65 671.378C339.861 671.437 339.225 671.515 338.417 671.728C304.503 675.197 293.774 645.589 291.033 627.281C298.082 641.121 315.345 659.66 358.786 665.18Z" fill="#D565A6"/>
<path d="M375.24 654.868C374.375 655.542 373.49 656.37 372.624 657.045C371.931 657.584 371.412 657.989 370.719 658.528C370.2 658.933 369.68 659.338 369.006 659.723C368.66 659.993 368.333 660.109 368.141 660.398C367.948 660.686 367.621 660.802 367.275 661.072C366.601 661.458 366.082 661.862 365.408 662.248C364.889 662.653 364.234 662.884 363.714 663.289C363.541 663.424 363.541 663.424 363.368 663.559C363.368 663.559 363.368 663.559 363.214 663.54C362.714 663.79 362.04 664.176 361.54 664.427C361.385 664.408 361.366 664.562 361.212 664.543C360.712 664.793 360.038 665.179 359.538 665.43C359.191 665.699 358.71 665.796 358.21 666.047C358.402 665.758 358.575 665.623 358.767 665.334C315.327 659.814 298.063 641.276 291.207 627.147C290.605 623.166 290.407 619.704 290.558 617.223C290.732 603.181 300.724 585.664 283.564 572.607C283.718 572.626 283.872 572.645 284.027 572.664C288.248 575.217 295.147 577.631 303.599 575.081C315.632 571.41 330.796 561.407 355.64 574.319C340.828 587.803 364.027 608.95 384.168 619.406C367.107 621.987 345.541 626.824 344.455 635.597C344.226 637.444 344.479 639.194 345.213 640.847C348.962 649.748 365.168 655.343 375.24 654.868Z" fill="url(#paint24_linear_2890_4569)"/>
<path d="M536.916 597.637C536.82 598.406 536.59 599.003 536.514 599.619C529.991 604.282 520.929 611.758 513.642 621.327C502.048 636.615 484.898 644.967 466.29 643.607C467.212 641.221 466.476 638.317 463.39 635.436C455.309 627.407 434.658 624.857 420.636 624.375C419.538 624.396 418.613 624.282 417.669 624.322C417.727 623.86 417.803 623.244 417.706 622.764C417.86 622.783 418.014 622.802 418.168 622.821C418.476 622.859 418.631 622.878 418.785 622.897C419.247 622.954 419.709 623.011 420.191 622.914C424.39 623.12 427.337 623.328 427.337 623.328C427.337 623.328 427.876 622.769 428.779 621.787C428.953 621.652 428.953 621.652 429.126 621.517C429.318 621.228 429.664 620.959 429.857 620.67C430.03 620.535 430.222 620.246 430.395 620.111C430.587 619.823 430.934 619.553 431.126 619.264C431.318 618.975 431.491 618.84 431.684 618.552C431.876 618.263 432.068 617.974 432.414 617.704C432.607 617.415 432.799 617.127 433.145 616.857C433.337 616.568 433.684 616.298 433.876 616.01C434.607 615.162 435.183 614.296 435.914 613.449C438.496 614.08 441.962 613.883 445.447 612.282C451.395 609.735 454.971 604.864 453.367 601.384C452.401 599.077 449.414 597.927 445.639 598.086C445.87 597.49 446.235 597.066 446.465 596.469C446.677 596.027 446.907 595.43 447.272 595.006C447.465 594.718 447.503 594.41 447.695 594.121C447.925 593.524 448.31 592.947 448.559 592.196C448.963 591.465 449.212 590.714 449.461 589.964C449.711 589.213 450.114 588.482 450.345 587.885C450.843 586.384 451.496 584.902 451.822 583.536C452.052 582.94 452.128 582.324 452.359 581.727C452.378 581.573 452.397 581.42 452.416 581.266C452.454 580.958 452.665 580.515 452.722 580.053L452.741 579.9C452.953 579.457 453.029 578.841 453.086 578.38C453.105 578.226 453.143 577.918 453.181 577.61C453.277 576.84 453.526 576.09 453.621 575.32C458.837 572.37 466.423 570.495 476.903 571.788C505.298 574.982 521.123 598.812 536.916 597.637Z" fill="url(#paint25_linear_2890_4569)"/>
<path d="M536.514 599.621C528.931 633.062 516.657 643.734 494.61 648.669C492.993 649.094 491.086 649.328 489.161 649.715C480.861 651.034 470.191 651.279 459.73 649.831C459.268 649.774 458.652 649.698 458.189 649.641L458.035 649.622C457.573 649.565 457.265 649.527 456.802 649.47C461.597 648.655 465.138 646.592 466.117 643.744C484.879 645.123 501.875 636.753 513.468 621.465C520.948 611.606 529.99 604.285 536.514 599.621Z" fill="#CE3992"/>
<path d="M527.058 715.177C523.687 714.605 517.858 719.979 514.971 721.81C509.679 725.376 504.233 728.922 498.207 730.835C478.666 737.016 450.862 729.052 438.031 712.623C437.626 712.104 437.24 711.431 436.681 710.893C436.276 710.375 435.87 709.856 435.484 709.183C434.037 706.973 432.743 704.782 431.623 702.456C431.372 701.956 431.121 701.456 430.87 700.957C430.619 700.457 430.368 699.957 430.117 699.457C429.866 698.958 429.769 698.477 429.499 698.131C429.248 697.631 429.016 696.978 428.919 696.497C428.668 695.997 428.571 695.516 428.32 695.016C428.069 694.517 427.972 694.036 427.894 693.401C427.546 692.421 427.371 691.305 427.023 690.325C426.926 689.844 426.829 689.363 426.597 688.71C426.287 687.421 426.112 686.306 425.956 685.037C425.859 684.556 425.782 683.921 425.685 683.441C425.704 683.287 425.704 683.287 425.569 683.114C425.491 682.479 425.394 681.998 425.316 681.364C425.354 681.056 425.219 680.883 425.257 680.575C425.276 680.421 425.16 680.094 425.179 679.94C425.68 679.69 426.007 679.574 426.507 679.323C434.014 675.562 439.419 669.823 439.005 663.053C438.631 657.225 434.831 652.537 429.913 648.023C423.723 642.415 416.204 637.424 412.037 631.909C412.364 631.793 412.537 631.658 412.864 631.542C416.026 633.808 419.901 636.63 424.644 640.029C427.092 641.737 429.56 643.292 431.911 644.52C441.047 649.086 449.986 650.189 456.379 649.103C456.841 649.161 457.149 649.199 457.612 649.256L457.766 649.275C458.228 649.332 458.845 649.408 459.307 649.465C470.834 656.201 488.535 671.2 508.013 703.45C512.935 711.715 519.122 714.822 525.921 714.256C526.634 714.812 526.769 714.985 527.058 715.177Z" fill="url(#paint26_linear_2890_4569)"/>
<path d="M526.344 714.621C519.546 715.188 513.378 711.926 508.436 703.816C488.959 671.565 471.238 656.72 459.73 649.83C470.191 651.278 480.726 650.86 489.161 649.714C496.35 653.571 503.119 659.563 507.735 669.04C512.602 679.016 515.928 688.802 517.695 699.802C518.609 706.322 521.561 710.28 526.344 714.621Z" fill="#B26D96"/>
<path d="M373.527 755.911C373.47 756.373 373.008 756.316 372.737 755.97C359.369 726.193 335.548 744.19 331.162 705.053C329.506 690.629 333.825 679.756 340.113 671.938C340.459 671.668 341.113 671.436 341.46 671.166C341.941 671.07 342.423 670.973 342.904 670.876C343.539 670.798 344.348 670.586 344.984 670.508C345.292 670.546 345.465 670.411 345.792 670.295C345.792 670.295 345.792 670.295 345.946 670.314C346.582 670.236 347.082 669.986 347.564 669.889C348.372 669.676 349.027 669.444 349.836 669.232C350.49 669 351.145 668.768 351.799 668.537C351.799 668.537 351.799 668.537 351.953 668.556C351.953 668.556 352.107 668.575 352.127 668.421C352.781 668.189 353.436 667.957 354.09 667.726C354.745 667.494 355.399 667.262 356.073 666.877C356.073 666.877 356.073 666.877 356.246 666.742C356.901 666.51 357.574 666.125 358.248 665.739C352.384 673.922 346.623 686.336 352.168 699.678C361.444 722.074 375.379 743.483 373.527 755.911Z" fill="#BC5C95"/>
<path d="M429.807 698.171C426.989 708.292 420.102 728.536 408.633 736.496C408.132 736.747 407.613 737.151 407.267 737.421C406.766 737.672 406.247 738.076 405.746 738.327C404.053 739.368 402.359 740.409 400.82 741.469C399.646 742.105 398.626 742.761 397.452 743.397C396.778 743.783 396.104 744.168 395.431 744.554C393.064 745.98 390.716 747.253 388.386 748.372C386.866 749.278 385.365 750.03 383.863 750.782C379.668 753.077 376.473 754.87 374.76 756.065C374.414 756.334 374.067 756.604 373.875 756.893C373.567 756.855 373.394 756.99 373.086 756.952C373.124 756.644 373.162 756.336 373.2 756.028C373.916 743.929 362.197 723.574 353 701.813C352.614 701.14 352.401 700.332 352.015 699.66C346.469 686.318 352.23 673.904 358.094 665.721C358.594 665.47 358.922 665.354 359.422 665.104C359.923 664.853 360.577 664.621 361.097 664.217C361.251 664.236 361.27 664.082 361.424 664.101C362.078 663.869 362.598 663.464 363.098 663.214C363.098 663.214 363.098 663.214 363.252 663.233C363.407 663.252 363.426 663.098 363.599 662.963C364.099 662.712 364.773 662.327 365.292 661.922C365.966 661.536 366.485 661.132 367.159 660.746C367.505 660.476 367.833 660.361 368.025 660.072C368.217 659.783 368.544 659.667 368.891 659.397C369.41 658.993 369.93 658.588 370.603 658.203C371.277 657.817 371.816 657.258 372.508 656.719C373.374 656.045 374.24 655.37 375.125 654.542C377.648 654.385 379.746 653.862 381.267 652.956C386.347 649.834 394.035 637.032 399.28 627.523C398.615 634.16 396.931 642.702 392.817 648.132C385.318 658.144 382.088 676.653 396.715 682.365C404.481 685.356 416.228 683.993 425.352 679.807C425.333 679.961 425.449 680.288 425.43 680.442C425.392 680.75 425.527 680.923 425.489 681.23C425.567 681.865 425.664 682.346 425.742 682.98C425.723 683.134 425.723 683.134 425.858 683.307C425.955 683.788 426.033 684.423 426.129 684.903C426.285 686.173 426.614 687.307 426.77 688.576C426.867 689.057 426.964 689.538 427.196 690.192C427.39 691.153 427.719 692.288 428.067 693.268C428.164 693.749 428.415 694.249 428.493 694.883C428.59 695.364 428.841 695.864 429.092 696.364C429.324 697.017 429.556 697.671 429.807 698.171Z" fill="url(#paint27_linear_2890_4569)"/>
<path d="M438.031 712.623C427.43 736.316 405.554 753.772 375.126 756.89C374.818 756.852 374.548 756.506 374.894 756.237C376.607 755.042 379.802 753.249 383.998 750.954C385.345 750.183 386.846 749.431 388.521 748.544C390.696 747.406 393.044 746.133 395.565 744.726C396.239 744.34 396.912 743.954 397.586 743.569C398.606 742.913 399.78 742.277 400.954 741.641C402.648 740.6 404.341 739.559 405.881 738.499C406.381 738.248 406.9 737.844 407.401 737.593C407.901 737.342 408.421 736.937 408.767 736.668C420.217 728.862 427.123 708.464 429.941 698.342C430.192 698.842 430.289 699.323 430.559 699.669C430.81 700.169 431.061 700.668 431.312 701.168C431.564 701.668 431.815 702.168 432.066 702.668C433.186 704.993 434.479 707.185 435.927 709.395C436.332 709.913 436.718 710.586 437.123 711.105C437.22 711.586 437.625 712.104 438.031 712.623Z" fill="#C567A0"/>
<path d="M374.739 567.928C374.72 568.082 374.72 568.082 374.701 568.236" stroke="black" stroke-width="1.10879" stroke-miterlimit="10"/>
<path d="M374.738 567.926C374.776 567.618 374.814 567.311 374.814 567.311" stroke="black" stroke-width="1.10879" stroke-miterlimit="10"/>
<path d="M399.966 608.073C397.867 608.596 395.422 609.387 392.747 610.776C390.726 611.933 390.17 613.895 390.674 616.145C387.569 613.418 384.406 609.902 381.183 605.598C380.778 605.079 380.508 604.733 380.103 604.214C379.042 602.677 377.98 601.14 376.919 599.602C376.533 598.93 376.147 598.257 375.606 597.565C375.22 596.892 374.834 596.22 374.448 595.547C374.062 594.874 373.676 594.202 373.309 593.375L373.174 593.202C372.787 592.529 372.555 591.876 372.15 591.357C371.783 590.53 371.416 589.704 371.049 588.877C370.663 588.204 370.431 587.551 370.199 586.897C369.581 585.571 368.982 584.09 368.518 582.783C368.537 582.629 368.402 582.456 368.402 582.456C367.803 580.976 367.377 579.361 366.932 577.899C366.835 577.419 366.738 576.938 366.487 576.438L366.506 576.284C366.409 575.803 366.312 575.323 366.196 574.996C366.08 574.669 365.983 574.188 366.021 573.88C365.924 573.4 365.846 572.765 365.768 572.13C365.691 571.496 365.613 570.861 365.535 570.226C365.419 569.9 365.476 569.438 365.36 569.111C368.768 568.126 372.042 568.217 375.067 569.06C387.419 572.929 395.574 592.999 399.966 608.073Z" fill="#BC5C95"/>
<path d="M391.486 618.434C389.098 618.764 386.71 619.094 384.168 619.406C364.046 608.796 340.827 587.803 355.64 574.318C356.871 573.22 358.411 572.16 360.258 571.138C361.933 570.251 363.588 569.518 365.052 569.074C365.013 569.382 365.11 569.862 365.226 570.189C365.304 570.824 365.382 571.459 365.46 572.093C365.538 572.728 365.635 573.209 365.713 573.843C365.829 574.17 365.926 574.651 365.888 574.959C365.985 575.439 366.082 575.92 366.198 576.247L366.179 576.401C366.275 576.882 366.372 577.362 366.623 577.862C367.068 579.324 367.494 580.939 368.093 582.419C368.074 582.573 368.209 582.746 368.209 582.746C368.673 584.053 369.272 585.533 369.891 586.86C370.123 587.514 370.509 588.186 370.741 588.84C371.108 589.667 371.475 590.493 371.842 591.32C372.074 591.973 372.46 592.646 372.865 593.165L373 593.338C373.386 594.011 373.753 594.837 374.14 595.51C374.526 596.183 374.912 596.855 375.298 597.528C375.684 598.201 376.07 598.873 376.61 599.565C377.672 601.103 378.733 602.64 379.795 604.177C380.2 604.696 380.451 605.196 380.875 605.561C384.097 609.865 387.415 613.4 390.366 616.108C390.733 616.935 391.119 617.608 391.486 618.434Z" fill="#F7ADC3"/>
<path d="M399.395 627.849C399.376 628.003 399.376 628.003 399.395 627.849C394.15 637.358 386.463 650.16 381.363 653.436C379.843 654.343 377.744 654.865 375.221 655.022C365.148 655.497 348.943 649.902 345.059 640.828C351.454 640.993 361.218 640.48 371.807 637.1C379.797 634.492 388.4 629.46 395.423 624.546C396.696 625.641 397.969 626.735 399.395 627.849Z" fill="#CA4092"/>
<path d="M395.597 624.41C388.419 629.306 379.951 634.511 371.961 637.118C361.353 640.652 351.435 641.146 345.213 640.847C344.479 639.194 344.226 637.444 344.455 635.597C345.541 626.824 367.107 621.987 384.168 619.405C386.729 618.94 389.252 618.783 391.486 618.434C392.336 620.414 393.803 622.47 395.597 624.41Z" fill="#B26D96"/>
<path d="M426.951 679.534C426.45 679.785 426.123 679.901 425.623 680.151C416.499 684.337 404.751 685.7 396.985 682.709C382.34 677.151 385.589 658.489 393.087 648.476C397.202 643.046 398.885 634.504 399.55 627.867C402.404 630.094 405.623 631.898 408.532 632.414C413.86 641.197 419.977 649.921 424.669 658.782C425.307 659.955 425.79 661.108 426.292 662.108C429.635 670.49 428.468 676.127 426.951 679.534Z" fill="#D03B95"/>
<path d="M426.95 679.534C428.621 676.147 429.634 670.49 426.137 662.089C425.635 661.09 425.151 659.936 424.514 658.764C419.822 649.903 413.705 641.178 408.377 632.395C409.899 632.739 411.17 632.584 412.46 632.274C416.628 637.789 424.3 642.799 430.336 648.388C435.1 652.883 439.055 657.59 439.428 663.418C439.861 670.034 434.302 675.754 426.95 679.534Z" fill="#E4AEBD"/>
<path d="M466.29 643.608C465.157 646.437 461.77 648.519 456.975 649.333C456.821 649.314 456.667 649.295 456.667 649.295C456.051 649.219 455.588 649.162 454.991 648.932C454.375 648.855 453.912 648.798 453.315 648.568C452.698 648.492 452.255 648.281 451.639 648.205C451.176 648.148 450.733 647.937 450.271 647.88C449.057 647.574 447.997 647.287 446.802 646.827C446.359 646.616 445.743 646.54 445.299 646.329C444.856 646.118 444.259 645.888 443.796 645.831C443.199 645.6 442.756 645.389 442.158 645.159C441.272 644.737 440.385 644.315 439.48 644.047C437.996 643.395 436.531 642.59 435.085 641.63C430.285 638.693 426.37 634.928 423.513 630.2C423.108 629.682 422.876 629.028 422.625 628.528C422.374 628.028 422.104 627.682 422.007 627.202C421.891 626.875 421.775 626.548 421.659 626.221C421.524 626.048 421.543 625.894 421.408 625.721C421.408 625.721 421.427 625.568 421.273 625.549C421.157 625.222 421.041 624.895 420.905 624.722C420.905 624.722 420.905 624.722 420.925 624.568C434.774 625.184 455.444 627.58 463.679 635.629C466.476 638.318 467.211 641.221 466.29 643.608Z" fill="#C15F99"/>
<path d="M456.822 649.315C450.429 650.401 441.49 649.297 432.355 644.731C429.849 643.484 427.517 642.103 425.087 640.24C420.19 636.823 416.315 634 413.307 631.754C414.135 631.387 415.001 630.713 415.578 629.847C417.058 627.998 417.614 626.035 417.862 624.035C418.806 623.995 419.884 624.128 420.828 624.088C420.828 624.088 420.828 624.088 420.809 624.242C420.925 624.569 421.041 624.896 421.176 625.069C421.176 625.069 421.157 625.223 421.311 625.242C421.446 625.415 421.427 625.569 421.562 625.742C421.678 626.068 421.794 626.395 421.91 626.722C422.161 627.222 422.258 627.703 422.528 628.048C422.76 628.702 423.166 629.221 423.417 629.721C426.274 634.449 430.343 638.233 434.988 641.15C436.434 642.11 437.918 642.762 439.383 643.568C440.27 643.99 441.156 644.412 442.062 644.68C442.505 644.891 443.103 645.121 443.7 645.351C444.143 645.562 444.741 645.792 445.203 645.849C445.646 646.06 446.244 646.29 446.706 646.347C447.92 646.653 448.961 647.094 450.174 647.4C450.637 647.457 451.08 647.668 451.542 647.726C452.159 647.802 452.602 648.013 453.218 648.089C453.835 648.165 454.278 648.376 454.895 648.452C455.511 648.528 455.973 648.585 456.571 648.815C456.514 649.277 456.668 649.296 456.822 649.315Z" fill="#CF629F"/>
<path d="M408.05 589.541C408.05 589.541 406.966 599.564 405.339 607.645" stroke="black" stroke-width="1.10879" stroke-miterlimit="10"/>
<path d="M422.889 596.06C422.889 596.06 422.716 596.195 422.678 596.502C421.524 598.235 416.738 605.301 412.201 611.616" stroke="black" stroke-width="1.10879" stroke-miterlimit="10"/>
<path d="M414.246 614.056C419.635 610.971 426.084 608.174 431.862 608.262C432.016 608.281 432.17 608.3 432.478 608.338" stroke="black" stroke-width="1.10879" stroke-miterlimit="10"/>
<path d="M417.566 575.872C416.575 583.875 412.365 590.074 408.05 589.541C407.896 589.522 407.896 589.522 407.742 589.503C403.619 588.682 401.164 581.972 402.155 573.969C403.146 565.966 407.355 559.766 411.67 560.299C415.986 560.832 418.576 567.715 417.566 575.872Z" fill="#F4F197"/>
<path d="M435.898 587.041C432.113 593.605 426.609 597.613 423.141 596.56C422.833 596.522 422.698 596.349 422.409 596.157C419.054 594.18 419.642 586.908 423.793 579.921C427.944 572.933 433.947 568.674 437.301 570.651C440.636 572.781 440.049 580.053 435.898 587.041Z" fill="#C8A68C"/>
<path d="M445.639 611.995C442.174 613.442 438.688 613.793 436.106 613.162C434.295 612.626 432.849 611.666 432.25 610.186C432.018 609.532 431.805 608.724 431.901 607.955C432.282 604.877 435.551 601.218 440.171 599.288C442.154 598.439 444.079 598.052 445.986 597.818C449.607 597.64 452.594 598.79 453.714 601.116C455.009 604.558 451.433 609.429 445.639 611.995Z" fill="#F4F197"/>
<path d="M645.756 289.503C646.487 304.903 659.579 316.795 674.999 316.065C690.419 315.335 702.327 302.26 701.596 286.861C700.866 271.462 687.773 259.57 672.353 260.3C656.934 261.029 645.026 274.104 645.756 289.503Z" fill="#D565A6"/>
<path d="M689.914 335.545C690.361 344.955 698.362 352.223 707.785 351.777C717.208 351.331 724.485 343.341 724.039 333.93C723.592 324.519 715.591 317.252 706.168 317.698C696.745 318.144 689.468 326.134 689.914 335.545Z" fill="#F5ACBD"/>
<path d="M658.856 336.236C659.16 342.653 664.615 347.608 671.04 347.304C677.465 347 682.427 341.552 682.123 335.135C681.818 328.719 676.363 323.764 669.938 324.068C663.513 324.372 658.551 329.82 658.856 336.236Z" fill="#CE3992"/>
<path d="M152.18 229.515C167.617 229.515 180.131 217.018 180.131 201.601C180.131 186.185 167.617 173.688 152.18 173.688C136.743 173.688 124.229 186.185 124.229 201.601C124.229 217.018 136.743 229.515 152.18 229.515Z" fill="#E18CBB"/>
<path d="M131.992 164.383C141.425 164.383 149.073 156.745 149.073 147.324C149.073 137.903 141.425 130.266 131.992 130.266C122.558 130.266 114.91 137.903 114.91 147.324C114.91 156.745 122.558 164.383 131.992 164.383Z" fill="#664199"/>
<path d="M168.484 165.932C174.916 165.932 180.131 160.724 180.131 154.301C180.131 147.877 174.916 142.67 168.484 142.67C162.052 142.67 156.838 147.877 156.838 154.301C156.838 160.724 162.052 165.932 168.484 165.932Z" fill="#9C84BD"/>
<defs>
<linearGradient id="paint0_linear_2890_4569" x1="657.222" y1="543.223" x2="539.851" y2="273.57" gradientUnits="userSpaceOnUse">
<stop stop-color="#9C84BD"/>
<stop offset="1" stop-color="#9C84BD" stop-opacity="0"/>
</linearGradient>
<linearGradient id="paint1_linear_2890_4569" x1="234.877" y1="243.658" x2="232.892" y2="269.784" gradientUnits="userSpaceOnUse">
<stop stop-color="#664199"/>
<stop offset="1" stop-color="#D6509D" stop-opacity="0"/>
</linearGradient>
<linearGradient id="paint2_linear_2890_4569" x1="201.234" y1="298.745" x2="198.841" y2="330.251" gradientUnits="userSpaceOnUse">
<stop stop-color="#664199"/>
<stop offset="1" stop-color="#D6509D" stop-opacity="0"/>
</linearGradient>
<linearGradient id="paint3_linear_2890_4569" x1="423.889" y1="267.078" x2="412.586" y2="415.87" gradientUnits="userSpaceOnUse">
<stop stop-color="#F06EA9"/>
<stop offset="1" stop-color="#E18CBB" stop-opacity="0"/>
</linearGradient>
<linearGradient id="paint4_linear_2890_4569" x1="532.683" y1="123.248" x2="517.653" y2="321.129" gradientUnits="userSpaceOnUse">
<stop stop-color="#F06EA9"/>
<stop offset="1" stop-color="#E18CBB" stop-opacity="0"/>
</linearGradient>
<linearGradient id="paint5_linear_2890_4569" x1="487.053" y1="401.99" x2="482.186" y2="466.069" gradientUnits="userSpaceOnUse">
<stop stop-color="#F06EA9"/>
<stop offset="1" stop-color="#E18CBB" stop-opacity="0"/>
</linearGradient>
<linearGradient id="paint6_linear_2890_4569" x1="644.502" y1="400.737" x2="637.638" y2="491.115" gradientUnits="userSpaceOnUse">
<stop stop-color="#F06EA9"/>
<stop offset="1" stop-color="#E18CBB" stop-opacity="0"/>
</linearGradient>
<linearGradient id="paint7_linear_2890_4569" x1="420.597" y1="49.265" x2="412.226" y2="159.469" gradientUnits="userSpaceOnUse">
<stop stop-color="#F06EA9"/>
<stop offset="1" stop-color="#E18CBB" stop-opacity="0"/>
</linearGradient>
<linearGradient id="paint8_linear_2890_4569" x1="368.359" y1="187.895" x2="360.513" y2="291.181" gradientUnits="userSpaceOnUse">
<stop stop-color="#F06EA9"/>
<stop offset="1" stop-color="#E18CBB" stop-opacity="0"/>
</linearGradient>
<linearGradient id="paint9_linear_2890_4569" x1="428.494" y1="240.887" x2="448.737" y2="257.088" gradientUnits="userSpaceOnUse">
<stop stop-color="#664199"/>
<stop offset="1" stop-color="#D6509D" stop-opacity="0"/>
</linearGradient>
<linearGradient id="paint10_linear_2890_4569" x1="502.18" y1="317.157" x2="514.528" y2="338.24" gradientUnits="userSpaceOnUse">
<stop stop-color="#664199"/>
<stop offset="1" stop-color="#D6509D" stop-opacity="0"/>
</linearGradient>
<linearGradient id="paint11_linear_2890_4569" x1="401.541" y1="351.391" x2="433.846" y2="360.372" gradientUnits="userSpaceOnUse">
<stop stop-color="#664199"/>
<stop offset="1" stop-color="#F06EA9" stop-opacity="0"/>
</linearGradient>
<linearGradient id="paint12_linear_2890_4569" x1="547.416" y1="455.234" x2="620.944" y2="471.071" gradientUnits="userSpaceOnUse">
<stop stop-color="#664199"/>
<stop offset="1" stop-color="#D6509D" stop-opacity="0"/>
</linearGradient>
<linearGradient id="paint13_linear_2890_4569" x1="490.826" y1="428.886" x2="489.454" y2="446.935" gradientUnits="userSpaceOnUse">
<stop stop-color="#664199"/>
<stop offset="1" stop-color="#F06EA9" stop-opacity="0"/>
</linearGradient>
<linearGradient id="paint14_linear_2890_4569" x1="570.77" y1="405.744" x2="569.399" y2="423.792" gradientUnits="userSpaceOnUse">
<stop stop-color="#664199"/>
<stop offset="1" stop-color="#D6509D" stop-opacity="0"/>
</linearGradient>
<linearGradient id="paint15_linear_2890_4569" x1="347.476" y1="220.405" x2="364.15" y2="225.04" gradientUnits="userSpaceOnUse">
<stop stop-color="#664199"/>
<stop offset="1" stop-color="#F06EA9" stop-opacity="0"/>
</linearGradient>
<linearGradient id="paint16_linear_2890_4569" x1="366.376" y1="151.169" x2="387.218" y2="156.963" gradientUnits="userSpaceOnUse">
<stop stop-color="#664199"/>
<stop offset="1" stop-color="#D6509D" stop-opacity="0"/>
</linearGradient>
<linearGradient id="paint17_linear_2890_4569" x1="318.646" y1="472.144" x2="197.242" y2="543.671" gradientUnits="userSpaceOnUse">
<stop stop-color="#CF3E96"/>
<stop offset="1" stop-color="#CF3E96" stop-opacity="0"/>
</linearGradient>
<linearGradient id="paint18_linear_2890_4569" x1="285.268" y1="584.706" x2="165.984" y2="625.937" gradientUnits="userSpaceOnUse">
<stop stop-color="#F171AB"/>
<stop offset="1" stop-color="#F171AB" stop-opacity="0"/>
</linearGradient>
<linearGradient id="paint19_linear_2890_4569" x1="280.261" y1="569.741" x2="170.372" y2="607.726" gradientUnits="userSpaceOnUse">
<stop stop-color="#F171AB"/>
<stop offset="1" stop-color="#F171AB" stop-opacity="0"/>
</linearGradient>
<linearGradient id="paint20_linear_2890_4569" x1="137.529" y1="363.926" x2="199.017" y2="528.169" gradientUnits="userSpaceOnUse">
<stop stop-color="#F5ACBD"/>
<stop offset="1" stop-color="#F5ACBD" stop-opacity="0"/>
</linearGradient>
<linearGradient id="paint21_linear_2890_4569" x1="47.0027" y1="463.2" x2="177.379" y2="510.209" gradientUnits="userSpaceOnUse">
<stop stop-color="#D565A6"/>
<stop offset="1" stop-color="#D565A6" stop-opacity="0"/>
</linearGradient>
<linearGradient id="paint22_linear_2890_4569" x1="58.8373" y1="582.988" x2="172.919" y2="535.338" gradientUnits="userSpaceOnUse">
<stop stop-color="#C0198B"/>
<stop offset="1" stop-color="#C0198B" stop-opacity="0"/>
</linearGradient>
<linearGradient id="paint23_linear_2890_4569" x1="416.027" y1="513.734" x2="408.069" y2="621.576" gradientUnits="userSpaceOnUse">
<stop stop-color="#D03D96"/>
<stop offset="1" stop-color="#D03D96" stop-opacity="0"/>
</linearGradient>
<linearGradient id="paint24_linear_2890_4569" x1="283.401" y1="573.924" x2="388.192" y2="630.74" gradientUnits="userSpaceOnUse">
<stop stop-color="#BC1E8E"/>
<stop offset="1" stop-color="#BC1E8E" stop-opacity="0"/>
</linearGradient>
<linearGradient id="paint25_linear_2890_4569" x1="481.989" y1="572.413" x2="434.164" y2="626.968" gradientUnits="userSpaceOnUse">
<stop stop-color="#F06EA9"/>
<stop offset="1" stop-color="#F06EA9" stop-opacity="0"/>
</linearGradient>
<linearGradient id="paint26_linear_2890_4569" x1="520.79" y1="716.522" x2="416.873" y2="640.261" gradientUnits="userSpaceOnUse">
<stop stop-color="#D03B95"/>
<stop offset="1" stop-color="#D03B95" stop-opacity="0"/>
</linearGradient>
<linearGradient id="paint27_linear_2890_4569" x1="376.381" y1="751.82" x2="397.725" y2="623.197" gradientUnits="userSpaceOnUse">
<stop stop-color="#EC74AD"/>
<stop offset="1" stop-color="#EC74AD" stop-opacity="0"/>
</linearGradient>
</defs>
</svg>
