<svg width="46" height="46" viewBox="0 0 46 46" fill="none" xmlns="http://www.w3.org/2000/svg">
<path d="M23 0C35.4294 0 45.5 10.2944 45.5 23C45.5 35.7056 35.4294 46 23 46C10.5706 46 0.5 35.7056 0.5 23C0.5 10.2944 10.5706 0 23 0ZM20.378 13.3177L27.2278 20.0323H10.6613C9.45464 20.0323 8.48387 21.0246 8.48387 22.2581V23.7419C8.48387 24.9754 9.45464 25.9677 10.6613 25.9677H27.2278L20.378 32.6823C19.498 33.5448 19.4798 34.9823 20.3417 35.8633L21.3397 36.8742C22.1925 37.746 23.5716 37.746 24.4153 36.8742L36.4546 24.5766C37.3075 23.7048 37.3075 22.2952 36.4546 21.4327L24.4153 9.11653C23.5625 8.24476 22.1835 8.24476 21.3397 9.11653L20.3417 10.1274C19.4798 11.0177 19.498 12.4552 20.378 13.3177Z" fill="black"/>
</svg>