<svg width="47" height="46" viewBox="0 0 47 46" fill="none" xmlns="http://www.w3.org/2000/svg">
<path d="M23.5 45.5C10.7944 45.5 0.5 35.4294 0.5 23C0.5 10.5706 10.7944 0.5 23.5 0.5C36.2056 0.5 46.5 10.5706 46.5 23C46.5 35.4294 36.2056 45.5 23.5 45.5ZM26.1802 32.4718L19.1782 25.9032H36.1129C37.3464 25.9032 38.3387 24.9325 38.3387 23.7258V22.2742C38.3387 21.0675 37.3464 20.0968 36.1129 20.0968H19.1782L26.1802 13.5282C27.0798 12.6845 27.0984 11.2782 26.2173 10.4163L25.1972 9.42742C24.3254 8.5746 22.9157 8.5746 22.0532 9.42742L9.74637 21.4577C8.8746 22.3105 8.8746 23.6895 9.74637 24.5333L22.0532 36.5726C22.925 37.4254 24.3347 37.4254 25.1972 36.5726L26.2173 35.5837C27.0984 34.7218 27.0798 33.3155 26.1802 32.4718Z" fill="black"/>
</svg>